<svg width="710" height="516" viewBox="0 0 710 516" fill="none" xmlns="http://www.w3.org/2000/svg">
<path d="M446.923 140.578C402.171 118.202 369.054 24.074 236.141 24.074C105.764 24.074 0 123.722 0 246.491C0 369.261 94.5758 468.61 224.953 468.61C305.357 468.61 319.38 446.682 368.905 446.682C424.398 446.682 439.315 497.699 539.261 497.699C636.671 497.699 712.003 416.101 709.318 315.409C703.948 111.042 489.288 161.761 446.923 140.578Z" fill="url(#paint0_linear)"/>
<path d="M488.695 108.208C518.353 108.208 542.397 84.1642 542.397 54.5052C542.397 24.8462 518.353 0.802856 488.695 0.802856C459.036 0.802856 434.992 24.8462 434.992 54.5052C434.992 84.1642 459.036 108.208 488.695 108.208Z" fill="url(#paint1_linear)"/>
<path d="M351.895 515.152C364.17 515.152 374.122 505.201 374.122 492.925C374.122 480.65 364.17 470.698 351.895 470.698C339.619 470.698 329.668 480.65 329.668 492.925C329.668 505.201 339.619 515.152 351.895 515.152Z" fill="url(#paint2_linear)"/>
<path d="M600.719 124.318C612.995 124.318 622.946 114.367 622.946 102.092C622.946 89.816 612.995 79.8647 600.719 79.8647C588.443 79.8647 578.492 89.816 578.492 102.092C578.492 114.367 588.443 124.318 600.719 124.318Z" fill="url(#paint3_linear)"/>
<path d="M142.168 236.944C142.615 236.496 143.063 236.198 143.511 235.751C143.063 236.198 142.615 236.496 142.168 236.944Z" fill="#D1D1D1"/>
<path d="M140.523 239.182C140.971 238.436 141.418 237.69 142.164 237.093C141.568 237.69 140.971 238.287 140.523 239.182Z" fill="#D1D1D1"/>
<path d="M139.93 240.823C140.079 240.226 140.377 239.629 140.676 239.182C140.377 239.629 140.079 240.226 139.93 240.823Z" fill="#D1D1D1"/>
<path d="M148.729 234.259C146.79 234.259 145 234.856 143.508 235.9C145 234.856 146.79 234.259 148.729 234.259Z" fill="#D1D1D1"/>
<path d="M139.48 244.403C139.928 249.027 143.806 252.607 148.431 252.756C143.806 252.607 139.928 249.027 139.48 244.403Z" fill="#D1D1D1"/>
<path d="M506.596 315.707C506.596 315.707 506.596 315.558 506.596 315.707C506.298 315.707 506 315.707 505.85 315.707C504.359 315.707 503.165 315.26 502.121 314.514C503.165 315.26 504.508 315.707 505.85 315.707C506.149 315.707 506.447 315.707 506.596 315.707Z" fill="#D1D1D1"/>
<path d="M502.416 313.47L501.969 314.514C503.013 315.26 504.356 315.707 505.698 315.707C505.996 315.707 506.146 315.707 506.444 315.707C504.952 315.409 503.46 314.663 502.416 313.47Z" fill="#D1D1D1"/>
<path d="M286.557 187.419C286.109 187.269 283.424 186.673 282.678 185.479C282.082 184.584 281.336 182.496 281.187 182.048C281.037 182.496 280.292 184.584 279.695 185.479C278.949 186.822 276.264 187.419 275.816 187.419C276.264 187.568 278.949 188.164 279.695 189.358C280.292 190.253 281.037 192.341 281.187 192.789C281.336 192.341 282.082 190.253 282.678 189.358C283.573 188.164 286.109 187.568 286.557 187.419Z" fill="url(#paint4_linear)"/>
<path d="M369.95 112.981C369.353 112.832 365.475 111.937 364.431 110.147C363.536 108.804 362.641 105.821 362.342 105.224C362.193 105.821 361.149 108.804 360.254 110.147C359.06 111.937 355.331 112.832 354.734 112.981C355.331 113.13 359.21 114.025 360.254 115.815C361.149 117.158 362.044 120.141 362.342 120.738C362.491 120.141 363.536 117.158 364.431 115.815C365.475 114.025 369.353 113.13 369.95 112.981Z" fill="url(#paint5_linear)"/>
<path d="M336.681 138.639C336.383 138.639 334.593 138.191 333.996 137.296C333.549 136.7 333.101 135.208 332.952 134.91C332.803 135.208 332.355 136.7 331.908 137.296C331.311 138.191 329.521 138.639 329.223 138.639C329.521 138.639 331.311 139.086 331.908 139.981C332.355 140.578 332.803 142.07 332.952 142.368C333.101 142.07 333.549 140.578 333.996 139.981C334.593 139.086 336.532 138.639 336.681 138.639Z" fill="url(#paint6_linear)"/>
<path d="M301.033 112.235C300.884 112.235 299.541 111.937 299.243 111.34C298.944 110.893 298.646 109.848 298.497 109.699C298.497 109.848 298.049 110.893 297.751 111.34C297.303 111.937 296.11 112.235 295.961 112.235C296.11 112.235 297.453 112.534 297.751 113.13C298.049 113.578 298.348 114.622 298.497 114.771C298.497 114.622 298.944 113.578 299.243 113.13C299.541 112.534 300.884 112.235 301.033 112.235Z" fill="url(#paint7_linear)"/>
<path d="M331.463 178.17C331.313 178.17 329.971 177.871 329.672 177.275C329.374 176.827 329.076 175.783 328.927 175.634C328.927 175.783 328.479 176.827 328.181 177.275C327.733 177.871 326.54 178.17 326.391 178.17C326.54 178.17 327.882 178.468 328.181 179.065C328.479 179.512 328.777 180.556 328.927 180.706C328.927 180.556 329.374 179.512 329.672 179.065C329.971 178.468 331.313 178.17 331.463 178.17Z" fill="url(#paint8_linear)"/>
<path d="M272.24 112.981C272.091 112.981 270.748 112.683 270.45 112.086C270.151 111.639 269.853 110.594 269.704 110.445C269.704 110.594 269.256 111.639 268.958 112.086C268.511 112.683 267.317 112.981 267.168 112.981C267.317 112.981 268.66 113.279 268.958 113.876C269.256 114.324 269.555 115.368 269.704 115.517C269.704 115.368 270.151 114.324 270.45 113.876C270.748 113.429 272.091 113.13 272.24 112.981Z" fill="url(#paint9_linear)"/>
<path d="M264.185 143.562C264.036 143.562 262.693 143.263 262.395 142.667C262.097 142.219 261.798 141.175 261.649 141.026C261.649 141.175 261.202 142.219 260.903 142.667C260.456 143.263 259.262 143.562 259.113 143.562C259.262 143.562 260.605 143.86 260.903 144.457C261.202 144.904 261.5 145.948 261.649 146.098C261.649 145.948 262.097 144.904 262.395 144.457C262.693 143.86 264.036 143.562 264.185 143.562Z" fill="url(#paint10_linear)"/>
<path d="M331.463 77.7762C331.313 77.7762 329.971 77.4778 329.672 76.8811C329.374 76.4336 329.076 75.3894 328.927 75.2402C328.927 75.3894 328.479 76.4336 328.181 76.8811C327.733 77.4778 326.54 77.7762 326.391 77.7762C326.54 77.7762 327.882 78.0745 328.181 78.6712C328.479 79.1187 328.777 80.163 328.927 80.3121C328.927 80.163 329.374 79.1187 329.672 78.6712C329.971 78.0745 331.313 77.7762 331.463 77.7762Z" fill="url(#paint11_linear)"/>
<path d="M372.041 159.225C371.891 159.225 370.549 158.926 370.251 158.33C369.952 157.882 369.654 156.838 369.505 156.689C369.505 156.838 369.057 157.882 368.759 158.33C368.311 158.926 367.118 159.225 366.969 159.225C367.118 159.225 368.46 159.523 368.759 160.12C369.057 160.567 369.355 161.611 369.505 161.761C369.505 161.611 369.952 160.567 370.251 160.12C370.549 159.672 371.891 159.374 372.041 159.225Z" fill="url(#paint12_linear)"/>
<path d="M423.506 195.474C423.356 195.474 422.014 195.176 421.715 194.579C421.417 194.131 421.119 193.087 420.97 192.938C420.97 193.087 420.522 194.131 420.224 194.579C419.776 195.176 418.583 195.474 418.434 195.474C418.583 195.474 419.925 195.772 420.224 196.369C420.522 196.816 420.82 197.861 420.97 198.01C420.97 197.861 421.417 196.816 421.715 196.369C422.014 195.921 423.356 195.623 423.506 195.474Z" fill="url(#paint13_linear)"/>
<path d="M502.415 199.054C502.117 199.054 500.476 198.607 500.028 197.861C499.581 197.264 499.283 195.921 499.133 195.623C498.984 195.921 498.537 197.264 498.238 197.861C497.791 198.607 496.001 199.054 495.852 199.054C496.15 199.054 497.791 199.502 498.238 200.247C498.686 200.844 498.984 202.187 499.133 202.485C499.283 202.187 499.73 200.844 500.028 200.247C500.476 199.502 502.117 199.054 502.415 199.054Z" fill="url(#paint14_linear)"/>
<path d="M513.751 246.789C513.602 246.789 512.26 246.491 511.961 245.894C511.663 245.447 511.365 244.403 511.216 244.254C511.216 244.403 510.768 245.447 510.47 245.894C510.022 246.491 508.829 246.789 508.68 246.789C508.829 246.789 510.171 247.088 510.47 247.685C510.768 248.132 511.066 249.176 511.216 249.325C511.216 249.176 511.663 248.132 511.961 247.685C512.26 247.088 513.602 246.789 513.751 246.789Z" fill="url(#paint15_linear)"/>
<path d="M65.9337 267.077C65.337 266.928 61.6077 266.033 60.4143 264.243C59.5192 262.9 58.6242 259.917 58.475 259.32C58.3258 259.917 57.2816 262.751 56.3866 264.243C55.3424 266.033 51.4639 266.928 50.8672 267.077C51.4639 267.226 55.1932 268.121 56.3866 269.911C57.2816 271.254 58.1767 274.237 58.3258 274.834C58.475 274.237 59.5192 271.254 60.2651 269.911C61.6077 267.972 65.337 267.226 65.9337 267.077Z" fill="url(#paint16_linear)"/>
<path d="M132.906 94.3343C132.31 94.1851 128.58 93.2901 127.387 91.5C126.492 90.1574 125.597 87.174 125.448 86.5773C125.298 87.174 124.254 90.0083 123.359 91.5C122.315 93.2901 118.437 94.1851 117.84 94.3343C118.437 94.4834 122.166 95.3785 123.359 97.1686C124.254 98.5111 125.149 101.495 125.298 102.091C125.448 101.495 126.492 98.5111 127.238 97.1686C128.58 95.3785 132.459 94.4834 132.906 94.3343Z" fill="url(#paint17_linear)"/>
<path d="M170.799 132.523C170.352 132.373 167.666 131.777 166.921 130.583C166.324 129.688 165.578 127.6 165.429 127.152C165.28 127.6 164.534 129.688 163.937 130.583C163.191 131.926 160.506 132.523 160.059 132.523C160.506 132.672 163.191 133.268 163.937 134.462C164.534 135.357 165.28 137.445 165.429 137.893C165.578 137.445 166.324 135.357 166.921 134.462C167.816 133.268 170.501 132.672 170.799 132.523Z" fill="url(#paint18_linear)"/>
<path d="M221.967 69.5716C221.519 69.4225 218.834 68.8258 218.089 67.6324C217.492 66.7374 216.746 64.6489 216.597 64.2014C216.448 64.6489 215.702 66.7374 215.105 67.6324C214.359 68.975 211.674 69.5716 211.227 69.5716C211.674 69.7208 214.359 70.3175 215.105 71.5109C215.702 72.4059 216.448 74.4944 216.597 74.9419C216.746 74.4944 217.492 72.4059 218.089 71.5109C218.834 70.3175 221.519 69.7208 221.967 69.5716Z" fill="url(#paint19_linear)"/>
<path d="M107.253 232.021C106.806 231.872 104.27 231.275 103.524 230.082C102.927 229.187 102.33 227.099 102.181 226.651C102.032 227.099 101.435 229.038 100.839 230.082C100.093 231.275 97.4077 231.872 97.1094 232.021C97.5569 232.17 100.093 232.767 100.839 233.96C101.435 234.855 102.032 236.944 102.181 237.391C102.33 236.944 102.927 235.005 103.524 233.96C104.121 232.618 106.806 232.021 107.253 232.021Z" fill="url(#paint20_linear)"/>
<path d="M51.0118 181.601C50.4151 181.451 46.6858 180.556 45.4924 178.766C44.5974 177.424 43.7023 174.44 43.5531 173.844C43.404 174.44 42.3598 177.275 41.4647 178.766C40.4205 180.556 36.542 181.451 35.9453 181.601C36.542 181.75 40.2713 182.645 41.4647 184.435C42.3598 185.777 43.2548 188.761 43.404 189.358C43.5531 188.761 44.5974 185.777 45.3432 184.435C46.6858 182.645 50.4151 181.75 51.0118 181.601Z" fill="url(#paint21_linear)"/>
<path d="M64.2878 213.673C63.9894 213.673 62.1993 213.225 61.7518 212.33C61.3043 211.734 60.8568 210.242 60.8568 209.943C60.7076 210.242 60.2601 211.584 59.9617 212.33C59.365 213.225 57.575 213.673 57.4258 213.673C57.7241 213.673 59.5142 214.12 59.9617 215.015C60.4092 215.612 60.8568 217.104 60.8568 217.402C61.0059 217.104 61.4535 215.761 61.7518 215.015C62.3485 214.12 64.1386 213.673 64.2878 213.673Z" fill="url(#paint22_linear)"/>
<path d="M41.6159 248.132C41.3175 248.132 39.5274 247.684 39.0799 246.789C38.6324 246.193 38.1849 244.701 38.1849 244.403C38.0357 244.701 37.5882 246.044 37.2898 246.789C36.6932 247.684 34.9031 248.132 34.7539 248.132C35.0523 248.132 36.8423 248.579 37.2898 249.474C37.7374 250.071 38.1849 251.563 38.1849 251.861C38.3341 251.563 38.7816 250.22 39.0799 249.474C39.5274 248.579 41.3175 248.132 41.6159 248.132Z" fill="url(#paint23_linear)"/>
<path d="M104.268 188.164C103.97 188.164 102.18 187.717 101.732 186.822C101.285 186.225 100.837 184.733 100.837 184.435C100.688 184.733 100.241 186.076 99.9422 186.822C99.3455 187.717 97.5554 188.164 97.4062 188.164C97.7046 188.164 99.4947 188.612 99.9422 189.507C100.39 190.104 100.837 191.595 100.837 191.894C100.986 191.595 101.434 190.253 101.732 189.507C102.18 188.612 103.97 188.164 104.268 188.164Z" fill="url(#paint24_linear)"/>
<path d="M96.5104 277.221C96.2121 277.221 94.422 276.773 93.9745 275.878C93.5269 275.281 93.0794 273.79 93.0794 273.491C92.9303 273.79 92.4827 275.132 92.1844 275.878C91.5877 276.773 89.7976 277.221 89.6484 277.221C89.9468 277.221 91.7369 277.668 92.1844 278.563C92.6319 279.16 93.0794 280.652 93.0794 280.95C93.2286 280.652 93.6761 279.309 93.9745 278.563C94.422 277.668 96.2121 277.221 96.5104 277.221Z" fill="url(#paint25_linear)"/>
<path d="M310.128 391.935C309.829 391.935 308.039 391.487 307.592 390.592C307.144 389.995 306.697 388.504 306.697 388.205C306.547 388.504 306.1 389.846 305.802 390.592C305.205 391.487 303.415 391.935 303.266 391.935C303.564 391.935 305.354 392.382 305.802 393.277C306.249 393.874 306.697 395.366 306.697 395.664C306.846 395.366 307.293 394.023 307.592 393.277C308.039 392.382 309.829 391.935 310.128 391.935Z" fill="url(#paint26_linear)"/>
<path d="M183.774 429.825C183.476 429.825 181.387 429.228 180.791 428.333C180.343 427.587 179.746 426.095 179.746 425.648C179.597 425.946 179.15 427.587 178.702 428.333C178.106 429.228 176.017 429.825 175.719 429.825C176.017 429.825 178.106 430.422 178.702 431.317C179.15 432.062 179.746 433.554 179.746 434.002C179.896 433.703 180.343 432.062 180.791 431.317C181.387 430.422 183.476 429.974 183.774 429.825Z" fill="url(#paint27_linear)"/>
<path d="M220.029 445.488C219.731 445.488 217.791 445.04 217.344 444.145C216.896 443.4 216.449 442.057 216.3 441.759C216.15 442.057 215.703 443.549 215.255 444.145C214.659 445.04 212.869 445.488 212.57 445.488C212.869 445.488 214.808 445.935 215.255 446.831C215.703 447.576 216.15 448.919 216.3 449.217C216.449 448.919 216.896 447.427 217.344 446.831C217.941 446.085 219.731 445.637 220.029 445.488Z" fill="url(#paint28_linear)"/>
<path d="M469.746 397.156C470.194 397.156 472.58 397.752 473.475 398.797C474.072 399.692 474.818 401.482 474.967 401.929C475.116 401.482 475.564 399.543 476.161 398.647C476.906 397.454 479.293 396.708 479.592 396.708C479.144 396.708 476.757 396.112 475.862 395.067C475.266 394.172 474.52 392.382 474.37 391.935C474.221 392.382 473.774 394.321 473.177 395.217C472.58 396.41 470.044 397.156 469.746 397.156Z" fill="url(#paint29_linear)"/>
<path d="M443.793 421.471C444.091 421.471 445.732 421.769 446.329 422.664C446.776 423.261 447.224 424.604 447.373 424.902C447.522 424.604 447.821 423.261 448.119 422.664C448.566 421.769 450.207 421.322 450.506 421.322C450.207 421.322 448.566 421.023 447.97 420.128C447.522 419.532 447.075 418.189 446.926 417.891C446.776 418.189 446.478 419.532 446.18 420.128C445.732 420.874 443.942 421.322 443.793 421.471Z" fill="url(#paint30_linear)"/>
<path d="M482.129 452.797C482.576 452.797 484.963 453.394 485.858 454.438C486.455 455.333 487.201 457.123 487.35 457.571C487.499 457.123 487.947 455.184 488.543 454.289C489.289 453.096 491.676 452.35 491.974 452.35C491.527 452.35 489.14 451.753 488.245 450.709C487.648 449.814 486.902 448.024 486.753 447.576C486.604 448.024 486.157 449.963 485.56 450.858C484.963 452.052 482.427 452.648 482.129 452.797Z" fill="url(#paint31_linear)"/>
<path d="M613.852 409.09C614.299 409.09 616.686 409.686 617.581 410.731C618.178 411.626 618.923 413.416 619.073 413.863C619.222 413.416 619.669 411.476 620.266 410.581C621.012 409.388 623.399 408.642 623.697 408.642C623.249 408.642 620.863 408.045 619.968 407.001C619.371 406.106 618.625 404.316 618.476 403.869C618.327 404.316 617.879 406.255 617.283 407.15C616.686 408.195 614.15 408.94 613.852 409.09Z" fill="url(#paint32_linear)"/>
<path d="M600.719 451.902C601.017 451.902 603.106 452.35 603.851 453.245C604.299 453.991 604.896 455.483 605.045 455.93C605.194 455.632 605.641 453.991 606.089 453.245C606.686 452.201 608.774 451.604 609.072 451.604C608.774 451.604 606.686 451.157 605.94 450.262C605.492 449.516 604.896 448.024 604.746 447.576C604.597 447.875 604.15 449.516 603.702 450.262C603.106 451.157 601.017 451.753 600.719 451.902Z" fill="url(#paint33_linear)"/>
<path d="M614.594 239.331C614.892 239.331 616.981 239.778 617.726 240.673C618.174 241.419 618.771 242.911 618.92 243.358C619.069 243.06 619.516 241.419 619.964 240.673C620.561 239.629 622.649 239.032 622.947 239.032C622.649 239.032 620.561 238.585 619.815 237.69C619.367 236.944 618.771 235.452 618.621 235.005C618.472 235.303 618.025 236.944 617.577 237.69C616.981 238.585 614.892 239.181 614.594 239.331Z" fill="url(#paint34_linear)"/>
<path d="M669.039 302.729C669.487 302.878 672.321 303.326 673.216 304.668C673.813 305.713 674.708 307.801 674.857 308.249C675.006 307.801 675.603 305.563 676.199 304.519C676.945 303.177 679.78 302.431 680.078 302.282C679.63 302.132 676.796 301.685 675.901 300.342C675.304 299.298 674.409 297.21 674.26 296.762C674.111 297.21 673.514 299.447 672.918 300.492C672.172 301.834 669.487 302.58 669.039 302.729Z" fill="url(#paint35_linear)"/>
<path d="M472.434 432.211C472.583 432.211 473.776 432.51 474.224 432.957C474.522 433.405 474.82 434.3 474.97 434.449C474.97 434.3 475.268 433.405 475.566 432.957C475.865 432.361 477.058 432.062 477.207 432.062C477.058 432.062 475.865 431.764 475.417 431.316C475.119 430.869 474.82 429.974 474.671 429.825C474.671 429.974 474.373 430.869 474.075 431.316C473.776 431.764 472.583 432.211 472.434 432.211Z" fill="url(#paint36_linear)"/>
<path d="M486.301 408.941C486.45 408.941 487.643 409.239 488.091 409.686C488.389 410.134 488.688 411.029 488.837 411.178C488.837 411.029 489.135 410.134 489.433 409.686C489.732 409.09 490.925 408.791 491.074 408.791C490.925 408.791 489.732 408.493 489.284 408.046C488.986 407.598 488.688 406.703 488.538 406.554C488.538 406.703 488.24 407.598 487.942 408.046C487.643 408.493 486.45 408.941 486.301 408.941Z" fill="url(#paint37_linear)"/>
<path d="M446.926 450.112C447.075 450.112 448.268 450.411 448.716 450.858C449.014 451.306 449.313 452.201 449.462 452.35C449.462 452.201 449.76 451.306 450.058 450.858C450.357 450.261 451.55 449.963 451.699 449.963C451.55 449.963 450.357 449.665 449.909 449.217C449.611 448.77 449.313 447.875 449.163 447.726C449.163 447.875 448.865 448.77 448.567 449.217C448.268 449.814 447.075 450.112 446.926 450.112Z" fill="url(#paint38_linear)"/>
<path d="M410.973 402.526C411.122 402.526 412.315 402.824 412.763 403.272C413.061 403.719 413.359 404.614 413.509 404.764C413.509 404.614 413.807 403.719 414.105 403.272C414.404 402.675 415.597 402.377 415.746 402.377C415.597 402.377 414.404 402.079 413.956 401.631C413.658 401.183 413.359 400.288 413.21 400.139C413.21 400.288 412.912 401.183 412.614 401.631C412.315 402.228 411.122 402.526 410.973 402.526Z" fill="url(#paint39_linear)"/>
<path d="M207.647 137.893L158.867 83.8922L209.288 135.954C209.288 135.954 212.719 139.086 211.376 140.429C210.481 141.324 207.647 137.893 207.647 137.893Z" fill="url(#paint40_linear)"/>
<path d="M248.372 426.543L216.598 391.487L249.416 425.499C249.416 425.499 251.653 427.587 250.758 428.333C250.311 428.93 248.372 426.543 248.372 426.543Z" fill="url(#paint41_linear)"/>
<path d="M565.964 426.841L521.809 377.913L567.605 425.201C567.605 425.201 570.588 428.035 569.544 429.228C568.5 430.123 565.964 426.841 565.964 426.841Z" fill="url(#paint42_linear)"/>
<path d="M661.583 414.908L636.074 386.565L662.478 413.863C662.478 413.863 664.268 415.504 663.522 416.25C663.075 416.698 661.583 414.908 661.583 414.908Z" fill="url(#paint43_linear)"/>
<path d="M228.384 242.016L202.875 213.673L229.279 240.972C229.279 240.972 231.069 242.612 230.323 243.358C229.875 243.955 228.384 242.016 228.384 242.016Z" fill="url(#paint44_linear)"/>
<path d="M261.05 316.01H272.64V288.08H261.05V207.9H224.57L170.99 301V316.01H229.7V340.9H261.05V316.01ZM233.69 245.52L231.98 268.13V289.41H208.8L233.31 245.52H233.69ZM344.346 203.53C316.796 203.53 294.376 220.44 294.376 249.32V296.06C294.376 325.13 316.796 341.85 344.346 341.85C371.706 341.85 393.936 325.13 393.936 296.06V249.32C393.936 220.44 371.706 203.53 344.346 203.53ZM344.346 311.45C334.276 311.45 326.866 306.13 326.866 295.49V250.08C326.866 239.25 334.276 233.74 344.346 233.74C354.036 233.74 361.636 239.25 361.636 250.08V295.49C361.636 306.13 354.036 311.45 344.346 311.45ZM499.849 316.01H511.439V288.08H499.849V207.9H463.369L409.789 301V316.01H468.499V340.9H499.849V316.01ZM472.489 245.52L470.779 268.13V289.41H447.599L472.109 245.52H472.489Z" fill="white"/>
<defs>
<linearGradient id="paint0_linear" x1="-0.310818" y1="222.735" x2="709.387" y2="314.361" gradientUnits="userSpaceOnUse">
<stop offset="0.0411263" stop-color="#8038C5"/>
<stop offset="0.839975" stop-color="#1CD0C5"/>
</linearGradient>
<linearGradient id="paint1_linear" x1="610.887" y1="134.061" x2="377.182" y2="-18.0952" gradientUnits="userSpaceOnUse">
<stop offset="0.0885417" stop-color="#8038C5"/>
<stop offset="1" stop-color="#1CD0C5"/>
</linearGradient>
<linearGradient id="paint2_linear" x1="402.469" y1="525.853" x2="305.741" y2="462.877" gradientUnits="userSpaceOnUse">
<stop offset="0.0885417" stop-color="#8038C5"/>
<stop offset="1" stop-color="#1CD0C5"/>
</linearGradient>
<linearGradient id="paint3_linear" x1="651.293" y1="135.019" x2="554.565" y2="72.043" gradientUnits="userSpaceOnUse">
<stop offset="0.0885417" stop-color="#8038C5"/>
<stop offset="1" stop-color="#1CD0C5"/>
</linearGradient>
<linearGradient id="paint4_linear" x1="195.942" y1="94.8859" x2="307.821" y2="216.213" gradientUnits="userSpaceOnUse">
<stop stop-color="#6A71D1" stop-opacity="0"/>
<stop offset="1" stop-color="white"/>
</linearGradient>
<linearGradient id="paint5_linear" x1="276.816" y1="20.314" x2="388.694" y2="141.64" gradientUnits="userSpaceOnUse">
<stop stop-color="#6A71D1" stop-opacity="0"/>
<stop offset="1" stop-color="white"/>
</linearGradient>
<linearGradient id="paint6_linear" x1="248.286" y1="46.619" x2="360.165" y2="167.946" gradientUnits="userSpaceOnUse">
<stop stop-color="#6A71D1" stop-opacity="0"/>
<stop offset="1" stop-color="white"/>
</linearGradient>
<linearGradient id="paint7_linear" x1="242.765" y1="51.7112" x2="354.646" y2="173.039" gradientUnits="userSpaceOnUse">
<stop stop-color="#6A71D1" stop-opacity="0"/>
<stop offset="1" stop-color="white"/>
</linearGradient>
<linearGradient id="paint8_linear" x1="226.328" y1="66.867" x2="338.208" y2="188.195" gradientUnits="userSpaceOnUse">
<stop stop-color="#6A71D1" stop-opacity="0"/>
<stop offset="1" stop-color="white"/>
</linearGradient>
<linearGradient id="paint9_linear" x1="235.706" y1="76.1046" x2="347.584" y2="197.43" gradientUnits="userSpaceOnUse">
<stop stop-color="#6A71D1" stop-opacity="0"/>
<stop offset="1" stop-color="white"/>
</linearGradient>
<linearGradient id="paint10_linear" x1="207.202" y1="84.5068" x2="319.079" y2="205.832" gradientUnits="userSpaceOnUse">
<stop stop-color="#6A71D1" stop-opacity="0"/>
<stop offset="1" stop-color="white"/>
</linearGradient>
<linearGradient id="paint11_linear" x1="276.361" y1="20.7269" x2="388.245" y2="142.059" gradientUnits="userSpaceOnUse">
<stop stop-color="#6A71D1" stop-opacity="0"/>
<stop offset="1" stop-color="white"/>
</linearGradient>
<linearGradient id="paint12_linear" x1="257.658" y1="37.9801" x2="369.539" y2="159.307" gradientUnits="userSpaceOnUse">
<stop stop-color="#6A71D1" stop-opacity="0"/>
<stop offset="1" stop-color="white"/>
</linearGradient>
<linearGradient id="paint13_linear" x1="309.095" y1="74.2195" x2="420.973" y2="195.545" gradientUnits="userSpaceOnUse">
<stop stop-color="#6A71D1" stop-opacity="0"/>
<stop offset="1" stop-color="white"/>
</linearGradient>
<linearGradient id="paint14_linear" x1="349.966" y1="37.3929" x2="499.011" y2="199.024" gradientUnits="userSpaceOnUse">
<stop stop-color="#6A71D1" stop-opacity="0"/>
<stop offset="1" stop-color="white"/>
</linearGradient>
<linearGradient id="paint15_linear" x1="399.344" y1="125.496" x2="511.221" y2="246.819" gradientUnits="userSpaceOnUse">
<stop stop-color="#6A71D1" stop-opacity="0"/>
<stop offset="1" stop-color="white"/>
</linearGradient>
<linearGradient id="paint16_linear" x1="-0.495081" y1="167.323" x2="71.0211" y2="288.161" gradientUnits="userSpaceOnUse">
<stop stop-color="#6A71D1" stop-opacity="0"/>
<stop offset="1" stop-color="white"/>
</linearGradient>
<linearGradient id="paint17_linear" x1="66.506" y1="-5.32676" x2="138.022" y2="115.511" gradientUnits="userSpaceOnUse">
<stop stop-color="#6A71D1" stop-opacity="0"/>
<stop offset="1" stop-color="white"/>
</linearGradient>
<linearGradient id="paint18_linear" x1="123.635" y1="61.6989" x2="174.46" y2="147.576" gradientUnits="userSpaceOnUse">
<stop stop-color="#6A71D1" stop-opacity="0"/>
<stop offset="1" stop-color="white"/>
</linearGradient>
<linearGradient id="paint19_linear" x1="174.723" y1="-1.21779" x2="225.549" y2="84.659" gradientUnits="userSpaceOnUse">
<stop stop-color="#6A71D1" stop-opacity="0"/>
<stop offset="1" stop-color="white"/>
</linearGradient>
<linearGradient id="paint20_linear" x1="47.0763" y1="139.168" x2="118.592" y2="260.005" gradientUnits="userSpaceOnUse">
<stop stop-color="#6A71D1" stop-opacity="0"/>
<stop offset="1" stop-color="white"/>
</linearGradient>
<linearGradient id="paint21_linear" x1="25.8499" y1="151.728" x2="97.3666" y2="272.566" gradientUnits="userSpaceOnUse">
<stop stop-color="#6A71D1" stop-opacity="0"/>
<stop offset="1" stop-color="white"/>
</linearGradient>
<linearGradient id="paint22_linear" x1="24.5808" y1="152.478" x2="96.0969" y2="273.316" gradientUnits="userSpaceOnUse">
<stop stop-color="#6A71D1" stop-opacity="0"/>
<stop offset="1" stop-color="white"/>
</linearGradient>
<linearGradient id="paint23_linear" x1="-7.33559" y1="171.369" x2="64.181" y2="292.207" gradientUnits="userSpaceOnUse">
<stop stop-color="#6A71D1" stop-opacity="0"/>
<stop offset="1" stop-color="white"/>
</linearGradient>
<linearGradient id="paint24_linear" x1="65.3237" y1="128.367" x2="136.84" y2="249.205" gradientUnits="userSpaceOnUse">
<stop stop-color="#6A71D1" stop-opacity="0"/>
<stop offset="1" stop-color="white"/>
</linearGradient>
<linearGradient id="paint25_linear" x1="11.4109" y1="139.445" x2="82.9273" y2="260.284" gradientUnits="userSpaceOnUse">
<stop stop-color="#6A71D1" stop-opacity="0"/>
<stop offset="1" stop-color="white"/>
</linearGradient>
<linearGradient id="paint26_linear" x1="224.995" y1="254.156" x2="296.509" y2="374.99" gradientUnits="userSpaceOnUse">
<stop stop-color="#6A71D1" stop-opacity="0"/>
<stop offset="1" stop-color="white"/>
</linearGradient>
<linearGradient id="paint27_linear" x1="87.578" y1="274.239" x2="168.364" y2="410.738" gradientUnits="userSpaceOnUse">
<stop stop-color="#6A71D1" stop-opacity="0"/>
<stop offset="1" stop-color="white"/>
</linearGradient>
<linearGradient id="paint28_linear" x1="131.235" y1="301.726" x2="205.886" y2="427.861" gradientUnits="userSpaceOnUse">
<stop stop-color="#6A71D1" stop-opacity="0"/>
<stop offset="1" stop-color="white"/>
</linearGradient>
<linearGradient id="paint29_linear" x1="435.131" y1="355.753" x2="508.868" y2="432.732" gradientUnits="userSpaceOnUse">
<stop stop-color="#6A71D1" stop-opacity="0"/>
<stop offset="1" stop-color="white"/>
</linearGradient>
<linearGradient id="paint30_linear" x1="408.65" y1="381.123" x2="482.386" y2="458.101" gradientUnits="userSpaceOnUse">
<stop stop-color="#6A71D1" stop-opacity="0"/>
<stop offset="1" stop-color="white"/>
</linearGradient>
<linearGradient id="paint31_linear" x1="413.812" y1="376.178" x2="487.548" y2="453.155" gradientUnits="userSpaceOnUse">
<stop stop-color="#6A71D1" stop-opacity="0"/>
<stop offset="1" stop-color="white"/>
</linearGradient>
<linearGradient id="paint32_linear" x1="545.517" y1="332.391" x2="619.253" y2="409.368" gradientUnits="userSpaceOnUse">
<stop stop-color="#6A71D1" stop-opacity="0"/>
<stop offset="1" stop-color="white"/>
</linearGradient>
<linearGradient id="paint33_linear" x1="543.19" y1="387.313" x2="605.299" y2="452.152" gradientUnits="userSpaceOnUse">
<stop stop-color="#6A71D1" stop-opacity="0"/>
<stop offset="1" stop-color="white"/>
</linearGradient>
<linearGradient id="paint34_linear" x1="557.057" y1="174.747" x2="619.165" y2="239.585" gradientUnits="userSpaceOnUse">
<stop stop-color="#6A71D1" stop-opacity="0"/>
<stop offset="1" stop-color="white"/>
</linearGradient>
<linearGradient id="paint35_linear" x1="591.939" y1="216.283" x2="675.132" y2="303.133" gradientUnits="userSpaceOnUse">
<stop stop-color="#6A71D1" stop-opacity="0"/>
<stop offset="1" stop-color="white"/>
</linearGradient>
<linearGradient id="paint36_linear" x1="417.653" y1="372.498" x2="491.39" y2="449.476" gradientUnits="userSpaceOnUse">
<stop stop-color="#6A71D1" stop-opacity="0"/>
<stop offset="1" stop-color="white"/>
</linearGradient>
<linearGradient id="paint37_linear" x1="436.518" y1="354.423" x2="510.255" y2="431.4" gradientUnits="userSpaceOnUse">
<stop stop-color="#6A71D1" stop-opacity="0"/>
<stop offset="1" stop-color="white"/>
</linearGradient>
<linearGradient id="paint38_linear" x1="395.43" y1="393.792" x2="469.163" y2="470.767" gradientUnits="userSpaceOnUse">
<stop stop-color="#6A71D1" stop-opacity="0"/>
<stop offset="1" stop-color="white"/>
</linearGradient>
<linearGradient id="paint39_linear" x1="400.397" y1="389.027" x2="474.133" y2="466.005" gradientUnits="userSpaceOnUse">
<stop stop-color="#6A71D1" stop-opacity="0"/>
<stop offset="1" stop-color="white"/>
</linearGradient>
<linearGradient id="paint40_linear" x1="158.91" y1="112.213" x2="211.723" y2="112.213" gradientUnits="userSpaceOnUse">
<stop stop-color="#6A71D1" stop-opacity="0"/>
<stop offset="1" stop-color="white"/>
</linearGradient>
<linearGradient id="paint41_linear" x1="216.656" y1="409.897" x2="251.08" y2="409.897" gradientUnits="userSpaceOnUse">
<stop stop-color="#6A71D1" stop-opacity="0"/>
<stop offset="1" stop-color="white"/>
</linearGradient>
<linearGradient id="paint42_linear" x1="521.777" y1="403.646" x2="569.688" y2="403.646" gradientUnits="userSpaceOnUse">
<stop stop-color="#6A71D1" stop-opacity="0"/>
<stop offset="1" stop-color="white"/>
</linearGradient>
<linearGradient id="paint43_linear" x1="636.055" y1="401.489" x2="663.712" y2="401.489" gradientUnits="userSpaceOnUse">
<stop stop-color="#6A71D1" stop-opacity="0"/>
<stop offset="1" stop-color="white"/>
</linearGradient>
<linearGradient id="paint44_linear" x1="202.829" y1="228.651" x2="230.486" y2="228.651" gradientUnits="userSpaceOnUse">
<stop stop-color="#6A71D1" stop-opacity="0"/>
<stop offset="1" stop-color="white"/>
</linearGradient>
</defs>
</svg>
