<svg width="25" height="25" viewBox="0 0 25 25" fill="none" xmlns="http://www.w3.org/2000/svg">
<path d="M15.2356 23.032L3.30688 11.0252C0.928955 8.63263 0.928955 4.71662 3.30688 2.32404C6.15845 -0.547054 10.05 0.458805 11.9006 2.32404L22.4133 12.9051L21.7053 13.618L11.2415 3.03693C9.79614 1.50373 6.46606 0.619938 3.96118 3.03693C1.98853 5.01935 1.98853 8.3299 3.96118 10.3123L15.8899 22.3192C17.4084 23.8475 19.8352 23.8475 21.3001 22.3192C22.8186 20.7908 22.8186 18.3494 21.3001 16.8748L11.1438 6.5965C10.1819 5.6297 8.56567 5.6297 7.60376 6.5965C6.64185 7.5633 6.64185 9.18927 7.60376 10.1561L16.4514 19.0623L15.7434 19.7752L6.89575 10.8738C5.52856 9.50177 5.52856 7.26056 6.89575 5.88849C8.26294 4.51642 10.4846 4.51642 11.8518 5.88849L22.0618 16.1619C24.5911 18.7059 23.2483 21.8992 22.0618 23.0809C20.4651 24.7606 17.179 25.0731 15.2356 23.032Z" fill="black"/>
</svg>
