<svg width="157" height="157" viewBox="0 0 157 157" fill="none" xmlns="http://www.w3.org/2000/svg">
<g clip-path="url(#clip0)">
<path d="M78.5 43.4856H2.25899C1.65987 43.4856 1.08529 43.2476 0.661644 42.824C0.238 42.4003 0 41.8257 0 41.2266V17.7896C0.0044857 13.0729 1.88018 8.55062 5.2154 5.2154C8.55062 1.88018 13.0729 0.0044857 17.7896 0L62.9694 0C67.6861 0.0044857 72.2084 1.88018 75.5436 5.2154C78.8788 8.55062 80.7545 13.0729 80.759 17.7896V41.2266C80.759 41.8257 80.521 42.4003 80.0974 42.824C79.6737 43.2476 79.0991 43.4856 78.5 43.4856ZM4.51799 38.9676H76.241V17.7896C76.238 14.2706 74.8388 10.8967 72.3505 8.40845C69.8623 5.92019 66.4883 4.52098 62.9694 4.51799H17.7896C14.2706 4.52098 10.8967 5.92019 8.40845 8.40845C5.92019 10.8967 4.52098 14.2706 4.51799 17.7896V38.9676Z" fill="#4263A8"/>
<path d="M154.741 157H2.25899C1.65987 157 1.08529 156.762 0.661644 156.339C0.238 155.915 0 155.34 0 154.741V41.2268C0 40.6276 0.238 40.0531 0.661644 39.6294C1.08529 39.2058 1.65987 38.9678 2.25899 38.9678H154.741C155.34 38.9678 155.915 39.2058 156.338 39.6294C156.762 40.0531 157 40.6276 157 41.2268V154.741C157 155.34 156.762 155.915 156.338 156.339C155.915 156.762 155.34 157 154.741 157ZM4.51799 152.482H152.482V43.4858H4.51799V152.482Z" fill="#8D67C3"/>
<path d="M133.321 57.9828H23.6809C23.0817 57.9828 22.5072 57.7448 22.0835 57.3212C21.6599 56.8975 21.4219 56.323 21.4219 55.7238C21.4219 55.1247 21.6599 54.5501 22.0835 54.1265C22.5072 53.7028 23.0817 53.4648 23.6809 53.4648H133.321C133.92 53.4648 134.495 53.7028 134.918 54.1265C135.342 54.5501 135.58 55.1247 135.58 55.7238C135.58 56.323 135.342 56.8975 134.918 57.3212C134.495 57.7448 133.92 57.9828 133.321 57.9828Z" fill="#1CD0C5"/>
<path d="M133.321 113.147H91.4113C90.8122 113.147 90.2376 112.909 89.814 112.486C89.3903 112.062 89.1523 111.488 89.1523 110.888C89.1523 110.289 89.3903 109.715 89.814 109.291C90.2376 108.867 90.8122 108.629 91.4113 108.629H133.321C133.92 108.629 134.495 108.867 134.919 109.291C135.342 109.715 135.58 110.289 135.58 110.888C135.58 111.488 135.342 112.062 134.919 112.486C134.495 112.909 133.92 113.147 133.321 113.147Z" fill="#1CD0C5"/>
<path d="M133.321 142.503H91.4113C90.8122 142.503 90.2376 142.265 89.814 141.841C89.3903 141.418 89.1523 140.843 89.1523 140.244C89.1523 139.645 89.3903 139.07 89.814 138.647C90.2376 138.223 90.8122 137.985 91.4113 137.985H133.321C133.92 137.985 134.495 138.223 134.919 138.647C135.342 139.07 135.58 139.645 135.58 140.244C135.58 140.843 135.342 141.418 134.919 141.841C134.495 142.265 133.92 142.503 133.321 142.503Z" fill="#19B4EE"/>
<path d="M133.321 132.716H91.4113C90.8122 132.716 90.2376 132.478 89.814 132.054C89.3903 131.63 89.1523 131.056 89.1523 130.457C89.1523 129.858 89.3903 129.283 89.814 128.859C90.2376 128.436 90.8122 128.198 91.4113 128.198H133.321C133.92 128.198 134.495 128.436 134.919 128.859C135.342 129.283 135.58 129.858 135.58 130.457C135.58 131.056 135.342 131.63 134.919 132.054C134.495 132.478 133.92 132.716 133.321 132.716Z" fill="#19B4EE"/>
<path d="M133.321 122.934H91.4113C90.8122 122.934 90.2376 122.696 89.814 122.273C89.3903 121.849 89.1523 121.275 89.1523 120.675C89.1523 120.076 89.3903 119.502 89.814 119.078C90.2376 118.655 90.8122 118.417 91.4113 118.417H133.321C133.92 118.417 134.495 118.655 134.919 119.078C135.342 119.502 135.58 120.076 135.58 120.675C135.58 121.275 135.342 121.849 134.919 122.273C134.495 122.696 133.92 122.934 133.321 122.934Z" fill="#19B4EE"/>
<path d="M133.321 99.8248H23.6809C23.0817 99.8248 22.5072 99.5868 22.0835 99.1632C21.6599 98.7395 21.4219 98.165 21.4219 97.5658V68.1989C21.4219 67.5998 21.6599 67.0252 22.0835 66.6016C22.5072 66.1779 23.0817 65.9399 23.6809 65.9399H133.321C133.92 65.9399 134.495 66.1779 134.918 66.6016C135.342 67.0252 135.58 67.5998 135.58 68.1989V97.5658C135.58 98.165 135.342 98.7395 134.918 99.1632C134.495 99.5868 133.92 99.8248 133.321 99.8248ZM25.9399 95.3068H131.062V70.4579H25.9399V95.3068Z" fill="#F376A2"/>
<path d="M78.501 142.503H23.6809C23.0817 142.503 22.5072 142.265 22.0835 141.841C21.6599 141.418 21.4219 140.843 21.4219 140.244V110.877C21.4219 110.278 21.6599 109.703 22.0835 109.28C22.5072 108.856 23.0817 108.618 23.6809 108.618H78.501C79.1001 108.618 79.6747 108.856 80.0983 109.28C80.522 109.703 80.76 110.278 80.76 110.877V140.244C80.76 140.843 80.522 141.418 80.0983 141.841C79.6747 142.265 79.1001 142.503 78.501 142.503ZM25.9399 137.985H76.242V113.136H25.9399V137.985Z" fill="#19B4EE"/>
<path d="M76.4674 90.3598C76.3184 90.3595 76.1708 90.3308 76.0325 90.2751C75.8264 90.1891 75.6505 90.044 75.5268 89.858C75.4032 89.672 75.3374 89.4536 75.3379 89.2303V76.5235C75.3377 76.3003 75.4037 76.082 75.5274 75.8963C75.6512 75.7106 75.8272 75.5657 76.0332 75.4799C76.2392 75.3941 76.4661 75.3712 76.6851 75.4142C76.9041 75.4572 77.1054 75.5642 77.2637 75.7215L83.634 82.0862C83.7387 82.1918 83.8216 82.3169 83.8778 82.4545C83.934 82.5922 83.9625 82.7395 83.9616 82.8882C83.9618 83.1864 83.8441 83.4727 83.634 83.6845L77.2637 90.0492C77.0492 90.253 76.7633 90.3646 76.4674 90.3598ZM77.5969 79.223V86.5026L81.2339 82.8656L77.5969 79.223Z" fill="#F376A2"/>
</g>
<defs>
<clipPath id="clip0">
<rect width="157" height="157" fill="white"/>
</clipPath>
</defs>
</svg>
