<svg width="158" height="158" viewBox="0 0 158 158" fill="none" xmlns="http://www.w3.org/2000/svg">
<g clip-path="url(#clip0)">
<path d="M107.035 134.51H45.2734C44.6704 134.51 44.0922 134.271 43.6659 133.844C43.2395 133.418 43 132.84 43 132.237C43 131.634 43.2395 131.056 43.6659 130.629C44.0922 130.203 44.6704 129.963 45.2734 129.963H107.035C111.607 129.959 115.991 128.141 119.224 124.908C122.456 121.675 124.275 117.292 124.279 112.72V78.9999C124.279 78.397 124.519 77.8188 124.945 77.3924C125.371 76.9661 125.95 76.7266 126.552 76.7266C127.155 76.7266 127.734 76.9661 128.16 77.3924C128.586 77.8188 128.826 78.397 128.826 78.9999V112.72C128.82 118.497 126.522 124.036 122.437 128.121C118.352 132.207 112.813 134.504 107.035 134.51Z" fill="#8D67C3"/>
<path d="M21.7847 134.51C16.0083 134.503 10.4708 132.204 6.38688 128.119C2.30293 124.034 0.00601525 118.496 0 112.72L0 75.0215C0.00601804 69.2457 2.30311 63.7082 6.38723 59.624C10.4713 55.5399 16.0089 53.2428 21.7847 53.2368H31.4465C32.0495 53.2368 32.6277 53.4763 33.0541 53.9027C33.4804 54.329 33.7199 54.9073 33.7199 55.5102C33.7199 56.1131 33.4804 56.6914 33.0541 57.1177C32.6277 57.5441 32.0495 57.7836 31.4465 57.7836H21.7847C17.2147 57.7896 12.8337 59.6077 9.60227 62.8391C6.37084 66.0705 4.55278 70.4516 4.54676 75.0215V112.72C4.55127 117.291 6.36867 121.673 9.60027 124.906C12.8319 128.139 17.2138 129.957 21.7847 129.963C22.3876 129.963 22.9659 130.203 23.3922 130.629C23.8185 131.056 24.0581 131.634 24.0581 132.237C24.0581 132.84 23.8185 133.418 23.3922 133.844C22.9659 134.271 22.3876 134.51 21.7847 134.51Z" fill="#8D67C3"/>
<path d="M21.7851 158C21.4869 158.001 21.1914 157.943 20.9155 157.83C20.4996 157.657 20.1442 157.366 19.8943 156.991C19.6444 156.617 19.5112 156.177 19.5117 155.727V132.237C19.5117 131.634 19.7512 131.056 20.1776 130.63C20.6039 130.203 21.1822 129.964 21.7851 129.964C22.388 129.964 22.9663 130.203 23.3926 130.63C23.819 131.056 24.0585 131.634 24.0585 132.237V150.237L43.6664 130.629C44.093 130.202 44.6715 129.962 45.2748 129.962C45.8781 129.962 46.4566 130.202 46.8832 130.629C47.3098 131.055 47.5495 131.634 47.5495 132.237C47.5495 132.84 47.3098 133.419 46.8832 133.845L23.3935 157.335C23.1822 157.546 22.9314 157.714 22.6555 157.828C22.3795 157.942 22.0837 158 21.7851 158Z" fill="#8D67C3"/>
<path d="M136.216 81.2734H76.2044C75.6015 81.2734 75.0232 81.0339 74.5969 80.6075C74.1705 80.1812 73.931 79.6029 73.931 79C73.931 78.3971 74.1705 77.8188 74.5969 77.3925C75.0232 76.9661 75.6015 76.7266 76.2044 76.7266H136.216C140.786 76.7206 145.167 74.9025 148.398 71.6711C151.63 68.4397 153.448 64.0586 153.454 59.4887V21.7847C153.448 17.2147 151.63 12.8337 148.398 9.60228C145.167 6.37084 140.786 4.55278 136.216 4.54676H50.9642C46.3933 4.55127 42.0108 6.36867 38.7781 9.60027C35.5455 12.8319 33.7266 17.2138 33.7206 21.7847V59.4887C33.7266 64.0596 35.5455 68.4415 38.7781 71.6731C42.0108 74.9047 46.3933 76.7221 50.9642 76.7266H52.7147C53.3176 76.7266 53.8959 76.9661 54.3222 77.3925C54.7486 77.8188 54.9881 78.3971 54.9881 79C54.9881 79.6029 54.7486 80.1812 54.3222 80.6075C53.8959 81.0339 53.3176 81.2734 52.7147 81.2734H50.9642C45.1879 81.2674 39.6497 78.9705 35.5647 74.8865C31.4797 70.8025 29.1814 65.265 29.1738 59.4887V21.7847C29.1814 16.0083 31.4797 10.4708 35.5647 6.38688C39.6497 2.30293 45.1879 0.00601525 50.9642 0L136.216 0C141.992 0.00601804 147.529 2.30312 151.613 6.38723C155.698 10.4713 157.995 16.0089 158.001 21.7847V59.4887C157.995 65.2645 155.698 70.802 151.613 74.8862C147.529 78.9703 141.992 81.2674 136.216 81.2734Z" fill="#1CD0C5"/>
<path d="M52.7148 104.763C52.4166 104.764 52.1211 104.706 51.8452 104.593C51.4293 104.421 51.0739 104.129 50.824 103.755C50.5741 103.38 50.4409 102.94 50.4414 102.49V79.0002C50.4414 78.3973 50.6809 77.8191 51.1073 77.3927C51.5336 76.9664 52.1119 76.7269 52.7148 76.7269C53.3177 76.7269 53.896 76.9664 54.3223 77.3927C54.7487 77.8191 54.9882 78.3973 54.9882 79.0002V96.9997L74.5961 77.3918C75.0227 76.9652 75.6012 76.7256 76.2045 76.7256C76.8078 76.7256 77.3863 76.9652 77.8129 77.3918C78.2395 77.8184 78.4792 78.397 78.4792 79.0002C78.4792 79.6035 78.2395 80.1821 77.8129 80.6087L54.3232 104.098C54.1119 104.309 53.8611 104.477 53.5852 104.591C53.3092 104.705 53.0134 104.764 52.7148 104.763Z" fill="#1CD0C5"/>
<path d="M124.848 50.2931C121.279 50.2931 117.79 49.2347 114.822 47.2519C111.855 45.2691 109.542 42.4509 108.176 39.1536C106.811 35.8563 106.453 32.2281 107.149 28.7277C107.846 25.2273 109.564 22.012 112.088 19.4884C114.612 16.9647 117.827 15.2461 121.327 14.5499C124.828 13.8536 128.456 14.2109 131.753 15.5767C135.051 16.9425 137.869 19.2554 139.852 22.2229C141.834 25.1903 142.893 28.6791 142.893 32.2481C142.887 37.0321 140.984 41.6184 137.601 45.0012C134.218 48.384 129.632 50.287 124.848 50.2931ZM124.848 18.7499C122.178 18.7499 119.568 19.5416 117.349 21.0248C115.129 22.508 113.399 24.6161 112.377 27.0826C111.355 29.549 111.088 32.2631 111.609 34.8815C112.13 37.4999 113.415 39.905 115.303 41.7928C117.191 43.6805 119.596 44.9661 122.214 45.4869C124.833 46.0078 127.547 45.7405 130.013 44.7188C132.48 43.6972 134.588 41.9671 136.071 39.7473C137.554 37.5275 138.346 34.9178 138.346 32.2481C138.341 28.6701 136.918 25.2399 134.387 22.7104C131.856 20.1809 128.426 18.7586 124.848 18.7556V18.7499Z" fill="#F376A2"/>
<path d="M140.619 64.6435H109.076C108.775 64.6435 108.486 64.5237 108.272 64.3106C108.059 64.0974 107.939 63.8083 107.939 63.5068C107.939 63.2053 108.059 62.9162 108.272 62.703C108.486 62.4899 108.775 62.3701 109.076 62.3701H140.619C140.921 62.3701 141.21 62.4899 141.423 62.703C141.636 62.9162 141.756 63.2053 141.756 63.5068C141.756 63.8083 141.636 64.0974 141.423 64.3106C141.21 64.5237 140.921 64.6435 140.619 64.6435Z" fill="#1CD0C5"/>
<path d="M89.7981 60.0966H45.2285C44.6255 60.0966 44.0473 59.8571 43.6209 59.4307C43.1946 59.0044 42.9551 58.4261 42.9551 57.8232C42.9551 57.2202 43.1946 56.642 43.6209 56.2157C44.0473 55.7893 44.6255 55.5498 45.2285 55.5498H89.7981C90.401 55.5498 90.9793 55.7893 91.4056 56.2157C91.832 56.642 92.0715 57.2202 92.0715 57.8232C92.0715 58.4261 91.832 59.0044 91.4056 59.4307C90.9793 59.8571 90.401 60.0966 89.7981 60.0966Z" fill="#19B4EE"/>
<path d="M89.7981 42.4779H45.2285C44.6255 42.4779 44.0473 42.2384 43.6209 41.8121C43.1946 41.3857 42.9551 40.8075 42.9551 40.2045C42.9551 39.6016 43.1946 39.0234 43.6209 38.597C44.0473 38.1707 44.6255 37.9312 45.2285 37.9312H89.7981C90.401 37.9312 90.9793 38.1707 91.4056 38.597C91.832 39.0234 92.0715 39.6016 92.0715 40.2045C92.0715 40.8075 91.832 41.3857 91.4056 41.8121C90.9793 42.2384 90.401 42.4779 89.7981 42.4779Z" fill="#19B4EE"/>
<path d="M89.7981 24.8593H45.2285C44.6255 24.8593 44.0473 24.6197 43.6209 24.1934C43.1946 23.7671 42.9551 23.1888 42.9551 22.5859C42.9551 21.9829 43.1946 21.4047 43.6209 20.9784C44.0473 20.552 44.6255 20.3125 45.2285 20.3125H89.7981C90.401 20.3125 90.9793 20.552 91.4056 20.9784C91.832 21.4047 92.0715 21.9829 92.0715 22.5859C92.0715 23.1888 91.832 23.7671 91.4056 24.1934C90.9793 24.6197 90.401 24.8593 89.7981 24.8593Z" fill="#19B4EE"/>
</g>
<defs>
<clipPath id="clip0">
<rect width="158" height="158" fill="white"/>
</clipPath>
</defs>
</svg>
