<svg width="155" height="158" viewBox="0 0 155 158" fill="none" xmlns="http://www.w3.org/2000/svg">
<g clip-path="url(#clip0)">
<path d="M122.499 59.3544H87.1575C86.5562 59.3544 85.9797 59.1149 85.5545 58.6886C85.1294 58.2622 84.8906 57.6839 84.8906 57.081C84.8906 56.478 85.1294 55.8997 85.5545 55.4734C85.9797 55.047 86.5562 54.8075 87.1575 54.8075H122.499C129.079 54.7083 135.357 52.0169 139.975 47.3149C144.594 42.6128 147.182 36.2775 147.182 29.6772C147.182 23.077 144.594 16.7416 139.975 12.0395C135.357 7.33749 129.079 4.64618 122.499 4.54693H29.5893C23.0088 4.64618 16.7313 7.33749 12.1128 12.0395C7.4943 16.7416 4.90544 23.077 4.90544 29.6772C4.90544 36.2775 7.4943 42.6128 12.1128 47.3149C16.7313 52.0169 23.0088 54.7083 29.5893 54.8075H65.2931C65.8943 54.8075 66.4709 55.047 66.8961 55.4734C67.3212 55.8997 67.56 56.478 67.56 57.081C67.56 57.6839 67.3212 58.2622 66.8961 58.6886C66.4709 59.1149 65.8943 59.3544 65.2931 59.3544H29.5893C21.812 59.2465 14.3897 56.0723 8.92804 50.5185C3.46633 44.9647 0.404297 37.4777 0.404297 29.6772C0.404297 21.8767 3.46633 14.3898 8.92804 8.83596C14.3897 3.28214 21.812 0.107943 29.5893 0L122.499 0C130.276 0.107943 137.698 3.28214 143.16 8.83596C148.622 14.3898 151.684 21.8767 151.684 29.6772C151.684 37.4777 148.622 44.9647 143.16 50.5185C137.698 56.0723 130.276 59.2465 122.499 59.3544Z" fill="#F376A2"/>
<path d="M65.2923 114.156C64.6911 114.156 64.1145 113.917 63.6894 113.49C63.2642 113.064 63.0254 112.486 63.0254 111.883V39.1717C63.0299 35.7608 64.3833 32.4911 66.7887 30.0798C69.1941 27.6685 72.4551 26.3126 75.8561 26.3096H76.5928C79.9939 26.3126 83.2548 27.6685 85.6602 30.0798C88.0656 32.4911 89.4191 35.7608 89.4236 39.1717V85.2093C89.4236 85.8123 89.1847 86.3905 88.7596 86.8169C88.3345 87.2433 87.7579 87.4828 87.1567 87.4828C86.5554 87.4828 85.9788 87.2433 85.5537 86.8169C85.1286 86.3905 84.8897 85.8123 84.8897 85.2093V39.1717C84.8867 36.9663 84.0115 34.8522 82.456 33.2933C80.9005 31.7344 78.7919 30.858 76.5928 30.8565H75.8561C73.6571 30.858 71.5485 31.7344 69.993 33.2933C68.4375 34.8522 67.5622 36.9663 67.5592 39.1717V111.883C67.5592 112.181 67.5006 112.477 67.3867 112.753C67.2727 113.029 67.1058 113.279 66.8953 113.49C66.6847 113.701 66.4348 113.869 66.1598 113.983C65.8848 114.097 65.59 114.156 65.2923 114.156Z" fill="#19B4EE"/>
<path d="M87.1576 87.4886C86.5564 87.4886 85.9798 87.2491 85.5547 86.8228C85.1296 86.3964 84.8907 85.8181 84.8907 85.2152C84.8787 81.8318 86.1595 78.5724 88.4698 76.1069C90.7801 73.6414 93.9443 72.1572 97.3121 71.9592C100.68 71.7613 103.995 72.8647 106.577 75.0426C109.159 77.2206 110.81 80.3077 111.193 83.6692C111.262 84.2684 111.091 84.8706 110.717 85.3433C110.343 85.8161 109.798 86.1206 109.2 86.1899C108.603 86.2593 108.003 86.0877 107.531 85.7131C107.06 85.3384 106.756 84.7913 106.687 84.1921C106.434 81.9866 105.349 79.9618 103.654 78.5338C101.959 77.1058 99.7831 76.3831 97.5732 76.5141C95.3634 76.645 93.2875 77.6198 91.772 79.238C90.2565 80.8562 89.4165 82.9951 89.4245 85.2152C89.4245 85.8181 89.1857 86.3964 88.7606 86.8228C88.3354 87.2491 87.7588 87.4886 87.1576 87.4886Z" fill="#19B4EE"/>
<path d="M130.875 92.0753C130.274 92.0753 129.697 91.8358 129.272 91.4095C128.847 90.9831 128.608 90.4048 128.608 89.8019V85.2152C128.604 83.0021 127.758 80.874 126.243 79.2652C124.727 77.6563 122.657 76.6878 120.454 76.5573C118.251 76.4268 116.082 77.1441 114.388 78.5629C112.694 79.9816 111.604 81.9949 111.34 84.1921C111.318 84.4978 111.234 84.7957 111.093 85.068C110.953 85.3403 110.759 85.5813 110.524 85.7766C110.288 85.9718 110.016 86.1173 109.723 86.2043C109.43 86.2913 109.122 86.3179 108.818 86.2826C108.515 86.2474 108.222 86.1509 107.956 85.999C107.691 85.8472 107.459 85.643 107.274 85.3989C107.089 85.1548 106.955 84.8757 106.881 84.5785C106.806 84.2812 106.793 83.972 106.84 83.6692C107.222 80.3077 108.874 77.2206 111.456 75.0426C114.037 72.8647 117.353 71.7613 120.721 71.9592C124.089 72.1572 127.253 73.6414 129.563 76.1069C131.873 78.5724 133.154 81.8318 133.142 85.2152V89.8019C133.142 90.4048 132.903 90.9831 132.478 91.4095C132.053 91.8358 131.476 92.0753 130.875 92.0753Z" fill="#19B4EE"/>
<path d="M152.734 114.156C152.132 114.156 151.556 113.917 151.131 113.491C150.705 113.064 150.467 112.486 150.467 111.883V90.6943C150.465 88.3899 149.552 86.1804 147.927 84.551C146.302 82.9215 144.099 82.0055 141.801 82.004C139.628 82.0162 137.538 82.8438 135.943 84.3238C134.348 85.8038 133.363 87.829 133.181 90.0009C133.158 90.2994 133.076 90.5904 132.941 90.8573C132.805 91.1241 132.618 91.3615 132.391 91.556C132.164 91.7505 131.901 91.8982 131.617 91.9907C131.333 92.0833 131.034 92.1188 130.736 92.0953C130.438 92.0718 130.148 91.9897 129.882 91.8537C129.616 91.7177 129.379 91.5306 129.185 91.3028C128.991 91.0751 128.844 90.8113 128.752 90.5264C128.66 90.2416 128.624 89.9414 128.648 89.6428C128.923 86.3306 130.425 83.2419 132.859 80.9861C135.293 78.7303 138.482 77.4712 141.796 77.457C145.296 77.4585 148.652 78.8537 151.127 81.3358C153.602 83.8179 154.993 87.184 154.995 90.6943V111.883C154.995 112.485 154.757 113.062 154.333 113.489C153.909 113.915 153.334 114.155 152.734 114.156Z" fill="#19B4EE"/>
<path d="M130.914 92.0751C130.516 92.0743 130.124 91.9664 129.781 91.7625C129.291 91.4835 128.922 91.0313 128.746 90.4942C128.57 89.957 128.6 89.3735 128.83 88.8573C129.06 88.3412 129.474 87.9296 129.99 87.7028C130.507 87.4759 131.089 87.4501 131.623 87.6305C131.962 87.7498 132.27 87.9441 132.524 88.1989C132.84 88.5174 133.054 88.9227 133.141 89.3635C133.227 89.8043 133.181 90.2609 133.009 90.6756C132.837 91.0903 132.546 91.4446 132.173 91.6936C131.8 91.9427 131.362 92.0755 130.914 92.0751Z" fill="#19B4EE"/>
<path d="M109.016 158.006C96.8229 157.994 85.133 153.131 76.511 144.486C67.8889 135.84 63.0391 124.117 63.0256 111.889V111.775C63.0218 111.474 63.0777 111.175 63.1899 110.896C63.3022 110.617 63.4686 110.363 63.6794 110.149C63.8903 109.935 64.1415 109.765 64.4184 109.649C64.6953 109.533 64.9924 109.473 65.2925 109.473C65.8937 109.473 66.4703 109.713 66.8954 110.139C67.3206 110.565 67.5594 111.144 67.5594 111.747V111.917C67.4953 117.417 68.5201 122.876 70.5746 127.976C72.629 133.076 75.6722 137.717 79.5279 141.629C83.3836 145.542 87.975 148.648 93.0362 150.768C98.0974 152.888 103.528 153.979 109.013 153.979C114.498 153.979 119.928 152.888 124.989 150.768C130.05 148.648 134.642 145.542 138.497 141.629C142.353 137.717 145.396 133.076 147.451 127.976C149.505 122.876 150.53 117.417 150.466 111.917C150.466 111.314 150.705 110.736 151.13 110.31C151.555 109.883 152.132 109.644 152.733 109.644C153.334 109.644 153.911 109.883 154.336 110.31C154.761 110.736 155 111.314 155 111.917C154.995 124.144 150.148 135.869 141.525 144.512C132.901 153.155 121.207 158.009 109.016 158.006Z" fill="#19B4EE"/>
<path d="M109.09 86.2042H108.937C108.336 86.2042 107.759 85.9646 107.334 85.5383C106.909 85.1119 106.67 84.5337 106.67 83.9307C106.67 83.3277 106.909 82.7495 107.334 82.3231C107.759 81.8967 108.336 81.6572 108.937 81.6572H109.09C109.691 81.6572 110.268 81.8967 110.693 82.3231C111.118 82.7495 111.357 83.3277 111.357 83.9307C111.357 84.5337 111.118 85.1119 110.693 85.5383C110.268 85.9646 109.691 86.2042 109.09 86.2042Z" fill="#19B4EE"/>
<path d="M98.0437 41.5703C97.7431 41.5703 97.4548 41.4506 97.2422 41.2374C97.0297 41.0242 96.9102 40.7351 96.9102 40.4336C96.9102 37.76 96.3852 35.1126 95.365 32.6426C94.3448 30.1725 92.8495 27.9282 90.9645 26.0377C89.0794 24.1472 86.8415 22.6476 84.3786 21.6245C81.9157 20.6013 79.2759 20.0747 76.6101 20.0747C73.9442 20.0747 71.3045 20.6013 68.8415 21.6245C66.3786 22.6476 64.1407 24.1472 62.2557 26.0377C60.3706 27.9282 58.8753 30.1725 57.8551 32.6426C56.835 35.1126 56.3099 37.76 56.3099 40.4336C56.3099 40.7351 56.1905 41.0242 55.9779 41.2374C55.7653 41.4506 55.477 41.5703 55.1764 41.5703C54.8758 41.5703 54.5875 41.4506 54.3749 41.2374C54.1624 41.0242 54.043 40.7351 54.043 40.4336C54.043 37.4615 54.6267 34.5185 55.7608 31.7726C56.8949 29.0267 58.5572 26.5317 60.6527 24.4301C62.7483 22.3285 65.236 20.6614 67.974 19.5241C70.712 18.3867 73.6465 17.8013 76.6101 17.8013C79.5736 17.8013 82.5081 18.3867 85.2461 19.5241C87.9841 20.6614 90.4719 22.3285 92.5674 24.4301C94.663 26.5317 96.3252 29.0267 97.4593 31.7726C98.5934 34.5185 99.1772 37.4615 99.1772 40.4336C99.1772 40.7351 99.0577 41.0242 98.8452 41.2374C98.6326 41.4506 98.3443 41.5703 98.0437 41.5703Z" fill="#8D67C3"/>
<path d="M107.008 41.5704C106.708 41.5704 106.419 41.4506 106.207 41.2374C105.994 41.0243 105.875 40.7351 105.875 40.4337C105.861 34.4383 104.023 28.59 100.607 23.6695C97.1916 18.7491 92.3606 14.9908 86.7591 12.8963C86.4826 12.7877 86.2596 12.5745 86.1381 12.3027C86.0167 12.0309 86.0065 11.7221 86.1097 11.4428C86.213 11.1635 86.4214 10.936 86.6901 10.8093C86.9589 10.6825 87.2665 10.6666 87.5469 10.765C93.581 13.0228 98.7851 17.0723 102.465 22.3733C106.145 27.6743 108.125 33.9746 108.142 40.4337C108.142 40.7351 108.022 41.0243 107.81 41.2374C107.597 41.4506 107.309 41.5704 107.008 41.5704Z" fill="#1CD0C5"/>
<path d="M46.2116 41.5703C45.911 41.5703 45.6227 41.4506 45.4101 41.2374C45.1976 41.0242 45.0781 40.7351 45.0781 40.4336C45.0725 34.2134 46.898 28.13 50.3259 22.9461C53.7537 17.7622 58.6312 13.7086 64.3469 11.2935C64.6242 11.1759 64.9367 11.1736 65.2157 11.2871C65.4947 11.4007 65.7173 11.6207 65.8345 11.8988C65.9518 12.1769 65.9541 12.4903 65.8409 12.7701C65.7277 13.0499 65.5083 13.2732 65.231 13.3907C59.9251 15.6302 55.3969 19.3915 52.2149 24.2026C49.0328 29.0138 47.3387 34.6603 47.345 40.4336C47.345 40.7351 47.2256 41.0242 47.0131 41.2374C46.8005 41.4506 46.5122 41.5703 46.2116 41.5703Z" fill="#1CD0C5"/>
</g>
<defs>
<clipPath id="clip0">
<rect width="155" height="158" fill="white"/>
</clipPath>
</defs>
</svg>
