<svg width="139" height="159" viewBox="0 0 139 159" fill="none" xmlns="http://www.w3.org/2000/svg">
<g clip-path="url(#clip0)">
<path d="M102.527 84.4986C102.014 84.4988 101.517 84.3152 101.128 83.9809C100.738 83.6466 100.48 83.1836 100.401 82.6756C100.322 82.1675 100.426 81.6478 100.696 81.2102C100.965 80.7727 101.382 80.4461 101.871 80.2895C108.619 78.1065 114.522 73.8724 118.761 68.1748C123 62.4772 125.365 55.5985 125.528 48.4928C125.529 48.206 125.587 47.9224 125.699 47.6585C125.811 47.3946 125.975 47.1558 126.18 46.9561C126.385 46.7563 126.628 46.5997 126.895 46.4952C127.161 46.3908 127.446 46.3407 127.732 46.3478C128.014 46.3541 128.293 46.4162 128.551 46.5304C128.81 46.6445 129.043 46.8087 129.239 47.0134C129.434 47.2181 129.587 47.4593 129.689 47.7233C129.791 47.9873 129.841 48.2689 129.834 48.5521C129.657 56.5596 126.995 64.3128 122.218 70.7338C117.442 77.1548 110.788 81.9246 103.183 84.38C102.971 84.4535 102.75 84.4935 102.527 84.4986Z" fill="#F376A2"/>
<path d="M52.9688 48.5627L55.1194 48.5195H52.9688C52.9688 48.2501 52.9688 47.9806 52.9688 47.7058C52.9666 42.6453 53.9591 37.634 55.8895 32.958C57.8198 28.2821 60.6502 24.0331 64.2191 20.4538C67.7879 16.8745 72.0253 14.035 76.6891 12.0975C81.3529 10.1599 86.3518 9.16233 91.4003 9.16162C91.9707 9.16162 92.5177 9.38874 92.9211 9.79302C93.3244 10.1973 93.551 10.7456 93.551 11.3173C93.551 11.8891 93.3244 12.4374 92.9211 12.8417C92.5177 13.2459 91.9707 13.473 91.4003 13.473C82.3456 13.473 73.6616 17.0786 67.2589 23.4964C60.8562 29.9143 57.2592 38.6188 57.2592 47.695C57.2592 47.9375 57.2592 48.18 57.2592 48.4225L55.1086 48.5034L52.9688 48.5627Z" fill="#F376A2"/>
<path d="M127.682 50.6591H91.4006C90.8302 50.6591 90.2832 50.432 89.8799 50.0277C89.4766 49.6234 89.25 49.0751 89.25 48.5034V11.3173C89.25 10.7456 89.4766 10.1973 89.8799 9.79302C90.2832 9.38874 90.8302 9.16162 91.4006 9.16162C91.971 9.16162 92.518 9.38874 92.9213 9.79302C93.3247 10.1973 93.5512 10.7456 93.5512 11.3173V46.3477H127.682C128.252 46.3477 128.799 46.5748 129.202 46.9791C129.606 47.3833 129.832 47.9316 129.832 48.5034C129.832 49.0751 129.606 49.6234 129.202 50.0277C128.799 50.432 128.252 50.6591 127.682 50.6591Z" fill="#F376A2"/>
<path d="M55.1077 125.031C35.6499 125.031 19.9343 113.816 9.67582 92.5716C4.87515 82.4708 1.61293 71.7055 -0.00196971 60.6347C-0.0411305 60.3295 -0.0146194 60.0193 0.0757806 59.7252C0.166181 59.431 0.318373 59.1597 0.522122 58.9294C0.725871 58.6991 0.976451 58.5153 1.25701 58.3902C1.53757 58.2651 1.8416 58.2017 2.14865 58.2042H18.816C19.3863 58.2042 19.9334 58.4313 20.3367 58.8356C20.74 59.2398 20.9666 59.7882 20.9666 60.3599C20.9666 60.9316 20.74 61.4799 20.3367 61.8842C19.9334 62.2885 19.3863 62.5156 18.816 62.5156H4.65412C5.50362 67.4468 7.94995 79.1846 13.5738 90.7716C23.214 110.658 37.1876 120.72 55.1077 120.72C55.6781 120.72 56.2251 120.947 56.6284 121.351C57.0317 121.756 57.2583 122.304 57.2583 122.876C57.2583 123.447 57.0317 123.996 56.6284 124.4C56.2251 124.804 55.6781 125.031 55.1077 125.031Z" fill="#4263A8"/>
<path d="M55.1116 125.031C54.5412 125.031 53.9942 124.804 53.5908 124.4C53.1875 123.996 52.9609 123.447 52.9609 122.876C52.9609 122.304 53.1875 121.756 53.5908 121.351C53.9942 120.947 54.5412 120.72 55.1116 120.72C73.0316 120.72 87.0053 110.642 96.6454 90.7716C102.269 79.1846 104.71 67.4468 105.565 62.5156H91.4033C90.8329 62.5156 90.2859 62.2885 89.8826 61.8842C89.4792 61.4799 89.2527 60.9316 89.2527 60.3599C89.2527 59.7881 89.4792 59.2398 89.8826 58.8356C90.2859 58.4313 90.8329 58.2042 91.4033 58.2042H108.071C108.376 58.2019 108.679 58.265 108.958 58.3891C109.237 58.5133 109.487 58.6956 109.69 58.9241C109.894 59.1525 110.046 59.4218 110.138 59.714C110.23 60.0062 110.258 60.3145 110.221 60.6186C108.608 71.6948 105.346 82.4658 100.543 92.5716C90.285 113.816 74.5693 125.031 55.1116 125.031Z" fill="#4263A8"/>
<path d="M55.1103 125.031C33.4589 125.031 16.668 99.8147 16.668 78.1067V48.5034C16.668 47.9316 16.8946 47.3833 17.2979 46.979C17.7012 46.5748 18.2482 46.3477 18.8186 46.3477H91.402C91.9724 46.3477 92.5194 46.5748 92.9228 46.979C93.3261 47.3833 93.5527 47.9316 93.5527 48.5034V78.0905C93.5527 88.6427 89.4127 100.381 82.4823 109.488C74.853 119.529 65.1322 125.031 55.1103 125.031ZM20.9692 50.6591V78.0905C20.9692 97.4003 36.201 120.72 55.1103 120.72C74.0197 120.72 89.2514 97.4003 89.2514 78.0905V50.6591H20.9692Z" fill="#8D67C3"/>
<path d="M46.6428 135.373C46.0724 135.373 45.5254 135.146 45.1221 134.742C44.7188 134.337 44.4922 133.789 44.4922 133.217V121.447C44.4922 120.875 44.7188 120.327 45.1221 119.923C45.5254 119.519 46.0724 119.292 46.6428 119.292C47.2132 119.292 47.7602 119.519 48.1635 119.923C48.5669 120.327 48.7934 120.875 48.7934 121.447V133.217C48.7934 133.789 48.5669 134.337 48.1635 134.742C47.7602 135.146 47.2132 135.373 46.6428 135.373Z" fill="#8D67C3"/>
<path d="M63.0412 136.516C62.4709 136.516 61.9238 136.289 61.5205 135.885C61.1172 135.48 60.8906 134.932 60.8906 134.36V121.615C60.8906 121.043 61.1172 120.495 61.5205 120.09C61.9238 119.686 62.4709 119.459 63.0412 119.459C63.6116 119.459 64.1587 119.686 64.562 120.09C64.9653 120.495 65.1919 121.043 65.1919 121.615V134.36C65.1919 134.932 64.9653 135.48 64.562 135.885C64.1587 136.289 63.6116 136.516 63.0412 136.516Z" fill="#8D67C3"/>
<path d="M77.8265 158.984H28.6311C28.3473 158.984 28.0663 158.928 27.8042 158.819C27.5421 158.71 27.3042 158.55 27.1041 158.348C26.7042 157.944 26.48 157.398 26.4805 156.828C26.4805 149.717 29.2986 142.898 34.3149 137.87C39.3312 132.841 46.1347 130.017 53.2288 130.017C60.3229 130.017 67.1265 132.841 72.1427 137.87C77.159 142.898 79.9772 149.717 79.9772 156.828C79.9772 157.4 79.7506 157.948 79.3473 158.353C78.9439 158.757 78.3969 158.984 77.8265 158.984ZM30.9 154.673H75.5576C74.9881 149.134 72.39 144.004 68.2657 140.274C64.1413 136.544 58.7837 134.479 53.2288 134.479C47.6739 134.479 42.3163 136.544 38.192 140.274C34.0676 144.004 31.4695 149.134 30.9 154.673Z" fill="#8D67C3"/>
<path d="M136.838 41.4975H136.795C136.513 41.4919 136.234 41.4305 135.976 41.317C135.717 41.2035 135.483 41.0399 135.287 40.8357C135.091 40.6315 134.938 40.3907 134.835 40.1269C134.732 39.8632 134.682 39.5818 134.688 39.2986C134.688 39.0454 134.688 38.7597 134.688 38.5334C134.688 34.0388 133.804 29.5883 132.088 25.436C130.372 21.2836 127.857 17.5108 124.686 14.3329C121.515 11.155 117.751 8.63437 113.608 6.91487C109.465 5.19537 105.025 4.31072 100.541 4.31143C99.9709 4.31143 99.4238 4.08431 99.0205 3.68003C98.6172 3.27576 98.3906 2.72744 98.3906 2.15571C98.3906 1.58398 98.6172 1.03567 99.0205 0.631394C99.4238 0.22712 99.9709 3.77013e-07 100.541 3.77013e-07C105.59 -0.00070753 110.589 0.995504 115.253 2.93174C119.918 4.86797 124.156 7.70629 127.726 11.2846C131.296 14.8629 134.127 19.111 136.059 23.7865C137.99 28.4619 138.984 33.4729 138.984 38.5334C138.984 38.819 138.984 39.0723 138.984 39.3849C138.972 39.9482 138.742 40.4847 138.341 40.8795C137.94 41.2744 137.4 41.4962 136.838 41.4975Z" fill="#1CD0C5"/>
<path d="M136.838 41.4975H100.541C99.9709 41.4975 99.4238 41.2704 99.0205 40.8661C98.6172 40.4618 98.3906 39.9135 98.3906 39.3418V2.15571C98.3906 1.58398 98.6172 1.03567 99.0205 0.631394C99.4238 0.227119 99.9709 0 100.541 0C101.112 0 101.659 0.227119 102.062 0.631394C102.465 1.03567 102.692 1.58398 102.692 2.15571V37.1861H136.822C137.393 37.1861 137.94 37.4132 138.343 37.8174C138.746 38.2217 138.973 38.77 138.973 39.3418C138.973 39.9135 138.746 40.4618 138.343 40.8661C137.94 41.2704 137.393 41.4975 136.822 41.4975H136.838Z" fill="#1CD0C5"/>
</g>
<defs>
<clipPath id="clip0">
<rect width="139" height="159" fill="white"/>
</clipPath>
</defs>
</svg>
