<svg width="127" height="159" viewBox="0 0 127 159" fill="none" xmlns="http://www.w3.org/2000/svg">
<g clip-path="url(#clip0)">
<path d="M124.715 131.501C124.11 131.501 123.529 131.26 123.1 130.831C122.672 130.402 122.431 129.82 122.431 129.213V4.57554H17.7457V50.045C17.7457 50.6517 17.505 51.2336 17.0767 51.6627C16.6484 52.0917 16.0674 52.3327 15.4617 52.3327C14.856 52.3327 14.275 52.0917 13.8467 51.6627C13.4184 51.2336 13.1777 50.6517 13.1777 50.045V2.28777C13.1777 1.68102 13.4184 1.09911 13.8467 0.670072C14.275 0.241032 14.856 0 15.4617 0L124.715 0C125.321 0 125.902 0.241032 126.33 0.670072C126.759 1.09911 126.999 1.68102 126.999 2.28777V129.213C126.999 129.82 126.759 130.402 126.33 130.831C125.902 131.26 125.321 131.501 124.715 131.501Z" fill="#8D67C3"/>
<path d="M97.2563 159H15.4617C14.856 159 14.275 158.759 13.8467 158.33C13.4184 157.901 13.1777 157.319 13.1777 156.712V108.955C13.1777 108.348 13.4184 107.767 13.8467 107.338C14.275 106.909 14.856 106.667 15.4617 106.667C16.0674 106.667 16.6484 106.909 17.0767 107.338C17.505 107.767 17.7457 108.348 17.7457 108.955V154.425H97.2563C97.862 154.425 98.443 154.666 98.8713 155.095C99.2996 155.524 99.5402 156.106 99.5402 156.712C99.5402 157.319 99.2996 157.901 98.8713 158.33C98.443 158.759 97.862 159 97.2563 159Z" fill="#8D67C3"/>
<path d="M15.4617 100.376C14.856 100.376 14.275 100.135 13.8467 99.7058C13.4184 99.2767 13.1777 98.6948 13.1777 98.0881V60.9118C13.1777 60.305 13.4184 59.7231 13.8467 59.2941C14.275 58.8651 14.856 58.624 15.4617 58.624C16.0674 58.624 16.6484 58.8651 17.0767 59.2941C17.505 59.7231 17.7457 60.305 17.7457 60.9118V98.0881C17.7457 98.6948 17.505 99.2767 17.0767 99.7058C16.6484 100.135 16.0674 100.376 15.4617 100.376Z" fill="#8D67C3"/>
<path d="M97.2565 159C91.3734 159.001 85.6221 157.255 80.73 153.981C75.838 150.708 72.0248 146.055 69.773 140.611C67.5211 135.167 66.9316 129.176 68.0791 123.397C69.2265 117.617 72.0594 112.308 76.2193 108.141C80.3793 103.974 85.6795 101.137 91.4496 99.9872C97.2197 98.8379 103.201 99.4283 108.636 101.684C114.071 103.94 118.716 107.759 121.984 112.659C125.251 117.56 126.995 123.32 126.994 129.213C126.985 137.11 123.849 144.682 118.274 150.266C112.699 155.85 105.141 158.991 97.2565 159ZM97.2565 103.996C92.2771 103.995 87.4092 105.473 83.2684 108.243C79.1277 111.014 75.9 114.951 73.9937 119.559C72.0874 124.167 71.5881 129.237 72.5588 134.129C73.5295 139.021 75.9268 143.515 79.4473 147.042C82.9679 150.57 87.4536 152.972 92.3373 153.945C97.2209 154.919 102.283 154.42 106.884 152.511C111.484 150.603 115.416 147.371 118.183 143.224C120.949 139.077 122.426 134.201 122.426 129.213C122.42 122.528 119.766 116.119 115.048 111.391C110.329 106.663 103.93 104.004 97.2565 103.996Z" fill="#19B4EE"/>
<path d="M112.845 131.501H97.2566C96.6509 131.501 96.0699 131.26 95.6416 130.831C95.2133 130.402 94.9727 129.82 94.9727 129.213V114.388C94.9727 113.782 95.2133 113.2 95.6416 112.771C96.0699 112.342 96.6509 112.101 97.2566 112.101C97.8624 112.101 98.4433 112.342 98.8716 112.771C99.3 113.2 99.5406 113.782 99.5406 114.388V126.925H112.845C113.45 126.925 114.031 127.166 114.46 127.595C114.888 128.024 115.129 128.606 115.129 129.213C115.129 129.82 114.888 130.402 114.46 130.831C114.031 131.26 113.45 131.501 112.845 131.501Z" fill="#19B4EE"/>
<path d="M40.6607 134.83C40.3607 134.83 40.0635 134.771 39.7863 134.656C39.509 134.541 39.257 134.373 39.0448 134.161L28.9725 124.072C28.5626 123.639 28.3378 123.063 28.3459 122.466C28.3541 121.869 28.5945 121.3 29.0161 120.878C29.4376 120.457 30.0069 120.217 30.6025 120.21C31.1981 120.203 31.7728 120.429 32.2043 120.84L40.6607 129.311L49.1056 120.84C49.5401 120.446 50.1093 120.234 50.6954 120.248C51.2815 120.263 51.8397 120.502 52.2542 120.918C52.6688 121.333 52.9081 121.892 52.9225 122.479C52.9369 123.066 52.7254 123.636 52.3318 124.072L42.2537 134.161C41.8307 134.584 41.2587 134.824 40.6607 134.83Z" fill="#1CD0C5"/>
<path d="M40.6603 38.8348C40.3598 38.8343 40.0625 38.7744 39.7852 38.6586C39.5079 38.5428 39.2562 38.3733 39.0444 38.1599L28.9721 28.0766C28.5435 27.6473 28.3027 27.0651 28.3027 26.458C28.3027 25.8509 28.5435 25.2687 28.9721 24.8394C29.4006 24.4101 29.9819 24.1689 30.588 24.1689C31.1941 24.1689 31.7753 24.4101 32.2039 24.8394L40.6603 33.3099L49.1052 24.8394C49.5374 24.4288 50.1126 24.2036 50.7082 24.2118C51.3037 24.2199 51.8726 24.4608 52.2934 24.8831C52.7142 25.3053 52.9536 25.8755 52.9607 26.4721C52.9678 27.0687 52.742 27.6444 52.3313 28.0766L42.2533 38.1599C41.8312 38.5854 41.2591 38.8278 40.6603 38.8348Z" fill="#1CD0C5"/>
<path d="M109.584 33.7904H66.8055C66.1997 33.7904 65.6188 33.5493 65.1904 33.1203C64.7621 32.6913 64.5215 32.1094 64.5215 31.5026C64.5215 30.8959 64.7621 30.314 65.1904 29.8849C65.6188 29.4559 66.1997 29.2148 66.8055 29.2148H109.561C110.167 29.2148 110.748 29.4559 111.176 29.8849C111.605 30.314 111.845 30.8959 111.845 31.5026C111.845 32.1094 111.605 32.6913 111.176 33.1203C110.748 33.5493 110.167 33.7904 109.561 33.7904H109.584Z" fill="#4263A8"/>
<path d="M40.6603 86.8322C40.3602 86.8325 40.0631 86.7735 39.7859 86.6587C39.5086 86.5439 39.2566 86.3754 39.0444 86.1631L28.9721 76.0683C28.5435 75.639 28.3027 75.0568 28.3027 74.4497C28.3027 73.8426 28.5435 73.2604 28.9721 72.8311C29.4006 72.4018 29.9819 72.1606 30.588 72.1606C31.1941 72.1606 31.7753 72.4018 32.2039 72.8311L40.6603 81.3016L49.1052 72.8368C49.533 72.4068 50.1139 72.1646 50.72 72.1635C51.326 72.1624 51.9077 72.4026 52.3371 72.8311C52.7664 73.2596 53.0082 73.8414 53.0092 74.4485C53.0103 75.0556 52.7706 75.6382 52.3428 76.0683L42.2533 86.1631C41.8303 86.5864 41.2583 86.8267 40.6603 86.8322Z" fill="#1CD0C5"/>
<path d="M109.584 81.7879H66.8055C66.1997 81.7879 65.6188 81.5469 65.1904 81.1179C64.7621 80.6888 64.5215 80.1069 64.5215 79.5002C64.5215 78.8934 64.7621 78.3115 65.1904 77.8825C65.6188 77.4534 66.1997 77.2124 66.8055 77.2124H109.561C110.167 77.2124 110.748 77.4534 111.176 77.8825C111.605 78.3115 111.845 78.8934 111.845 79.5002C111.845 80.1069 111.605 80.6888 111.176 81.1179C110.748 81.5469 110.167 81.7879 109.561 81.7879H109.584Z" fill="#4263A8"/>
<path d="M23.6162 111.243H7.30299C5.36658 111.241 3.50991 110.47 2.14067 109.099C0.771417 107.727 0.00151223 105.867 0 103.928L0 103.115C0.00151223 101.176 0.771417 99.316 2.14067 97.9445C3.50991 96.573 5.36658 95.8018 7.30299 95.8003H23.6162C25.5526 95.8018 27.4093 96.573 28.7785 97.9445C30.1478 99.316 30.9177 101.176 30.9192 103.115V103.928C30.9177 105.867 30.1478 107.727 28.7785 109.099C27.4093 110.47 25.5526 111.241 23.6162 111.243ZM7.30299 100.376C6.57807 100.377 5.88327 100.666 5.37068 101.18C4.85808 101.693 4.56944 102.389 4.56793 103.115V103.928C4.56944 104.654 4.85808 105.35 5.37068 105.863C5.88327 106.377 6.57807 106.666 7.30299 106.667H23.6162C24.3411 106.666 25.0359 106.377 25.5485 105.863C26.0611 105.35 26.3498 104.654 26.3513 103.928V103.115C26.3498 102.389 26.0611 101.693 25.5485 101.18C25.0359 100.666 24.3411 100.377 23.6162 100.376H7.30299Z" fill="#F376A2"/>
<path d="M23.6162 63.1998H7.30299C5.36658 63.1983 3.50991 62.4271 2.14067 61.0555C0.771417 59.684 0.00151223 57.8243 0 55.8846L0 55.0725C0.00151223 53.1328 0.771417 51.2731 2.14067 49.9016C3.50991 48.53 5.36658 47.7588 7.30299 47.7573H23.6162C25.5526 47.7588 27.4093 48.53 28.7785 49.9016C30.1478 51.2731 30.9177 53.1328 30.9192 55.0725V55.8846C30.9177 57.8243 30.1478 59.684 28.7785 61.0555C27.4093 62.4271 25.5526 63.1983 23.6162 63.1998ZM7.30299 52.3329C6.57807 52.3344 5.88327 52.6235 5.37068 53.1369C4.85808 53.6504 4.56944 54.3463 4.56793 55.0725V55.8846C4.56944 56.6107 4.85808 57.3067 5.37068 57.8201C5.88327 58.3336 6.57807 58.6227 7.30299 58.6242H23.6162C24.3411 58.6227 25.0359 58.3336 25.5485 57.8201C26.0611 57.3067 26.3498 56.6107 26.3513 55.8846V55.0725C26.3498 54.3463 26.0611 53.6504 25.5485 53.1369C25.0359 52.6235 24.3411 52.3344 23.6162 52.3329H7.30299Z" fill="#F376A2"/>
</g>
<defs>
<clipPath id="clip0">
<rect width="127" height="159" fill="white"/>
</clipPath>
</defs>
</svg>
