<svg width="160" height="157" viewBox="0 0 160 157" fill="none" xmlns="http://www.w3.org/2000/svg">
<g clip-path="url(#clip0)">
<path d="M79.6668 79.4567H2.29802C1.68855 79.4567 1.10404 79.2153 0.673076 78.7854C0.242113 78.3556 0 77.7726 0 77.1648V36.6714C0 36.0635 0.242113 35.4805 0.673076 35.0507C1.10404 34.6209 1.68855 34.3794 2.29802 34.3794H79.6668C80.2763 34.3794 80.8608 34.6209 81.2917 35.0507C81.7227 35.4805 81.9648 36.0635 81.9648 36.6714V77.1648C81.9648 77.7726 81.7227 78.3556 81.2917 78.7854C80.8608 79.2153 80.2763 79.4567 79.6668 79.4567ZM4.59605 74.8728H77.3688V38.9633H4.59605V74.8728Z" fill="#F376A2"/>
<path d="M157.702 157H79.8566C79.2471 157 78.6626 156.758 78.2317 156.329C77.8007 155.899 77.5586 155.316 77.5586 154.708V36.6714C77.5586 36.0635 77.8007 35.4805 78.2317 35.0507C78.6626 34.6209 79.2471 34.3794 79.8566 34.3794C80.4661 34.3794 81.0506 34.6209 81.4816 35.0507C81.9125 35.4805 82.1546 36.0635 82.1546 36.6714V152.416H155.404V36.6714C155.404 36.0635 155.646 35.4805 156.077 35.0507C156.508 34.6209 157.093 34.3794 157.702 34.3794C158.312 34.3794 158.896 34.6209 159.327 35.0507C159.758 35.4805 160 36.0635 160 36.6714V154.708C160 155.316 159.758 155.899 159.327 156.329C158.896 156.758 158.312 157 157.702 157Z" fill="#8D67C3"/>
<path d="M80.1436 157H2.29803C1.68855 157 1.10404 156.758 0.673076 156.329C0.242113 155.899 0 155.316 0 154.708V36.6714C0 36.0635 0.242113 35.4805 0.673076 35.0507C1.10404 34.6209 1.68855 34.3794 2.29803 34.3794H80.1436C80.7531 34.3794 81.3376 34.6209 81.7686 35.0507C82.1995 35.4805 82.4417 36.0635 82.4417 36.6714V154.708C82.4417 155.316 82.1995 155.899 81.7686 156.329C81.3376 156.758 80.7531 157 80.1436 157ZM4.59605 152.416H77.8456V38.9633H4.59605V152.416Z" fill="#8D67C3"/>
<path d="M79.8566 157C79.2471 157 78.6626 156.759 78.2317 156.329C77.8007 155.899 77.5586 155.316 77.5586 154.708V36.6716C77.5583 36.2275 77.6874 35.7929 77.9301 35.4206C78.1728 35.0483 78.5188 34.7543 78.9259 34.5745L156.772 0.19492C157.121 0.0403074 157.505 -0.0246687 157.886 0.00589098C158.268 0.0364507 158.636 0.161578 158.956 0.369912C159.277 0.578246 159.541 0.863187 159.723 1.19886C159.905 1.53454 160.001 1.91031 160 2.29207V120.329C160.001 120.773 159.871 121.207 159.629 121.58C159.386 121.952 159.04 122.246 158.633 122.426L80.7873 156.805C80.4941 156.934 80.1771 157.001 79.8566 157ZM82.1546 38.1614V151.184L155.404 118.839V5.81598L82.1546 38.1614Z" fill="#1CD0C5"/>
<path d="M67.6487 92.4409H14.7941C14.1846 92.4409 13.6001 92.1994 13.1692 91.7696C12.7382 91.3397 12.4961 90.7568 12.4961 90.1489C12.4961 89.541 12.7382 88.9581 13.1692 88.5282C13.6001 88.0984 14.1846 87.8569 14.7941 87.8569H67.6487C68.2582 87.8569 68.8427 88.0984 69.2736 88.5282C69.7046 88.9581 69.9467 89.541 69.9467 90.1489C69.9467 90.7568 69.7046 91.3397 69.2736 91.7696C68.8427 92.1994 68.2582 92.4409 67.6487 92.4409Z" fill="#19B4EE"/>
<path d="M25.1403 143.248H14.2707C13.6612 143.248 13.0767 143.007 12.6457 142.577C12.2148 142.147 11.9727 141.564 11.9727 140.956V103.139C11.9727 102.531 12.2148 101.948 12.6457 101.518C13.0767 101.088 13.6612 100.847 14.2707 100.847H25.1403C25.7498 100.847 26.3343 101.088 26.7653 101.518C27.1963 101.948 27.4384 102.531 27.4384 103.139V140.956C27.4384 141.564 27.1963 142.147 26.7653 142.577C26.3343 143.007 25.7498 143.248 25.1403 143.248ZM16.5687 138.664H22.8423V105.431H16.5687V138.664Z" fill="#4263A8"/>
<path d="M46.656 143.248H35.7863C35.1768 143.248 34.5923 143.007 34.1614 142.577C33.7304 142.147 33.4883 141.564 33.4883 140.956V103.139C33.4883 102.531 33.7304 101.948 34.1614 101.518C34.5923 101.088 35.1768 100.847 35.7863 100.847H46.656C47.2654 100.847 47.85 101.088 48.2809 101.518C48.7119 101.948 48.954 102.531 48.954 103.139V140.956C48.954 141.564 48.7119 142.147 48.2809 142.577C47.85 143.007 47.2654 143.248 46.656 143.248ZM38.0843 138.664H44.3579V105.431H38.0843V138.664Z" fill="#4263A8"/>
<path d="M68.1716 143.248H57.3019C56.6925 143.248 56.1079 143.007 55.677 142.577C55.246 142.147 55.0039 141.564 55.0039 140.956V103.139C55.0039 102.531 55.246 101.948 55.677 101.518C56.1079 101.088 56.6925 100.847 57.3019 100.847H68.1716C68.7811 100.847 69.3656 101.088 69.7965 101.518C70.2275 101.948 70.4696 102.531 70.4696 103.139V140.956C70.4696 141.564 70.2275 142.147 69.7965 142.577C69.3656 143.007 68.7811 143.248 68.1716 143.248ZM59.6 138.664H65.8736V105.431H59.6V138.664Z" fill="#4263A8"/>
</g>
<defs>
<clipPath id="clip0">
<rect width="160" height="157" fill="white"/>
</clipPath>
</defs>
</svg>
