<svg width="160" height="159" viewBox="0 0 160 159" fill="none" xmlns="http://www.w3.org/2000/svg">
<g clip-path="url(#clip0)">
<path d="M67.2768 81.9625H14.2532C13.6484 81.9625 13.0683 81.722 12.6406 81.2939C12.2129 80.8659 11.9727 80.2853 11.9727 79.6799V52.6996C11.9727 52.0942 12.2129 51.5136 12.6406 51.0856C13.0683 50.6575 13.6484 50.417 14.2532 50.417H67.2768C67.8816 50.417 68.4617 50.6575 68.8894 51.0856C69.3171 51.5136 69.5574 52.0942 69.5574 52.6996V79.6799C69.5574 80.2853 69.3171 80.8659 68.8894 81.2939C68.4617 81.722 67.8816 81.9625 67.2768 81.9625ZM16.5338 77.3973H64.9962V54.9822H16.5338V77.3973Z" fill="#1CD0C5"/>
<path d="M25.6562 104.075H14.2532C13.6484 104.075 13.0683 103.834 12.6406 103.406C12.2129 102.978 11.9727 102.398 11.9727 101.792V90.3793C11.9727 89.7739 12.2129 89.1933 12.6406 88.7652C13.0683 88.3372 13.6484 88.0967 14.2532 88.0967H25.6562C26.261 88.0967 26.8411 88.3372 27.2688 88.7652C27.6965 89.1933 27.9367 89.7739 27.9367 90.3793V101.792C27.9367 102.398 27.6965 102.978 27.2688 103.406C26.8411 103.834 26.261 104.075 25.6562 104.075ZM16.5338 99.5097H23.3756V92.6619H16.5338V99.5097Z" fill="#19B4EE"/>
<path d="M67.2773 104.075H55.8743C55.2695 104.075 54.6894 103.834 54.2617 103.406C53.834 102.978 53.5938 102.398 53.5938 101.792V90.3793C53.5938 89.7739 53.834 89.1933 54.2617 88.7652C54.6894 88.3372 55.2695 88.0967 55.8743 88.0967H67.2773C67.8821 88.0967 68.4622 88.3372 68.8899 88.7652C69.3176 89.1933 69.5578 89.7739 69.5578 90.3793V101.792C69.5578 102.398 69.3176 102.978 68.8899 103.406C68.4622 103.834 67.8821 104.075 67.2773 104.075ZM58.1549 99.5097H64.9967V92.6619H58.1549V99.5097Z" fill="#19B4EE"/>
<path d="M46.4804 104.075H35.0775C34.4726 104.075 33.8925 103.834 33.4648 103.406C33.0372 102.978 32.7969 102.398 32.7969 101.792V90.3793C32.7969 89.7739 33.0372 89.1933 33.4648 88.7652C33.8925 88.3372 34.4726 88.0967 35.0775 88.0967H46.4804C47.0852 88.0967 47.6653 88.3372 48.093 88.7652C48.5207 89.1933 48.761 89.7739 48.761 90.3793V101.792C48.761 102.398 48.5207 102.978 48.093 103.406C47.6653 103.834 47.0852 104.075 46.4804 104.075ZM37.358 99.5097H44.1998V92.6619H37.358V99.5097Z" fill="#19B4EE"/>
<path d="M25.6562 125.76H14.2532C13.6484 125.76 13.0683 125.519 12.6406 125.091C12.2129 124.663 11.9727 124.083 11.9727 123.477V112.064C11.9727 111.459 12.2129 110.878 12.6406 110.45C13.0683 110.022 13.6484 109.782 14.2532 109.782H25.6562C26.261 109.782 26.8411 110.022 27.2688 110.45C27.6965 110.878 27.9367 111.459 27.9367 112.064V123.477C27.9367 124.083 27.6965 124.663 27.2688 125.091C26.8411 125.519 26.261 125.76 25.6562 125.76ZM16.5338 121.195H23.3756V114.347H16.5338V121.195Z" fill="#19B4EE"/>
<path d="M67.2773 125.76H55.8743C55.2695 125.76 54.6894 125.519 54.2617 125.091C53.834 124.663 53.5938 124.083 53.5938 123.477V112.064C53.5938 111.459 53.834 110.878 54.2617 110.45C54.6894 110.022 55.2695 109.782 55.8743 109.782H67.2773C67.8821 109.782 68.4622 110.022 68.8899 110.45C69.3176 110.878 69.5578 111.459 69.5578 112.064V123.477C69.5578 124.083 69.3176 124.663 68.8899 125.091C68.4622 125.519 67.8821 125.76 67.2773 125.76ZM58.1549 121.195H64.9967V114.347H58.1549V121.195Z" fill="#19B4EE"/>
<path d="M46.4804 125.76H35.0775C34.4726 125.76 33.8925 125.519 33.4648 125.091C33.0372 124.663 32.7969 124.083 32.7969 123.477V112.064C32.7969 111.459 33.0372 110.878 33.4648 110.45C33.8925 110.022 34.4726 109.782 35.0775 109.782H46.4804C47.0852 109.782 47.6653 110.022 48.093 110.45C48.5207 110.878 48.761 111.459 48.761 112.064V123.477C48.761 124.083 48.5207 124.663 48.093 125.091C47.6653 125.519 47.0852 125.76 46.4804 125.76ZM37.358 121.195H44.1998V114.347H37.358V121.195Z" fill="#19B4EE"/>
<path d="M25.6562 147.444H14.2532C13.6484 147.444 13.0683 147.204 12.6406 146.776C12.2129 146.348 11.9727 145.767 11.9727 145.162V133.749C11.9727 133.144 12.2129 132.563 12.6406 132.135C13.0683 131.707 13.6484 131.466 14.2532 131.466H25.6562C26.261 131.466 26.8411 131.707 27.2688 132.135C27.6965 132.563 27.9367 133.144 27.9367 133.749V145.162C27.9367 145.767 27.6965 146.348 27.2688 146.776C26.8411 147.204 26.261 147.444 25.6562 147.444ZM16.5338 142.879H23.3756V136.031H16.5338V142.879Z" fill="#19B4EE"/>
<path d="M67.2773 147.444H55.8743C55.2695 147.444 54.6894 147.204 54.2617 146.776C53.834 146.348 53.5938 145.767 53.5938 145.162V133.749C53.5938 133.144 53.834 132.563 54.2617 132.135C54.6894 131.707 55.2695 131.466 55.8743 131.466H67.2773C67.8821 131.466 68.4622 131.707 68.8899 132.135C69.3176 132.563 69.5578 133.144 69.5578 133.749V145.162C69.5578 145.767 69.3176 146.348 68.8899 146.776C68.4622 147.204 67.8821 147.444 67.2773 147.444ZM58.1549 142.879H64.9967V136.031H58.1549V142.879Z" fill="#19B4EE"/>
<path d="M46.4804 147.444H35.0775C34.4726 147.444 33.8925 147.204 33.4648 146.776C33.0372 146.348 32.7969 145.767 32.7969 145.162V133.749C32.7969 133.144 33.0372 132.563 33.4648 132.135C33.8925 131.707 34.4726 131.466 35.0775 131.466H46.4804C47.0852 131.466 47.6653 131.707 48.093 132.135C48.5207 132.563 48.761 133.144 48.761 133.749V145.162C48.761 145.767 48.5207 146.348 48.093 146.776C47.6653 147.204 47.0852 147.444 46.4804 147.444ZM37.358 142.879H44.1998V136.031H37.358V142.879Z" fill="#19B4EE"/>
<path d="M87.1621 132.893C84.4098 132.893 81.6608 132.702 78.9349 132.322C78.351 132.222 77.8289 131.899 77.4791 131.42C77.1293 130.941 76.9793 130.345 77.0608 129.758C77.1423 129.171 77.4489 128.638 77.9157 128.273C78.3826 127.908 78.973 127.74 79.5621 127.803C87.2104 128.857 94.9946 128.301 102.415 126.168C109.836 124.036 116.73 120.375 122.655 115.42C128.58 110.466 133.404 104.326 136.82 97.3961C140.235 90.466 142.166 82.898 142.489 75.1773H87.1849C86.5801 75.1773 86 74.9368 85.5723 74.5087C85.1446 74.0806 84.9043 73.5001 84.9043 72.8947V17.5417C75.9557 17.8855 67.2252 20.4047 59.4671 24.8817C51.709 29.3587 45.1566 35.6589 40.3759 43.238C40.0523 43.7496 39.539 44.1115 38.9488 44.2442C38.3585 44.3769 37.7398 44.2695 37.2287 43.9456C36.7176 43.6218 36.356 43.1079 36.2234 42.5172C36.0909 41.9265 36.1982 41.3072 36.5218 40.7957C41.9141 32.2374 49.3892 25.1897 58.2465 20.313C67.1038 15.4363 77.0531 12.8903 87.1621 12.9137C87.7669 12.9137 88.347 13.1542 88.7747 13.5823C89.2024 14.0104 89.4427 14.5909 89.4427 15.1963V70.6178H144.815C145.42 70.6178 146 70.8583 146.428 71.2863C146.856 71.7144 147.096 72.295 147.096 72.9004C147.078 88.8048 140.758 104.053 129.522 115.299C118.286 126.546 103.052 132.873 87.1621 132.893Z" fill="#F376A2"/>
<path d="M157.719 62.2692C157.114 62.2692 156.534 62.0288 156.106 61.6007C155.679 61.1726 155.438 60.592 155.438 59.9866C155.422 45.2931 149.582 31.2061 139.202 20.8161C128.821 10.4262 114.746 4.58181 100.066 4.56519C99.4609 4.56519 98.8808 4.32471 98.4531 3.89664C98.0254 3.46857 97.7852 2.88798 97.7852 2.2826C97.7852 1.67721 98.0254 1.09663 98.4531 0.668557C98.8808 0.240487 99.4609 0 100.066 0C115.956 0.0181241 131.189 6.34395 142.425 17.5897C153.661 28.8355 159.981 44.0828 159.999 59.9866C159.999 60.592 159.759 61.1726 159.331 61.6007C158.904 62.0288 158.324 62.2692 157.719 62.2692Z" fill="#1CD0C5"/>
<path d="M157.719 62.2692H100.066C99.4609 62.2692 98.8808 62.0288 98.4531 61.6007C98.0254 61.1726 97.7852 60.592 97.7852 59.9866V2.2826C97.7852 1.67721 98.0254 1.09663 98.4531 0.668557C98.8808 0.240487 99.4609 0 100.066 0C100.671 0 101.251 0.240487 101.678 0.668557C102.106 1.09663 102.346 1.67721 102.346 2.2826V57.704H157.719C158.324 57.704 158.904 57.9445 159.331 58.3726C159.759 58.8007 159.999 59.3813 159.999 59.9866C159.999 60.592 159.759 61.1726 159.331 61.6007C158.904 62.0288 158.324 62.2692 157.719 62.2692Z" fill="#1CD0C5"/>
<path d="M79.2503 159H2.28058C1.67573 159 1.09566 158.76 0.667967 158.332C0.240275 157.903 0 157.323 0 156.717V42.017C0 41.4116 0.240275 40.831 0.667967 40.4029C1.09566 39.9749 1.67573 39.7344 2.28058 39.7344H79.2503C79.8551 39.7344 80.4352 39.9749 80.8629 40.4029C81.2906 40.831 81.5308 41.4116 81.5308 42.017V156.717C81.5308 157.323 81.2906 157.903 80.8629 158.332C80.4352 158.76 79.8551 159 79.2503 159ZM4.56117 154.435H76.9697V44.2996H4.56117V154.435Z" fill="#8D67C3"/>
</g>
<defs>
<clipPath id="clip0">
<rect width="160" height="159" fill="white"/>
</clipPath>
</defs>
</svg>
