<svg width="182" height="159" viewBox="0 0 182 159" fill="none" xmlns="http://www.w3.org/2000/svg">
<g clip-path="url(#clip0)">
<path d="M179.381 31.8223H2.61871C1.92418 31.8223 1.2581 31.5458 0.767001 31.0536C0.275899 30.5614 0 29.8938 0 29.1978C0 28.5017 0.275899 27.8341 0.767001 27.3419C1.2581 26.8498 1.92418 26.5732 2.61871 26.5732H179.381C180.076 26.5732 180.742 26.8498 181.233 27.3419C181.724 27.8341 182 28.5017 182 29.1978C182 29.8938 181.724 30.5614 181.233 31.0536C180.742 31.5458 180.076 31.8223 179.381 31.8223Z" fill="#4263A8"/>
<path d="M152.867 159H29.1331C21.4092 158.991 14.0041 155.912 8.54245 150.439C3.08082 144.965 0.00866396 137.543 0 129.802L0 29.1978C0.00866396 21.4567 3.08082 14.0352 8.54245 8.56142C14.0041 3.08766 21.4092 0.0086832 29.1331 0L152.867 0C160.591 0.0086832 167.996 3.08766 173.458 8.56142C178.919 14.0352 181.991 21.4567 182 29.1978V129.802C181.991 137.543 178.919 144.965 173.458 150.439C167.996 155.912 160.591 158.991 152.867 159ZM29.1331 5.24904C22.7977 5.25599 16.7238 7.78138 12.2439 12.2711C7.76414 16.7609 5.24434 22.8483 5.23741 29.1978V129.802C5.24434 136.152 7.76414 142.239 12.2439 146.729C16.7238 151.219 22.7977 153.744 29.1331 153.751H152.867C159.202 153.744 165.276 151.219 169.756 146.729C174.236 142.239 176.756 136.152 176.763 129.802V29.1978C176.756 22.8483 174.236 16.7609 169.756 12.2711C165.276 7.78138 159.202 5.25599 152.867 5.24904H29.1331Z" fill="#8D67C3"/>
<path d="M153.849 20.9961C156.741 20.9961 159.086 18.6461 159.086 15.7471C159.086 12.8481 156.741 10.498 153.849 10.498C150.956 10.498 148.611 12.8481 148.611 15.7471C148.611 18.6461 150.956 20.9961 153.849 20.9961Z" fill="#F376A2"/>
<path d="M135.845 20.9961C138.737 20.9961 141.082 18.6461 141.082 15.7471C141.082 12.8481 138.737 10.498 135.845 10.498C132.952 10.498 130.607 12.8481 130.607 15.7471C130.607 18.6461 132.952 20.9961 135.845 20.9961Z" fill="#19B4EE"/>
<path d="M117.841 20.9961C120.733 20.9961 123.078 18.6461 123.078 15.7471C123.078 12.8481 120.733 10.498 117.841 10.498C114.948 10.498 112.604 12.8481 112.604 15.7471C112.604 18.6461 114.948 20.9961 117.841 20.9961Z" fill="#1CD0C5"/>
<path d="M89.475 18.3716H25.5328C24.8382 18.3716 24.1722 18.0951 23.6811 17.6029C23.19 17.1107 22.9141 16.4431 22.9141 15.7471C22.9141 15.051 23.19 14.3835 23.6811 13.8913C24.1722 13.3991 24.8382 13.1226 25.5328 13.1226H89.475C90.1695 13.1226 90.8356 13.3991 91.3267 13.8913C91.8178 14.3835 92.0937 15.051 92.0937 15.7471C92.0937 16.4431 91.8178 17.1107 91.3267 17.6029C90.8356 18.0951 90.1695 18.3716 89.475 18.3716Z" fill="#1CD0C5"/>
<path d="M57.5006 45.273H25.5328C24.8382 45.273 24.1722 44.9965 23.6811 44.5043C23.19 44.0121 22.9141 43.3445 22.9141 42.6484C22.9141 41.9524 23.19 41.2848 23.6811 40.7926C24.1722 40.3004 24.8382 40.0239 25.5328 40.0239H57.5006C58.1951 40.0239 58.8612 40.3004 59.3523 40.7926C59.8434 41.2848 60.1193 41.9524 60.1193 42.6484C60.1193 43.3445 59.8434 44.0121 59.3523 44.5043C58.8612 44.9965 58.1951 45.273 57.5006 45.273Z" fill="#F376A2"/>
<path d="M57.5006 56.0991H25.5328C24.8382 56.0991 24.1722 55.8226 23.6811 55.3304C23.19 54.8382 22.9141 54.1707 22.9141 53.4746C22.9141 52.7786 23.19 52.111 23.6811 51.6188C24.1722 51.1266 24.8382 50.8501 25.5328 50.8501H57.5006C58.1951 50.8501 58.8612 51.1266 59.3523 51.6188C59.8434 52.111 60.1193 52.7786 60.1193 53.4746C60.1193 54.1707 59.8434 54.8382 59.3523 55.3304C58.8612 55.8226 58.1951 56.0991 57.5006 56.0991Z" fill="#F376A2"/>
<path d="M57.5006 66.9253H25.5328C24.8382 66.9253 24.1722 66.6488 23.6811 66.1566C23.19 65.6644 22.9141 64.9969 22.9141 64.3008C22.9141 63.6047 23.19 62.9372 23.6811 62.445C24.1722 61.9528 24.8382 61.6763 25.5328 61.6763H57.5006C58.1951 61.6763 58.8612 61.9528 59.3523 62.445C59.8434 62.9372 60.1193 63.6047 60.1193 64.3008C60.1193 64.9969 59.8434 65.6644 59.3523 66.1566C58.8612 66.6488 58.1951 66.9253 57.5006 66.9253Z" fill="#F376A2"/>
<path d="M57.5006 77.7515H25.5328C24.8382 77.7515 24.1722 77.475 23.6811 76.9828C23.19 76.4906 22.9141 75.823 22.9141 75.127C22.9141 74.4309 23.19 73.7633 23.6811 73.2711C24.1722 72.779 24.8382 72.5024 25.5328 72.5024H57.5006C58.1951 72.5024 58.8612 72.779 59.3523 73.2711C59.8434 73.7633 60.1193 74.4309 60.1193 75.127C60.1193 75.823 59.8434 76.4906 59.3523 76.9828C58.8612 77.475 58.1951 77.7515 57.5006 77.7515Z" fill="#F376A2"/>
<path d="M57.5006 88.689H25.5328C24.8382 88.689 24.1722 88.4125 23.6811 87.9203C23.19 87.4281 22.9141 86.7605 22.9141 86.0645C22.9141 85.3684 23.19 84.7008 23.6811 84.2086C24.1722 83.7165 24.8382 83.4399 25.5328 83.4399H57.5006C58.1951 83.4399 58.8612 83.7165 59.3523 84.2086C59.8434 84.7008 60.1193 85.3684 60.1193 86.0645C60.1193 86.7605 59.8434 87.4281 59.3523 87.9203C58.8612 88.4125 58.1951 88.689 57.5006 88.689Z" fill="#F376A2"/>
<path d="M57.5006 98.9639H25.5328C24.8382 98.9639 24.1722 98.6874 23.6811 98.1952C23.19 97.703 22.9141 97.0354 22.9141 96.3394C22.9141 95.6433 23.19 94.9757 23.6811 94.4835C24.1722 93.9914 24.8382 93.7148 25.5328 93.7148H57.5006C58.1951 93.7148 58.8612 93.9914 59.3523 94.4835C59.8434 94.9757 60.1193 95.6433 60.1193 96.3394C60.1193 97.0354 59.8434 97.703 59.3523 98.1952C58.8612 98.6874 58.1951 98.9639 57.5006 98.9639Z" fill="#F376A2"/>
<path d="M159.086 66.9253H72.4527C71.7582 66.9253 71.0921 66.6488 70.601 66.1566C70.1099 65.6644 69.834 64.9968 69.834 64.3007V42.6484C69.834 41.9524 70.1099 41.2848 70.601 40.7926C71.0921 40.3004 71.7582 40.0239 72.4527 40.0239H159.086C159.781 40.0239 160.447 40.3004 160.938 40.7926C161.429 41.2848 161.705 41.9524 161.705 42.6484V64.3007C161.705 64.9968 161.429 65.6644 160.938 66.1566C160.447 66.6488 159.781 66.9253 159.086 66.9253ZM75.0714 61.6762H156.467V45.273H75.0714V61.6762Z" fill="#19B4EE"/>
<path d="M115.767 158.783C107.501 158.783 99.4199 156.327 92.5467 151.724C85.6735 147.121 80.3166 140.579 77.1535 132.924C73.9903 125.27 73.163 116.847 74.7762 108.722C76.3894 100.596 80.3706 93.1328 86.2163 87.275C92.062 81.4172 99.5097 77.4284 107.618 75.8129C115.725 74.1974 124.129 75.0278 131.766 78.1992C139.403 81.3705 145.93 86.7404 150.521 93.6296C155.113 100.519 157.563 108.618 157.562 116.903C157.548 128.007 153.14 138.653 145.305 146.504C137.47 154.355 126.847 158.771 115.767 158.783ZM115.767 80.2644C108.537 80.2644 101.469 82.4132 95.4572 86.4391C89.4454 90.4649 84.7598 96.1871 81.9928 102.882C79.2259 109.577 78.502 116.943 79.9125 124.05C81.3231 131.158 84.8048 137.686 89.9174 142.81C95.03 147.934 101.544 151.423 108.635 152.837C115.727 154.251 123.077 153.525 129.757 150.752C136.437 147.979 142.146 143.283 146.163 137.258C150.18 131.233 152.324 124.149 152.324 116.903C152.314 107.189 148.459 97.8758 141.606 91.007C134.752 84.1383 125.46 80.2748 115.767 80.2644Z" fill="#1CD0C5"/>
<path d="M115.767 130.274C115.423 130.275 115.082 130.207 114.764 130.075C114.446 129.944 114.157 129.75 113.914 129.507L92.4667 108.005C92.1894 107.77 91.9638 107.48 91.8045 107.153C91.6451 106.826 91.5554 106.469 91.5411 106.105C91.5268 105.741 91.5881 105.378 91.7212 105.04C91.8543 104.701 92.0563 104.394 92.3143 104.137C92.5723 103.881 92.8807 103.681 93.2198 103.551C93.559 103.421 93.9215 103.362 94.2843 103.38C94.6471 103.398 95.0024 103.491 95.3274 103.653C95.6524 103.816 95.9401 104.044 96.1722 104.325L115.767 123.962L135.368 104.325C135.866 103.872 136.518 103.629 137.19 103.646C137.862 103.662 138.502 103.937 138.978 104.414C139.453 104.89 139.727 105.531 139.744 106.205C139.76 106.878 139.518 107.532 139.067 108.032L117.619 129.533C117.124 130.016 116.458 130.282 115.767 130.274Z" fill="#1CD0C5"/>
</g>
<defs>
<clipPath id="clip0">
<rect width="182" height="159" fill="white"/>
</clipPath>
</defs>
</svg>
