<svg width="137" height="159" viewBox="0 0 137 159" fill="none" xmlns="http://www.w3.org/2000/svg">
<g clip-path="url(#clip0)">
<path d="M77.3269 159C61.8683 159.001 47.0128 152.992 35.8903 142.239C24.7678 131.485 18.2466 116.828 17.7006 101.354C17.6794 100.747 17.8997 100.157 18.3131 99.7129C18.7264 99.2688 19.299 99.0074 19.9048 98.9862C20.5106 98.9649 21.0999 99.1856 21.5433 99.5996C21.9866 100.014 22.2476 100.587 22.2688 101.194C22.7782 115.656 28.9377 129.339 39.421 139.296C49.9042 149.254 63.8725 154.689 78.3178 154.432C92.763 154.174 106.53 148.245 116.653 137.921C126.776 127.596 132.446 113.703 132.442 99.2321C132.442 98.6254 132.683 98.0434 133.111 97.6144C133.539 97.1854 134.12 96.9443 134.726 96.9443C135.332 96.9443 135.913 97.1854 136.341 97.6144C136.77 98.0434 137.01 98.6254 137.01 99.2321C136.992 115.08 130.698 130.273 119.509 141.478C108.32 152.683 93.1493 158.985 77.3269 159Z" fill="#F376A2"/>
<path d="M64.2903 45.5263C63.7239 45.5269 63.1774 45.3166 62.7571 44.9363C62.3367 44.5561 62.0724 44.0329 62.0155 43.4684C61.9585 42.904 62.1131 42.3384 62.449 41.8817C62.785 41.4249 63.2784 41.1094 63.8335 40.9965L64.2732 40.905C64.856 40.8128 65.4519 40.95 65.936 41.288C66.42 41.6261 66.7547 42.1386 66.8698 42.7183C66.985 43.2979 66.8717 43.8997 66.5537 44.3976C66.2357 44.8955 65.7377 45.2508 65.164 45.389L64.7471 45.4805C64.597 45.5124 64.4438 45.5278 64.2903 45.5263Z" fill="#F376A2"/>
<path d="M134.716 101.52C134.11 101.52 133.529 101.279 133.101 100.85C132.672 100.421 132.432 99.839 132.432 99.2322C132.432 55.7646 113.097 22.4604 77.9219 5.2449C75.6834 9.2485 70.1274 21.0648 66.981 43.4678C66.981 43.5765 66.981 43.6451 66.9468 43.7195C66.8862 44.3262 66.5875 44.884 66.1163 45.2702C65.6451 45.6563 65.0401 45.8391 64.4343 45.7785C63.8285 45.7178 63.2716 45.4186 62.8861 44.9466C62.5006 44.4747 62.318 43.8687 62.3786 43.2619C62.3786 43.1189 62.4128 42.9759 62.4357 42.833C66.627 13.1549 74.8383 1.43577 75.1866 0.949616C75.4973 0.516672 75.9492 0.206011 76.4643 0.0712992C76.9793 -0.0634125 77.5252 -0.0137138 78.0075 0.21181C116.049 17.942 137 53.1165 137 99.2322C137 99.5326 136.941 99.8301 136.826 100.108C136.711 100.385 136.543 100.637 136.331 100.85C136.119 101.062 135.867 101.231 135.59 101.346C135.313 101.461 135.016 101.52 134.716 101.52Z" fill="#F376A2"/>
<path d="M46.6803 105.18C38.5493 105.179 30.6773 102.316 24.4389 97.0929C24.2065 96.9007 24.0144 96.6643 23.8737 96.3974C23.733 96.1304 23.6464 95.8383 23.6189 95.5377C23.5914 95.2371 23.6236 94.934 23.7136 94.6459C23.8036 94.3578 23.9496 94.0904 24.1432 93.8591C24.3369 93.6278 24.5743 93.4372 24.8418 93.2982C25.1094 93.1592 25.4017 93.0746 25.702 93.0493C26.0023 93.024 26.3047 93.0585 26.5916 93.1508C26.8786 93.243 27.1444 93.3913 27.3739 93.5869C30.5084 96.2326 34.1493 98.2092 38.0734 99.3954C41.9976 100.582 46.1224 100.953 50.1947 100.485C54.2671 100.018 58.2013 98.7229 61.7561 96.6787C65.3109 94.6346 68.4114 91.8847 70.8674 88.5977C73.3235 85.3106 75.0833 81.5558 76.039 77.5634C76.9948 73.5709 77.1263 69.425 76.4255 65.3799C75.7247 61.3347 74.2063 57.4756 71.9635 54.0391C69.7207 50.6026 66.8008 47.6611 63.3827 45.395L63.3085 45.3436C63.2514 45.2978 63.1885 45.2635 63.1314 45.2235L63.0458 45.172C62.5496 44.8399 62.2029 44.3266 62.0797 43.7417C61.9566 43.1569 62.0669 42.547 62.387 42.0426C62.7071 41.5381 63.2115 41.1792 63.7925 41.0425C64.3734 40.9059 64.9847 41.0024 65.4955 41.3114L65.564 41.3514L65.958 41.6145C72.1307 45.7585 76.8106 51.7794 79.3077 58.7896C81.8048 65.7997 81.9868 73.428 79.827 80.5496C77.6672 87.6712 73.2799 93.9093 67.3119 98.3439C61.344 102.779 54.1112 105.175 46.6803 105.18Z" fill="#F376A2"/>
<path d="M75.8446 140.429H74.3942H74.2172L72.3842 140.263L71.2422 140.137H71.0994L69.3007 139.794C68.9124 139.714 68.507 139.634 68.1015 139.525L66.7882 139.131L66.0516 138.902C65.4291 138.713 64.7839 138.519 64.1101 138.25C63.3164 137.941 62.4998 137.621 61.6889 137.283L61.5976 137.243C59.9356 136.506 58.3203 135.668 56.761 134.733C53.684 132.894 50.8699 130.647 48.3955 128.052C47.1753 126.779 46.0564 125.411 45.0493 123.963C43.9954 122.48 43.1142 120.882 42.4226 119.199C42.2417 118.742 42.2125 118.239 42.3392 117.764C42.466 117.289 42.7419 116.868 43.1262 116.563C43.5106 116.257 43.9828 116.084 44.4732 116.069C44.9635 116.053 45.4458 116.196 45.8487 116.476C50.5754 119.713 55.8887 121.992 61.4891 123.185C62.6311 123.442 63.7732 123.608 64.9152 123.757L65.452 123.837C66.1429 123.894 66.8224 123.963 67.502 124.031H67.5648C67.8265 124.059 68.0896 124.072 68.3528 124.071L70.4199 124.152C70.5264 124.158 70.6332 124.158 70.7397 124.152L71.2193 124.123L71.9445 124.089L73.5434 123.866L75.1365 123.505L75.9188 123.265C78.0517 122.613 80.0918 121.688 81.9888 120.514L82.6398 120.096C82.8968 119.931 83.148 119.77 83.3993 119.593C83.8675 119.233 84.3414 118.884 84.8154 118.541L85.1237 118.272C85.9061 117.603 86.6427 116.974 87.2936 116.293C87.4135 116.173 87.5106 116.076 87.6134 115.984C87.7162 115.893 87.7961 115.813 87.8761 115.721C88.0588 115.504 88.2758 115.258 88.4928 115.012L88.8297 114.634C89.0692 114.386 89.2924 114.122 89.4978 113.845L89.532 113.794C89.7262 113.525 89.9318 113.262 90.1373 112.999C90.3429 112.736 90.4628 112.587 90.617 112.375L91.5992 110.888L91.662 110.802C91.7632 110.651 91.8566 110.494 91.9418 110.333L92.8954 108.669C92.9582 108.543 93.0153 108.417 93.0724 108.292L93.2437 107.931C93.3465 107.697 93.4835 107.417 93.6206 107.142C93.7576 106.867 93.8775 106.633 93.9917 106.37L94.6656 104.654C95.5115 102.415 96.1481 100.102 96.5671 97.745C96.6185 97.4705 96.6698 97.2074 96.7212 96.9443C96.7726 96.6812 96.8526 96.2579 96.904 95.9148L96.9382 95.6345C96.9953 95.0626 97.0581 94.4906 97.1324 93.9187L97.258 92.9464C97.258 92.8206 97.258 92.6604 97.2865 92.5003V92.0885C97.3151 91.4479 97.3608 90.773 97.4065 90.0924C97.5886 84.6511 97.2058 79.2056 96.2644 73.8435C95.2576 68.0621 93.9597 62.3354 92.3757 56.6852C91.582 53.6654 90.6627 50.7199 89.7319 47.6028C88.8468 44.7431 87.9332 41.729 87.1052 38.6633C86.9696 38.1819 86.9953 37.6693 87.1782 37.2039C87.3612 36.7385 87.6914 36.346 88.1183 36.0865C88.5452 35.8269 89.0453 35.7147 89.5419 35.7669C90.0386 35.8191 90.5045 36.0329 90.8682 36.3756C100.676 45.4923 108.255 56.7494 113.018 69.2737C115.547 75.8877 117.034 82.8551 117.427 89.9265C117.461 90.8588 117.484 91.751 117.501 92.6433C117.501 92.8034 117.501 92.9407 117.501 93.0837C117.501 93.4154 117.501 93.7414 117.501 94.0788L117.438 95.4401C117.404 96.195 117.358 96.9557 117.307 97.7278V98.1568C117.304 98.1776 117.304 98.1988 117.307 98.2197C117.244 98.8717 117.158 99.518 117.078 100.136C117.038 100.416 116.998 100.708 116.964 100.976C116.764 102.506 116.484 104.024 116.125 105.523L115.902 106.513C115.789 107.027 115.65 107.535 115.485 108.034L115.08 109.338C115.005 109.578 114.937 109.796 114.874 110.007C114.666 110.726 114.418 111.433 114.132 112.124C112.75 115.763 110.93 119.22 108.713 122.419L108.656 122.499L106.977 124.752L106.925 124.815C106.417 125.45 105.886 126.045 105.372 126.617L105.007 127.028C104.467 127.641 103.895 128.225 103.294 128.779L101.86 130.146C101.564 130.414 101.289 130.643 101.004 130.872L100.661 131.146C94.5032 136.344 86.9147 139.547 78.8996 140.332L77.472 140.452H77.2836L75.8446 140.429ZM74.5255 135.854H75.8617H77.1808L78.5056 135.739C85.5908 135.038 92.2969 132.2 97.7377 127.6L98.1374 127.269C98.3487 127.103 98.5542 126.937 98.7484 126.76L100.136 125.438C100.65 124.947 101.135 124.478 101.546 123.997L101.958 123.534C102.443 122.962 102.905 122.47 103.328 121.944L104.955 119.765C106.961 116.87 108.606 113.742 109.855 110.448L109.906 110.328C110.126 109.766 110.317 109.193 110.477 108.612L110.7 107.914L111.094 106.627C111.217 106.263 111.32 105.893 111.402 105.518C111.482 105.152 111.562 104.814 111.636 104.477C111.965 103.13 112.221 101.767 112.402 100.393C112.442 100.067 112.481 99.7697 112.521 99.478C112.601 98.906 112.676 98.3341 112.727 97.7907V97.3961C112.773 96.664 112.818 95.9319 112.853 95.1998L112.915 93.8615C112.915 93.6499 112.915 93.4039 112.915 93.158C112.915 92.9121 112.915 92.832 112.915 92.6661C112.915 91.8139 112.875 90.9503 112.847 90.0867C112.477 83.5041 111.088 77.0191 108.73 70.8637C105.325 61.8979 100.386 53.595 94.1345 46.3274C95.0538 49.3186 95.996 52.4071 96.7955 55.4784C98.4269 61.2725 99.761 67.1464 100.793 73.0771C101.792 78.7618 102.195 84.5354 101.997 90.304V90.3612C101.952 91.019 101.906 91.671 101.878 92.323C101.878 92.466 101.878 92.5746 101.878 92.6776C101.878 92.9464 101.878 93.2095 101.82 93.4726L101.643 94.4849C101.575 95.0569 101.518 95.5602 101.461 96.0864L101.426 96.4124C101.426 96.4124 101.426 96.4638 101.426 96.4867C101.364 96.9271 101.278 97.3561 101.198 97.785C101.152 98.0195 101.107 98.2483 101.067 98.4828C100.595 101.132 99.8803 103.732 98.9311 106.25L98.2173 108.04V108.109C98.0631 108.463 97.8975 108.801 97.7262 109.144C97.612 109.367 97.5035 109.596 97.395 109.824L97.2409 110.162C97.1438 110.368 97.0524 110.568 96.9496 110.768L96.8925 110.871L95.9332 112.507C95.7624 112.82 95.5717 113.122 95.3622 113.41L94.3686 114.903L94.3115 114.995C94.1174 115.258 93.9118 115.515 93.7119 115.778C93.5121 116.041 93.375 116.207 93.2152 116.425C92.9019 116.862 92.5585 117.277 92.1873 117.666L91.8904 118.003C91.6848 118.232 91.4964 118.444 91.3194 118.667C91.1423 118.89 90.9311 119.073 90.7483 119.239C90.6798 119.301 90.617 119.359 90.5542 119.427C89.7662 120.251 88.9039 120.983 88.0759 121.715L87.6991 122.041L87.5506 122.155C87.0824 122.499 86.6084 122.842 86.1459 123.208L86.0659 123.265C85.7405 123.5 85.4035 123.711 85.0666 123.923L84.4956 124.306L84.4271 124.352C82.1867 125.742 79.7759 126.836 77.255 127.606L76.3814 127.875L76.1986 127.921L74.4856 128.315L74.2686 128.355L72.5555 128.596H72.3271L71.4477 128.641C71.3164 128.641 71.225 128.641 71.1394 128.641C70.9053 128.641 70.6597 128.67 70.4085 128.676H70.3285L68.2728 128.596C67.8683 128.597 67.4641 128.574 67.0623 128.527C66.3999 128.458 65.7318 128.395 65.0523 128.338H64.9038L64.3328 128.252C63.1165 128.075 61.8602 127.892 60.5869 127.595C57.5654 126.943 54.6117 126.008 51.7645 124.804V124.832C53.9707 127.143 56.4794 129.144 59.2221 130.78C60.6176 131.612 62.061 132.361 63.5448 133.022C64.3099 133.337 65.0922 133.64 65.8745 133.943C66.377 134.149 66.891 134.304 67.4391 134.469C67.6961 134.544 67.9588 134.624 68.2157 134.71L69.4377 135.076C69.6262 135.127 69.9288 135.19 70.2543 135.253L71.9674 135.579L72.9095 135.682L74.5255 135.854Z" fill="#8D67C3"/>
<path d="M7.52218 116.047C7.22214 116.047 6.92499 115.988 6.64771 115.874C6.37044 115.759 6.11846 115.59 5.90618 115.378L0.669895 110.133C0.457527 109.921 0.289055 109.669 0.17411 109.391C0.0591641 109.113 0 108.815 0 108.515C0 108.214 0.0591641 107.916 0.17411 107.639C0.289055 107.361 0.457527 107.109 0.669895 106.896L27.1026 80.4209C27.3148 80.2084 27.5667 80.0398 27.844 79.9247C28.1213 79.8097 28.4185 79.7505 28.7186 79.7505C29.0187 79.7505 29.3159 79.8097 29.5932 79.9247C29.8704 80.0398 30.1224 80.2084 30.3346 80.4209C30.5468 80.6335 30.7151 80.8858 30.83 81.1636C30.9448 81.4413 31.0039 81.7389 31.0039 82.0395C31.0039 82.3401 30.9448 82.6378 30.83 82.9155C30.7151 83.1932 30.5468 83.4456 30.3346 83.6581L5.51789 108.515L7.52218 110.522L32.179 85.8201C32.3892 85.5989 32.6414 85.4221 32.9209 85.3001C33.2004 85.1781 33.5014 85.1133 33.8063 85.1097C34.1111 85.1061 34.4136 85.1636 34.6959 85.2789C34.9782 85.3942 35.2346 85.5649 35.45 85.781C35.6654 85.9972 35.8354 86.2543 35.95 86.5372C36.0646 86.8202 36.1215 87.1233 36.1174 87.4286C36.1132 87.7339 36.048 88.0353 35.9257 88.3151C35.8034 88.5948 35.6265 88.8471 35.4053 89.0573L9.13818 115.367C8.92684 115.581 8.67528 115.752 8.39796 115.868C8.12064 115.985 7.82302 116.046 7.52218 116.047Z" fill="#4263A8"/>
<path d="M46.5094 93.9528C41.8482 93.9539 37.2914 92.5705 33.4152 89.9775C29.539 87.3846 26.5176 83.6985 24.733 79.3856C22.9485 75.0726 22.481 70.3264 23.3896 65.7473C24.2983 61.1682 26.5423 56.9618 29.8379 53.6601C33.1334 50.3585 37.3325 48.1098 41.904 47.1986C46.4756 46.2874 51.2142 46.7545 55.5207 48.5408C59.8272 50.3272 63.5081 53.3526 66.0978 57.2344C68.6875 61.1162 70.0698 65.68 70.0698 70.3487C70.0638 76.606 67.5798 82.6054 63.1628 87.0306C58.7458 91.4557 52.7567 93.9452 46.5094 93.9528ZM46.5094 51.3259C42.7514 51.3248 39.0776 52.44 35.9525 54.5304C32.8274 56.6208 30.3915 59.5926 28.9529 63.0699C27.5143 66.5471 27.1376 70.3736 27.8705 74.0653C28.6033 77.757 30.4128 81.1481 33.0701 83.8096C35.7273 86.4712 39.113 88.2836 42.7987 89.0176C46.4845 89.7516 50.3048 89.3743 53.7765 87.9334C57.2482 86.4925 60.2152 84.0526 62.3023 80.9225C64.3894 77.7924 65.5028 74.1127 65.5016 70.3487C65.4941 65.3059 63.4907 60.4717 59.9306 56.9059C56.3705 53.3401 51.5441 51.3335 46.5094 51.3259Z" fill="#1CD0C5"/>
</g>
<defs>
<clipPath id="clip0">
<rect width="137" height="159" fill="white"/>
</clipPath>
</defs>
</svg>
