<svg width="212" height="159" viewBox="0 0 212 159" fill="none" xmlns="http://www.w3.org/2000/svg">
<g clip-path="url(#clip0)">
<path d="M99.4504 126.015C101.46 123.624 102.524 120.58 102.443 117.457C102.293 114.758 101.315 112.17 99.6418 110.047C101.043 106.556 101.586 101.06 96.909 96.7965C93.4796 93.6733 87.662 92.2724 79.6091 92.6628C76.0445 92.8291 72.4991 93.2822 69.0072 94.0178C67.9279 94.2091 66.7873 94.4464 65.6238 94.7067C65.5396 93.3288 65.7769 89.8994 68.3183 82.1909C71.3343 73.0051 71.1582 65.9855 67.7595 61.2854C64.177 56.3556 58.4665 55.927 56.7901 55.927C56.0006 55.9201 55.2192 56.0865 54.501 56.4145C53.7828 56.7425 53.1454 57.2241 52.6336 57.8254C50.2147 60.6424 50.5208 65.7712 50.7964 68.1289C47.9565 75.7838 39.9802 94.4617 33.2363 99.6518C33.1128 99.7437 32.9976 99.8461 32.8918 99.958C31.8391 101.073 30.9053 102.294 30.1055 103.602V156.581L34.6371 157.125C44.1663 158.27 53.761 158.782 63.358 158.656C65.9223 158.847 68.3336 158.954 70.5765 158.954C73.9389 159.003 77.2972 158.701 80.5966 158.051C87.1874 156.65 91.6961 153.848 93.9772 149.738C95.3509 147.22 95.8643 144.322 95.4393 141.486C99.7336 137.605 100.484 133.318 100.331 130.302C100.254 128.837 99.9568 127.392 99.4504 126.015ZM93.9313 123.497C93.4889 123.957 93.2113 124.55 93.1421 125.185C93.0728 125.819 93.2158 126.458 93.5485 127.003C94.1261 128.122 94.4625 129.351 94.536 130.608C94.6891 133.425 93.3342 135.928 90.4866 138.056C89.9912 138.434 89.6287 138.959 89.4512 139.557C89.2737 140.154 89.2905 140.792 89.4991 141.379C90.0171 143.238 89.8091 145.224 88.9174 146.936C87.4706 149.523 84.2633 151.376 79.3871 152.409C75.4908 153.251 70.2014 153.405 63.6795 152.884H63.3809C54.0211 152.99 44.6645 152.479 35.372 151.353L33.198 151.093C33.3283 150.471 33.3925 149.837 33.3894 149.202V114.165C33.3858 113.259 33.2465 112.359 32.976 111.494C33.7077 108.753 35.0739 106.222 36.9642 104.107C46.6399 96.452 56.1012 70.5631 56.5069 69.4379C56.6841 68.9772 56.7318 68.4769 56.6447 67.9911C56.2773 65.5721 56.4074 62.6327 56.9279 61.737C58.0685 61.737 61.1457 62.0815 62.9982 64.6459C65.1951 67.7079 65.1109 73.1199 62.7456 80.3155C59.1249 91.2773 58.8187 97.0568 61.6892 99.5982C62.3244 100.146 63.0949 100.513 63.9203 100.661C64.7457 100.809 65.5957 100.733 66.3816 100.44C67.6982 100.134 68.946 99.8814 70.1325 99.6747L70.4157 99.6135C77.0295 98.1667 88.8791 97.317 92.9974 101.037C96.488 104.222 94.0078 108.447 93.7629 108.899C93.3829 109.482 93.2262 110.182 93.3219 110.872C93.4175 111.561 93.759 112.192 94.2834 112.65C95.6439 113.992 96.4893 115.769 96.6717 117.671C96.7176 119.593 95.8067 121.552 93.9313 123.497Z" fill="#1CD0C5"/>
<path d="M26.1488 157.775H7.77729C5.71454 157.771 3.73755 156.949 2.27969 155.49C0.821819 154.031 0.0020223 152.053 0 149.99L0 109.863C0.00202658 107.799 0.822874 105.82 2.2824 104.361C3.74192 102.901 5.72087 102.08 7.78494 102.078H26.1565C28.2206 102.08 30.1995 102.901 31.659 104.361C33.1186 105.82 33.9394 107.799 33.9414 109.863V149.99C33.9394 152.056 33.1175 154.036 31.6563 155.495C30.1952 156.955 28.2142 157.775 26.1488 157.775ZM7.77729 108.202C7.33807 108.204 6.91752 108.38 6.60766 108.691C6.2978 109.003 6.12384 109.424 6.12385 109.863V149.99C6.12385 150.431 6.29886 150.853 6.61037 151.165C6.92189 151.476 7.34439 151.651 7.78494 151.651H26.1565C26.597 151.651 27.0195 151.476 27.3311 151.165C27.6426 150.853 27.8176 150.431 27.8176 149.99V109.863C27.8176 109.423 27.6426 109 27.3311 108.689C27.0195 108.377 26.597 108.202 26.1565 108.202H7.77729Z" fill="#19B4EE"/>
<path d="M112.527 32.985C110.517 35.3766 109.453 38.4207 109.534 41.5432C109.682 44.2583 110.669 46.8604 112.358 48.9914C110.957 52.4821 110.414 57.9783 115.091 62.2421C118.52 65.3653 124.338 66.7661 132.391 66.3757C135.955 66.2095 139.501 65.7564 142.993 65.0208C144.072 64.8294 145.213 64.5921 146.376 64.3319C146.46 65.7098 146.223 69.1392 143.682 76.8476C140.666 86.0335 140.842 93.0531 144.24 97.7532C147.823 102.683 153.533 103.073 155.21 103.073C155.999 103.08 156.781 102.914 157.499 102.586C158.217 102.258 158.855 101.776 159.366 101.175C161.762 98.3962 161.479 93.2674 161.181 90.902C164.021 83.2471 171.997 64.5692 178.741 59.3792C178.864 59.2873 178.979 59.1848 179.085 59.073C180.138 57.9584 181.072 56.7372 181.872 55.4292V2.41136L177.34 1.86786C167.811 0.722217 158.216 0.210764 148.619 0.336883C146.055 0.14551 143.643 0.0383416 141.401 0.0383416C138.038 -0.0107471 134.68 0.291993 131.38 0.94162C124.813 2.29654 120.304 5.10589 118.023 9.18595C116.649 11.7038 116.136 14.6014 116.561 17.4379C112.266 21.319 111.516 25.6057 111.669 28.6217C111.731 30.1113 112.02 31.5827 112.527 32.985ZM118.046 35.5035C118.488 35.0437 118.766 34.4502 118.835 33.8158C118.904 33.1814 118.761 32.542 118.428 31.9976C117.851 30.878 117.514 29.6497 117.441 28.3921C117.288 25.5751 118.643 23.0337 121.49 20.9439C121.989 20.5652 122.354 20.0373 122.531 19.437C122.709 18.8367 122.69 18.1953 122.478 17.6063C121.96 15.7471 122.168 13.7605 123.06 12.0489C124.506 9.46153 127.714 7.60904 132.59 6.57563C136.486 5.73359 141.776 5.58049 148.298 6.10103H148.596C157.956 5.99479 167.313 6.50622 176.605 7.63201L178.779 7.89227C178.649 8.51401 178.585 9.14779 178.588 9.78303V44.8348C178.591 45.741 178.731 46.6415 179.001 47.5064C178.264 50.2523 176.889 52.7856 174.99 54.901C165.314 62.5559 155.853 88.4448 155.447 89.5701C155.274 90.0291 155.229 90.5266 155.317 91.0092C155.684 93.4282 155.554 96.3676 155.034 97.2633C153.893 97.2633 150.816 96.9188 148.964 94.3544C146.767 91.2924 146.851 85.8804 149.216 78.6848C152.837 67.723 153.143 61.9435 150.272 59.4021C149.637 58.8546 148.867 58.4877 148.041 58.3396C147.216 58.1915 146.366 58.2676 145.58 58.5601C144.263 58.8663 143.016 59.1189 141.829 59.3256L141.546 59.3868C134.932 60.8336 123.083 61.6833 118.964 57.963C115.474 54.7786 117.954 50.553 118.237 50.1014C118.617 49.5185 118.774 48.8179 118.678 48.1286C118.582 47.4394 118.241 46.8079 117.717 46.3505C116.375 45.0038 115.546 43.23 115.374 41.3365C115.282 39.4075 116.193 37.4479 118.069 35.5035H118.046Z" fill="#F376A2"/>
<path d="M204.215 56.9217H185.844C183.78 56.9177 181.802 56.0962 180.343 54.6371C178.884 53.178 178.063 51.2002 178.059 49.1367V9.00968C178.063 6.94488 178.885 4.96592 180.346 3.5066C181.807 2.04728 183.786 1.22667 185.851 1.22464H204.223C205.247 1.22162 206.263 1.4207 207.21 1.81049C208.158 2.20028 209.019 2.77312 209.745 3.49623C210.471 4.21934 211.047 5.07852 211.441 6.02458C211.834 6.97065 212.037 7.98504 212.038 9.00968V49.1367C212.037 50.162 211.834 51.177 211.44 52.1236C211.046 53.0701 210.469 53.9296 209.742 54.6529C209.016 55.3761 208.153 55.9487 207.205 56.3381C206.256 56.7274 205.24 56.9258 204.215 56.9217ZM185.844 7.34857C185.403 7.34857 184.98 7.52358 184.669 7.8351C184.357 8.14661 184.182 8.56913 184.182 9.00968V49.1367C184.182 49.5772 184.357 49.9998 184.669 50.3113C184.98 50.6228 185.403 50.7978 185.844 50.7978H204.215C204.436 50.8029 204.657 50.7637 204.863 50.6825C205.068 50.6013 205.256 50.4798 205.414 50.325C205.573 50.1703 205.699 49.9854 205.784 49.7813C205.87 49.5773 205.915 49.3581 205.914 49.1367V9.00968C205.914 8.79154 205.871 8.57554 205.788 8.374C205.705 8.17246 205.582 7.98934 205.428 7.8351C205.274 7.68085 205.091 7.55849 204.889 7.47501C204.688 7.39153 204.471 7.34857 204.253 7.34857H185.844Z" fill="#8D67C3"/>
</g>
<defs>
<clipPath id="clip0">
<rect width="212" height="159" fill="white"/>
</clipPath>
</defs>
</svg>
