<svg width="159" height="157" viewBox="0 0 159 157" fill="none" xmlns="http://www.w3.org/2000/svg">
<path d="M79.7384 105.73C62.812 105.73 49.0664 92.0975 49.0664 75.3101C49.0664 58.5791 62.812 44.9465 79.6816 44.8901C80.3064 44.8901 80.8744 45.1155 81.272 45.5661C81.7264 46.0168 81.9536 46.5801 81.9536 47.1435V73.0568H108.138C109.388 73.0568 110.41 74.0708 110.41 75.3101C110.41 92.0975 96.608 105.73 79.7384 105.73ZM77.3528 49.5095C64.0616 50.6925 53.5536 61.8465 53.5536 75.3101C53.5536 89.6188 65.2544 101.223 79.6816 101.223C93.3136 101.223 104.56 90.8018 105.696 77.5635H79.568C78.3184 77.5635 77.296 76.5495 77.296 75.3101V49.5095H77.3528Z" fill="#1CD0C5"/>
<path d="M118.362 66.86H89.9055C89.2807 66.86 88.7695 66.353 88.7695 65.7333V37.5666C88.7695 36.9469 89.2807 36.4399 89.9055 36.4399H89.9623C106.264 36.4399 119.498 49.5656 119.498 65.7333C119.498 66.353 118.987 66.86 118.362 66.86ZM90.9847 64.6066H117.17C116.602 50.5796 105.128 39.2566 90.9847 38.6933V64.6066Z" fill="#F376A2"/>
<path d="M133.924 156.993H25.3794C24.1298 156.993 23.1074 155.979 23.1074 154.74C23.1074 153.501 24.1298 152.487 25.3794 152.487H133.981C135.231 152.487 136.253 153.501 136.253 154.74C136.253 155.979 135.174 156.993 133.924 156.993Z" fill="#8D67C3"/>
<path d="M133.924 156.993H25.3794C24.1298 156.993 23.1074 155.979 23.1074 154.74C23.1074 153.501 24.1298 152.487 25.3794 152.487H133.981C135.231 152.487 136.253 153.501 136.253 154.74C136.253 155.979 135.174 156.993 133.924 156.993Z" fill="#8D67C3"/>
<path d="M156.303 134.798C155.849 134.798 155.451 134.685 155.11 134.46H47.7583C46.5087 134.46 45.4863 133.446 45.4863 132.206C45.4863 130.967 46.5087 129.953 47.7583 129.953H156.36C157.61 129.953 158.632 130.967 158.632 132.206V132.544C158.575 133.784 157.553 134.798 156.303 134.798Z" fill="#8D67C3"/>
<path d="M2.94388 134.798C1.69428 134.798 0.671875 133.784 0.671875 132.544V132.206C0.671875 130.967 1.69428 129.953 2.94388 129.953C4.19348 129.953 5.21587 130.967 5.21587 132.206C5.21587 132.263 5.21587 132.263 5.21587 132.319V132.544C5.21587 133.784 4.19348 134.798 2.94388 134.798Z" fill="#8D67C3"/>
<path d="M156.303 27.4267C155.054 27.4267 154.031 26.4127 154.031 25.1734C154.031 25.117 154.031 25.117 154.031 25.0607V24.8354C154.031 23.596 155.054 22.582 156.303 22.582C157.553 22.582 158.575 23.596 158.575 24.8354V25.1734C158.575 26.4127 157.553 27.4267 156.303 27.4267Z" fill="#8D67C3"/>
<path d="M47.7589 27.4267H3.00051C1.75092 27.4267 0.728516 26.4127 0.728516 25.1734V24.8354C0.728516 23.596 1.75092 22.582 3.00051 22.582C3.45491 22.582 3.85251 22.6947 4.19331 22.92H47.7589C49.0085 22.92 50.0309 23.934 50.0309 25.1734C50.0309 26.4127 49.0085 27.4267 47.7589 27.4267Z" fill="#8D67C3"/>
<path d="M133.924 156.993C132.675 156.993 131.652 155.979 131.652 154.74C131.652 153.501 132.675 152.487 133.924 152.487C145 152.487 154.032 143.529 154.032 132.544C154.032 132.488 154.032 132.375 154.032 132.319C153.975 131.08 154.94 130.009 156.19 129.953C156.247 129.953 156.247 129.953 156.304 129.953C157.496 129.953 158.519 130.911 158.576 132.094C158.576 132.263 158.576 132.375 158.576 132.544C158.576 146.008 147.556 156.993 133.924 156.993Z" fill="#8D67C3"/>
<path d="M25.3797 156.994C11.8045 156.994 0.728516 146.009 0.728516 132.546C0.728516 132.433 0.728516 132.264 0.728516 132.151C0.898916 122.068 7.43091 112.942 17.0301 109.562C20.6653 108.266 23.1077 104.83 23.1077 101.055V56.3829C23.1077 50.6932 26.7429 45.5669 32.1957 43.6515C40.0341 40.8349 45.3733 33.4552 45.4869 25.1742V25.1178C45.4869 25.0615 45.4869 24.9489 45.4869 24.8925C45.4869 13.9075 36.4557 4.95052 25.3797 4.95052C14.3037 4.95052 5.27251 13.9075 5.27251 24.8925C5.27251 24.9489 5.27251 25.0615 5.27251 25.1178C5.32931 26.3572 4.36371 27.4275 3.11411 27.4839C1.80771 27.5402 0.785316 26.5825 0.728516 25.3432C0.728516 25.1742 0.728516 25.0615 0.728516 24.8925C0.728516 11.4288 11.8045 0.443848 25.3797 0.443848C38.9549 0.443848 50.0309 11.4288 50.0309 24.8925C50.0309 25.0052 50.0309 25.1742 50.0309 25.2868C49.8605 35.3705 43.3285 44.4965 33.7293 47.8765C30.0941 49.1722 27.6517 52.6085 27.6517 56.3829V101.055C27.6517 106.745 24.0165 111.871 18.5637 113.787C10.7253 116.603 5.38611 123.983 5.27251 132.264V132.32C5.27251 132.377 5.27251 132.489 5.27251 132.546C5.27251 143.531 14.3037 152.488 25.3797 152.488C36.4557 152.488 45.4869 143.531 45.4869 132.546C45.4869 132.489 45.4869 132.377 45.4869 132.32C45.4301 131.081 46.3957 130.011 47.6453 129.954C47.7021 129.954 47.7021 129.954 47.7589 129.954C48.9517 129.954 49.9741 130.912 50.0309 132.095C50.0309 132.264 50.0309 132.377 50.0309 132.546C50.0309 146.009 38.9549 156.994 25.3797 156.994Z" fill="#8D67C3"/>
<path d="M111.545 134.46C110.239 134.46 109.273 133.446 109.273 132.15C109.443 122.01 115.975 112.941 125.575 109.504C129.21 108.209 131.652 104.772 131.652 100.998V56.3257C131.652 50.6361 135.287 45.5097 140.74 43.5944C148.579 40.7777 153.918 33.3981 154.031 25.1171V25.0607C154.031 25.0044 154.031 24.8917 154.031 24.8354C154.031 13.8504 145 4.89339 133.924 4.89339H25.3794C24.1298 4.89339 23.1074 3.87939 23.1074 2.64005C23.1074 1.40072 24.1298 0.386719 25.3794 0.386719H133.981C147.556 0.386719 158.632 11.3717 158.632 24.8354C158.632 24.9481 158.632 25.1171 158.632 25.2297C158.462 35.3134 151.93 44.4394 142.331 47.8194C138.695 49.1151 136.253 52.5514 136.253 56.3257V100.998C136.253 106.688 132.618 111.814 127.165 113.729C119.327 116.546 113.987 123.926 113.874 132.207C113.817 133.446 112.795 134.46 111.545 134.46Z" fill="#8D67C3"/>
</svg>
