<svg width="156" height="156" viewBox="0 0 156 156" fill="none" xmlns="http://www.w3.org/2000/svg">
<path d="M153.754 80.2446C153.159 80.2446 152.588 80.0082 152.167 79.5872C151.746 79.1663 151.51 78.5953 151.51 78C151.51 67.3961 147.298 57.2266 139.799 49.7285C132.301 42.2304 122.132 38.018 111.528 38.018C100.924 38.018 90.7544 42.2304 83.2563 49.7285C75.7582 57.2266 71.5458 67.3961 71.5458 78C71.5458 78.5953 71.3094 79.1663 70.8884 79.5872C70.4675 80.0082 69.8966 80.2446 69.3012 80.2446C68.7059 80.2446 68.135 80.0082 67.7141 79.5872C67.2931 79.1663 67.0566 78.5953 67.0566 78C67.0566 66.2055 71.742 54.8941 80.082 46.5541C88.4219 38.2142 99.7334 33.5288 111.528 33.5288C123.322 33.5288 134.634 38.2142 142.974 46.5541C151.314 54.8941 155.999 66.2055 155.999 78C155.999 78.5953 155.763 79.1663 155.342 79.5872C154.921 80.0082 154.35 80.2446 153.754 80.2446Z" fill="#19B4EE"/>
<path d="M153.755 80.2444H2.2446C1.6493 80.2444 1.07837 80.0079 0.657429 79.587C0.236484 79.166 0 78.5951 0 77.9998V15.1509C0 14.5555 0.236484 13.9846 0.657429 13.5637C1.07837 13.1427 1.6493 12.9062 2.2446 12.9062H153.755C154.351 12.9062 154.922 13.1427 155.343 13.5637C155.764 13.9846 156 14.5555 156 15.1509V77.9998C156 78.5951 155.764 79.166 155.343 79.587C154.922 80.0079 154.351 80.2444 153.755 80.2444ZM4.48921 75.7552H151.511V17.3955H4.48921V75.7552Z" fill="#1CD0C5"/>
<path d="M153.755 156H2.2446C1.6493 156 1.07837 155.763 0.657429 155.342C0.236484 154.921 0 154.35 0 153.755V15.1509C0 14.5555 0.236484 13.9846 0.657429 13.5637C1.07837 13.1427 1.6493 12.9062 2.2446 12.9062H153.755C154.351 12.9062 154.922 13.1427 155.343 13.5637C155.764 13.9846 156 14.5555 156 15.1509V153.755C156 154.35 155.764 154.921 155.343 155.342C154.922 155.763 154.351 156 153.755 156ZM4.48921 151.511H151.511V17.3955H4.48921V151.511Z" fill="#8D67C3"/>
<path d="M21.0434 29.4604C20.4481 29.4604 19.8772 29.2239 19.4563 28.803C19.0353 28.3821 18.7988 27.8111 18.7988 27.2158V2.2446C18.7988 1.6493 19.0353 1.07837 19.4563 0.657429C19.8772 0.236484 20.4481 0 21.0434 0C21.6387 0 22.2097 0.236484 22.6306 0.657429C23.0516 1.07837 23.288 1.6493 23.288 2.2446V27.2158C23.288 27.8111 23.0516 28.3821 22.6306 28.803C22.2097 29.2239 21.6387 29.4604 21.0434 29.4604Z" fill="#4263A8"/>
<path d="M43.8266 29.4604C43.2313 29.4604 42.6604 29.2239 42.2395 28.803C41.8185 28.3821 41.582 27.8111 41.582 27.2158V2.2446C41.582 1.6493 41.8185 1.07837 42.2395 0.657429C42.6604 0.236484 43.2313 0 43.8266 0C44.4219 0 44.9929 0.236484 45.4138 0.657429C45.8348 1.07837 46.0712 1.6493 46.0712 2.2446V27.2158C46.0712 27.8111 45.8348 28.3821 45.4138 28.803C44.9929 29.2239 44.4219 29.4604 43.8266 29.4604Z" fill="#4263A8"/>
<path d="M66.6098 29.4604C66.0145 29.4604 65.4436 29.2239 65.0227 28.803C64.6017 28.3821 64.3652 27.8111 64.3652 27.2158V2.2446C64.3652 1.6493 64.6017 1.07837 65.0227 0.657429C65.4436 0.236484 66.0145 0 66.6098 0C67.2051 0 67.7761 0.236484 68.197 0.657429C68.618 1.07837 68.8544 1.6493 68.8544 2.2446V27.2158C68.8544 27.8111 68.618 28.3821 68.197 28.803C67.7761 29.2239 67.2051 29.4604 66.6098 29.4604Z" fill="#4263A8"/>
<path d="M89.3911 29.4604C88.7958 29.4604 88.2249 29.2239 87.8039 28.803C87.383 28.3821 87.1465 27.8111 87.1465 27.2158V2.2446C87.1465 1.6493 87.383 1.07837 87.8039 0.657429C88.2249 0.236484 88.7958 0 89.3911 0C89.9864 0 90.5573 0.236484 90.9783 0.657429C91.3992 1.07837 91.6357 1.6493 91.6357 2.2446V27.2158C91.6357 27.8111 91.3992 28.3821 90.9783 28.803C90.5573 29.2239 89.9864 29.4604 89.3911 29.4604Z" fill="#4263A8"/>
<path d="M112.174 29.4604C111.579 29.4604 111.008 29.2239 110.587 28.803C110.166 28.3821 109.93 27.8111 109.93 27.2158V2.2446C109.93 1.6493 110.166 1.07837 110.587 0.657429C111.008 0.236484 111.579 0 112.174 0C112.77 0 113.341 0.236484 113.761 0.657429C114.182 1.07837 114.419 1.6493 114.419 2.2446V27.2158C114.419 27.8111 114.182 28.3821 113.761 28.803C113.341 29.2239 112.77 29.4604 112.174 29.4604Z" fill="#4263A8"/>
<path d="M134.957 29.4604C134.362 29.4604 133.791 29.2239 133.37 28.803C132.949 28.3821 132.713 27.8111 132.713 27.2158V2.2446C132.713 1.6493 132.949 1.07837 133.37 0.657429C133.791 0.236484 134.362 0 134.957 0C135.553 0 136.124 0.236484 136.545 0.657429C136.966 1.07837 137.202 1.6493 137.202 2.2446V27.2158C137.202 27.8111 136.966 28.3821 136.545 28.803C136.124 29.2239 135.553 29.4604 134.957 29.4604Z" fill="#4263A8"/>
<path d="M134.956 135.984H97.2466C96.6513 135.984 96.0803 135.747 95.6594 135.326C95.2384 134.905 95.002 134.334 95.002 133.739V96.0298C95.002 95.4345 95.2384 94.8635 95.6594 94.4426C96.0803 94.0216 96.6513 93.7852 97.2466 93.7852H134.956C135.551 93.7852 136.122 94.0216 136.543 94.4426C136.964 94.8635 137.201 95.4345 137.201 96.0298V133.739C137.201 134.334 136.964 134.905 136.543 135.326C136.122 135.747 135.551 135.984 134.956 135.984ZM99.4912 131.495H132.711V98.2744H99.4912V131.495Z" fill="#F376A2"/>
<path d="M78.2808 98.2744H21.0434C20.4481 98.2744 19.8772 98.0379 19.4563 97.6169C19.0353 97.196 18.7988 96.6251 18.7988 96.0298C18.7988 95.4345 19.0353 94.8635 19.4563 94.4426C19.8772 94.0216 20.4481 93.7852 21.0434 93.7852H78.2808C78.8762 93.7852 79.4471 94.0216 79.868 94.4426C80.289 94.8635 80.5255 95.4345 80.5255 96.0298C80.5255 96.6251 80.289 97.196 79.868 97.6169C79.4471 98.0379 78.8762 98.2744 78.2808 98.2744Z" fill="#19B4EE"/>
<path d="M78.0003 117.129H21.0434C20.4481 117.129 19.8772 116.892 19.4563 116.471C19.0353 116.05 18.7988 115.48 18.7988 114.884C18.7988 114.289 19.0353 113.718 19.4563 113.297C19.8772 112.876 20.4481 112.64 21.0434 112.64H78.0003C78.5956 112.64 79.1665 112.876 79.5874 113.297C80.0084 113.718 80.2449 114.289 80.2449 114.884C80.2449 115.48 80.0084 116.05 79.5874 116.471C79.1665 116.892 78.5956 117.129 78.0003 117.129Z" fill="#19B4EE"/>
<path d="M78.2808 135.984H21.0434C20.4481 135.984 19.8772 135.747 19.4563 135.326C19.0353 134.905 18.7988 134.335 18.7988 133.739C18.7988 133.144 19.0353 132.573 19.4563 132.152C19.8772 131.731 20.4481 131.495 21.0434 131.495H78.2808C78.8762 131.495 79.4471 131.731 79.868 132.152C80.289 132.573 80.5255 133.144 80.5255 133.739C80.5255 134.335 80.289 134.905 79.868 135.326C79.4471 135.747 78.8762 135.984 78.2808 135.984Z" fill="#19B4EE"/>
</svg>
