<svg width="154" height="154" viewBox="0 0 154 154" fill="none" xmlns="http://www.w3.org/2000/svg">
<path d="M77.001 122.607C76.4133 122.607 75.8497 122.374 75.4342 121.958C75.0186 121.543 74.7852 120.979 74.7852 120.391V103.59C74.7839 103.118 74.9334 102.658 75.2117 102.277L76.436 100.615V100.582L114.46 50.7922C114.989 50.0852 115.764 49.6023 116.632 49.4389C117.5 49.2755 118.397 49.4434 119.147 49.9096C119.897 50.3758 120.445 51.1063 120.683 51.9569C120.921 52.8074 120.831 53.7162 120.431 54.5037L91.0106 113.916C89.7285 116.535 87.7342 118.74 85.2562 120.277C82.7782 121.814 79.9171 122.622 77.001 122.607ZM79.2168 104.327V117.971C80.8952 117.637 82.4743 116.921 83.8316 115.878C85.189 114.836 86.2882 113.495 87.0442 111.96L112.343 60.9075L79.9924 103.257L79.2168 104.327Z" fill="#4263A8"/>
<path d="M77 154C34.5392 154 0 119.461 0 77C0 34.5392 34.5392 0 77 0C119.461 0 154 34.5392 154 77C154 119.461 119.461 154 77 154ZM77 4.43165C36.9877 4.43165 4.43165 36.9877 4.43165 77C4.43165 117.012 36.9877 149.568 77 149.568C117.012 149.568 149.568 117.012 149.568 77C149.568 36.9877 117.012 4.43165 77 4.43165Z" fill="#8D67C3"/>
<path d="M71.5123 14.7409C71.6172 14.3545 71.7468 13.9752 71.9001 13.6053L72.6867 12.0155H75.2516V12.0986L72.9748 16.5635L75.5729 21.6045V21.6765H72.8363L72.0165 19.8927C71.829 19.4043 71.6718 18.9048 71.5456 18.3971H71.4625C71.3348 18.909 71.1643 19.4093 70.9529 19.8927L70.133 21.6876H67.4297V21.6045L70.0277 16.5524L67.7344 12.0875V12.0044H70.2881L71.0747 13.5943C71.2354 13.9613 71.3651 14.3412 71.4625 14.7299L71.5123 14.7409Z" fill="#F376A2"/>
<path d="M76.1094 21.6872V19.6431H77.0788V14.0592H76.2091V12.0151H80.3527V14.0592H79.4664V19.6431H80.4469V21.6872H76.1094Z" fill="#F376A2"/>
<path d="M81.5234 21.6872V19.6431H82.4873V14.0592H81.6176V12.0151H85.7612V14.0592H84.8804V19.6431H85.8609V21.6872H81.5234Z" fill="#F376A2"/>
<path d="M46.4761 22.629C46.379 22.242 46.3032 21.85 46.249 21.4546L46.1327 19.6875L48.3485 18.4023L48.3928 18.4744L48.6476 23.46L53.4227 26.54L53.456 26.6009L51.0906 27.9692L49.4619 26.8336C49.0539 26.5079 48.6689 26.1543 48.3097 25.7755H48.2765C48.4218 26.2808 48.5219 26.798 48.5756 27.321L48.7695 29.2821L46.4262 30.6392L46.3875 30.5783L46.1216 24.928L41.906 22.2136L41.8672 22.1582L44.083 20.8785L45.5565 21.8646C45.8806 22.0991 46.1828 22.3624 46.4595 22.6512L46.4761 22.629Z" fill="#F376A2"/>
<path d="M22.3729 53.0029C21.6844 52.4597 21.033 51.8712 20.423 51.2413L18.4066 48.9922L19.7028 46.7432L19.797 46.7986L26.3891 54.7811L25.8905 55.6397L15.6645 53.9778L15.5703 53.9224L16.8721 51.6623L19.8524 52.2495C20.7033 52.4597 21.5381 52.73 22.3507 53.0583L22.3729 53.0029Z" fill="#F376A2"/>
<path d="M28.3299 51.1414L26.5572 50.1221L27.0392 49.3023L22.2087 46.5325L21.771 47.2859L20.0039 46.2666L22.0757 42.6548L23.8207 43.6574L23.383 44.4274L28.2135 47.1972L28.7066 46.3497L30.4737 47.369L28.3299 51.1414Z" fill="#F376A2"/>
<path d="M31.0203 46.4547L29.2642 45.4244L29.7462 44.5879L24.9157 41.8181L24.4781 42.5715L22.7109 41.5467L24.7827 37.957L26.5499 38.9819L26.1067 39.7463L30.9427 42.5161L31.4302 41.663L33.2029 42.6878L31.0203 46.4547Z" fill="#F376A2"/>
<path d="M33.7439 41.7627L31.9768 40.7434L32.4588 39.8848L27.6283 37.115L27.1906 37.8684L25.418 36.8491L27.4953 33.2373L29.2624 34.2566L28.8082 35.0487L33.6442 37.8185L34.1317 36.971L35.9044 37.9903L33.7439 41.7627Z" fill="#F376A2"/>
<path d="M18.336 77.6092C17.4683 77.4796 16.6097 77.2946 15.7657 77.0552L12.8906 76.1191V73.521H13.0014L22.7123 77.1383V78.1355L13.0125 81.7916H12.9017V79.1824L15.7767 78.2019C16.62 77.9593 17.4788 77.7742 18.3471 77.648L18.336 77.6092Z" fill="#F376A2"/>
<path d="M22.5627 73.0224H20.4965V72.0529H14.9569V72.9227H12.8906V68.7791H14.9569V69.6654H20.4965V68.6904H22.5406L22.5627 73.0224Z" fill="#F376A2"/>
<path d="M32.5349 107.202L30.7622 108.227L30.2803 107.39L25.4498 110.16L25.8819 110.913L24.1148 111.938L22.043 108.349L23.8212 107.34L24.2643 108.11L29.0948 105.341L28.6074 104.493L30.3745 103.468L32.5349 107.202Z" fill="#F376A2"/>
<path d="M24.3738 101.518C23.56 101.842 22.7253 102.11 21.8755 102.322L18.9174 102.948L17.6211 100.698L17.7153 100.643L27.9192 98.9258L28.4177 99.79L21.8478 107.806L21.7481 107.861L20.4463 105.601L22.4405 103.313C23.0446 102.683 23.6905 102.095 24.3738 101.552V101.518Z" fill="#F376A2"/>
<path d="M130.425 98.0006C131.114 98.5423 131.766 99.1309 132.375 99.7622L134.391 102.011L133.095 104.26L133.001 104.205L126.414 96.2224L126.907 95.3638L137.139 97.0256L137.233 97.081L135.925 99.3412L132.951 98.7706C132.099 98.5606 131.262 98.2922 130.447 97.9674L130.425 98.0006Z" fill="#F376A2"/>
<path d="M124.473 99.8618L126.24 100.881L125.758 101.718L130.589 104.487L131.026 103.734L132.793 104.753L130.733 108.365L128.966 107.346L129.403 106.576L124.573 103.806L124.085 104.654L122.312 103.634L124.473 99.8618Z" fill="#F376A2"/>
<path d="M121.765 104.548L123.532 105.573L123.05 106.41L127.881 109.179L128.319 108.432L130.091 109.451L128.019 113.04L126.247 112.016L126.69 111.251L121.854 108.481L121.366 109.335L119.594 108.31L121.765 104.548Z" fill="#F376A2"/>
<path d="M119.058 109.24L120.831 110.26L120.343 111.096L125.179 113.866L125.612 113.112L127.384 114.137L125.312 117.721L123.54 116.702L123.983 115.938L119.152 113.168L118.659 114.015L116.887 113.007L119.058 109.24Z" fill="#F376A2"/>
<path d="M134.408 73.3826C135.277 73.5069 136.136 73.692 136.979 73.9365L139.848 74.8727V77.4708H139.737L130.043 73.8534V72.8563L139.737 69.2002H139.848V71.8093L136.979 72.7898C136.135 73.0324 135.276 73.2175 134.408 73.3438V73.3826Z" fill="#F376A2"/>
<path d="M130.18 77.9692H132.224V78.9387H137.802V78.0689H139.846V82.207H137.802V81.3262H132.224V82.3067H130.18V77.9692Z" fill="#F376A2"/>
<path d="M120.207 43.8456L121.98 42.8263L122.462 43.6627L127.292 40.893L126.855 40.1174L128.622 39.0981L130.732 42.6878L128.965 43.7071L128.522 42.9426L123.691 45.7124L124.179 46.5599L122.423 47.6069L120.207 43.8456Z" fill="#F376A2"/>
<path d="M128.389 49.5347C129.204 49.2195 130.039 48.9568 130.887 48.7481L133.845 48.1277L135.164 50.3546L135.07 50.41L124.866 52.1217L124.367 51.2631L130.937 43.2417L131.031 43.1919L132.333 45.452L130.339 47.7343C129.731 48.3665 129.079 48.9551 128.389 49.4959V49.5347Z" fill="#F376A2"/>
<path d="M99.5625 26.7395L100.582 24.9724L101.418 25.4544L104.188 20.6239L103.435 20.1862L104.459 18.4136L108.066 20.4965L107.046 22.2691L106.282 21.8259L103.512 26.6565L104.36 27.1495L103.34 28.9221L99.5625 26.7395Z" fill="#F376A2"/>
<path d="M104.25 29.4483L105.253 27.6978L106.089 28.1853L108.859 23.3493L108.106 22.9172L109.125 21.1445L112.714 23.2163L111.69 24.989L110.925 24.5458L108.155 29.3763L109.003 29.8693L108.022 31.6143L104.25 29.4483Z" fill="#F376A2"/>
<path d="M77.4109 43.9453H76.5911C75.5937 43.9453 74.7852 44.7538 74.7852 45.7512V118.585C74.7852 119.583 75.5937 120.391 76.5911 120.391H77.4109C78.4083 120.391 79.2168 119.583 79.2168 118.585V45.7512C79.2168 44.7538 78.4083 43.9453 77.4109 43.9453Z" fill="#1CD0C5"/>
</svg>
