<svg width="156" height="156" viewBox="0 0 156 156" fill="none" xmlns="http://www.w3.org/2000/svg">
<g clip-path="url(#clip0)">
<path d="M153.755 83.0502H66.6079C66.0126 83.0502 65.4417 82.8137 65.0207 82.3928C64.5998 81.9719 64.3633 81.4009 64.3633 80.8056C64.3633 80.2103 64.5998 79.6394 65.0207 79.2185C65.4417 78.7975 66.0126 78.561 66.6079 78.561H153.755C154.35 78.561 154.921 78.7975 155.342 79.2185C155.763 79.6394 155.999 80.2103 155.999 80.8056C155.999 81.4009 155.763 81.9719 155.342 82.3928C154.921 82.8137 154.35 83.0502 153.755 83.0502Z" fill="#1CD0C5"/>
<path d="M153.755 156H2.2446C1.6493 156 1.07837 155.763 0.657429 155.342C0.236484 154.921 0 154.35 0 153.755V15.1509C0 14.5555 0.236484 13.9846 0.657429 13.5637C1.07837 13.1427 1.6493 12.9062 2.2446 12.9062H153.755C154.351 12.9062 154.922 13.1427 155.343 13.5637C155.764 13.9846 156 14.5555 156 15.1509V153.755C156 154.35 155.764 154.921 155.343 155.342C154.922 155.763 154.351 156 153.755 156ZM4.48921 151.511H151.511V17.3955H4.48921V151.511Z" fill="#8D67C3"/>
<path d="M21.0415 29.4604C20.4462 29.4604 19.8752 29.2239 19.4543 28.803C19.0334 28.3821 18.7969 27.8111 18.7969 27.2158V2.2446C18.7969 1.6493 19.0334 1.07837 19.4543 0.657429C19.8752 0.236484 20.4462 0 21.0415 0C21.6368 0 22.2077 0.236484 22.6287 0.657429C23.0496 1.07837 23.2861 1.6493 23.2861 2.2446V27.2158C23.2861 27.8111 23.0496 28.3821 22.6287 28.803C22.2077 29.2239 21.6368 29.4604 21.0415 29.4604Z" fill="#4263A8"/>
<path d="M43.8266 29.4604C43.2313 29.4604 42.6604 29.2239 42.2395 28.803C41.8185 28.3821 41.582 27.8111 41.582 27.2158V2.2446C41.582 1.6493 41.8185 1.07837 42.2395 0.657429C42.6604 0.236484 43.2313 0 43.8266 0C44.4219 0 44.9929 0.236484 45.4138 0.657429C45.8348 1.07837 46.0712 1.6493 46.0712 2.2446V27.2158C46.0712 27.8111 45.8348 28.3821 45.4138 28.803C44.9929 29.2239 44.4219 29.4604 43.8266 29.4604Z" fill="#4263A8"/>
<path d="M66.6079 29.4604C66.0126 29.4604 65.4417 29.2239 65.0207 28.803C64.5998 28.3821 64.3633 27.8111 64.3633 27.2158V2.2446C64.3633 1.6493 64.5998 1.07837 65.0207 0.657429C65.4417 0.236484 66.0126 0 66.6079 0C67.2032 0 67.7741 0.236484 68.1951 0.657429C68.616 1.07837 68.8525 1.6493 68.8525 2.2446V27.2158C68.8525 27.8111 68.616 28.3821 68.1951 28.803C67.7741 29.2239 67.2032 29.4604 66.6079 29.4604Z" fill="#4263A8"/>
<path d="M89.3891 29.4604C88.7938 29.4604 88.2229 29.2239 87.802 28.803C87.381 28.3821 87.1445 27.8111 87.1445 27.2158V2.2446C87.1445 1.6493 87.381 1.07837 87.802 0.657429C88.2229 0.236484 88.7938 0 89.3891 0C89.9844 0 90.5554 0.236484 90.9763 0.657429C91.3973 1.07837 91.6337 1.6493 91.6337 2.2446V27.2158C91.6337 27.8111 91.3973 28.3821 90.9763 28.803C90.5554 29.2239 89.9844 29.4604 89.3891 29.4604Z" fill="#4263A8"/>
<path d="M112.174 29.4604C111.579 29.4604 111.008 29.2239 110.587 28.803C110.166 28.3821 109.93 27.8111 109.93 27.2158V2.2446C109.93 1.6493 110.166 1.07837 110.587 0.657429C111.008 0.236484 111.579 0 112.174 0C112.77 0 113.341 0.236484 113.761 0.657429C114.182 1.07837 114.419 1.6493 114.419 2.2446V27.2158C114.419 27.8111 114.182 28.3821 113.761 28.803C113.341 29.2239 112.77 29.4604 112.174 29.4604Z" fill="#4263A8"/>
<path d="M134.956 29.4604C134.36 29.4604 133.789 29.2239 133.368 28.803C132.947 28.3821 132.711 27.8111 132.711 27.2158V2.2446C132.711 1.6493 132.947 1.07837 133.368 0.657429C133.789 0.236484 134.36 0 134.956 0C135.551 0 136.122 0.236484 136.543 0.657429C136.964 1.07837 137.2 1.6493 137.2 2.2446V27.2158C137.2 27.8111 136.964 28.3821 136.543 28.803C136.122 29.2239 135.551 29.4604 134.956 29.4604Z" fill="#4263A8"/>
<path d="M134.958 135.984H97.2485C96.6532 135.984 96.0823 135.747 95.6613 135.326C95.2404 134.905 95.0039 134.334 95.0039 133.739V96.0298C95.0039 95.4345 95.2404 94.8635 95.6613 94.4426C96.0823 94.0216 96.6532 93.7852 97.2485 93.7852H134.958C135.553 93.7852 136.124 94.0216 136.545 94.4426C136.966 94.8635 137.202 95.4345 137.202 96.0298V133.739C137.202 134.334 136.966 134.905 136.545 135.326C136.124 135.747 135.553 135.984 134.958 135.984ZM99.4931 131.495H132.713V98.2744H99.4931V131.495Z" fill="#F376A2"/>
<path d="M78.2789 98.2744H21.0415C20.4462 98.2744 19.8752 98.0379 19.4543 97.6169C19.0334 97.196 18.7969 96.6251 18.7969 96.0298C18.7969 95.4345 19.0334 94.8635 19.4543 94.4426C19.8752 94.0216 20.4462 93.7852 21.0415 93.7852H78.2789C78.8742 93.7852 79.4451 94.0216 79.8661 94.4426C80.287 94.8635 80.5235 95.4345 80.5235 96.0298C80.5235 96.6251 80.287 97.196 79.8661 97.6169C79.4451 98.0379 78.8742 98.2744 78.2789 98.2744Z" fill="#19B4EE"/>
<path d="M77.9983 117.129H21.0415C20.4462 117.129 19.8752 116.892 19.4543 116.471C19.0334 116.05 18.7969 115.48 18.7969 114.884C18.7969 114.289 19.0334 113.718 19.4543 113.297C19.8752 112.876 20.4462 112.64 21.0415 112.64H77.9983C78.5936 112.64 79.1645 112.876 79.5855 113.297C80.0064 113.718 80.2429 114.289 80.2429 114.884C80.2429 115.48 80.0064 116.05 79.5855 116.471C79.1645 116.892 78.5936 117.129 77.9983 117.129Z" fill="#19B4EE"/>
<path d="M78.2789 135.984H21.0415C20.4462 135.984 19.8752 135.747 19.4543 135.326C19.0334 134.905 18.7969 134.335 18.7969 133.739C18.7969 133.144 19.0334 132.573 19.4543 132.152C19.8752 131.731 20.4462 131.495 21.0415 131.495H78.2789C78.8742 131.495 79.4451 131.731 79.8661 132.152C80.287 132.573 80.5235 133.144 80.5235 133.739C80.5235 134.335 80.287 134.905 79.8661 135.326C79.4451 135.747 78.8742 135.984 78.2789 135.984Z" fill="#19B4EE"/>
<path d="M29.1052 83.0505H21.0415C20.4462 83.0505 19.8752 82.814 19.4543 82.3931C19.0334 81.9721 18.7969 81.4012 18.7969 80.8059V38.54C18.7969 37.9447 19.0334 37.3738 19.4543 36.9528C19.8752 36.5319 20.4462 36.2954 21.0415 36.2954H29.2511C47.1182 36.2954 56.9552 44.4153 56.9552 59.1623C56.9552 73.2248 45.5021 83.0505 29.1052 83.0505ZM23.2861 78.5613H29.1052C42.859 78.5613 52.4659 70.5817 52.4659 59.1623C52.4659 46.9685 44.6547 40.7846 29.2511 40.7846H23.2861V78.5613Z" fill="#1CD0C5"/>
</g>
<defs>
<clipPath id="clip0">
<rect width="156" height="156" fill="white"/>
</clipPath>
</defs>
</svg>
