<svg width="154" height="154" viewBox="0 0 154 154" fill="none" xmlns="http://www.w3.org/2000/svg">
<g clip-path="url(#clip0)">
<path d="M77.0708 103.59C69.1372 103.6 61.5247 100.457 55.9081 94.854C50.2914 89.2508 47.1307 81.646 47.1211 73.7124C47.1116 65.7788 50.254 58.1663 55.8572 52.5497C61.4603 46.933 69.0652 43.7722 76.9988 43.7627C77.5865 43.7627 78.1501 43.9961 78.5656 44.4117C78.9812 44.8272 79.2146 45.3908 79.2146 45.9785V71.4605H104.769C105.356 71.4605 105.92 71.694 106.335 72.1095C106.751 72.5251 106.984 73.0887 106.984 73.6764C106.976 81.6073 103.821 89.2108 98.2132 94.8188C92.6052 100.427 85.0017 103.581 77.0708 103.59ZM74.7829 48.2996C69.956 48.7394 65.3546 50.5468 61.5187 53.5096C57.6827 56.4725 54.7713 60.4679 53.1261 65.0271C51.4809 69.5863 51.1701 74.5201 52.2302 79.2497C53.2903 83.9793 55.6773 88.3085 59.1111 91.7293C62.5449 95.15 66.8832 97.5205 71.6168 98.5626C76.3504 99.6047 81.283 99.2751 85.8359 97.6125C90.3888 95.95 94.3731 93.0234 97.3213 89.1762C100.27 85.329 102.059 80.7208 102.481 75.8922H76.9988C76.4111 75.8922 75.8475 75.6587 75.4319 75.2432C75.0164 74.8276 74.7829 74.264 74.7829 73.6764V48.2996Z" fill="#1CD0C5"/>
<path d="M114.741 65.3668H86.9712C86.6774 65.3668 86.3956 65.2501 86.1878 65.0423C85.98 64.8345 85.8633 64.5527 85.8633 64.2589V36.561C85.8633 36.2672 85.98 35.9854 86.1878 35.7776C86.3956 35.5699 86.6774 35.4531 86.9712 35.4531H87.0432C94.6803 35.4619 102.002 38.4996 107.402 43.8998C112.802 49.3001 115.84 56.6218 115.849 64.2589C115.849 64.5527 115.732 64.8345 115.524 65.0423C115.317 65.2501 115.035 65.3668 114.741 65.3668ZM88.0791 63.151H113.611C113.33 56.4743 110.548 50.1475 105.818 45.4269C101.088 40.7062 94.7563 37.937 88.0791 37.669V63.151Z" fill="#F376A2"/>
<path d="M129.946 154H24.0518C23.4641 154 22.9005 153.767 22.4849 153.351C22.0694 152.935 21.8359 152.372 21.8359 151.784C21.8359 151.197 22.0694 150.633 22.4849 150.217C22.9005 149.802 23.4641 149.568 24.0518 149.568H129.946C130.534 149.568 131.097 149.802 131.513 150.217C131.929 150.633 132.162 151.197 132.162 151.784C132.162 152.372 131.929 152.935 131.513 153.351C131.097 153.767 130.534 154 129.946 154Z" fill="#8D67C3"/>
<path d="M129.946 154H24.0518C23.4641 154 22.9005 153.767 22.4849 153.351C22.0694 152.935 21.8359 152.372 21.8359 151.784C21.8359 151.197 22.0694 150.633 22.4849 150.217C22.9005 149.802 23.4641 149.568 24.0518 149.568H129.946C130.534 149.568 131.097 149.802 131.513 150.217C131.929 150.633 132.162 151.197 132.162 151.784C132.162 152.372 131.929 152.935 131.513 153.351C131.097 153.767 130.534 154 129.946 154Z" fill="#8D67C3"/>
<path d="M151.785 132.163C151.379 132.164 150.98 132.053 150.633 131.842H45.8799C45.2922 131.842 44.7286 131.608 44.3131 131.193C43.8975 130.777 43.6641 130.214 43.6641 129.626C43.6641 129.038 43.8975 128.475 44.3131 128.059C44.7286 127.644 45.2922 127.41 45.8799 127.41H151.785C152.373 127.41 152.937 127.644 153.352 128.059C153.768 128.475 154.001 129.038 154.001 129.626V129.947C154.001 130.535 153.768 131.099 153.352 131.514C152.937 131.93 152.373 132.163 151.785 132.163Z" fill="#8D67C3"/>
<path d="M2.21583 132.163C1.62815 132.163 1.06455 131.93 0.649001 131.514C0.233453 131.099 0 130.535 0 129.947V129.626C0 129.038 0.233453 128.475 0.649001 128.059C1.06455 127.644 1.62815 127.41 2.21583 127.41C2.8035 127.41 3.36711 127.644 3.78265 128.059C4.1982 128.475 4.43165 129.038 4.43165 129.626C4.43165 129.665 4.43165 129.704 4.43165 129.737V129.947C4.43165 130.535 4.1982 131.099 3.78265 131.514C3.36711 131.93 2.8035 132.163 2.21583 132.163Z" fill="#8D67C3"/>
<path d="M151.782 26.5899C151.195 26.5899 150.631 26.3564 150.215 25.9409C149.8 25.5253 149.566 24.9617 149.566 24.374V24.0527C149.566 23.4651 149.8 22.9015 150.215 22.4859C150.631 22.0704 151.195 21.8369 151.782 21.8369C152.37 21.8369 152.934 22.0704 153.349 22.4859C153.765 22.9015 153.998 23.4651 153.998 24.0527V24.374C153.998 24.9617 153.765 25.5253 153.349 25.9409C152.934 26.3564 152.37 26.5899 151.782 26.5899Z" fill="#8D67C3"/>
<path d="M45.8787 26.5898H2.21583C1.62815 26.5898 1.06455 26.3563 0.649002 25.9408C0.233453 25.5252 7.70758e-07 24.9616 7.70758e-07 24.3739V24.0526C-0.000327376 23.6591 0.10413 23.2727 0.302638 22.9329C0.501145 22.5932 0.786542 22.3124 1.12949 22.1195C1.47244 21.9266 1.86058 21.8285 2.25401 21.8353C2.64743 21.8421 3.03196 21.9535 3.36806 22.1581H45.8787C46.4664 22.1581 47.03 22.3916 47.4455 22.8071C47.8611 23.2227 48.0945 23.7863 48.0945 24.3739C48.0945 24.9616 47.8611 25.5252 47.4455 25.9408C47.03 26.3563 46.4664 26.5898 45.8787 26.5898Z" fill="#8D67C3"/>
<path d="M129.946 154C129.359 154 128.795 153.766 128.379 153.351C127.964 152.935 127.73 152.372 127.73 151.784C127.73 151.196 127.964 150.633 128.379 150.217C128.795 149.802 129.359 149.568 129.946 149.568C135.148 149.562 140.136 147.493 143.814 143.815C147.492 140.136 149.562 135.149 149.567 129.947V129.742C149.552 129.451 149.594 129.16 149.692 128.885C149.789 128.61 149.939 128.358 150.134 128.141C150.528 127.704 151.079 127.441 151.667 127.41C152.255 127.379 152.83 127.583 153.268 127.977C153.705 128.37 153.968 128.922 153.999 129.509C153.999 129.653 153.999 129.803 153.999 129.947C153.992 136.324 151.455 142.438 146.946 146.947C142.437 151.456 136.323 153.992 129.946 154Z" fill="#8D67C3"/>
<path d="M24.0517 154C17.6747 153.992 11.5611 151.456 7.05186 146.947C2.54268 142.438 0.00619442 136.324 -0.00113626 129.947C-0.00113626 129.82 -0.00113626 129.687 -0.00113626 129.559C0.090684 124.681 1.65775 119.945 4.49372 115.975C7.32969 112.005 11.3016 108.987 15.8863 107.318C17.6156 106.702 19.1135 105.569 20.1768 104.072C21.2401 102.576 21.8174 100.789 21.8303 98.9531V55.0465C21.8452 52.3005 22.7034 49.6255 24.2887 47.3833C25.8739 45.1411 28.1098 43.4401 30.6936 42.5104C34.4379 41.1481 37.6809 38.6821 39.9943 35.438C42.3076 32.194 43.5826 28.3245 43.6507 24.3406C43.6481 24.3112 43.6481 24.2815 43.6507 24.252V24.0526C43.7391 21.4219 43.2973 18.8003 42.3516 16.3439C41.406 13.8874 39.9757 11.6464 38.146 9.75414C36.3163 7.86189 34.1246 6.35714 31.7013 5.32945C29.278 4.30176 26.6728 3.77215 24.0406 3.77215C21.4084 3.77215 18.8031 4.30176 16.3799 5.32945C13.9566 6.35714 11.7649 7.86189 9.93518 9.75414C8.10548 11.6464 6.67521 13.8874 5.72953 16.3439C4.78385 18.8003 4.34208 21.4219 4.43052 24.0526V24.252C4.44652 24.543 4.40506 24.8343 4.30849 25.1092C4.21192 25.3842 4.06213 25.6375 3.86769 25.8545C3.67325 26.0716 3.43796 26.2483 3.17524 26.3744C2.91253 26.5005 2.62755 26.5737 2.33656 26.5897C2.04557 26.6057 1.75429 26.5642 1.47932 26.4677C1.20436 26.3711 0.951115 26.2213 0.73404 26.0269C0.516965 25.8324 0.340313 25.5971 0.214171 25.3344C0.0880296 25.0717 0.014868 24.7867 -0.00113626 24.4958C-0.00113626 24.3517 -0.00113626 24.1966 -0.00113626 24.0526C-0.0495366 20.8636 0.536774 17.6968 1.72368 14.7365C2.91058 11.7762 4.67438 9.08149 6.91243 6.80921C9.15048 4.53694 11.8181 2.73245 14.76 1.50076C17.702 0.269067 20.8595 -0.365234 24.0489 -0.365234C27.2383 -0.365234 30.3958 0.269067 33.3377 1.50076C36.2797 2.73245 38.9473 4.53694 41.1854 6.80921C43.4234 9.08149 45.1872 11.7762 46.3741 14.7365C47.561 17.6968 48.1473 20.8636 48.0989 24.0526C48.0989 24.18 48.0989 24.3129 48.0989 24.4404C48.0063 29.3183 46.439 34.0539 43.6031 38.024C40.7672 41.994 36.7958 45.0123 32.2114 46.6817C30.4822 47.2977 28.9843 48.4308 27.921 49.9272C26.8577 51.4236 26.2804 53.2108 26.2675 55.0465V98.9531C26.2534 101.699 25.3955 104.375 23.8101 106.617C22.2247 108.859 19.9885 110.56 17.4042 111.489C13.6576 112.85 10.412 115.315 8.09566 118.559C5.77937 121.803 4.50141 125.673 4.43052 129.659C4.43309 129.688 4.43309 129.718 4.43052 129.748V129.947C4.38676 132.551 4.86186 135.138 5.82814 137.556C6.79441 139.975 8.2325 142.177 10.0586 144.034C11.8847 145.891 14.0622 147.366 16.4641 148.373C18.8661 149.379 21.4445 149.898 24.0489 149.898C26.6533 149.898 29.2317 149.379 31.6337 148.373C34.0356 147.366 36.2131 145.891 38.0392 144.034C39.8653 142.177 41.3034 139.975 42.2697 137.556C43.2359 135.138 43.711 132.551 43.6673 129.947V129.748C43.635 129.16 43.8374 128.583 44.2301 128.145C44.6228 127.707 45.1736 127.442 45.7612 127.41C46.3489 127.378 46.9253 127.58 47.3638 127.973C47.8022 128.365 48.0666 128.916 48.0989 129.504C48.0989 129.648 48.0989 129.803 48.0989 129.947C48.0931 136.323 45.5578 142.437 41.0495 146.946C36.5412 151.456 30.4281 153.992 24.0517 154Z" fill="#8D67C3"/>
<path d="M108.12 131.842H108.087C107.796 131.837 107.509 131.776 107.242 131.66C106.974 131.545 106.733 131.378 106.53 131.169C106.327 130.96 106.168 130.714 106.06 130.443C105.953 130.173 105.9 129.884 105.904 129.593C105.988 124.709 107.551 119.966 110.387 115.989C113.222 112.013 117.197 108.989 121.786 107.318C123.516 106.702 125.014 105.569 126.077 104.073C127.14 102.576 127.717 100.789 127.73 98.9533V55.0467C127.744 52.3006 128.602 49.6251 130.188 47.3828C131.773 45.1405 134.009 43.4396 136.594 42.5106C140.34 41.1497 143.586 38.6845 145.902 35.4405C148.218 32.1965 149.496 28.3263 149.567 24.3409C149.565 24.3132 149.565 24.2854 149.567 24.2578V24.0528C149.561 18.8508 147.492 13.8634 143.814 10.185C140.136 6.50662 135.148 4.43752 129.946 4.43165H24.0518C23.4641 4.43165 22.9005 4.1982 22.4849 3.78265C22.0694 3.36711 21.8359 2.8035 21.8359 2.21583C21.8359 1.62815 22.0694 1.06455 22.4849 0.649001C22.9005 0.233453 23.4641 0 24.0518 0L129.946 0C136.323 0.00733068 142.437 2.54381 146.946 7.053C151.455 11.5622 153.992 17.6759 153.999 24.0528C153.999 24.1802 153.999 24.3132 153.999 24.4406C153.907 29.3187 152.34 34.0547 149.504 38.0249C146.668 41.995 142.696 45.0132 138.111 46.6819C136.382 47.298 134.884 48.431 133.821 49.9274C132.758 51.4238 132.18 53.211 132.168 55.0467V98.9533C132.153 101.699 131.294 104.374 129.709 106.616C128.124 108.859 125.888 110.56 123.304 111.489C119.56 112.852 116.317 115.318 114.004 118.562C111.69 121.806 110.415 125.675 110.347 129.659C110.338 130.243 110.1 130.8 109.683 131.208C109.266 131.617 108.704 131.845 108.12 131.842Z" fill="#8D67C3"/>
</g>
<defs>
<clipPath id="clip0">
<rect width="154" height="154" fill="white"/>
</clipPath>
</defs>
</svg>
