<svg width="178" height="158" viewBox="0 0 178 158" fill="none" xmlns="http://www.w3.org/2000/svg">
<g clip-path="url(#clip0)">
<path d="M123.065 158C122.4 158 121.761 157.741 121.283 157.278C115.269 151.428 110.487 144.431 107.223 136.7C103.958 128.968 102.275 120.66 102.275 112.267C102.275 103.874 103.958 95.5654 107.223 87.8342C110.487 80.1029 115.269 73.1055 121.283 67.2559C121.769 66.7831 122.423 66.5229 123.101 66.5325C123.779 66.5421 124.425 66.8207 124.897 67.307C125.37 67.7934 125.63 68.4476 125.62 69.1259C125.61 69.8041 125.332 70.4507 124.846 70.9235C119.32 76.2957 114.927 82.7227 111.928 89.8241C108.928 96.9255 107.382 104.557 107.382 112.267C107.382 119.977 108.928 127.608 111.928 134.71C114.927 141.811 119.32 148.238 124.846 153.61C125.211 153.965 125.462 154.42 125.566 154.918C125.671 155.416 125.625 155.934 125.433 156.406C125.242 156.877 124.914 157.281 124.492 157.565C124.07 157.849 123.573 158 123.065 158Z" fill="#19B4EE"/>
<path d="M20.125 110.289C19.5653 110.29 19.0209 110.106 18.5756 109.767C18.1304 109.427 17.8088 108.951 17.6605 108.411L0.089709 44.4006C0.000579985 44.0767 -0.0238688 43.7384 0.0177611 43.4051C0.059391 43.0717 0.166283 42.7498 0.332322 42.4579C0.498362 42.1659 0.720291 41.9095 0.985416 41.7035C1.25054 41.4974 1.55366 41.3457 1.87743 41.257L151.651 0.0892894C151.974 9.36023e-05 152.312 -0.0243735 152.645 0.0172876C152.978 0.0589487 153.3 0.165921 153.592 0.332085C153.884 0.498249 154.14 0.720344 154.346 0.985668C154.552 1.25099 154.703 1.55434 154.792 1.87835L173.059 68.4124C173.238 69.0665 173.151 69.7652 172.815 70.3548C172.48 70.9443 171.924 71.3764 171.271 71.556C170.617 71.7357 169.919 71.6481 169.33 71.3126C168.741 70.9771 168.309 70.4211 168.13 69.767L150.54 5.69929L5.69551 45.5124L22.5895 107.056C22.6786 107.38 22.7031 107.718 22.6615 108.052C22.6198 108.385 22.5129 108.707 22.3469 108.999C22.1809 109.291 21.9589 109.547 21.6938 109.753C21.4287 109.959 21.1256 110.111 20.8018 110.2C20.5814 110.261 20.3537 110.291 20.125 110.289Z" fill="#8D67C3"/>
<path d="M175.446 158H20.1242C19.4469 158 18.7973 157.731 18.3183 157.252C17.8394 156.772 17.5703 156.122 17.5703 155.444V69.09C17.5703 68.4121 17.8394 67.7621 18.3183 67.2828C18.7973 66.8035 19.4469 66.5342 20.1242 66.5342H175.446C176.123 66.5342 176.773 66.8035 177.252 67.2828C177.73 67.7621 178 68.4121 178 69.09V155.444C178 156.122 177.73 156.772 177.252 157.252C176.773 157.731 176.123 158 175.446 158ZM22.6781 152.889H172.892V71.6458H22.6781V152.889Z" fill="#1CD0C5"/>
<path d="M60.1383 110.718H36.5148C35.8375 110.718 35.1879 110.448 34.709 109.969C34.23 109.49 33.9609 108.84 33.9609 108.162V84.5207C33.9609 83.8428 34.23 83.1927 34.709 82.7134C35.1879 82.2341 35.8375 81.9648 36.5148 81.9648H60.1383C60.8157 81.9648 61.4653 82.2341 61.9442 82.7134C62.4232 83.1927 62.6922 83.8428 62.6922 84.5207V108.162C62.6922 108.84 62.4232 109.49 61.9442 109.969C61.4653 110.448 60.8157 110.718 60.1383 110.718ZM39.0687 105.606H57.5845V87.0765H39.0687V105.606Z" fill="#F376A2"/>
<path d="M88.8697 130.845H36.5148C35.8375 130.845 35.1879 130.575 34.709 130.096C34.23 129.617 33.9609 128.967 33.9609 128.289C33.9609 127.611 34.23 126.961 34.709 126.481C35.1879 126.002 35.8375 125.733 36.5148 125.733H88.8697C89.547 125.733 90.1966 126.002 90.6755 126.481C91.1545 126.961 91.4235 127.611 91.4235 128.289C91.4235 128.967 91.1545 129.617 90.6755 130.096C90.1966 130.575 89.547 130.845 88.8697 130.845Z" fill="#4263A8"/>
<path d="M88.8697 140.966H36.5148C35.8375 140.966 35.1879 140.696 34.709 140.217C34.23 139.738 33.9609 139.088 33.9609 138.41C33.9609 137.732 34.23 137.082 34.709 136.603C35.1879 136.123 35.8375 135.854 36.5148 135.854H88.8697C89.547 135.854 90.1966 136.123 90.6755 136.603C91.1545 137.082 91.4235 137.732 91.4235 138.41C91.4235 139.088 91.1545 139.738 90.6755 140.217C90.1966 140.696 89.547 140.966 88.8697 140.966Z" fill="#4263A8"/>
</g>
<defs>
<clipPath id="clip0">
<rect width="178" height="158" fill="white"/>
</clipPath>
</defs>
</svg>
