<svg width="212" height="159" viewBox="0 0 212 159" fill="none" xmlns="http://www.w3.org/2000/svg">
<g clip-path="url(#clip0)">
<path d="M57.0187 129.816C56.3872 129.816 55.7714 129.62 55.2563 129.255C54.7412 128.89 54.3522 128.375 54.143 127.78C53.9337 127.185 53.9146 126.54 54.0882 125.933C54.2618 125.327 54.6196 124.79 55.1122 124.395L69.06 113.226C69.3707 112.961 69.7316 112.761 70.1212 112.638C70.5107 112.515 70.9211 112.471 71.3279 112.51C71.7347 112.548 72.1296 112.668 72.4892 112.861C72.8488 113.055 73.1657 113.319 73.4212 113.637C73.6767 113.956 73.8656 114.322 73.9765 114.715C74.0875 115.107 74.1183 115.518 74.0672 115.923C74.016 116.328 73.8839 116.718 73.6788 117.071C73.4737 117.424 73.1996 117.732 72.8729 117.977L58.9252 129.146C58.3844 129.579 57.712 129.816 57.0187 129.816Z" fill="#4263A8"/>
<path d="M132.074 130.578C131.265 130.578 130.489 130.257 129.917 129.686C129.345 129.114 129.023 128.34 129.023 127.532V115.601C129.023 114.793 129.345 114.019 129.917 113.448C130.489 112.877 131.265 112.556 132.074 112.556C132.883 112.556 133.659 112.877 134.231 113.448C134.803 114.019 135.124 114.793 135.124 115.601V127.532C135.124 128.34 134.803 129.114 134.231 129.686C133.659 130.257 132.883 130.578 132.074 130.578Z" fill="#4263A8"/>
<path d="M155.569 118.647H70.9675C70.3824 118.647 69.8096 118.479 69.3175 118.163C68.8253 117.847 68.4345 117.396 68.1917 116.865L30.0622 33.2421C29.8502 32.7781 29.7583 32.2684 29.795 31.7597C29.8316 31.2511 29.9956 30.7597 30.2719 30.3308C30.5482 29.9019 30.9279 29.5491 31.3763 29.3048C31.8246 29.0605 32.3272 28.9325 32.838 28.9326H63.9974C64.8064 28.9326 65.5823 29.2535 66.1544 29.8246C66.7264 30.3958 67.0478 31.1704 67.0478 31.9782C67.0478 32.7859 66.7264 33.5605 66.1544 34.1317C65.5823 34.7028 64.8064 35.0237 63.9974 35.0237H37.5813L72.9274 112.556H153.899L203.391 35.0237H121.954C121.145 35.0237 120.369 34.7028 119.797 34.1317C119.225 33.5605 118.904 32.7859 118.904 31.9782C118.904 31.1704 119.225 30.3958 119.797 29.8246C120.369 29.2535 121.145 28.9326 121.954 28.9326H208.951C209.497 28.933 210.034 29.0801 210.504 29.3584C210.974 29.6367 211.361 30.036 211.623 30.5146C211.886 30.9932 212.015 31.5335 211.997 32.0789C211.979 32.6244 211.814 33.1549 211.52 33.6151L158.139 117.253C157.862 117.682 157.481 118.034 157.032 118.277C156.583 118.521 156.08 118.648 155.569 118.647Z" fill="#F376A2"/>
<path d="M3.05036 49.1093C2.24135 49.1093 1.46548 48.7884 0.89343 48.2173C0.321376 47.6461 0 46.8715 0 46.0638V31.9782C0 31.1704 0.321376 30.3958 0.89343 29.8246C1.46548 29.2535 2.24135 28.9326 3.05036 28.9326H32.8371C33.6461 28.9326 34.422 29.2535 34.994 29.8246C35.5661 30.3958 35.8875 31.1704 35.8875 31.9782C35.8875 32.7859 35.5661 33.5605 34.994 34.1317C34.422 34.7028 33.6461 35.0237 32.8371 35.0237H6.10072V46.0638C6.10072 46.8715 5.77934 47.6461 5.20729 48.2173C4.63524 48.7884 3.85937 49.1093 3.05036 49.1093Z" fill="#F376A2"/>
<path d="M57.0182 159C53.5986 159.001 50.2555 157.99 47.4115 156.094C44.5675 154.199 42.3505 151.504 41.0408 148.35C39.7312 145.196 39.3877 141.725 40.0539 138.376C40.7201 135.028 42.366 131.951 44.7835 129.537C47.2009 127.122 50.2813 125.477 53.6351 124.811C56.9888 124.144 60.4652 124.485 63.6246 125.792C66.784 127.098 69.4845 129.31 71.3844 132.149C73.2844 134.988 74.2985 138.325 74.2985 141.739C74.2945 146.314 72.4728 150.701 69.2332 153.937C65.9936 157.173 61.6007 158.994 57.0182 159ZM57.0182 130.577C54.8049 130.576 52.641 131.23 50.8001 132.456C48.9592 133.683 47.5241 135.428 46.6764 137.469C45.8287 139.51 45.6066 141.757 46.038 143.924C46.4694 146.091 47.535 148.082 49.1 149.645C50.6651 151.207 52.6591 152.271 54.8299 152.702C57.0008 153.133 59.2507 152.911 61.2953 152.065C63.3398 151.218 65.0869 149.785 66.3156 147.947C67.5443 146.109 68.1993 143.949 68.1978 141.739C68.1937 138.78 67.0146 135.943 64.9189 133.851C62.8232 131.759 59.982 130.581 57.0182 130.577Z" fill="#8D67C3"/>
<path d="M132.073 159C128.654 159 125.311 157.987 122.468 156.091C119.625 154.194 117.41 151.498 116.101 148.344C114.793 145.19 114.45 141.72 115.117 138.372C115.784 135.024 117.431 131.948 119.849 129.534C122.266 127.12 125.347 125.476 128.7 124.81C132.054 124.144 135.53 124.486 138.689 125.792C141.848 127.099 144.548 129.311 146.447 132.15C148.347 134.988 149.361 138.325 149.361 141.739C149.357 146.316 147.534 150.704 144.293 153.94C141.052 157.176 136.657 158.996 132.073 159ZM132.073 130.577C129.86 130.577 127.697 131.232 125.857 132.46C124.017 133.688 122.583 135.433 121.737 137.474C120.89 139.516 120.669 141.762 121.101 143.929C121.534 146.095 122.6 148.086 124.165 149.647C125.731 151.209 127.725 152.272 129.895 152.703C132.066 153.133 134.315 152.91 136.36 152.064C138.404 151.217 140.15 149.784 141.379 147.947C142.607 146.109 143.262 143.949 143.26 141.739C143.256 138.779 142.076 135.941 139.979 133.848C137.881 131.756 135.038 130.579 132.073 130.577Z" fill="#8D67C3"/>
<path d="M92.9741 63.9563C86.6394 63.9563 80.447 62.0809 75.1799 58.567C69.9128 55.0532 65.8076 50.0589 63.3834 44.2157C60.9592 38.3724 60.3249 31.9427 61.5608 25.7395C62.7966 19.5364 65.847 13.8384 70.3263 9.3662C74.8056 4.89398 80.5126 1.84835 86.7256 0.614466C92.9386 -0.619419 99.3785 0.0138555 105.231 2.43421C111.083 4.85456 116.086 8.95328 119.605 14.2121C123.124 19.4708 125.003 25.6535 125.003 31.9782C125.003 36.1776 124.174 40.3359 122.565 44.2157C120.955 48.0955 118.596 51.6207 115.622 54.5902C112.648 57.5596 109.117 59.9151 105.231 61.5221C101.345 63.1292 97.1802 63.9563 92.9741 63.9563ZM92.9741 6.09109C87.846 6.09109 82.8331 7.60934 78.5692 10.4539C74.3054 13.2984 70.9821 17.3414 69.0197 22.0716C67.0573 26.8019 66.5438 32.0069 67.5442 37.0285C68.5447 42.0501 71.0141 46.6627 74.6402 50.2831C78.2663 53.9035 82.8862 56.369 87.9158 57.3678C92.9453 58.3667 98.1586 57.8541 102.896 55.8947C107.634 53.9354 111.683 50.6174 114.533 46.3603C117.382 42.1032 118.902 37.0982 118.902 31.9782C118.902 25.1125 116.17 18.528 111.308 13.6732C106.446 8.81848 99.8507 6.09109 92.9741 6.09109Z" fill="#1CD0C5"/>
<path d="M149.528 91.7471C149.128 91.7474 148.731 91.6689 148.361 91.516C147.99 91.3632 147.654 91.139 147.37 90.8562L119.665 63.1951C119.093 62.6236 118.771 61.8486 118.771 61.0404C118.771 60.2322 119.093 59.4571 119.665 58.8857C120.238 58.3142 121.014 57.9932 121.824 57.9932C122.633 57.9932 123.409 58.3142 123.982 58.8857L151.687 86.5468C152.114 86.9727 152.405 87.5156 152.522 88.1067C152.64 88.6978 152.58 89.3105 152.349 89.8673C152.118 90.4241 151.726 90.8999 151.224 91.2346C150.722 91.5692 150.132 91.7475 149.528 91.7471Z" fill="#19B4EE"/>
</g>
<defs>
<clipPath id="clip0">
<rect width="212" height="159" fill="white"/>
</clipPath>
</defs>
</svg>
