<svg width="157" height="157" viewBox="0 0 157 157" fill="none" xmlns="http://www.w3.org/2000/svg">
<g clip-path="url(#clip0)">
<path d="M71.9321 157C52.9643 156.831 34.8307 149.173 21.4776 135.693C8.12454 122.212 0.632812 104 0.632812 85.0197C0.632812 66.0394 8.12454 47.8273 21.4776 34.3467C34.8307 20.8662 52.9643 13.2083 71.9321 13.0396C72.535 13.0396 73.1132 13.2792 73.5396 13.7058C73.9659 14.1324 74.2054 14.711 74.2054 15.3143C74.2054 15.9175 73.9659 16.4961 73.5396 16.9227C73.1132 17.3493 72.535 17.589 71.9321 17.589C58.603 17.589 45.5732 21.544 34.4905 28.954C23.4078 36.3639 14.77 46.8959 9.66939 59.2181C4.56881 71.5403 3.23455 85.0993 5.83535 98.1803C8.43615 111.261 14.8552 123.277 24.2807 132.707C33.7062 142.138 45.7149 148.56 58.788 151.161C71.8612 153.762 85.4117 152.426 97.7259 147.321C110.04 142.217 120.565 133.573 127.969 122.482C135.374 111.392 139.325 98.3542 139.324 85.0168C139.324 84.4136 139.564 83.835 139.99 83.4084C140.416 82.9818 140.995 82.7421 141.597 82.7421C142.2 82.7421 142.779 82.9818 143.205 83.4084C143.631 83.835 143.871 84.4136 143.871 85.0168C143.85 104.101 136.264 122.398 122.777 135.893C109.291 149.388 91.005 156.979 71.9321 157Z" fill="#19B4EE"/>
<path d="M71.9322 133.247C59.2402 133.109 47.1149 127.967 38.1887 118.938C29.2625 109.908 24.2559 97.7205 24.2559 85.02C24.2559 72.3195 29.2625 60.1316 38.1887 51.1023C47.1149 42.0731 59.2402 36.9314 71.9322 36.7935C72.5351 36.7935 73.1133 37.0331 73.5397 37.4597C73.966 37.8863 74.2055 38.4649 74.2055 39.0682C74.2055 39.6714 73.966 40.25 73.5397 40.6766C73.1133 41.1032 72.5351 41.3429 71.9322 41.3429C63.2982 41.3429 54.8581 43.9048 47.6792 48.7047C40.5004 53.5045 34.9053 60.3268 31.6014 68.3086C28.2976 76.2904 27.4335 85.0732 29.1183 93.5465C30.8031 102.02 34.9612 109.803 41.0668 115.911C47.1724 122.02 54.9511 126.179 63.4194 127.864C71.8876 129.549 80.665 128.683 88.6415 125.376C96.6179 122.069 103.435 116.47 108.231 109.286C113.027 102.102 115.586 93.6565 115.585 85.0172C115.585 84.4139 115.825 83.8353 116.251 83.4087C116.677 82.9821 117.256 82.7425 117.859 82.7425C118.462 82.7425 119.04 82.9821 119.466 83.4087C119.892 83.8353 120.132 84.4139 120.132 85.0172C120.118 97.8042 115.036 110.064 106 119.106C96.9633 128.147 84.7114 133.233 71.9322 133.247Z" fill="#1CD0C5"/>
<path d="M71.9342 109.97C65.3202 109.97 58.9771 107.341 54.3003 102.662C49.6235 97.9821 46.9961 91.6351 46.9961 85.017C46.9961 78.3989 49.6235 72.0519 54.3003 67.3722C58.9771 62.6925 65.3202 60.0635 71.9342 60.0635C72.5371 60.0635 73.1154 60.3031 73.5417 60.7297C73.968 61.1563 74.2075 61.7349 74.2075 62.3382C74.2075 62.9415 73.968 63.52 73.5417 63.9466C73.1154 64.3732 72.5371 64.6129 71.9342 64.6129C67.9014 64.614 63.9595 65.8116 60.6068 68.0544C57.2542 70.2971 54.6415 73.4841 53.099 77.2126C51.5564 80.9411 51.1534 85.0435 51.9409 89.0011C52.7283 92.9587 54.6709 96.5939 57.5229 99.4469C60.375 102.3 64.0084 104.243 67.9638 105.029C71.9192 105.816 76.019 105.412 79.7447 103.867C83.4705 102.323 86.6548 99.7076 88.8952 96.3523C91.1356 92.997 92.3314 89.0523 92.3314 85.017C92.3314 84.4137 92.571 83.8351 92.9973 83.4085C93.4236 82.9819 94.0018 82.7423 94.6048 82.7423C95.2077 82.7423 95.7859 82.9819 96.2122 83.4085C96.6385 83.8351 96.8781 84.4137 96.8781 85.017C96.8705 91.6337 94.2399 97.9772 89.5635 102.655C84.8871 107.334 78.5469 109.964 71.9342 109.97Z" fill="#F376A2"/>
<path d="M71.9335 87.394C71.4841 87.3932 71.045 87.2592 70.6717 87.0088C70.2984 86.7585 70.0076 86.403 69.8361 85.9874C69.6646 85.5718 69.6201 85.1146 69.7081 84.6736C69.7962 84.2327 70.0129 83.8277 70.3308 83.5099L127.249 26.5514C127.46 26.34 127.711 26.1724 127.987 26.058C128.262 25.9436 128.558 25.8848 128.857 25.8848C129.156 25.8848 129.451 25.9436 129.727 26.058C130.003 26.1724 130.254 26.34 130.465 26.5514C130.677 26.7627 130.844 27.0136 130.958 27.2898C131.073 27.5659 131.132 27.8618 131.132 28.1607C131.132 28.4596 131.073 28.7556 130.958 29.0317C130.844 29.3078 130.677 29.5587 130.465 29.7701L73.5418 86.7286C73.3306 86.9398 73.0798 87.1073 72.8038 87.2214C72.5278 87.3356 72.2321 87.3942 71.9335 87.394Z" fill="#8D67C3"/>
<path d="M121.89 67.2798C121.774 67.2882 121.658 67.2882 121.543 67.2798L95.6727 63.299C95.2577 63.235 94.8686 63.0571 94.5484 62.7852C94.2283 62.5134 93.9896 62.1581 93.859 61.7588C93.7283 61.3595 93.7107 60.9318 93.8082 60.5231C93.9056 60.1144 94.1143 59.7407 94.411 59.4434L127.249 26.5512C127.502 26.2988 127.811 26.1096 128.15 25.999C128.49 25.8883 128.851 25.8593 129.204 25.9143L155.074 29.895C155.489 29.9591 155.878 30.1369 156.198 30.4088C156.519 30.6807 156.757 31.036 156.888 31.4353C157.018 31.8346 157.036 32.2623 156.939 32.671C156.841 33.0797 156.632 33.4534 156.336 33.7507L123.498 66.6087C123.287 66.8209 123.037 66.9894 122.761 67.1046C122.485 67.2197 122.189 67.2793 121.89 67.2798ZM100.799 59.4548L121.094 62.5541L149.948 33.6881L129.653 30.5604L100.799 59.4548Z" fill="#8D67C3"/>
<path d="M96.0462 63.2936C95.8053 63.2943 95.5657 63.2579 95.3358 63.1855C94.936 63.0545 94.5803 62.8151 94.3083 62.4938C94.0364 62.1725 93.8589 61.782 93.7957 61.3658L89.8174 35.4796C89.7641 35.1327 89.7918 34.7781 89.8983 34.4437C90.0048 34.1093 90.1872 33.804 90.4312 33.5518L123.269 0.665318C123.566 0.36839 123.94 0.159599 124.348 0.0620962C124.756 -0.0354064 125.184 -0.0178097 125.583 0.112935C125.982 0.243679 126.337 0.482463 126.609 0.802805C126.881 1.12315 127.058 1.51253 127.122 1.92778L131.101 27.8139C131.156 28.1671 131.127 28.5283 131.016 28.8681C130.905 29.208 130.716 29.517 130.464 29.7701L97.6262 62.6282C97.2065 63.0478 96.6395 63.2866 96.0462 63.2936ZM94.489 35.9289L97.6091 56.2363L126.463 27.3703L123.326 7.05723L94.489 35.9289Z" fill="#8D67C3"/>
</g>
<defs>
<clipPath id="clip0">
<rect width="157" height="157" fill="white"/>
</clipPath>
</defs>
</svg>
