<svg width="154" height="154" viewBox="0 0 154 154" fill="none" xmlns="http://www.w3.org/2000/svg">
<path d="M76.9986 93.5855C76.1003 93.5875 75.232 93.2626 74.5556 92.6715L38.9583 61.6056C38.4279 61.143 38.0638 60.5192 37.9217 59.8298C37.7796 59.1405 37.8675 58.4235 38.1717 57.7889C39.1298 55.7947 40.2411 53.8778 41.4955 52.0554C41.7564 51.6864 42.0921 51.3765 42.4807 51.1459C42.8694 50.9152 43.3022 50.769 43.7511 50.7168C44.2 50.6645 44.6549 50.7074 45.0861 50.8426C45.5173 50.9778 45.9152 51.2023 46.254 51.5014L76.8102 78.108C76.8626 78.1532 76.9294 78.1781 76.9986 78.1781C77.0677 78.1781 77.1346 78.1532 77.1869 78.108L107.727 51.4571C108.065 51.158 108.463 50.9335 108.894 50.7983C109.326 50.6631 109.781 50.6202 110.229 50.6725C110.678 50.7247 111.111 50.8709 111.5 51.1016C111.888 51.3322 112.224 51.6421 112.485 52.0111C113.739 53.8335 114.851 55.7504 115.809 57.7445C116.113 58.3792 116.201 59.0961 116.059 59.7855C115.917 60.4749 115.553 61.0986 115.022 61.5613L79.4249 92.6272C78.7598 93.2315 77.8971 93.5722 76.9986 93.5855ZM42.5757 58.8801L76.9986 88.9212L111.421 58.8801C110.867 57.8055 110.258 56.7474 109.599 55.7171L80.1007 81.4594C79.2401 82.2069 78.1385 82.6185 76.9986 82.6185C75.8586 82.6185 74.757 82.2069 73.8964 81.4594L44.3982 55.7171C43.7612 56.7474 43.1296 57.8055 42.5757 58.8801Z" fill="#1CD0C5"/>
<path d="M77.0009 144.582C73.1503 144.584 69.3066 144.256 65.5119 143.602C65.2477 143.562 65.0069 143.428 64.8338 143.224C64.6608 143.021 64.5671 142.761 64.5701 142.494C64.569 142.4 64.5821 142.307 64.6089 142.217L65.9218 134.816C63.3548 134.323 60.8232 133.66 58.3437 132.833L55.729 140.034C55.6769 140.171 55.5982 140.297 55.4974 140.403C55.3966 140.509 55.2757 140.594 55.1418 140.653C55.0078 140.713 54.8635 140.745 54.717 140.748C54.5706 140.751 54.425 140.725 54.2887 140.672C50.6463 139.378 47.1244 137.767 43.7635 135.858C43.6366 135.785 43.5252 135.688 43.4358 135.573C43.3464 135.457 43.2808 135.325 43.2427 135.184C43.2046 135.043 43.1948 134.896 43.2138 134.751C43.2328 134.606 43.2803 134.466 43.3536 134.34L47.1593 127.753C44.8963 126.424 42.7254 124.943 40.6614 123.322L35.7533 129.166C35.5665 129.39 35.2989 129.531 35.0085 129.559C34.7181 129.587 34.4284 129.5 34.2022 129.315C31.2069 126.857 28.427 124.148 25.8929 121.217C25.7967 121.105 25.7237 120.976 25.678 120.836C25.6324 120.696 25.615 120.549 25.627 120.402C25.6425 120.257 25.6867 120.116 25.7571 119.987C25.8275 119.859 25.9226 119.746 26.0369 119.654L31.8645 114.763C30.1657 112.738 28.6056 110.6 27.1947 108.365L20.5527 112.176C20.3015 112.321 20.0036 112.361 19.723 112.288C19.4423 112.216 19.2013 112.036 19.0515 111.788C17.0377 108.435 15.3195 104.914 13.9163 101.263C13.8636 101.125 13.8388 100.978 13.8436 100.831C13.8483 100.684 13.8825 100.538 13.944 100.404C14.0053 100.27 14.0927 100.15 14.2012 100.05C14.3096 99.9501 14.4369 99.8728 14.5755 99.8228L21.716 97.2247C20.8045 94.7186 20.0641 92.1534 19.5002 89.5469L11.9775 90.8708C11.6921 90.9213 11.3983 90.8579 11.1591 90.6943C10.9199 90.5307 10.7543 90.2799 10.6978 89.9956C9.93472 86.1511 9.50657 82.2477 9.41821 78.3292C9.41516 78.182 9.44152 78.0356 9.49574 77.8986C9.54995 77.7616 9.63094 77.6368 9.73396 77.5315C9.83722 77.4262 9.96048 77.3425 10.0965 77.2855C10.2325 77.2284 10.3786 77.199 10.5261 77.1992H18.143C18.143 77.1327 18.143 77.0662 18.143 76.9997C18.1432 74.3728 18.3172 71.7487 18.6637 69.1446L11.1299 67.8151C10.8439 67.7649 10.5891 67.6045 10.4202 67.3682C10.2513 67.132 10.182 66.839 10.227 66.5521C10.8313 62.6439 11.7823 58.7971 13.0688 55.0575C13.1166 54.9187 13.1916 54.7907 13.2893 54.6811C13.387 54.5714 13.5056 54.4823 13.638 54.4189C13.7705 54.3555 13.9143 54.3191 14.0609 54.3117C14.2076 54.3044 14.3543 54.3263 14.4925 54.3761L21.6385 56.9742C22.5613 54.4174 23.6608 51.9278 24.929 49.5235L18.3148 45.7012C18.0619 45.556 17.8764 45.3169 17.7987 45.0359C17.7209 44.7549 17.757 44.4545 17.8993 44.2C19.8299 40.7236 22.0656 37.4257 24.58 34.3451C24.6725 34.2311 24.7868 34.1367 24.9161 34.0673C25.0454 33.9978 25.1873 33.9548 25.3334 33.9407C25.4801 33.9265 25.6282 33.9417 25.769 33.9854C25.9098 34.0292 26.0404 34.1006 26.1532 34.1955L31.9753 39.0814C33.7338 36.9863 35.6367 35.0168 37.67 33.1873L32.7841 27.332C32.5965 27.1093 32.5042 26.8217 32.527 26.5314C32.5498 26.2412 32.6859 25.9716 32.906 25.7809C35.9434 23.171 39.2061 20.8353 42.6556 18.801C42.782 18.7267 42.9218 18.6782 43.0671 18.6582C43.2123 18.6383 43.3601 18.6475 43.5018 18.6851C43.6435 18.7227 43.7763 18.788 43.8925 18.8774C44.0088 18.9667 44.1062 19.0782 44.179 19.2054L47.9847 25.792C50.3704 24.4338 52.8469 23.2418 55.3966 22.2245L52.7986 15.0563C52.6982 14.7815 52.7106 14.4782 52.8331 14.2125C52.9556 13.9468 53.1781 13.7404 53.4522 13.6382C57.2101 12.237 61.087 11.1784 65.0355 10.4751C65.1788 10.4495 65.3257 10.4525 65.4679 10.4838C65.6101 10.5151 65.7447 10.5741 65.864 10.6574C65.9834 10.7408 66.0851 10.8468 66.1635 10.9695C66.2418 11.0922 66.2953 11.2291 66.3207 11.3725L67.6502 18.8786C70.3778 18.4466 73.1319 18.2023 75.893 18.1474V10.5249C75.893 10.2311 76.0098 9.94929 76.2175 9.74151C76.4253 9.53374 76.7071 9.41701 77.0009 9.41701C81.0129 9.41384 85.0172 9.76792 88.9664 10.4751C89.2537 10.5277 89.5087 10.6917 89.6757 10.9314C89.8427 11.171 89.9083 11.4669 89.8583 11.7547L88.5343 19.2719C91.2437 19.8061 93.9114 20.5337 96.5168 21.449L99.1204 14.2974C99.2163 14.0244 99.4151 13.7997 99.6744 13.6714C99.8073 13.6097 99.9512 13.575 100.098 13.5693C100.244 13.5636 100.39 13.587 100.527 13.6382C104.294 15.0353 107.925 16.7746 111.374 18.8343C111.625 18.9832 111.806 19.2249 111.88 19.5069C111.954 19.789 111.913 20.0887 111.767 20.341L107.951 26.922C110.287 28.3682 112.52 29.9768 114.631 31.7359L119.517 25.9083C119.612 25.7951 119.728 25.702 119.86 25.6345C119.991 25.5669 120.134 25.5263 120.282 25.515C120.427 25.5038 120.574 25.5215 120.713 25.5672C120.851 25.6128 120.98 25.6854 121.09 25.7809C124.109 28.3853 126.89 31.2532 129.4 34.3506C129.584 34.5768 129.672 34.8665 129.644 35.1569C129.616 35.4473 129.474 35.7149 129.25 35.9017L123.395 40.8097C125.074 42.96 126.603 45.2237 127.971 47.5846L134.579 43.7623C134.707 43.6896 134.847 43.6428 134.992 43.6248C135.138 43.6067 135.286 43.6177 135.427 43.6571C135.571 43.6988 135.705 43.7694 135.822 43.8646C135.938 43.9598 136.033 44.0777 136.103 44.211C138.034 47.6794 139.652 51.313 140.939 55.0686C141.033 55.3434 141.016 55.6444 140.89 55.9065C140.765 56.1687 140.542 56.3711 140.268 56.4701L133.067 59.0848C133.888 61.6633 134.53 64.2953 134.989 66.962L142.473 65.6436C142.618 65.6175 142.767 65.6207 142.912 65.653C143.056 65.6853 143.192 65.7461 143.312 65.8317C143.432 65.9174 143.534 66.0262 143.612 66.1518C143.689 66.2775 143.741 66.4173 143.764 66.5632C144.305 70.0159 144.579 73.505 144.584 76.9997C144.584 77.4429 144.584 77.8861 144.584 78.3237C144.584 78.6175 144.467 78.8993 144.259 79.1071C144.051 79.3149 143.77 79.4316 143.476 79.4316H135.809C135.701 82.1107 135.412 84.7794 134.945 87.4197L142.423 88.7326C142.568 88.7584 142.707 88.8128 142.83 88.8927C142.954 88.9726 143.06 89.0764 143.143 89.1979C143.227 89.3186 143.286 89.4547 143.316 89.5983C143.346 89.7419 143.348 89.8901 143.321 90.0343C142.578 93.881 141.494 97.6537 140.08 101.307C139.976 101.577 139.77 101.795 139.507 101.915C139.244 102.035 138.945 102.048 138.673 101.95L131.472 99.3353C130.465 101.786 129.293 104.166 127.965 106.459L134.557 110.237C134.684 110.311 134.795 110.409 134.883 110.526C134.971 110.643 135.036 110.777 135.072 110.919C135.109 111.061 135.117 111.209 135.096 111.355C135.076 111.5 135.026 111.64 134.95 111.766C132.947 115.097 130.658 118.248 128.109 121.183C127.919 121.402 127.65 121.537 127.361 121.56C127.072 121.582 126.786 121.491 126.563 121.305L120.708 116.392C118.944 118.348 117.051 120.184 115.041 121.887L119.927 127.709C120.021 127.821 120.092 127.951 120.136 128.091C120.18 128.23 120.195 128.377 120.182 128.523C120.169 128.67 120.127 128.813 120.059 128.943C119.99 129.073 119.897 129.189 119.783 129.282C116.797 131.747 113.604 133.949 110.238 135.863C109.984 136.005 109.683 136.042 109.402 135.964C109.121 135.886 108.882 135.701 108.737 135.448L104.915 128.839C102.612 130.084 100.226 131.171 97.7743 132.091L100.383 139.253C100.435 139.39 100.458 139.535 100.451 139.681C100.445 139.827 100.408 139.97 100.345 140.101C100.216 140.36 99.9917 140.559 99.7187 140.655C96.0882 141.953 92.3515 142.931 88.5509 143.58C88.4864 143.585 88.4216 143.585 88.3571 143.58H88.3294C88.218 143.581 88.1073 143.562 88.0025 143.524C87.8108 143.463 87.6394 143.351 87.5066 143.2C87.3739 143.048 87.2849 142.864 87.2491 142.666L85.9307 135.16C83.3414 135.562 80.7285 135.793 78.1089 135.852V143.475C78.1089 143.768 77.9921 144.05 77.7844 144.258C77.5766 144.466 77.2948 144.582 77.0009 144.582ZM66.9688 141.597C69.9224 142.057 72.9042 142.315 75.893 142.367V134.75C75.893 134.456 76.0098 134.174 76.2175 133.966C76.4253 133.759 76.7071 133.642 77.0009 133.642C80.2236 133.645 83.4407 133.374 86.6176 132.833C86.9062 132.783 87.2029 132.849 87.4427 133.018C87.6825 133.186 87.8459 133.442 87.8973 133.73L89.2157 141.22C92.1585 140.668 95.0591 139.911 97.8962 138.954L95.2926 131.808C95.2431 131.671 95.221 131.526 95.2276 131.381C95.2343 131.235 95.2695 131.092 95.3314 130.961C95.461 130.7 95.6878 130.501 95.9629 130.407C99.0082 129.331 101.953 127.991 104.765 126.402C105.02 126.257 105.321 126.219 105.603 126.296C105.885 126.373 106.126 126.558 106.272 126.812L110.078 133.409C112.67 131.89 115.152 130.19 117.506 128.324L112.631 122.513C112.537 122.401 112.466 122.271 112.423 122.131C112.379 121.991 112.363 121.844 112.377 121.699C112.39 121.553 112.432 121.411 112.501 121.282C112.569 121.153 112.663 121.038 112.775 120.945C115.29 118.893 117.625 116.63 119.755 114.181C119.945 113.96 120.214 113.823 120.505 113.799C120.795 113.776 121.083 113.867 121.306 114.054L127.145 118.956C129.085 116.639 130.862 114.19 132.463 111.628L125.899 107.844C125.77 107.77 125.658 107.671 125.569 107.553C125.479 107.435 125.414 107.301 125.378 107.157C125.341 107.015 125.333 106.867 125.354 106.721C125.375 106.576 125.424 106.436 125.5 106.31C127.194 103.504 128.638 100.555 129.815 97.4961C129.921 97.2264 130.128 97.0087 130.392 96.8896C130.656 96.7705 130.956 96.7596 131.228 96.8591L138.396 99.4627C139.446 96.6036 140.29 93.6731 140.922 90.6936L133.455 89.3807C133.31 89.3549 133.171 89.3004 133.048 89.2205C132.924 89.1406 132.818 89.0369 132.735 88.9154C132.651 88.7935 132.593 88.6563 132.564 88.5117C132.534 88.3671 132.534 88.2181 132.563 88.0733C133.198 84.8435 133.554 81.5648 133.626 78.2738C133.626 77.98 133.743 77.6982 133.951 77.4904C134.159 77.2827 134.44 77.1659 134.734 77.1659H142.368V76.9997C142.369 73.9923 142.164 70.9883 141.753 68.009L134.286 69.3274C134.141 69.3532 133.992 69.3498 133.848 69.3175C133.705 69.2851 133.569 69.2245 133.449 69.1391C133.328 69.0537 133.226 68.945 133.148 68.8194C133.07 68.6938 133.018 68.5539 132.995 68.4079C132.499 65.1263 131.713 61.8952 130.646 58.7524C130.553 58.4783 130.572 58.1787 130.697 57.9179C130.822 57.657 131.045 57.4555 131.316 57.3564L138.49 54.7528C137.435 51.8375 136.172 49.0013 134.712 46.2662L128.142 50.0608C128.014 50.1343 127.873 50.1815 127.726 50.1996C127.58 50.2176 127.431 50.2062 127.289 50.1661C127.146 50.1237 127.013 50.0528 126.897 49.9576C126.782 49.8624 126.687 49.7449 126.619 49.6121C125.002 46.6832 123.13 43.9027 121.024 41.3028C120.84 41.0766 120.752 40.7869 120.78 40.4965C120.808 40.2061 120.949 39.9385 121.173 39.7517L127.007 34.899C124.998 32.51 122.821 30.2681 120.492 28.1906L115.617 34.0072C115.522 34.1193 115.405 34.2114 115.274 34.278C115.143 34.3445 115 34.3843 114.853 34.3949C114.706 34.4069 114.559 34.3895 114.419 34.3439C114.279 34.2982 114.15 34.2252 114.038 34.129C111.5 31.9315 108.772 29.9646 105.884 28.2515C105.634 28.1026 105.452 27.861 105.378 27.5789C105.305 27.2969 105.345 26.9972 105.491 26.7448L109.297 20.1472C106.574 18.5952 103.741 17.2454 100.821 16.1088L98.2175 23.2659C98.1217 23.5389 97.9228 23.7636 97.6635 23.8919C97.3943 24.0135 97.0883 24.0254 96.8104 23.9251C93.655 22.7452 90.3992 21.8534 87.083 21.2606C86.9343 21.2381 86.7917 21.1856 86.6639 21.1062C86.5362 21.0269 86.426 20.9223 86.3399 20.799C86.2539 20.6756 86.1939 20.536 86.1635 20.3887C86.1332 20.2414 86.1331 20.0895 86.1634 19.9422L87.4873 12.4472C84.3849 11.9498 81.2506 11.6777 78.1089 11.6328V19.2497C78.1089 19.5436 77.9921 19.8254 77.7844 20.0332C77.5766 20.2409 77.2948 20.3577 77.0009 20.3577C73.6282 20.3588 70.2621 20.6554 66.9411 21.244C66.6533 21.2961 66.3566 21.2324 66.1157 21.0667C65.9952 20.9831 65.8925 20.8764 65.8136 20.7528C65.7347 20.6291 65.6811 20.4911 65.6559 20.3466L64.3375 12.8571C61.2564 13.462 58.2237 14.2915 55.2637 15.3388L57.8673 22.4904C57.9676 22.7652 57.9552 23.0685 57.8327 23.3342C57.7103 23.5999 57.4877 23.8063 57.2136 23.9085C54.0581 25.082 51.014 26.5355 48.1176 28.2515C47.9911 28.3261 47.851 28.3748 47.7055 28.3948C47.56 28.4148 47.412 28.4056 47.2701 28.3679C47.1291 28.3307 46.9968 28.2661 46.8808 28.1777C46.7648 28.0893 46.6675 27.9788 46.5942 27.8527L42.7941 21.2883C40.1309 22.926 37.5891 24.7532 35.1883 26.7559L40.0853 32.5946C40.2705 32.8176 40.3609 33.1044 40.337 33.3933C40.3132 33.6823 40.1771 33.9504 39.9578 34.1401C37.4253 36.3302 35.0914 38.7401 32.9835 41.3415C32.8912 41.4562 32.777 41.5512 32.6475 41.6212C32.518 41.6912 32.3759 41.7346 32.2294 41.7491C32.083 41.7635 31.9351 41.7486 31.7945 41.7053C31.6538 41.662 31.5232 41.591 31.4103 41.4967L25.5937 36.6218C23.6725 39.0585 21.9286 41.6299 20.3755 44.3163L26.9731 48.1331C27.223 48.2782 27.4064 48.5152 27.484 48.7936C27.5616 49.072 27.5274 49.3697 27.3886 49.6232C25.7804 52.5389 24.4309 55.5899 23.3558 58.7413C23.3102 58.8796 23.2378 59.0075 23.1427 59.1177C23.0477 59.228 22.9318 59.3185 22.8018 59.3839C22.6689 59.4481 22.5244 59.4851 22.377 59.4928C22.2295 59.5004 22.082 59.4784 21.9432 59.4282L14.8137 56.8357C13.8627 59.7706 13.1223 62.7696 12.5979 65.8098L20.1096 67.1338C20.3956 67.184 20.6504 67.3445 20.8193 67.5807C20.9882 67.8169 21.0575 68.1099 21.0125 68.3968C20.5769 71.2438 20.3566 74.1196 20.3533 76.9997C20.3533 77.4263 20.3533 77.8528 20.3533 78.2738C20.3578 78.4221 20.3324 78.5698 20.2787 78.708C20.225 78.8463 20.1441 78.9724 20.0408 79.0788C19.9375 79.1853 19.8138 79.2699 19.6772 79.3276C19.5406 79.3853 19.3937 79.4151 19.2454 79.415H11.6783C11.7911 82.4715 12.1169 85.5164 12.6533 88.5276L20.1594 87.2092C20.444 87.1585 20.7371 87.2212 20.9762 87.3837C21.2153 87.5461 21.3814 87.7956 21.4391 88.0789C22.0743 91.2925 22.9919 94.4438 24.1812 97.4961C24.2383 97.6321 24.2677 97.778 24.2677 97.9255C24.2677 98.0729 24.2383 98.2189 24.1812 98.3548C24.1205 98.4899 24.0333 98.6115 23.9249 98.7123C23.8164 98.8132 23.6888 98.8913 23.5496 98.942L16.3981 101.546C17.5403 104.348 18.8768 107.067 20.3976 109.683L26.9953 105.878C27.2465 105.733 27.5444 105.693 27.825 105.765C28.1056 105.838 28.3467 106.017 28.4965 106.265C30.1862 109.046 32.1099 111.678 34.2466 114.131C34.3427 114.243 34.4157 114.372 34.4614 114.512C34.507 114.652 34.5244 114.799 34.5125 114.946C34.5018 115.093 34.4621 115.236 34.3955 115.367C34.3289 115.498 34.2369 115.615 34.1247 115.71L28.3081 120.591C30.3203 122.83 32.482 124.931 34.7784 126.878L39.6753 121.045C39.8627 120.823 40.1296 120.684 40.4187 120.657C40.7077 120.63 40.9957 120.718 41.2209 120.901C43.7295 122.946 46.4095 124.772 49.2311 126.357C49.3585 126.429 49.4704 126.526 49.5604 126.641C49.6503 126.756 49.7165 126.889 49.7551 127.03C49.7938 127.171 49.804 127.318 49.7854 127.463C49.7668 127.608 49.7196 127.748 49.6466 127.875L45.8519 134.451C48.4816 135.887 51.2103 137.135 54.0173 138.184L56.6264 131.027C56.7276 130.753 56.9327 130.531 57.1972 130.407C57.4617 130.284 57.7642 130.27 58.039 130.368C61.0766 131.447 64.2013 132.262 67.3787 132.805C67.5228 132.83 67.6606 132.883 67.7842 132.961C67.9078 133.038 68.0147 133.14 68.0989 133.26C68.1826 133.379 68.2418 133.514 68.2732 133.657C68.3046 133.799 68.3074 133.947 68.2817 134.091L66.9688 141.597Z" fill="#F376A2"/>
<path d="M77 154C34.5392 154 0 119.461 0 77C0 34.5392 34.5392 0 77 0C119.461 0 154 34.5392 154 77C154 119.461 119.461 154 77 154ZM77 4.43165C36.9877 4.43165 4.43165 36.9877 4.43165 77C4.43165 117.012 36.9877 149.568 77 149.568C117.012 149.568 149.568 117.012 149.568 77C149.568 36.9877 117.012 4.43165 77 4.43165Z" fill="#8D67C3"/>
<path d="M76.9984 128.147C66.8825 128.147 56.9938 125.147 48.5828 119.527C40.1717 113.907 33.6161 105.919 29.7449 96.5729C25.8737 87.2271 24.8608 76.9431 26.8344 67.0216C28.8079 57.1001 33.6791 47.9866 40.8321 40.8336C47.9852 33.6806 57.0987 28.8093 67.0202 26.8358C76.9417 24.8623 87.2256 25.8752 96.5715 29.7464C105.917 33.6176 113.905 40.1732 119.525 48.5842C125.146 56.9953 128.145 66.884 128.145 76.9999C128.129 90.5599 122.735 103.56 113.147 113.148C103.559 122.737 90.5585 128.131 76.9984 128.147ZM76.9984 30.2847C67.759 30.2847 58.7271 33.0245 51.0449 38.1576C43.3626 43.2908 37.375 50.5867 33.8392 59.1228C30.3035 67.6588 29.3783 77.0517 31.1809 86.1136C32.9834 95.1754 37.4326 103.499 43.9658 110.033C50.499 116.566 58.8229 121.015 67.8847 122.817C76.9466 124.62 86.3395 123.695 94.8756 120.159C103.412 116.623 110.708 110.636 115.841 102.953C120.974 95.2712 123.714 86.2393 123.714 76.9999C123.699 64.6147 118.772 52.7411 110.015 43.9835C101.257 35.2258 89.3836 30.2994 76.9984 30.2847Z" fill="#1996EE"/>
</svg>
