<svg width="117" height="156" viewBox="0 0 117 156" fill="none" xmlns="http://www.w3.org/2000/svg">
<g clip-path="url(#clip0)">
<path d="M58.5002 156C50.0077 156.001 41.6169 154.148 33.9108 150.57C26.2047 146.992 19.3682 141.776 13.8764 135.282C8.38456 128.789 4.36915 121.175 2.10919 112.969C-0.150772 104.763 -0.601085 96.1619 0.789546 87.7639C0.835649 87.471 0.939189 87.1902 1.09418 86.9376C1.24918 86.6851 1.45256 86.4658 1.69258 86.2925C1.93259 86.1192 2.20449 85.9952 2.49255 85.9279C2.78062 85.8605 3.07915 85.851 3.37091 85.8999C3.66266 85.9488 3.94185 86.0552 4.19235 86.2129C4.44285 86.3706 4.6597 86.5765 4.83037 86.8187C5.00103 87.0609 5.12214 87.3346 5.18669 87.6239C5.25124 87.9133 5.25795 88.2126 5.20644 88.5046C3.98475 95.8897 4.30388 103.449 6.14368 110.704C7.98349 117.959 11.304 124.753 15.8956 130.657C20.4871 136.561 26.25 141.446 32.8203 145.005C39.3905 148.563 46.6255 150.718 54.0684 151.332C61.5112 151.946 69.0003 151.006 76.0626 148.573C83.125 146.139 89.6072 142.264 95.1001 137.192C100.593 132.12 104.977 125.962 107.976 119.106C110.974 112.25 112.522 104.846 112.522 97.3596C112.522 96.7643 112.758 96.1934 113.178 95.7724C113.598 95.3515 114.167 95.115 114.761 95.115C115.355 95.115 115.924 95.3515 116.344 95.7724C116.764 96.1934 117 96.7643 117 97.3596C116.982 112.906 110.813 127.812 99.8463 138.805C88.8793 149.798 74.0099 155.982 58.5002 156Z" fill="#F376A2"/>
<path d="M45.7206 44.6673C45.1663 44.6651 44.6324 44.4569 44.2224 44.0829C43.8124 43.7089 43.5554 43.1957 43.501 42.6427C43.4467 42.0897 43.5989 41.5362 43.9283 41.0892C44.2576 40.6422 44.7407 40.3336 45.284 40.223L45.6982 40.1332C46.2738 40.0315 46.8662 40.1594 47.349 40.4896C47.8318 40.8197 48.1666 41.326 48.2821 41.9003C48.3975 42.4746 48.2844 43.0714 47.9669 43.5632C47.6494 44.055 47.1527 44.4029 46.5827 44.5326L46.1573 44.6224C46.0138 44.6537 45.8674 44.6688 45.7206 44.6673Z" fill="#F376A2"/>
<path d="M114.76 99.6045C114.166 99.6045 113.597 99.368 113.177 98.947C112.757 98.5261 112.521 97.9552 112.521 97.3598C112.521 54.7124 93.566 22.0365 59.0818 5.14589C56.8873 9.07395 51.4404 20.6673 48.3558 42.6476C48.3558 42.7598 48.3558 42.8272 48.3222 42.9001C48.2614 43.4954 47.9671 44.0421 47.5041 44.4199C47.0411 44.7977 46.4474 44.9757 45.8535 44.9147C45.2596 44.8536 44.7142 44.5586 44.3373 44.0946C43.9604 43.6305 43.7829 43.0353 43.8438 42.44L43.8942 42.036C48.0087 12.9066 56.0588 1.40862 56.4003 0.931643C56.7049 0.506868 57.1479 0.202069 57.6528 0.0698987C58.1577 -0.0622713 58.6929 -0.0135103 59.1657 0.207758C96.4602 17.6147 117 52.1142 117 97.3598C117 97.9552 116.764 98.5261 116.344 98.947C115.924 99.368 115.354 99.6045 114.76 99.6045Z" fill="#F376A2"/>
<path d="M28.4544 103.196C23.1611 103.183 17.9432 101.937 13.2128 99.5557C8.48236 97.1746 4.36893 93.7237 1.19729 89.4756C1.02159 89.2391 0.894087 88.9702 0.822067 88.6842C0.750048 88.3983 0.734919 88.1009 0.777545 87.8091C0.820171 87.5173 0.919717 87.2368 1.0705 86.9835C1.22128 86.7303 1.42035 86.5093 1.65633 86.3332C1.89232 86.1571 2.16059 86.0293 2.44585 85.9571C2.73111 85.8849 3.02776 85.8697 3.31887 85.9124C3.60997 85.9552 3.88983 86.055 4.14246 86.2061C4.3951 86.3572 4.61556 86.5568 4.79126 86.7933C7.35889 90.2513 10.6495 93.105 14.4328 95.1544C18.216 97.2039 22.4005 98.3997 26.6931 98.6581C30.9858 98.9165 35.2829 98.2313 39.2836 96.6503C43.2844 95.0694 46.892 92.631 49.854 89.5059C52.816 86.3807 55.0608 82.6444 56.4311 78.5584C57.8015 74.4724 58.2643 70.1356 57.7872 65.8515C57.3101 61.5674 55.9046 57.4396 53.6691 53.7572C51.4336 50.0747 48.4222 46.9265 44.8456 44.533L44.784 44.4881L44.5937 44.3647L44.5209 44.331C44.2724 44.1733 44.0573 43.9681 43.888 43.7271C43.7186 43.4861 43.5983 43.214 43.5338 42.9264C43.4693 42.6387 43.462 42.3412 43.5123 42.0507C43.5626 41.7603 43.6694 41.4826 43.8267 41.2335C43.984 40.9844 44.1888 40.7688 44.4292 40.5991C44.6696 40.4293 44.9411 40.3087 45.228 40.244C45.515 40.1794 45.8118 40.1721 46.1016 40.2225C46.3913 40.2729 46.6684 40.3799 46.9169 40.5376L46.9784 40.5769L47.3703 40.8351C53.4205 44.9026 58.0067 50.8111 60.4527 57.6896C62.8987 64.568 63.0751 72.0522 60.9559 79.0388C58.8367 86.0254 54.5339 92.1444 48.6822 96.4938C42.8304 100.843 35.7393 103.193 28.4544 103.196Z" fill="#F376A2"/>
<path d="M57.0441 137.779H55.6222H55.4431L53.6685 137.617C53.2934 137.577 52.9239 137.544 52.5488 137.493H52.4145L50.6455 137.151C50.2648 137.078 49.8674 136.999 49.4755 136.893L48.1879 136.506L47.4658 136.281C46.85 136.096 46.2174 135.905 45.5624 135.641C44.7843 135.338 43.9838 135.024 43.1832 134.693L43.0993 134.654C41.4699 133.931 39.8864 133.108 38.3577 132.19C35.3412 130.387 32.5823 128.182 30.1565 125.636C28.9564 124.372 27.8577 123.016 26.8704 121.579C25.8338 120.124 24.9697 118.554 24.2953 116.899C24.12 116.451 24.0929 115.959 24.218 115.494C24.3431 115.03 24.6137 114.618 24.99 114.319C25.3662 114.021 25.8283 113.851 26.3079 113.836C26.7876 113.82 27.2595 113.96 27.6542 114.234C32.2871 117.41 37.4964 119.644 42.9873 120.81C44.0789 121.068 45.2265 121.231 46.3182 121.371L46.878 121.45C47.5386 121.5 48.1879 121.568 48.8373 121.635H48.9549C49.1676 121.663 49.4531 121.669 49.7274 121.674L51.7483 121.753C51.8527 121.759 51.9574 121.759 52.0618 121.753L52.5321 121.725L53.243 121.691L54.8105 121.472L56.3723 121.119L57.1393 120.883C59.2302 120.243 61.2303 119.336 63.09 118.184L63.7282 117.769C63.9801 117.612 64.2265 117.455 64.4728 117.286C64.9318 116.927 65.3965 116.585 65.8611 116.248L66.1634 115.984C66.9303 115.328 67.6525 114.711 68.2907 114.043L68.6042 113.734C68.6955 113.654 68.7815 113.568 68.8617 113.476L69.4159 112.791C69.5111 112.679 69.6286 112.55 69.7462 112.427C69.9852 112.186 70.2114 111.934 70.4235 111.669L70.4571 111.619C70.6475 111.355 70.849 111.097 71.0505 110.844L71.5208 110.227L72.4836 108.768L72.5452 108.684C72.6455 108.534 72.7371 108.378 72.8195 108.218L73.7544 106.591C73.816 106.467 73.872 106.344 73.9279 106.22L74.0959 105.867C74.1967 105.637 74.331 105.367 74.4654 105.098C74.5997 104.829 74.7173 104.593 74.8292 104.335L75.4898 102.651C76.3192 100.455 76.9432 98.1852 77.354 95.8727C77.4044 95.5978 77.4547 95.3116 77.5051 95.0815C77.5555 94.8514 77.6339 94.4137 77.6843 94.077L77.7178 93.7908C77.7738 93.2297 77.8354 92.6685 77.9082 92.1074L78.0313 91.1478C78.0313 91.0356 78.0313 90.8785 78.0593 90.7213V90.3061C78.0873 89.6832 78.1321 89.0211 78.1769 88.3477C78.3552 83.0109 77.98 77.67 77.0573 72.411C76.0702 66.7387 74.7978 61.12 73.245 55.5765C72.4668 52.6136 71.5655 49.7237 70.6475 46.6654C69.7854 43.8596 68.8897 40.9024 68.0779 37.8946C67.945 37.4223 67.9702 36.9193 68.1496 36.4627C68.3289 36.0061 68.6527 35.621 69.0712 35.3663C69.4897 35.1117 69.9799 35.0016 70.4668 35.0528C70.9537 35.104 71.4104 35.3138 71.7671 35.65C81.3864 44.5989 88.819 55.6496 93.4877 67.9442C95.9674 74.4332 97.4254 81.2693 97.8094 88.2074C97.843 89.1221 97.8654 89.9975 97.8822 90.8729C97.8822 91.0244 97.8822 91.1647 97.8822 91.2993C97.8822 91.6248 97.8822 91.9503 97.8822 92.2757L97.8206 93.6169C97.787 94.3464 97.7422 95.0815 97.6974 95.8166L97.6694 96.2655C97.6667 96.2879 97.6667 96.3105 97.6694 96.3329C97.6078 96.9726 97.5239 97.6011 97.4455 98.2071C97.4063 98.4821 97.3671 98.7682 97.3335 99.032C97.1395 100.542 96.8648 102.041 96.5106 103.521L96.2923 104.498C96.1825 105.002 96.0461 105.5 95.8836 105.99L95.4862 107.27C95.4134 107.505 95.3462 107.719 95.2846 107.926C95.081 108.631 94.838 109.325 94.5569 110.003C93.2024 113.573 91.4184 116.965 89.2443 120.103L89.1883 120.187L87.5425 122.398L87.4921 122.46C86.9995 123.077 86.4789 123.655 85.9806 124.216L85.6503 124.576C85.1207 125.177 84.5602 125.75 83.9709 126.293L82.5658 127.634C82.2747 127.898 82.006 128.122 81.7261 128.347L81.3958 128.616C75.3558 133.715 67.9149 136.857 60.0559 137.628L58.6564 137.746H58.4716L57.0441 137.779ZM55.751 133.29H57.0609H58.3541L59.6528 133.178C66.5989 132.49 73.1733 129.706 78.5072 125.193L78.9046 124.867C79.1062 124.705 79.3077 124.542 79.498 124.368L80.8528 123.077C81.3622 122.589 81.838 122.129 82.2411 121.658L82.6554 121.192C83.1256 120.659 83.5734 120.159 83.9877 119.643L85.5832 117.505C87.5492 114.665 89.1622 111.596 90.3863 108.364L90.4367 108.246C90.6523 107.695 90.8392 107.133 90.9965 106.563L91.2148 105.878L91.6011 104.615C91.7216 104.258 91.8225 103.895 91.9034 103.527C91.9818 103.168 92.0602 102.837 92.1329 102.5C92.4553 101.181 92.7057 99.8452 92.8831 98.4989C92.9222 98.1734 92.9614 97.8816 93.0006 97.5954C93.079 97.0343 93.1518 96.4731 93.2022 95.9457V95.5304C93.2469 94.8178 93.2917 94.1107 93.3253 93.4036L93.3869 92.0906C93.3869 91.8829 93.3869 91.636 93.3869 91.3947C93.3869 91.2376 93.3869 91.0805 93.3869 90.9178C93.3869 90.0816 93.3477 89.2343 93.3197 88.387C92.9579 81.9285 91.5963 75.5656 89.2835 69.5267C85.945 60.73 81.1031 52.5838 74.9748 45.4533C75.8761 48.3881 76.7998 51.4183 77.5835 54.4317C79.1798 60.1172 80.4877 65.8801 81.5022 71.6983C82.4775 77.2762 82.8715 82.9406 82.6778 88.6002V88.6619C82.633 89.3016 82.5882 89.9413 82.5602 90.5811C82.5602 90.727 82.5602 90.828 82.5602 90.9346C82.5602 91.1927 82.5602 91.4508 82.5042 91.709L82.3755 92.7134C82.3083 93.2409 82.2523 93.7572 82.1963 94.2734L82.1627 94.6045C82.1627 94.6045 82.1627 94.655 82.1627 94.6775C82.1012 95.1095 82.0172 95.5248 81.9388 95.9457C81.894 96.1757 81.8492 96.4058 81.8101 96.6359C81.3478 99.2353 80.647 101.786 79.7164 104.256L79.0222 106.013L78.9326 106.058C78.7815 106.406 78.6191 106.742 78.4512 107.079C78.3392 107.298 78.2273 107.517 78.1265 107.741C78.0593 107.881 78.0145 107.977 77.9754 108.072C77.8802 108.274 77.7906 108.471 77.6899 108.667L77.6339 108.762L76.7158 110.367C76.5461 110.675 76.3592 110.973 76.156 111.259L75.1819 112.724L75.1259 112.808C74.9356 113.072 74.7341 113.33 74.5325 113.583C74.331 113.835 74.2078 114.004 74.0511 114.217C73.7405 114.646 73.402 115.055 73.0378 115.44L72.7467 115.766C72.5508 115.99 72.3661 116.198 72.1869 116.411C72.0099 116.607 71.8231 116.795 71.6271 116.972L71.4368 117.157C70.6587 117.971 69.8189 118.689 69.0072 119.402L68.6378 119.722L68.4922 119.834C68.0332 120.171 67.5685 120.507 67.1151 120.861L67.0367 120.923C66.7176 121.153 66.3873 121.36 66.057 121.568L65.4972 121.944L65.43 121.989C63.2324 123.35 60.8693 124.424 58.3988 125.182L57.5423 125.445L57.3632 125.49L55.6838 125.877C55.6138 125.894 55.5427 125.905 55.471 125.911L53.7916 126.152H53.5733L52.7056 126.197C52.5712 126.197 52.4873 126.197 52.4033 126.197C52.1738 126.197 51.9387 126.231 51.6867 126.231H51.6084L49.5931 126.152C49.1965 126.151 48.8004 126.129 48.4063 126.085C47.7233 126.018 47.0851 125.95 46.4357 125.9H46.2902L45.6912 125.81C44.5044 125.636 43.2728 125.457 42.03 125.17C39.0679 124.531 36.1722 123.614 33.381 122.432V122.46C35.5417 124.737 38.0035 126.706 40.6977 128.313C42.0645 129.133 43.4796 129.87 44.9354 130.518C45.6856 130.827 46.4525 131.124 47.2195 131.422C47.7121 131.624 48.2159 131.775 48.7477 131.938C49.0053 132.011 49.2628 132.089 49.5147 132.174L50.7127 132.533C50.8974 132.583 51.1941 132.639 51.5076 132.701L53.187 133.027C53.4949 133.066 53.8084 133.099 54.1219 133.128L55.751 133.29Z" fill="#8D67C3"/>
<path d="M28.4326 88.6621C27.8387 88.6621 27.2692 88.4256 26.8492 88.0046C26.4293 87.5837 26.1934 87.0128 26.1934 86.4174V52.4734C26.193 52.0292 26.3242 51.5949 26.5702 51.2255C26.8162 50.856 27.1661 50.568 27.5754 50.398C27.9848 50.228 28.4353 50.1835 28.8699 50.2703C29.3045 50.357 29.7037 50.5711 30.0169 50.8854L41.7448 62.6359C42.165 63.057 42.4011 63.6283 42.4011 64.2239C42.4011 64.8196 42.165 65.3908 41.7448 65.812C41.3247 66.2332 40.7548 66.4698 40.1606 66.4698C39.5664 66.4698 38.9965 66.2332 38.5763 65.812L30.6718 57.8885V86.4174C30.6718 87.0128 30.4359 87.5837 30.016 88.0046C29.596 88.4256 29.0265 88.6621 28.4326 88.6621Z" fill="#1CD0C5"/>
<path d="M28.4322 88.6621C27.8384 88.6621 27.2688 88.4256 26.8489 88.0046C26.4289 87.5837 26.193 87.0128 26.193 86.4174V57.8885L18.2885 65.812C17.8683 66.2339 17.2982 66.4712 16.7034 66.4718C16.1087 66.4723 15.5381 66.236 15.1172 65.8148C14.6963 65.3936 14.4595 64.8221 14.459 64.2259C14.4585 63.6297 14.6942 63.0578 15.1144 62.6359L26.8704 50.8854C27.1835 50.5711 27.5827 50.357 28.0173 50.2703C28.4519 50.1835 28.9024 50.228 29.3118 50.398C29.7212 50.568 30.071 50.856 30.317 51.2255C30.5631 51.5949 30.6942 52.0292 30.6939 52.4734V86.4174C30.6939 86.7141 30.6352 87.0078 30.5213 87.2816C30.4074 87.5554 30.2404 87.8039 30.0301 88.0126C29.8198 88.2213 29.5703 88.3862 29.296 88.4977C29.0218 88.6092 28.7282 88.665 28.4322 88.6621Z" fill="#1CD0C5"/>
</g>
<defs>
<clipPath id="clip0">
<rect width="117" height="156" fill="white"/>
</clipPath>
</defs>
</svg>
