<svg width="148" height="156" viewBox="0 0 148 156" fill="none" xmlns="http://www.w3.org/2000/svg">
<g clip-path="url(#clip0)">
<path d="M62.4712 156H2.23751C1.64408 156 1.07497 155.764 0.655351 155.343C0.235737 154.922 0 154.351 0 153.755V2.2446C0 1.6493 0.235737 1.07837 0.655351 0.657429C1.07497 0.236484 1.64408 0 2.23751 0L62.2307 0C87.6936 0 109.218 7.29496 124.523 21.161C139.828 35.0271 148.017 54.6786 148.017 77.8765C148.017 101.075 139.923 120.81 124.612 134.76C109.302 148.711 87.8614 156 62.4712 156ZM4.47502 151.511H62.4712C111.696 151.511 143.525 122.606 143.525 77.8765C143.525 33.2931 111.613 4.48921 62.2307 4.48921H4.47502V151.511Z" fill="#8D67C3"/>
<path d="M60.6201 125.518H33.8371C33.2437 125.518 32.6746 125.282 32.255 124.861C31.8353 124.44 31.5996 123.869 31.5996 123.274V34.6118C31.5996 34.0165 31.8353 33.4456 32.255 33.0246C32.6746 32.6037 33.2437 32.3672 33.8371 32.3672H60.911C77.8489 32.3672 91.2068 35.8968 100.627 42.8551C111.104 50.6102 116.418 62.3944 116.418 77.8709C116.473 84.243 115.168 90.5532 112.59 96.3771C110.012 102.201 106.221 107.404 101.471 111.635C91.2907 120.709 77.1944 125.518 60.6201 125.518ZM36.0746 121.029H60.6201C90.8265 121.029 111.926 103.274 111.926 77.8541C111.926 63.8814 107.227 53.315 97.9417 46.4296C89.3217 40.0493 76.8588 36.8171 60.8998 36.8171H36.0746V121.029Z" fill="#F376A2"/>
<path d="M66.5664 98.2297H59.7141C59.1206 98.2297 58.5515 97.9933 58.1319 97.5723C57.7123 97.1514 57.4766 96.5804 57.4766 95.9851V60.0097C57.4766 59.4144 57.7123 58.8435 58.1319 58.4226C58.5515 58.0016 59.1206 57.7651 59.7141 57.7651H66.6839C82.0612 57.7651 90.5246 64.7964 90.5246 77.5625C90.5246 89.7339 80.6683 98.2297 66.5664 98.2297ZM61.9628 93.7405H66.5664C78.0449 93.7405 86.0607 87.0909 86.0607 77.5625C86.0607 67.4057 79.544 62.2543 66.6951 62.2543H61.9628V93.7405Z" fill="#1CD0C5"/>
</g>
<defs>
<clipPath id="clip0">
<rect width="148" height="156" fill="white"/>
</clipPath>
</defs>
</svg>
