<svg width="122" height="158" viewBox="0 0 122 158" fill="none" xmlns="http://www.w3.org/2000/svg">
<g clip-path="url(#clip0)">
<path d="M104.79 63.2909H58.8429C58.2399 63.2909 57.6617 63.0514 57.2353 62.6251C56.8089 62.1987 56.5694 61.6205 56.5694 61.0176C56.5694 60.4146 56.8089 59.8364 57.2353 59.41C57.6617 58.9837 58.2399 58.7442 58.8429 58.7442H104.79C108.148 58.7397 111.367 57.4033 113.741 55.0283C116.115 52.6534 117.45 49.4337 117.453 46.0758V17.2095C117.448 13.8525 116.113 10.6343 113.739 8.26057C111.365 5.88683 108.147 4.55127 104.79 4.54676H39.5127C36.1546 4.54977 32.9348 5.88466 30.5598 8.25857C28.1847 10.6325 26.8483 13.8515 26.8438 17.2095V46.0758C26.8483 49.4342 28.1845 52.6539 30.5594 55.0287C32.9343 57.4035 36.1541 58.7397 39.5127 58.7442H40.8541C41.457 58.7442 42.0353 58.9837 42.4616 59.41C42.888 59.8364 43.1275 60.4146 43.1275 61.0176C43.1275 61.6205 42.888 62.1987 42.4616 62.6251C42.0353 63.0514 41.457 63.2909 40.8541 63.2909H39.5127C34.9486 63.2849 30.5732 61.4693 27.3459 58.2421C24.1186 55.0149 22.3029 50.6397 22.2969 46.0758V17.2095C22.3029 12.6461 24.1188 8.27145 27.3463 5.04518C30.5737 1.81892 34.9492 0.00451125 39.5127 0L104.79 0C109.352 0.00601503 113.726 1.82108 116.952 5.04719C120.179 8.27329 121.994 12.6471 122 17.2095V46.0758C121.995 50.6391 120.181 55.0144 116.954 58.2417C113.728 61.4691 109.353 63.2849 104.79 63.2909Z" fill="#1CD0C5"/>
<path d="M40.8555 81.2733C40.5574 81.2723 40.2623 81.2145 39.9859 81.1028C39.57 80.9306 39.2146 80.6389 38.9646 80.2645C38.7147 79.8902 38.5816 79.45 38.582 78.9999V61.0175C38.582 60.4145 38.8216 59.8363 39.2479 59.4099C39.6743 58.9836 40.2525 58.7441 40.8555 58.7441C41.4585 58.7441 42.0367 58.9836 42.4631 59.4099C42.8894 59.8363 43.129 60.4145 43.129 61.0175V73.5211L57.2358 59.4204C57.4451 59.2006 57.6961 59.0249 57.9743 58.9037C58.2525 58.7825 58.5521 58.7181 58.8556 58.7145C59.159 58.7109 59.4601 58.7681 59.7411 58.8826C60.0221 58.9972 60.2773 59.1669 60.4917 59.3816C60.706 59.5964 60.8753 59.8519 60.9893 60.1331C61.1034 60.4142 61.1601 60.7154 61.1559 61.0188C61.1518 61.3222 61.0869 61.6218 60.9652 61.8997C60.8434 62.1777 60.6673 62.4284 60.4471 62.6373L42.464 80.6083C42.2527 80.8194 42.0019 80.9867 41.7259 81.1008C41.4499 81.2149 41.1541 81.2735 40.8555 81.2733Z" fill="#1CD0C5"/>
<path d="M71.3973 23.7228C71.1715 23.7242 70.9504 23.6582 70.7623 23.5334C70.5741 23.4086 70.4274 23.2306 70.3408 23.0221C70.2542 22.8135 70.2317 22.584 70.2761 22.3626C70.3205 22.1412 70.4299 21.9381 70.5902 21.7791L78.2177 14.1576C78.4299 13.9441 78.7181 13.8235 79.0191 13.8223H91.7903C92.0917 13.8223 92.3809 13.942 92.5941 14.1552C92.8072 14.3684 92.927 14.6575 92.927 14.959C92.927 15.2604 92.8072 15.5495 92.5941 15.7627C92.3809 15.9759 92.0917 16.0956 91.7903 16.0956H79.4908L72.1816 23.3875C71.9736 23.5969 71.6923 23.7171 71.3973 23.7228Z" fill="#19B4EE"/>
<path d="M78.9256 49.4459H63.8753C63.5907 49.447 63.316 49.3414 63.1056 49.1499C62.8951 48.9584 62.7641 48.6949 62.7385 48.4115L60.4651 22.6654C60.4516 22.5083 60.4711 22.35 60.5222 22.2007C60.5733 22.0515 60.6549 21.9145 60.7618 21.7985C60.8687 21.6825 60.9986 21.59 61.1432 21.5269C61.2879 21.4638 61.444 21.4316 61.6018 21.4321H81.1934C81.3516 21.4318 81.5081 21.4645 81.653 21.5281C81.7978 21.5917 81.9278 21.6848 82.0346 21.8016C82.1399 21.9178 82.22 22.0545 82.2699 22.2032C82.3198 22.3519 82.3383 22.5092 82.3245 22.6654L80.051 48.4115C80.0256 48.6929 79.8962 48.9548 79.6881 49.1461C79.4801 49.3373 79.2082 49.4442 78.9256 49.4459ZM64.9154 47.1725H77.8685L79.943 23.7055H62.8408L64.9154 47.1725Z" fill="#8D67C3"/>
<path d="M80.3212 33.5722H62.4688C62.1673 33.5722 61.8782 33.4525 61.665 33.2393C61.4518 33.0261 61.332 32.737 61.332 32.4355C61.332 32.1341 61.4518 31.8449 61.665 31.6318C61.8782 31.4186 62.1673 31.2988 62.4688 31.2988H80.3212C80.6227 31.2988 80.9118 31.4186 81.125 31.6318C81.3381 31.8449 81.4579 32.1341 81.4579 32.4355C81.4579 32.737 81.3381 33.0261 81.125 33.2393C80.9118 33.4525 80.6227 33.5722 80.3212 33.5722Z" fill="#8D67C3"/>
<path d="M40.8538 118.784C36.6946 118.784 32.6287 117.551 29.1704 115.24C25.7121 112.929 23.0167 109.645 21.425 105.803C19.8333 101.96 19.4169 97.732 20.2283 93.6528C21.0397 89.5737 23.0426 85.8267 25.9837 82.8858C28.9247 79.9448 32.6718 77.942 36.7511 77.1306C40.8305 76.3192 45.0588 76.7357 48.9015 78.3273C52.7441 79.9189 56.0285 82.6142 58.3393 86.0724C60.65 89.5306 61.8834 93.5963 61.8834 97.7554C61.8834 100.517 61.3395 103.251 60.2826 105.803C59.2258 108.354 57.6768 110.672 55.724 112.625C53.7712 114.578 51.4529 116.127 48.9015 117.183C46.3501 118.24 43.6155 118.784 40.8538 118.784ZM40.8538 81.2733C37.5939 81.2733 34.4071 82.24 31.6965 84.0511C28.986 85.8621 26.8734 88.4363 25.6258 91.448C24.3783 94.4597 24.0519 97.7736 24.6879 100.971C25.3239 104.168 26.8937 107.105 29.1988 109.41C31.504 111.715 34.4409 113.285 37.6382 113.921C40.8355 114.557 44.1496 114.23 47.1614 112.983C50.1733 111.735 52.7475 109.623 54.5586 106.912C56.3698 104.202 57.3365 101.015 57.3365 97.7554C57.3365 93.3841 55.5999 89.1918 52.5088 86.1008C49.4177 83.0098 45.2253 81.2733 40.8538 81.2733Z" fill="#F376A2"/>
<path d="M79.4339 158H2.2724C1.68393 158.001 1.11822 157.773 0.694226 157.365C0.270236 156.957 0.0210035 156.4 -0.00106419 155.812C-0.00106419 155.636 -0.00106419 155.46 -0.00106419 155.284C-0.0648263 149.878 0.944876 144.513 2.96953 139.5C4.99419 134.488 7.99355 129.927 11.7938 126.081C15.5941 122.236 20.1197 119.183 25.1084 117.1C30.0971 115.016 35.4497 113.943 40.856 113.943C46.2624 113.943 51.615 115.016 56.6037 117.1C61.5924 119.183 66.1179 122.236 69.9182 126.081C73.7185 129.927 76.7178 134.488 78.7425 139.5C80.7671 144.513 81.7768 149.878 81.7131 155.284C81.7131 155.46 81.7131 155.642 81.7131 155.818C81.6895 156.406 81.4389 156.962 81.0138 157.369C80.5888 157.776 80.0224 158.002 79.4339 158ZM4.59134 153.454H77.1207C76.6408 144.16 72.6107 135.405 65.8624 128.996C59.114 122.587 50.1626 119.014 40.856 119.014C31.5494 119.014 22.598 122.587 15.8497 128.996C9.10133 135.405 5.07125 144.16 4.59134 153.454Z" fill="#F376A2"/>
</g>
<defs>
<clipPath id="clip0">
<rect width="122" height="158" fill="white"/>
</clipPath>
</defs>
</svg>
