<svg width="158" height="158" viewBox="0 0 158 158" fill="none" xmlns="http://www.w3.org/2000/svg">
<g clip-path="url(#clip0)">
<path d="M106.451 137.727H51.5488C50.9458 137.727 50.3676 137.487 49.9413 137.061C49.5149 136.635 49.2754 136.056 49.2754 135.454C49.2754 134.851 49.5149 134.272 49.9413 133.846C50.3676 133.42 50.9458 133.18 51.5488 133.18H106.451C107.054 133.18 107.632 133.42 108.058 133.846C108.485 134.272 108.724 134.851 108.724 135.454C108.724 136.056 108.485 136.635 108.058 137.061C107.632 137.487 107.054 137.727 106.451 137.727Z" fill="#8D67C3"/>
<path d="M78.9999 19.6079C78.397 19.6079 77.8188 19.3684 77.3924 18.9421C76.9661 18.5157 76.7266 17.9375 76.7266 17.3345V2.27338C76.7266 1.67044 76.9661 1.0922 77.3924 0.665858C77.8188 0.239516 78.397 0 78.9999 0C79.6029 0 80.1811 0.239516 80.6075 0.665858C81.0338 1.0922 81.2733 1.67044 81.2733 2.27338V17.3345C81.2733 17.9375 81.0338 18.5157 80.6075 18.9421C80.1811 19.3684 79.6029 19.6079 78.9999 19.6079Z" fill="#8D67C3"/>
<path d="M40.9211 158C40.5298 158 40.1452 157.899 39.8044 157.707C39.4636 157.514 39.1783 157.237 38.9759 156.902C38.7736 156.567 38.6611 156.186 38.6495 155.795C38.6378 155.404 38.7272 155.016 38.9092 154.67L61.0746 112.328C61.355 111.794 61.8362 111.393 62.4123 111.213C62.9884 111.033 63.6122 111.09 64.1466 111.37C64.6809 111.651 65.082 112.132 65.2616 112.708C65.4412 113.284 65.3846 113.908 65.1042 114.442L42.9387 156.784C42.7456 157.152 42.4555 157.459 42.0998 157.674C41.7441 157.888 41.3364 158.001 40.9211 158Z" fill="#8D67C3"/>
<path d="M117.078 158C116.663 158.001 116.255 157.888 115.9 157.674C115.544 157.459 115.254 157.152 115.061 156.784L92.8953 114.442C92.6149 113.908 92.5583 113.284 92.7379 112.708C92.9175 112.132 93.3186 111.651 93.8529 111.37C94.3873 111.09 95.0111 111.033 95.5872 111.213C96.1633 111.393 96.6445 111.794 96.9248 112.328L119.09 154.67C119.272 155.016 119.362 155.404 119.35 155.795C119.338 156.186 119.226 156.567 119.024 156.902C118.821 157.237 118.536 157.514 118.195 157.707C117.854 157.899 117.47 158 117.078 158Z" fill="#8D67C3"/>
<path d="M78.6195 42.0575H17.8066C17.2036 42.0575 16.6254 41.818 16.1991 41.3916C15.7727 40.9653 15.5332 40.3871 15.5332 39.7841C15.5332 39.1812 15.7727 38.6029 16.1991 38.1766C16.6254 37.7503 17.2036 37.5107 17.8066 37.5107H78.6195C79.2225 37.5107 79.8007 37.7503 80.2271 38.1766C80.6534 38.6029 80.8929 39.1812 80.8929 39.7841C80.8929 40.3871 80.6534 40.9653 80.2271 41.3916C79.8007 41.818 79.2225 42.0575 78.6195 42.0575Z" fill="#19B4EE"/>
<path d="M78.6195 59.1078H17.8066C17.2036 59.1078 16.6254 58.8683 16.1991 58.4419C15.7727 58.0156 15.5332 57.4374 15.5332 56.8344C15.5332 56.2315 15.7727 55.6532 16.1991 55.2269C16.6254 54.8005 17.2036 54.561 17.8066 54.561H78.6195C79.2225 54.561 79.8007 54.8005 80.2271 55.2269C80.6534 55.6532 80.8929 56.2315 80.8929 56.8344C80.8929 57.4374 80.6534 58.0156 80.2271 58.4419C79.8007 58.8683 79.2225 59.1078 78.6195 59.1078Z" fill="#19B4EE"/>
<path d="M78.6195 76.1581H17.8066C17.2036 76.1581 16.6254 75.9186 16.1991 75.4922C15.7727 75.0659 15.5332 74.4876 15.5332 73.8847C15.5332 73.2818 15.7727 72.7035 16.1991 72.2772C16.6254 71.8508 17.2036 71.6113 17.8066 71.6113H78.6195C79.2225 71.6113 79.8007 71.8508 80.2271 72.2772C80.6534 72.7035 80.8929 73.2818 80.8929 73.8847C80.8929 74.4876 80.6534 75.0659 80.2271 75.4922C79.8007 75.9186 79.2225 76.1581 78.6195 76.1581Z" fill="#19B4EE"/>
<path d="M140.194 93.2089H17.8066C17.2036 93.2089 16.6254 92.9693 16.1991 92.543C15.7727 92.1167 15.5332 91.5384 15.5332 90.9355C15.5332 90.3325 15.7727 89.7543 16.1991 89.328C16.6254 88.9016 17.2036 88.6621 17.8066 88.6621H140.194C140.797 88.6621 141.375 88.9016 141.802 89.328C142.228 89.7543 142.467 90.3325 142.467 90.9355C142.467 91.5384 142.228 92.1167 141.802 92.543C141.375 92.9693 140.797 93.2089 140.194 93.2089Z" fill="#19B4EE"/>
<path d="M123.126 76.1582C119.305 76.1582 115.569 75.0249 112.391 72.9016C109.213 70.7783 106.736 67.7603 105.274 64.2294C103.811 60.6984 103.428 56.8131 104.174 53.0646C104.92 49.3162 106.76 45.873 109.463 43.1705C112.165 40.4681 115.608 38.6277 119.357 37.8821C123.105 37.1364 126.99 37.5191 130.521 38.9817C134.052 40.4443 137.07 42.921 139.194 46.0988C141.317 49.2766 142.45 53.0126 142.45 56.8345C142.45 61.9595 140.414 66.8745 136.79 70.4984C133.167 74.1223 128.251 76.1582 123.126 76.1582ZM123.126 42.0575C120.204 42.0575 117.347 42.9242 114.917 44.5479C112.487 46.1716 110.593 48.4794 109.474 51.1796C108.356 53.8797 108.063 56.8509 108.633 59.7173C109.204 62.5838 110.611 65.2168 112.678 67.2834C114.744 69.35 117.377 70.7574 120.244 71.3275C123.11 71.8977 126.081 71.6051 128.781 70.4866C131.482 69.3682 133.789 67.4742 135.413 65.0441C137.037 62.6141 137.903 59.7571 137.903 56.8345C137.903 52.9154 136.347 49.1568 133.575 46.3856C130.804 43.6144 127.046 42.0575 123.126 42.0575Z" fill="#F376A2"/>
<path d="M155.727 115.658H2.27338C1.67044 115.658 1.0922 115.419 0.665858 114.992C0.239516 114.566 0 113.988 0 113.385V17.3344C0 16.7315 0.239516 16.1532 0.665858 15.7269C1.0922 15.3006 1.67044 15.061 2.27338 15.061H155.727C156.33 15.061 156.908 15.3006 157.334 15.7269C157.76 16.1532 158 16.7315 158 17.3344V113.385C158 113.988 157.76 114.566 157.334 114.992C156.908 115.419 156.33 115.658 155.727 115.658ZM4.54676 111.111H153.453V19.6078H4.54676V111.111Z" fill="#1CD0C5"/>
</g>
<defs>
<clipPath id="clip0">
<rect width="158" height="158" fill="white"/>
</clipPath>
</defs>
</svg>
