<svg width="179" height="156" viewBox="0 0 179 156" fill="none" xmlns="http://www.w3.org/2000/svg">
<g clip-path="url(#clip0)">
<path d="M49.6293 92.3148C49.0536 92.3151 48.4946 92.1209 48.0426 91.7635L0.971684 54.581C0.707769 54.3723 0.487486 54.1135 0.323422 53.8194C0.159359 53.5254 0.05473 53.2018 0.0155146 52.8672C-0.0237007 52.5326 0.00326587 52.1936 0.0948736 51.8694C0.186481 51.5453 0.340935 51.2424 0.549408 50.9781L39.8978 0.974016C40.1062 0.707736 40.3652 0.485424 40.6598 0.319897C40.9543 0.154369 41.2787 0.0488992 41.6141 0.00956717C41.9496 -0.0297649 42.2895 -0.00218122 42.6142 0.0907281C42.939 0.183637 43.2422 0.340035 43.5063 0.550904L153.893 87.7375C154.426 88.1626 154.768 88.7823 154.845 89.4604C154.922 90.1385 154.727 90.8194 154.302 91.3532C153.878 91.8871 153.26 92.2303 152.583 92.3072C151.906 92.3842 151.227 92.1886 150.694 91.7635L42.3355 6.16675L6.15415 52.1449L51.2161 87.744C51.631 88.0748 51.9332 88.5266 52.0807 89.037C52.2283 89.5474 52.214 90.0911 52.0398 90.593C51.8655 91.0948 51.54 91.5301 51.1082 91.8385C50.6764 92.147 50.1596 92.3134 49.6293 92.3148Z" fill="#8D67C3"/>
<path d="M176.441 156H3.69206C3.0133 156 2.36235 155.73 1.8824 155.249C1.40245 154.768 1.13281 154.116 1.13281 153.436V89.7508C1.13281 89.0707 1.40245 88.4185 1.8824 87.9376C2.36235 87.4567 3.0133 87.1865 3.69206 87.1865H176.441C177.12 87.1865 177.771 87.4567 178.251 87.9376C178.731 88.4185 179 89.0707 179 89.7508V153.429C179.001 153.766 178.936 154.101 178.807 154.412C178.679 154.724 178.491 155.008 178.253 155.247C178.015 155.485 177.733 155.675 177.422 155.804C177.111 155.933 176.778 156 176.441 156ZM6.2513 150.871H173.882V92.3152H6.2513V150.871Z" fill="#4263A8"/>
<path d="M158.955 108.342H81.7487C81.0699 108.342 80.419 108.072 79.939 107.591C79.4591 107.11 79.1895 106.458 79.1895 105.778C79.1895 105.098 79.4591 104.445 79.939 103.964C80.419 103.484 81.0699 103.213 81.7487 103.213H158.955C159.633 103.213 160.284 103.484 160.764 103.964C161.244 104.445 161.514 105.098 161.514 105.778C161.514 106.458 161.244 107.11 160.764 107.591C160.284 108.072 159.633 108.342 158.955 108.342Z" fill="#F376A2"/>
<path d="M158.955 124.164H81.7487C81.0699 124.164 80.419 123.894 79.939 123.413C79.4591 122.932 79.1895 122.28 79.1895 121.599C79.1895 120.919 79.4591 120.267 79.939 119.786C80.419 119.305 81.0699 119.035 81.7487 119.035H158.955C159.633 119.035 160.284 119.305 160.764 119.786C161.244 120.267 161.514 120.919 161.514 121.599C161.514 122.28 161.244 122.932 160.764 123.413C160.284 123.894 159.633 124.164 158.955 124.164Z" fill="#19B4EE"/>
<path d="M158.955 139.973H81.7487C81.0699 139.973 80.419 139.703 79.939 139.222C79.4591 138.741 79.1895 138.089 79.1895 137.409C79.1895 136.728 79.4591 136.076 79.939 135.595C80.419 135.114 81.0699 134.844 81.7487 134.844H158.955C159.633 134.844 160.284 135.114 160.764 135.595C161.244 136.076 161.514 136.728 161.514 137.409C161.514 138.089 161.244 138.741 160.764 139.222C160.284 139.703 159.633 139.973 158.955 139.973Z" fill="#F376A2"/>
<path d="M67.2445 156H3.69206C3.0133 156 2.36235 155.73 1.8824 155.249C1.40245 154.768 1.13281 154.116 1.13281 153.436V89.7508C1.13281 89.0707 1.40245 88.4185 1.8824 87.9376C2.36235 87.4567 3.0133 87.1865 3.69206 87.1865H67.2445C67.9233 87.1865 68.5742 87.4567 69.0542 87.9376C69.5341 88.4185 69.8038 89.0707 69.8038 89.7508V153.429C69.8046 153.766 69.739 154.101 69.6108 154.412C69.4826 154.724 69.2942 155.008 69.0564 155.247C68.8187 155.485 68.5363 155.675 68.2254 155.804C67.9145 155.933 67.5811 156 67.2445 156ZM6.2513 150.871H64.6853V92.3152H6.2513V150.871Z" fill="#1CD0C5"/>
</g>
<defs>
<clipPath id="clip0">
<rect width="179" height="156" fill="white"/>
</clipPath>
</defs>
</svg>
