<svg width="179" height="156" viewBox="0 0 179 156" fill="none" xmlns="http://www.w3.org/2000/svg">
<path d="M97.4389 140.55H81.9857C81.3026 140.55 80.6475 140.279 80.1645 139.796C79.6815 139.313 79.4102 138.658 79.4102 137.975V114.156C79.4102 113.473 79.6815 112.818 80.1645 112.335C80.6475 111.852 81.3026 111.581 81.9857 111.581H97.4389C98.122 111.581 98.7771 111.852 99.2601 112.335C99.7431 112.818 100.014 113.473 100.014 114.156V137.975C100.014 138.658 99.7431 139.313 99.2601 139.796C98.7771 140.279 98.122 140.55 97.4389 140.55ZM84.5612 135.4H94.8634V116.731H84.5612V135.4Z" fill="#4263A8"/>
<path d="M176.424 92.0563H2.57554C1.89246 92.0563 1.23737 91.785 0.754358 91.3021C0.271351 90.8191 0 90.1642 0 89.4813C0 88.7983 0.271351 88.1434 0.754358 87.6604C1.23737 87.1775 1.89246 86.9062 2.57554 86.9062H176.424C177.108 86.9062 177.763 87.1775 178.246 87.6604C178.729 88.1434 179 88.7983 179 89.4813C179 90.1642 178.729 90.8191 178.246 91.3021C177.763 91.785 177.108 92.0563 176.424 92.0563Z" fill="#19B4EE"/>
<path d="M176.424 116.731H2.57554C1.89246 116.731 1.23737 116.46 0.754358 115.977C0.271351 115.494 0 114.839 0 114.156V2.575C0 1.89207 0.271351 1.23711 0.754358 0.7542C1.23737 0.271294 1.89246 0 2.57554 0L176.424 0C177.108 0 177.763 0.271294 178.246 0.7542C178.729 1.23711 179 1.89207 179 2.575V114.156C179 114.839 178.729 115.494 178.246 115.977C177.763 116.46 177.108 116.731 176.424 116.731ZM5.15108 111.581H173.849V5.15H5.15108V111.581Z" fill="#8D67C3"/>
<path d="M121.907 156H57.5189C56.8358 156 56.1807 155.729 55.6977 155.246C55.2147 154.763 54.9434 154.108 54.9434 153.425V137.975C54.9434 137.292 55.2147 136.637 55.6977 136.154C56.1807 135.671 56.8358 135.4 57.5189 135.4H121.907C122.59 135.4 123.246 135.671 123.729 136.154C124.212 136.637 124.483 137.292 124.483 137.975V153.425C124.483 154.108 124.212 154.763 123.729 155.246C123.246 155.729 122.59 156 121.907 156ZM60.0944 150.85H119.332V140.55H60.0944V150.85Z" fill="#4263A8"/>
<path d="M69.0251 41.6763C68.8079 41.675 68.5916 41.6469 68.3813 41.5926C67.7214 41.4174 67.1581 40.9874 66.8152 40.3971C66.4723 39.8068 66.3778 39.1046 66.5526 38.4447C67.0948 36.4142 67.9069 34.4656 68.9672 32.651C69.1282 32.3432 69.3498 32.0712 69.6187 31.8514C69.8876 31.6315 70.1981 31.4683 70.5317 31.3715C70.8654 31.2747 71.2151 31.2464 71.5599 31.2883C71.9047 31.3302 72.2375 31.4414 72.5383 31.6152C72.839 31.789 73.1015 32.0218 73.3099 32.2996C73.5183 32.5775 73.6683 32.8946 73.7509 33.2319C73.8336 33.5692 73.8471 33.9198 73.7907 34.2625C73.7344 34.6051 73.6092 34.9329 73.4229 35.226C72.5878 36.65 71.951 38.1812 71.5299 39.7773C71.3806 40.3258 71.054 40.8096 70.6009 41.1531C70.1478 41.4967 69.5938 41.6806 69.0251 41.6763Z" fill="#F376A2"/>
<path d="M100.131 28.795C99.6781 28.7923 99.2339 28.6701 98.8432 28.441C97.4154 27.6101 95.882 26.9757 94.2845 26.5548C93.6615 26.3515 93.1394 25.9185 92.8245 25.3438C92.5097 24.7692 92.4258 24.0961 92.5899 23.4617C92.7541 22.8274 93.1539 22.2795 93.7081 21.9296C94.2622 21.5797 94.9289 21.4542 95.5723 21.5786C97.6183 22.1184 99.5825 22.9303 101.412 23.9926C101.902 24.2766 102.285 24.714 102.501 25.2372C102.717 25.7604 102.754 26.3401 102.608 26.8868C102.461 27.4335 102.138 27.9167 101.69 28.2616C101.241 28.6066 100.691 28.794 100.125 28.795H100.131Z" fill="#F376A2"/>
<path d="M107.825 57.751C107.373 57.7505 106.929 57.6312 106.538 57.405C106.147 57.1788 105.822 56.8537 105.596 56.4624C105.371 56.071 105.252 55.6271 105.252 55.1754C105.252 54.7236 105.371 54.2798 105.597 53.8885C106.427 52.4577 107.064 50.9229 107.49 49.3243C107.564 48.9859 107.705 48.6658 107.906 48.3833C108.106 48.1008 108.362 47.8617 108.657 47.6802C108.952 47.4987 109.281 47.3785 109.623 47.327C109.966 47.2755 110.315 47.2936 110.651 47.3802C110.986 47.4669 111.301 47.6203 111.575 47.8313C111.85 48.0424 112.079 48.3067 112.25 48.6084C112.42 48.9101 112.527 49.243 112.566 49.5873C112.604 49.9315 112.573 50.28 112.474 50.6118C111.93 52.6539 111.118 54.615 110.059 56.4442C109.835 56.8398 109.511 57.1691 109.118 57.3986C108.726 57.6282 108.28 57.7497 107.825 57.751Z" fill="#F376A2"/>
<path d="M84.065 67.5939C83.8477 67.5933 83.6314 67.5652 83.4211 67.5102C81.3914 66.9646 79.4429 66.1529 77.6262 65.0961C77.0345 64.7547 76.6027 64.1922 76.4257 63.5324C76.2488 62.8726 76.3413 62.1696 76.6829 61.578C77.0244 60.9865 77.587 60.5547 78.2469 60.3779C78.9068 60.201 79.61 60.2935 80.2017 60.635C81.6305 61.4654 83.1635 62.1019 84.7604 62.5276C85.3657 62.6857 85.8927 63.0587 86.243 63.5769C86.5933 64.0951 86.743 64.723 86.6642 65.3435C86.5853 65.9639 86.2833 66.5345 85.8145 66.9486C85.3457 67.3627 84.7421 67.5921 84.1165 67.5939H84.065Z" fill="#F376A2"/>
<path d="M71.1757 57.7509C70.724 57.7505 70.2804 57.6313 69.8894 57.4053C69.4984 57.1793 69.1737 56.8545 68.9478 56.4634C67.8853 54.634 67.0732 52.6702 66.5333 50.6246C66.4242 50.2903 66.3847 49.9373 66.4174 49.5871C66.45 49.237 66.554 48.8973 66.7229 48.5889C66.8919 48.2805 67.1223 48.01 67.3998 47.794C67.6773 47.578 67.9962 47.4211 68.3367 47.3331C68.6771 47.245 69.0321 47.2276 69.3796 47.2819C69.727 47.3362 70.0597 47.4611 70.3571 47.6488C70.6545 47.8366 70.9102 48.0833 71.1086 48.3736C71.3069 48.664 71.4437 48.9919 71.5105 49.3371C71.9337 50.9284 72.5705 52.4551 73.4035 53.8756C73.6294 54.2668 73.7484 54.7106 73.7486 55.1624C73.7487 55.6142 73.6299 56.058 73.4042 56.4494C73.1784 56.8408 72.8537 57.1659 72.4625 57.3921C72.0714 57.6183 71.6275 57.7376 71.1757 57.7381V57.7509Z" fill="#F376A2"/>
<path d="M94.9354 67.5937C94.3098 67.592 93.7063 67.3626 93.2374 66.9485C92.7686 66.5344 92.4666 65.9638 92.3877 65.3433C92.3089 64.7229 92.4586 64.0949 92.8089 63.5767C93.1593 63.0586 93.6862 62.6856 94.2915 62.5274C95.8899 62.1094 97.4237 61.4748 98.8502 60.6412C99.143 60.4463 99.4727 60.3133 99.8189 60.2507C100.165 60.188 100.521 60.1969 100.863 60.2769C101.206 60.3568 101.528 60.5061 101.811 60.7155C102.094 60.9249 102.331 61.19 102.507 61.4944C102.683 61.7989 102.795 62.1362 102.836 62.4856C102.877 62.8349 102.846 63.189 102.744 63.5259C102.643 63.8627 102.474 64.1753 102.247 64.4442C102.02 64.7131 101.741 64.9328 101.426 65.0896C99.5961 66.154 97.6319 66.9681 95.5857 67.5101C95.3734 67.5655 95.1548 67.5937 94.9354 67.5937Z" fill="#F376A2"/>
<path d="M109.981 41.6826C109.41 41.6822 108.856 41.4923 108.405 41.1428C107.954 40.7932 107.632 40.3038 107.489 39.7514C107.067 38.1557 106.43 36.6247 105.596 35.2001C105.401 34.9073 105.268 34.5777 105.205 34.2315C105.143 33.8854 105.151 33.5301 105.231 33.1875C105.311 32.845 105.461 32.5224 105.67 32.2398C105.88 31.9572 106.145 31.7204 106.449 31.5442C106.754 31.368 107.091 31.256 107.441 31.2152C107.79 31.1743 108.144 31.2055 108.481 31.3068C108.818 31.4081 109.131 31.5773 109.4 31.804C109.669 32.0307 109.888 32.3102 110.045 32.6251C111.112 34.453 111.927 36.4172 112.466 38.4639C112.564 38.8442 112.574 39.242 112.495 39.6268C112.416 40.0115 112.25 40.3731 112.009 40.6837C111.769 40.9944 111.46 41.2459 111.108 41.419C110.755 41.5922 110.367 41.6823 109.974 41.6826H109.981Z" fill="#F376A2"/>
<path d="M78.864 28.7951C78.2978 28.7941 77.7478 28.6066 77.299 28.2617C76.8501 27.9168 76.5274 27.4336 76.3808 26.8869C76.2342 26.3402 76.2719 25.7604 76.488 25.2373C76.704 24.7141 77.0865 24.2767 77.5762 23.9927C79.3915 22.9333 81.3405 22.1214 83.3711 21.5786C83.7055 21.4696 84.0587 21.4301 84.4089 21.4628C84.759 21.4954 85.0988 21.5994 85.4073 21.7683C85.7158 21.9372 85.9863 22.1675 86.2024 22.445C86.4184 22.7225 86.5753 23.0412 86.6634 23.3817C86.7515 23.7221 86.7689 24.0769 86.7146 24.4244C86.6603 24.7718 86.5354 25.1044 86.3476 25.4017C86.1598 25.699 85.913 25.9547 85.6226 26.153C85.3322 26.3513 85.0042 26.4881 84.6589 26.5548C83.062 26.9805 81.529 27.617 80.1002 28.4475C79.723 28.6633 79.2984 28.7827 78.864 28.7951Z" fill="#F376A2"/>
<path d="M89.4996 57.9892C86.8393 57.9892 84.2387 57.2004 82.0267 55.7228C79.8148 54.2451 78.0908 52.1448 77.0727 49.6875C76.0547 47.2302 75.7883 44.5263 76.3073 41.9176C76.8263 39.309 78.1073 36.9128 79.9885 35.0321C81.8696 33.1514 84.2663 31.8706 86.8755 31.3517C89.4847 30.8328 92.1892 31.0991 94.647 32.1169C97.1048 33.1348 99.2055 34.8584 100.683 37.0699C102.161 39.2814 102.95 41.8815 102.95 44.5412C102.947 48.1068 101.529 51.5253 99.0069 54.0466C96.4852 56.5678 93.0659 57.9857 89.4996 57.9892ZM89.4996 36.2433C87.8581 36.2433 86.2534 36.7299 84.8885 37.6417C83.5237 38.5535 82.4599 39.8495 81.8317 41.3657C81.2035 42.882 81.0391 44.5504 81.3594 46.1601C81.6796 47.7697 82.4701 49.2483 83.6308 50.4087C84.7916 51.5692 86.2704 52.3595 87.8804 52.6797C89.4904 52.9999 91.1592 52.8356 92.6757 52.2075C94.1923 51.5795 95.4885 50.5159 96.4005 49.1513C97.3125 47.7867 97.7993 46.1824 97.7993 44.5412C97.7976 42.341 96.9226 40.2314 95.3665 38.6756C93.8103 37.1198 91.7003 36.245 89.4996 36.2433Z" fill="#1CD0C5"/>
<path d="M94.9332 26.6386C94.2501 26.6386 93.595 26.3673 93.112 25.8843C92.629 25.4014 92.3576 24.7465 92.3576 24.0635V16.4737H86.6335V24.0635C86.6335 24.7465 86.3622 25.4014 85.8791 25.8843C85.3961 26.3673 84.741 26.6386 84.058 26.6386C83.3749 26.6386 82.7198 26.3673 82.2368 25.8843C81.7538 25.4014 81.4824 24.7465 81.4824 24.0635V13.8987C81.4824 13.2158 81.7538 12.5608 82.2368 12.0779C82.7198 11.595 83.3749 11.3237 84.058 11.3237H94.9332C95.6162 11.3237 96.2713 11.595 96.7544 12.0779C97.2374 12.5608 97.5087 13.2158 97.5087 13.8987V24.0635C97.5087 24.7465 97.2374 25.4014 96.7544 25.8843C96.2713 26.3673 95.6162 26.6386 94.9332 26.6386Z" fill="#F376A2"/>
<path d="M71.1741 36.4876C70.8357 36.4879 70.5007 36.4215 70.188 36.2923C69.8754 36.163 69.5912 35.9735 69.3519 35.7344L62.1597 28.5437C61.9202 28.3046 61.7302 28.0206 61.6006 27.708C61.471 27.3954 61.4043 27.0603 61.4043 26.7219C61.4043 26.3835 61.471 26.0484 61.6006 25.7358C61.7302 25.4232 61.9202 25.1393 62.1597 24.9001L69.8477 17.2073C70.087 16.9682 70.3711 16.7787 70.6838 16.6495C70.9965 16.5202 71.3315 16.4538 71.6698 16.4541C72.0082 16.4538 72.3432 16.5202 72.6559 16.6495C72.9686 16.7787 73.2527 16.9682 73.492 17.2073L80.6842 24.398C81.1675 24.8812 81.439 25.5365 81.439 26.2198C81.439 26.9031 81.1675 27.5584 80.6842 28.0416C80.201 28.5248 79.5455 28.7962 78.862 28.7962C78.1786 28.7962 77.5231 28.5248 77.0399 28.0416L71.6698 22.6727L67.6069 26.7219L72.9834 32.0908C73.344 32.4509 73.5896 32.9099 73.6891 33.4097C73.7887 33.9095 73.7377 34.4275 73.5426 34.8983C73.3475 35.3691 73.0171 35.7714 72.5931 36.0543C72.1692 36.3372 71.6709 36.488 71.1612 36.4876H71.1741Z" fill="#F376A2"/>
<path d="M69.0243 52.5493H58.8509C58.1679 52.5493 57.5128 52.278 57.0297 51.7951C56.5467 51.3122 56.2754 50.6572 56.2754 49.9743V39.1014C56.2754 38.4184 56.5467 37.7635 57.0297 37.2806C57.5128 36.7977 58.1679 36.5264 58.8509 36.5264H69.0243C69.7074 36.5264 70.3625 36.7977 70.8455 37.2806C71.3285 37.7635 71.5998 38.4184 71.5998 39.1014C71.5998 39.7843 71.3285 40.4393 70.8455 40.9222C70.3625 41.4051 69.7074 41.6764 69.0243 41.6764H61.4265V47.3993H69.0243C69.7074 47.3993 70.3625 47.6706 70.8455 48.1535C71.3285 48.6364 71.5998 49.2914 71.5998 49.9743C71.5998 50.6572 71.3285 51.3122 70.8455 51.7951C70.3625 52.278 69.7074 52.5493 69.0243 52.5493Z" fill="#F376A2"/>
<path d="M71.6705 72.6277C71.3322 72.6279 70.9972 72.5616 70.6845 72.4323C70.3718 72.3031 70.0877 72.1135 69.8483 71.8745L62.1604 64.1495C61.6787 63.6667 61.4082 63.0127 61.4082 62.3309C61.4082 61.649 61.6787 60.995 62.1604 60.5123L69.3526 53.3216C69.8391 52.8586 70.4872 52.604 71.1589 52.612C71.8305 52.62 72.4724 52.89 72.9478 53.3644C73.4231 53.8388 73.6943 54.4801 73.7035 55.1516C73.7127 55.8231 73.4591 56.4715 72.9969 56.9588L67.6076 62.3663L71.6577 66.4155L77.0277 61.0466C77.5142 60.5836 78.1624 60.329 78.834 60.337C79.5056 60.345 80.1475 60.615 80.6229 61.0894C81.0982 61.5638 81.3694 62.2051 81.3786 62.8766C81.3878 63.5481 81.1342 64.1965 80.672 64.6838L73.4799 71.8745C72.9996 72.3541 72.3494 72.6248 71.6705 72.6277Z" fill="#F376A2"/>
<path d="M94.9332 77.7587H84.058C83.3749 77.7587 82.7198 77.4874 82.2368 77.0045C81.7538 76.5216 81.4824 75.8666 81.4824 75.1837V65.0188C81.4824 64.3359 81.7538 63.681 82.2368 63.198C82.7198 62.7151 83.3749 62.4438 84.058 62.4438C84.741 62.4438 85.3961 62.7151 85.8791 63.198C86.3622 63.681 86.6335 64.3359 86.6335 65.0188V72.6087H92.3576V65.0188C92.3576 64.3359 92.629 63.681 93.112 63.198C93.595 62.7151 94.2501 62.4438 94.9332 62.4438C95.6162 62.4438 96.2713 62.7151 96.7544 63.198C97.2374 63.681 97.5087 64.3359 97.5087 65.0188V75.1837C97.5087 75.8666 97.2374 76.5216 96.7544 77.0045C96.2713 77.4874 95.6162 77.7587 94.9332 77.7587Z" fill="#F376A2"/>
<path d="M107.323 72.6281C106.642 72.6269 105.989 72.3561 105.507 71.8749L98.3149 64.6842C98.0564 64.45 97.8481 64.1657 97.7028 63.8486C97.5575 63.5315 97.4781 63.1881 97.4695 62.8394C97.4609 62.4907 97.5233 62.1439 97.6529 61.82C97.7824 61.4961 97.9764 61.2019 98.2231 60.9552C98.4698 60.7086 98.7641 60.5146 99.088 60.3851C99.412 60.2556 99.7589 60.1932 100.108 60.2018C100.456 60.2104 100.8 60.2897 101.117 60.435C101.434 60.5803 101.719 60.7885 101.953 61.047L107.323 66.4159L111.392 62.3667L106.029 56.9979C105.77 56.7636 105.562 56.4793 105.417 56.1622C105.271 55.8451 105.192 55.5017 105.183 55.153C105.175 54.8043 105.237 54.4575 105.367 54.1336C105.496 53.8097 105.69 53.5155 105.937 53.2688C106.184 53.0222 106.478 52.8282 106.802 52.6987C107.126 52.5692 107.473 52.5068 107.821 52.5154C108.17 52.524 108.514 52.6034 108.831 52.7487C109.148 52.894 109.432 53.1022 109.667 53.3607L116.852 60.5449C117.334 61.0276 117.605 61.6817 117.605 62.3635C117.605 63.0454 117.334 63.6994 116.852 64.1821L109.126 71.9071C108.644 72.3883 107.991 72.6591 107.31 72.6603L107.323 72.6281Z" fill="#F376A2"/>
<path d="M120.149 52.5557H109.982C109.299 52.5557 108.644 52.2844 108.161 51.8015C107.678 51.3186 107.406 50.6636 107.406 49.9807C107.406 49.2977 107.678 48.6428 108.161 48.1599C108.644 47.6769 109.299 47.4057 109.982 47.4057H117.573V41.6827H109.982C109.299 41.6827 108.644 41.4114 108.161 40.9285C107.678 40.4456 107.406 39.7906 107.406 39.1077C107.406 38.4248 107.678 37.7698 108.161 37.2869C108.644 36.804 109.299 36.5327 109.982 36.5327H120.149C120.832 36.5327 121.487 36.804 121.97 37.2869C122.453 37.7698 122.724 38.4248 122.724 39.1077V49.9807C122.724 50.6636 122.453 51.3186 121.97 51.8015C121.487 52.2844 120.832 52.5557 120.149 52.5557Z" fill="#F376A2"/>
<path d="M107.832 36.4812C107.322 36.4816 106.824 36.3308 106.4 36.0479C105.976 35.7649 105.645 35.3626 105.45 34.8919C105.255 34.4211 105.204 33.903 105.304 33.4033C105.403 32.9035 105.649 32.4445 106.01 32.0844L111.392 26.7219L107.342 22.6727L101.972 28.0416C101.735 28.2906 101.451 28.4896 101.136 28.6269C100.821 28.7642 100.481 28.8371 100.137 28.8412C99.7937 28.8453 99.4526 28.7805 99.1343 28.6507C98.816 28.521 98.5269 28.3288 98.284 28.0855C98.0411 27.8423 97.8494 27.5529 97.7202 27.2344C97.5909 26.9159 97.5268 26.5748 97.5315 26.2311C97.5362 25.8875 97.6097 25.5482 97.7476 25.2334C97.8855 24.9185 98.085 24.6345 98.3345 24.398L105.527 17.2073C106.008 16.7261 106.661 16.4553 107.342 16.4541C108.023 16.4553 108.676 16.7261 109.158 17.2073L116.885 24.9323C117.124 25.1714 117.314 25.4554 117.444 25.768C117.573 26.0806 117.64 26.4157 117.64 26.7541C117.64 27.0925 117.573 27.4276 117.444 27.7402C117.314 28.0528 117.124 28.3368 116.885 28.5759L109.648 35.728C109.166 36.2092 108.513 36.48 107.832 36.4812Z" fill="#F376A2"/>
</svg>
