<svg width="157" height="158" viewBox="0 0 157 158" fill="none" xmlns="http://www.w3.org/2000/svg">
<g clip-path="url(#clip0)">
<path d="M78.1483 23.302C75.8459 23.3032 73.5949 22.621 71.68 21.3418C69.7652 20.0626 68.2725 18.2439 67.3909 16.1158C66.5093 13.9876 66.2784 11.6456 66.7273 9.38612C67.1762 7.12661 68.2848 5.05107 69.9128 3.42209C71.5408 1.79311 73.6152 0.683881 75.8734 0.234722C78.1316 -0.214437 80.4722 0.0166594 82.5991 0.898776C84.7261 1.78089 86.5437 3.27439 87.8222 5.19034C89.1006 7.10629 89.7824 9.35859 89.7813 11.6623C89.7768 14.748 88.5497 17.706 86.3691 19.8879C84.1884 22.0697 81.2321 23.2975 78.1483 23.302ZM78.1483 4.54663C76.7449 4.54551 75.3726 4.96088 74.2052 5.7402C73.0378 6.51953 72.1276 7.62779 71.5897 8.92479C71.0519 10.2218 70.9106 11.6493 71.1837 13.0267C71.4568 14.404 72.132 15.6694 73.124 16.6627C74.1159 17.6561 75.3801 18.3327 76.7564 18.6071C78.1328 18.8814 79.5595 18.7412 80.8562 18.2041C82.1529 17.667 83.2613 16.7571 84.0411 15.5896C84.8209 14.4222 85.2371 13.0495 85.2371 11.6453C85.2356 9.76403 84.4885 7.9602 83.1595 6.62944C81.8306 5.29868 80.0284 4.54964 78.1483 4.54663Z" fill="#19B4EE"/>
<path d="M98.0453 43.6207C97.4427 43.6207 96.8648 43.3812 96.4387 42.9548C96.0126 42.5285 95.7732 41.9503 95.7732 41.3473C95.7732 36.6429 93.9055 32.1312 90.5809 28.8046C87.2563 25.4781 82.7471 23.6093 78.0454 23.6093C73.3437 23.6093 68.8345 25.4781 65.5099 28.8046C62.1853 32.1312 60.3176 36.6429 60.3176 41.3473C60.3176 41.9503 60.0782 42.5285 59.6521 42.9548C59.226 43.3812 58.6481 43.6207 58.0455 43.6207C57.4429 43.6207 56.865 43.3812 56.4389 42.9548C56.0128 42.5285 55.7734 41.9503 55.7734 41.3473C55.7734 35.437 58.1199 29.7688 62.2967 25.5896C66.4735 21.4104 72.1385 19.0625 78.0454 19.0625C83.9523 19.0625 89.6173 21.4104 93.7941 25.5896C97.9709 29.7688 100.317 35.437 100.317 41.3473C100.317 41.9503 100.078 42.5285 99.6519 42.9548C99.2258 43.3812 98.6479 43.6207 98.0453 43.6207Z" fill="#19B4EE"/>
<path d="M98.0453 43.6205H58.0455C57.4429 43.6205 56.865 43.381 56.4389 42.9546C56.0128 42.5283 55.7734 41.9501 55.7734 41.3471C55.7734 40.7442 56.0128 40.1659 56.4389 39.7396C56.865 39.3132 57.4429 39.0737 58.0455 39.0737H98.0453C98.6479 39.0737 99.2258 39.3132 99.6519 39.7396C100.078 40.1659 100.317 40.7442 100.317 41.3471C100.317 41.9501 100.078 42.5283 99.6519 42.9546C99.2258 43.381 98.6479 43.6205 98.0453 43.6205Z" fill="#19B4EE"/>
<path d="M22.3731 137.664C20.0709 137.664 17.8205 136.981 15.9064 135.701C13.9923 134.421 12.5005 132.602 11.6198 130.474C10.739 128.346 10.5089 126.004 10.9584 123.745C11.408 121.486 12.517 119.411 14.1453 117.782C15.7735 116.154 17.8479 115.045 20.1059 114.597C22.364 114.148 24.7043 114.379 26.8309 115.262C28.9575 116.144 30.7748 117.637 32.053 119.553C33.3312 121.469 34.0129 123.721 34.0117 126.025C34.0072 129.111 32.7794 132.07 30.5975 134.252C28.4157 136.434 25.4579 137.661 22.3731 137.664ZM22.3731 118.909C20.9699 118.909 19.5982 119.325 18.4315 120.105C17.2649 120.885 16.3555 121.994 15.8186 123.291C15.2816 124.588 15.1411 126.015 15.4148 127.392C15.6886 128.769 16.3643 130.034 17.3565 131.027C18.3486 132.02 19.6128 132.696 20.989 132.97C22.3652 133.244 23.7917 133.103 25.088 132.566C26.3844 132.029 27.4924 131.119 28.2719 129.951C29.0515 128.784 29.4676 127.412 29.4676 126.008C29.4616 124.128 28.7117 122.328 27.382 121.001C26.0523 119.674 24.2512 118.927 22.3731 118.926V118.909Z" fill="#F376A2"/>
<path d="M42.2719 158C41.6693 158 41.0914 157.761 40.6653 157.334C40.2392 156.908 39.9998 156.33 39.9998 155.727C39.9998 151.022 38.132 146.511 34.8074 143.184C31.4828 139.857 26.9737 137.989 22.272 137.989C17.5702 137.989 13.0611 139.857 9.7365 143.184C6.41189 146.511 4.54414 151.022 4.54414 155.727C4.54414 156.33 4.30476 156.908 3.87867 157.334C3.45257 157.761 2.87466 158 2.27207 158C1.66948 158 1.09157 157.761 0.665474 157.334C0.239378 156.908 0 156.33 0 155.727C0 149.816 2.3465 144.148 6.52331 139.969C10.7001 135.79 16.3651 133.442 22.272 133.442C28.1789 133.442 33.8438 135.79 38.0206 139.969C42.1974 144.148 44.5439 149.816 44.5439 155.727C44.5439 156.33 44.3045 156.908 43.8784 157.334C43.4524 157.761 42.8744 158 42.2719 158Z" fill="#F376A2"/>
<path d="M42.2719 158H2.27207C1.66948 158 1.09157 157.76 0.665474 157.334C0.239378 156.908 0 156.329 0 155.727C0 155.124 0.239378 154.545 0.665474 154.119C1.09157 153.693 1.66948 153.453 2.27207 153.453H42.2719C42.8744 153.453 43.4524 153.693 43.8784 154.119C44.3045 154.545 44.5439 155.124 44.5439 155.727C44.5439 156.329 44.3045 156.908 43.8784 157.334C43.4524 157.76 42.8744 158 42.2719 158Z" fill="#F376A2"/>
<path d="M134.828 137.664C132.526 137.665 130.275 136.983 128.36 135.704C126.445 134.425 124.952 132.606 124.071 130.478C123.189 128.35 122.958 126.008 123.407 123.748C123.856 121.489 124.964 119.413 126.592 117.784C128.221 116.155 130.295 115.046 132.553 114.597C134.811 114.148 137.152 114.379 139.279 115.261C141.406 116.143 143.223 117.637 144.502 119.553C145.78 121.469 146.462 123.721 146.461 126.025C146.456 129.11 145.229 132.068 143.049 134.25C140.868 136.432 137.912 137.66 134.828 137.664ZM134.828 118.909C133.425 118.908 132.052 119.323 130.885 120.103C129.717 120.882 128.807 121.99 128.269 123.287C127.732 124.584 127.59 126.012 127.863 127.389C128.136 128.766 128.812 130.032 129.804 131.025C130.796 132.018 132.06 132.695 133.436 132.969C134.812 133.244 136.239 133.104 137.536 132.566C138.833 132.029 139.941 131.119 140.721 129.952C141.501 128.784 141.917 127.412 141.917 126.008C141.911 124.129 141.162 122.33 139.833 121.003C138.505 119.676 136.705 118.929 134.828 118.926V118.909Z" fill="#8D67C3"/>
<path d="M154.729 158C154.127 158 153.549 157.761 153.123 157.334C152.697 156.908 152.457 156.33 152.457 155.727C152.517 153.36 152.103 151.006 151.239 148.802C150.376 146.598 149.08 144.59 147.428 142.895C145.777 141.2 143.803 139.853 141.623 138.933C139.443 138.013 137.101 137.54 134.735 137.54C132.369 137.54 130.027 138.013 127.847 138.933C125.667 139.853 123.693 141.2 122.042 142.895C120.39 144.59 119.095 146.598 118.231 148.802C117.367 151.006 116.953 153.36 117.013 155.727C117.013 156.33 116.774 156.908 116.347 157.334C115.921 157.761 115.343 158 114.741 158C114.138 158 113.56 157.761 113.134 157.334C112.708 156.908 112.469 156.33 112.469 155.727C112.469 149.816 114.815 144.148 118.992 139.969C123.169 135.79 128.834 133.442 134.741 133.442C140.648 133.442 146.313 135.79 150.489 139.969C154.666 144.148 157.013 149.816 157.013 155.727C157.013 156.026 156.954 156.323 156.839 156.599C156.724 156.876 156.555 157.127 156.343 157.338C156.131 157.55 155.879 157.717 155.602 157.83C155.325 157.944 155.029 158.002 154.729 158Z" fill="#8D67C3"/>
<path d="M154.729 158H114.741C114.138 158 113.56 157.76 113.134 157.334C112.708 156.908 112.469 156.329 112.469 155.727C112.469 155.124 112.708 154.545 113.134 154.119C113.56 153.693 114.138 153.453 114.741 153.453H154.729C155.332 153.453 155.91 153.693 156.336 154.119C156.762 154.545 157.001 155.124 157.001 155.727C157.001 156.329 156.762 156.908 156.336 157.334C155.91 157.76 155.332 158 154.729 158Z" fill="#8D67C3"/>
<path d="M78.0299 80.7559C77.4273 80.7559 76.8494 80.5164 76.4233 80.0901C75.9972 79.6637 75.7578 79.0855 75.7578 78.4825V53.0434C75.7586 52.594 75.8925 52.1549 76.1425 51.7816C76.3926 51.4083 76.7476 51.1175 77.1628 50.946C77.5779 50.7745 78.0346 50.7299 78.475 50.818C78.9155 50.906 79.32 51.1227 79.6374 51.4407L91.2477 63.052C91.4761 63.2584 91.6602 63.509 91.7889 63.7888C91.9176 64.0685 91.9882 64.3715 91.9963 64.6794C92.0044 64.9872 91.9499 65.2935 91.8361 65.5797C91.7224 65.8658 91.5517 66.1258 91.3344 66.344C91.1172 66.5621 90.8579 66.7338 90.5723 66.8487C90.2868 66.9635 89.9808 67.0191 89.6731 67.0121C89.3654 67.0051 89.0624 66.9356 88.7823 66.8078C88.5023 66.68 88.2511 66.4967 88.044 66.2688L80.302 58.5393V78.4882C80.3004 79.0902 80.0604 79.667 79.6345 80.0921C79.2085 80.5172 78.6315 80.7559 78.0299 80.7559Z" fill="#1CD0C5"/>
<path d="M78.1649 80.7561C77.5623 80.7561 76.9844 80.5166 76.5583 80.0903C76.1322 79.6639 75.8928 79.0857 75.8928 78.4828V58.5395L68.1621 66.269C67.951 66.4802 67.7004 66.6478 67.4245 66.7621C67.1487 66.8764 66.8531 66.9352 66.5546 66.9352C66.256 66.9352 65.9604 66.8764 65.6846 66.7621C65.4088 66.6478 65.1582 66.4802 64.9471 66.269C64.736 66.0578 64.5685 65.807 64.4543 65.5311C64.3401 65.2551 64.2812 64.9593 64.2812 64.6606C64.2812 64.3619 64.3401 64.0661 64.4543 63.7901C64.5685 63.5142 64.736 63.2634 64.9471 63.0522L76.5574 51.4409C76.8751 51.1249 77.2791 50.9099 77.7186 50.8229C78.158 50.736 78.6134 50.781 79.0274 50.9523C79.4414 51.1236 79.7955 51.4135 80.0453 51.7856C80.2951 52.1577 80.4294 52.5954 80.4313 53.0436V78.4828C80.4313 79.0847 80.1926 79.6621 79.7678 80.0883C79.3429 80.5145 78.7665 80.7546 78.1649 80.7561Z" fill="#1CD0C5"/>
<path d="M110.962 113.612H94.5466C93.944 113.612 93.3661 113.373 92.94 112.946C92.5139 112.52 92.2745 111.942 92.2745 111.339C92.2745 110.736 92.5139 110.158 92.94 109.731C93.3661 109.305 93.944 109.066 94.5466 109.066H105.475L76.5063 80.08C76.0986 79.6498 75.8749 79.0773 75.883 78.4845C75.8911 77.8917 76.1304 77.3255 76.5497 76.9066C76.9691 76.4878 77.5353 76.2494 78.1278 76.2423C78.7203 76.2353 79.2921 76.4601 79.7213 76.8688L112.558 109.719C112.877 110.037 113.093 110.442 113.181 110.884C113.269 111.325 113.224 111.782 113.052 112.198C112.88 112.613 112.588 112.969 112.214 113.218C111.84 113.468 111.401 113.601 110.951 113.601L110.962 113.612Z" fill="#1CD0C5"/>
<path d="M110.865 113.709C110.567 113.709 110.271 113.65 109.995 113.536C109.719 113.422 109.469 113.255 109.258 113.044L76.4205 80.1877C76.2008 79.9785 76.0252 79.7274 75.9041 79.4493C75.7829 79.1711 75.7186 78.8715 75.715 78.568C75.7114 78.2646 75.7685 77.9636 75.883 77.6826C75.9975 77.4016 76.1671 77.1464 76.3817 76.932C76.5964 76.7176 76.8517 76.5484 77.1327 76.4344C77.4138 76.3203 77.7148 76.2636 78.018 76.2678C78.3212 76.2719 78.6206 76.3368 78.8984 76.4585C79.1762 76.5802 79.4268 76.7564 79.6355 76.9766L108.604 105.962V95.0101C108.604 94.4072 108.844 93.829 109.27 93.4026C109.696 92.9763 110.274 92.7368 110.876 92.7368C111.479 92.7368 112.057 92.9763 112.483 93.4026C112.909 93.829 113.148 94.4072 113.148 95.0101V111.435C113.149 111.885 113.016 112.326 112.766 112.7C112.516 113.074 112.161 113.366 111.745 113.538C111.466 113.651 111.167 113.709 110.865 113.709Z" fill="#1CD0C5"/>
<path d="M45.3346 113.709C45.0365 113.71 44.7412 113.652 44.4655 113.539C44.0499 113.366 43.6946 113.075 43.4449 112.7C43.1951 112.326 43.062 111.886 43.0625 111.436V95.0105C43.0625 94.4075 43.3019 93.8293 43.728 93.4029C44.1541 92.9766 44.732 92.7371 45.3346 92.7371C45.9372 92.7371 46.5151 92.9766 46.9412 93.4029C47.3673 93.8293 47.6066 94.4075 47.6066 95.0105V105.945L76.5755 76.9598C76.7822 76.7316 77.033 76.5478 77.3129 76.4195C77.5927 76.2912 77.8956 76.2212 78.2033 76.2136C78.511 76.206 78.817 76.2611 79.1028 76.3754C79.3886 76.4897 79.6482 76.661 79.8658 76.8788C80.0835 77.0965 80.2546 77.3563 80.3689 77.6422C80.4832 77.9282 80.5382 78.2344 80.5306 78.5422C80.523 78.8501 80.453 79.1532 80.3248 79.4332C80.1966 79.7132 80.0129 79.9642 79.7848 80.171L46.9421 113.044C46.7309 113.255 46.4803 113.422 46.2044 113.537C45.9286 113.651 45.633 113.709 45.3346 113.709Z" fill="#1CD0C5"/>
<path d="M61.6544 113.612H45.2387C44.7891 113.613 44.3494 113.479 43.9755 113.23C43.6015 112.98 43.31 112.625 43.1379 112.209C42.9658 111.793 42.9208 111.336 43.0086 110.895C43.0964 110.454 43.3131 110.048 43.6312 109.73L76.4626 76.8801C76.8918 76.4713 77.4636 76.2465 78.0561 76.2536C78.6486 76.2606 79.2149 76.499 79.6342 76.9178C80.0536 77.3367 80.2928 77.9029 80.3009 78.4957C80.309 79.0885 80.0853 79.661 79.6776 80.0912L50.7087 109.077H61.643C62.2456 109.077 62.8235 109.316 63.2496 109.743C63.6757 110.169 63.9151 110.747 63.9151 111.35C63.9151 111.953 63.6757 112.531 63.2496 112.958C62.8235 113.384 62.2456 113.624 61.643 113.624L61.6544 113.612Z" fill="#1CD0C5"/>
</g>
<defs>
<clipPath id="clip0">
<rect width="157" height="158" fill="white"/>
</clipPath>
</defs>
</svg>
