<svg width="157" height="158" viewBox="0 0 157 158" fill="none" xmlns="http://www.w3.org/2000/svg">
<g clip-path="url(#clip0)">
<path d="M71.4343 79.8382C71.1371 79.8377 70.843 79.7784 70.5687 79.6637C70.2945 79.549 70.0455 79.3811 69.836 79.1697L47.4712 56.7432C47.2611 56.5327 47.0945 56.2828 46.9808 56.0078C46.8671 55.7327 46.8086 55.4378 46.8086 55.1401C46.8086 54.8423 46.8671 54.5474 46.9808 54.2724C47.0945 53.9973 47.2611 53.7474 47.4712 53.5369L79.4201 21.4917C79.6299 21.281 79.8791 21.1139 80.1533 20.9999C80.4276 20.8858 80.7215 20.8271 81.0184 20.8271C81.3153 20.8271 81.6093 20.8858 81.8835 20.9999C82.1577 21.1139 82.4069 21.281 82.6167 21.4917L104.982 43.9239C105.192 44.1344 105.358 44.3843 105.472 44.6594C105.586 44.9344 105.644 45.2293 105.644 45.5271C105.644 45.8248 105.586 46.1197 105.472 46.3948C105.358 46.6698 105.192 46.9197 104.982 47.1302L73.0326 79.1697C72.8231 79.3811 72.5741 79.549 72.2998 79.6637C72.0256 79.7784 71.7314 79.8377 71.4343 79.8382ZM52.266 55.1401L71.4343 74.3661L100.187 45.5271L81.0184 26.301L52.266 55.1401Z" fill="#1CD0C5"/>
<path d="M108.57 90.3182C108.271 90.3185 107.985 90.2004 107.773 89.9897L91.7961 73.9642C91.6911 73.859 91.6078 73.7341 91.5509 73.5965C91.4941 73.459 91.4648 73.3116 91.4648 73.1627C91.4648 73.0138 91.4941 72.8664 91.5509 72.7288C91.6078 72.5913 91.6911 72.4663 91.7961 72.3611L98.1837 65.9543C98.2886 65.849 98.4131 65.7654 98.5503 65.7084C98.6874 65.6514 98.8344 65.6221 98.9828 65.6221C99.1312 65.6221 99.2782 65.6514 99.4154 65.7084C99.5525 65.7654 99.677 65.849 99.7819 65.9543L115.776 81.9741C115.881 82.0793 115.965 82.2043 116.021 82.3418C116.078 82.4794 116.107 82.6268 116.107 82.7757C116.107 82.9246 116.078 83.072 116.021 83.2095C115.965 83.3471 115.881 83.472 115.776 83.5772L109.383 89.9897C109.276 90.096 109.149 90.1799 109.009 90.2363C108.87 90.2928 108.72 90.3206 108.57 90.3182ZM94.1907 73.1655L108.57 87.5822L113.359 82.7785L98.9856 68.3562L94.1907 73.1655Z" fill="#4263A8"/>
<path d="M145.71 131.359C144.225 131.36 142.754 131.066 141.383 130.494C140.012 129.921 138.769 129.081 137.724 128.022L112.163 102.406C111.953 102.196 111.786 101.946 111.672 101.671C111.559 101.396 111.5 101.101 111.5 100.803C111.5 100.505 111.559 100.211 111.672 99.9355C111.786 99.6604 111.953 99.4105 112.163 99.2001L124.943 86.3809C125.153 86.1702 125.402 86.0031 125.676 85.889C125.951 85.775 126.245 85.7163 126.542 85.7163C126.838 85.7163 127.132 85.775 127.407 85.889C127.681 86.0031 127.93 86.1702 128.14 86.3809L153.696 112.019C155.275 113.604 156.35 115.622 156.786 117.82C157.221 120.017 156.998 122.295 156.143 124.364C155.288 126.434 153.841 128.204 151.984 129.449C150.127 130.693 147.943 131.358 145.71 131.359ZM116.957 100.832L140.921 124.861C141.55 125.495 142.298 125.998 143.122 126.341C143.946 126.684 144.829 126.861 145.721 126.861C146.613 126.861 147.496 126.684 148.32 126.341C149.144 125.998 149.892 125.495 150.522 124.861C151.153 124.23 151.655 123.479 151.997 122.653C152.339 121.827 152.515 120.941 152.515 120.046C152.515 119.152 152.339 118.266 151.997 117.439C151.655 116.613 151.153 115.863 150.522 115.231L126.542 91.2015L116.957 100.832Z" fill="#8D67C3"/>
<path d="M108.172 52.5966C107.875 52.5969 107.581 52.5384 107.307 52.4247C107.033 52.311 106.783 52.1442 106.574 51.9338L74.6246 19.8886C74.2021 19.4638 73.9648 18.8883 73.9648 18.2883C73.9648 17.6883 74.2021 17.1128 74.6246 16.6881L90.6019 0.6626C90.8117 0.451926 91.0608 0.284797 91.3351 0.170768C91.6093 0.0567392 91.9033 -0.00195312 92.2002 -0.00195312C92.4971 -0.00195313 92.791 0.0567392 93.0653 0.170768C93.3395 0.284797 93.5887 0.451926 93.7985 0.6626L125.747 32.7078C125.957 32.9183 126.124 33.1682 126.238 33.4433C126.351 33.7183 126.41 34.0132 126.41 34.311C126.41 34.6087 126.351 34.9036 126.238 35.1786C126.124 35.4537 125.957 35.7036 125.747 35.9141L109.77 51.9338C109.56 52.1442 109.311 52.311 109.037 52.4247C108.762 52.5384 108.469 52.5969 108.172 52.5966ZM79.4195 18.2855L108.172 47.1302L120.953 34.311L92.2002 5.47193L79.4195 18.2855Z" fill="#1CD0C5"/>
<path d="M60.2489 100.667C59.9517 100.667 59.6576 100.608 59.3833 100.493C59.1091 100.378 58.8601 100.21 58.6506 99.999L26.7016 67.9764C26.4916 67.766 26.325 67.5161 26.2113 67.241C26.0976 66.9659 26.0391 66.6711 26.0391 66.3733C26.0391 66.0755 26.0976 65.7807 26.2113 65.5056C26.325 65.2305 26.4916 64.9806 26.7016 64.7702L42.6789 48.7164C43.1024 48.2927 43.6762 48.0547 44.2744 48.0547C44.8726 48.0547 45.4464 48.2927 45.8699 48.7164L77.8188 80.7617C78.0289 80.9721 78.1955 81.222 78.3092 81.4971C78.4229 81.7721 78.4814 82.067 78.4814 82.3648C78.4814 82.6625 78.4229 82.9574 78.3092 83.2325C78.1955 83.5075 78.0289 83.7574 77.8188 83.9679L61.8472 99.9877C61.6386 100.201 61.39 100.371 61.1157 100.488C60.8414 100.604 60.5468 100.665 60.2489 100.667ZM31.4965 66.3563L60.2489 95.1953L73.0296 82.3761L44.2772 53.5371L31.4965 66.3563Z" fill="#1CD0C5"/>
<path d="M24.8498 158C19.935 158 15.1305 156.538 11.044 153.799C6.95748 151.06 3.77241 147.168 1.89159 142.613C0.0107671 138.059 -0.481342 133.047 0.477493 128.213C1.43633 123.378 3.80304 118.936 7.27835 115.451C10.7537 111.965 15.1815 109.591 20.0019 108.629C24.8223 107.668 29.8187 108.161 34.3594 110.048C38.9001 111.934 42.7812 115.129 45.5117 119.228C48.2422 123.327 49.6996 128.145 49.6996 133.075C49.6922 139.683 47.0717 146.019 42.413 150.691C37.7544 155.364 31.4381 157.992 24.8498 158ZM24.8498 112.682C20.8286 112.682 16.8977 113.878 13.5542 116.119C10.2106 118.36 7.60467 121.545 6.06581 125.271C4.52696 128.997 4.12432 133.098 4.90883 137.054C5.69333 141.009 7.62973 144.643 10.4732 147.495C13.3166 150.347 16.9394 152.289 20.8833 153.076C24.8273 153.863 28.9153 153.459 32.6304 151.916C36.3455 150.372 39.5209 147.758 41.755 144.405C43.9891 141.051 45.1815 137.108 45.1815 133.075C45.1815 130.397 44.6556 127.745 43.6338 125.271C42.6121 122.797 41.1145 120.549 39.2265 118.655C37.3385 116.761 35.0972 115.259 32.6304 114.234C30.1637 113.21 27.5198 112.682 24.8498 112.682Z" fill="#F376A2"/>
<path d="M24.8487 148.914C21.7211 148.914 18.6637 147.984 16.0632 146.241C13.4626 144.498 11.4358 142.021 10.2389 139.122C9.04201 136.224 8.72885 133.035 9.33902 129.958C9.94918 126.881 11.4553 124.055 13.6668 121.837C15.8784 119.619 18.6961 118.108 21.7636 117.496C24.8311 116.884 28.0107 117.198 30.9002 118.399C33.7898 119.599 36.2595 121.632 37.9971 124.241C39.7347 126.849 40.6622 129.916 40.6622 133.053C40.6622 137.259 38.9961 141.294 36.0305 144.268C33.0649 147.243 29.0427 148.914 24.8487 148.914ZM24.8487 119.525C22.1679 119.525 19.5473 120.323 17.3182 121.816C15.0892 123.31 13.3519 125.434 12.326 127.918C11.3001 130.402 11.0317 133.136 11.5547 135.773C12.0777 138.41 13.3686 140.833 15.2642 142.734C17.1599 144.635 19.575 145.93 22.2043 146.455C24.8336 146.979 27.559 146.71 30.0357 145.681C32.5125 144.652 34.6294 142.909 36.1188 140.674C37.6082 138.438 38.4031 135.809 38.4031 133.121C38.4031 129.515 36.9751 126.057 34.4331 123.507C31.8912 120.958 28.4435 119.525 24.8487 119.525Z" fill="#F376A2"/>
</g>
<defs>
<clipPath id="clip0">
<rect width="157" height="158" fill="white"/>
</clipPath>
</defs>
</svg>
