<svg width="159" height="159" viewBox="0 0 159 159" fill="none" xmlns="http://www.w3.org/2000/svg">
<g clip-path="url(#clip0)">
<path d="M26.7678 62.6332C26.3989 62.6332 26.0356 62.5439 25.7086 62.3731C25.3817 62.2022 25.1009 61.9548 24.8903 61.652C24.6796 61.3492 24.5453 61 24.4987 60.6341C24.4522 60.2681 24.4949 59.8964 24.623 59.5505C27.5808 51.5534 32.2339 44.2911 38.263 38.2619C44.2922 32.2328 51.5545 27.5797 59.5516 24.6219C59.8346 24.5111 60.1369 24.4577 60.4408 24.465C60.7447 24.4723 61.044 24.5401 61.3214 24.6644C61.5988 24.7886 61.8487 24.967 62.0564 25.1889C62.2641 25.4109 62.4255 25.672 62.5311 25.957C62.6368 26.242 62.6846 26.5452 62.6717 26.8489C62.6588 27.1526 62.5856 27.4507 62.4562 27.7258C62.3268 28.0009 62.144 28.2474 61.9182 28.451C61.6925 28.6546 61.4285 28.8111 61.1416 28.9115C53.7629 31.6412 47.0621 35.9349 41.4991 41.498C35.936 47.061 31.6423 53.7618 28.9126 61.1405C28.7503 61.5785 28.4577 61.9564 28.0743 62.2232C27.6909 62.4901 27.235 62.6332 26.7678 62.6332Z" fill="#8D67C3"/>
<path d="M98.946 136.065C98.4068 136.064 97.8853 135.873 97.4735 135.525C97.0616 135.177 96.7859 134.695 96.6949 134.163C96.6039 133.632 96.7036 133.085 96.9763 132.62C97.249 132.155 97.6771 131.801 98.1853 131.621C105.884 128.879 112.877 124.458 118.656 118.679C124.435 112.9 128.856 105.907 131.598 98.2083C131.69 97.9155 131.841 97.6444 132.04 97.4109C132.239 97.1775 132.483 96.9865 132.758 96.8494C133.033 96.7123 133.332 96.6318 133.638 96.6128C133.945 96.5938 134.252 96.6366 134.541 96.7387C134.831 96.8408 135.097 97.0001 135.323 97.2072C135.55 97.4142 135.732 97.6647 135.86 97.9438C135.988 98.2228 136.058 98.5247 136.067 98.8316C136.076 99.1384 136.022 99.4438 135.911 99.7296C132.94 108.072 128.15 115.649 121.888 121.911C115.626 128.173 108.049 132.963 99.7067 135.934C99.4627 136.022 99.2053 136.066 98.946 136.065Z" fill="#8D67C3"/>
<path d="M60.0994 135.647C59.8237 135.648 59.5503 135.598 59.2929 135.499C51.1557 132.455 43.7912 127.651 37.7256 121.432C31.6599 115.212 27.0429 107.729 24.2043 99.5178C24.1059 99.2339 24.0644 98.9334 24.0821 98.6334C24.0999 98.3335 24.1765 98.04 24.3077 97.7696C24.5726 97.2237 25.0436 96.8053 25.617 96.6066C26.1904 96.4079 26.8192 96.4451 27.3651 96.71C27.9111 96.975 28.3294 97.4459 28.5282 98.0193C31.1449 105.599 35.4041 112.508 41.0013 118.25C46.5984 123.993 53.3953 128.428 60.9058 131.238C61.4058 131.427 61.8236 131.786 62.0866 132.252C62.3496 132.718 62.4411 133.261 62.3452 133.787C62.2494 134.313 61.9722 134.789 61.5619 135.132C61.1517 135.475 60.6342 135.663 60.0994 135.665V135.647Z" fill="#8D67C3"/>
<path d="M133.359 62.3875C132.895 62.3872 132.441 62.2452 132.059 61.9806C131.677 61.7159 131.384 61.3412 131.22 60.9062C128.41 53.3957 123.975 46.5988 118.233 41.0016C112.49 35.4045 105.582 31.1452 98.0018 28.5285C97.4285 28.3276 96.9584 27.907 96.6951 27.3595C96.4318 26.8119 96.3967 26.1822 96.5977 25.6088C96.7987 25.0354 97.2192 24.5653 97.7668 24.302C98.3144 24.0387 98.9441 24.0037 99.5175 24.2047C107.732 27.0411 115.218 31.6572 121.441 37.7229C127.664 43.7887 132.47 51.1543 135.516 59.2933C135.729 59.8607 135.708 60.4895 135.459 61.0418C135.209 61.594 134.75 62.0246 134.183 62.2388C133.92 62.3399 133.641 62.3904 133.359 62.3875Z" fill="#8D67C3"/>
<path d="M79.5003 44.0396C75.1452 44.0396 70.8879 42.7481 67.2667 40.3286C63.6456 37.909 60.8233 34.47 59.1566 30.4464C57.49 26.4228 57.0539 21.9954 57.9036 17.7239C58.7532 13.4525 60.8504 9.52898 63.9299 6.44946C67.0094 3.36993 70.933 1.27275 75.2044 0.423114C79.4758 -0.426524 83.9033 0.00954082 87.9269 1.67617C91.9505 3.34279 95.3895 6.16512 97.809 9.78626C100.229 13.4074 101.52 17.6647 101.52 22.0198C101.514 27.8579 99.1921 33.4552 95.0639 37.5834C90.9357 41.7116 85.3384 44.0335 79.5003 44.0396ZM79.5003 4.57555C76.0501 4.57555 72.6774 5.59864 69.8088 7.51543C66.9401 9.43223 64.7042 12.1567 63.3839 15.3442C62.0636 18.5317 61.7181 22.0391 62.3912 25.423C63.0643 28.8069 64.7257 31.9151 67.1653 34.3547C69.6049 36.7944 72.7132 38.4558 76.0971 39.1288C79.4809 39.8019 82.9884 39.4565 86.1759 38.1362C89.3634 36.8159 92.0878 34.58 94.0046 31.7113C95.9214 28.8426 96.9445 25.4699 96.9445 22.0198C96.94 17.3947 95.1006 12.9603 91.8302 9.68987C88.5597 6.41942 84.1254 4.58009 79.5003 4.57555Z" fill="#19B4EE"/>
<path d="M136.981 101.52C132.626 101.52 128.368 100.228 124.747 97.8086C121.126 95.389 118.304 91.95 116.637 87.9264C114.97 83.9028 114.534 79.4753 115.384 75.2039C116.234 70.9325 118.331 67.009 121.41 63.9294C124.49 60.8499 128.413 58.7527 132.685 57.9031C136.956 57.0535 141.384 57.4895 145.407 59.1561C149.431 60.8228 152.87 63.6451 155.29 67.2662C157.709 70.8874 159.001 75.1447 159.001 79.4998C158.994 85.3379 156.673 90.9352 152.544 95.0634C148.416 99.1916 142.819 101.514 136.981 101.52ZM136.981 62.0555C133.531 62.0555 130.158 63.0786 127.289 64.9954C124.421 66.9122 122.185 69.6366 120.864 72.8242C119.544 76.0117 119.199 79.5191 119.872 82.903C120.545 86.2868 122.206 89.3951 124.646 91.8347C127.085 94.2743 130.194 95.9357 133.578 96.6088C136.961 97.2819 140.469 96.9365 143.656 95.6162C146.844 94.2958 149.568 92.06 151.485 89.1913C153.402 86.3226 154.425 82.9499 154.425 79.4998C154.42 74.8747 152.581 70.4403 149.311 67.1698C146.04 63.8994 141.606 62.0601 136.981 62.0555Z" fill="#F376A2"/>
<path d="M22.0198 101.52C17.6647 101.52 13.4074 100.228 9.78626 97.8086C6.16512 95.389 3.34279 91.95 1.67617 87.9264C0.00954082 83.9028 -0.426524 79.4753 0.423114 75.2039C1.27275 70.9325 3.36993 67.009 6.44946 63.9294C9.52898 60.8499 13.4525 58.7527 17.7239 57.9031C21.9954 57.0535 26.4228 57.4895 30.4464 59.1561C34.47 60.8228 37.909 63.6451 40.3286 67.2662C42.7481 70.8874 44.0396 75.1447 44.0396 79.4998C44.0335 85.3379 41.7116 90.9352 37.5834 95.0634C33.4552 99.1916 27.8579 101.514 22.0198 101.52ZM22.0198 62.0555C18.5696 62.0555 15.197 63.0786 12.3283 64.9954C9.4596 66.9122 7.22373 69.6366 5.90341 72.8242C4.5831 76.0117 4.23765 79.5191 4.91074 82.903C5.58383 86.2868 7.24523 89.3951 9.68485 91.8347C12.1245 94.2743 15.2327 95.9357 18.6166 96.6088C22.0004 97.2819 25.5079 96.9365 28.6954 95.6162C31.8829 94.2958 34.6074 92.06 36.5242 89.1913C38.441 86.3226 39.464 82.9499 39.464 79.4998C39.4595 74.8747 37.6202 70.4403 34.3497 67.1698C31.0793 63.8994 26.6449 62.0601 22.0198 62.0555Z" fill="#F376A2"/>
<path d="M79.5003 159C75.1452 159 70.8879 157.709 67.2667 155.289C63.6456 152.869 60.8233 149.43 59.1566 145.407C57.49 141.383 57.0539 136.956 57.9036 132.684C58.7532 128.413 60.8504 124.489 63.9299 121.41C67.0094 118.33 70.933 116.233 75.2044 115.384C79.4758 114.534 83.9033 114.97 87.9269 116.637C91.9505 118.303 95.3895 121.126 97.809 124.747C100.229 128.368 101.52 132.625 101.52 136.98C101.514 142.818 99.1921 148.416 95.0639 152.544C90.9357 156.672 85.3384 158.994 79.5003 159ZM79.5003 119.536C76.0501 119.536 72.6774 120.559 69.8088 122.476C66.9401 124.393 64.7042 127.117 63.3839 130.305C62.0636 133.492 61.7181 137 62.3912 140.383C63.0643 143.767 64.7257 146.876 67.1653 149.315C69.6049 151.755 72.7132 153.416 76.0971 154.089C79.4809 154.762 82.9884 154.417 86.1759 153.097C89.3634 151.776 92.0878 149.54 94.0046 146.672C95.9214 143.803 96.9445 140.43 96.9445 136.98C96.94 132.355 95.1006 127.921 91.8302 124.65C88.5597 121.38 84.1254 119.541 79.5003 119.536Z" fill="#19B4EE"/>
<path d="M71.3045 107.908H54.9069C54.3002 107.908 53.7183 107.667 53.2892 107.238C52.8602 106.809 52.6191 106.227 52.6191 105.621V64.9211C52.6191 64.3143 52.8602 63.7324 53.2892 63.3034C53.7183 62.8743 54.3002 62.6333 54.9069 62.6333H71.3045C71.6049 62.6333 71.9024 62.6925 72.18 62.8074C72.4576 62.9224 72.7098 63.0909 72.9222 63.3034C73.1346 63.5158 73.3032 63.768 73.4181 64.0456C73.5331 64.3231 73.5923 64.6206 73.5923 64.9211V105.621C73.5923 105.921 73.5331 106.218 73.4181 106.496C73.3032 106.774 73.1346 107.026 72.9222 107.238C72.7098 107.451 72.4576 107.619 72.18 107.734C71.9024 107.849 71.6049 107.908 71.3045 107.908ZM57.1947 103.333H69.0167V67.2088H57.1947V103.333Z" fill="#1CD0C5"/>
<path d="M87.6953 107.908H71.3034C70.6966 107.908 70.1147 107.667 69.6857 107.238C69.2567 106.809 69.0156 106.227 69.0156 105.621V75.8796C69.0156 75.2728 69.2567 74.6909 69.6857 74.2619C70.1147 73.8328 70.6966 73.5918 71.3034 73.5918H87.6953C88.302 73.5918 88.8839 73.8328 89.313 74.2619C89.742 74.6909 89.983 75.2728 89.983 75.8796V105.621C89.983 106.227 89.742 106.809 89.313 107.238C88.8839 107.667 88.302 107.908 87.6953 107.908ZM73.5912 103.333H85.4075V78.1673H73.5912V103.333Z" fill="#1CD0C5"/>
<path d="M104.094 107.909H87.696C87.0892 107.909 86.5073 107.668 86.0783 107.238C85.6492 106.809 85.4082 106.228 85.4082 105.621V53.3796C85.4082 52.7728 85.6492 52.1909 86.0783 51.7619C86.5073 51.3328 87.0892 51.0918 87.696 51.0918H104.094C104.7 51.0918 105.282 51.3328 105.711 51.7619C106.14 52.1909 106.381 52.7728 106.381 53.3796V105.621C106.381 106.228 106.14 106.809 105.711 107.238C105.282 107.668 104.7 107.909 104.094 107.909ZM89.9837 103.333H101.806V55.6673H89.9837V103.333Z" fill="#1CD0C5"/>
</g>
<defs>
<clipPath id="clip0">
<rect width="159" height="159" fill="white"/>
</clipPath>
</defs>
</svg>
