<svg width="82" height="159" viewBox="0 0 82 159" fill="none" xmlns="http://www.w3.org/2000/svg">
<path d="M79.7063 159H2.29371C1.68538 159 1.10196 158.759 0.671811 158.33C0.241658 157.901 0 157.319 0 156.712V2.28777C0 1.68102 0.241658 1.09911 0.671811 0.670072C1.10196 0.241032 1.68538 0 2.29371 0L79.7063 0C80.3146 0 80.898 0.241032 81.3282 0.670072C81.7583 1.09911 82 1.68102 82 2.28777V156.712C82 157.319 81.7583 157.901 81.3282 158.33C80.898 158.759 80.3146 159 79.7063 159ZM4.58741 154.424H77.4126V4.57554H4.58741V154.424Z" fill="#8D67C3"/>
<path d="M49.4578 145.559H32.5418C31.9334 145.559 31.35 145.318 30.9199 144.889C30.4897 144.46 30.248 143.878 30.248 143.272C30.248 142.665 30.4897 142.083 30.9199 141.654C31.35 141.225 31.9334 140.984 32.5418 140.984H49.4578C50.0662 140.984 50.6496 141.225 51.0797 141.654C51.5099 142.083 51.7515 142.665 51.7515 143.272C51.7515 143.878 51.5099 144.46 51.0797 144.889C50.6496 145.318 50.0662 145.559 49.4578 145.559Z" fill="#19B4EE"/>
<path d="M41 14.2986H24.9441C24.3358 14.2986 23.7524 14.0575 23.3222 13.6285C22.892 13.1994 22.6504 12.6175 22.6504 12.0108V2.28777C22.6504 1.68102 22.892 1.09911 23.3222 0.670072C23.7524 0.241032 24.3358 0 24.9441 0C25.5524 0 26.1358 0.241032 26.566 0.670072C26.9961 1.09911 27.2378 1.68102 27.2378 2.28777V9.72302H41C41.6084 9.72302 42.1918 9.96406 42.6219 10.3931C43.0521 10.8221 43.2937 11.404 43.2937 12.0108C43.2937 12.6175 43.0521 13.1994 42.6219 13.6285C42.1918 14.0575 41.6084 14.2986 41 14.2986Z" fill="#8D67C3"/>
<path d="M57.0567 14.2986H41.0007C40.3924 14.2986 39.809 14.0575 39.3788 13.6285C38.9487 13.1994 38.707 12.6175 38.707 12.0108C38.707 11.404 38.9487 10.8221 39.3788 10.3931C39.809 9.96406 40.3924 9.72302 41.0007 9.72302H54.763V2.28777C54.763 1.68102 55.0046 1.09911 55.4348 0.670072C55.8649 0.241032 56.4484 0 57.0567 0C57.665 0 58.2484 0.241032 58.6786 0.670072C59.1087 1.09911 59.3504 1.68102 59.3504 2.28777V12.0108C59.3504 12.6175 59.1087 13.1994 58.6786 13.6285C58.2484 14.0575 57.665 14.2986 57.0567 14.2986Z" fill="#8D67C3"/>
<path d="M32.542 56.5763H13.8597C13.5556 56.5763 13.2639 56.4558 13.0488 56.2413C12.8337 56.0267 12.7129 55.7358 12.7129 55.4324V36.7928C12.7129 36.4894 12.8337 36.1985 13.0488 35.984C13.2639 35.7694 13.5556 35.6489 13.8597 35.6489H32.542C32.8461 35.6489 33.1378 35.7694 33.3529 35.984C33.568 36.1985 33.6888 36.4894 33.6888 36.7928V55.4324C33.6888 55.7358 33.568 56.0267 33.3529 56.2413C33.1378 56.4558 32.8461 56.5763 32.542 56.5763ZM15.0066 54.2885H31.3951V37.9367H15.0066V54.2885Z" fill="#F376A2"/>
<path d="M70.2451 42.6843H41.0004C40.6962 42.6843 40.4045 42.5637 40.1894 42.3492C39.9743 42.1347 39.8535 41.8437 39.8535 41.5404C39.8535 41.237 39.9743 40.946 40.1894 40.7315C40.4045 40.517 40.6962 40.3965 41.0004 40.3965H70.2451C70.5493 40.3965 70.841 40.517 71.0561 40.7315C71.2712 40.946 71.392 41.237 71.392 41.5404C71.392 41.8437 71.2712 42.1347 71.0561 42.3492C70.841 42.5637 70.5493 42.6843 70.2451 42.6843Z" fill="#1CD0C5"/>
<path d="M70.2451 51.8351H41.0004C40.6962 51.8351 40.4045 51.7146 40.1894 51.5001C39.9743 51.2856 39.8535 50.9946 39.8535 50.6912C39.8535 50.3879 39.9743 50.0969 40.1894 49.8824C40.4045 49.6679 40.6962 49.5474 41.0004 49.5474H70.2451C70.5493 49.5474 70.841 49.6679 71.0561 49.8824C71.2712 50.0969 71.392 50.3879 71.392 50.6912C71.392 50.9946 71.2712 51.2856 71.0561 51.5001C70.841 51.7146 70.5493 51.8351 70.2451 51.8351Z" fill="#1CD0C5"/>
<path d="M32.542 89.9607H13.8597C13.5556 89.9607 13.2639 89.8402 13.0488 89.6257C12.8337 89.4112 12.7129 89.1202 12.7129 88.8168V70.1829C12.7129 69.8796 12.8337 69.5886 13.0488 69.3741C13.2639 69.1596 13.5556 69.0391 13.8597 69.0391H32.542C32.8461 69.0391 33.1378 69.1596 33.3529 69.3741C33.568 69.5886 33.6888 69.8796 33.6888 70.1829V88.8168C33.6888 89.1202 33.568 89.4112 33.3529 89.6257C33.1378 89.8402 32.8461 89.9607 32.542 89.9607ZM15.0066 87.673H31.3951V71.3268H15.0066V87.673Z" fill="#F376A2"/>
<path d="M70.2451 76.0685H41.0004C40.6962 76.0685 40.4045 75.948 40.1894 75.7335C39.9743 75.519 39.8535 75.228 39.8535 74.9246C39.8535 74.6213 39.9743 74.3303 40.1894 74.1158C40.4045 73.9013 40.6962 73.7808 41.0004 73.7808H70.2451C70.5493 73.7808 70.841 73.9013 71.0561 74.1158C71.2712 74.3303 71.392 74.6213 71.392 74.9246C71.392 75.228 71.2712 75.519 71.0561 75.7335C70.841 75.948 70.5493 76.0685 70.2451 76.0685Z" fill="#1CD0C5"/>
<path d="M70.2451 85.2194H41.0004C40.6962 85.2194 40.4045 85.0989 40.1894 84.8844C39.9743 84.6699 39.8535 84.3789 39.8535 84.0755C39.8535 83.7721 39.9743 83.4812 40.1894 83.2667C40.4045 83.0522 40.6962 82.9316 41.0004 82.9316H70.2451C70.5493 82.9316 70.841 83.0522 71.0561 83.2667C71.2712 83.4812 71.392 83.7721 71.392 84.0755C71.392 84.3789 71.2712 84.6699 71.0561 84.8844C70.841 85.0989 70.5493 85.2194 70.2451 85.2194Z" fill="#1CD0C5"/>
</svg>
