<svg width="157" height="158" viewBox="0 0 157 158" fill="none" xmlns="http://www.w3.org/2000/svg">
<path d="M115.657 61.3347L79.431 92.9692C78.8726 93.4581 77.9652 93.4581 77.4068 92.9692L41.1806 61.3347C40.8316 61.0554 40.7618 60.5665 40.9014 60.1475C41.8088 58.1922 42.9256 56.3765 44.1122 54.6307C44.4612 54.1419 45.1592 54.072 45.578 54.4212L76.639 81.5166C77.6162 82.3546 79.0122 82.3546 79.9894 81.5166L111.05 54.4212C111.539 54.0022 112.237 54.072 112.516 54.6307C113.703 56.3765 114.82 58.262 115.727 60.1475C116.146 60.5665 116.006 61.0554 115.657 61.3347Z" fill="#1CD0C5"/>
<path d="M78.4537 147.509C74.4751 147.509 70.5663 147.16 66.7971 146.531C66.2387 146.462 65.8199 145.973 65.8199 145.414C65.8199 145.344 65.8199 145.205 65.8897 145.135L67.2159 137.593C64.6333 137.104 62.0507 136.406 59.5379 135.568L56.8855 142.9C56.6761 143.459 56.0479 143.808 55.4197 143.598C51.7203 142.272 48.0907 140.665 44.7403 138.71C44.4611 138.57 44.3215 138.291 44.1819 138.012C44.1121 137.732 44.1121 137.383 44.3215 137.174L48.1605 130.47C45.8571 129.143 43.6235 127.607 41.5295 125.931L36.5039 131.866C36.0851 132.355 35.3871 132.425 34.8985 132.006C31.8971 129.562 29.0353 126.769 26.4527 123.766C26.2433 123.556 26.1735 123.207 26.1735 122.928C26.1735 122.648 26.3131 122.369 26.5923 122.16L32.5253 117.201C30.7803 115.176 29.2447 112.942 27.7789 110.707L21.0781 114.618C20.5197 114.897 19.8915 114.757 19.5425 114.199C17.5183 110.777 15.7733 107.215 14.3075 103.514C14.1679 103.235 14.2377 102.886 14.3075 102.676C14.4471 102.397 14.6565 102.187 14.9357 102.117L22.1949 99.4638C21.2875 96.9498 20.5197 94.2962 19.8915 91.6425L12.2135 92.9693C11.5853 93.109 11.0269 92.69 10.8873 92.0615C10.1195 88.2207 9.70066 84.2402 9.63086 80.1898C9.63086 79.9105 9.77046 79.5613 9.97986 79.3518C10.1893 79.1423 10.4685 79.0027 10.8175 79.0027H18.5653C18.5653 78.9328 18.5653 78.863 18.5653 78.7932C18.5653 76.0697 18.7747 73.416 19.1237 70.8322L11.4457 69.5053C10.8175 69.3657 10.4685 68.807 10.5383 68.2483C11.1665 64.2678 12.1437 60.3572 13.4001 56.5163C13.4699 56.237 13.6793 56.0275 13.9585 55.8878C14.2377 55.7482 14.5169 55.7482 14.7961 55.818L22.0553 58.4717C22.9627 55.8878 24.1493 53.3738 25.4057 50.8598L18.7049 46.9492C18.1465 46.6698 18.0069 45.9715 18.2861 45.4128C20.2405 41.9212 22.5439 38.4993 25.0567 35.3568C25.2661 35.1473 25.5453 35.0077 25.8245 34.9378C26.1037 34.9378 26.4527 35.0077 26.6621 35.2172L32.5951 40.1753C34.4099 38.0105 36.3643 36.0552 38.3885 34.1697L33.3629 28.2338C32.9441 27.745 33.0139 27.0467 33.5025 26.6277C36.5737 23.974 39.8543 21.5997 43.4141 19.5047C43.6933 19.365 43.9725 19.2952 44.2517 19.365C44.5309 19.4348 44.8101 19.6443 44.9497 19.9237L48.7887 26.6277C51.2317 25.231 53.7445 24.0438 56.3969 22.9963L53.7445 15.7337C53.5351 15.175 53.8143 14.4767 54.4425 14.2672C58.2117 12.8705 62.1903 11.7532 66.2387 11.0548C66.5179 10.985 66.8669 11.0548 67.0763 11.2643C67.3555 11.404 67.4951 11.6833 67.5649 11.9627L68.8911 19.5745C71.6831 19.1555 74.4751 18.8762 77.2671 18.8063V11.0548C77.2671 10.4263 77.7557 9.9375 78.3839 9.9375C82.5021 9.9375 86.6203 10.2867 90.5291 10.985C91.1573 11.1247 91.5761 11.6833 91.4365 12.3118L90.1103 19.9237C92.8325 20.4823 95.5547 21.1807 98.2071 22.1583L100.859 14.8957C100.929 14.6163 101.139 14.4068 101.418 14.2672C101.697 14.1275 101.976 14.1275 102.255 14.2672C106.094 15.6638 109.794 17.4097 113.284 19.5047C113.842 19.8538 113.982 20.4823 113.703 21.041L109.794 27.745C112.167 29.2115 114.47 30.8875 116.564 32.6333L121.52 26.6975C121.73 26.488 122.009 26.3483 122.288 26.2785C122.567 26.2785 122.916 26.3483 123.126 26.5578C126.197 29.2115 129.059 32.1445 131.571 35.287C131.99 35.7758 131.921 36.4742 131.432 36.8932L125.499 41.9212C127.174 44.086 128.779 46.3905 130.175 48.8347L136.876 44.9938C137.155 44.8542 137.435 44.7843 137.714 44.8542C137.993 44.924 138.272 45.1335 138.412 45.4128C140.366 48.9045 142.041 52.6755 143.368 56.4465C143.577 57.0052 143.298 57.6337 142.67 57.8432L135.341 60.4968C136.178 63.0807 136.807 65.8042 137.295 68.5277L144.903 67.2008C145.182 67.131 145.532 67.2008 145.741 67.4103C146.02 67.6198 146.16 67.8293 146.229 68.1785C146.788 71.6702 147.067 75.2317 147.067 78.7932C147.067 79.2122 147.067 79.701 147.067 80.12C147.067 80.7485 146.579 81.2373 145.95 81.2373H138.133C137.993 83.9608 137.714 86.6843 137.225 89.338L144.833 90.6648C145.113 90.7347 145.392 90.8743 145.601 91.1536C145.741 91.433 145.811 91.7123 145.811 91.9917C145.043 95.9023 143.926 99.7432 142.53 103.444C142.321 104.003 141.693 104.282 141.064 104.073L133.735 101.419C132.688 103.933 131.502 106.377 130.175 108.682L136.876 112.523C137.155 112.662 137.295 112.942 137.435 113.221C137.504 113.5 137.435 113.849 137.295 114.059C135.271 117.411 132.898 120.693 130.315 123.626C129.896 124.115 129.198 124.115 128.71 123.766L122.777 118.738C121.032 120.693 119.077 122.579 116.983 124.324L121.939 130.26C122.148 130.47 122.218 130.819 122.218 131.098C122.218 131.378 122.079 131.657 121.799 131.866C118.728 134.38 115.448 136.615 112.097 138.501C111.539 138.78 110.911 138.64 110.562 138.082L106.653 131.378C104.28 132.635 101.837 133.752 99.3937 134.66L102.046 141.922C102.116 142.202 102.116 142.481 101.976 142.76C101.837 143.04 101.627 143.249 101.348 143.319C97.6487 144.646 93.8097 145.624 89.9707 146.322C89.9009 146.322 89.8311 146.322 89.7613 146.322C89.6217 146.322 89.5519 146.322 89.4123 146.252C88.9935 146.112 88.7143 145.763 88.6445 145.344L87.3183 137.732C84.7357 138.151 82.0833 138.361 79.3611 138.431V146.182C79.3611 146.462 79.2215 146.741 79.0121 146.951C79.0121 147.369 78.7329 147.509 78.4537 147.509ZM68.2629 144.436C71.2643 144.925 74.2657 145.135 77.3369 145.205V137.453C77.3369 136.825 77.8255 136.336 78.4537 136.336C81.7343 136.336 85.0847 136.056 88.2257 135.498C88.8539 135.358 89.4123 135.777 89.5519 136.406L90.8781 144.017C93.8795 143.459 96.8111 142.691 99.6729 141.713L97.0205 134.45C96.9507 134.171 96.9507 133.822 97.0903 133.612C97.2299 133.333 97.4393 133.123 97.7185 133.054C100.79 131.936 103.791 130.609 106.653 129.003C107.211 128.724 107.839 128.864 108.188 129.422L112.097 136.126C114.68 134.59 117.262 132.844 119.636 130.959L114.68 125.023C114.47 124.813 114.401 124.464 114.401 124.185C114.401 123.905 114.61 123.626 114.819 123.417C117.402 121.322 119.775 119.017 121.939 116.503C122.358 116.014 123.056 116.014 123.544 116.363L129.477 121.322C131.432 118.947 133.247 116.433 134.922 113.849L128.221 110.009C127.942 109.869 127.802 109.59 127.663 109.31C127.593 109.031 127.663 108.682 127.802 108.472C129.547 105.609 131.013 102.606 132.2 99.5336C132.409 98.975 133.037 98.6957 133.665 98.9052L140.925 101.559C141.972 98.6258 142.879 95.623 143.507 92.6202L135.899 91.2933C135.62 91.2235 135.341 91.0838 135.131 90.8045C134.992 90.5251 134.922 90.2458 134.922 89.9665C135.55 86.6843 135.969 83.3323 136.039 79.9803C136.039 79.3518 136.527 78.863 137.155 78.863H144.903C144.903 78.7932 144.903 78.7233 144.903 78.6535C144.903 75.5808 144.694 72.5082 144.275 69.5053L136.667 70.8322C136.388 70.902 136.039 70.8322 135.829 70.6227C135.55 70.4132 135.41 70.2037 135.341 69.8545C134.852 66.5025 134.014 63.2203 132.967 60.008C132.758 59.4493 133.107 58.8208 133.665 58.6113L140.925 55.9577C139.878 53.0247 138.551 50.0917 137.086 47.2983L130.385 51.1392C130.106 51.2788 129.826 51.3487 129.547 51.2788C129.268 51.209 128.989 50.9995 128.849 50.7202C127.244 47.7872 125.289 44.924 123.195 42.2703C122.777 41.7815 122.846 41.0832 123.335 40.6642L129.268 35.706C127.244 33.2618 125.01 31.0272 122.637 28.8623L117.681 34.7982C117.472 35.0077 117.193 35.1473 116.913 35.2172C116.634 35.2172 116.285 35.1473 116.076 34.9378C113.493 32.7032 110.701 30.678 107.77 28.9322C107.211 28.583 107.072 27.9545 107.351 27.3958L111.26 20.6918C108.468 19.0857 105.606 17.7588 102.604 16.5717L99.9521 23.8343C99.8823 24.1137 99.6031 24.3232 99.3937 24.4628C99.1145 24.6025 98.8353 24.6025 98.5561 24.4628C95.3453 23.2757 91.9949 22.3678 88.6445 21.7393C88.0163 21.5997 87.5975 21.041 87.7371 20.4125L89.0633 12.8007C85.9223 12.3118 82.7115 12.0325 79.5007 11.9627V19.7142C79.5007 20.3427 79.0121 20.8315 78.3839 20.8315C74.9637 20.8315 71.5435 21.1108 68.1233 21.7393C67.8441 21.8092 67.4951 21.7393 67.2857 21.5298C67.0065 21.3902 66.8669 21.1108 66.7971 20.8315L65.4709 13.2197C62.3299 13.8482 59.2587 14.6862 56.2573 15.7337L58.9097 22.9963C59.1191 23.555 58.8399 24.2533 58.2117 24.4628C55.0009 25.65 51.8599 27.1863 48.9283 28.8623C48.6491 29.002 48.3699 29.0718 48.0907 29.002C47.8115 28.9322 47.5323 28.7227 47.3927 28.4433L43.5537 21.7393C40.8315 23.4153 38.2489 25.3008 35.8059 27.326L40.7617 33.2618C41.1805 33.7507 41.1107 34.449 40.6221 34.868C38.0395 37.1027 35.6663 39.5468 33.5025 42.2005C33.2931 42.41 33.0139 42.6195 32.7347 42.6195C32.4555 42.6195 32.1065 42.5497 31.8971 42.3402L25.9641 37.382C24.0097 39.896 22.1949 42.4798 20.6593 45.2033L27.3601 49.114C27.9185 49.3933 28.0581 50.0917 27.7789 50.6503C26.1037 53.6532 24.7775 56.7258 23.6607 59.9382C23.5909 60.2175 23.3815 60.427 23.1023 60.5667C22.8231 60.7063 22.5439 60.7063 22.1949 60.6365L14.9357 57.9828C13.9585 60.9857 13.1907 64.0583 12.7021 67.131L20.3801 68.4578C21.0083 68.5975 21.3573 69.1562 21.2875 69.7148C20.8687 72.578 20.6593 75.511 20.6593 78.444C20.6593 78.863 20.6593 79.282 20.6593 79.7708C20.6593 80.0502 20.5197 80.3993 20.3103 80.6088C20.1009 80.8183 19.8217 80.958 19.4727 80.958H11.7249C11.8645 84.1005 12.1437 87.243 12.7021 90.2458L20.3103 88.919C20.9385 88.7793 21.4969 89.1983 21.6365 89.8268C22.2647 93.109 23.2419 96.3213 24.4285 99.394C24.5681 99.6733 24.4983 100.022 24.4285 100.302C24.2889 100.581 24.0795 100.791 23.8003 100.93L16.5411 103.584C17.7277 106.447 19.0539 109.24 20.5895 111.894L27.2903 108.053C27.8487 107.774 28.4769 107.914 28.8259 108.472C30.5709 111.335 32.5253 113.989 34.6891 116.503C34.8985 116.713 34.9683 117.062 34.9683 117.341C34.9683 117.62 34.8287 117.9 34.5495 118.109L28.6165 123.067C30.6407 125.372 32.8743 127.467 35.1777 129.492L40.1335 123.556C40.5523 123.067 41.2503 122.998 41.7389 123.417C44.3215 125.512 47.0437 127.397 49.9055 129.003C50.1847 129.143 50.3941 129.422 50.4639 129.702C50.5337 129.981 50.5337 130.33 50.3243 130.54L46.4853 137.244C49.1377 138.71 51.9297 139.967 54.7915 141.015L57.4439 133.752C57.6533 133.193 58.2815 132.844 58.9097 133.054C61.9809 134.171 65.1917 135.009 68.4025 135.568C68.6817 135.637 68.9609 135.777 69.1005 136.056C69.2401 136.336 69.3099 136.615 69.3099 136.894L68.2629 144.436Z" fill="#F376A2"/>
<path d="M78.4543 157.076C35.2481 157.076 0.138672 121.95 0.138672 78.7231C0.138672 35.4963 35.2481 0.370117 78.4543 0.370117C121.66 0.370117 156.77 35.4963 156.77 78.7231C156.77 121.95 121.66 157.076 78.4543 157.076ZM78.4543 4.83945C37.7609 4.83945 4.60587 38.0103 4.60587 78.7231C4.60587 119.436 37.6911 152.607 78.4543 152.607C119.217 152.607 152.233 119.436 152.233 78.7231C152.233 38.0103 119.148 4.83945 78.4543 4.83945Z" fill="#8D67C3"/>
<path d="M78.4541 130.749C49.7663 130.749 26.4531 107.425 26.4531 78.7231C26.4531 50.0216 49.7663 26.6973 78.4541 26.6973C107.142 26.6973 130.455 50.0216 130.455 78.7231C130.455 107.425 107.142 130.749 78.4541 130.749ZM78.4541 31.1666C52.2791 31.1666 30.9203 52.4658 30.9203 78.7231C30.9203 104.98 52.2093 126.28 78.4541 126.28C104.629 126.28 125.988 104.98 125.988 78.7231C125.988 52.4658 104.629 31.1666 78.4541 31.1666Z" fill="#1996EE"/>
</svg>
