<svg width="158" height="158" viewBox="0 0 158 158" fill="none" xmlns="http://www.w3.org/2000/svg">
<g clip-path="url(#clip0)">
<path d="M78.9999 47.1727C78.397 47.1727 77.8188 46.9332 77.3924 46.5069C76.9661 46.0805 76.7266 45.5023 76.7266 44.8994V25.0073C76.7266 24.4043 76.9661 23.8261 77.3924 23.3997C77.8188 22.9734 78.397 22.7339 78.9999 22.7339C79.6029 22.7339 80.1811 22.9734 80.6075 23.3997C81.0338 23.8261 81.2733 24.4043 81.2733 25.0073V44.8994C81.2733 45.5023 81.0338 46.0805 80.6075 46.5069C80.1811 46.9332 79.6029 47.1727 78.9999 47.1727Z" fill="#8D67C3"/>
<path d="M103.115 57.1583C102.666 57.1576 102.228 57.024 101.855 56.7745C101.482 56.525 101.191 56.1707 101.019 55.7563C100.847 55.3418 100.802 54.8857 100.889 54.4455C100.975 54.0052 101.19 53.6005 101.507 53.2822L115.573 39.2157C115.78 38.9874 116.031 38.8036 116.311 38.6753C116.591 38.5471 116.894 38.477 117.202 38.4694C117.51 38.4619 117.816 38.5169 118.102 38.6313C118.388 38.7456 118.648 38.9168 118.866 39.1346C119.083 39.3524 119.255 39.6121 119.369 39.8981C119.483 40.184 119.538 40.4902 119.531 40.7981C119.523 41.106 119.453 41.4091 119.325 41.6891C119.197 41.969 119.013 42.22 118.784 42.4268L104.718 56.4934C104.293 56.9182 103.716 57.1573 103.115 57.1583Z" fill="#8D67C3"/>
<path d="M132.994 81.2733H113.102C112.499 81.2733 111.92 81.0338 111.494 80.6075C111.068 80.1811 110.828 79.6029 110.828 78.9999C110.828 78.397 111.068 77.8188 111.494 77.3924C111.92 76.9661 112.499 76.7266 113.102 76.7266H132.994C133.597 76.7266 134.175 76.9661 134.601 77.3924C135.027 77.8188 135.267 78.397 135.267 78.9999C135.267 79.6029 135.027 80.1811 134.601 80.6075C134.175 81.0338 133.597 81.2733 132.994 81.2733Z" fill="#8D67C3"/>
<path d="M117.176 119.455C116.878 119.456 116.582 119.397 116.307 119.281C116.032 119.166 115.782 118.997 115.573 118.784L101.507 104.718C101.115 104.285 100.904 103.719 100.919 103.135C100.933 102.552 101.171 101.996 101.584 101.584C101.996 101.171 102.552 100.933 103.135 100.919C103.719 100.904 104.285 101.115 104.718 101.507L118.784 115.573C119.103 115.891 119.319 116.296 119.407 116.738C119.495 117.179 119.45 117.636 119.278 118.052C119.106 118.467 118.814 118.823 118.44 119.072C118.066 119.322 117.626 119.455 117.176 119.455Z" fill="#8D67C3"/>
<path d="M78.9999 135.266C78.397 135.266 77.8188 135.026 77.3924 134.6C76.9661 134.174 76.7266 133.596 76.7266 132.993V113.101C76.7266 112.498 76.9661 111.919 77.3924 111.493C77.8188 111.067 78.397 110.827 78.9999 110.827C79.6029 110.827 80.1811 111.067 80.6075 111.493C81.0338 111.919 81.2733 112.498 81.2733 113.101V132.993C81.2733 133.596 81.0338 134.174 80.6075 134.6C80.1811 135.026 79.6029 135.266 78.9999 135.266Z" fill="#8D67C3"/>
<path d="M40.824 119.455C40.3741 119.455 39.9342 119.322 39.56 119.072C39.1859 118.823 38.8942 118.467 38.722 118.052C38.5498 117.636 38.5047 117.179 38.5926 116.738C38.6805 116.296 38.8973 115.891 39.2156 115.573L53.2821 101.507C53.7146 101.115 54.2812 100.904 54.8646 100.919C55.4479 100.933 56.0035 101.171 56.4161 101.584C56.8288 101.996 57.0669 102.552 57.0813 103.135C57.0956 103.719 56.8851 104.285 56.4933 104.718L42.4267 118.784C42.2177 118.997 41.9683 119.166 41.6931 119.281C41.4178 119.397 41.1224 119.456 40.824 119.455Z" fill="#8D67C3"/>
<path d="M44.8998 81.2733H25.0078C24.4048 81.2733 23.8266 81.0338 23.4002 80.6075C22.9739 80.1811 22.7344 79.6029 22.7344 78.9999C22.7344 78.397 22.9739 77.8188 23.4002 77.3924C23.8266 76.9661 24.4048 76.7266 25.0078 76.7266H44.8998C45.5028 76.7266 46.081 76.9661 46.5074 77.3924C46.9337 77.8188 47.1732 78.397 47.1732 78.9999C47.1732 79.6029 46.9337 80.1811 46.5074 80.6075C46.081 81.0338 45.5028 81.2733 44.8998 81.2733Z" fill="#8D67C3"/>
<path d="M54.8849 57.1583C54.2838 57.1573 53.7075 56.9182 53.2822 56.4933L39.2156 42.4268C38.8238 41.9943 38.6133 41.4278 38.6276 40.8444C38.642 40.261 38.8802 39.7055 39.2928 39.2928C39.7055 38.8802 40.261 38.642 40.8444 38.6276C41.4278 38.6133 41.9943 38.8238 42.4268 39.2156L56.4933 53.2822C56.8097 53.6004 57.0248 54.0052 57.1115 54.4454C57.1983 54.8857 57.1528 55.3418 56.9808 55.7562C56.8088 56.1707 56.5181 56.525 56.1451 56.7745C55.7721 57.024 55.3337 57.1575 54.8849 57.1583Z" fill="#8D67C3"/>
<path d="M78.9991 115.374C71.805 115.374 64.7724 113.241 58.7907 109.244C52.8091 105.247 48.1469 99.5664 45.3938 92.9199C42.6408 86.2734 41.9204 78.9597 43.3239 71.9039C44.7274 64.848 48.1917 58.3667 53.2787 53.2797C58.3657 48.1927 64.847 44.7284 71.9029 43.3249C78.9588 41.9214 86.2724 42.6417 92.9189 45.3948C99.5654 48.1479 105.246 52.81 109.243 58.7917C113.24 64.7734 115.373 71.806 115.373 79.0001C115.363 88.6439 111.527 97.8896 104.708 104.709C97.8887 111.528 88.6429 115.364 78.9991 115.374ZM78.9991 47.1728C72.7043 47.1728 66.5508 49.0394 61.3168 52.5366C56.0828 56.0339 52.0034 61.0046 49.5945 66.8203C47.1856 72.636 46.5553 79.0354 47.7833 85.2093C49.0114 91.3832 52.0427 97.0543 56.4938 101.505C60.9449 105.957 66.616 108.988 72.7899 110.216C78.9638 111.444 85.3632 110.814 91.1789 108.405C96.9946 105.996 101.965 101.916 105.463 96.6824C108.96 91.4484 110.826 85.2949 110.826 79.0001C110.817 70.5617 107.461 62.4716 101.494 56.5047C95.5276 50.5379 87.4375 47.1818 78.9991 47.1728Z" fill="#1CD0C5"/>
<path d="M78.9997 27.2806C76.3019 27.2806 73.6647 26.4806 71.4215 24.9818C69.1784 23.483 67.4301 21.3526 66.3977 18.8602C65.3653 16.3678 65.0952 13.6252 65.6215 10.9792C66.1478 8.33325 67.4469 5.90278 69.3545 3.99515C71.2622 2.08753 73.6926 0.788414 76.3386 0.2621C78.9845 -0.264213 81.7272 0.00591015 84.2196 1.03831C86.712 2.07071 88.8424 3.81902 90.3412 6.06216C91.84 8.30529 92.64 10.9425 92.64 13.6403C92.64 17.2579 91.2029 20.7274 88.6448 23.2854C86.0868 25.8435 82.6173 27.2806 78.9997 27.2806ZM78.9997 4.54677C77.2011 4.54677 75.443 5.08009 73.9476 6.0793C72.4522 7.07851 71.2866 8.49873 70.5983 10.1604C69.9101 11.822 69.73 13.6504 70.0809 15.4144C70.4318 17.1783 71.2978 18.7986 72.5696 20.0704C73.8413 21.3421 75.4616 22.2082 77.2256 22.5591C78.9896 22.91 80.818 22.7299 82.4796 22.0416C84.1412 21.3533 85.5615 20.1878 86.5607 18.6924C87.5599 17.197 88.0932 15.4388 88.0932 13.6403C88.0932 11.2285 87.1351 8.91557 85.4298 7.2102C83.7244 5.50483 81.4114 4.54677 78.9997 4.54677Z" fill="#F376A2"/>
<path d="M125.218 46.4168C122.063 46.409 119.008 45.3076 116.573 43.3001C114.139 41.2927 112.476 38.5033 111.867 35.4072C111.259 32.3111 111.743 29.0998 113.236 26.3203C114.73 23.5408 117.14 21.365 120.058 20.1636C122.976 18.9623 126.22 18.8095 129.237 19.7315C132.255 20.6535 134.86 22.5932 136.608 25.2201C138.356 27.847 139.139 30.9987 138.824 34.1382C138.509 37.2778 137.115 40.2111 134.88 42.4383C133.612 43.706 132.105 44.7101 130.447 45.3929C128.788 46.0757 127.011 46.4237 125.218 46.4168ZM125.218 23.683C123.114 23.6833 121.075 24.4132 119.449 25.7483C117.823 27.0834 116.71 28.9411 116.3 31.0047C115.89 33.0684 116.209 35.2104 117.201 37.0656C118.194 38.9209 119.799 40.3746 121.743 41.1791C123.687 41.9835 125.85 42.0889 127.863 41.4774C129.876 40.8658 131.615 39.575 132.783 37.8251C133.951 36.0752 134.476 33.9743 134.269 31.8806C134.062 29.7868 133.135 27.8297 131.646 26.3428C129.939 24.6434 127.627 23.6909 125.218 23.6943V23.683Z" fill="#19B4EE"/>
<path d="M125.218 138.852C122.063 138.845 119.008 137.743 116.573 135.736C114.139 133.728 112.476 130.939 111.867 127.843C111.259 124.747 111.743 121.535 113.236 118.756C114.73 115.976 117.14 113.801 120.058 112.599C122.976 111.398 126.22 111.245 129.237 112.167C132.255 113.089 134.86 115.029 136.608 117.656C138.356 120.283 139.139 123.434 138.824 126.574C138.509 129.713 137.115 132.647 134.88 134.874C133.612 136.142 132.105 137.146 130.447 137.828C128.788 138.511 127.011 138.859 125.218 138.852ZM125.218 116.119C123.114 116.118 121.075 116.846 119.448 118.18C117.821 119.514 116.707 121.371 116.296 123.434C115.885 125.497 116.201 127.64 117.192 129.495C118.183 131.351 119.787 132.806 121.731 133.612C123.674 134.418 125.837 134.525 127.85 133.915C129.864 133.305 131.604 132.016 132.773 130.267C133.943 128.518 134.47 126.418 134.264 124.324C134.059 122.23 133.133 120.272 131.646 118.784C130.802 117.94 129.8 117.271 128.697 116.816C127.594 116.361 126.412 116.127 125.218 116.13V116.119Z" fill="#19B4EE"/>
<path d="M78.9997 158C76.3019 158 73.6647 157.2 71.4215 155.701C69.1784 154.202 67.4301 152.072 66.3977 149.579C65.3653 147.087 65.0952 144.344 65.6215 141.698C66.1478 139.052 67.4469 136.622 69.3545 134.714C71.2622 132.807 73.6926 131.508 76.3386 130.981C78.9845 130.455 81.7272 130.725 84.2196 131.758C86.712 132.79 88.8424 134.538 90.3412 136.781C91.84 139.025 92.64 141.662 92.64 144.36C92.64 147.977 91.2029 151.447 88.6448 154.005C86.0868 156.563 82.6173 158 78.9997 158ZM78.9997 135.266C77.2011 135.266 75.443 135.799 73.9476 136.799C72.4522 137.798 71.2866 139.218 70.5983 140.88C69.9101 142.541 69.73 144.37 70.0809 146.134C70.4318 147.898 71.2978 149.518 72.5696 150.79C73.8413 152.061 75.4616 152.927 77.2256 153.278C78.9896 153.629 80.818 153.449 82.4796 152.761C84.1412 152.073 85.5615 150.907 86.5607 149.412C87.5599 147.916 88.0932 146.158 88.0932 144.36C88.0932 141.948 87.1351 139.635 85.4298 137.929C83.7244 136.224 81.4114 135.266 78.9997 135.266Z" fill="#F376A2"/>
<path d="M32.7812 138.858C30.0786 138.865 27.4349 138.068 25.1856 136.57C22.9363 135.072 21.1828 132.939 20.1476 130.442C19.1124 127.946 18.8423 125.198 19.3714 122.548C19.9005 119.897 21.205 117.464 23.1194 115.556C24.7066 113.974 26.659 112.808 28.804 112.16C30.9491 111.512 33.2207 111.403 35.418 111.842C37.6154 112.28 39.6709 113.253 41.4028 114.675C43.1346 116.097 44.4896 117.924 45.3478 119.993C46.2061 122.063 46.5412 124.313 46.3235 126.543C46.1058 128.773 45.3421 130.915 44.0999 132.78C42.8576 134.645 41.1751 136.175 39.2009 137.235C37.2268 138.295 35.022 138.853 32.7812 138.858ZM32.7812 116.124C31.5872 116.121 30.4042 116.354 29.3009 116.811C28.1975 117.267 27.1957 117.938 26.3533 118.784C24.8647 120.271 23.9378 122.228 23.7305 124.322C23.5232 126.416 24.0484 128.517 25.2165 130.267C26.3846 132.016 28.1234 133.307 30.1365 133.919C32.1497 134.53 34.3126 134.425 36.2567 133.62C38.2008 132.816 39.8058 131.362 40.7982 129.507C41.7906 127.652 42.109 125.51 41.699 123.446C41.2891 121.382 40.1763 119.525 38.5501 118.19C36.924 116.855 34.8852 116.125 32.7812 116.124Z" fill="#19B4EE"/>
<path d="M13.6403 92.6405C10.9425 92.6405 8.30529 91.8405 6.06216 90.3417C3.81902 88.8428 2.07071 86.7125 1.03831 84.2201C0.00591015 81.7276 -0.264213 78.985 0.2621 76.3391C0.788414 73.6931 2.08753 71.2626 3.99515 69.355C5.90278 67.4474 8.33325 66.1483 10.9792 65.622C13.6252 65.0957 16.3678 65.3658 18.8602 66.3982C21.3526 67.4306 23.483 69.1789 24.9818 71.422C26.4806 73.6652 27.2806 76.3024 27.2806 79.0002C27.2806 82.6178 25.8435 86.0873 23.2854 88.6453C20.7274 91.2034 17.2579 92.6405 13.6403 92.6405ZM13.6403 69.9066C11.8418 69.9066 10.0836 70.44 8.5882 71.4392C7.09278 72.4384 5.92724 73.8586 5.23897 75.5202C4.5507 77.1818 4.37062 79.0103 4.7215 80.7742C5.07237 82.5382 5.93845 84.1585 7.2102 85.4303C8.48195 86.702 10.1023 87.5681 11.8662 87.919C13.6302 88.2698 15.4586 88.0898 17.1202 87.4015C18.7819 86.7132 20.2021 85.5477 21.2013 84.0523C22.2005 82.5568 22.7338 80.7987 22.7338 79.0002C22.7338 76.5884 21.7758 74.2754 20.0704 72.5701C18.365 70.8647 16.052 69.9066 13.6403 69.9066Z" fill="#F376A2"/>
<path d="M32.7826 46.4226C29.6273 46.4149 26.5723 45.3135 24.1379 43.306C21.7035 41.2985 20.0404 38.5092 19.4319 35.4131C18.8233 32.317 19.307 29.1057 20.8005 26.3262C22.294 23.5467 24.7049 21.3709 27.6226 20.1695C30.5402 18.9681 33.7842 18.8154 36.8018 19.7374C39.8194 20.6594 42.4241 22.599 44.172 25.2259C45.92 27.8528 46.7032 31.0045 46.3882 34.1441C46.0732 37.2837 44.6795 40.2169 42.4445 42.4442C41.1777 43.7141 39.6713 44.7197 38.0127 45.4027C36.3541 46.0857 34.5763 46.4323 32.7826 46.4226ZM32.7826 23.6888C30.679 23.6892 28.6405 24.4188 27.0145 25.7535C25.3885 27.0882 24.2756 28.9454 23.8652 31.0086C23.4549 33.0719 23.7726 35.2136 24.7642 37.0688C25.7559 38.9241 27.36 40.3782 29.3035 41.1834C31.2469 41.9886 33.4094 42.095 35.4226 41.4847C37.4357 40.8743 39.175 39.5849 40.3441 37.836C41.5131 36.0871 42.0397 33.987 41.8341 31.8934C41.6284 29.7999 40.7033 27.8423 39.2163 26.3544C38.3735 25.5066 37.3709 24.8345 36.2666 24.3769C35.1622 23.9194 33.978 23.6855 32.7826 23.6888Z" fill="#19B4EE"/>
<path d="M144.359 92.6405C141.661 92.6405 139.024 91.8405 136.781 90.3417C134.538 88.8428 132.789 86.7125 131.757 84.2201C130.725 81.7276 130.455 78.985 130.981 76.3391C131.507 73.6931 132.806 71.2626 134.714 69.355C136.622 67.4474 139.052 66.1483 141.698 65.622C144.344 65.0957 147.087 65.3658 149.579 66.3982C152.071 67.4306 154.202 69.1789 155.701 71.422C157.199 73.6652 157.999 76.3024 157.999 79.0002C157.999 82.6178 156.562 86.0873 154.004 88.6453C151.446 91.2034 147.977 92.6405 144.359 92.6405ZM144.359 69.9066C142.561 69.9066 140.802 70.44 139.307 71.4392C137.812 72.4384 136.646 73.8586 135.958 75.5202C135.269 77.1818 135.089 79.0103 135.44 80.7742C135.791 82.5382 136.657 84.1585 137.929 85.4303C139.201 86.702 140.821 87.5681 142.585 87.919C144.349 88.2698 146.177 88.0898 147.839 87.4015C149.501 86.7132 150.921 85.5477 151.92 84.0523C152.919 82.5568 153.453 80.7987 153.453 79.0002C153.453 76.5884 152.495 74.2754 150.789 72.5701C149.084 70.8647 146.771 69.9066 144.359 69.9066Z" fill="#F376A2"/>
<path d="M81.2729 81.9895C79.0737 81.9906 76.9236 81.3395 75.0946 80.1184C73.2656 78.8973 71.8398 77.1611 70.9977 75.1295C70.1556 73.098 69.935 70.8623 70.3637 68.7053C70.7925 66.5483 71.8514 64.567 73.4064 63.0119C74.9615 61.4569 76.9429 60.398 79.0998 59.9692C81.2568 59.5404 83.4925 59.7611 85.5241 60.6032C87.5557 61.4453 89.2918 62.871 90.5129 64.7001C91.734 66.5291 92.3852 68.6792 92.3841 70.8784C92.3811 73.8243 91.2095 76.6487 89.1264 78.7318C87.0433 80.8149 84.2189 81.9865 81.2729 81.9895ZM81.2729 64.3083C79.9732 64.3072 78.7024 64.6916 77.6212 65.4128C76.54 66.134 75.6971 67.1598 75.1989 68.3602C74.7008 69.5606 74.5698 70.8818 74.8227 72.1566C75.0756 73.4315 75.7009 74.6027 76.6195 75.5221C77.5381 76.4415 78.7088 77.0678 79.9834 77.3218C81.258 77.5758 82.5793 77.446 83.7802 76.9489C84.981 76.4518 86.0075 75.6097 86.7297 74.5291C87.4518 73.4485 87.8373 72.1781 87.8373 70.8784C87.8358 69.1373 87.1439 67.4679 85.9133 66.2363C84.6827 65.0047 83.014 64.3113 81.2729 64.3083Z" fill="#1CD0C5"/>
<path d="M72.4238 98.2385C71.8208 98.2385 71.2426 97.999 70.8162 97.5726C70.3899 97.1463 70.1504 96.5681 70.1504 95.9651V70.8784C70.1504 70.2754 70.3899 69.6972 70.8162 69.2708C71.2426 68.8445 71.8208 68.605 72.4238 68.605C73.0267 68.605 73.6049 68.8445 74.0313 69.2708C74.4576 69.6972 74.6971 70.2754 74.6971 70.8784V95.9651C74.6971 96.5681 74.4576 97.1463 74.0313 97.5726C73.6049 97.999 73.0267 98.2385 72.4238 98.2385Z" fill="#1CD0C5"/>
<path d="M86.127 89.4291H67.8945C67.2915 89.4291 66.7133 89.1896 66.287 88.7632C65.8606 88.3369 65.6211 87.7586 65.6211 87.1557C65.6211 86.5528 65.8606 85.9745 66.287 85.5482C66.7133 85.1218 67.2915 84.8823 67.8945 84.8823H86.127C86.7299 84.8823 87.3082 85.1218 87.7345 85.5482C88.1609 85.9745 88.4004 86.5528 88.4004 87.1557C88.4004 87.7586 88.1609 88.3369 87.7345 88.7632C87.3082 89.1896 86.7299 89.4291 86.127 89.4291Z" fill="#1CD0C5"/>
</g>
<defs>
<clipPath id="clip0">
<rect width="158" height="158" fill="white"/>
</clipPath>
</defs>
</svg>
