<svg width="157" height="159" viewBox="0 0 157 159" fill="none" xmlns="http://www.w3.org/2000/svg">
<g clip-path="url(#clip0)">
<path d="M110.272 124.292C109.238 124.292 108.218 124.065 107.282 123.628C106.05 123.051 105.008 122.136 104.277 120.989C103.545 119.842 103.155 118.511 103.151 117.151C103.15 108.604 105.345 100.202 109.524 92.7484C113.703 85.2951 119.726 79.0414 127.015 74.5873C130.723 72.375 133.953 69.4449 136.515 65.9686C139.078 62.4922 140.922 58.5394 141.939 54.3414C142.957 50.1434 143.127 45.7846 142.441 41.5199C141.754 37.2552 140.224 33.1704 137.941 29.5044C135.657 25.8384 132.666 22.6649 129.142 20.1695C125.618 17.6742 121.632 15.9071 117.417 14.9718C113.203 14.0364 108.844 13.9515 104.596 14.7221C100.348 15.4926 96.2962 17.1031 92.6778 19.4593C91.8178 20.0118 90.7921 20.2467 89.7776 20.1234C88.763 20.0002 87.8233 19.5265 87.1204 18.7842C85.9532 17.5398 84.7071 16.3718 83.3899 15.2876C82.8709 14.8553 82.4585 14.3091 82.1849 13.6913C81.9113 13.0735 81.7839 12.4009 81.8125 11.7258C81.8412 11.0507 82.0252 10.3914 82.3502 9.79904C82.6751 9.20672 83.1323 8.69742 83.6862 8.31079C88.834 4.73287 94.6486 2.22785 100.784 0.944837C106.919 -0.338175 113.25 -0.372945 119.399 0.842596C125.548 2.05814 131.39 4.49914 136.577 8.0203C141.763 11.5415 146.189 16.0708 149.59 21.3387C152.991 26.6065 155.299 32.5053 156.374 38.6837C157.45 44.8622 157.272 51.194 155.852 57.3023C154.432 63.4107 151.797 69.1706 148.106 74.2393C144.415 79.308 139.742 83.5818 134.366 86.8063C129.025 90.0643 124.642 94.6812 121.665 100.186C118.688 105.691 117.223 111.888 117.42 118.144C117.438 118.91 117.286 119.671 116.975 120.372C116.664 121.072 116.201 121.695 115.621 122.195C114.143 123.507 112.247 124.25 110.272 124.292ZM110.272 9.8807H111.544C119.487 10.1532 127.13 12.9875 133.331 17.961C139.533 22.9344 143.961 29.7805 145.957 37.4781C147.952 45.1757 147.407 53.3124 144.402 60.6747C141.398 68.037 136.096 74.2303 129.286 78.331C122.637 82.3919 117.144 88.0954 113.333 94.8936C109.523 101.692 107.524 109.356 107.529 117.151C107.528 117.675 107.678 118.188 107.96 118.629C108.242 119.071 108.644 119.423 109.12 119.643C110.25 120.192 111.55 119.884 112.79 118.841C112.869 118.767 112.932 118.677 112.974 118.577C113.015 118.476 113.035 118.368 113.031 118.259C112.816 111.228 114.467 104.265 117.816 98.0798C121.165 91.8944 126.092 86.7072 132.095 83.0462C136.956 80.1197 141.18 76.2455 144.515 71.6538C147.851 67.062 150.23 61.8464 151.511 56.3167C152.792 50.7869 152.95 45.056 151.974 39.4642C150.998 33.8724 148.909 28.5338 145.831 23.7656C142.753 18.9975 138.748 14.8969 134.055 11.7077C129.362 8.51838 124.076 6.30539 118.512 5.20016C112.947 4.09494 107.217 4.12001 101.663 5.2739C96.1081 6.42779 90.8418 8.68696 86.1768 11.9172C87.6366 13.1039 89.0149 14.3876 90.3024 15.7596C96.2488 11.9053 103.186 9.86282 110.272 9.8807Z" fill="#1CD0C5"/>
<path d="M56.877 54.6561C56.6677 54.655 56.4631 54.5941 56.2872 54.4805C56.1114 54.367 55.9717 54.2054 55.8846 54.015C55.7976 53.8246 55.7667 53.6132 55.7958 53.4059C55.8248 53.1985 55.9125 53.0038 56.0486 52.8446C56.279 52.5757 61.7596 46.2905 68.9463 46.2905C76.2976 46.2905 78.9583 51.2308 79.0626 51.4559C79.1415 51.5843 79.1932 51.7277 79.2143 51.877C79.2354 52.0264 79.2256 52.1785 79.1854 52.3238C79.1452 52.4692 79.0755 52.6047 78.9806 52.7219C78.8857 52.8391 78.7677 52.9355 78.634 53.005C78.5002 53.0746 78.3536 53.1158 78.2032 53.1262C78.0528 53.1365 77.9019 53.1158 77.7599 53.0652C77.6179 53.0146 77.4878 52.9353 77.3778 52.8321C77.2678 52.729 77.1802 52.6044 77.1205 52.4659C77.0327 52.3122 74.9261 48.4862 68.9463 48.4862C62.78 48.4862 57.7602 54.2169 57.7108 54.2773C57.6073 54.3968 57.4792 54.4925 57.3353 54.5579C57.1914 54.6233 57.035 54.6567 56.877 54.6561Z" fill="#19B4EE"/>
<path d="M67.0074 62.7031C66.0998 62.7033 65.2124 62.4353 64.4565 61.9327C63.7006 61.4302 63.1098 60.7155 62.7582 59.8783C62.4067 59.0411 62.31 58.1187 62.4803 57.2268C62.6507 56.3348 63.0805 55.5131 63.7158 54.8646C63.9227 54.6732 64.1954 54.5689 64.4772 54.5733C64.7589 54.5776 65.0282 54.6902 65.2292 54.8878C65.4303 55.0854 65.5476 55.3529 65.5569 55.6347C65.5662 55.9165 65.4668 56.1911 65.2793 56.4015C64.9438 56.7402 64.7161 57.1706 64.6246 57.6385C64.5332 58.1064 64.5823 58.5909 64.7656 59.031C64.9489 59.4711 65.2583 59.847 65.6548 60.1115C66.0513 60.3759 66.5172 60.5171 66.9937 60.5171C67.4702 60.5171 67.936 60.3759 68.3325 60.1115C68.729 59.847 69.0384 59.4711 69.2218 59.031C69.4051 58.5909 69.4541 58.1064 69.3627 57.6385C69.2713 57.1706 69.0435 56.7402 68.7081 56.4015C68.5022 56.1955 68.3865 55.9161 68.3865 55.6248C68.3865 55.3335 68.5022 55.0541 68.7081 54.8481C68.914 54.6421 69.1932 54.5264 69.4844 54.5264C69.7755 54.5264 70.0548 54.6421 70.2606 54.8481C70.9052 55.4929 71.3441 56.3146 71.522 57.209C71.6998 58.1035 71.6085 59.0307 71.2597 59.8732C70.9109 60.7158 70.3202 61.436 69.5623 61.9426C68.8044 62.4493 67.9134 62.7197 67.0019 62.7196L67.0074 62.7031Z" fill="#1CD0C5"/>
<path d="M43.0804 54.6615C42.922 54.6616 42.7654 54.6272 42.6214 54.5609C42.4775 54.4945 42.3496 54.3978 42.2466 54.2773C42.1972 54.2169 37.1774 48.4862 31.0111 48.4862C24.9765 48.4862 22.8643 52.4274 22.8424 52.4659C22.704 52.7161 22.4735 52.9024 22.1999 52.9851C21.9263 53.0679 21.6312 53.0406 21.3775 52.909C21.1237 52.7774 20.9313 52.5519 20.8411 52.2805C20.751 52.0091 20.7703 51.7132 20.8948 51.4559C21.0045 51.2418 23.6379 46.2905 31.0111 46.2905C38.1978 46.2905 43.6839 52.5756 43.9143 52.8446C44.008 52.9542 44.0792 53.0811 44.1238 53.2182C44.1684 53.3553 44.1856 53.4999 44.1744 53.6436C44.1632 53.7873 44.1238 53.9275 44.0585 54.056C43.9931 54.1845 43.9031 54.2989 43.7936 54.3926C43.5957 54.5646 43.3427 54.66 43.0804 54.6615Z" fill="#19B4EE"/>
<path d="M32.9563 62.703C32.0448 62.7031 31.1538 62.4327 30.3959 61.926C29.638 61.4194 29.0473 60.6992 28.6985 59.8566C28.3496 59.0141 28.2584 58.0869 28.4362 57.1924C28.6141 56.2979 29.053 55.4763 29.6976 54.8315C29.9034 54.6226 30.1838 54.504 30.4771 54.502C30.7703 54.4999 31.0523 54.6145 31.2611 54.8205C31.4699 55.0265 31.5883 55.307 31.5904 55.6004C31.5924 55.8938 31.4779 56.176 31.2721 56.3849C31.0469 56.6083 30.8684 56.8743 30.7469 57.1674C30.6254 57.4604 30.5633 57.7748 30.5644 58.0921C30.5642 58.4884 30.6614 58.8786 30.8476 59.2284C31.0337 59.5782 31.303 59.8768 31.6317 60.0979C31.9604 60.3189 32.3385 60.4557 32.7325 60.496C33.1265 60.5363 33.5244 60.4791 33.891 60.3292C34.2577 60.1793 34.5819 59.9415 34.835 59.6367C35.0881 59.3319 35.2623 58.9694 35.3423 58.5813C35.4223 58.1931 35.4057 57.7913 35.2938 57.4111C35.1819 57.031 34.9783 56.6842 34.7008 56.4014C34.4971 56.1932 34.3844 55.9126 34.3875 55.6213C34.3906 55.3299 34.5092 55.0518 34.7173 54.8479C34.9254 54.6441 35.2058 54.5314 35.497 54.5344C35.7881 54.5375 36.0662 54.6562 36.2699 54.8644C36.9052 55.5129 37.3349 56.3347 37.5053 57.2266C37.6756 58.1186 37.5789 59.041 37.2274 59.8782C36.8758 60.7154 36.285 61.43 35.5291 61.9326C34.7732 62.4351 33.8858 62.7031 32.9782 62.703H32.9563Z" fill="#1CD0C5"/>
<path d="M49.8417 41.5312C49.6412 41.5306 49.4446 41.475 49.2734 41.3705C49.1022 41.266 48.9629 41.1165 48.8707 40.9383C48.8039 40.8104 48.763 40.6706 48.7503 40.5268C48.7377 40.383 48.7534 40.2382 48.7967 40.1005C48.84 39.9629 48.9101 39.8351 49.0028 39.7246C49.0955 39.614 49.209 39.5228 49.337 39.4562C61.5983 33.0888 73.3988 37.2112 73.8926 37.3868C74.1669 37.4851 74.3909 37.6883 74.5154 37.9519C74.6399 38.2154 74.6546 38.5176 74.5564 38.7921C74.4582 39.0665 74.2551 39.2906 73.9917 39.4152C73.7283 39.5397 73.4262 39.5545 73.152 39.4562C73.0423 39.4123 61.7355 35.4931 50.3464 41.4049C50.1916 41.489 50.0179 41.5324 49.8417 41.5312Z" fill="#4263A8"/>
<path d="M49.841 41.5312C49.6648 41.5324 49.4911 41.489 49.3362 41.4049C37.9143 35.4766 26.6459 39.4123 26.5307 39.4508C26.3942 39.5046 26.2483 39.5304 26.1017 39.5269C25.955 39.5233 25.8106 39.4903 25.6769 39.4299C25.5432 39.3695 25.4229 39.2828 25.3233 39.1751C25.2236 39.0674 25.1466 38.9408 25.0967 38.8028C25.0468 38.6647 25.025 38.5181 25.0328 38.3715C25.0405 38.2249 25.0775 38.0814 25.1417 37.9494C25.2058 37.8174 25.2957 37.6996 25.4062 37.6029C25.5166 37.5063 25.6453 37.4328 25.7846 37.3868C26.2783 37.2112 38.0788 33.0888 50.3402 39.4562C50.5597 39.5688 50.7349 39.752 50.8376 39.9764C50.9402 40.2007 50.9643 40.4532 50.906 40.6929C50.8477 40.9327 50.7103 41.1458 50.5161 41.2979C50.3219 41.45 50.0821 41.5322 49.8355 41.5312H49.841Z" fill="#4263A8"/>
<path d="M49.8411 31.9035C49.5964 31.9021 49.3592 31.8189 49.1671 31.6672C48.9751 31.5154 48.8393 31.3038 48.7813 31.0659C48.7233 30.828 48.7464 30.5776 48.847 30.3544C48.9476 30.1312 49.1198 29.948 49.3364 29.834C54.8703 27.0337 61.2752 26.4944 67.199 28.33C67.3348 28.3787 67.4597 28.4536 67.5665 28.5506C67.6734 28.6475 67.7601 28.7646 67.8218 28.8951C67.8834 29.0255 67.9188 29.1669 67.9258 29.3111C67.9328 29.4552 67.9114 29.5994 67.8628 29.7352C67.8142 29.8711 67.7393 29.9961 67.6424 30.103C67.5455 30.2099 67.4285 30.2967 67.2981 30.3584C67.1677 30.42 67.0264 30.4554 66.8823 30.4625C66.7382 30.4695 66.5942 30.4481 66.4584 30.3994C66.3651 30.3665 58.3774 27.6109 50.3458 31.7827C50.1897 31.8628 50.0166 31.9042 49.8411 31.9035Z" fill="#4263A8"/>
<path d="M49.8399 31.9035C49.6644 31.9042 49.4914 31.8628 49.3352 31.7827C41.2981 27.6054 33.3049 30.372 33.2226 30.3994C32.9484 30.4977 32.6463 30.4829 32.3829 30.3584C32.1196 30.2338 31.9164 30.0097 31.8182 29.7352C31.72 29.4608 31.7348 29.1586 31.8592 28.8951C31.9837 28.6315 32.2078 28.4283 32.482 28.33C38.4058 26.4944 44.8107 27.0337 50.3446 29.834C50.5612 29.948 50.7335 30.1312 50.834 30.3544C50.9346 30.5776 50.9578 30.828 50.8997 31.0659C50.8417 31.3038 50.7059 31.5154 50.5139 31.6672C50.3218 31.8189 50.0846 31.9021 49.8399 31.9035Z" fill="#4263A8"/>
<path d="M49.8411 93.1296C45.0133 93.1296 40.1966 91.1151 39.9936 91.0273C39.8555 90.9749 39.7294 90.8952 39.6228 90.7929C39.5163 90.6907 39.4314 90.5679 39.3734 90.432C39.3154 90.2962 39.2854 90.15 39.2852 90.0022C39.2849 89.8545 39.3145 89.7082 39.3722 89.5722C39.4298 89.4362 39.5143 89.3132 39.6206 89.2106C39.7268 89.108 39.8527 89.0279 39.9906 88.9752C40.1286 88.9224 40.2757 88.8981 40.4233 88.9036C40.5708 88.9091 40.7158 88.9444 40.8494 89.0072C40.8988 89.0072 45.4632 90.934 49.8411 90.934C54.2189 90.934 58.7888 89.0292 58.8327 89.0072C58.9663 88.9444 59.1113 88.9091 59.2588 88.9036C59.4064 88.8981 59.5535 88.9224 59.6915 88.9752C59.8294 89.0279 59.9553 89.108 60.0615 89.2106C60.1678 89.3132 60.2523 89.4362 60.3099 89.5722C60.3676 89.7082 60.3972 89.8545 60.3969 90.0022C60.3967 90.15 60.3667 90.2962 60.3087 90.432C60.2507 90.5679 60.1658 90.6907 60.0593 90.7929C59.9527 90.8952 59.8266 90.9749 59.6885 91.0273C59.4855 91.1206 54.6688 93.1296 49.8411 93.1296Z" fill="#F376A2"/>
<path d="M53.7626 76.6623H46.0437C44.9292 76.6608 43.8606 76.2175 43.0719 75.4295C42.2833 74.6414 41.8388 73.5728 41.8359 72.4575V70.5363C41.8359 70.2452 41.9515 69.9659 42.1573 69.76C42.3631 69.5541 42.6422 69.4385 42.9331 69.4385C43.2241 69.4385 43.5032 69.5541 43.709 69.76C43.9148 69.9659 44.0304 70.2452 44.0304 70.5363V72.4575C44.0318 72.9914 44.2444 73.5029 44.6217 73.8804C44.9989 74.2579 45.5102 74.4706 46.0437 74.4721H53.7626C54.2957 74.4706 54.8064 74.2577 55.1828 73.8801C55.5592 73.5024 55.7705 72.9909 55.7705 72.4575V70.5363C55.7705 70.2452 55.8861 69.9659 56.0919 69.76C56.2977 69.5541 56.5767 69.4385 56.8677 69.4385C57.1587 69.4385 57.4378 69.5541 57.6436 69.76C57.8493 69.9659 57.965 70.2452 57.965 70.5363V72.4575C57.9621 73.5718 57.5184 74.6396 56.7309 75.4275C55.9435 76.2154 54.8763 76.6594 53.7626 76.6623Z" fill="#4263A8"/>
<path d="M2.32049 62.7028C2.07175 62.7038 1.83004 62.6203 1.635 62.4658C1.43995 62.3113 1.30316 62.0951 1.24704 61.8527C1.19092 61.6102 1.21881 61.3558 1.32613 61.1313C1.43346 60.9068 1.61385 60.7254 1.83772 60.6169C11.6742 55.8468 17.4456 47.4429 18.9926 35.5807C19.68 30.0247 19.4557 24.3937 18.3288 18.91C18.2801 18.635 18.338 18.3517 18.4907 18.1179C18.6434 17.884 18.8795 17.7172 19.1508 17.6515C19.4222 17.5857 19.7083 17.6259 19.9511 17.7639C20.1938 17.9018 20.3749 18.1272 20.4574 18.394C21.6656 24.1135 21.9085 29.995 21.1761 35.7948C19.5687 48.3047 13.2103 57.543 2.79778 62.5766C2.6498 62.653 2.48689 62.6961 2.32049 62.7028Z" fill="#4263A8"/>
<path d="M6.38237 79.3902C6.15208 79.3902 5.92763 79.3177 5.74082 79.183C5.554 79.0482 5.41428 78.8581 5.34146 78.6395C5.26864 78.4209 5.2664 78.1849 5.33506 77.965C5.40373 77.7451 5.53981 77.5523 5.72404 77.4141C15.8513 69.828 14.9077 49.0404 14.8967 48.8538C14.8822 48.5626 14.9838 48.2776 15.1793 48.0614C15.3748 47.8453 15.6481 47.7156 15.9391 47.7011C16.2301 47.6865 16.5149 47.7882 16.731 47.9838C16.947 48.1794 17.0766 48.4529 17.0911 48.744C17.135 49.6443 18.0951 70.9149 7.04069 79.1926C6.84807 79.3273 6.6173 79.3966 6.38237 79.3902Z" fill="#4263A8"/>
<path d="M98.2764 62.7028C98.1112 62.7012 97.9484 62.6637 97.7991 62.593C87.3756 57.543 81.0283 48.2772 79.4208 35.7948C78.6884 29.995 78.9313 24.1135 80.1395 18.394C80.222 18.1272 80.4031 17.9018 80.6458 17.7639C80.8886 17.6259 81.1747 17.5857 81.4461 17.6515C81.7174 17.7172 81.9535 17.884 82.1062 18.1179C82.2589 18.3517 82.3168 18.635 82.2681 18.91C81.1412 24.3937 80.9169 30.0247 81.6043 35.5807C83.1514 47.4264 88.9227 55.8468 98.7592 60.6169C98.9831 60.7254 99.1634 60.9068 99.2708 61.1313C99.3781 61.3558 99.406 61.6102 99.3499 61.8527C99.2937 62.0951 99.1569 62.3113 98.9619 62.4658C98.7669 62.6203 98.5252 62.7038 98.2764 62.7028Z" fill="#4263A8"/>
<path d="M94.2199 79.3902C93.9825 79.3902 93.7515 79.3131 93.5616 79.1706C82.5072 70.8929 83.4673 49.6223 83.5111 48.7221C83.5257 48.4309 83.6552 48.1574 83.8713 47.9618C84.0874 47.7663 84.3722 47.6645 84.6632 47.6791C84.9542 47.6937 85.2275 47.8233 85.423 48.0395C85.6185 48.2556 85.7201 48.5407 85.7056 48.8318C85.7056 49.0404 84.7565 69.839 94.8783 77.4141C95.0625 77.5523 95.1986 77.7451 95.2672 77.965C95.3359 78.1849 95.3337 78.4209 95.2608 78.6395C95.188 78.8581 95.0483 79.0482 94.8615 79.183C94.6747 79.3177 94.4502 79.3902 94.2199 79.3902Z" fill="#4263A8"/>
<path d="M25.4836 91.8614C25.233 91.86 24.9832 91.8343 24.7375 91.7846C24.0819 91.66 23.4717 91.3614 22.9708 90.9201C22.4699 90.4788 22.0968 89.911 21.8903 89.276C17.8635 77.1998 12.3006 69.191 12.2403 69.1142C12.1571 68.9963 12.0979 68.8632 12.0661 68.7225C12.0343 68.5817 12.0305 68.4361 12.055 68.2939C12.1043 68.0067 12.2657 67.7509 12.5036 67.5827C12.7415 67.4146 13.0364 67.3478 13.3235 67.3973C13.4656 67.4217 13.6015 67.474 13.7235 67.551C13.8454 67.628 13.951 67.7283 14.0342 67.8462C14.2701 68.181 19.8385 76.1513 23.9695 88.5844C24.0569 88.8502 24.214 89.0876 24.4243 89.2721C24.6347 89.4565 24.8906 89.581 25.1654 89.6328C25.4311 89.6886 25.7069 89.6716 25.9637 89.5837C26.2205 89.4958 26.4489 89.3402 26.6247 89.1333C30.465 84.687 37.5969 79.39 49.9076 79.39C50.1986 79.39 50.4776 79.5056 50.6834 79.7115C50.8892 79.9174 51.0048 80.1966 51.0048 80.4878C51.0048 80.779 50.8892 81.0582 50.6834 81.2641C50.4776 81.47 50.1986 81.5856 49.9076 81.5856C38.4362 81.5856 31.8036 86.471 28.287 90.566C27.9416 90.9724 27.512 91.2988 27.0279 91.5225C26.5438 91.7462 26.0169 91.8619 25.4836 91.8614Z" fill="#4263A8"/>
<path d="M74.3961 91.8619C73.8635 91.8619 73.3372 91.7467 72.8533 91.524C72.3694 91.3014 71.9394 90.9766 71.5928 90.572C68.0652 86.477 61.4436 81.5916 49.9722 81.5916C49.6812 81.5916 49.4021 81.476 49.1964 81.2701C48.9906 81.0642 48.875 80.785 48.875 80.4938C48.875 80.2026 48.9906 79.9234 49.1964 79.7175C49.4021 79.5116 49.6812 79.396 49.9722 79.396C62.2774 79.396 69.4258 84.693 73.255 89.1393C73.4314 89.3471 73.6606 89.5033 73.9185 89.5913C74.1764 89.6792 74.4533 89.6956 74.7198 89.6388C74.9937 89.5861 75.2484 89.4612 75.4578 89.2768C75.6671 89.0925 75.8233 88.8555 75.9103 88.5904C80.0577 76.1244 86.3338 68.1376 86.6026 67.8028C86.783 67.5742 87.0468 67.4267 87.3359 67.3928C87.625 67.3588 87.9158 67.4411 88.1442 67.6216C88.3726 67.8022 88.52 68.0661 88.554 68.3554C88.5879 68.6446 88.5056 68.9355 88.3252 69.1641C83.853 75.2863 80.369 82.0731 78.0005 89.2765C77.794 89.9115 77.4208 90.4793 76.9199 90.9206C76.419 91.3619 75.8089 91.6605 75.1532 91.7851C74.9039 91.8351 74.6504 91.8609 74.3961 91.8619Z" fill="#4263A8"/>
<path d="M50.1096 156.804H49.7475C39.7849 156.695 36.5536 152.111 35.5112 149.399C27.732 148.604 24.8024 142.357 24.1386 137.779C21.512 137.309 19.1103 135.994 17.2975 134.035C7.35128 123.809 7.32933 95.5505 7.55975 87.1356C7.57082 86.6117 7.45803 86.0926 7.23058 85.6206C0.773493 72.0348 -4.62479 56.7694 6.13337 32.9243C14.7794 13.8274 29.5918 9.94653 35.5551 9.16158C36.3827 9.04546 37.1406 8.63416 37.6892 8.00336C40.1414 5.25876 43.9543 4.91843 48.4199 7.05922C48.8698 7.27339 49.3618 7.38452 49.86 7.38452C50.3582 7.38452 50.8502 7.27339 51.3001 7.05922C55.9139 4.86354 59.809 5.22583 62.2722 7.99238C62.8202 8.61913 63.5762 9.02657 64.4008 9.13962C70.3587 9.94653 85.171 13.8274 93.8116 32.9353C104.592 56.7748 99.1879 72.0403 92.7143 85.6315C92.4886 86.1039 92.3777 86.6231 92.3907 87.1465C92.6211 95.5615 92.5991 123.82 82.6529 134.046C80.8415 135.999 78.4441 137.309 75.8228 137.779C75.148 142.346 72.2184 148.593 64.4337 149.389C63.3968 152.1 60.1656 156.684 50.2029 156.793L50.1096 156.804ZM43.0929 10.0618C42.6966 10.0437 42.301 10.1119 41.9335 10.2616C41.566 10.4114 41.2353 10.6391 40.9644 10.9291C39.7137 12.3438 37.9963 13.2615 36.1257 13.5145C30.8865 14.2007 17.868 17.6479 10.1382 34.7467C0.126138 56.8956 4.93741 70.5637 11.186 83.7487C11.7087 84.8502 11.9644 86.0594 11.9321 87.2783C11.7785 92.9596 11.4603 121.772 20.43 131C21.1513 131.807 22.0337 132.453 23.0203 132.898C24.0068 133.342 25.0756 133.574 26.1575 133.58C26.7395 133.58 27.2976 133.811 27.7092 134.223C28.1207 134.635 28.3519 135.193 28.3519 135.775C28.3519 136.725 28.7359 145.107 37.2174 145.107C37.7719 145.105 38.3066 145.314 38.7137 145.691C39.1208 146.068 39.3702 146.585 39.4118 147.138C39.4118 147.308 40.1414 152.38 49.9834 152.424C59.8254 152.38 60.5331 147.308 60.5606 147.094C60.6025 146.545 60.8535 146.032 61.2618 145.663C61.6701 145.293 62.2045 145.094 62.755 145.107C71.2309 145.107 71.604 136.708 71.615 135.775C71.6222 135.198 71.8566 134.646 72.2673 134.24C72.6781 133.835 73.2321 133.607 73.8094 133.607C74.8915 133.603 75.9605 133.371 76.9472 132.926C77.9339 132.482 78.8162 131.835 79.5368 131.027C88.512 121.8 88.1938 92.9871 88.0347 87.3057C88.0035 86.0899 88.261 84.884 88.7863 83.7872C95.0514 70.6131 99.8462 56.934 89.8342 34.7851C82.0988 17.6863 69.0859 14.2446 63.8467 13.5529C61.9751 13.3028 60.2568 12.3846 59.008 10.9675C57.6584 9.44702 55.0964 10.199 53.1873 11.0938C52.1477 11.5854 51.011 11.8372 49.8611 11.8305C48.7113 11.8239 47.5776 11.559 46.5437 11.0554C45.4771 10.4825 44.3007 10.1438 43.0929 10.0618Z" fill="#8D67C3"/>
<path d="M49.8394 126.521C49.5484 126.521 49.2693 126.405 49.0636 126.199C48.8578 125.993 48.7422 125.714 48.7422 125.423C48.7422 123.436 46.4381 121.476 43.7718 119.203C40.0249 116.02 35.3672 112.067 35.3672 105.958C35.421 102.784 35.9593 99.6373 36.9636 96.6264C37.0611 96.3519 37.2636 96.1275 37.5264 96.0024C37.7893 95.8773 38.0911 95.8619 38.3653 95.9594C38.6396 96.057 38.8639 96.2595 38.9889 96.5225C39.1139 96.7855 39.1294 97.0875 39.0319 97.3619C38.1182 100.133 37.6227 103.024 37.5616 105.942C37.5616 111.025 41.6158 114.472 45.1927 117.513C48.1442 120.027 50.9366 122.404 50.9366 125.406C50.9388 125.552 50.912 125.696 50.8579 125.831C50.8037 125.966 50.7232 126.089 50.6211 126.193C50.519 126.297 50.3973 126.379 50.2631 126.435C50.1289 126.492 49.9849 126.521 49.8394 126.521Z" fill="#4263A8"/>
<path d="M50.191 126.521C49.9 126.521 49.6209 126.405 49.4151 126.199C49.2093 125.993 49.0938 125.714 49.0938 125.423C49.0938 122.42 51.8862 120.043 54.8377 117.529C58.4146 114.488 62.4743 111.041 62.4743 105.958C62.4147 103.039 61.9173 100.145 60.9985 97.3731C60.901 97.0987 60.9165 96.7968 61.0415 96.5338C61.1665 96.2707 61.3908 96.0682 61.6651 95.9706C61.9393 95.8731 62.2411 95.8886 62.504 96.0136C62.7668 96.1387 62.9693 96.3632 63.0668 96.6376C64.0742 99.6479 64.6145 102.795 64.6687 105.969C64.6687 112.068 60.0055 116.031 56.2586 119.215C53.5923 121.487 51.2882 123.447 51.2882 125.434C51.2853 125.723 51.1684 126 50.963 126.203C50.7575 126.407 50.4801 126.521 50.191 126.521Z" fill="#4263A8"/>
<path d="M25.7826 127.816C25.532 127.823 25.2864 127.744 25.0868 127.592C24.8872 127.441 24.7455 127.225 24.6854 126.981C23.4566 122.041 21.915 114.675 21.5639 107.637C21.5567 107.493 21.5779 107.349 21.6264 107.213C21.6749 107.077 21.7497 106.952 21.8464 106.845C21.9432 106.738 22.0601 106.651 22.1905 106.589C22.3209 106.528 22.4621 106.492 22.6062 106.485C22.7503 106.478 22.8944 106.499 23.0303 106.547C23.1662 106.596 23.2912 106.671 23.3981 106.768C23.5051 106.864 23.592 106.981 23.6538 107.112C23.7156 107.242 23.7511 107.384 23.7583 107.528C24.1039 114.389 25.6181 121.602 26.8195 126.449C26.8549 126.589 26.8624 126.734 26.8415 126.877C26.8207 127.02 26.7719 127.157 26.6981 127.281C26.6242 127.405 26.5266 127.513 26.411 127.599C26.2953 127.685 26.1638 127.748 26.024 127.783C25.9449 127.802 25.864 127.813 25.7826 127.816Z" fill="#4263A8"/>
<path d="M74.2631 127.816C74.1725 127.816 74.0823 127.805 73.9943 127.783C73.854 127.748 73.722 127.686 73.6057 127.6C73.4894 127.514 73.3913 127.406 73.3169 127.282C73.2424 127.158 73.1932 127.021 73.172 126.878C73.1508 126.735 73.1581 126.589 73.1934 126.449C74.4003 121.602 75.9364 114.373 76.2601 107.528C76.2746 107.237 76.4042 106.963 76.6202 106.768C76.8363 106.572 77.1212 106.47 77.4122 106.485C77.7032 106.499 77.9765 106.629 78.1719 106.845C78.3674 107.061 78.4691 107.346 78.4545 107.637C78.0979 114.675 76.5618 122.041 75.3329 126.981C75.2739 127.22 75.1363 127.432 74.9423 127.584C74.7483 127.735 74.5091 127.817 74.2631 127.816Z" fill="#4263A8"/>
<path d="M110.272 159C108.173 159.001 106.121 158.379 104.375 157.213C102.629 156.047 101.269 154.389 100.465 152.449C99.6612 150.509 99.4506 148.374 99.8599 146.314C100.269 144.254 101.28 142.362 102.764 140.877C104.248 139.392 106.139 138.381 108.198 137.971C110.256 137.562 112.39 137.773 114.329 138.577C116.268 139.381 117.925 140.742 119.09 142.489C120.256 144.236 120.877 146.289 120.876 148.389C120.872 151.202 119.753 153.898 117.766 155.887C115.778 157.876 113.083 158.995 110.272 159ZM110.272 142.17C109.041 142.169 107.838 142.533 106.814 143.216C105.79 143.9 104.992 144.871 104.52 146.009C104.049 147.146 103.925 148.398 104.164 149.606C104.403 150.814 104.995 151.923 105.865 152.794C106.735 153.665 107.844 154.259 109.051 154.499C110.258 154.74 111.509 154.617 112.646 154.146C113.783 153.675 114.755 152.877 115.439 151.854C116.122 150.83 116.487 149.626 116.487 148.395C116.485 146.746 115.829 145.165 114.664 143.998C113.499 142.832 111.92 142.174 110.272 142.17Z" fill="#1CD0C5"/>
</g>
<defs>
<clipPath id="clip0">
<rect width="157" height="159" fill="white"/>
</clipPath>
</defs>
</svg>
