<svg width="156" height="156" viewBox="0 0 156 156" fill="none" xmlns="http://www.w3.org/2000/svg">
<g clip-path="url(#clip0)">
<path d="M42.5981 80.2444C42.3932 80.2441 42.1893 80.2158 41.9921 80.1602L4.85508 69.7621C4.29611 69.5893 3.82671 69.2051 3.54686 68.6913C3.26701 68.1775 3.19884 67.5747 3.35686 67.0114C3.51489 66.4481 3.88662 65.9687 4.39287 65.6754C4.89912 65.3821 5.49988 65.2981 6.06717 65.4413L43.2098 75.8394C43.7317 75.9865 44.1828 76.3176 44.4795 76.7715C44.7763 77.2254 44.8987 77.7714 44.8241 78.3085C44.7495 78.8457 44.483 79.3376 44.0738 79.6935C43.6646 80.0494 43.1404 80.2451 42.5981 80.2444Z" fill="#1CD0C5"/>
<path d="M113.402 80.2444C112.86 80.2437 112.337 80.0471 111.929 79.6907C111.52 79.3344 111.255 78.8425 111.181 78.3057C111.107 77.769 111.23 77.2236 111.527 76.7703C111.824 76.317 112.274 75.9864 112.796 75.8394L149.933 65.4413C150.5 65.2981 151.101 65.3821 151.607 65.6754C152.113 65.9687 152.485 66.4481 152.643 67.0114C152.801 67.5747 152.733 68.1775 152.453 68.6913C152.173 69.2051 151.704 69.5893 151.145 69.7621L114.008 80.1602C113.811 80.2154 113.607 80.2437 113.402 80.2444Z" fill="#1CD0C5"/>
<path d="M120.13 143.094H36.4282C35.8329 143.094 35.262 142.857 34.841 142.436C34.4201 142.015 34.1836 141.444 34.1836 140.849C34.1836 140.254 34.4201 139.683 34.841 139.262C35.262 138.841 35.8329 138.604 36.4282 138.604H120.13C120.725 138.604 121.296 138.841 121.717 139.262C122.138 139.683 122.374 140.254 122.374 140.849C122.374 141.444 122.138 142.015 121.717 142.436C121.296 142.857 120.725 143.094 120.13 143.094Z" fill="#F376A2"/>
<path d="M119.803 156H36.753C36.1673 156 35.6047 155.771 35.1853 155.362C34.7659 154.953 34.523 154.397 34.5084 153.811L32.8249 87.2476C32.81 86.6523 33.0322 86.0755 33.4427 85.644C33.8531 85.2125 34.4181 84.9618 35.0134 84.9469C35.6087 84.932 36.1856 85.1542 36.617 85.5646C37.0485 85.9751 37.2992 86.5401 37.3141 87.1354L38.9415 151.511H117.615L119.242 86.9783C119.257 86.3829 119.508 85.8179 119.939 85.4075C120.371 84.9971 120.948 84.7749 121.543 84.7898C122.138 84.8046 122.703 85.0554 123.114 85.4869C123.524 85.9183 123.746 86.4952 123.731 87.0905L122.048 153.811C122.033 154.397 121.79 154.953 121.371 155.362C120.952 155.771 120.389 156 119.803 156Z" fill="#8D67C3"/>
<path d="M113.403 91.5408C112.808 91.5408 112.237 91.3043 111.816 90.8834C111.395 90.4624 111.159 89.8915 111.159 89.2962V37.9565C111.159 37.3612 111.395 36.7902 111.816 36.3693C112.237 35.9484 112.808 35.7119 113.403 35.7119C113.999 35.7119 114.569 35.9484 114.99 36.3693C115.411 36.7902 115.648 37.3612 115.648 37.9565V86.3389L150.95 76.4627L135.03 25.05C133.21 19.0875 129.519 13.869 124.504 10.1663C119.488 6.46356 113.414 4.47316 107.18 4.48942H106.338C105.743 4.48942 105.172 4.25294 104.751 3.83199C104.33 3.41105 104.094 2.84013 104.094 2.24482C104.094 1.64951 104.33 1.07859 104.751 0.657644C105.172 0.236699 105.743 0.000214473 106.338 0.000214473H107.18C114.378 -0.0255321 121.393 2.26742 127.186 6.53955C132.979 10.8117 137.243 16.8359 139.345 23.7201L155.927 77.3381C156.013 77.6232 156.041 77.9226 156.01 78.2187C155.979 78.5148 155.889 78.8018 155.746 79.063C155.603 79.3241 155.409 79.5541 155.177 79.7397C154.944 79.9252 154.676 80.0626 154.39 80.1438L114.009 91.4678C113.812 91.5196 113.608 91.5442 113.403 91.5408Z" fill="#8D67C3"/>
<path d="M42.5949 91.5408C42.3903 91.5424 42.1864 91.5159 41.9889 91.4622L1.63649 80.1606C1.35001 80.0795 1.08255 79.9421 0.849678 79.7565C0.616809 79.5709 0.423189 79.3409 0.280093 79.0798C0.136997 78.8186 0.0472857 78.5317 0.0161842 78.2355C-0.0149172 77.9394 0.0132126 77.64 0.0989355 77.3549L16.681 23.7201C18.7833 16.8359 23.0467 10.8117 28.8399 6.53955C34.6331 2.26742 41.6481 -0.0255321 48.8461 0.000214473H50.221C50.8163 0.000214473 51.3872 0.236699 51.8081 0.657644C52.2291 1.07859 52.4656 1.64951 52.4656 2.24482C52.4656 2.84012 52.2291 3.41105 51.8081 3.83199C51.3872 4.25294 50.8163 4.48942 50.221 4.48942H48.8461C42.6072 4.46713 36.5269 6.45473 31.5058 10.1579C26.4847 13.8611 22.7898 19.0829 20.9681 25.05L5.04829 76.4626L40.3279 86.3389V37.9565C40.3279 37.3612 40.5643 36.7902 40.9853 36.3693C41.4062 35.9483 41.9772 35.7119 42.5725 35.7119C43.1678 35.7119 43.7387 35.9483 44.1596 36.3693C44.5806 36.7902 44.8171 37.3612 44.8171 37.9565V89.2962C44.8171 89.8915 44.5806 90.4624 44.1596 90.8833C43.7387 91.3043 43.1678 91.5408 42.5725 91.5408H42.5949Z" fill="#8D67C3"/>
<path d="M78.2787 32.5468C70.2448 32.5379 62.5425 29.3424 56.8617 23.6616C51.1809 17.9808 47.9855 10.2785 47.9766 2.2446C47.9766 1.6493 48.213 1.07837 48.634 0.657429C49.0549 0.236484 49.6259 0 50.2212 0L61.4442 0C62.0395 0 62.6104 0.236484 63.0314 0.657429C63.4523 1.07837 63.6888 1.6493 63.6888 2.2446C63.6888 6.11409 65.2259 9.8251 67.9621 12.5612C70.6982 15.2974 74.4092 16.8345 78.2787 16.8345C82.1482 16.8345 85.8592 15.2974 88.5954 12.5612C91.3315 9.8251 92.8686 6.11409 92.8686 2.2446C92.8686 1.6493 93.1051 1.07837 93.5261 0.657429C93.947 0.236484 94.5179 0 95.1133 0L106.336 0C106.932 0 107.503 0.236484 107.923 0.657429C108.344 1.07837 108.581 1.6493 108.581 2.2446C108.572 10.2785 105.377 17.9808 99.6957 23.6616C94.0149 29.3424 86.3126 32.5379 78.2787 32.5468ZM52.5612 4.48921C53.1162 10.9275 56.066 16.9235 60.8277 21.2923C65.5894 25.6611 71.8165 28.085 78.2787 28.085C84.7409 28.085 90.9681 25.6611 95.7297 21.2923C100.491 16.9235 103.441 10.9275 103.996 4.48921H97.2288C96.6858 9.13404 94.4557 13.4177 90.9623 16.5265C87.4688 19.6354 82.9552 21.3529 78.2787 21.3529C73.6023 21.3529 69.0887 19.6354 65.5952 16.5265C62.1017 13.4177 59.8717 9.13404 59.3286 4.48921H52.5612Z" fill="#19B4EE"/>
<path d="M69.5115 101.378H61.4477C60.8524 101.378 60.2815 101.141 59.8606 100.72C59.4396 100.299 59.2031 99.7284 59.2031 99.1331V56.8672C59.2031 56.2719 59.4396 55.7009 59.8606 55.28C60.2815 54.859 60.8524 54.6226 61.4477 54.6226H69.6574C87.5244 54.6226 97.3614 62.7424 97.3614 77.4895C97.3614 91.5519 85.9083 101.378 69.5115 101.378ZM63.6923 96.8885H69.5115C83.2653 96.8885 92.8722 88.9089 92.8722 77.4895C92.8722 65.2957 85.061 59.1118 69.6574 59.1118H63.6923V96.8885Z" fill="#F376A2"/>
</g>
<defs>
<clipPath id="clip0">
<rect width="156" height="156" fill="white"/>
</clipPath>
</defs>
</svg>
