<svg width="105" height="156" viewBox="0 0 105 156" fill="none" xmlns="http://www.w3.org/2000/svg">
<g clip-path="url(#clip0)">
<path d="M77.6334 113.352C68.3047 113.342 59.3609 109.614 52.7645 102.986C46.168 96.3588 42.4576 87.3728 42.4473 77.9999C42.4473 77.5286 42.4473 77.0572 42.4473 76.5858C42.4695 75.9905 42.7262 75.4285 43.1608 75.0233C43.5955 74.6182 44.1726 74.4031 44.7651 74.4254C45.3576 74.4477 45.917 74.7056 46.3203 75.1424C46.7235 75.5791 46.9376 76.1589 46.9153 76.7542C46.9153 77.1694 46.9153 77.5847 46.9153 77.9999C46.9155 84.104 48.7172 90.0709 52.0926 95.1462C55.468 100.221 60.2654 104.177 65.8783 106.513C71.4911 108.849 77.6674 109.46 83.626 108.269C89.5846 107.079 95.0579 104.139 99.3539 99.8231C99.9627 99.2114 100.538 98.583 101.057 97.9657C101.447 97.54 101.984 97.2815 102.558 97.2442C103.133 97.2069 103.699 97.3935 104.139 97.7653C104.58 98.1371 104.861 98.6653 104.923 99.2399C104.986 99.8146 104.826 100.391 104.475 100.85C103.878 101.568 103.219 102.292 102.515 102.999C99.2552 106.292 95.3776 108.903 91.1066 110.68C86.8356 112.457 82.2562 113.366 77.6334 113.352Z" fill="#1CD0C5"/>
<path d="M102.765 58.8366C102.439 58.8362 102.118 58.7642 101.822 58.6255C101.527 58.4869 101.266 58.2851 101.056 58.0342C100.537 57.4169 99.9392 56.7884 99.3527 56.1768C95.4149 52.2256 90.4837 49.4221 85.0848 48.0653C79.6859 46.7084 74.0217 46.8491 68.6961 48.4722C68.4839 48.5348 68.2639 48.567 68.0426 48.5676C67.4962 48.5714 66.9672 48.3739 66.556 48.0123C66.1447 47.6508 65.8795 47.1503 65.8107 46.6056C65.7419 46.0609 65.8742 45.5097 66.1826 45.0564C66.491 44.6031 66.954 44.2791 67.4841 44.1457C73.5791 42.3059 80.0561 42.1577 86.2281 43.7166C92.4002 45.2756 98.0374 48.4837 102.542 53.0006C103.246 53.7077 103.905 54.4316 104.502 55.1499C104.775 55.477 104.95 55.8756 105.005 56.2989C105.061 56.7222 104.995 57.1527 104.815 57.5397C104.636 57.9267 104.35 58.2543 103.992 58.484C103.634 58.7138 103.218 58.8361 102.793 58.8366H102.765Z" fill="#1CD0C5"/>
<path d="M2.23404 131.31C1.64154 131.31 1.0733 131.073 0.654336 130.652C0.235372 130.231 0 129.66 0 129.065V26.9356C0.000347039 26.4622 0.149615 26.0011 0.426469 25.6181C0.703322 25.2352 1.09359 24.9499 1.54149 24.8032L77.2197 0.112531C77.5549 0.00270415 77.9113 -0.0258333 78.2596 0.0292522C78.6079 0.0843378 78.9383 0.221482 79.2238 0.429467C79.5092 0.637453 79.7416 0.910373 79.902 1.22591C80.0623 1.54144 80.146 1.89063 80.1463 2.2449V26.9356C80.1463 27.5309 79.9109 28.1018 79.4919 28.5227C79.073 28.9437 78.5047 29.1802 77.9122 29.1802C77.3197 29.1802 76.7515 28.9437 76.3325 28.5227C75.9136 28.1018 75.6782 27.5309 75.6782 26.9356V5.33124L4.46809 28.5685V129.065C4.46809 129.66 4.23271 130.231 3.81375 130.652C3.39479 131.073 2.82655 131.31 2.23404 131.31Z" fill="#8D67C3"/>
<path d="M102.766 156H2.23404C1.64154 156 1.0733 155.763 0.654336 155.342C0.235372 154.921 0 154.35 0 153.755V26.935C0 26.3397 0.235372 25.7688 0.654336 25.3479C1.0733 24.9269 1.64154 24.6904 2.23404 24.6904H102.766C103.358 24.6904 103.927 24.9269 104.346 25.3479C104.765 25.7688 105 26.3397 105 26.935V153.755C105 154.35 104.765 154.921 104.346 155.342C103.927 155.763 103.358 156 102.766 156ZM4.46809 151.511H100.532V29.1796H4.46809V151.511Z" fill="#4263A8"/>
<path d="M52.4997 80.525C48.164 80.525 43.9257 79.2332 40.3207 76.8131C36.7157 74.3929 33.906 70.953 32.2468 66.9285C30.5876 62.9039 30.1535 58.4754 30.9994 54.2029C31.8452 49.9304 33.933 46.0059 36.9988 42.9256C40.0646 39.8454 43.9706 37.7477 48.223 36.8978C52.4754 36.048 56.883 36.4842 60.8887 38.1512C64.8943 39.8182 68.318 42.6412 70.7268 46.2633C73.1355 49.8853 74.4212 54.1436 74.4212 58.4998C74.4138 64.339 72.1019 69.9368 67.9924 74.0658C63.8829 78.1947 58.3114 80.5176 52.4997 80.525ZM52.4997 40.9638C49.0477 40.9638 45.6733 41.9923 42.8031 43.9192C39.9328 45.846 37.6958 48.5848 36.3748 51.7891C35.0538 54.9934 34.7081 58.5193 35.3816 61.9209C36.055 65.3225 37.7173 68.4472 40.1582 70.8996C42.5991 73.3521 45.709 75.0222 49.0947 75.6988C52.4803 76.3755 55.9896 76.0282 59.1788 74.7009C62.368 73.3737 65.0939 71.126 67.0117 68.2423C68.9295 65.3585 69.9531 61.9681 69.9531 58.4998C69.9472 53.8508 68.1065 49.3939 64.8346 46.1066C61.5627 42.8192 57.1268 40.9698 52.4997 40.9638Z" fill="#F376A2"/>
<path d="M35.0474 101.742H14.3825C13.79 101.742 13.2217 101.506 12.8028 101.085C12.3838 100.664 12.1484 100.093 12.1484 99.4975C12.1484 98.9022 12.3838 98.3313 12.8028 97.9104C13.2217 97.4894 13.79 97.2529 14.3825 97.2529H35.0474C35.6399 97.2529 36.2081 97.4894 36.6271 97.9104C37.046 98.3313 37.2814 98.9022 37.2814 99.4975C37.2814 100.093 37.046 100.664 36.6271 101.085C36.2081 101.506 35.6399 101.742 35.0474 101.742Z" fill="#19B4EE"/>
<path d="M35.0474 118.493H14.3825C13.79 118.493 13.2217 118.256 12.8028 117.835C12.3838 117.414 12.1484 116.843 12.1484 116.248C12.1484 115.653 12.3838 115.082 12.8028 114.661C13.2217 114.24 13.79 114.003 14.3825 114.003H35.0474C35.6399 114.003 36.2081 114.24 36.6271 114.661C37.046 115.082 37.2814 115.653 37.2814 116.248C37.2814 116.843 37.046 117.414 36.6271 117.835C36.2081 118.256 35.6399 118.493 35.0474 118.493Z" fill="#19B4EE"/>
<path d="M77.6338 135.237H14.3825C13.79 135.237 13.2217 135.001 12.8028 134.58C12.3838 134.159 12.1484 133.588 12.1484 132.993C12.1484 132.397 12.3838 131.826 12.8028 131.405C13.2217 130.985 13.79 130.748 14.3825 130.748H77.6338C78.2263 130.748 78.7945 130.985 79.2135 131.405C79.6325 131.826 79.8679 132.397 79.8679 132.993C79.8679 133.588 79.6325 134.159 79.2135 134.58C78.7945 135.001 78.2263 135.237 77.6338 135.237Z" fill="#19B4EE"/>
</g>
<defs>
<clipPath id="clip0">
<rect width="105" height="156" fill="white"/>
</clipPath>
</defs>
</svg>
