<svg width="137" height="157" viewBox="0 0 137 157" fill="none" xmlns="http://www.w3.org/2000/svg">
<g clip-path="url(#clip0)">
<path d="M2.35689 146.945C1.7318 146.945 1.13232 146.697 0.690316 146.255C0.248314 145.813 0 145.214 0 144.59V2.35488C0 1.73033 0.248314 1.13136 0.690316 0.689729C1.13232 0.248103 1.7318 0 2.35689 0L134.643 0C135.268 0 135.868 0.248103 136.31 0.689729C136.752 1.13136 137 1.73033 137 2.35488V134.529C137 135.153 136.752 135.752 136.31 136.194C135.868 136.635 135.268 136.883 134.643 136.883C134.018 136.883 133.419 136.635 132.977 136.194C132.535 135.752 132.286 135.153 132.286 134.529V4.70976H4.71378V144.59C4.71378 145.214 4.46546 145.813 4.02346 146.255C3.58146 146.697 2.98197 146.945 2.35689 146.945Z" fill="#1CD0C5"/>
<path d="M134.644 157H12.4277C10.7735 157.036 9.12865 156.742 7.5898 156.134C6.05095 155.526 4.64905 154.618 3.46635 153.462C2.28366 152.305 1.34398 150.925 0.702453 149.401C0.0609259 147.877 -0.269531 146.24 -0.269531 144.587C-0.269531 142.934 0.0609259 141.297 0.702453 139.773C1.34398 138.249 2.28366 136.869 3.46635 135.712C4.64905 134.556 6.05095 133.648 7.5898 133.04C9.12865 132.432 10.7735 132.138 12.4277 132.174H134.644C135.269 132.174 135.869 132.422 136.311 132.864C136.753 133.305 137.001 133.904 137.001 134.529V154.645C137.001 155.27 136.753 155.869 136.311 156.31C135.869 156.752 135.269 157 134.644 157ZM12.4277 136.884C11.3973 136.855 10.3716 137.033 9.41132 137.408C8.45099 137.782 7.57551 138.345 6.83661 139.063C6.09771 139.781 5.51039 140.64 5.10934 141.589C4.70829 142.538 4.50166 143.557 4.50166 144.587C4.50166 145.617 4.70829 146.636 5.10934 147.585C5.51039 148.534 6.09771 149.393 6.83661 150.111C7.57551 150.829 8.45099 151.392 9.41132 151.766C10.3716 152.141 11.3973 152.319 12.4277 152.29H132.287V136.884H12.4277Z" fill="#8D67C3"/>
<path d="M134.644 146.945H109.79C109.165 146.945 108.566 146.697 108.124 146.255C107.682 145.813 107.434 145.214 107.434 144.59C107.434 143.965 107.682 143.366 108.124 142.925C108.566 142.483 109.165 142.235 109.79 142.235H134.644C135.269 142.235 135.868 142.483 136.31 142.925C136.752 143.366 137.001 143.965 137.001 144.59C137.001 145.214 136.752 145.813 136.31 146.255C135.868 146.697 135.269 146.945 134.644 146.945Z" fill="#8D67C3"/>
<path d="M58.4494 67.3437H49.2163C48.5912 67.3437 47.9917 67.0956 47.5497 66.654C47.1077 66.2124 46.8594 65.6134 46.8594 64.9888V16.6137C46.8594 15.9891 47.1077 15.3901 47.5497 14.9485C47.9917 14.5069 48.5912 14.2588 49.2163 14.2588H58.6438C78.972 14.2588 90.1672 23.4782 90.1672 40.2155C90.1495 56.1875 77.11 67.3437 58.4494 67.3437ZM51.5732 62.634H58.4494C74.3584 62.634 85.4299 53.4146 85.4299 40.2155C85.4299 26.0862 76.4089 18.9686 58.6202 18.9686H51.5496L51.5732 62.634Z" fill="#F376A2"/>
<path d="M94.4916 136.884C94.0692 136.884 93.6544 136.772 93.2906 136.557C92.9267 136.343 92.6272 136.035 92.4234 135.665L78.5119 110.403L69.6736 115.248L79.5548 133.181C79.8275 133.725 79.8789 134.353 79.6982 134.934C79.5175 135.515 79.1188 136.004 78.5856 136.297C78.0523 136.591 77.426 136.667 76.8378 136.51C76.2496 136.353 75.7452 135.974 75.4303 135.453L64.4118 115.437C64.1112 114.889 64.0404 114.245 64.215 113.646C64.3895 113.046 64.7952 112.541 65.3428 112.24L78.3057 105.11C78.852 104.82 79.4907 104.756 80.0838 104.933C80.6769 105.109 81.1768 105.511 81.4757 106.052L96.5244 133.375C96.6765 133.644 96.774 133.941 96.8113 134.248C96.8487 134.555 96.8251 134.867 96.7419 135.165C96.6587 135.463 96.5176 135.741 96.3266 135.985C96.1356 136.228 95.8985 136.432 95.6288 136.583C95.2803 136.776 94.8896 136.879 94.4916 136.884Z" fill="#8D67C3"/>
<path d="M66.4996 116.679C66.0846 116.674 65.6781 116.561 65.3212 116.349L52.8827 109.014C52.5133 108.801 52.2086 108.492 52.0011 108.12C51.7935 107.747 51.691 107.326 51.7043 106.9L52.7708 78.4119C52.7865 78.006 52.9072 77.611 53.1209 77.2654C53.3346 76.9198 53.6342 76.6354 53.9905 76.4397C54.3445 76.2395 54.7444 76.1343 55.1512 76.1343C55.558 76.1343 55.9579 76.2395 56.312 76.4397L80.965 90.7868C81.3335 90.9992 81.6377 91.3072 81.8451 91.6783C82.0526 92.0493 82.1557 92.4696 82.1435 92.8944L81.7016 107.3C81.6888 107.709 81.5696 108.108 81.3557 108.457C81.1419 108.806 80.8407 109.093 80.4819 109.29L67.625 116.355C67.2832 116.556 66.8961 116.667 66.4996 116.679ZM56.4829 105.67L66.535 111.61L77.0408 105.835L77.3944 94.172L57.3608 82.5094L56.4829 105.67Z" fill="#19B4EE"/>
<path d="M67.3958 101.913C67.1872 101.915 66.9818 101.862 66.8006 101.758C66.6194 101.655 66.469 101.505 66.3647 101.325L54.1148 79.0709C54.0401 78.9353 53.9929 78.7862 53.9759 78.6323C53.9589 78.4784 53.9724 78.3227 54.0156 78.174C54.0588 78.0253 54.1309 77.8865 54.2278 77.7657C54.3247 77.6448 54.4445 77.5442 54.5802 77.4696C54.716 77.395 54.8652 77.3479 55.0193 77.3309C55.1733 77.3139 55.3292 77.3273 55.478 77.3705C55.6268 77.4137 55.7657 77.4858 55.8866 77.5826C56.0076 77.6794 56.1083 77.799 56.1829 77.9347L68.427 100.171C68.5019 100.306 68.5492 100.455 68.5664 100.609C68.5835 100.763 68.5701 100.919 68.5268 101.068C68.4836 101.217 68.4114 101.355 68.3144 101.476C68.2174 101.597 68.0974 101.698 67.9615 101.772C67.7884 101.867 67.5935 101.916 67.3958 101.913Z" fill="#19B4EE"/>
</g>
<defs>
<clipPath id="clip0">
<rect width="137" height="157" fill="white"/>
</clipPath>
</defs>
</svg>
