<svg width="158" height="158" viewBox="0 0 158 158" fill="none" xmlns="http://www.w3.org/2000/svg">
<g clip-path="url(#clip0)">
<path d="M33.5324 67.0648C26.9003 67.0648 20.4172 65.0981 14.9028 61.4135C9.38843 57.729 5.0905 52.4919 2.55252 46.3647C0.014529 40.2374 -0.649524 33.4952 0.64433 26.9905C1.93818 20.4859 5.13183 14.511 9.82142 9.82142C14.511 5.13183 20.4859 1.93818 26.9905 0.64433C33.4952 -0.649524 40.2374 0.014529 46.3647 2.55252C52.4919 5.0905 57.729 9.38843 61.4135 14.9028C65.0981 20.4172 67.0648 26.9003 67.0648 33.5324C67.0542 42.4225 63.518 50.9455 57.2317 57.2317C50.9455 63.518 42.4225 67.0542 33.5324 67.0648ZM33.5324 4.54678C27.7996 4.54678 22.1955 6.24675 17.4288 9.43173C12.6622 12.6167 8.94703 17.1436 6.75318 22.4401C4.55932 27.7365 3.98531 33.5645 5.10373 39.1872C6.22214 44.8099 8.98276 49.9746 13.0365 54.0283C17.0902 58.082 22.2549 60.8426 27.8776 61.961C33.5002 63.0795 39.3283 62.5055 44.6247 60.3116C49.9211 58.1177 54.4481 54.4026 57.633 49.6359C60.818 44.8693 62.518 39.2652 62.518 33.5324C62.509 25.8477 59.4522 18.4803 54.0183 13.0464C48.5844 7.61253 41.2171 4.5558 33.5324 4.54678Z" fill="#1CD0C5"/>
<path d="M22.1639 31.7307C24.6751 31.7307 26.7107 29.6951 26.7107 27.184C26.7107 24.6729 24.6751 22.6372 22.1639 22.6372C19.6528 22.6372 17.6172 24.6729 17.6172 27.184C17.6172 29.6951 19.6528 31.7307 22.1639 31.7307Z" fill="#1CD0C5"/>
<path d="M44.8983 31.7307C47.4094 31.7307 49.4451 29.6951 49.4451 27.184C49.4451 24.6729 47.4094 22.6372 44.8983 22.6372C42.3872 22.6372 40.3516 24.6729 40.3516 27.184C40.3516 29.6951 42.3872 31.7307 44.8983 31.7307Z" fill="#1CD0C5"/>
<path d="M33.5319 53.4243C29.8523 53.4345 26.2425 52.4195 23.1075 50.4931C19.9724 48.5667 17.4359 45.805 15.7825 42.5178C15.531 41.9829 15.4977 41.3712 15.6896 40.8122C15.8816 40.2532 16.2836 39.7909 16.8106 39.5234C17.3376 39.2558 17.9481 39.204 18.5126 39.3789C19.0771 39.5538 19.5514 39.9417 19.8348 40.4604C21.1148 42.9946 23.0729 45.124 25.4911 46.6117C27.9092 48.0994 30.6927 48.887 33.5319 48.887C36.3711 48.887 39.1545 48.0994 41.5727 46.6117C43.9909 45.124 45.9489 42.9946 47.229 40.4604C47.3585 40.1849 47.542 39.9383 47.7686 39.7352C47.9952 39.532 48.2602 39.3763 48.5481 39.2775C48.8359 39.1787 49.1407 39.1386 49.4443 39.1598C49.7479 39.1809 50.0441 39.2628 50.3155 39.4006C50.5869 39.5384 50.8278 39.7292 51.0241 39.9619C51.2203 40.1945 51.3678 40.4642 51.4579 40.7549C51.5479 41.0456 51.5787 41.3514 51.5484 41.6542C51.5181 41.9571 51.4273 42.2507 51.2813 42.5178C49.6279 45.805 47.0914 48.5667 43.9563 50.4931C40.8213 52.4195 37.2115 53.4345 33.5319 53.4243Z" fill="#1CD0C5"/>
<path d="M124.466 67.0648C117.834 67.0648 111.351 65.0981 105.836 61.4135C100.322 57.729 96.0241 52.4919 93.4861 46.3647C90.9481 40.2374 90.2841 33.4952 91.5779 26.9905C92.8718 20.4859 96.0654 14.511 100.755 9.82142C105.445 5.13183 111.419 1.93818 117.924 0.64433C124.429 -0.649524 131.171 0.014529 137.298 2.55252C143.426 5.0905 148.663 9.38843 152.347 14.9028C156.032 20.4172 157.998 26.9003 157.998 33.5324C157.988 42.4225 154.452 50.9455 148.165 57.2317C141.879 63.518 133.356 67.0542 124.466 67.0648ZM124.466 4.54678C118.733 4.54678 113.129 6.24675 108.362 9.43173C103.596 12.6167 99.8806 17.1436 97.6868 22.4401C95.4929 27.7365 94.9189 33.5645 96.0373 39.1872C97.1557 44.8099 99.9164 49.9746 103.97 54.0283C108.024 58.082 113.189 60.8426 118.811 61.961C124.434 63.0795 130.262 62.5055 135.558 60.3116C140.855 58.1177 145.382 54.4026 148.567 49.6359C151.752 44.8693 153.452 39.2652 153.452 33.5324C153.443 25.8477 150.386 18.4803 144.952 13.0464C139.518 7.61253 132.151 4.5558 124.466 4.54678Z" fill="#19B4EE"/>
<path d="M113.101 31.7307C115.613 31.7307 117.648 29.6951 117.648 27.184C117.648 24.6729 115.613 22.6372 113.101 22.6372C110.59 22.6372 108.555 24.6729 108.555 27.184C108.555 29.6951 110.59 31.7307 113.101 31.7307Z" fill="#19B4EE"/>
<path d="M135.836 31.7307C138.347 31.7307 140.383 29.6951 140.383 27.184C140.383 24.6729 138.347 22.6372 135.836 22.6372C133.325 22.6372 131.289 24.6729 131.289 27.184C131.289 29.6951 133.325 31.7307 135.836 31.7307Z" fill="#19B4EE"/>
<path d="M108.746 43.7626C108.143 43.7626 107.565 43.5231 107.139 43.0967C106.712 42.6704 106.473 42.0921 106.473 41.4892C106.473 40.8863 106.712 40.308 107.139 39.8817C107.565 39.4553 108.143 39.2158 108.746 39.2158H140.193C140.796 39.2158 141.374 39.4553 141.8 39.8817C142.226 40.308 142.466 40.8863 142.466 41.4892C142.466 42.0921 142.226 42.6704 141.8 43.0967C141.374 43.5231 140.796 43.7626 140.193 43.7626H108.746Z" fill="#19B4EE"/>
<path d="M79.2824 158C72.6503 158 66.1672 156.033 60.6528 152.349C55.1384 148.664 50.8405 143.427 48.3025 137.3C45.7645 131.172 45.1005 124.43 46.3943 117.926C47.6882 111.421 50.8818 105.446 55.5714 100.756C60.261 96.0669 66.2359 92.8732 72.7405 91.5794C79.2452 90.2855 85.9874 90.9496 92.1147 93.4876C98.2419 96.0256 103.479 100.323 107.164 105.838C110.848 111.352 112.815 117.835 112.815 124.467C112.804 133.358 109.268 141.881 102.982 148.167C96.6955 154.453 88.1725 157.989 79.2824 158ZM79.2824 95.4818C73.5496 95.4818 67.9455 97.1818 63.1788 100.367C58.4122 103.552 54.697 108.079 52.5032 113.375C50.3093 118.672 49.7353 124.5 50.8537 130.122C51.9721 135.745 54.7328 140.91 58.7865 144.963C62.8402 149.017 68.0049 151.778 73.6276 152.896C79.2502 154.015 85.0783 153.441 90.3747 151.247C95.6711 149.053 100.198 145.338 103.383 140.571C106.568 135.804 108.268 130.2 108.268 124.467C108.259 116.783 105.202 109.415 99.7683 103.981C94.3344 98.5476 86.9671 95.4909 79.2824 95.4818Z" fill="#F376A2"/>
<path d="M67.9179 122.666C70.429 122.666 72.4646 120.63 72.4646 118.119C72.4646 115.608 70.429 113.572 67.9179 113.572C65.4067 113.572 63.3711 115.608 63.3711 118.119C63.3711 120.63 65.4067 122.666 67.9179 122.666Z" fill="#F376A2"/>
<path d="M90.6522 122.666C93.1633 122.666 95.199 120.63 95.199 118.119C95.199 115.608 93.1633 113.572 90.6522 113.572C88.1411 113.572 86.1055 115.608 86.1055 118.119C86.1055 120.63 88.1411 122.666 90.6522 122.666Z" fill="#F376A2"/>
<path d="M63.5584 144.359C63.1701 144.359 62.7885 144.259 62.4498 144.069C62.1112 143.879 61.8269 143.605 61.624 143.274C61.4211 142.943 61.3064 142.565 61.2909 142.177C61.2753 141.789 61.3594 141.404 61.5351 141.057C63.1957 137.775 65.7336 135.018 68.867 133.092C72.0004 131.166 75.6065 130.146 79.2845 130.146C82.9626 130.146 86.5687 131.166 89.7021 133.092C92.8355 135.018 95.3734 137.775 97.034 141.057C97.2854 141.592 97.3187 142.204 97.1268 142.763C96.9349 143.322 96.5328 143.784 96.0058 144.052C95.4788 144.319 94.8684 144.371 94.3038 144.196C93.7393 144.021 93.2651 143.633 92.9817 143.115C91.7016 140.581 89.7436 138.451 87.3254 136.963C84.9072 135.476 82.1237 134.688 79.2845 134.688C76.4454 134.688 73.6619 135.476 71.2437 136.963C68.8255 138.451 66.8675 140.581 65.5874 143.115C65.3973 143.49 65.107 143.804 64.7489 144.024C64.3907 144.244 63.9786 144.36 63.5584 144.359Z" fill="#F376A2"/>
</g>
<defs>
<clipPath id="clip0">
<rect width="158" height="158" fill="white"/>
</clipPath>
</defs>
</svg>
