<svg width="110" height="158" viewBox="0 0 110 158" fill="none" xmlns="http://www.w3.org/2000/svg">
<g clip-path="url(#clip0)">
<path d="M55 81.2733C50.5142 81.2738 46.087 80.2516 42.0533 78.2841C38.0197 76.3167 34.4853 73.4554 31.7176 69.9169C28.9499 66.3783 27.0213 62.2551 26.0778 57.8593C25.1342 53.4635 25.2005 48.9101 26.2715 44.5437C27.3424 40.1773 29.3901 36.1123 32.2596 32.6561C35.1291 29.1999 38.7452 26.4432 42.8343 24.5944C46.9235 22.7457 51.3785 21.8533 55.8625 21.9849C60.3464 22.1164 64.7418 23.2685 68.716 25.3538C69.2338 25.6422 69.6184 26.1222 69.7877 26.6911C69.957 27.2601 69.8976 27.8728 69.6221 28.3984C69.3466 28.924 68.8769 29.3206 68.3134 29.5037C67.7499 29.6867 67.1374 29.6415 66.6067 29.3777C62.7894 27.3784 58.5222 26.3994 54.2172 26.5353C49.9123 26.6712 45.715 27.9173 42.0307 30.1535C38.3463 32.3896 35.2995 35.5402 33.1842 39.3009C31.069 43.0616 29.9568 47.3055 29.9552 51.6227C29.9584 55.2795 30.7587 58.8914 32.2999 62.2058C33.8411 65.5202 36.0861 68.4571 38.8778 70.8111C41.6696 73.1651 44.9407 74.8793 48.4624 75.8338C51.9841 76.7884 55.6713 76.9602 59.2661 76.3373C62.861 75.7144 66.2766 74.3119 69.2743 72.2277C72.2719 70.1436 74.7791 67.4281 76.6205 64.2714C78.4619 61.1146 79.593 57.5927 79.9347 53.9521C80.2765 50.3114 79.8206 46.6398 78.599 43.1942C78.4992 42.9128 78.4557 42.6145 78.471 42.3163C78.4862 42.018 78.5599 41.7257 78.6879 41.456C78.8158 41.1863 78.9955 40.9446 79.2167 40.7445C79.4378 40.5444 79.6961 40.39 79.9768 40.2899C80.2576 40.1899 80.5552 40.1463 80.8527 40.1616C81.1502 40.1769 81.4419 40.2507 81.7109 40.379C81.98 40.5072 82.2212 40.6873 82.4208 40.909C82.6204 41.1307 82.7745 41.3896 82.8743 41.671C84.4636 46.1459 84.9573 50.9379 84.3138 55.6439C83.6703 60.3499 81.9086 64.8321 79.1767 68.7133C76.4449 72.5946 72.823 75.7613 68.6157 77.947C64.4084 80.1327 59.7388 81.2735 55 81.2733Z" fill="#F376A2"/>
<path d="M107.732 158H2.26804C1.66652 158 1.08963 157.76 0.664294 157.334C0.238954 156.908 0 156.33 0 155.727V2.27338C0 1.67044 0.238954 1.0922 0.664294 0.665858C1.08963 0.239516 1.66652 0 2.26804 0L67.6613 0C68.2629 0 68.8397 0.239516 69.2651 0.665858C69.6904 1.0922 69.9294 1.67044 69.9294 2.27338C69.9294 2.87632 69.6904 3.45456 69.2651 3.8809C68.8397 4.30725 68.2629 4.54676 67.6613 4.54676H4.53608V153.453H105.464V42.4383C105.464 41.8354 105.703 41.2572 106.128 40.8308C106.554 40.4045 107.13 40.165 107.732 40.165C108.333 40.165 108.91 40.4045 109.336 40.8308C109.761 41.2572 110 41.8354 110 42.4383V155.727C110 156.33 109.761 156.908 109.336 157.334C108.91 157.76 108.333 158 107.732 158Z" fill="#8D67C3"/>
<path d="M107.731 44.7116H67.6606C67.0591 44.7116 66.4822 44.472 66.0569 44.0457C65.6315 43.6194 65.3926 43.0411 65.3926 42.4382V2.27322C65.3922 1.82333 65.5251 1.38344 65.7742 1.00926C66.0234 0.635074 66.3778 0.343413 66.7924 0.171199C67.2071 -0.00101534 67.6634 -0.0460388 68.1036 0.0418283C68.5438 0.129695 68.9481 0.346502 69.2653 0.664801L109.33 40.8298C109.647 41.1474 109.864 41.5521 109.951 41.9928C110.039 42.4335 109.995 42.8904 109.824 43.3058C109.653 43.7212 109.363 44.0764 108.99 44.3266C108.618 44.5768 108.18 44.7108 107.731 44.7116ZM69.9287 40.1648H102.248L69.9287 7.76912V40.1648Z" fill="#4263A8"/>
<path d="M82.3137 98.7045H27.688C27.0864 98.7045 26.5096 98.465 26.0842 98.0386C25.6589 97.6123 25.4199 97.034 25.4199 96.4311C25.4199 95.8282 25.6589 95.2499 26.0842 94.8236C26.5096 94.3972 27.0864 94.1577 27.688 94.1577H82.3137C82.9153 94.1577 83.4921 94.3972 83.9175 94.8236C84.3428 95.2499 84.5818 95.8282 84.5818 96.4311C84.5818 97.034 84.3428 97.6123 83.9175 98.0386C83.4921 98.465 82.9153 98.7045 82.3137 98.7045Z" fill="#1CD0C5"/>
<path d="M82.3137 111.714H27.688C27.0864 111.714 26.5096 111.474 26.0842 111.048C25.6589 110.622 25.4199 110.043 25.4199 109.44C25.4199 108.837 25.6589 108.259 26.0842 107.833C26.5096 107.407 27.0864 107.167 27.688 107.167H82.3137C82.9153 107.167 83.4921 107.407 83.9175 107.833C84.3428 108.259 84.5818 108.837 84.5818 109.44C84.5818 110.043 84.3428 110.622 83.9175 111.048C83.4921 111.474 82.9153 111.714 82.3137 111.714Z" fill="#19B4EE"/>
<path d="M82.3137 124.724H27.688C27.0864 124.724 26.5096 124.484 26.0842 124.058C25.6589 123.631 25.4199 123.053 25.4199 122.45C25.4199 121.847 25.6589 121.269 26.0842 120.843C26.5096 120.416 27.0864 120.177 27.688 120.177H82.3137C82.9153 120.177 83.4921 120.416 83.9175 120.843C84.3428 121.269 84.5818 121.847 84.5818 122.45C84.5818 123.053 84.3428 123.631 83.9175 124.058C83.4921 124.484 82.9153 124.724 82.3137 124.724Z" fill="#1CD0C5"/>
<path d="M82.3137 137.727H27.688C27.0864 137.727 26.5096 137.487 26.0842 137.061C25.6589 136.635 25.4199 136.056 25.4199 135.454C25.4199 134.851 25.6589 134.272 26.0842 133.846C26.5096 133.42 27.0864 133.18 27.688 133.18H82.3137C82.9153 133.18 83.4921 133.42 83.9175 133.846C84.3428 134.272 84.5818 134.851 84.5818 135.454C84.5818 136.056 84.3428 136.635 83.9175 137.061C83.4921 137.487 82.9153 137.727 82.3137 137.727Z" fill="#19B4EE"/>
</g>
<defs>
<clipPath id="clip0">
<rect width="110" height="158" fill="white"/>
</clipPath>
</defs>
</svg>
