<svg width="155" height="155" viewBox="0 0 155 155" fill="none" xmlns="http://www.w3.org/2000/svg">
<g clip-path="url(#clip0)">
<path d="M105.935 43.8626H66.533C65.9415 43.8626 65.3742 43.6276 64.9559 43.2094C64.5377 42.7911 64.3027 42.2238 64.3027 41.6324V2.23002C64.3024 1.78867 64.433 1.35714 64.678 0.990059C64.9231 0.622979 65.2715 0.336856 65.6792 0.167911C66.087 -0.00103314 66.5357 -0.0452018 66.9685 0.040997C67.4014 0.127196 67.7989 0.339886 68.1108 0.652141L107.508 40.0545C107.82 40.3661 108.032 40.7631 108.118 41.1954C108.205 41.6277 108.161 42.076 107.993 42.4835C107.825 42.891 107.539 43.2395 107.173 43.485C106.807 43.7304 106.376 43.8618 105.935 43.8626ZM68.7632 39.4021H100.544L68.7632 7.62157V39.4021Z" fill="#4263A8"/>
<path d="M91.8569 144.222H16.3083C15.7169 144.222 15.1496 143.988 14.7313 143.569C14.3131 143.151 14.0781 142.584 14.0781 141.992V41.6326C14.0781 41.0411 14.3131 40.4738 14.7313 40.0556C15.1496 39.6373 15.7169 39.4023 16.3083 39.4023H91.8569C92.4484 39.4023 93.0156 39.6373 93.4339 40.0556C93.8521 40.4738 94.0871 41.0411 94.0871 41.6326V77.5279C94.0871 78.1194 93.8521 78.6866 93.4339 79.1049C93.0156 79.5231 92.4484 79.7581 91.8569 79.7581C91.2654 79.7581 90.6981 79.5231 90.2799 79.1049C89.8616 78.6866 89.6267 78.1194 89.6267 77.5279V43.8628H18.5386V139.762H89.6267V123.716C89.6267 123.124 89.8616 122.557 90.2799 122.139C90.6981 121.72 91.2654 121.485 91.8569 121.485C92.4484 121.485 93.0156 121.72 93.4339 122.139C93.8521 122.557 94.0871 123.124 94.0871 123.716V141.992C94.0871 142.285 94.0294 142.575 93.9173 142.846C93.8053 143.116 93.641 143.362 93.4339 143.569C93.2268 143.776 92.9809 143.941 92.7104 144.053C92.4398 144.165 92.1498 144.222 91.8569 144.222Z" fill="#F376A2"/>
<path d="M41.4939 144.222C40.9024 144.222 40.3351 143.988 39.9169 143.569C39.4986 143.151 39.2637 142.584 39.2637 141.992V41.6326C39.2637 41.0411 39.4986 40.4738 39.9169 40.0556C40.3351 39.6373 40.9024 39.4023 41.4939 39.4023C42.0854 39.4023 42.6526 39.6373 43.0709 40.0556C43.4891 40.4738 43.7241 41.0411 43.7241 41.6326V141.992C43.7241 142.584 43.4891 143.151 43.0709 143.569C42.6526 143.988 42.0854 144.222 41.4939 144.222Z" fill="#F376A2"/>
<path d="M66.6716 144.222C66.0801 144.222 65.5129 143.988 65.0946 143.569C64.6764 143.151 64.4414 142.584 64.4414 141.992V41.6326C64.4414 41.0411 64.6764 40.4738 65.0946 40.0556C65.5129 39.6373 66.0801 39.4023 66.6716 39.4023C67.2631 39.4023 67.8304 39.6373 68.2486 40.0556C68.6669 40.4738 68.9018 41.0411 68.9018 41.6326V141.992C68.9018 142.584 68.6669 143.151 68.2486 143.569C67.8304 143.988 67.2631 144.222 66.6716 144.222Z" fill="#F376A2"/>
<path d="M91.8569 55.0137H16.3083C15.7169 55.0137 15.1496 54.7787 14.7313 54.3604C14.3131 53.9422 14.0781 53.3749 14.0781 52.7834C14.0781 52.1919 14.3131 51.6247 14.7313 51.2064C15.1496 50.7882 15.7169 50.5532 16.3083 50.5532H91.8569C92.4484 50.5532 93.0156 50.7882 93.4339 51.2064C93.8521 51.6247 94.0871 52.1919 94.0871 52.7834C94.0871 53.3749 93.8521 53.9422 93.4339 54.3604C93.0156 54.7787 92.4484 55.0137 91.8569 55.0137Z" fill="#F376A2"/>
<path d="M91.8569 66.165H16.3083C15.7169 66.165 15.1496 65.9301 14.7313 65.5118C14.3131 65.0936 14.0781 64.5263 14.0781 63.9348C14.0781 63.3433 14.3131 62.7761 14.7313 62.3578C15.1496 61.9396 15.7169 61.7046 16.3083 61.7046H91.8569C92.4484 61.7046 93.0156 61.9396 93.4339 62.3578C93.8521 62.7761 94.0871 63.3433 94.0871 63.9348C94.0871 64.5263 93.8521 65.0936 93.4339 65.5118C93.0156 65.9301 92.4484 66.165 91.8569 66.165Z" fill="#F376A2"/>
<path d="M91.8569 77.3159H16.3083C15.7169 77.3159 15.1496 77.0809 14.7313 76.6627C14.3131 76.2444 14.0781 75.6772 14.0781 75.0857C14.0781 74.4942 14.3131 73.9269 14.7313 73.5087C15.1496 73.0904 15.7169 72.8555 16.3083 72.8555H91.8569C92.4484 72.8555 93.0156 73.0904 93.4339 73.5087C93.8521 73.9269 94.0871 74.4942 94.0871 75.0857C94.0871 75.6772 93.8521 76.2444 93.4339 76.6627C93.0156 77.0809 92.4484 77.3159 91.8569 77.3159Z" fill="#F376A2"/>
<path d="M81.1128 88.4673H16.3083C15.7169 88.4673 15.1496 88.2323 14.7313 87.8141C14.3131 87.3958 14.0781 86.8285 14.0781 86.2371C14.0781 85.6456 14.3131 85.0783 14.7313 84.66C15.1496 84.2418 15.7169 84.0068 16.3083 84.0068H81.1128C81.7043 84.0068 82.2716 84.2418 82.6898 84.66C83.1081 85.0783 83.3431 85.6456 83.3431 86.2371C83.3431 86.8285 83.1081 87.3958 82.6898 87.8141C82.2716 88.2323 81.7043 88.4673 81.1128 88.4673Z" fill="#F376A2"/>
<path d="M76.7862 99.6181H16.3083C15.7169 99.6181 15.1496 99.3832 14.7313 98.9649C14.3131 98.5467 14.0781 97.9794 14.0781 97.3879C14.0781 96.7964 14.3131 96.2292 14.7313 95.8109C15.1496 95.3927 15.7169 95.1577 16.3083 95.1577H76.7862C77.3777 95.1577 77.945 95.3927 78.3632 95.8109C78.7815 96.2292 79.0164 96.7964 79.0164 97.3879C79.0164 97.9794 78.7815 98.5467 78.3632 98.9649C77.945 99.3832 77.3777 99.6181 76.7862 99.6181Z" fill="#F376A2"/>
<path d="M77.8567 110.77H16.3083C15.7169 110.77 15.1496 110.535 14.7313 110.116C14.3131 109.698 14.0781 109.131 14.0781 108.539C14.0781 107.948 14.3131 107.381 14.7313 106.962C15.1496 106.544 15.7169 106.309 16.3083 106.309H77.8567C78.4482 106.309 79.0155 106.544 79.4337 106.962C79.852 107.381 80.0869 107.948 80.0869 108.539C80.0869 109.131 79.852 109.698 79.4337 110.116C79.0155 110.535 78.4482 110.77 77.8567 110.77Z" fill="#F376A2"/>
<path d="M85.3614 121.92H16.3083C15.7169 121.92 15.1496 121.685 14.7313 121.267C14.3131 120.849 14.0781 120.282 14.0781 119.69C14.0781 119.099 14.3131 118.531 14.7313 118.113C15.1496 117.695 15.7169 117.46 16.3083 117.46H85.3614C85.9529 117.46 86.5201 117.695 86.9384 118.113C87.3566 118.531 87.5916 119.099 87.5916 119.69C87.5916 120.282 87.3566 120.849 86.9384 121.267C86.5201 121.685 85.9529 121.92 85.3614 121.92Z" fill="#F376A2"/>
<path d="M91.8569 133.071H16.3083C15.7169 133.071 15.1496 132.836 14.7313 132.418C14.3131 132 14.0781 131.433 14.0781 130.841C14.0781 130.25 14.3131 129.682 14.7313 129.264C15.1496 128.846 15.7169 128.611 16.3083 128.611H91.8569C92.4484 128.611 93.0156 128.846 93.4339 129.264C93.8521 129.682 94.0871 130.25 94.0871 130.841C94.0871 131.433 93.8521 132 93.4339 132.418C93.0156 132.836 92.4484 133.071 91.8569 133.071Z" fill="#F376A2"/>
<path d="M105.935 155H2.23022C1.63873 155 1.07146 154.765 0.653215 154.347C0.234969 153.929 0 153.361 0 152.77V2.23022C0 1.63873 0.234969 1.07146 0.653215 0.653215C1.07146 0.234969 1.63873 0 2.23022 0L66.5329 0C67.1244 0 67.6917 0.234969 68.1099 0.653215C68.5282 1.07146 68.7631 1.63873 68.7631 2.23022C68.7631 2.82171 68.5282 3.38897 68.1099 3.80722C67.6917 4.22546 67.1244 4.46043 66.5329 4.46043H4.46043V150.54H103.705V125.349C103.705 124.758 103.94 124.191 104.358 123.772C104.776 123.354 105.344 123.119 105.935 123.119C106.527 123.119 107.094 123.354 107.512 123.772C107.93 124.191 108.165 124.758 108.165 125.349V152.77C108.165 153.361 107.93 153.929 107.512 154.347C107.094 154.765 106.527 155 105.935 155Z" fill="#8D67C3"/>
<path d="M105.935 78.1245C105.344 78.1245 104.777 77.8895 104.358 77.4713C103.94 77.053 103.705 76.4857 103.705 75.8943V41.6326C103.705 41.0411 103.94 40.4738 104.358 40.0556C104.777 39.6373 105.344 39.4023 105.935 39.4023C106.527 39.4023 107.094 39.6373 107.512 40.0556C107.931 40.4738 108.166 41.0411 108.166 41.6326V75.8943C108.166 76.4857 107.931 77.053 107.512 77.4713C107.094 77.8895 106.527 78.1245 105.935 78.1245Z" fill="#8D67C3"/>
<path d="M51.2507 24.3486H17.4685C16.877 24.3486 16.3097 24.1136 15.8915 23.6954C15.4733 23.2772 15.2383 22.7099 15.2383 22.1184C15.2383 21.5269 15.4733 20.9596 15.8915 20.5414C16.3097 20.1232 16.877 19.8882 17.4685 19.8882H51.2507C51.8422 19.8882 52.4094 20.1232 52.8277 20.5414C53.2459 20.9596 53.4809 21.5269 53.4809 22.1184C53.4809 22.7099 53.2459 23.2772 52.8277 23.6954C52.4094 24.1136 51.8422 24.3486 51.2507 24.3486Z" fill="#19B4EE"/>
<path d="M105.935 43.8626H66.533C65.9415 43.8626 65.3742 43.6276 64.9559 43.2094C64.5377 42.7911 64.3027 42.2238 64.3027 41.6324V2.23002C64.3024 1.78867 64.433 1.35714 64.678 0.990059C64.9231 0.622979 65.2715 0.336856 65.6792 0.167911C66.087 -0.00103314 66.5357 -0.0452018 66.9685 0.040997C67.4014 0.127196 67.7989 0.339886 68.1108 0.652141L107.508 40.0545C107.82 40.3661 108.032 40.7631 108.118 41.1954C108.205 41.6277 108.161 42.076 107.993 42.4835C107.825 42.891 107.539 43.2395 107.173 43.485C106.807 43.7304 106.376 43.8618 105.935 43.8626ZM68.7632 39.4021H100.544L68.7632 7.62157V39.4021Z" fill="#4263A8"/>
<path d="M146.598 155C146.305 155 146.015 154.943 145.744 154.831C145.473 154.719 145.227 154.555 145.02 154.348L113.853 123.18C113.434 122.762 113.199 122.194 113.199 121.602C113.199 121.011 113.434 120.443 113.853 120.025C114.271 119.606 114.839 119.371 115.431 119.371C116.022 119.371 116.59 119.606 117.009 120.025L146.598 149.614L149.614 146.598L120.209 117.192C119.79 116.774 119.555 116.206 119.555 115.614C119.555 115.022 119.79 114.455 120.209 114.036C120.627 113.618 121.195 113.383 121.787 113.383C122.379 113.383 122.946 113.618 123.365 114.036L154.348 145.02C154.555 145.227 154.72 145.473 154.832 145.744C154.944 146.014 155.002 146.304 155.002 146.598C155.002 146.891 154.944 147.181 154.832 147.452C154.72 147.722 154.555 147.968 154.348 148.175L148.176 154.348C147.969 154.555 147.723 154.719 147.452 154.831C147.181 154.943 146.891 155 146.598 155Z" fill="#4263A8"/>
<path d="M101.67 127.942C96.2664 127.942 90.9843 126.34 86.4915 123.338C81.9987 120.336 78.497 116.069 76.4292 111.077C74.3615 106.085 73.8204 100.592 74.8746 95.292C75.9287 89.9924 78.5307 85.1244 82.3515 81.3037C86.1723 77.4829 91.0403 74.8809 96.3399 73.8267C101.639 72.7726 107.133 73.3136 112.125 75.3814C117.117 77.4492 121.384 80.9509 124.386 85.4437C127.388 89.9364 128.99 95.2185 128.99 100.622C128.983 107.865 126.102 114.81 120.98 119.932C115.858 125.054 108.913 127.935 101.67 127.942ZM101.67 77.7622C97.1485 77.7622 92.7289 79.1029 88.9696 81.6148C85.2103 84.1266 82.2803 87.6968 80.5501 91.8739C78.8199 96.0509 78.3672 100.647 79.2493 105.082C80.1313 109.516 82.3085 113.589 85.5055 116.786C88.7025 119.983 92.7757 122.16 97.2101 123.042C101.644 123.924 106.241 123.472 110.418 121.742C114.595 120.011 118.165 117.081 120.677 113.322C123.189 109.563 124.529 105.143 124.529 100.622C124.529 94.5591 122.121 88.7447 117.834 84.4577C113.547 80.1706 107.733 77.7622 101.67 77.7622Z" fill="#1CD0C5"/>
</g>
<defs>
<clipPath id="clip0">
<rect width="155" height="155" fill="white"/>
</clipPath>
</defs>
</svg>
