<svg width="156" height="156" viewBox="0 0 156 156" fill="none" xmlns="http://www.w3.org/2000/svg">
<g clip-path="url(#clip0)">
<path d="M52.076 156C45.9022 156.005 39.881 154.082 34.8527 150.5C20.5236 140.308 9.80528 125.825 4.24585 109.143C-1.31358 92.4606 -1.42625 74.4432 3.92411 57.6929C9.27447 40.9427 19.8109 26.3268 34.0113 15.9564C48.2118 5.58611 65.3412 -0.00174977 82.9252 4.11005e-07V4.11005e-07C96.1487 0.0171671 109.177 3.18806 120.93 9.24948C132.682 15.3109 142.819 24.088 150.5 34.8523C153.279 38.7622 155.072 43.2865 155.724 48.0391C156.377 52.7917 155.87 57.6316 154.246 62.1459C152.66 66.677 149.986 70.7497 146.459 74.0064C142.932 77.2632 138.66 79.6045 134.016 80.8248C121.232 84.1814 109.569 90.8757 100.223 100.222C90.8761 109.569 84.1818 121.231 80.8253 134.016C79.6049 138.659 77.2636 142.932 74.0069 146.459C70.7502 149.986 66.6775 152.66 62.1463 154.246C58.9155 155.406 55.5087 155.999 52.076 156ZM82.9252 4.77265C66.3519 4.76967 50.2067 10.0355 36.8222 19.8093C23.4376 29.5832 13.5067 43.359 8.46417 59.1466C3.42165 74.9342 3.52861 91.9161 8.7696 107.639C14.0106 123.362 24.1142 137.011 37.6208 146.616C40.904 148.944 44.7007 150.446 48.6884 150.993C52.6761 151.539 56.7368 151.115 60.5255 149.757C64.3143 148.398 67.7189 146.144 70.4502 143.188C73.1815 140.232 75.1587 136.659 76.2137 132.775C79.784 119.181 86.9029 106.78 96.8415 96.841C106.78 86.9024 119.181 79.7836 132.776 76.2132C136.66 75.1582 140.232 73.1811 143.188 70.4498C146.145 67.7185 148.398 64.3138 149.757 60.5251C151.116 56.7364 151.54 52.6756 150.993 48.6879C150.446 44.7002 148.945 40.9035 146.616 37.6204C139.377 27.4747 129.823 19.2021 118.746 13.4892C107.669 7.7764 95.3887 4.78818 82.9252 4.77265Z" fill="#8D67C3"/>
<path d="M82.9241 47.3028C79.7383 47.3028 76.624 46.3581 73.9752 44.5882C71.3263 42.8182 69.2617 40.3025 68.0425 37.3592C66.8234 34.416 66.5044 31.1772 67.1259 28.0526C67.7474 24.9281 69.2815 22.0579 71.5342 19.8052C73.787 17.5525 76.6571 16.0184 79.7817 15.3969C82.9062 14.7754 86.145 15.0944 89.0883 16.3135C92.0316 17.5327 94.5472 19.5973 96.3172 22.2461C98.0871 24.895 99.0318 28.0093 99.0318 31.1951C99.0318 35.4671 97.3348 39.5642 94.314 42.585C91.2932 45.6057 87.1961 47.3028 82.9241 47.3028ZM82.9241 19.8601C80.6822 19.8601 78.4907 20.5248 76.6267 21.7704C74.7627 23.0159 73.3098 24.7862 72.4519 26.8574C71.594 28.9286 71.3695 31.2077 71.8069 33.4065C72.2442 35.6052 73.3238 37.625 74.909 39.2102C76.4943 40.7954 78.514 41.875 80.7128 42.3123C82.9115 42.7497 85.1906 42.5252 87.2618 41.6673C89.333 40.8094 91.1033 39.3566 92.3489 37.4925C93.5944 35.6285 94.2592 33.437 94.2592 31.1951C94.2592 29.7066 93.966 28.2326 93.3963 26.8574C92.8267 25.4821 91.9918 24.2326 90.9392 23.18C89.8866 22.1275 88.6371 21.2925 87.2618 20.7229C85.8866 20.1532 84.4126 19.8601 82.9241 19.8601Z" fill="#F376A2"/>
<path d="M46.3503 62.4502C43.7006 62.4516 41.0915 61.7993 38.7542 60.5511C36.4169 59.3029 34.4236 57.4974 32.951 55.2945C31.4785 53.0917 30.572 50.5597 30.3121 47.9227C30.0521 45.2858 30.4467 42.6255 31.4608 40.1776C32.475 37.7296 34.0773 35.5697 36.1259 33.8891C38.1745 32.2086 40.606 31.0594 43.205 30.5433C45.8039 30.0273 48.4901 30.1603 51.0253 30.9307C53.5605 31.7011 55.8666 33.085 57.739 34.9598C59.9892 37.2128 61.5212 40.0822 62.1413 43.2055C62.7615 46.3287 62.442 49.5657 61.2233 52.5075C60.0046 55.4493 57.9413 57.9639 55.2941 59.7336C52.6469 61.5033 49.5345 62.4486 46.3503 62.4502ZM46.3503 35.0075C43.7278 35.0103 41.1875 35.9222 39.162 37.5881C37.1366 39.2539 35.7515 41.5704 35.2426 44.143C34.7337 46.7157 35.1326 49.3851 36.3713 51.6966C37.61 54.0081 39.6119 55.8185 42.0358 56.8194C44.4597 57.8204 47.1557 57.9499 49.6644 57.1859C52.1731 56.4219 54.3393 54.8117 55.7938 52.6296C57.2484 50.4475 57.9013 47.8286 57.6414 45.219C57.3815 42.6095 56.2247 40.1708 54.3683 38.3185C52.2385 36.1997 49.3546 35.0131 46.3503 35.0194V35.0075Z" fill="#19B4EE"/>
<path d="M31.1975 99.0323C28.0117 99.0323 24.8975 98.0876 22.2486 96.3177C19.5997 94.5477 17.5351 92.032 16.316 89.0887C15.0968 86.1455 14.7778 82.9067 15.3994 79.7821C16.0209 76.6576 17.555 73.7874 19.8077 71.5347C22.0604 69.282 24.9305 67.7479 28.0551 67.1264C31.1797 66.5049 34.4184 66.8239 37.3617 68.043C40.305 69.2622 42.8207 71.3267 44.5906 73.9756C46.3605 76.6245 47.3052 79.7388 47.3052 82.9246C47.3052 87.1966 45.6082 91.2937 42.5874 94.3145C39.5666 97.3352 35.4696 99.0323 31.1975 99.0323ZM31.1975 71.5896C28.9557 71.5896 26.7642 72.2543 24.9001 73.4999C23.0361 74.7454 21.5833 76.5157 20.7253 78.5869C19.8674 80.6581 19.6429 82.9372 20.0803 85.136C20.5177 87.3347 21.5972 89.3545 23.1825 90.9397C24.7677 92.5249 26.7874 93.6045 28.9862 94.0418C31.185 94.4792 33.4641 94.2547 35.5353 93.3968C37.6065 92.5389 39.3768 91.086 40.6223 89.222C41.8678 87.358 42.5326 85.1665 42.5326 82.9246C42.5326 79.9184 41.3384 77.0352 39.2126 74.9095C37.0869 72.7838 34.2038 71.5896 31.1975 71.5896Z" fill="#F376A2"/>
<path d="M46.3495 135.603C43.1652 135.601 40.0529 134.656 37.4057 132.886C34.7585 131.117 32.6952 128.602 31.4765 125.66C30.2578 122.719 29.9383 119.482 30.5584 116.358C31.1786 113.235 32.7106 110.366 34.9608 108.113C36.8332 106.238 39.1392 104.854 41.6745 104.084C44.2097 103.313 46.8958 103.18 49.4948 103.696C52.0938 104.212 54.5253 105.361 56.5739 107.042C58.6224 108.722 60.2248 110.882 61.2389 113.33C62.2531 115.778 62.6476 118.439 62.3877 121.076C62.1278 123.712 61.2213 126.245 59.7487 128.447C58.2761 130.65 56.2829 132.456 53.9456 133.704C51.6083 134.952 48.9992 135.604 46.3495 135.603ZM38.3314 111.489C36.747 113.075 35.6683 115.095 35.2316 117.293C34.795 119.492 35.0199 121.77 35.8781 123.841C36.7363 125.912 38.1891 127.682 40.053 128.927C41.9168 130.172 44.108 130.836 46.3495 130.836C48.591 130.836 50.7822 130.172 52.646 128.927C54.5099 127.682 55.9627 125.912 56.8209 123.841C57.6791 121.77 57.904 119.492 57.4674 117.293C57.0307 115.095 55.9519 113.075 54.3675 111.489C53.3193 110.428 52.0708 109.585 50.6944 109.01C49.3181 108.435 47.8412 108.139 46.3495 108.139C44.8578 108.139 43.3809 108.435 42.0045 109.01C40.6282 109.585 39.3797 110.428 38.3314 111.489Z" fill="#1CD0C5"/>
<path d="M119.502 62.4503C115.776 62.4494 112.165 61.1563 109.284 58.7914C106.404 56.4264 104.433 53.1359 103.707 49.4806C102.981 45.8253 103.545 42.0313 105.303 38.7451C107.061 35.459 109.903 32.884 113.347 31.459C116.79 30.0339 120.622 29.847 124.187 30.9301C127.753 32.0132 130.833 34.2992 132.903 37.3987C134.972 40.4981 135.902 44.2192 135.536 47.9278C135.169 51.6365 133.527 55.1032 130.891 57.7373C129.397 59.2349 127.622 60.4223 125.667 61.2312C123.713 62.04 121.618 62.4543 119.502 62.4503ZM119.502 35.0075C116.88 35.0075 114.338 35.9169 112.311 37.5808C110.284 39.2446 108.896 41.5599 108.385 44.1322C107.874 46.7045 108.27 49.3745 109.507 51.6872C110.743 54 112.743 55.8124 115.167 56.8156C117.59 57.8188 120.286 57.9506 122.795 57.1888C125.305 56.4269 127.472 54.8184 128.929 52.6374C130.385 50.4563 131.04 47.8378 130.782 45.2279C130.525 42.618 129.37 40.1783 127.515 38.3245C126.464 37.2705 125.215 36.4351 123.84 35.8668C122.465 35.2985 120.99 35.0085 119.502 35.0135V35.0075Z" fill="#1CD0C5"/>
</g>
<defs>
<clipPath id="clip0">
<rect width="156" height="156" fill="white"/>
</clipPath>
</defs>
</svg>
