<svg width="117" height="159" viewBox="0 0 117 159" fill="none" xmlns="http://www.w3.org/2000/svg">
<g clip-path="url(#clip0)">
<path d="M49.5 47.557C48.9033 47.557 48.331 47.3197 47.909 46.8973C47.4871 46.4749 47.25 45.902 47.25 45.3047V11.2614C47.25 8.27471 48.4353 5.41032 50.545 3.29839C52.6548 1.18647 55.5163 0 58.5 0C61.4837 0 64.3452 1.18647 66.455 3.29839C68.5647 5.41032 69.75 8.27471 69.75 11.2614V45.254C69.75 45.8514 69.5129 46.4242 69.091 46.8466C68.669 47.269 68.0967 47.5063 67.5 47.5063C66.9033 47.5063 66.331 47.269 65.909 46.8466C65.4871 46.4242 65.25 45.8514 65.25 45.254V11.2614C65.25 9.46939 64.5388 7.75076 63.273 6.4836C62.0071 5.21645 60.2902 4.50457 58.5 4.50457C56.7098 4.50457 54.9929 5.21645 53.727 6.4836C52.4612 7.75076 51.75 9.46939 51.75 11.2614V45.3047C51.75 45.902 51.5129 46.4749 51.091 46.8973C50.669 47.3197 50.0967 47.557 49.5 47.557Z" fill="#8D67C3"/>
<path d="M19.1231 157.874C19.0184 157.873 18.9144 157.858 18.8137 157.829C18.5275 157.746 18.2857 157.554 18.1412 157.293C17.9967 157.032 17.9615 156.725 18.0431 156.438L31.3068 109.962C31.3889 109.675 31.5816 109.432 31.8427 109.286C32.1038 109.141 32.4118 109.106 32.699 109.188C32.9862 109.27 33.229 109.463 33.3741 109.724C33.5191 109.986 33.5545 110.294 33.4724 110.582L20.2031 157.057C20.1359 157.292 19.9943 157.499 19.7994 157.646C19.6046 157.794 19.3672 157.873 19.1231 157.874Z" fill="#F376A2"/>
<path d="M35.9981 157.874C35.8934 157.873 35.7894 157.858 35.6887 157.829C35.4025 157.746 35.1607 157.554 35.0162 157.293C34.8717 157.032 34.8365 156.725 34.9181 156.438L48.1818 109.962C48.2225 109.82 48.2907 109.687 48.3826 109.571C48.4746 109.455 48.5885 109.358 48.7177 109.286C48.847 109.214 48.9892 109.169 49.1361 109.152C49.283 109.135 49.4318 109.147 49.574 109.188C49.7162 109.229 49.849 109.297 49.9648 109.389C50.0807 109.481 50.1772 109.595 50.2491 109.724C50.3209 109.854 50.3665 109.996 50.3834 110.143C50.4003 110.29 50.3881 110.439 50.3474 110.582L37.0781 157.057C37.0109 157.292 36.8693 157.499 36.6744 157.646C36.4796 157.794 36.2422 157.874 35.9981 157.874Z" fill="#F376A2"/>
<path d="M97.8732 157.874C97.629 157.873 97.3916 157.794 97.1968 157.646C97.002 157.499 96.8603 157.292 96.7932 157.057L83.5238 110.582C83.4417 110.294 83.4771 109.986 83.6222 109.724C83.7672 109.463 84.0101 109.27 84.2972 109.188C84.5844 109.106 84.8924 109.141 85.1535 109.286C85.4146 109.432 85.6074 109.675 85.6894 109.962L98.9532 156.438C99.0348 156.725 98.9995 157.032 98.855 157.293C98.7106 157.554 98.4687 157.746 98.1825 157.829C98.0819 157.858 97.9778 157.873 97.8732 157.874Z" fill="#F376A2"/>
<path d="M80.9982 157.874C80.754 157.874 80.5166 157.794 80.3218 157.646C80.127 157.499 79.9853 157.292 79.9182 157.057L66.6488 110.582C66.6082 110.439 66.5959 110.29 66.6128 110.143C66.6297 109.996 66.6754 109.854 66.7472 109.724C66.819 109.595 66.9156 109.481 67.0314 109.389C67.1472 109.297 67.28 109.229 67.4222 109.188C67.5644 109.147 67.7132 109.135 67.8602 109.152C68.0071 109.169 68.1492 109.214 68.2785 109.286C68.5396 109.432 68.7324 109.675 68.8144 109.962L82.0782 156.438C82.1598 156.725 82.1245 157.032 81.98 157.293C81.8356 157.554 81.5938 157.746 81.3076 157.829C81.2069 157.858 81.1028 157.873 80.9982 157.874Z" fill="#F376A2"/>
<path d="M114.748 159H2.24847C1.89996 159 1.55612 158.92 1.24408 158.764C0.932032 158.609 0.660308 158.383 0.450328 158.105C0.240349 157.826 0.0978551 157.503 0.0340829 157.16C-0.0296893 156.817 -0.0129966 156.464 0.0828447 156.128L22.5828 77.2984C22.7174 76.8276 23.0016 76.4134 23.3924 76.1188C23.7831 75.8241 24.2592 75.665 24.7485 75.6655H92.2485C92.7377 75.665 93.2138 75.8241 93.6046 76.1188C93.9954 76.4134 94.2796 76.8276 94.4141 77.2984L116.914 156.128C117.01 156.464 117.027 156.817 116.963 157.16C116.899 157.503 116.757 157.826 116.547 158.105C116.337 158.383 116.065 158.609 115.753 158.764C115.441 158.92 115.097 159 114.748 159ZM5.22972 154.495H111.767L90.561 80.1701H26.436L5.22972 154.495Z" fill="#1CD0C5"/>
<path d="M92.2508 80.1698H24.9364C24.3397 80.1698 23.7674 79.9325 23.3454 79.5101C22.9235 79.0877 22.6864 78.5149 22.6864 77.9175V77.7542C22.6269 72.9962 23.5117 68.2737 25.2895 63.8606C27.0674 59.4475 29.7028 55.4316 33.043 52.0459C36.3832 48.6602 40.3617 45.9721 44.7477 44.1374C49.1337 42.3027 53.84 41.3579 58.5936 41.3579C63.3472 41.3579 68.0535 42.3027 72.4395 44.1374C76.8255 45.9721 80.804 48.6602 84.1442 52.0459C87.4844 55.4316 90.1198 59.4475 91.8976 63.8606C93.6754 68.2737 94.5603 72.9962 94.5008 77.7542V77.9175C94.5008 78.5149 94.2637 79.0877 93.8418 79.5101C93.4198 79.9325 92.8475 80.1698 92.2508 80.1698ZM27.2595 75.6653H89.9333C89.3947 67.7096 85.8603 60.2549 80.0438 54.8067C74.2274 49.3584 66.5622 46.3226 58.5964 46.3124C50.6302 46.3213 42.9643 49.3567 37.1476 54.8052C31.3308 60.2536 27.7968 67.7091 27.2595 75.6653Z" fill="#4263A8"/>
</g>
<defs>
<clipPath id="clip0">
<rect width="117" height="159" fill="white"/>
</clipPath>
</defs>
</svg>
