<svg width="109" height="156" viewBox="0 0 109 156" fill="none" xmlns="http://www.w3.org/2000/svg">
<g clip-path="url(#clip0)">
<path d="M106.753 156H2.24742C1.65137 156 1.07973 155.764 0.658255 155.343C0.236781 154.922 0 154.351 0 153.755V2.2446C0 1.6493 0.236781 1.07837 0.658255 0.657429C1.07973 0.236484 1.65137 0 2.24742 0L67.0462 0C67.6423 0 68.2139 0.236484 68.6354 0.657429C69.0569 1.07837 69.2937 1.6493 69.2937 2.2446C69.2937 2.83991 69.0569 3.41083 68.6354 3.83178C68.2139 4.25272 67.6423 4.48921 67.0462 4.48921H4.49485V151.511H104.505V41.9011C104.505 41.3058 104.742 40.7349 105.163 40.314C105.585 39.893 106.157 39.6565 106.753 39.6565C107.349 39.6565 107.92 39.893 108.342 40.314C108.763 40.7349 109 41.3058 109 41.9011V153.755C109 154.351 108.763 154.922 108.342 155.343C107.92 155.764 107.349 156 106.753 156Z" fill="#8D67C3"/>
<path d="M106.753 44.1456H67.0463C66.4502 44.1456 65.8786 43.9091 65.4571 43.4881C65.0356 43.0672 64.7988 42.4963 64.7988 41.901V2.24442C64.7985 1.80022 64.9301 1.36591 65.177 0.996459C65.424 0.627011 65.7751 0.339041 66.186 0.169007C66.5968 -0.00102721 67.049 -0.0454808 67.4852 0.0412741C67.9214 0.128029 68.322 0.342091 68.6363 0.656361L108.337 40.3129C108.651 40.6265 108.866 41.0261 108.953 41.4612C109.04 41.8963 108.996 42.3475 108.826 42.7576C108.657 43.1677 108.369 43.5185 108 43.7655C107.631 44.0126 107.197 44.1448 106.753 44.1456ZM69.2937 39.6564H101.319L69.2937 7.67075V39.6564Z" fill="#4263A8"/>
<path d="M81.5641 97.455H27.4349C26.8389 97.455 26.2672 97.2185 25.8458 96.7976C25.4243 96.3767 25.1875 95.8057 25.1875 95.2104C25.1875 94.6151 25.4243 94.0442 25.8458 93.6232C26.2672 93.2023 26.8389 92.9658 27.4349 92.9658H81.5641C82.1601 92.9658 82.7318 93.2023 83.1533 93.6232C83.5747 94.0442 83.8115 94.6151 83.8115 95.2104C83.8115 95.8057 83.5747 96.3767 83.1533 96.7976C82.7318 97.2185 82.1601 97.455 81.5641 97.455Z" fill="#1CD0C5"/>
<path d="M81.5641 110.3H27.4349C26.8389 110.3 26.2672 110.063 25.8458 109.642C25.4243 109.221 25.1875 108.65 25.1875 108.055C25.1875 107.46 25.4243 106.889 25.8458 106.468C26.2672 106.047 26.8389 105.811 27.4349 105.811H81.5641C82.1601 105.811 82.7318 106.047 83.1533 106.468C83.5747 106.889 83.8115 107.46 83.8115 108.055C83.8115 108.65 83.5747 109.221 83.1533 109.642C82.7318 110.063 82.1601 110.3 81.5641 110.3Z" fill="#19B4EE"/>
<path d="M54.4995 123.139H27.4349C26.8389 123.139 26.2672 122.903 25.8458 122.482C25.4243 122.061 25.1875 121.49 25.1875 120.895C25.1875 120.299 25.4243 119.728 25.8458 119.307C26.2672 118.886 26.8389 118.65 27.4349 118.65H54.4995C55.0956 118.65 55.6672 118.886 56.0887 119.307C56.5101 119.728 56.7469 120.299 56.7469 120.895C56.7469 121.49 56.5101 122.061 56.0887 122.482C55.6672 122.903 55.0956 123.139 54.4995 123.139Z" fill="#1CD0C5"/>
<path d="M33.149 144.261H27.4349C26.8389 144.261 26.2672 144.024 25.8458 143.603C25.4243 143.182 25.1875 142.611 25.1875 142.016C25.1875 141.421 25.4243 140.85 25.8458 140.429C26.2672 140.008 26.8389 139.771 27.4349 139.771H33.149C33.745 139.771 34.3167 140.008 34.7382 140.429C35.1596 140.85 35.3964 141.421 35.3964 142.016C35.3964 142.611 35.1596 143.182 34.7382 143.603C34.3167 144.024 33.745 144.261 33.149 144.261Z" fill="#4263A8"/>
<path d="M81.565 144.261H75.8509C75.2549 144.261 74.6832 144.024 74.2618 143.603C73.8403 143.182 73.6035 142.611 73.6035 142.016C73.6035 141.421 73.8403 140.85 74.2618 140.429C74.6832 140.008 75.2549 139.771 75.8509 139.771H81.565C82.1611 139.771 82.7327 140.008 83.1542 140.429C83.5756 140.85 83.8124 141.421 83.8124 142.016C83.8124 142.611 83.5756 143.182 83.1542 143.603C82.7327 144.024 82.1611 144.261 81.565 144.261Z" fill="#4263A8"/>
<path d="M57.3541 144.261H51.64C51.0439 144.261 50.4723 144.024 50.0508 143.603C49.6294 143.182 49.3926 142.611 49.3926 142.016C49.3926 141.421 49.6294 140.85 50.0508 140.429C50.4723 140.008 51.0439 139.771 51.64 139.771H57.3541C57.9501 139.771 58.5218 140.008 58.9432 140.429C59.3647 140.85 59.6015 141.421 59.6015 142.016C59.6015 142.611 59.3647 143.182 58.9432 143.603C58.5218 144.024 57.9501 144.261 57.3541 144.261Z" fill="#4263A8"/>
<path d="M44.4999 74.9756H35.308C34.7119 74.9756 34.1403 74.7391 33.7188 74.3182C33.2973 73.8972 33.0605 73.3263 33.0605 72.731V24.6123C33.0605 24.017 33.2973 23.4461 33.7188 23.0251C34.1403 22.6042 34.7119 22.3677 35.308 22.3677H44.6685C55.1583 22.3677 63.2097 24.7918 68.5474 29.5785C68.7687 29.7752 68.9491 30.0136 69.0782 30.28C69.2073 30.5464 69.2826 30.8355 69.2998 31.131C69.3171 31.4264 69.2758 31.7224 69.1785 32.0019C69.0812 32.2815 68.9298 32.5391 68.7328 32.7602C68.5358 32.9813 68.2971 33.1614 68.0304 33.2904C67.7637 33.4193 67.4741 33.4945 67.1783 33.5117C66.8825 33.5289 66.5862 33.4878 66.3063 33.3906C66.0264 33.2934 65.7684 33.1421 65.547 32.9454C61.0522 28.9219 54.0178 26.8793 44.6685 26.8793H37.5554V70.5088H44.4999C60.3667 70.5088 71.469 61.3003 71.469 48.1077C71.486 46.189 71.2976 44.2739 70.9072 42.3952C70.8113 41.8277 70.9373 41.2452 71.2592 40.7679C71.581 40.2906 72.0741 39.955 72.6366 39.8304C73.1991 39.7058 73.7881 39.8017 74.2818 40.0983C74.7755 40.395 75.1363 40.8697 75.2896 41.4244C75.7512 43.6143 75.9772 45.8473 75.9639 48.0852C75.9414 63.9209 63.0131 74.9756 44.4999 74.9756Z" fill="#F376A2"/>
<path d="M106.753 44.1456H67.0463C66.4502 44.1456 65.8786 43.9091 65.4571 43.4881C65.0356 43.0672 64.7988 42.4963 64.7988 41.901V2.24442C64.7985 1.80022 64.9301 1.36591 65.177 0.996459C65.424 0.627011 65.7751 0.339041 66.186 0.169007C66.5968 -0.00102721 67.049 -0.0454808 67.4852 0.0412741C67.9214 0.128029 68.322 0.342091 68.6363 0.656361L108.337 40.3129C108.651 40.6265 108.866 41.0261 108.953 41.4612C109.04 41.8963 108.996 42.3475 108.826 42.7576C108.657 43.1677 108.369 43.5185 108 43.7655C107.631 44.0126 107.197 44.1448 106.753 44.1456ZM69.2937 39.6564H101.319L69.2937 7.67075V39.6564Z" fill="#4263A8"/>
</g>
<defs>
<clipPath id="clip0">
<rect width="109" height="156" fill="white"/>
</clipPath>
</defs>
</svg>
