<svg width="17" height="17" viewBox="0 0 17 17" fill="none" xmlns="http://www.w3.org/2000/svg">
<g clip-path="url(#clip0)">
<path d="M0.955588 9.83313L0.929051 9.82733L12.3047 9.82733L8.7286 13.4113C8.55348 13.5863 8.45743 13.8233 8.45743 14.0721C8.45743 14.3209 8.55348 14.5562 8.7286 14.7316L9.28504 15.2883C9.46001 15.4633 9.69317 15.5601 9.94182 15.5601C10.1906 15.5601 10.4239 15.464 10.5989 15.289L16.729 9.15949C16.9046 8.98382 17.0007 8.74983 17 8.50091C17.0007 8.25061 16.9046 8.01648 16.729 7.84109L10.5989 1.711C10.4239 1.53616 10.1907 1.43997 9.94182 1.43997C9.69318 1.43997 9.46001 1.5363 9.28504 1.711L8.7286 2.26772C8.55348 2.44242 8.45743 2.67572 8.45743 2.9245C8.45743 3.17314 8.55348 3.39414 8.7286 3.56898L12.345 7.17298L0.942872 7.17298C0.430523 7.17298 -5.63922e-06 7.61456 -5.68399e-06 8.12663L-5.75283e-06 8.91402C-5.79759e-06 9.4261 0.443238 9.83313 0.955588 9.83313Z" fill="#1CD0C5"/>
</g>
<defs>
<clipPath id="clip0">
<rect width="17" height="17" fill="white" transform="translate(17 17) rotate(-180)"/>
</clipPath>
</defs>
</svg>
