<?xml version="1.0" encoding="utf-8"?><svg xmlns="http://www.w3.org/2000/svg" xmlns:xlink="http://www.w3.org/1999/xlink"><symbol viewBox="0 0 23 23" id="behance" xmlns="http://www.w3.org/2000/svg"><g clip-path="url(#aclip0)"><path d="M20.77 6.37h-5.762V4.938h5.763V6.37zm-9.599 5.87c.372.576.558 1.275.558 2.096 0 .849-.21 1.61-.636 2.283a3.961 3.961 0 0 1-1.012 1.125c-.456.35-.995.59-1.615.718a9.985 9.985 0 0 1-2.02.194H0V4.344h6.911c1.743.029 2.978.534 3.707 1.525.438.608.654 1.337.654 2.185 0 .875-.22 1.575-.661 2.107-.246.298-.609.57-1.09.814.728.267 1.281.687 1.65 1.265zm-7.87-2.253h3.028c.622 0 1.125-.119 1.513-.355.387-.236.58-.656.58-1.258 0-.666-.256-1.108-.769-1.32-.44-.148-1.005-.224-1.689-.224H3.3v3.157zm5.413 4.145c0-.744-.304-1.258-.91-1.534-.34-.156-.818-.236-1.432-.242H3.3v3.814h3.025c.621 0 1.102-.082 1.449-.251.626-.312.94-.906.94-1.787zm14.195-2.329c.07.469.101 1.148.088 2.036h-7.463c.04 1.03.396 1.75 1.07 2.163.408.258.9.385 1.478.385.61 0 1.106-.154 1.488-.47.208-.169.392-.405.55-.704h2.736c-.072.608-.401 1.226-.993 1.853-.917.996-2.203 1.496-3.855 1.496-1.365 0-2.568-.421-3.611-1.261-1.04-.843-1.563-2.21-1.563-4.107 0-1.778.469-3.14 1.41-4.087.945-.949 2.164-1.421 3.667-1.421.891 0 1.694.159 2.41.479.715.32 1.305.825 1.77 1.518.421.61.692 1.316.818 2.12zm-2.693.267c-.05-.712-.288-1.251-.716-1.62-.425-.37-.956-.555-1.589-.555-.689 0-1.22.199-1.599.588-.38.39-.617.918-.714 1.587h4.618z"/></g><defs><clipPath id="aclip0"><path d="M0 0h23v23H0z"/></clipPath></defs></symbol><symbol viewBox="0 0 15 15" id="call" xmlns="http://www.w3.org/2000/svg"><path d="M3 6.5c1.167 2.333 3.167 4.25 5.5 5.5l1.833-1.833c.25-.25.584-.334.834-.167.916.333 1.916.5 3 .5.5 0 .833.333.833.833v2.834c0 .5-.333.833-.833.833C6.333 15 0 8.667 0 .833 0 .333.333 0 .833 0H3.75c.5 0 .833.333.833.833 0 1 .167 2 .5 3 .084.25 0 .584-.166.834L3 6.5z"/></symbol><symbol viewBox="0 0 20 20" id="down" xmlns="http://www.w3.org/2000/svg"><g clip-path="url(#cclip0)"><path d="M10.553 15.282l9.12-9.12a.545.545 0 0 0 0-.774.545.545 0 0 0-.774 0l-8.731 8.731-8.731-8.73a.55.55 0 1 0-.936.385.53.53 0 0 0 .162.384l9.12 9.12c.21.215.559.215.77.004z" fill-opacity=".5"/></g><defs><clipPath id="cclip0"><path transform="rotate(90 9.584 10.25)" d="M0 0h19.333v19.333H0z"/></clipPath></defs></symbol><symbol viewBox="0 0 18 19" id="facebook" xmlns="http://www.w3.org/2000/svg"><path d="M10.125 6.531V4.156c0-.655.504-1.187 1.125-1.187h1.125V0h-2.25C8.261 0 6.75 1.595 6.75 3.563V6.53H4.5V9.5h2.25V19h3.375V9.5h2.25L13.5 6.531h-3.375z"/></symbol><symbol viewBox="0 0 15 15" id="instagram" xmlns="http://www.w3.org/2000/svg"><g clip-path="url(#eclip0)"><path d="M1.925 0h11.15C14.134 0 15 .784 15 1.925v11.15C15 14.216 14.133 15 13.075 15H1.925C.866 15 0 14.216 0 13.075V1.925C0 .784.866 0 1.925 0zm9.002 1.667a.677.677 0 0 0-.675.675v1.616c0 .372.303.676.675.676h1.695a.677.677 0 0 0 .676-.676V2.342a.677.677 0 0 0-.676-.675h-1.695zm2.378 4.676h-1.32c.124.408.192.84.192 1.287 0 2.495-2.088 4.518-4.663 4.518S2.852 10.125 2.852 7.63c0-.447.067-.879.193-1.287H1.667v6.337c0 .328.268.596.596.596H12.71a.598.598 0 0 0 .596-.596V6.343zm-5.79-1.795c-1.665 0-3.013 1.307-3.013 2.92 0 1.612 1.348 2.918 3.012 2.918s3.013-1.306 3.013-2.919c0-1.612-1.349-2.919-3.013-2.919z"/></g><defs><clipPath id="eclip0"><path d="M0 0h15v15H0z"/></clipPath></defs></symbol><symbol viewBox="0 0 122 40" id="logo" xmlns="http://www.w3.org/2000/svg"><path d="M50.309 17.724V8.568h3.91c2.894 0 5.027 1.701 5.027 4.553s-2.082 4.553-4.976 4.553h-3.961v.05zm6.5-4.553c0-1.4-.864-2.502-2.54-2.502h-1.523v5.003h1.524c1.574 0 2.539-1.15 2.539-2.501zm3.353-.001c0-2.801 2.133-4.702 4.977-4.702 2.844 0 4.926 1.951 4.926 4.703 0 2.752-2.133 4.703-4.926 4.703-2.895 0-4.977-1.951-4.977-4.703zm7.465 0c0-1.5-.965-2.65-2.488-2.65-1.524 0-2.54 1.15-2.54 2.65 0 1.502.966 2.652 2.54 2.652 1.473 0 2.488-1.2 2.488-2.651zm9.039 4.554l-1.574-3.052h-1.219v3.052h-2.387V8.568h4.621c2.032 0 3.2 1.35 3.2 3.052 0 1.6-.965 2.451-1.828 2.752l1.879 3.352h-2.692zm.254-6.104c0-.6-.508-.95-1.168-.95h-1.879v1.95h1.879c.61 0 1.168-.35 1.168-1zm3.35 1.55c0-2.801 2.133-4.702 4.976-4.702 2.844 0 4.926 1.951 4.926 4.703 0 2.752-2.133 4.703-4.926 4.703-2.843 0-4.977-1.951-4.977-4.703zm7.515 0c0-1.5-.965-2.65-2.488-2.65-1.523 0-2.54 1.15-2.54 2.65 0 1.502.966 2.652 2.54 2.652 1.473 0 2.488-1.2 2.488-2.651zm10.059 4.554V14.07h-3.86v3.653h-2.386V8.568h2.386v3.452h3.86V8.618h2.387v9.106h-2.387zm3.806-4.554c0-2.801 2.133-4.702 4.977-4.702 2.844 0 4.926 1.951 4.926 4.703 0 2.752-2.133 4.703-4.926 4.703-2.844 0-4.977-1.951-4.977-4.703zm7.466 0c0-1.5-.965-2.65-2.54-2.65-1.523 0-2.539 1.15-2.539 2.65 0 1.502.965 2.652 2.539 2.652 1.575 0 2.54-1.2 2.54-2.651zm5.993 4.554l-3.504-9.156h2.692l2.285 6.604 2.285-6.604h2.692l-3.504 9.106h-2.946v.05zm-64.8 13.659v-9.106h3.91c2.894 0 5.027 1.701 5.027 4.553s-2.082 4.553-4.976 4.553h-3.961zm6.5-4.553c0-1.401-.864-2.502-2.54-2.502h-1.523v5.003h1.524c1.574 0 2.539-1.15 2.539-2.501zm3.861 4.553v-9.106h6.754v2.051h-4.418v1.401h4.316v2.051h-4.316v1.551h4.418v2.052H60.67zm7.822-1.252l1.27-1.751c.66.65 1.675 1.2 2.945 1.2.813 0 1.32-.3 1.32-.75 0-1.25-5.23-.25-5.23-3.752 0-1.551 1.32-2.902 3.707-2.902 1.473 0 2.793.45 3.758 1.251l-1.32 1.701c-.762-.65-1.778-.95-2.692-.95-.71 0-1.016.25-1.016.65 0 1.15 5.231.3 5.231 3.702 0 1.851-1.371 3.052-3.86 3.052-1.878 0-3.199-.6-4.113-1.45zm9.344 1.252v-9.106h2.387v9.105h-2.387zm3.808-4.553c0-2.902 2.235-4.703 5.028-4.703 2.082 0 3.3 1.1 3.961 2.201l-1.98 1c-.356-.6-1.067-1.15-1.981-1.15-1.523 0-2.59 1.15-2.59 2.651s1.067 2.652 2.59 2.652c.66 0 1.371-.25 1.727-.55v-.7h-2.082v-2.052h4.468v3.652c-1.015 1.1-2.336 1.801-4.113 1.801-2.742-.05-5.028-1.9-5.028-4.803zm17.112 4.553l-3.91-5.254v5.304h-2.387v-9.156h2.438l3.757 5.003v-5.003h2.387v9.106h-2.285zM16.336.263H.492v39.374h15.946c13.407 0 22.04-7.755 22.04-19.712C38.427 7.968 29.794.263 16.336.263zm-.406 31.47H8.871V8.717h7.16c8.278 0 14.067 3.202 14.067 11.257 0 6.454-5.28 11.757-14.168 11.757z"/><path d="M17.555 15.272h-1.828v9.356h1.828c3.605 0 5.738-2.151 5.738-4.803-.05-3.252-2.386-4.553-5.738-4.553z"/></symbol><symbol viewBox="0 0 18 18" id="twitter" xmlns="http://www.w3.org/2000/svg"><g clip-path="url(#gclip0)"><path d="M18 3.42a7.374 7.374 0 0 1-2.12.58 3.708 3.708 0 0 0 1.623-2.04 7.445 7.445 0 0 1-2.347.896 3.693 3.693 0 0 0-6.292 3.366 10.483 10.483 0 0 1-7.61-3.858 3.664 3.664 0 0 0-.5 1.856 3.69 3.69 0 0 0 1.643 3.073A3.693 3.693 0 0 1 .724 6.83v.046a3.696 3.696 0 0 0 2.962 3.62c-.31.084-.636.13-.973.13-.238 0-.47-.024-.695-.069a3.695 3.695 0 0 0 3.448 2.565A7.409 7.409 0 0 1 .881 14.7c-.298 0-.592-.018-.881-.05a10.438 10.438 0 0 0 5.66 1.66c6.793 0 10.506-5.626 10.506-10.505l-.013-.478A7.373 7.373 0 0 0 18 3.419z"/></g><defs><clipPath id="gclip0"><path d="M0 0h18v18H0z"/></clipPath></defs></symbol><symbol viewBox="0 0 25 25" id="vk" xmlns="http://www.w3.org/2000/svg"><g clip-path="url(#hclip0)"><path d="M22.35 10.57c2.588-3.502 2.014-3.568 2.65-4.662h-4.957s-.353 1.223-.46 1.442c-.952 1.937-3.088 4.843-4.38 5.14-1.271.292-1.103-2.713-1.024-4.015.073-1.207.06-1.63.025-1.838a.7.7 0 0 0-.614-.566c-.632-.08-1.78-.193-3.064-.133l-1.15.038c.454 1.013.76.703.927 1.876.188 1.373.114 4.714-1.238 4.714-2.168 0-4.602-6.511-4.679-6.658H0l.401 1.004c3.235 8.097 7.28 11.847 12.814 12.159l.72.02.052-.699c.078-1.08.62-2.635 1.58-2.635 1.42 0 1.831.414 2.768 1.571.9 1.11 1.52 1.764 2.973 1.764H25l-.526-1.059c-.823-1.65-2.471-3.065-3.115-3.886-.234-.309-.463-.797-.226-1.388.195-.515.774-1.588 1.218-2.189z"/></g><defs><clipPath id="hclip0"><path d="M0 0h25v25H0z"/></clipPath></defs></symbol></svg>