<?xml version="1.0" encoding="utf-8"?><svg xmlns="http://www.w3.org/2000/svg" xmlns:xlink="http://www.w3.org/1999/xlink"><symbol viewBox="0 0 23 23" id="behance" xmlns="http://www.w3.org/2000/svg"><g clip-path="url(#aclip0)"><path d="M20.77 6.37h-5.762V4.938h5.763V6.37zm-9.599 5.87c.372.576.558 1.275.558 2.096 0 .849-.21 1.61-.636 2.283a3.961 3.961 0 0 1-1.012 1.125c-.456.35-.995.59-1.615.718a9.985 9.985 0 0 1-2.02.194H0V4.344h6.911c1.743.029 2.978.534 3.707 1.525.438.608.654 1.337.654 2.185 0 .875-.22 1.575-.661 2.107-.246.298-.609.57-1.09.814.728.267 1.281.687 1.65 1.265zm-7.87-2.253h3.028c.622 0 1.125-.119 1.513-.355.387-.236.58-.656.58-1.258 0-.666-.256-1.108-.769-1.32-.44-.148-1.005-.224-1.689-.224H3.3v3.157zm5.413 4.145c0-.744-.304-1.258-.91-1.534-.34-.156-.818-.236-1.432-.242H3.3v3.814h3.025c.621 0 1.102-.082 1.449-.251.626-.312.94-.906.94-1.787zm14.195-2.329c.07.469.101 1.148.088 2.036h-7.463c.04 1.03.396 1.75 1.07 2.163.408.258.9.385 1.478.385.61 0 1.106-.154 1.488-.47.208-.169.392-.405.55-.704h2.736c-.072.608-.401 1.226-.993 1.853-.917.996-2.203 1.496-3.855 1.496-1.365 0-2.568-.421-3.611-1.261-1.04-.843-1.563-2.21-1.563-4.107 0-1.778.469-3.14 1.41-4.087.945-.949 2.164-1.421 3.667-1.421.891 0 1.694.159 2.41.479.715.32 1.305.825 1.77 1.518.421.61.692 1.316.818 2.12zm-2.693.267c-.05-.712-.288-1.251-.716-1.62-.425-.37-.956-.555-1.589-.555-.689 0-1.22.199-1.599.588-.38.39-.617.918-.714 1.587h4.618z"/></g><defs><clipPath id="aclip0"><path d="M0 0h23v23H0z"/></clipPath></defs></symbol><symbol viewBox="0 0 15 15" id="call" xmlns="http://www.w3.org/2000/svg"><path d="M3 6.5c1.167 2.333 3.167 4.25 5.5 5.5l1.833-1.833c.25-.25.584-.334.834-.167.916.333 1.916.5 3 .5.5 0 .833.333.833.833v2.834c0 .5-.333.833-.833.833C6.333 15 0 8.667 0 .833 0 .333.333 0 .833 0H3.75c.5 0 .833.333.833.833 0 1 .167 2 .5 3 .084.25 0 .584-.166.834L3 6.5z"/></symbol><symbol viewBox="0 0 20 20" id="down" xmlns="http://www.w3.org/2000/svg"><g clip-path="url(#cclip0)"><path d="M10.553 15.282l9.12-9.12a.545.545 0 0 0 0-.774.545.545 0 0 0-.774 0l-8.731 8.731-8.731-8.73a.55.55 0 1 0-.936.385.53.53 0 0 0 .162.384l9.12 9.12c.21.215.559.215.77.004z" fill-opacity=".5"/></g><defs><clipPath id="cclip0"><path transform="rotate(90 9.584 10.25)" d="M0 0h19.333v19.333H0z"/></clipPath></defs></symbol><symbol viewBox="0 0 18 19" id="facebook" xmlns="http://www.w3.org/2000/svg"><path d="M10.125 6.531V4.156c0-.655.504-1.187 1.125-1.187h1.125V0h-2.25C8.261 0 6.75 1.595 6.75 3.563V6.53H4.5V9.5h2.25V19h3.375V9.5h2.25L13.5 6.531h-3.375z"/></symbol><symbol viewBox="0 0 15 15" id="instagram" xmlns="http://www.w3.org/2000/svg"><g clip-path="url(#eclip0)"><path d="M1.925 0h11.15C14.134 0 15 .784 15 1.925v11.15C15 14.216 14.133 15 13.075 15H1.925C.866 15 0 14.216 0 13.075V1.925C0 .784.866 0 1.925 0zm9.002 1.667a.677.677 0 0 0-.675.675v1.616c0 .372.303.676.675.676h1.695a.677.677 0 0 0 .676-.676V2.342a.677.677 0 0 0-.676-.675h-1.695zm2.378 4.676h-1.32c.124.408.192.84.192 1.287 0 2.495-2.088 4.518-4.663 4.518S2.852 10.125 2.852 7.63c0-.447.067-.879.193-1.287H1.667v6.337c0 .328.268.596.596.596H12.71a.598.598 0 0 0 .596-.596V6.343zm-5.79-1.795c-1.665 0-3.013 1.307-3.013 2.92 0 1.612 1.348 2.918 3.012 2.918s3.013-1.306 3.013-2.919c0-1.612-1.349-2.919-3.013-2.919z"/></g><defs><clipPath id="eclip0"><path d="M0 0h15v15H0z"/></clipPath></defs></symbol><symbol viewBox="0 0 57 53" id="load_more" xmlns="http://www.w3.org/2000/svg"><path d="M25.544 52.044C11.46 52.044 0 40.586 0 26.5 0 12.415 11.459.956 25.544.956c14.086 0 25.544 11.46 25.544 25.544a1.46 1.46 0 1 1-2.921 0c0-12.475-10.15-22.626-22.625-22.626-12.476 0-22.626 10.151-22.626 22.626 0 12.475 10.15 22.624 22.626 22.624 7.982 0 15.458-4.278 19.512-11.164a1.46 1.46 0 0 1 2.517 1.482c-4.574 7.773-13.016 12.602-22.027 12.602z"/><path d="M49.627 27.96a1.46 1.46 0 0 1-.74-.202l-9.148-5.402a1.46 1.46 0 1 1 1.486-2.512l7.98 4.713 5.138-7.357a1.46 1.46 0 0 1 2.393 1.67l-5.912 8.464a1.457 1.457 0 0 1-1.197.627z"/></symbol><symbol viewBox="0 0 122 40" id="logo" xmlns="http://www.w3.org/2000/svg"><path d="M50.309 17.724V8.568h3.91c2.894 0 5.027 1.701 5.027 4.553s-2.082 4.553-4.976 4.553h-3.961v.05zm6.5-4.553c0-1.4-.864-2.502-2.54-2.502h-1.523v5.003h1.524c1.574 0 2.539-1.15 2.539-2.501zm3.353-.001c0-2.801 2.133-4.702 4.977-4.702 2.844 0 4.926 1.951 4.926 4.703 0 2.752-2.133 4.703-4.926 4.703-2.895 0-4.977-1.951-4.977-4.703zm7.465 0c0-1.5-.965-2.65-2.488-2.65-1.524 0-2.54 1.15-2.54 2.65 0 1.502.966 2.652 2.54 2.652 1.473 0 2.488-1.2 2.488-2.651zm9.039 4.554l-1.574-3.052h-1.219v3.052h-2.387V8.568h4.621c2.032 0 3.2 1.35 3.2 3.052 0 1.6-.965 2.451-1.828 2.752l1.879 3.352h-2.692zm.254-6.104c0-.6-.508-.95-1.168-.95h-1.879v1.95h1.879c.61 0 1.168-.35 1.168-1zm3.35 1.55c0-2.801 2.133-4.702 4.976-4.702 2.844 0 4.926 1.951 4.926 4.703 0 2.752-2.133 4.703-4.926 4.703-2.843 0-4.977-1.951-4.977-4.703zm7.515 0c0-1.5-.965-2.65-2.488-2.65-1.523 0-2.54 1.15-2.54 2.65 0 1.502.966 2.652 2.54 2.652 1.473 0 2.488-1.2 2.488-2.651zm10.059 4.554V14.07h-3.86v3.653h-2.386V8.568h2.386v3.452h3.86V8.618h2.387v9.106h-2.387zm3.806-4.554c0-2.801 2.133-4.702 4.977-4.702 2.844 0 4.926 1.951 4.926 4.703 0 2.752-2.133 4.703-4.926 4.703-2.844 0-4.977-1.951-4.977-4.703zm7.466 0c0-1.5-.965-2.65-2.54-2.65-1.523 0-2.539 1.15-2.539 2.65 0 1.502.965 2.652 2.539 2.652 1.575 0 2.54-1.2 2.54-2.651zm5.993 4.554l-3.504-9.156h2.692l2.285 6.604 2.285-6.604h2.692l-3.504 9.106h-2.946v.05zm-64.8 13.659v-9.106h3.91c2.894 0 5.027 1.701 5.027 4.553s-2.082 4.553-4.976 4.553h-3.961zm6.5-4.553c0-1.401-.864-2.502-2.54-2.502h-1.523v5.003h1.524c1.574 0 2.539-1.15 2.539-2.501zm3.861 4.553v-9.106h6.754v2.051h-4.418v1.401h4.316v2.051h-4.316v1.551h4.418v2.052H60.67zm7.822-1.252l1.27-1.751c.66.65 1.675 1.2 2.945 1.2.813 0 1.32-.3 1.32-.75 0-1.25-5.23-.25-5.23-3.752 0-1.551 1.32-2.902 3.707-2.902 1.473 0 2.793.45 3.758 1.251l-1.32 1.701c-.762-.65-1.778-.95-2.692-.95-.71 0-1.016.25-1.016.65 0 1.15 5.231.3 5.231 3.702 0 1.851-1.371 3.052-3.86 3.052-1.878 0-3.199-.6-4.113-1.45zm9.344 1.252v-9.106h2.387v9.105h-2.387zm3.808-4.553c0-2.902 2.235-4.703 5.028-4.703 2.082 0 3.3 1.1 3.961 2.201l-1.98 1c-.356-.6-1.067-1.15-1.981-1.15-1.523 0-2.59 1.15-2.59 2.651s1.067 2.652 2.59 2.652c.66 0 1.371-.25 1.727-.55v-.7h-2.082v-2.052h4.468v3.652c-1.015 1.1-2.336 1.801-4.113 1.801-2.742-.05-5.028-1.9-5.028-4.803zm17.112 4.553l-3.91-5.254v5.304h-2.387v-9.156h2.438l3.757 5.003v-5.003h2.387v9.106h-2.285zM16.336.263H.492v39.374h15.946c13.407 0 22.04-7.755 22.04-19.712C38.427 7.968 29.794.263 16.336.263zm-.406 31.47H8.871V8.717h7.16c8.278 0 14.067 3.202 14.067 11.257 0 6.454-5.28 11.757-14.168 11.757z"/><path d="M17.555 15.272h-1.828v9.356h1.828c3.605 0 5.738-2.151 5.738-4.803-.05-3.252-2.386-4.553-5.738-4.553z"/></symbol><symbol viewBox="0 0 58 58" id="service_adv1" xmlns="http://www.w3.org/2000/svg"><path d="M21.523 28.207a.68.68 0 0 0-.68-.68h-5.55a.68.68 0 0 0-.68.68v9.176a.68.68 0 0 0 .68.68h5.55a.68.68 0 0 0 .68-.68v-9.176zm-1.246 8.383h-4.304v-7.703h4.304v7.703zM10.082 21.637a.68.68 0 0 0-.68-.68h-5.55a.68.68 0 0 0-.68.68V37.27a.68.68 0 0 0 .68.68h5.55a.68.68 0 0 0 .68-.68V21.637zM8.836 36.59H4.53V22.316h4.305V36.59zm18.005-21.611a3.84 3.84 0 0 0 6.365-4.031l4.46-4.087a3.84 3.84 0 1 0-.407-1.472l-4.776 4.378a3.841 3.841 0 0 0-6.397 4.07l-4.604 3.883a3.84 3.84 0 0 0-6.45-.336l-4.653-3.24a3.85 3.85 0 1 0-.601 1.238l4.66 3.245a3.843 3.843 0 1 0 7.517.474l4.887-4.122zM41.093 2.64a2.484 2.484 0 1 1 0 4.968 2.484 2.484 0 0 1 0-4.968zM29.62 9.845a2.484 2.484 0 1 1 0 4.968 2.484 2.484 0 0 1 0-4.968zM6.677 15.599a2.483 2.483 0 1 1 0-4.967 2.483 2.483 0 0 1 0 4.967zm11.471 6.513a2.484 2.484 0 1 1 0-4.967 2.484 2.484 0 0 1 0 4.967zm23.055 9.39a11.25 11.25 0 1 0 11.25 11.25 11.263 11.263 0 0 0-11.25-11.25zm0 21.141a9.89 9.89 0 1 1 9.89-9.89 9.902 9.902 0 0 1-9.89 9.89z"/><path d="M41.206 37.655a2.384 2.384 0 0 1 2.38 2.381.68.68 0 0 0 .68.68.693.693 0 0 0 .696-.68 3.771 3.771 0 0 0-3.045-3.677v-1.065a.68.68 0 0 0-1.36 0v1.065a3.691 3.691 0 0 0-3.076 3.677 3.738 3.738 0 0 0 3.733 3.741 2.38 2.38 0 0 1 .016 4.762l-.023-.001h-.023a2.384 2.384 0 0 1-2.36-2.38.68.68 0 0 0-.937-.626.666.666 0 0 0-.406.627 3.691 3.691 0 0 0 3.076 3.677v1.205a.68.68 0 1 0 1.36 0v-1.205a3.742 3.742 0 0 0-.703-7.418 2.383 2.383 0 0 1-1.701-4.068 2.382 2.382 0 0 1 1.693-.695z"/><path d="M44.52 29.2V13.61c0-.376-.253-.696-.628-.696H38.29a.694.694 0 0 0-.68.696v15.648a14.228 14.228 0 0 0-4.53 2.12V20.786c0-.376-.283-.734-.659-.734h-5.602c-.376 0-.65.358-.65.734v16.539a.61.61 0 0 0 .65.625h1.249a14.316 14.316 0 0 0-.83 4.777c0 7.7 6.265 13.979 13.966 13.979s13.94-6.259 13.94-13.96A13.963 13.963 0 0 0 44.52 29.2zm-5.551-14.927h4.191v14.66c-.656-.1-1.32-.149-1.983-.145-.74-.003-1.478.057-2.208.179V14.273zM27.528 21.41h4.191v11.073a15.618 15.618 0 0 0-3.077 4.107h-1.114V21.41zm13.675 33.95a12.606 12.606 0 1 1 12.606-12.607A12.62 12.62 0 0 1 41.203 55.36z"/></symbol><symbol viewBox="0 0 54 54" id="service_adv2" xmlns="http://www.w3.org/2000/svg"><g clip-path="url(#iclip0)"><path d="M22.778 9.673l-1.573-.694a9.867 9.867 0 0 0-.236-.756l.875-1.506a.903.903 0 0 0 .007-.892 11.967 11.967 0 0 0-1.534-2.144.895.895 0 0 0-.873-.277l-1.656.379a9.88 9.88 0 0 0-.604-.446l-.16-1.752a.902.902 0 0 0-.52-.736 11.507 11.507 0 0 0-2.47-.83.897.897 0 0 0-.868.295l-1.155 1.341h-.694L10.16.314A.896.896 0 0 0 9.293.02c-.852.182-1.68.46-2.47.83a.902.902 0 0 0-.52.735l-.16 1.752c-.208.143-.41.291-.604.445l-1.655-.378a.895.895 0 0 0-.874.277 11.952 11.952 0 0 0-1.534 2.144.903.903 0 0 0 .007.892l.875 1.506a9.882 9.882 0 0 0-.235.756l-1.574.694a.902.902 0 0 0-.537.825v2.45a.9.9 0 0 0 .537.824l1.574.694c.07.265.148.515.235.756l-.875 1.506a.903.903 0 0 0-.007.892c.43.769.945 1.488 1.534 2.144a.898.898 0 0 0 .874.277l1.655-.378c.193.154.394.302.604.445l.16 1.752c.03.32.228.6.52.736.789.37 1.618.648 2.47.83a.899.899 0 0 0 .868-.295l1.155-1.34h.694l1.155 1.34a.9.9 0 0 0 .869.294c.852-.181 1.68-.46 2.47-.83a.902.902 0 0 0 .52-.735l.16-1.752c.208-.143.41-.291.604-.445l1.655.378a.897.897 0 0 0 .874-.277 11.955 11.955 0 0 0 1.534-2.144.903.903 0 0 0-.008-.892l-.874-1.506c.086-.242.164-.492.235-.756l1.574-.694a.901.901 0 0 0 .537-.825v-2.45a.9.9 0 0 0-.537-.824zm-1.266 2.687l-1.44.635a.903.903 0 0 0-.514.623 8.23 8.23 0 0 1-.417 1.338.902.902 0 0 0 .053.798l.825 1.422a10.23 10.23 0 0 1-.706.985l-1.558-.356a.894.894 0 0 0-.8.202 8.222 8.222 0 0 1-1.105.818.9.9 0 0 0-.423.684l-.151 1.655c-.36.146-.728.271-1.103.374L13.107 20.3a.902.902 0 0 0-.683-.313h-1.52a.902.902 0 0 0-.684.313l-1.066 1.238a9.977 9.977 0 0 1-1.104-.374l-.15-1.656a.902.902 0 0 0-.423-.683 8.239 8.239 0 0 1-1.105-.818.895.895 0 0 0-.799-.202l-1.558.356c-.255-.314-.49-.643-.706-.985l.826-1.422a.903.903 0 0 0 .052-.798 8.29 8.29 0 0 1-.417-1.337.903.903 0 0 0-.514-.624l-1.44-.635v-1.275l1.44-.635a.903.903 0 0 0 .514-.623c.101-.457.24-.905.418-1.338a.903.903 0 0 0-.053-.798L3.309 6.27c.215-.342.45-.67.705-.985l1.558.357a.897.897 0 0 0 .8-.203 8.229 8.229 0 0 1 1.105-.818.9.9 0 0 0 .423-.684l.15-1.657c.36-.146.728-.27 1.103-.374l1.066 1.238a.9.9 0 0 0 .684.313h1.52a.903.903 0 0 0 .683-.313l1.066-1.238a9.99 9.99 0 0 1 1.104.374l.151 1.657a.902.902 0 0 0 .423.683c.39.24.76.514 1.105.817a.897.897 0 0 0 .799.203l1.558-.357c.255.314.49.643.706.985l-.826 1.422a.903.903 0 0 0-.053.798c.177.433.317.88.418 1.338a.903.903 0 0 0 .514.623l1.44.635v1.275z"/><path d="M11.664 5.41a6.312 6.312 0 0 0-6.312 6.313 6.32 6.32 0 0 0 6.312 6.312 6.312 6.312 0 0 0 0-12.624zm0 10.821a4.509 4.509 0 1 1 0-9.017 4.509 4.509 0 0 1 0 9.017zm41.785-8.157l-1.245-.55a8.522 8.522 0 0 0-.158-.504l.694-1.196a.904.904 0 0 0 .007-.893 10.17 10.17 0 0 0-1.298-1.813.896.896 0 0 0-.872-.278l-1.31.3c-.13-.1-.262-.198-.397-.293l-.127-1.39a.9.9 0 0 0-.52-.735 9.762 9.762 0 0 0-2.09-.702.896.896 0 0 0-.869.294l-.918 1.065h-.44L42.99.314a.895.895 0 0 0-.87-.294 9.758 9.758 0 0 0-2.091.702.9.9 0 0 0-.52.736l-.126 1.39a8.674 8.674 0 0 0-.397.292l-1.31-.3a.897.897 0 0 0-.873.278 10.122 10.122 0 0 0-1.297 1.814.903.903 0 0 0 .007.892l.693 1.195a8.754 8.754 0 0 0-.157.505l-1.245.55a.9.9 0 0 0-.538.825v2.04a.9.9 0 0 0 .538.826l1.245.55c.048.174.101.341.157.504l-.694 1.196a.904.904 0 0 0-.007.893c.365.65.8 1.258 1.298 1.813a.897.897 0 0 0 .874.277l1.308-.3c.129.101.262.2.398.293l.126 1.39a.9.9 0 0 0 .52.736c.668.312 1.37.548 2.091.702a.899.899 0 0 0 .868-.294l.918-1.066h.44l.918 1.066a.9.9 0 0 0 .868.294 9.758 9.758 0 0 0 2.092-.702.9.9 0 0 0 .52-.736l.126-1.39c.136-.094.268-.191.396-.292l1.31.3a.897.897 0 0 0 .873-.278 10.17 10.17 0 0 0 1.298-1.813.904.904 0 0 0-.007-.893l-.694-1.196c.056-.163.11-.33.158-.504l1.245-.55a.9.9 0 0 0 .538-.825V8.9a.9.9 0 0 0-.538-.825zm-1.265 2.279l-1.111.49a.899.899 0 0 0-.515.625 6.734 6.734 0 0 1-.34 1.087.904.904 0 0 0 .053.799l.642 1.106a8.588 8.588 0 0 1-.47.658l-1.209-.276a.892.892 0 0 0-.797.202c-.28.247-.581.47-.9.665a.903.903 0 0 0-.424.685l-.117 1.288a7.867 7.867 0 0 1-.727.246l-.826-.959a.902.902 0 0 0-.684-.313h-1.266a.902.902 0 0 0-.683.313l-.826.96a7.838 7.838 0 0 1-.727-.247l-.117-1.288a.903.903 0 0 0-.425-.685 6.615 6.615 0 0 1-.9-.665.907.907 0 0 0-.798-.203l-1.207.277a8.282 8.282 0 0 1-.47-.658l.642-1.106a.905.905 0 0 0 .052-.799 6.737 6.737 0 0 1-.34-1.087.9.9 0 0 0-.515-.626l-1.11-.49v-.866l1.11-.49a.898.898 0 0 0 .515-.625c.083-.372.197-.736.34-1.089a.902.902 0 0 0-.052-.798l-.642-1.106c.145-.224.302-.444.47-.657l1.208.276c.283.065.58-.01.797-.203.28-.246.582-.468.9-.664a.903.903 0 0 0 .424-.685l.117-1.288a7.7 7.7 0 0 1 .728-.246l.826.959c.171.198.42.313.683.313h1.266a.902.902 0 0 0 .684-.313l.826-.96c.242.07.485.152.727.247l.117 1.288a.903.903 0 0 0 .425.685c.318.196.619.418.9.664a.895.895 0 0 0 .796.203l1.209-.276c.168.213.324.432.47.658l-.642 1.106a.905.905 0 0 0-.053.799c.144.352.257.716.34 1.087.063.279.254.51.515.626l1.11.49v.866z"/><path d="M44.126 5.41a4.509 4.509 0 1 0 0 9.018 4.509 4.509 0 0 0 0-9.017zm0 7.214a2.705 2.705 0 1 1 0-5.41 2.705 2.705 0 0 1 0 5.41zm9.101 25.533l-1.307-.274a11.723 11.723 0 0 0-.182-.678l1.002-.898a.901.901 0 0 0 .228-1.025 13.547 13.547 0 0 0-1.656-2.837.905.905 0 0 0-1.002-.314l-1.26.413c-.16-.17-.327-.336-.497-.496l.414-1.26a.901.901 0 0 0-.313-1 13.488 13.488 0 0 0-2.839-1.659.906.906 0 0 0-1.025.228l-.898 1.003c-.224-.068-.45-.13-.677-.183l-.275-1.307a.902.902 0 0 0-.882-.716h-3.075a.902.902 0 0 0-.882.716l-.275 1.307c-.226.054-.453.115-.677.182l-.898-1.002a.906.906 0 0 0-1.026-.228 13.55 13.55 0 0 0-2.837 1.656.902.902 0 0 0-.314 1.003l.414 1.26c-.17.16-.337.326-.497.496l-1.259-.413a.907.907 0 0 0-1.001.313 13.494 13.494 0 0 0-1.658 2.838.901.901 0 0 0 .228 1.025l1.003.898c-.07.225-.13.451-.184.678l-1.306.274a.902.902 0 0 0-.716.883v3.075c0 .426.298.794.716.882l1.306.275c.054.226.115.452.183.677l-1.003.898a.901.901 0 0 0-.227 1.025 13.45 13.45 0 0 0 1.656 2.837.905.905 0 0 0 1.002.315l1.26-.414c.16.17.327.336.497.496l-.414 1.26a.902.902 0 0 0 .313 1 13.495 13.495 0 0 0 2.838 1.659.899.899 0 0 0 1.025-.228l.899-1.003c.224.069.45.13.677.183l.275 1.307a.902.902 0 0 0 .882.716h3.075a.902.902 0 0 0 .882-.716l.275-1.307c.226-.054.453-.114.677-.182l.898 1.002a.9.9 0 0 0 1.025.228 13.547 13.547 0 0 0 2.838-1.656.902.902 0 0 0 .314-1.002l-.414-1.26c.17-.16.337-.327.497-.497l1.259.414a.904.904 0 0 0 1.001-.314 13.495 13.495 0 0 0 1.658-2.838.901.901 0 0 0-.228-1.025l-1.003-.898c.069-.225.13-.45.183-.677l1.307-.275a.902.902 0 0 0 .716-.882V39.04a.902.902 0 0 0-.716-.883zm-1.087 3.226l-1.167.246a.902.902 0 0 0-.702.722 9.812 9.812 0 0 1-.424 1.572.901.901 0 0 0 .248.976l.946.847c-.235.47-.502.924-.797 1.358l-1.192-.392a.905.905 0 0 0-.97.274 9.848 9.848 0 0 1-1.153 1.155.904.904 0 0 0-.273.97l.392 1.19a11.99 11.99 0 0 1-1.358.796l-.848-.945a.906.906 0 0 0-.978-.248 9.71 9.71 0 0 1-1.57.424.902.902 0 0 0-.722.702l-.246 1.166h-1.611l-.246-1.166a.902.902 0 0 0-.722-.702 9.796 9.796 0 0 1-1.572-.424.908.908 0 0 0-.976.248l-.847.945c-.47-.235-.924-.501-1.358-.796l.392-1.192a.903.903 0 0 0-.274-.97 9.848 9.848 0 0 1-1.155-1.154.906.906 0 0 0-.97-.273l-1.19.392A11.763 11.763 0 0 1 30 45.746l.946-.848a.902.902 0 0 0 .248-.977 9.703 9.703 0 0 1-.424-1.57.902.902 0 0 0-.702-.722l-1.167-.246v-1.611l1.167-.246a.902.902 0 0 0 .702-.722c.097-.535.239-1.06.424-1.572a.901.901 0 0 0-.248-.977L30 35.408c.236-.47.502-.923.797-1.357l1.192.392a.908.908 0 0 0 .97-.274 9.84 9.84 0 0 1 1.153-1.155.904.904 0 0 0 .273-.97l-.391-1.19c.434-.296.888-.562 1.357-.797l.848.946c.246.273.632.37.978.247a9.724 9.724 0 0 1 1.57-.423.901.901 0 0 0 .722-.702l.246-1.167h1.611l.246 1.167c.075.36.36.637.722.702.535.097 1.06.239 1.572.423a.903.903 0 0 0 .976-.247l.847-.946c.47.236.924.502 1.358.797l-.392 1.191a.903.903 0 0 0 .274.97c.416.353.802.739 1.155 1.154a.91.91 0 0 0 .97.273l1.19-.392c.295.435.562.888.797 1.358l-.946.848a.902.902 0 0 0-.248.978 9.71 9.71 0 0 1 .424 1.57.901.901 0 0 0 .702.722l1.167.245v1.612z"/><path d="M40.518 32.462a8.115 8.115 0 0 0 0 16.23 8.124 8.124 0 0 0 8.115-8.115 8.115 8.115 0 0 0-8.115-8.115zm0 14.427a6.32 6.32 0 0 1-6.312-6.312 6.312 6.312 0 1 1 6.312 6.312zM32.405 9.92h-7.214v1.803h7.214V9.919zm-7.289 29.401a.901.901 0 0 0-.474-.474l-6.312-2.705a.901.901 0 0 0-1.257.829v1.803H6.253V24.347H4.449v15.329a.9.9 0 0 0 .9.901h11.724v1.804a.9.9 0 0 0 .9.901h.002a.887.887 0 0 0 .355-.072l6.312-2.706a.901.901 0 0 0 .474-1.183zm-6.24 1.692v-2.675l3.121 1.338-3.12 1.337z"/><path d="M43.432 37.295l-3.877 4.652-2.007-2.007-1.275 1.275 2.706 2.705a.89.89 0 0 0 .637.264h.04a.903.903 0 0 0 .653-.323l4.509-5.41-1.386-1.156z"/></g><defs><clipPath id="iclip0"><path d="M0 0h54v54H0z"/></clipPath></defs></symbol><symbol viewBox="0 0 54 54" id="service_adv3" xmlns="http://www.w3.org/2000/svg"><g clip-path="url(#jclip0)"><path d="M30.6 54h-7.2a.9.9 0 0 1-.9-.9v-3.15c0-1.036-.66-1.954-1.607-2.232a21.465 21.465 0 0 1-4.212-1.744c-.873-.475-1.993-.298-2.725.434l-2.23 2.229a.898.898 0 0 1-1.271 0l-5.092-5.092a.898.898 0 0 1 0-1.272l2.23-2.23c.73-.731.91-1.851.433-2.724a21.484 21.484 0 0 1-1.744-4.212C6.004 32.161 5.086 31.5 4.05 31.5H.9a.9.9 0 0 1-.9-.9v-7.2a.9.9 0 0 1 .9-.9h3.15c1.036 0 1.954-.66 2.232-1.607a21.421 21.421 0 0 1 1.744-4.212c.475-.873.297-1.993-.433-2.725l-2.23-2.23a.898.898 0 0 1 0-1.271l5.092-5.092a.898.898 0 0 1 1.272 0l2.23 2.23c.731.73 1.853.91 2.724.433a21.484 21.484 0 0 1 4.212-1.744c.946-.278 1.607-1.196 1.607-2.232V.9a.9.9 0 0 1 .9-.9h7.2a.9.9 0 0 1 .9.9v3.15c0 1.036.66 1.954 1.607 2.232a21.464 21.464 0 0 1 4.212 1.744c.873.475 1.993.297 2.724-.433l2.23-2.23a.898.898 0 0 1 1.272 0l5.092 5.092a.898.898 0 0 1 0 1.272l-2.23 2.23c-.73.731-.91 1.851-.433 2.724a21.491 21.491 0 0 1 1.744 4.212c.278.946 1.196 1.607 2.232 1.607h3.15a.9.9 0 0 1 .9.9v7.2a.9.9 0 0 1-.9.9h-3.15c-1.036 0-1.954.66-2.232 1.607a21.465 21.465 0 0 1-1.744 4.212c-.475.873-.297 1.993.434 2.724l2.229 2.23a.898.898 0 0 1 0 1.272l-5.092 5.092a.898.898 0 0 1-1.272 0l-2.23-2.23c-.731-.731-1.851-.907-2.724-.433a21.486 21.486 0 0 1-4.212 1.744c-.946.278-1.607 1.196-1.607 2.232v3.15a.9.9 0 0 1-.9.9zm-6.3-1.8h5.4v-2.25c0-1.829 1.192-3.457 2.9-3.959a19.7 19.7 0 0 0 3.858-1.597c1.569-.855 3.567-.55 4.86.742l1.592 1.593 3.819-3.819-1.593-1.593c-1.292-1.292-1.597-3.29-.742-4.859a19.7 19.7 0 0 0 1.597-3.858c.502-1.708 2.13-2.9 3.96-2.9H52.2v-5.4h-2.25c-1.829 0-3.457-1.192-3.959-2.9a19.758 19.758 0 0 0-1.597-3.858c-.855-1.569-.55-3.567.742-4.86l1.593-1.592-3.819-3.818-1.593 1.593c-1.292 1.293-3.29 1.597-4.859.742A19.695 19.695 0 0 0 32.6 8.01c-1.708-.503-2.9-2.131-2.9-3.96V1.8h-5.4v2.25c0 1.829-1.192 3.457-2.9 3.959a19.74 19.74 0 0 0-3.858 1.597c-1.569.855-3.567.55-4.86-.742L11.09 7.27l-3.818 3.82 1.593 1.593c1.293 1.292 1.597 3.29.742 4.859A19.654 19.654 0 0 0 8.01 21.4c-.503 1.708-2.131 2.9-3.96 2.9H1.8v5.4h2.25c1.829 0 3.457 1.192 3.959 2.9a19.74 19.74 0 0 0 1.597 3.858c.855 1.569.55 3.567-.742 4.86L7.27 42.91l3.819 3.819 1.593-1.593c1.292-1.292 3.29-1.597 4.859-.742a19.7 19.7 0 0 0 3.858 1.597c1.708.502 2.9 2.13 2.9 3.96V52.2z"/><path d="M27 45c-9.925 0-18-8.075-18-18S17.075 9 27 9s18 8.075 18 18-8.075 18-18 18zm0-34.2c-8.932 0-16.2 7.268-16.2 16.2 0 8.932 7.268 16.2 16.2 16.2 8.932 0 16.2-7.268 16.2-16.2 0-8.932-7.268-16.2-16.2-16.2z"/><path d="M27.002 19.8a.9.9 0 0 1-.9-.9V6.3a.9.9 0 0 1 1.8 0v12.6a.9.9 0 0 1-.9.9zm0 28.8a.9.9 0 0 1-.9-.9V35.1a.9.9 0 0 1 1.8 0v12.6a.9.9 0 0 1-.9.9z"/><path d="M26.998 39.6c-6.948 0-12.6-5.652-12.6-12.6 0-6.948 5.652-12.6 12.6-12.6 6.948 0 12.6 5.652 12.6 12.6 0 6.948-5.652 12.6-12.6 12.6zm0-23.4c-5.955 0-10.8 4.845-10.8 10.8 0 5.956 4.845 10.8 10.8 10.8 5.955 0 10.8-4.844 10.8-10.8 0-5.955-4.845-10.8-10.8-10.8z"/><path d="M47.7 27.9H35.1a.9.9 0 0 1 0-1.8h12.6a.9.9 0 0 1 0 1.8zm-28.802 0h-12.6a.9.9 0 0 1 0-1.8h12.6a.9.9 0 0 1 0 1.8zm8.097 3.6c-2.18 0-4.3-1.377-6.132-3.982a.898.898 0 0 1 0-1.035c1.832-2.606 3.952-3.983 6.132-3.983 2.152 0 4.246 1.343 6.062 3.885a.907.907 0 0 1 0 1.23c-1.813 2.541-3.908 3.885-6.062 3.885zM22.718 27c1.373 1.77 2.843 2.7 4.277 2.7 1.434 0 2.904-.93 4.277-2.7-1.375-1.77-2.844-2.7-4.277-2.7-1.434 0-2.904.93-4.277 2.7z"/></g><defs><clipPath id="jclip0"><path d="M0 0h54v54H0z"/></clipPath></defs></symbol><symbol viewBox="0 0 18 18" id="twitter" xmlns="http://www.w3.org/2000/svg"><g clip-path="url(#kclip0)"><path d="M18 3.42a7.374 7.374 0 0 1-2.12.58 3.708 3.708 0 0 0 1.623-2.04 7.445 7.445 0 0 1-2.347.896 3.693 3.693 0 0 0-6.292 3.366 10.483 10.483 0 0 1-7.61-3.858 3.664 3.664 0 0 0-.5 1.856 3.69 3.69 0 0 0 1.643 3.073A3.693 3.693 0 0 1 .724 6.83v.046a3.696 3.696 0 0 0 2.962 3.62c-.31.084-.636.13-.973.13-.238 0-.47-.024-.695-.069a3.695 3.695 0 0 0 3.448 2.565A7.409 7.409 0 0 1 .881 14.7c-.298 0-.592-.018-.881-.05a10.438 10.438 0 0 0 5.66 1.66c6.793 0 10.506-5.626 10.506-10.505l-.013-.478A7.373 7.373 0 0 0 18 3.419z"/></g><defs><clipPath id="kclip0"><path d="M0 0h18v18H0z"/></clipPath></defs></symbol><symbol viewBox="0 0 25 25" id="vk" xmlns="http://www.w3.org/2000/svg"><g clip-path="url(#lclip0)"><path d="M22.35 10.57c2.588-3.502 2.014-3.568 2.65-4.662h-4.957s-.353 1.223-.46 1.442c-.952 1.937-3.088 4.843-4.38 5.14-1.271.292-1.103-2.713-1.024-4.015.073-1.207.06-1.63.025-1.838a.7.7 0 0 0-.614-.566c-.632-.08-1.78-.193-3.064-.133l-1.15.038c.454 1.013.76.703.927 1.876.188 1.373.114 4.714-1.238 4.714-2.168 0-4.602-6.511-4.679-6.658H0l.401 1.004c3.235 8.097 7.28 11.847 12.814 12.159l.72.02.052-.699c.078-1.08.62-2.635 1.58-2.635 1.42 0 1.831.414 2.768 1.571.9 1.11 1.52 1.764 2.973 1.764H25l-.526-1.059c-.823-1.65-2.471-3.065-3.115-3.886-.234-.309-.463-.797-.226-1.388.195-.515.774-1.588 1.218-2.189z"/></g><defs><clipPath id="lclip0"><path d="M0 0h25v25H0z"/></clipPath></defs></symbol></svg>