<?xml version="1.0" encoding="utf-8"?><svg xmlns="http://www.w3.org/2000/svg" xmlns:xlink="http://www.w3.org/1999/xlink"><symbol viewBox="0 0 15 15" id="call" xmlns="http://www.w3.org/2000/svg"><path d="M3 6.5c1.167 2.333 3.167 4.25 5.5 5.5l1.833-1.833c.25-.25.584-.334.834-.167.916.333 1.916.5 3 .5.5 0 .833.333.833.833v2.834c0 .5-.333.833-.833.833C6.333 15 0 8.667 0 .833 0 .333.333 0 .833 0H3.75c.5 0 .833.333.833.833 0 1 .167 2 .5 3 .084.25 0 .584-.166.834L3 6.5z"/></symbol><symbol viewBox="0 0 122 40" id="logo" xmlns="http://www.w3.org/2000/svg"><path d="M50.309 17.724V8.568h3.91c2.894 0 5.027 1.701 5.027 4.553s-2.082 4.553-4.976 4.553h-3.961v.05zm6.5-4.553c0-1.4-.864-2.502-2.54-2.502h-1.523v5.003h1.524c1.574 0 2.539-1.15 2.539-2.501zm3.353-.001c0-2.801 2.133-4.702 4.977-4.702 2.844 0 4.926 1.951 4.926 4.703 0 2.752-2.133 4.703-4.926 4.703-2.895 0-4.977-1.951-4.977-4.703zm7.465 0c0-1.5-.965-2.65-2.488-2.65-1.524 0-2.54 1.15-2.54 2.65 0 1.502.966 2.652 2.54 2.652 1.473 0 2.488-1.2 2.488-2.651zm9.039 4.554l-1.574-3.052h-1.219v3.052h-2.387V8.568h4.621c2.032 0 3.2 1.35 3.2 3.052 0 1.6-.965 2.451-1.828 2.752l1.879 3.352h-2.692zm.254-6.104c0-.6-.508-.95-1.168-.95h-1.879v1.95h1.879c.61 0 1.168-.35 1.168-1zm3.35 1.55c0-2.801 2.133-4.702 4.976-4.702 2.844 0 4.926 1.951 4.926 4.703 0 2.752-2.133 4.703-4.926 4.703-2.843 0-4.977-1.951-4.977-4.703zm7.515 0c0-1.5-.965-2.65-2.488-2.65-1.523 0-2.54 1.15-2.54 2.65 0 1.502.966 2.652 2.54 2.652 1.473 0 2.488-1.2 2.488-2.651zm10.059 4.554V14.07h-3.86v3.653h-2.386V8.568h2.386v3.452h3.86V8.618h2.387v9.106h-2.387zm3.806-4.554c0-2.801 2.133-4.702 4.977-4.702 2.844 0 4.926 1.951 4.926 4.703 0 2.752-2.133 4.703-4.926 4.703-2.844 0-4.977-1.951-4.977-4.703zm7.466 0c0-1.5-.965-2.65-2.54-2.65-1.523 0-2.539 1.15-2.539 2.65 0 1.502.965 2.652 2.539 2.652 1.575 0 2.54-1.2 2.54-2.651zm5.993 4.554l-3.504-9.156h2.692l2.285 6.604 2.285-6.604h2.692l-3.504 9.106h-2.946v.05zm-64.8 13.659v-9.106h3.91c2.894 0 5.027 1.701 5.027 4.553s-2.082 4.553-4.976 4.553h-3.961zm6.5-4.553c0-1.401-.864-2.502-2.54-2.502h-1.523v5.003h1.524c1.574 0 2.539-1.15 2.539-2.501zm3.861 4.553v-9.106h6.754v2.051h-4.418v1.401h4.316v2.051h-4.316v1.551h4.418v2.052H60.67zm7.822-1.252l1.27-1.751c.66.65 1.675 1.2 2.945 1.2.813 0 1.32-.3 1.32-.75 0-1.25-5.23-.25-5.23-3.752 0-1.551 1.32-2.902 3.707-2.902 1.473 0 2.793.45 3.758 1.251l-1.32 1.701c-.762-.65-1.778-.95-2.692-.95-.71 0-1.016.25-1.016.65 0 1.15 5.231.3 5.231 3.702 0 1.851-1.371 3.052-3.86 3.052-1.878 0-3.199-.6-4.113-1.45zm9.344 1.252v-9.106h2.387v9.105h-2.387zm3.808-4.553c0-2.902 2.235-4.703 5.028-4.703 2.082 0 3.3 1.1 3.961 2.201l-1.98 1c-.356-.6-1.067-1.15-1.981-1.15-1.523 0-2.59 1.15-2.59 2.651s1.067 2.652 2.59 2.652c.66 0 1.371-.25 1.727-.55v-.7h-2.082v-2.052h4.468v3.652c-1.015 1.1-2.336 1.801-4.113 1.801-2.742-.05-5.028-1.9-5.028-4.803zm17.112 4.553l-3.91-5.254v5.304h-2.387v-9.156h2.438l3.757 5.003v-5.003h2.387v9.106h-2.285zM16.336.263H.492v39.374h15.946c13.407 0 22.04-7.755 22.04-19.712C38.427 7.968 29.794.263 16.336.263zm-.406 31.47H8.871V8.717h7.16c8.278 0 14.067 3.202 14.067 11.257 0 6.454-5.28 11.757-14.168 11.757z"/><path d="M17.555 15.272h-1.828v9.356h1.828c3.605 0 5.738-2.151 5.738-4.803-.05-3.252-2.386-4.553-5.738-4.553z"/></symbol></svg>