<svg width="105" height="202" viewBox="0 0 105 202" fill="none" xmlns="http://www.w3.org/2000/svg">
<path d="M101.851 152.386C101.698 152.079 101.238 151.312 100.624 149.165C100.471 148.551 100.317 147.784 100.164 147.017C99.7037 144.256 99.3969 140.881 99.0901 136.586C98.9368 134.439 98.9368 132.598 99.0901 130.911V130.757V130.604C99.0901 127.843 97.2495 125.542 94.4884 124.928C94.6418 124.775 94.7952 124.621 94.7952 124.468C95.8689 123.394 96.3291 121.86 96.0223 120.173C95.5622 116.492 95.7156 114.958 95.8689 114.497C96.3291 114.191 96.7893 113.73 97.4028 113.424C99.5503 111.736 102.618 109.589 102.925 105.14V104.987V104.834C102.925 103.453 102.465 102.226 101.698 101.306C103.232 100.232 104.152 98.5444 104.152 96.5503C104.152 95.9367 103.232 83.8186 102.158 71.2403C101.851 68.4792 101.544 65.5647 101.238 62.6502V62.4968C101.238 62.0366 101.238 61.5764 100.931 60.9628C97.863 31.5111 95.5622 26.7559 93.4147 24.455L93.5681 24.3016C93.1079 23.8414 91.7274 22.4609 89.2732 22.4609C89.1198 22.4609 88.9664 22.4609 88.6596 22.4609C88.046 20.7735 87.2791 19.0862 86.5121 17.5523C86.052 16.7853 85.7452 16.1717 85.4384 15.7115C84.3647 13.7174 83.1376 11.8767 81.9104 10.3427L81.757 10.1893L81.4503 9.88254C81.1435 9.57575 80.9901 9.26896 80.6833 8.96217L79.6096 7.88842C74.3943 2.67301 68.1053 0.0653076 60.7426 0.0653076C60.129 0.0653076 59.3621 0.0653076 58.5951 0.0653076C50.9256 0.52549 43.4095 2.8264 36.5069 6.96805C36.0468 7.27484 35.4332 7.58163 35.1264 8.04181C34.0527 8.96217 33.4391 10.3427 33.4391 11.7233C33.4391 12.6436 33.4391 13.7174 34.0527 14.9446L34.2061 15.2513L34.3595 15.4047C34.5129 15.5581 34.6663 15.8649 34.8196 16.0183C34.2061 16.3251 33.7459 16.4785 33.1324 16.7853C32.6722 16.9387 32.212 17.2455 31.9052 17.5523C31.7518 17.7056 31.5985 17.859 31.2917 17.859L30.9849 18.0124L30.8315 18.1658C28.684 19.6998 26.8434 21.3871 25.4628 23.2278C22.0883 27.9831 22.2417 32.5849 23.3154 35.346C24.0823 37.1867 25.4628 38.4139 27.1501 38.7207C27.4569 38.7207 27.9171 38.8741 28.3773 38.8741C28.684 38.8741 28.9908 38.8741 29.2976 38.8741C27.4569 40.8682 24.6959 43.4759 21.7815 45.47C20.401 46.237 19.3272 47.6175 19.0205 49.1515C18.8671 49.6117 18.8671 50.0718 18.8671 50.3786C15.0323 52.8329 12.7315 56.5144 12.1179 61.2696V61.423L11.9645 61.7298V62.6502C11.6577 66.6384 12.4247 70.0131 13.1916 72.7742V73.081C13.345 73.6946 13.6518 74.1547 13.8052 74.4615C13.9586 75.0751 14.2654 75.3819 14.4188 75.8421C14.4188 76.1489 14.4188 76.6091 14.5721 77.0692C14.5721 78.91 15.4925 80.5973 16.7196 81.6711L15.1857 82.2846C14.4188 82.5914 13.6518 83.0516 13.1916 83.3584C12.2713 83.8186 11.1976 84.2788 10.2772 85.0457L9.20348 85.6593L8.74331 86.5797C7.97636 88.1136 7.97636 89.9543 8.74331 91.3349C8.43653 93.1756 8.74331 95.4765 9.20348 98.391C8.28314 98.8512 7.51619 99.4648 6.90263 100.385C6.44246 100.999 5.98229 101.766 5.8289 102.993C5.8289 103.3 5.67551 103.76 5.52212 104.373C4.90856 108.668 -1.07366 146.097 0.153464 162.05C0.153464 163.43 0.767024 164.811 1.68737 165.731C1.22719 166.651 1.22719 167.879 1.38059 168.952V169.106V169.259C2.91449 173.708 4.75517 176.776 7.20941 178.77L6.59585 183.985V184.445C5.98229 190.888 10.1238 196.87 16.5662 198.711L17.0264 198.864C19.0205 199.324 21.6281 199.938 24.8493 200.398C29.6044 201.012 36.3535 201.625 45.4036 201.625H47.551C48.9315 201.625 50.3121 201.472 51.3858 201.319C51.9993 201.165 54.4536 200.858 54.4536 200.858C55.9875 200.705 57.0612 200.245 57.9816 199.938C59.6689 199.478 61.3561 198.864 63.0434 198.251C64.8841 197.484 66.5714 196.563 68.4121 195.49C70.0994 194.569 71.6333 193.495 72.8604 192.422C74.2409 191.348 75.468 190.428 76.3884 189.507L76.5418 189.354C79.3028 186.746 81.757 184.138 83.7511 181.377C85.7452 178.77 87.4325 176.162 88.6596 173.861C89.2732 172.941 89.7333 172.02 90.0401 171.253L90.3469 170.64C90.8071 169.719 91.2672 168.799 91.574 167.879L92.0342 166.805L92.1876 166.498C92.6477 165.271 92.6478 164.044 92.341 162.97C93.7215 162.663 95.4088 162.663 97.5562 162.817C97.863 162.817 98.1698 162.817 98.4766 162.817C100.777 162.817 102.772 161.589 103.538 159.595C105.072 156.834 104.152 153.92 101.851 152.386Z" fill="white"/>
<path d="M23.3154 50.8389C23.6222 51.1456 23.9289 51.4524 24.3891 51.4524C24.6959 51.4524 24.8493 51.4524 25.1561 51.299C33.4391 45.9302 39.8815 36.4198 40.1883 35.9596C40.6485 35.346 40.4951 34.5791 39.8815 34.1189C39.5747 33.9655 39.4213 33.8121 39.1146 33.9655C38.6544 33.9655 38.3476 34.1189 38.1942 34.5791C38.1942 34.5791 36.9671 36.4198 34.973 38.7207C32.3654 41.942 28.2239 46.237 23.7755 49.1515C23.0086 49.4583 22.8552 50.3787 23.3154 50.8389ZM92.341 141.648C92.4944 144.103 92.8011 146.557 93.4147 149.011C93.5681 149.932 93.8749 150.852 94.1816 151.772C95.102 154.687 96.3291 157.141 98.1698 158.215C98.3232 158.368 98.63 158.368 98.7834 158.368C99.2435 158.368 99.7037 158.215 99.8571 157.755C100.164 157.141 100.01 156.374 99.3969 156.067C98.0164 155.3 97.0961 152.999 96.3291 150.238C96.1757 149.471 96.0223 148.704 95.8689 147.784C95.2554 144.409 94.9486 140.574 94.7952 136.893C94.6418 134.592 94.6418 132.445 94.7952 130.604C94.7952 129.837 94.335 129.377 93.5681 129.223C92.8011 129.223 92.341 129.683 92.1876 130.45C92.0342 131.371 91.8808 136.279 92.341 141.648ZM88.6596 29.0569C89.4265 29.8238 90.3469 33.1985 91.2672 38.4139C92.0342 43.0157 92.9545 49.1515 93.7215 56.2077C94.4884 62.4968 95.2554 69.5529 95.8689 76.9159C96.4825 83.3584 96.9427 90.1078 97.4028 96.7037C97.4028 97.3173 98.0164 97.9309 98.63 97.9309C98.63 97.9309 98.63 97.9309 98.7834 97.9309C99.5503 97.9309 100.01 97.3173 100.01 96.5503C100.01 96.3969 99.2435 85.0458 98.0164 71.7005C97.7096 68.786 97.4028 65.7181 97.0961 62.6502C97.0961 62.3434 97.0961 62.19 96.9427 61.8832C94.1816 35.4994 92.0342 29.0569 90.5003 27.3695C90.0401 26.9094 89.7333 26.756 89.2732 26.756C88.9664 26.756 88.6596 26.756 88.5062 26.9093C88.1994 27.0627 87.8926 27.3695 87.7393 27.8297C87.5859 28.1365 88.046 28.7501 88.6596 29.0569ZM4.44838 161.743C4.44838 162.356 5.06194 162.97 5.6755 162.97H5.82889C6.59584 162.97 7.05601 162.356 7.05601 161.59C6.13567 148.091 10.8908 115.878 12.2713 106.521C12.2713 106.214 12.4247 105.907 12.4247 105.601C12.5781 104.527 12.7314 104.067 12.7314 103.913C12.8848 103.146 12.4247 102.533 11.6577 102.379C11.0442 102.226 10.584 102.533 10.2772 102.993C10.1238 103.146 10.1238 103.3 10.1238 103.453C10.1238 103.606 9.97042 104.067 9.81703 104.987C8.58991 112.657 3.37464 147.17 4.44838 161.743ZM37.8874 12.9505C38.1942 13.4107 38.8078 13.7174 39.4213 13.564C39.5747 13.564 39.5747 13.564 39.7281 13.4107C40.9552 12.6437 42.029 12.0301 43.2561 11.4165C47.0909 9.5758 51.2324 8.19525 55.5273 7.58167C55.8341 7.58167 56.1409 7.42828 56.2943 7.42828C57.2146 7.27488 58.1349 7.27489 59.0553 7.12149C61.6629 6.9681 64.1172 7.12149 66.2646 7.73507H66.418C67.9519 8.19525 69.3324 8.80883 70.7129 9.5758C71.1731 9.88259 71.4799 10.036 71.9401 10.3428C72.8604 10.9563 73.7807 11.7233 74.7011 12.6437C75.0079 12.9505 75.3146 13.2573 75.468 13.564C75.7748 13.8708 76.0816 14.331 76.3884 14.6378C77.4621 16.0184 78.5358 17.5523 79.4562 19.2396C79.763 19.8532 80.0697 20.3134 80.3765 20.927C80.6833 21.5406 80.9901 22.1541 81.1435 22.7677C81.757 23.9949 82.2172 25.3754 82.6774 26.6026C89.1198 45.4701 87.4325 71.0869 87.4325 71.5471C87.4325 72.314 87.8926 72.9276 88.6596 72.9276H88.813C89.4265 72.9276 90.0401 72.4675 90.0401 71.7005C90.1935 70.1665 92.341 38.7207 82.524 19.393C82.2172 18.7795 81.9104 18.3193 81.6036 17.8591C80.6833 16.1718 79.6096 14.4844 78.3824 12.9505C78.0757 12.6437 77.9223 12.3369 77.6155 12.0301C77.3087 11.7233 76.8486 11.2631 76.5418 10.9563C71.7867 6.20113 65.8045 4.0536 58.9019 4.51379C51.5392 4.97397 44.6366 7.27488 38.3476 10.9563C38.3476 10.9563 38.1942 10.9563 38.1942 11.1097C37.8874 11.2631 37.7341 11.5699 37.7341 11.7233C37.7341 12.3369 37.7341 12.6437 37.8874 12.9505ZM5.6755 167.725C6.59584 170.486 7.97635 173.554 10.2772 175.395C11.3509 176.315 11.8111 177.696 11.6577 179.076L11.0442 184.292V184.445C10.584 188.894 13.345 193.035 17.7933 194.262C19.7874 194.723 22.395 195.336 25.4628 195.796C30.5247 196.41 36.9671 197.024 45.557 197.024C46.3239 197.024 46.9375 197.024 47.7044 197.024C48.7781 197.024 49.8519 196.87 50.9256 196.717C51.9993 196.563 52.9197 196.41 53.9934 196.257C55.0671 196.103 55.9875 195.796 56.9078 195.49C58.4417 195.029 59.9756 194.569 61.3561 193.956C63.0434 193.189 64.7307 192.422 66.2646 191.501C67.7985 190.581 69.179 189.661 70.4062 188.74C71.6333 187.82 72.707 186.9 73.7807 185.979C76.235 183.678 78.5358 181.224 80.5299 178.616C82.3706 176.162 83.9045 173.708 85.285 171.407C85.8986 170.486 86.3587 169.413 86.8189 168.492C87.2791 167.572 87.7393 166.652 88.046 165.885C88.1994 165.578 88.3528 165.271 88.5062 164.964C88.6596 164.504 88.6596 164.044 88.3528 163.89C88.046 163.43 87.5859 163.277 87.1257 163.43C86.8189 163.43 86.6655 163.584 86.5121 163.89C86.2054 164.197 85.8986 164.504 85.5918 164.811C83.1375 167.572 79.763 170.793 75.468 173.554C73.3206 174.935 70.8663 176.315 68.1053 177.389C65.3443 178.616 62.4299 179.537 59.0553 180.304C57.5214 180.61 55.9875 180.917 54.4536 181.071C53.2265 181.224 51.8459 181.377 50.6188 181.377C49.2383 181.531 48.0112 181.531 46.6307 181.531C45.4036 181.531 44.023 181.531 42.7959 181.531C42.029 181.531 41.4154 181.531 40.6485 181.531C40.1883 181.531 39.7281 181.531 39.268 181.531C37.4273 181.377 35.5866 181.224 33.8993 181.071C28.9908 180.61 24.8493 179.69 21.4747 178.77C20.401 178.463 19.4806 178.156 18.5603 177.696C17.3332 177.236 16.4128 176.776 15.3391 176.315C14.7255 176.009 14.2653 175.702 13.6518 175.395C9.97042 173.247 7.82296 170.64 6.28906 168.185C6.28906 166.805 5.52211 167.112 5.6755 167.725ZM88.046 109.129C88.046 112.043 88.3528 117.105 89.8867 121.4C90.3469 122.474 92.0342 122.167 91.8808 120.94C91.4206 117.412 91.2672 113.117 92.8011 111.736C95.2554 109.435 98.4766 108.208 98.7834 104.834C98.7834 104.22 98.1698 103.76 97.5562 103.913C95.8689 104.527 92.6477 105.907 90.1935 106.521C88.813 106.674 88.046 107.748 88.046 109.129ZM12.5781 89.3408C12.7314 89.4942 12.8848 89.6476 13.0382 89.4942C13.9586 89.1874 15.0323 88.8806 15.9526 88.5738C16.106 88.5738 16.2594 88.4204 16.4128 88.4204C16.5662 88.267 16.873 88.2671 17.0264 88.2671C17.1798 88.2671 17.1798 88.2671 17.3332 88.1137L18.8671 87.8069C19.1738 87.6535 19.634 87.6535 19.9408 87.5001C20.5543 87.3467 21.1679 87.1933 21.7815 87.0399L23.4688 86.7331L24.6959 86.5797C25.0027 86.5797 25.3094 86.4263 25.7696 86.4263C26.0764 86.4263 26.2298 86.4263 26.5366 86.2729C26.9967 86.2729 27.3035 86.1195 27.7637 86.1195C27.9171 86.1195 27.9171 86.1195 28.0705 86.1195C28.9908 85.9661 29.7578 85.9661 30.6781 85.9661L33.7459 85.8127C34.8196 85.8127 35.74 85.8127 36.8137 85.8127C37.5807 85.8127 38.501 85.8127 39.268 85.9661C42.4891 86.1195 45.5569 86.4263 48.7781 86.8865C52.7663 87.5001 56.7544 88.2671 60.7426 89.3408C61.0494 89.4942 61.3561 89.1874 61.5095 88.8806C61.6629 88.5738 61.5095 88.2671 61.2028 88.1137C57.6748 86.4263 53.9934 85.1992 50.1587 84.2788C49.8519 84.2788 49.5451 84.1254 49.3917 84.1254C48.1646 83.8186 46.7841 83.5118 45.4036 83.3584C42.6425 82.8983 39.7281 82.5915 36.8137 82.5915C32.6722 82.4381 28.3772 82.8983 24.2357 83.8186L21.1679 84.5856C20.0942 84.8924 19.1738 85.3526 18.2535 85.6594L16.7196 86.2729C16.2594 86.4263 15.7993 86.7331 15.3391 87.0399C14.4187 87.5001 13.4984 87.9603 12.5781 88.5738C12.4247 88.8806 12.4247 89.1874 12.5781 89.3408ZM13.6518 98.8513C14.5721 104.22 17.0264 105.294 19.7874 105.14C20.5543 105.14 21.3213 104.987 22.0882 104.834C23.162 104.527 24.0823 104.373 25.0027 104.067C25.1561 104.067 25.4628 103.913 25.7696 103.913C26.5366 103.76 27.6103 103.606 28.8374 103.453C29.9111 103.3 30.9849 103.146 32.212 102.993C33.7459 102.839 35.2798 102.686 36.8137 102.533C40.8019 102.226 44.6366 101.919 46.7841 101.919C48.7781 101.919 51.5392 100.385 54.1468 98.6979C54.9137 98.0843 55.6807 97.6241 56.4477 97.0105C57.368 96.2436 58.1349 95.4766 58.9019 95.0164C59.5155 94.4028 59.3621 93.3291 58.5951 92.8689C53.2265 90.1078 48.0112 88.8806 43.1027 88.2671C37.7341 87.6535 32.8256 87.9603 28.684 88.5738C28.0705 88.7272 27.4569 88.7272 26.8433 88.8806C26.5366 88.8806 26.2298 89.034 26.0764 89.034C23.0086 89.4942 20.7077 90.1078 19.0204 90.2612C18.7137 90.2612 18.5603 90.2612 18.2535 90.4146C18.1001 90.4146 18.1001 90.4146 17.9467 90.4146C17.6399 90.4146 17.3332 90.4146 17.0264 90.4146C16.7196 90.4146 16.5662 90.4146 16.2594 90.4146C12.5781 90.4146 12.4247 91.1815 13.6518 98.8513ZM17.3332 71.7005C17.4865 72.1607 17.6399 72.4674 17.7933 72.7742C17.9467 73.2344 18.1001 73.5412 18.2535 73.848C18.5603 74.4616 18.7137 75.0752 18.7137 75.5353C18.7137 75.8421 18.7137 75.9955 18.8671 76.3023C18.8671 76.4557 18.8671 76.6091 18.8671 76.7625C18.8671 77.8362 19.634 78.7566 20.7077 78.7566C20.8611 78.7566 21.0145 78.7566 21.1679 78.7566C21.3213 78.7566 21.4747 78.7566 21.6281 78.6032C23.162 78.2964 24.8493 77.9896 26.8433 77.6828C27.7637 77.5295 28.8374 77.3761 29.9111 77.2227C31.7518 76.9159 33.7459 76.7625 35.8934 76.4557C36.2001 76.4557 36.5069 76.4557 36.8137 76.3023C37.1205 76.3023 37.2739 76.3023 37.4273 76.1489C57.0612 73.848 57.0612 69.553 57.368 66.4851C57.5214 63.8774 53.2265 60.3493 47.3976 57.5882C43.4095 55.5941 38.8078 54.0601 34.3595 53.1398C31.2917 52.5262 28.3772 52.2194 25.923 52.5262C25.4628 52.5262 25.0027 52.6796 24.5425 52.6796C23.4688 52.833 22.5484 53.1398 21.7815 53.6C18.2535 55.5941 16.7196 58.662 16.2594 61.8832C16.2594 62.19 16.2594 62.4968 16.106 62.8036C15.9526 66.3317 16.7196 69.3996 17.3332 71.7005ZM27.9171 34.4257C28.684 34.5791 30.2179 34.1189 32.0586 33.5053C32.8256 33.1985 33.5925 33.0451 34.5129 32.7383C36.8137 31.818 39.1146 30.7442 40.3417 29.9772C41.4154 29.2103 42.1824 27.9831 42.9493 26.756C43.8697 25.0686 44.79 23.5347 46.4773 23.2279C46.9375 23.0745 47.3976 23.0745 47.8578 23.2279C50.0053 23.5347 51.9993 25.0686 54.3002 26.9093C54.607 27.0627 54.7604 27.2161 55.0671 27.3695C55.6807 27.8297 56.7544 27.9831 58.2883 28.1365C60.2824 28.2899 62.89 28.1365 65.4977 27.6763C70.8663 26.9093 76.235 25.222 76.6952 23.2279C76.8485 22.7677 76.6952 22.1541 76.3884 21.5405C76.0816 20.927 75.6214 20.16 74.7011 19.393C73.9341 18.7795 73.1672 18.1659 71.9401 17.7057C71.0197 17.2455 70.0994 16.9387 69.0256 16.6319C68.4121 16.4785 67.7985 16.3251 67.0316 16.1718C66.7248 16.1718 66.5714 16.0184 66.2646 16.0184C65.0375 15.865 63.657 15.7116 62.1231 15.5582C61.5095 15.5582 61.0494 15.5582 60.4358 15.5582C57.0612 15.4048 53.2265 15.7116 48.4714 16.4785C48.1646 16.4785 48.0112 16.4785 47.7044 16.6319C46.9375 16.7853 46.0171 16.9387 45.2502 17.0921C43.7163 17.3989 42.1824 17.7057 40.9552 18.1659C40.3417 18.3193 39.7281 18.6261 39.1146 18.7795C37.5807 19.393 36.2001 20.0066 34.973 20.6202C34.3595 20.927 33.7459 21.3872 33.1323 21.6939C31.2917 22.9211 29.9111 24.3016 28.9908 25.6822C25.7696 30.1306 26.9967 34.2723 27.9171 34.4257Z" fill="#1E1C31"/>
<path d="M36.8138 85.9661C37.5807 85.9661 38.5011 85.9661 39.268 86.1195C34.9731 84.4321 28.8375 84.1254 26.69 84.1254C26.69 84.1254 26.5366 85.1991 26.5366 86.5797C26.9968 86.5797 27.3036 86.4263 27.7637 86.4263C27.9171 86.4263 27.9171 86.4263 28.0705 86.4263C28.9909 86.2729 29.7578 86.2729 30.6782 86.2729L33.746 86.1195C34.8197 85.9661 35.8934 85.9661 36.8138 85.9661Z" fill="#8D67C3"/>
<path d="M26.5366 88.8805C26.5366 89.6475 26.5366 90.4145 26.69 90.8747C26.8434 91.6416 27.457 91.9484 28.3773 92.2552C29.6044 92.562 31.1383 92.8688 33.1324 93.6357C36.507 95.0163 36.9672 99.9249 39.1146 99.6181C41.2621 99.3113 44.7901 93.7891 43.5629 89.4941C43.4095 89.0339 43.2562 88.5737 42.9494 88.2669C37.5807 87.6534 32.6722 87.9602 28.5307 88.5737C27.6104 88.5737 26.9968 88.7271 26.5366 88.8805Z" fill="#8D67C3"/>
<path d="M93.7214 56.2076C94.4884 62.4968 95.2553 69.5529 95.8689 76.9159C96.7892 74.9217 97.4028 73.081 97.863 71.7005C97.5562 68.786 97.2494 65.7181 96.9426 62.6502C96.9426 62.3434 96.9426 62.19 96.7892 61.8832C96.0223 59.7357 94.7952 57.5882 93.7214 56.2076Z" fill="#19B4EE"/>
<path d="M47.8578 23.3812C50.0053 23.688 51.9993 25.2219 54.3002 27.0626C55.6807 27.216 56.9078 27.8296 58.2883 28.4432C60.2824 28.5966 62.89 28.4432 65.4977 27.983C64.8841 26.6025 64.7307 25.0685 65.4977 23.8414C67.3383 20.7735 67.3383 17.859 67.0316 16.3251C66.7248 15.0979 66.2646 14.7911 66.2646 16.0183V16.1717C66.418 19.0862 64.4239 22.0006 62.4299 22.3074C60.896 22.6142 60.5892 20.1599 58.1349 21.2337C56.1409 22.0006 51.2324 22.4608 47.8578 23.3812Z" fill="#1996EE"/>
<path d="M34.5128 32.7384C36.8137 31.818 39.1145 30.7442 40.3416 29.9773C41.4154 29.2103 42.1823 27.9831 42.9493 26.756C39.1145 26.756 36.0467 30.2841 34.5128 32.7384Z" fill="#1CD0C5"/>
<path d="M38.0408 34.579C38.0408 34.579 36.8137 36.4198 34.8196 38.7207L34.973 38.8741C36.3535 39.4876 37.8874 38.2605 38.5009 35.346C38.6543 34.8858 38.8077 34.4256 38.9611 33.9655C38.5009 33.9655 38.1942 34.2722 38.0408 34.579Z" fill="#1CD0C5"/>
<path d="M88.5062 26.6026C88.5062 27.2161 88.5062 27.6763 88.5062 28.2899C88.5062 28.5967 88.5062 28.7501 88.5062 29.0569C89.2732 29.8238 90.1935 33.1985 91.1139 38.4139C91.4206 38.2605 91.574 37.9537 91.4206 37.6469C90.9605 36.2664 90.6537 34.5791 90.5003 33.0451C90.3469 31.5112 90.1935 29.9772 90.1935 28.4433C90.1935 28.1365 90.1935 27.8297 90.1935 27.3695C89.7333 26.9093 89.4266 26.756 88.9664 26.756C89.1198 26.4492 88.813 26.6026 88.5062 26.6026Z" fill="#1CD0C5"/>
<path d="M81.2969 22.9211C81.9104 24.1482 82.3706 25.5288 82.8308 26.756L82.9842 24.1482C82.9842 23.3813 82.524 22.7677 81.757 22.7677C81.6037 22.9211 81.4503 22.9211 81.2969 22.9211Z" fill="#F376A2"/>
<path d="M92.3409 141.648C92.4943 144.102 92.8011 146.557 93.4147 149.011C94.1816 148.704 94.9486 148.244 95.7155 147.631C95.102 144.256 94.7952 140.421 94.6418 136.74C93.7215 138.427 92.9545 140.114 92.3409 141.648Z" fill="#8D67C3"/>
<path d="M52.1527 20.16C53.073 20.6202 53.84 20.6202 54.7603 20.7736C55.6807 20.7736 56.601 20.6202 57.368 20.16C58.2883 19.8532 58.9019 19.2397 59.6688 18.6261C59.9756 18.3193 60.2824 18.0125 60.5892 17.7057L61.0493 17.2455L61.3561 16.7854C61.5095 16.4786 61.6629 16.1718 61.9697 15.865C61.3561 15.865 60.8959 15.865 60.2824 15.865C60.2824 15.865 60.2824 15.865 60.2824 16.0184C59.362 17.3989 58.2883 18.4727 56.9078 19.0863C56.2942 19.3931 55.5273 19.5465 54.7603 19.6998C54.4536 19.6998 53.9934 19.6998 53.6866 19.6998C53.3798 19.6998 52.9197 19.5464 52.6129 19.5464C52.3061 19.3931 52.1527 19.6998 51.9993 19.8532C51.8459 19.6998 51.8459 20.0066 52.1527 20.16Z" fill="#F376A2"/>
<path d="M55.5273 5.89426C55.5273 6.50784 55.5273 7.12142 55.5273 7.5816C55.8341 7.5816 56.1409 7.42821 56.2943 7.42821C56.2943 6.81463 56.1409 6.35445 56.1409 5.74087C56.1409 5.58747 55.9875 5.43408 55.6807 5.43408C55.6807 5.58748 55.5273 5.74087 55.5273 5.89426Z" fill="#1CD0C5"/>
<path d="M44.9434 18.4726C44.9434 19.0861 44.9434 19.5463 45.0968 20.1599C45.2501 20.4667 45.2501 20.7735 45.4035 20.9269C45.4035 21.0803 45.5569 21.2337 45.5569 21.3871L45.7103 21.5404C45.7103 21.5404 45.8637 21.6938 45.8637 21.8472C46.3239 22.3074 47.2442 22.3074 47.7044 21.8472C48.1646 21.3871 48.1646 20.4667 47.7044 20.0065L47.551 19.8531C47.3976 19.6997 47.3976 19.5463 47.3976 19.3929C47.2442 19.0861 47.2442 18.7794 47.2442 18.4726C47.2442 18.1658 47.2442 17.7056 47.2442 17.3988C47.2442 17.2454 47.2442 17.092 47.3976 16.7852V16.6318C46.6307 16.7852 45.7103 16.9386 44.9434 17.092C45.0967 17.3988 44.9434 17.859 44.9434 18.4726Z" fill="#1CD0C5"/>
<path d="M39.7282 13.4105C40.9553 12.6435 42.029 12.03 43.2561 11.4164C44.1765 10.6494 45.4036 10.0358 46.6307 9.42227C46.9375 9.26887 47.0909 8.96209 46.9375 8.6553C46.7841 8.34851 46.4773 8.19511 46.3239 8.34851C44.79 8.6553 43.1028 9.26887 41.7222 10.3426C40.6485 11.1096 39.8816 12.3368 39.4214 13.5639C39.5748 13.4105 39.5748 13.4105 39.7282 13.4105Z" fill="#8D67C3"/>
<path d="M38.9612 18.6259C38.9612 18.9327 39.1146 19.3929 39.1146 19.6997C39.4214 21.2336 40.0349 22.7676 40.9553 24.1481C41.1086 24.3015 41.4154 24.4549 41.5688 24.3015C41.7222 24.1481 41.8756 23.9947 41.7222 23.8413C41.262 22.4608 40.9553 20.9268 40.8019 19.3929C40.8019 18.9327 40.6485 18.4725 40.6485 18.0123C40.1883 18.3191 39.5747 18.4725 38.9612 18.6259Z" fill="#8D67C3"/>
<path d="M32.212 25.8355C32.3654 26.9093 32.6722 27.8296 33.1323 28.75C33.4391 29.3636 34.2061 29.6704 34.8196 29.3636C35.4332 29.0568 35.74 28.2898 35.4332 27.6762C35.4332 27.5229 35.4332 27.5229 35.2798 27.5229V27.3695C34.8196 26.7559 34.5128 26.1423 34.2061 25.3753C34.0527 25.0685 34.0527 24.6084 33.8993 24.3016C33.8993 23.9948 33.8993 23.5346 33.8993 23.2278C33.8993 22.4608 34.2061 21.6939 34.5128 20.9269C34.5128 20.7735 34.6662 20.7735 34.6662 20.6201C34.0527 20.9269 33.4391 21.3871 32.8255 21.6939C32.6722 22.0007 32.5188 22.4608 32.3654 22.921C32.212 23.3812 32.212 23.8414 32.0586 24.3016C32.212 24.7618 32.0586 25.2219 32.212 25.8355Z" fill="#1996EE"/>
<path d="M27.9172 34.4256C28.6841 34.5789 30.218 34.1188 32.0587 33.5052C32.2121 33.3518 32.2121 33.3518 32.2121 33.1984C32.3655 32.8916 32.3655 32.5848 32.0587 32.4314C31.9053 32.4314 31.9053 32.278 31.7519 32.278C30.985 32.278 30.218 32.5848 29.6045 32.5848C29.4511 32.5848 29.2977 32.5848 29.1443 32.5848C28.9909 32.5848 28.9909 32.5848 28.8375 32.5848C28.6841 32.5848 28.6841 32.5848 28.6841 32.5848C28.5307 32.4314 28.3773 31.9712 28.2239 31.3577C28.2239 30.7441 28.0706 30.1305 28.2239 29.3635C28.3773 28.1364 28.5307 26.9092 28.6841 25.5287C25.7697 30.1305 26.9968 34.2722 27.9172 34.4256Z" fill="#19B4EE"/>
<path d="M37.734 11.8766L38.1942 11.2631C38.0408 11.4165 37.8874 11.7232 37.734 11.8766Z" fill="#1CD0C5"/>
<path d="M53.9934 98.6979C54.7604 98.0843 55.5273 97.6241 56.2943 97.0105C55.6807 96.8571 55.0672 97.0105 54.4536 97.4707C53.9934 97.7775 53.84 98.2377 53.9934 98.6979Z" fill="#8D67C3"/>
<path d="M21.0146 87.0398C20.7078 87.1932 20.401 87.5 20.0942 87.8068C20.7078 87.6534 21.3214 87.5 21.9349 87.3466L23.6222 87.0398V86.8864C23.4688 86.4262 23.162 86.1194 22.7019 86.2728H22.5485C21.9349 86.4262 21.4747 86.733 21.0146 87.0398Z" fill="#8D67C3"/>
<path d="M17.9467 90.7212C18.1001 90.7212 18.2535 90.7212 18.2535 90.5678C18.4069 90.4144 18.4069 90.2611 18.5603 90.1077C18.2535 90.1077 18.1001 90.1077 17.7933 90.2611C17.7933 90.2611 17.7933 90.2611 17.7933 90.4144C17.7933 90.4144 17.7933 90.5678 17.9467 90.7212Z" fill="#8D67C3"/>
<path d="M21.3213 92.8688C21.3213 92.7154 21.3213 92.562 21.3213 92.4086C21.3213 92.2552 21.4747 92.1018 21.6281 91.9484C21.9349 91.6417 22.2417 91.6417 22.5484 91.9484C22.8552 92.1018 23.0086 92.562 22.8552 92.8688C22.7018 93.1756 22.3951 93.4824 22.0883 93.6358C21.7815 93.6358 21.6281 93.9426 21.6281 94.2494C21.6281 94.5561 21.9349 94.7095 22.2417 94.7095C22.7018 94.5562 23.0086 94.4028 23.162 94.096C23.3154 93.7892 23.4688 93.4824 23.6222 93.1756C23.6222 92.8688 23.6222 92.4086 23.6222 92.1018C23.4688 91.795 23.3154 91.4883 23.0086 91.3349C22.7018 91.1815 22.3951 91.0281 21.9349 91.0281C21.6281 91.0281 21.3213 91.1815 21.0145 91.4883C20.7078 91.795 20.5544 91.9484 20.5544 92.2552C20.401 92.562 20.401 92.8688 20.7078 93.329C20.8611 93.4824 21.0145 93.4824 21.1679 93.4824C21.3213 93.1756 21.3213 93.0222 21.3213 92.8688Z" fill="#19B4EE"/>
<path d="M27.9172 86.4263C28.0706 86.4263 28.0706 86.4263 28.2239 86.4263C28.0706 85.1991 27.7638 84.2787 26.8434 84.1253C26.3833 83.9719 26.0765 84.5855 25.9231 86.5796C26.2299 86.5796 26.3833 86.5796 26.69 86.4263C26.9968 86.4263 27.457 86.4263 27.9172 86.4263Z" fill="#F376A2"/>
<path d="M21.6282 99.6182C22.8553 100.999 25.1561 100.232 26.69 100.078C28.2239 99.925 28.2239 102.072 27.3036 102.533C26.69 102.839 26.2299 103.3 25.7697 103.913C26.5366 103.76 27.6104 103.606 28.8375 103.453C30.0646 101.612 33.4392 100.232 34.2062 98.391C35.1265 96.3969 30.6782 95.4766 28.9909 93.9426C28.5307 93.6358 28.3773 92.8688 28.3773 92.1019C28.2239 91.0281 28.3773 89.801 28.3773 88.4204C27.7638 88.5738 27.1502 88.5738 26.5366 88.7272C26.2299 88.7272 25.9231 88.8806 25.7697 88.8806C25.3095 96.2435 22.0883 97.0105 21.6282 97.3173C21.0146 97.7775 20.401 98.2376 21.6282 99.6182Z" fill="#F376A2"/>
<path d="M32.0586 103.146C33.5925 102.993 35.1264 102.839 36.6603 102.686C36.6603 102.226 36.5069 101.919 36.3535 101.612C36.2001 101.152 35.5866 100.845 34.0527 100.999C33.4391 100.999 32.6722 101.919 32.0586 103.146Z" fill="#1CD0C5"/>
<path d="M72.0935 10.6494C72.4002 10.3427 72.8604 10.1893 73.1672 9.88248C73.474 9.72908 73.474 9.42229 73.474 9.11551C73.3206 8.80872 73.1672 8.80872 72.8604 8.80872C72.2468 8.96211 71.4799 9.2689 70.8663 9.72908C71.3265 10.0359 71.6333 10.3427 72.0935 10.6494Z" fill="#4263A8"/>
<path d="M68.7189 16.6318C68.7189 17.092 68.8723 17.5522 68.8723 17.859C69.0257 18.3192 69.179 18.7794 69.3324 19.3929C69.6392 20.1599 70.4062 20.4667 71.1731 20.3133C71.9401 20.0065 72.2469 19.2395 72.0935 18.4726C72.0935 18.3192 72.0935 18.3192 71.9401 18.1658C71.7867 18.0124 71.7867 17.859 71.6333 17.7056C70.8663 17.3988 69.946 16.9386 68.7189 16.6318Z" fill="#4263A8"/>
<path d="M79.6095 19.5464C79.9163 20.16 80.2231 20.6202 80.5298 21.2337C81.2968 20.9269 82.0637 20.4668 82.5239 19.6998L82.6773 19.5464C82.3705 18.9328 82.0637 18.4726 81.757 18.0125C81.6036 18.1658 81.6036 18.1658 81.6036 18.3192L81.2968 18.626C80.8366 19.0862 80.2231 19.393 79.6095 19.5464Z" fill="#8D67C3"/>
<path d="M75.0078 21.5405C75.468 21.6939 75.9282 21.6939 76.2349 21.6939C75.9282 21.0803 75.468 20.3134 74.5476 19.5464C74.3943 19.6998 74.3943 19.8532 74.2409 20.0066C74.0875 20.6201 74.3943 21.2337 75.0078 21.5405Z" fill="#8D67C3"/>
<path d="M75.6215 13.7174C75.9282 14.0242 76.235 14.4843 76.5418 14.7911C76.6952 14.4843 77.002 14.3309 77.1554 14.0242C77.4621 13.7174 77.7689 13.4106 78.0757 13.1038C78.2291 13.1038 78.2291 12.9504 78.3825 12.9504C78.0757 12.6436 77.9223 12.3368 77.6155 12.03C77.6155 12.03 77.6155 12.03 77.4621 12.03C76.8486 12.3368 76.5418 12.6436 76.235 12.9504C76.0816 13.4106 75.7748 13.564 75.6215 13.7174Z" fill="#1996EE"/>
<path d="M16.5662 88.5738C16.7196 88.4204 17.0263 88.4204 17.1797 88.4204C17.1797 88.267 17.1797 88.267 17.0263 88.1136C16.8729 88.1136 16.7196 88.1136 16.7196 88.267C16.7196 88.267 16.5662 88.4204 16.5662 88.5738Z" fill="#19B4EE"/>
<path d="M15.1857 95.1698C15.1857 95.9368 15.4924 96.8572 15.6458 97.6241C16.106 99.1581 16.873 100.539 17.6399 101.919C18.1001 102.533 18.4069 103.3 18.867 103.913C19.1738 104.373 19.4806 104.834 19.634 105.294C20.4009 105.294 21.1679 105.14 21.9348 104.987C21.9348 104.987 21.9348 104.987 21.9348 104.834C21.4747 104.067 21.0145 103.453 20.5543 102.84C20.0942 102.226 19.634 101.612 19.1738 100.999C18.2535 99.7717 17.4865 98.5445 17.0264 97.164C16.7196 96.5504 16.5662 95.7834 16.4128 95.1698C16.2594 94.4029 16.2594 93.7893 16.2594 93.0223C16.2594 92.2553 16.4128 91.335 16.5662 90.568C16.2594 90.568 16.106 90.568 15.7992 90.568C15.4925 91.335 15.3391 92.1019 15.1857 93.0223C15.1857 93.4825 15.1857 94.2495 15.1857 95.1698Z" fill="#19B4EE"/>
<path d="M49.2383 86.1195C49.6985 85.9661 50.0052 85.3525 50.1586 84.5855C49.8518 84.5855 49.5451 84.4321 49.3917 84.4321C48.1646 84.1253 46.784 83.8186 45.4035 83.6652C44.4832 84.5855 48.0112 86.5797 49.2383 86.1195Z" fill="#1996EE"/>
<path d="M26.6899 77.8363C27.6103 77.6829 28.684 77.5295 29.7577 77.3761C30.5247 76.9159 31.2916 76.4557 32.0586 75.9955C32.6722 75.5353 33.4391 75.0752 33.8993 74.4616C34.2061 74.1548 34.3594 73.6946 34.3594 73.2344C34.3594 72.7742 34.3594 72.3141 34.2061 72.0073C34.2061 71.8539 34.0527 71.8539 33.8993 71.8539C33.7459 71.8539 33.7459 72.0073 33.7459 72.1607C33.7459 72.4675 33.7459 72.9276 33.5925 73.081C33.4391 73.3878 33.2857 73.6946 33.1323 73.848C32.6722 74.3082 32.0586 74.615 31.445 74.9218C30.2179 75.5353 28.684 76.3023 27.4569 77.2227C27.1501 77.5295 26.9967 77.6829 26.6899 77.8363Z" fill="#1CD0C5"/>
<path d="M35.74 76.609C36.0468 76.609 36.3536 76.609 36.6603 76.4556C36.9671 76.4556 37.1205 76.4556 37.2739 76.3023C37.4273 75.9955 37.4273 75.6887 37.5807 75.3819C37.5807 75.0751 37.4273 74.9217 37.1205 74.7683C36.9671 74.7683 36.6603 74.7683 36.6603 75.0751C36.3536 75.6887 36.0468 76.1489 35.74 76.609Z" fill="#8D67C3"/>
<path d="M18.7137 75.6887C18.7137 75.9955 18.7137 76.1489 18.8671 76.4557C19.0205 76.1489 19.0205 75.9955 19.1739 75.6887C19.1739 75.5353 19.1739 75.5353 19.0205 75.5353C18.8671 75.3819 18.8671 75.5353 18.7137 75.6887C18.7137 75.6887 18.7137 75.5353 18.7137 75.6887Z" fill="#4263A8"/>
<path d="M20.5543 78.91C20.7077 78.91 20.8611 78.91 21.0145 78.91C21.1679 78.91 21.3213 78.91 21.4747 78.7566C21.7814 77.9896 22.2416 77.376 22.7018 76.7624C23.162 75.9955 23.7755 75.3819 24.3891 74.9217C25.0026 74.4615 25.6162 74.0013 26.3832 73.6945C27.1501 73.3877 27.917 73.2344 28.8374 73.081C29.1442 73.081 29.2976 72.7742 29.2976 72.4674C29.2976 72.314 29.1442 72.1606 28.9908 72.0072C28.0704 71.7004 26.9967 71.7004 25.923 71.8538C25.6162 71.8538 25.4628 72.0072 25.156 72.0072C24.8492 72.1606 24.6959 72.1606 24.3891 72.314L23.7755 72.7742C23.6221 72.9276 23.3153 73.081 23.162 73.2344C22.395 74.0013 21.7814 74.7683 21.3213 75.6887C20.8611 76.9158 20.7077 77.8362 20.5543 78.91Z" fill="#19B4EE"/>
<path d="M9.81702 104.987C9.97041 105.14 10.1238 105.294 10.4306 105.601C10.8907 105.907 11.3509 106.214 11.8111 106.368C11.9645 106.368 12.1179 106.521 12.2713 106.521C12.2713 106.214 12.4247 105.907 12.4247 105.601C12.4247 105.601 12.2713 105.601 12.2713 105.447C11.5043 104.987 10.8907 104.373 10.584 103.76C10.4306 103.606 10.4306 103.3 10.4306 103.146C10.2772 103.3 10.2772 103.453 10.2772 103.606C9.97041 103.606 9.97041 104.067 9.81702 104.987Z" fill="#1CD0C5"/>
<path d="M17.3331 71.7004C17.4865 72.1605 17.6399 72.4673 17.7933 72.7741C18.1001 72.6207 18.4069 72.4673 18.7136 72.3139C19.0204 72.1605 19.4806 72.0071 19.7874 72.0071C20.5543 71.8538 21.3213 71.8538 22.2416 72.0071C22.395 72.0071 22.5484 71.8538 22.5484 71.7004C22.5484 71.547 22.395 71.3936 22.2416 71.3936C21.3213 71.2402 20.5543 71.0868 19.634 71.2402C19.1738 71.2402 18.7136 71.3936 18.2535 71.3936C18.1001 71.3936 17.7933 71.547 17.3331 71.7004Z" fill="#1996EE"/>
<path d="M27.3035 68.7859C27.3035 68.6325 27.4569 68.4791 27.4569 68.1723C27.4569 68.019 27.6103 67.7122 27.6103 67.5588C27.7637 67.0986 27.9171 66.7918 28.0705 66.3316C28.5306 65.5646 28.9908 64.9511 29.6044 64.3375C30.2179 63.7239 30.8315 63.4171 31.5984 63.2637C31.7518 63.2637 31.9052 63.1103 32.212 63.1103H32.8256H33.4391C33.5925 63.1103 33.8993 63.1103 34.0527 63.1103C35.74 63.2637 37.4273 64.0307 38.8078 65.2579C40.1883 66.485 41.1086 68.1723 41.7222 70.0131C41.8756 70.1665 42.029 70.3199 42.1824 70.3199C42.3358 70.3199 42.4891 70.0131 42.4891 69.8597C42.029 67.8656 41.262 66.0248 39.8815 64.3375C39.1146 63.5705 38.3476 62.8035 37.4273 62.3434C36.5069 61.7298 35.4332 61.423 34.3595 61.2696C34.0527 61.2696 33.7459 61.1162 33.5925 61.1162H32.8256H32.0586C31.7518 61.1162 31.445 61.1162 31.1383 61.1162C29.9111 61.2696 28.8374 61.7298 27.9171 62.4968C26.9967 63.2637 26.2298 64.0307 25.6162 64.9511C25.3094 65.4113 25.0027 65.8714 24.6959 66.3316C24.5425 66.6384 24.3891 66.7918 24.3891 67.0986C24.2357 67.4054 24.2357 67.5588 24.0823 67.8656C23.7755 68.7859 24.2357 69.7063 25.1561 70.0131C26.0764 70.3199 26.9967 69.8597 27.3035 68.9393C27.3035 68.9393 27.3035 68.7859 27.3035 68.7859Z" fill="#8D67C3"/>
<path d="M16.1061 63.1103C17.64 62.6502 19.4807 62.8035 21.0146 63.1103C21.168 63.1103 21.4747 62.9569 21.4747 62.8035C21.4747 62.6502 21.4747 62.3434 21.168 62.3434C20.0942 62.0366 19.0205 61.8832 17.9468 61.8832C17.3332 61.8832 16.7196 61.8832 16.1061 62.0366C16.1061 62.3434 16.1061 62.8035 16.1061 63.1103Z" fill="#19B4EE"/>
<path d="M22.2416 56.6678C22.395 56.6678 22.5484 56.6678 22.5484 56.5144C23.162 55.4406 23.9289 54.5203 24.6959 53.5999C25.0027 53.2931 25.4628 52.8329 25.7696 52.5261C25.3095 52.5261 24.8493 52.6795 24.3891 52.6795C24.2357 52.8329 24.2357 52.9863 24.0823 52.9863C23.3154 53.9067 22.7018 54.9804 22.0883 56.0542C22.0883 56.5144 22.0883 56.6678 22.2416 56.6678Z" fill="#F376A2"/>
<path d="M26.3831 58.5085C26.5365 58.6619 26.6899 58.5085 26.6899 58.5085C28.0704 57.1279 29.9111 56.0542 31.7518 55.4406C33.5925 54.827 35.5865 54.827 37.5806 55.1338C38.501 55.2872 39.5747 55.594 40.495 55.9008C41.4154 56.2076 42.3357 56.6678 43.256 56.9746C45.0967 57.8949 46.784 58.9687 48.4713 60.0424C48.6247 60.1958 48.9315 60.1958 49.0849 59.889C49.2383 59.7356 49.2383 59.4289 49.0849 59.2755C48.4713 58.6619 47.8578 58.2017 47.2442 57.7415C43.256 55.7474 38.6543 54.2135 34.206 53.2931C33.1323 53.4465 32.212 53.7533 31.2916 54.0601C29.2975 54.827 27.4569 56.2076 26.2297 58.0483C26.2297 58.2017 26.2297 58.5085 26.3831 58.5085Z" fill="#1CD0C5"/>
<path d="M96.3291 150.085C95.5621 150.699 94.7952 151.159 94.1816 151.772C95.102 154.687 96.3291 157.141 98.1698 158.215C98.3232 158.368 98.63 158.368 98.7833 158.368C99.2435 158.368 99.7037 158.215 99.8571 157.755C100.164 157.141 100.01 156.374 99.3969 156.067C98.0164 155.147 96.9427 152.999 96.3291 150.085Z" fill="#1CD0C5"/>
<path d="M87.2791 162.663C87.7392 162.817 88.1994 162.97 88.5062 163.124C88.3528 162.817 87.7392 162.51 87.2791 162.663Z" fill="#1CD0C5"/>
<path d="M40.9553 180.764C43.1028 185.979 45.2502 191.041 47.5511 196.103C47.7045 196.257 47.7045 196.563 47.8579 196.717C48.9316 196.717 50.0053 196.563 51.0791 196.41L50.1587 194.723C47.8579 189.967 45.2502 185.366 42.9494 180.764C42.3358 180.764 41.5689 180.764 40.9553 180.764Z" fill="#1CD0C5"/>
<path d="M47.2443 183.065C48.9315 186.133 51.3858 190.734 54.1468 195.95C55.2205 195.796 56.1409 195.49 57.0612 195.183C53.3799 190.121 50.0053 185.672 47.8578 182.604C47.551 182.298 46.9375 182.758 47.2443 183.065Z" fill="#4263A8"/>
<path d="M75.6215 172.787C77.3088 174.628 78.996 176.469 80.5299 178.156C82.3706 175.702 83.9045 173.247 85.285 170.947C84.0579 169.873 83.5978 168.952 83.9045 168.492C84.0579 168.032 85.285 167.879 86.9723 168.032C87.4325 167.112 87.8927 166.191 88.1995 165.424C87.4325 165.118 86.5122 164.657 85.7452 164.351C83.291 166.958 79.9164 170.026 75.6215 172.787Z" fill="#19B4EE"/>
<path d="M50.9257 180.764C54.4536 185.212 57.9816 189.661 61.663 193.649C63.3503 192.882 65.0376 192.115 66.5715 191.195C62.1231 187.36 58.2884 183.832 54.9138 180.457C53.5333 180.457 52.1528 180.61 50.9257 180.764Z" fill="#8D67C3"/>
<path d="M59.3621 179.537C63.3502 182.911 67.3383 185.979 70.5595 188.28C71.7867 187.36 72.8604 186.439 73.9341 185.519C72.0934 182.298 70.2528 179.383 68.4121 176.776C65.6511 177.849 62.5833 178.77 59.3621 179.537Z" fill="#F376A2"/>
<path d="M17.9467 194.109C19.9408 194.569 22.5484 195.183 25.6162 195.643C23.162 193.802 20.5544 192.115 17.9467 190.581C16.873 189.967 16.873 188.434 17.7933 187.82C19.0205 186.9 20.401 185.672 20.8612 184.138C21.7815 181.531 16.2594 177.696 11.0442 184.292V184.445C10.7374 188.894 13.4984 193.035 17.9467 194.109Z" fill="#1996EE"/>
<path d="M34.0527 180.304C35.74 181.071 37.1205 181.838 38.1943 182.604C39.1146 183.065 40.035 182.298 39.7282 181.377L39.4214 180.764C37.5807 180.61 35.74 180.457 34.0527 180.304Z" fill="#4263A8"/>
<path d="M12.578 178.309C12.578 178.463 12.7314 178.616 12.7314 178.616C12.7314 178.77 12.8848 178.77 13.0382 178.923C13.1916 179.076 13.1916 179.076 13.345 179.23C13.4984 179.383 13.6518 179.383 13.6518 179.537C14.2653 179.843 14.8789 179.843 15.3391 179.843C16.2594 179.69 17.0264 179.383 17.6399 178.923C18.2535 178.616 19.0204 178.309 19.4806 178.309C19.7874 178.309 19.9408 178.309 20.2475 178.463C20.5543 178.616 20.7077 178.77 20.8611 179.076C21.0145 179.23 21.3213 179.383 21.6281 179.23C21.7815 179.076 21.9348 178.77 21.7815 178.616C21.6281 178.463 21.6281 178.309 21.4747 178.156C20.4009 177.849 19.4806 177.542 18.5603 177.082C17.9467 177.236 17.4865 177.389 17.0264 177.542C16.2594 177.849 15.6458 178.156 15.0323 178.156C14.7255 178.156 14.5721 178.156 14.4187 178.003C14.2653 178.003 14.1119 177.696 13.9586 177.542C13.8052 177.389 13.8052 177.236 13.8052 177.082C13.8052 176.929 13.9585 176.622 14.1119 176.469C14.4187 176.162 14.7255 175.855 15.1857 175.548C14.5721 175.242 14.1119 174.935 13.4984 174.628C13.1916 174.781 13.0382 174.935 12.7314 175.242C12.4246 175.548 12.1179 176.008 11.9645 176.622C12.2713 177.082 12.2713 177.696 12.578 178.309Z" fill="#F376A2"/>
</svg>
