<svg width="90" height="198" viewBox="0 0 90 198" fill="none" xmlns="http://www.w3.org/2000/svg">
<path d="M87.1065 17.7174C81.431 5.75264 73.4547 0.537231 61.0301 0.537231C57.5022 0.537231 53.3606 0.997417 47.992 1.91778C33.1131 4.37209 24.5233 21.2455 20.6885 31.0627L20.3817 31.6763C20.075 32.4432 19.9216 32.9034 19.7682 33.3636C19.308 34.5908 19.308 35.9713 19.9216 37.1985C18.8478 38.4256 18.2343 39.8062 17.9275 41.3401V41.4935C17.7741 41.8003 17.7741 42.2605 17.7741 42.7207C17.6207 46.8623 19.6148 51.4641 23.1428 55.299C24.3699 56.6795 25.7504 57.7533 27.1309 58.5203C25.1368 62.6619 21.9156 70.0248 21.4555 71.0986C20.9953 72.1723 20.5351 73.2461 20.075 74.4733C19.6148 75.547 19.1546 76.6208 18.6945 77.8479C16.8538 82.2964 15.4733 86.1312 14.8597 88.5855L14.3995 90.1195L15.1665 91.6534C15.1665 91.8068 15.3199 91.9602 15.3199 91.9602V92.1136C14.0927 95.0281 15.78 100.09 20.2284 102.851C21.6089 103.772 22.9894 104.232 24.3699 104.539C22.6826 104.539 20.8419 104.692 19.308 104.999C19.1546 104.999 18.8478 104.999 18.6945 105.152H18.5411L17.9275 105.306C16.0868 105.766 13.6326 106.686 11.4851 108.373L10.5648 108.987L10.1046 109.907C9.64443 110.674 9.49104 111.441 9.49104 112.055C7.95714 114.202 7.65035 117.27 8.4173 120.492C7.19018 121.105 6.26985 122.179 5.80967 123.559L5.65629 123.866L4.88934 128.775L4.58255 130.616L1.97492 144.574C1.51475 146.415 2.2817 148.256 3.66221 149.483C2.58848 150.097 1.97492 151.17 1.66814 152.398L1.51474 152.858V153.165C1.51474 153.318 1.36136 153.625 1.36136 153.931C0.441016 158.993 -0.0191569 166.203 1.51474 169.884L1.66814 170.191C1.97492 170.651 2.43509 171.725 3.50882 172.492C5.04272 173.873 7.19018 174.486 9.18425 174.946C9.18425 175.253 9.18426 175.407 9.03087 175.713C8.87748 176.634 8.72409 177.708 8.5707 178.628C7.80375 183.997 6.73002 189.979 10.258 194.121C12.4055 196.575 15.6266 197.802 19.9216 197.802C27.2843 197.802 31.886 196.115 37.2547 194.274C39.5555 193.507 41.8564 192.587 44.6174 191.82C48.6055 190.593 53.3606 189.519 59.0361 188.752L62.4107 188.292C79.2836 185.071 82.3514 177.247 82.8115 174.026C82.9649 172.799 82.9649 171.418 82.6582 170.345C83.2717 170.038 83.7319 169.578 84.1921 168.964C84.959 167.89 85.2658 166.51 85.1124 165.283C84.1921 150.864 84.8056 126.781 85.1124 117.117C85.1124 116.657 85.1124 116.503 85.1124 116.503C85.1124 115.276 84.6522 114.049 84.0387 113.282C85.2658 112.208 85.8793 110.674 85.8793 108.834C85.8793 107.146 85.2658 105.612 84.1921 104.539C84.1921 104.232 83.8853 103.311 83.8853 103.311C83.8853 103.158 83.8853 103.005 83.8853 102.851C83.8853 102.544 83.7319 102.084 83.7319 101.777C83.7319 101.317 83.5785 100.397 83.5785 99.7833V99.4765V99.3231C83.4251 97.7892 83.2717 96.4086 83.2717 95.1815V95.0281V94.8747C83.1183 93.4942 83.1183 92.1136 83.1183 90.5797V90.4263C82.9649 87.205 82.9649 83.8303 82.9649 80.4556V71.5588C82.9649 68.3375 82.9649 65.423 83.1183 62.2017V62.0483C83.1183 60.8212 83.1183 59.594 83.1183 58.2135C83.1183 56.8329 83.2717 55.4524 83.2717 54.2252C83.2717 51.0039 83.4251 47.6293 83.5785 44.2546C83.8853 44.2546 84.0387 44.2546 84.3454 44.2546C87.2599 44.2546 89.5607 41.9537 89.5607 39.0392C89.8675 28.9152 88.9472 22.1658 87.1065 17.7174Z" fill="white"/>
<path d="M6.26983 145.341C6.11644 145.802 6.57661 146.262 7.03678 146.415H7.19017C7.65034 146.415 7.95712 146.108 8.11051 145.648L10.7181 130.769L11.0249 129.388L11.7919 125.093C11.9453 124.633 11.4851 124.173 11.0249 124.02C10.5648 123.866 10.1046 124.326 9.95118 124.787L9.18423 129.235L8.87746 131.229L6.26983 145.341ZM79.2836 165.589C79.2836 166.05 79.7437 166.356 80.2039 166.356C80.6641 166.356 81.1242 165.896 80.9708 165.436C79.7437 147.949 80.9708 116.35 80.9708 116.043C80.9708 115.583 80.6641 115.123 80.0505 115.123C79.5903 115.123 79.1302 115.429 79.1302 115.89C79.2836 116.35 78.0564 148.102 79.2836 165.589ZM19.7682 90.5796C20.3817 90.5796 20.6885 90.2728 20.8419 89.966C21.4555 87.5117 22.9894 83.5235 24.6767 79.075C25.2902 77.3877 26.0572 75.7004 26.8241 74.013C30.1987 66.3433 33.5733 59.1338 33.5733 58.9804C33.7267 58.5202 33.5733 58.06 33.1131 57.7532C32.6529 57.5998 32.1928 57.7532 31.886 58.2134C31.5792 58.6736 28.5114 65.423 25.2902 72.7859C24.3699 74.9334 23.4495 77.2343 22.5292 79.3818C20.8419 83.5235 19.4614 87.3583 18.8478 89.6593C19.0012 89.966 19.308 90.4262 19.7682 90.5796ZM24.3699 35.9713C24.83 36.1246 25.2902 35.8179 25.4436 35.3577C25.4436 35.3577 25.597 35.0509 25.7504 34.5907C26.3639 32.9034 27.8978 28.7617 30.5055 24.1599C31.119 23.0861 31.886 21.859 32.6529 20.7852C36.4877 14.9562 41.8563 9.28065 48.7589 8.0535C65.4784 5.13901 74.6818 6.36616 81.431 20.4784C82.9649 23.6997 83.7319 29.8355 83.4251 38.4256C83.4251 38.8857 83.7319 39.3459 84.3454 39.3459C84.8056 39.3459 85.2658 39.0391 85.2658 38.4256C85.4192 29.3753 84.6522 23.0861 83.1183 19.5581C75.909 4.37203 65.7852 3.14488 48.6055 6.05937C34.9538 8.36028 27.1309 26.154 24.6767 32.4432C24.2165 33.6703 23.9097 34.4373 23.9097 34.5907C23.6029 35.2043 23.9097 35.8179 24.3699 35.9713ZM75.909 89.8126C75.909 90.1194 75.909 90.5796 75.909 90.8864C75.909 91.5 75.909 91.9602 75.909 92.5737C75.909 94.8747 76.0624 97.1756 76.2157 99.4765C76.3691 101.164 76.5225 102.698 76.6759 104.385C76.8293 105.152 76.9827 106.072 77.1361 106.993C77.2895 107.453 77.4429 107.913 77.7496 108.373C77.903 108.68 78.0564 108.987 78.3632 109.294C78.5166 109.447 78.67 109.6 78.9768 109.754C79.2835 109.907 79.5903 110.061 80.0505 110.061C80.9708 110.061 81.7378 109.294 81.7378 108.373C81.7378 107.606 81.2776 106.993 80.6641 106.839C80.5107 106.686 80.5107 106.379 80.3573 106.072C80.2039 105.459 80.0505 104.692 79.8971 103.925C79.7437 103.311 79.7437 102.851 79.5903 102.238C79.4369 101.317 79.2836 100.243 79.2836 99.3231V99.1697C79.1302 97.6357 78.9768 96.1018 78.9768 94.5679C78.8234 93.0339 78.8234 91.5 78.8234 89.966V89.8126C78.67 86.438 78.67 83.0633 78.67 79.6886C78.67 78.4615 78.67 77.0809 78.67 75.8538C78.67 74.1664 78.67 72.4791 78.67 70.7918C78.67 67.5705 78.67 64.5026 78.8234 61.2813C78.8234 58.6736 78.9768 56.0659 78.9768 53.4582C79.1302 46.4021 79.2835 39.4993 79.5903 32.4432C79.5903 32.1364 79.2835 31.8296 78.9768 31.8296C78.67 31.8296 78.3632 32.1364 78.3632 32.4432C77.903 39.4993 77.4429 46.7089 77.1361 53.765C76.9827 55.2989 76.9827 56.8329 76.9827 58.5202C76.8293 62.6619 76.6759 66.8035 76.5225 70.9451C76.5225 72.1723 76.3691 73.3995 76.3691 74.6266C76.3691 75.7004 76.3691 76.6207 76.3691 77.6945C75.909 81.376 75.909 85.671 75.909 89.8126ZM5.50288 168.044C5.65627 168.351 5.80965 168.657 6.11643 168.811C7.49694 170.191 10.258 170.498 11.9453 170.651C12.8656 170.651 13.6326 171.418 13.6326 172.492C13.6326 173.566 13.4792 174.793 13.3258 176.02C12.252 184.15 9.33763 193.2 20.0749 193.2C29.4317 193.2 34.0334 190.132 43.5436 187.371C47.5318 186.144 52.2869 185.07 58.5759 184.15C59.6496 183.997 60.7233 183.843 61.7971 183.69C80.2039 180.162 81.5844 170.498 75.6022 167.277C69.3132 163.902 72.381 158.073 65.6318 139.973C58.8827 121.872 43.8504 130.002 37.8682 144.881C31.886 159.76 20.0749 168.35 12.5588 166.05C8.2639 164.822 7.19017 158.993 7.03678 154.085C7.03678 153.778 7.03678 153.625 7.03678 153.471C7.03678 152.704 5.96304 152.704 5.80965 153.318C5.80965 153.625 5.65627 154.085 5.65627 154.392C4.58254 160.221 4.58254 165.896 5.50288 168.044ZM13.7859 112.362L13.9393 112.515H14.0927C14.8597 112.055 15.6266 111.748 16.3936 111.441C17.1605 111.134 17.9275 110.981 18.8478 110.828C19.1546 110.828 19.308 110.674 19.6148 110.674C20.9953 110.521 22.5292 110.367 23.9097 110.214C25.2902 110.214 26.6707 110.214 28.0512 110.214C28.358 110.214 28.6648 110.214 29.125 110.214C30.0453 110.214 30.8123 110.367 31.7326 110.367C32.6529 110.367 33.4199 110.521 34.3402 110.521C34.4936 110.521 34.647 110.367 34.647 110.214C34.647 110.061 34.4936 109.907 34.4936 109.907C32.8063 109.447 31.119 109.14 29.2784 108.987C29.125 108.987 28.9716 108.987 28.8182 108.987C28.5114 108.987 28.2046 108.987 28.0512 108.987C26.6707 108.834 25.4436 108.834 24.0631 108.834C22.5292 108.834 20.9953 108.987 19.6148 109.294C19.308 109.294 19.1546 109.447 18.8478 109.447C17.1605 109.907 15.4732 110.521 13.9393 111.748C13.7859 112.055 13.7859 112.208 13.7859 112.362ZM18.3876 124.633C20.8419 124.94 25.7504 124.787 30.8123 123.866C31.4258 123.713 31.886 123.713 32.4995 123.559C33.8801 123.253 35.1072 122.946 36.3343 122.486C40.936 121.105 44.464 118.958 44.7708 115.89C45.3843 109.447 34.9538 111.748 30.0453 112.515C29.4317 112.668 28.9716 112.668 28.5114 112.668C24.6767 112.975 14.7063 112.515 13.1724 114.202C11.1783 116.503 12.5588 123.713 18.3876 124.633ZM22.3758 99.1697C23.2961 99.7833 24.3699 100.09 25.7504 100.397C26.5173 100.55 27.2843 100.55 28.2046 100.55C32.6529 100.55 36.3343 99.6299 38.9419 98.4027C39.5555 98.0959 40.0157 97.7891 40.4758 97.4824C41.5496 96.562 42.1631 95.6416 42.0097 94.5679C41.703 92.5737 38.3284 92.1136 31.4258 90.733C28.9716 90.2728 26.8241 90.2728 24.9834 90.5796C24.0631 90.733 23.2961 91.0398 22.5292 91.3466C20.6885 92.1136 19.4614 93.0339 19.1546 93.6475C18.8478 94.4145 19.4614 97.329 22.3758 99.1697ZM32.4995 55.9125C36.7945 55.9125 35.2606 47.3224 37.7148 47.3224C40.1691 47.3224 39.7089 54.2252 38.6352 60.9745C38.0216 65.1162 38.6352 71.0985 39.4021 75.0868C39.5555 76.0072 40.7826 76.0072 41.0894 75.0868C46.1513 55.1455 58.1157 52.231 65.325 50.6971C65.4784 50.6971 65.6318 50.5437 65.7852 50.5437C68.6996 49.9301 70.8471 49.47 70.8471 47.936C71.1539 43.641 65.1717 37.812 58.7293 34.5907C58.1157 34.2839 57.5021 33.9771 56.8886 33.6703C54.281 32.5966 51.8267 31.983 49.5259 31.983C47.225 31.983 44.0038 32.2898 40.7826 32.9034C39.2487 33.2102 37.8682 33.5169 36.3343 33.8237C33.5733 34.4373 30.8123 35.3577 28.5114 36.4314C24.9834 37.9654 22.5292 39.8061 22.069 42.107C22.069 42.4138 21.9156 42.5672 21.9156 42.874C21.6088 48.703 28.358 55.9125 32.4995 55.9125Z" fill="#1E1C31"/>
<path d="M56.8887 33.8237C56.8887 33.9771 56.8887 33.9771 56.8887 34.1305C56.8887 34.2839 56.8887 34.4373 56.8887 34.5907C57.0421 35.2043 57.1954 35.6645 57.3488 36.1246C57.3488 36.278 57.3488 36.278 57.5022 36.278C57.809 36.7382 58.1158 37.3518 58.4226 37.812C58.7293 38.2722 59.0361 38.7323 59.4963 39.1925C59.9565 39.6527 60.57 39.6527 61.0302 39.3459C61.4904 38.8857 61.4904 38.2722 61.1836 37.812C61.1836 37.812 61.1836 37.812 61.0302 37.6586C60.7234 37.5052 60.57 37.1984 60.2632 36.8916C60.1099 36.7382 60.1099 36.7382 59.9565 36.5848C59.6497 36.278 59.3429 35.8179 59.0361 35.3577C58.8827 35.0509 58.7293 34.8975 58.576 34.5907C58.1158 34.4373 57.5022 34.1305 56.8887 33.8237Z" fill="#64F6F3"/>
<path d="M22.6826 79.2285C23.2962 79.3819 23.9097 79.0751 24.6767 78.9217C25.2903 77.2344 26.0572 75.5471 26.8242 73.8597C26.364 73.3995 25.9038 72.9394 25.4437 72.6326C24.5233 74.9335 23.603 77.081 22.6826 79.2285Z" fill="#19B4EE"/>
<path d="M5.50293 154.392C5.9631 154.238 6.42326 154.238 6.88343 154.085C6.88343 153.778 6.88343 153.625 6.88343 153.471C6.88343 152.704 5.80971 152.704 5.65632 153.318C5.50293 153.625 5.50293 153.932 5.50293 154.392Z" fill="#1996EE"/>
<path d="M30.1987 112.668C31.7326 116.043 33.8801 119.725 36.4877 122.639C41.0894 121.259 44.6174 119.111 44.9242 116.043C45.5377 109.754 35.1072 111.901 30.1987 112.668Z" fill="#8D67C3"/>
<path d="M28.8182 109.14C28.9716 109.447 29.125 109.907 29.2784 110.214C30.1988 110.214 30.9657 110.367 31.886 110.367C32.8064 110.367 33.5733 110.521 34.4937 110.521C34.6471 110.521 34.8005 110.367 34.8005 110.214C34.8005 110.061 34.6471 109.907 34.6471 109.907C32.9598 109.447 31.2725 109.14 29.4318 108.987C29.125 109.14 28.9716 109.14 28.8182 109.14Z" fill="#8D67C3"/>
<path d="M8.87744 131.076C9.491 130.922 10.258 130.769 10.7181 130.616L11.0249 129.235C10.5647 129.082 9.95118 129.235 9.33762 129.082L8.87744 131.076Z" fill="#19B4EE"/>
<path d="M22.3759 99.1697C23.2962 99.7832 24.3699 100.09 25.7504 100.397C25.2903 96.8688 25.1369 93.0339 24.9835 90.5796C24.0631 90.733 23.2962 91.0398 22.5292 91.3466C22.6826 94.5678 22.6826 97.1755 22.3759 99.1697Z" fill="#1CD0C5"/>
<path d="M19.4614 109.907C19.4614 110.214 19.6148 110.368 19.7682 110.674C21.1487 110.521 22.6826 110.368 24.0631 110.214C25.4437 110.214 26.8242 110.214 28.2047 110.214C28.2047 109.907 28.0513 109.447 28.0513 108.987C26.6708 108.834 25.4437 108.834 24.0631 108.834C22.5292 108.834 20.9953 108.987 19.6148 109.294C19.4614 109.601 19.4614 109.754 19.4614 109.907Z" fill="#1CD0C5"/>
<path d="M75.909 92.5738C76.0624 93.034 76.5226 93.4942 76.9827 93.6476C77.1361 93.6476 77.2895 93.801 77.4429 93.801C77.4429 93.801 77.5963 93.801 77.7497 93.9544L78.0565 94.1078C78.2098 94.2612 78.5166 94.2612 78.67 94.4146H78.8234C78.67 92.8806 78.67 91.3467 78.67 89.8127V89.6593C77.5963 89.3526 76.3692 89.8127 75.909 90.8865C75.909 90.8865 75.909 90.8865 75.909 91.0399C75.7556 91.5001 75.7556 92.1137 75.909 92.5738Z" fill="#1CD0C5"/>
<path d="M30.8123 123.866C31.4258 123.713 31.886 123.713 32.4995 123.559C32.9597 122.332 32.9597 120.798 32.3462 118.958C32.1928 118.651 31.7326 118.344 31.4258 118.497C31.119 118.651 30.8123 119.111 30.9656 119.418C31.5792 121.412 31.2724 122.946 30.8123 123.866Z" fill="#8D67C3"/>
<path d="M6.11646 168.811C7.49697 170.191 10.258 170.498 11.9453 170.652C12.8656 170.652 13.6326 171.418 13.6326 172.492C13.6326 173.566 13.4792 174.793 13.3258 176.02C15.3199 176.174 17.3139 176.327 19.6148 176.327C27.8979 176.787 36.3343 180.162 42.0098 185.377C42.6233 185.991 43.2369 186.605 43.6971 187.372C47.6852 186.144 52.4403 185.071 58.7293 184.15C59.803 183.997 60.8768 183.843 61.9505 183.69C61.3369 177.554 71.9209 171.572 67.9327 169.271C62.4107 166.203 52.2869 173.259 43.2369 173.719C34.1869 174.18 19.6148 169.578 14.2461 168.504C11.0249 167.737 7.95714 167.89 6.11646 168.811Z" fill="#19B4EE"/>
<path d="M39.0953 98.4027C39.7089 98.0959 40.1691 97.7891 40.6292 97.4824C40.3225 97.329 40.0157 97.329 39.7089 97.4824C39.2487 97.7891 39.0953 98.0959 39.0953 98.4027Z" fill="#1CD0C5"/>
<path d="M59.8031 164.976C58.1158 167.123 47.8386 165.743 45.8446 163.135C44.0039 160.834 42.6234 158.993 45.3844 157.153C48.2988 155.159 57.6556 159.3 58.8827 160.374C59.8031 161.294 60.8768 163.442 59.8031 164.976Z" fill="#8D67C3"/>
<path d="M48.9123 43.1808C50.753 41.9536 52.5936 40.8798 54.2809 40.4197C55.0479 40.2663 55.8148 40.2663 56.5818 40.2663C56.7352 40.2663 56.7352 40.2663 56.8886 40.2663H57.1954C57.5021 40.2663 57.6555 40.4197 57.9623 40.4197C58.4225 40.5731 58.8827 40.7264 59.3428 40.8798C61.1835 41.4934 62.8708 42.4138 63.9445 43.9477C64.5581 44.7147 65.0183 45.4817 65.325 46.5554C65.6318 47.4758 65.9386 48.5496 66.092 49.6233C66.092 49.9301 66.3988 50.0835 66.7055 50.0835C66.8589 50.0835 67.0123 49.9301 67.1657 49.7767C67.3191 49.1631 67.4725 48.5496 67.6259 47.936C67.7793 47.3224 67.7793 46.7088 67.7793 46.0952C67.7793 44.8681 67.4725 43.4875 66.8589 42.2604C66.2454 41.0332 65.325 39.9595 64.4047 39.0391C63.331 38.1187 62.2572 37.5052 61.0301 37.045C60.4165 36.7382 59.803 36.5848 59.1894 36.4314C58.8827 36.278 58.5759 36.278 58.2691 36.1246L57.8089 35.9712C57.6555 35.9712 57.5021 35.9712 57.3487 35.8178C55.8148 35.511 54.2809 35.8178 52.9004 36.278C51.5199 36.8916 50.4462 37.812 49.6792 38.7323C49.2191 39.1925 48.9123 39.8061 48.6055 40.4197C48.2987 41.0332 48.1453 41.4934 47.9919 42.2604C47.9919 42.5672 48.1453 42.874 48.4521 43.0274C48.4521 43.3342 48.6055 43.3341 48.9123 43.1808Z" fill="#19B4EE"/>
<path d="M36.4877 33.9771C36.7945 34.7441 37.2546 35.5111 37.5614 36.278C38.0216 37.1984 38.4817 37.9654 39.4021 38.8857C39.8623 39.3459 40.3224 39.8061 40.936 40.1129C41.5496 40.4197 42.3165 40.7265 42.9301 40.5731C43.0834 40.5731 43.0835 40.5731 43.2368 40.5731H43.3902H43.8504C44.1572 40.5731 44.464 40.4197 44.6174 40.4197C45.0775 40.2663 45.6911 39.9595 46.1513 39.6527C46.6114 39.3459 46.9182 38.8857 47.225 38.4256C47.3784 38.1188 47.5318 37.9654 47.5318 37.6586C47.6852 37.3518 47.6852 37.1984 47.8385 36.8916C47.9919 36.5848 47.6852 36.278 47.3784 36.1246C47.0716 35.9713 46.9182 36.1246 46.7648 36.278L46.6114 36.4314C46.458 36.5848 46.3046 36.7382 46.3046 36.7382C46.1513 36.8916 45.9979 37.045 45.8445 37.045C45.5377 37.1984 45.2309 37.3518 44.9241 37.5052C44.6174 37.6586 44.3106 37.6586 44.0038 37.6586C43.8504 37.6586 43.697 37.6586 43.5436 37.6586H43.2368H43.0835C43.0835 37.6586 43.0834 37.6586 42.9301 37.6586C42.7767 37.6586 42.6233 37.5052 42.4699 37.3518C42.3165 37.1984 42.1631 37.045 42.0097 36.7382C41.7029 36.278 41.3962 35.5111 41.2428 34.7441C41.0894 34.1305 40.936 33.6703 40.7826 33.0568C39.4021 33.2102 37.8682 33.5169 36.4877 33.9771Z" fill="#8D67C3"/>
<path d="M30.3521 24.3134C30.9657 23.2396 31.7326 22.0125 32.4996 20.9387C32.4996 20.9387 32.3462 20.9387 32.3462 21.0921C31.886 21.3989 31.5792 21.8591 31.2724 22.3193C30.9657 22.7794 30.6589 23.0862 30.3521 23.5464C30.1987 23.6998 30.1987 24.0066 30.3521 24.3134Z" fill="#19B4EE"/>
<path d="M25.4436 35.3578C25.4436 35.3578 25.597 35.051 25.7504 34.5908C25.1368 33.9772 24.8301 33.3636 24.5233 32.5967C24.0631 33.8238 23.7563 34.5908 23.7563 34.7442C23.6029 35.2044 23.9097 35.6646 24.3699 35.818C24.8301 36.1247 25.2902 35.818 25.4436 35.3578Z" fill="#F376A2"/>
<path d="M22.0691 42.7207C29.125 47.1691 32.4996 43.0275 33.5734 47.7827C33.5734 48.0895 34.0335 48.2429 34.1869 47.9361C35.1073 47.0157 36.9479 44.7148 35.8742 41.4935C34.9539 38.8858 31.5793 37.8121 28.6649 36.4315C25.1369 37.9655 22.6827 39.8062 22.2225 42.1071C22.0691 42.2605 22.0691 42.5673 22.0691 42.7207Z" fill="#F376A2"/>
<path d="M76.6759 58.2135C76.9827 58.0602 77.2895 57.9068 77.4429 57.7534C78.5166 57.2932 78.67 58.0602 78.5166 58.3669C78.5166 58.6737 78.5166 58.9805 78.3632 59.4407C78.3632 60.0543 78.3632 60.5145 78.5166 61.128C78.5166 58.5203 78.67 55.9126 78.67 53.3049C78.3632 53.3049 78.0564 53.3049 77.7496 53.3049C77.4429 53.3049 76.9827 53.4583 76.8293 53.4583C76.8293 54.9923 76.6759 56.5262 76.6759 58.2135Z" fill="#1CD0C5"/>
<path d="M75.9091 77.2344C76.5226 78.3081 77.443 79.0751 78.5167 79.3819C78.5167 78.1547 78.5167 76.7742 78.5167 75.547C77.443 75.2403 76.676 74.6267 76.0625 74.1665C76.0625 75.2403 76.0624 76.314 75.9091 77.2344Z" fill="#8D67C3"/>
<path d="M78.3632 100.704C78.8234 101.01 79.2835 101.777 79.7437 102.238C79.5903 101.317 79.4369 100.243 79.4369 99.3231V99.1697C78.3632 98.4027 77.2895 98.4027 76.8293 98.8629C76.2157 99.4765 77.5962 100.09 78.3632 100.704Z" fill="#1996EE"/>
<path d="M65.1716 50.8505C65.325 50.8505 65.4784 50.6971 65.6318 50.6971C65.6318 50.6971 65.325 50.6971 65.1716 50.8505Z" fill="#4263A8"/>
<path d="M42.0098 163.902C41.8564 166.51 34.1869 169.271 31.7327 168.351C29.125 167.43 27.7445 164.669 28.8183 162.982C29.7386 161.294 36.9479 158.073 39.0954 159.147C41.0894 160.221 42.1632 162.522 42.0098 163.902Z" fill="#4263A8"/>
</svg>
