<svg width="119" height="212" viewBox="0 0 119 212" fill="none" xmlns="http://www.w3.org/2000/svg">
<path d="M86.5889 30.6319C86.5889 31.2455 86.5889 31.7057 86.5889 32.3192C86.1287 32.4726 85.6685 32.4726 85.2084 32.626C84.9016 32.626 84.5948 32.626 84.288 32.626C83.9812 32.626 83.6745 32.626 83.3677 32.626C82.1406 32.626 80.9134 32.3192 79.8397 32.0124C78.766 31.7057 77.6922 31.2455 76.6185 30.6319C76.4651 30.4785 76.3118 30.3251 76.4652 30.0183C76.6185 29.8649 76.7719 29.7115 76.9253 29.8649C77.999 30.1717 79.0728 30.4785 80.1465 30.6319C81.2202 30.7853 82.294 30.9387 83.3677 30.9387C84.4414 31.0921 85.5151 30.9387 86.5889 30.6319C86.5889 30.6319 86.4355 30.6319 86.5889 30.6319Z" fill="#1996EE"/>
<path d="M86.2822 39.6821C85.9754 43.8238 85.5153 47.9654 84.9017 51.9537C83.5212 50.7265 82.6009 48.7324 83.2145 47.0451C84.1348 44.5907 82.1407 41.983 84.4415 40.6025C85.2085 40.2957 85.8221 39.9889 86.2822 39.6821Z" fill="#F376A2"/>
<path d="M83.9813 56.0954C84.1347 55.942 84.1347 55.7886 84.2881 55.7886C83.9813 57.7827 83.6746 59.7768 83.2144 61.6176C82.7542 59.9302 83.3678 56.8623 83.9813 56.0954Z" fill="#1996EE"/>
<path d="M82.6008 65.1456C82.4474 65.6058 82.4474 65.9126 82.294 66.2194C81.8338 68.6737 81.0669 71.128 80.1465 73.7357C79.8397 73.8891 79.5329 73.8891 79.3796 73.8891C78.4592 73.8891 77.8456 73.4289 76.7719 73.4289C75.6982 73.2755 74.7778 70.0542 74.7778 70.0542L76.0049 68.2135C76.0049 68.2135 75.3914 66.6796 76.7719 66.6796C78.1524 66.6796 79.5329 68.3669 80.6067 68.2135C81.527 68.0601 81.527 65.9126 82.6008 65.1456Z" fill="#4263A8"/>
<path d="M88.1227 72.662C86.5888 72.5086 85.0549 72.3552 83.9812 72.662C84.1346 72.0484 84.4414 71.5882 84.5947 70.9746C85.2083 69.1339 87.9693 69.4407 88.1227 71.4348C87.9693 71.895 88.1227 72.3552 88.1227 72.662Z" fill="#4263A8"/>
<path d="M86.4354 27.8708C86.282 27.8708 86.282 28.0242 86.1286 28.0242C84.9015 28.0242 84.7481 24.9563 83.9812 24.4961C83.2143 23.8825 82.1405 26.1835 80.6066 25.7233C79.0727 25.4165 79.0727 21.8884 80.4532 20.5079C82.1405 18.8205 84.7481 20.3545 84.7481 21.4282C84.7481 22.3486 84.288 23.8825 85.3617 23.8825C85.6685 23.8825 85.8219 23.7291 86.1286 23.5757C86.282 24.9563 86.4354 26.4902 86.4354 27.8708Z" fill="#4263A8"/>
<path d="M85.0549 17.5935C84.9016 17.5935 84.9016 17.4401 85.0549 17.5935C84.9016 17.4401 84.9016 17.2867 84.9016 17.1333C84.9016 17.2867 84.9016 17.4401 85.0549 17.5935Z" fill="#F376A2"/>
<path d="M84.288 15.7527C84.1346 15.7527 83.9813 15.5993 83.8279 15.5993C83.5211 15.5993 83.5211 15.2925 83.5211 14.9857C83.5211 14.8324 83.6745 14.679 83.9813 14.679C84.1347 14.9857 84.288 15.2925 84.288 15.7527Z" fill="#8D67C3"/>
<path d="M80.9134 10.3839C81.2202 10.5373 81.3736 10.844 81.6804 10.9974C81.8338 11.3042 82.1405 11.4576 82.2939 11.7644C82.4473 12.0712 82.6007 12.378 82.6007 12.6848C82.7541 12.9916 82.7541 13.2984 82.7541 13.6051C82.7541 13.9119 82.6007 14.2187 82.1405 14.3721C81.8337 14.3721 81.5269 14.2187 81.3736 13.7585V13.6051C81.3736 13.2984 81.3736 13.145 81.3736 12.8382C81.3736 12.5314 81.3735 12.378 81.2201 12.0712C81.2201 11.7644 81.0668 11.611 80.9134 11.3042C80.76 11.1508 80.6066 10.844 80.4532 10.6907C80.2998 10.5373 80.2998 10.3839 80.4532 10.2305C80.6066 10.3839 80.76 10.3839 80.9134 10.3839Z" fill="#1CD0C5"/>
<path d="M79.3796 15.446C79.2262 15.7527 79.0728 16.2129 79.2262 16.6731C79.2262 16.8265 79.3796 16.9799 79.5329 17.1333C79.6863 17.2867 79.8397 17.2867 79.9931 17.4401C80.2999 17.5935 80.76 17.5935 81.2202 17.5935C81.6804 17.5935 82.1405 17.4401 82.4473 17.1333C82.6007 17.1333 82.7541 17.1333 82.9075 17.2867C82.9075 17.4401 82.9075 17.5935 82.7541 17.5935C82.2939 17.9003 81.8338 18.0537 81.3736 18.207C80.9134 18.3604 80.2999 18.3604 79.8397 18.0537C79.5329 17.9003 79.3795 17.7469 79.0728 17.5935C78.9194 17.4401 78.766 17.1333 78.6126 16.8265C78.4592 16.2129 78.766 15.7527 78.9194 15.2926C79.0727 15.1392 79.2262 15.1392 79.3796 15.1392C79.3796 15.1392 79.5329 15.2926 79.3796 15.446Z" fill="#19B4EE"/>
<path d="M80.6066 13.7585C80.6066 13.9119 80.6066 13.9119 80.6066 13.7585C80.4532 14.0653 80.2999 14.0653 80.1465 14.0653C79.6863 13.9119 79.2261 13.6051 78.766 13.1449C78.3058 12.8381 77.999 12.2246 77.999 11.611C77.999 10.9974 78.3058 10.3838 78.6126 9.92366C78.6126 9.92366 78.6126 9.77026 78.766 9.77026C79.0728 9.92366 79.3795 9.92366 79.6863 10.0771C79.6863 10.0771 79.6863 10.0771 79.8397 10.0771C79.6863 10.2304 79.6863 10.2304 79.5329 10.3838C79.2261 10.6906 79.0727 11.1508 79.0727 11.4576C79.0727 11.7644 79.2261 12.2246 79.3795 12.5314C79.6863 12.8381 79.9931 13.1449 80.4532 13.4517C80.4532 13.6051 80.6066 13.7585 80.6066 13.7585Z" fill="#1996EE"/>
<path d="M77.3854 12.9915C77.5388 13.1449 77.3855 13.2983 77.2321 13.4517C77.0787 13.4517 76.9253 13.4517 76.9253 13.4517C76.6185 13.1449 76.3117 12.8382 76.1583 12.378C76.0049 11.9178 75.8516 11.4576 76.0049 10.9974C76.0049 10.5372 76.3117 10.0771 76.4651 9.77026C76.9253 9.77026 77.3855 9.77026 77.8456 9.77026C77.3855 10.2304 77.0787 10.6906 77.0787 11.3042C76.9253 11.611 77.0787 12.2246 77.3854 12.9915Z" fill="#F376A2"/>
<path d="M19.5574 138.315C19.5574 138.775 19.0973 139.082 18.6371 139.235C17.7167 139.235 16.7964 139.235 16.0294 139.235C16.643 138.161 17.8701 138.008 19.5574 138.315Z" fill="#1996EE"/>
<path d="M88.7363 90.6091C87.5092 90.9159 86.4354 91.2227 85.2083 91.6829C82.2939 92.7566 79.5329 94.1372 77.2321 95.9779C77.0787 96.1313 76.7719 96.1313 76.6185 95.8245C76.4651 95.6711 76.6185 95.5177 76.7719 95.3643C80.2998 92.4498 84.288 90.4557 88.7363 89.382C88.7363 89.8421 88.7363 90.1489 88.7363 90.6091Z" fill="#1CD0C5"/>
<path d="M83.061 137.394C82.6008 137.548 82.294 137.548 81.8339 137.548C81.5271 135.707 81.2203 133.866 81.0669 132.025C81.0669 131.872 81.2203 131.565 81.3737 131.565C81.527 131.565 81.8339 131.719 81.8339 131.872C82.1406 133.713 82.6008 135.554 83.061 137.394Z" fill="#F376A2"/>
<path d="M92.111 162.704L91.6508 162.858C91.4974 162.858 91.1906 163.011 91.0373 163.011C90.7305 163.011 90.577 163.011 90.4237 162.858C90.2703 162.858 89.9635 162.704 89.9635 162.551C89.6567 162.398 89.3499 162.091 89.1966 161.937C88.7364 161.477 88.4296 161.017 88.1228 160.557C87.5092 159.636 87.2025 158.716 86.7423 157.796C86.2821 156.875 85.9754 155.955 85.6686 155.035C84.4415 151.2 83.5211 147.365 82.7541 143.53C82.6007 143.07 82.6008 142.61 82.4474 142.15C82.9076 141.996 83.3677 141.843 83.9813 141.689C84.1347 142.15 84.288 142.763 84.288 143.223C85.2084 147.058 86.2821 150.74 87.5093 154.421C87.816 155.341 88.1228 156.262 88.583 157.029C88.8898 157.949 89.3499 158.716 89.8101 159.483C90.1169 159.79 90.2703 160.25 90.5771 160.403C90.8838 160.71 91.0373 160.71 91.0373 160.71C91.4974 161.477 91.8042 162.091 92.111 162.704Z" fill="#F376A2"/>
<path d="M80.4533 160.403L78.6126 174.823C78.4593 175.743 78.9194 176.663 79.6863 176.97C80.6067 177.43 81.8338 178.351 82.7541 179.885C82.9075 180.191 83.3677 180.038 83.3677 179.731C83.061 175.743 82.294 165.772 81.2202 160.25C81.2202 159.943 80.4533 159.943 80.4533 160.403Z" fill="#8D67C3"/>
<path d="M88.2762 184.947C87.0491 184.793 86.7423 182.952 87.9694 182.492C89.3499 182.032 90.7304 181.112 91.0372 179.884C91.6508 177.277 87.6626 168.533 89.0431 166.999C89.6567 166.232 91.0372 165.926 92.1109 165.772C93.4914 165.619 94.8719 166.539 95.0253 168.073C95.4855 171.755 95.9457 179.118 92.7245 182.646C91.0372 184.486 89.5033 184.947 88.2762 184.947Z" fill="#4263A8"/>
<path d="M104.075 172.828C101.314 168.84 98.7068 164.852 96.7127 161.631C96.5593 161.477 96.4059 161.17 96.2525 161.017L96.0991 160.71C95.9457 160.403 95.7924 160.25 95.639 159.943C95.639 159.79 95.4856 159.79 95.4856 159.637L95.3322 159.176V158.87C93.4915 155.188 92.4178 151.046 92.111 146.905V146.751C91.9576 145.831 91.9576 145.064 92.111 144.604V144.297V143.99C92.111 141.996 91.1907 140.002 89.5034 138.775C90.2703 138.008 90.8839 137.088 91.344 136.167C92.111 134.94 92.4178 133.559 92.5712 132.332C92.7246 131.105 92.8779 129.725 93.0313 127.884C93.3381 124.049 93.4915 118.68 93.4915 112.391V111.931L93.3381 111.471C93.3381 111.317 93.3381 110.704 93.3381 110.55C93.3381 104.415 93.1847 97.8186 93.0313 91.0693V89.6887C92.8779 85.8539 92.7246 82.1724 92.5712 78.9511C92.4178 76.8036 92.4178 74.8095 92.4178 73.1221V71.4348V71.2814C92.2644 68.3669 89.9635 66.066 87.2025 65.6058C87.3559 65.1456 87.3559 64.6855 87.3559 64.2253C87.3559 63.9185 87.5093 63.6117 87.5093 63.3049C87.5093 63.1515 87.5093 62.9981 87.5093 62.8447V62.6913L87.6627 61.771C87.8161 60.3904 88.1228 59.1633 88.4296 57.7827L88.583 57.6293L89.1966 53.0275C89.8101 49.0392 90.2703 44.7442 90.5771 40.4492V40.2958V40.1424C90.5771 39.8356 90.5771 39.5288 90.5771 39.222C90.5771 38.6084 90.7305 38.1483 90.7305 37.5347C90.7305 36.9211 90.7305 36.6143 90.7305 36.3075L90.8839 35.8473V30.6319V30.3251C90.8839 29.865 90.7305 29.5582 90.7305 29.098C90.7305 28.6378 90.5771 28.1776 90.5771 27.564C90.5771 25.8767 90.4237 24.4962 90.2703 22.9622C89.9635 20.8147 89.6567 18.5138 88.8898 16.3663C88.8898 16.0595 88.7364 15.9061 88.7364 15.7527L88.1228 14.0653L87.9695 13.7586L87.8161 13.4518C87.6627 13.145 87.5093 12.8382 87.5093 12.5314C86.8957 11.3042 86.2822 10.2305 85.5152 9.31012C84.5949 8.08297 83.5212 7.316 82.6008 6.70242C81.9873 6.24224 81.3737 5.93545 80.6067 5.78205C80.2999 5.62866 79.9932 5.47527 79.533 5.47527C78.6127 5.16848 77.9991 5.16848 77.5389 5.16848H76.4652V5.01508L75.2381 2.56078L74.7779 2.10059C74.011 1.33362 72.7838 0.56665 71.4033 0.56665C70.9431 0.56665 70.6364 0.56665 70.1762 0.56665C55.4507 0.56665 42.2592 22.9622 33.6693 41.8297L33.516 42.1365L33.3626 42.4433C30.6015 48.8858 31.6753 55.175 36.277 60.0836C35.51 62.3845 33.9761 65.7592 31.6753 70.5144L31.5219 70.9746L31.0617 72.0484V72.3552C30.9083 73.2755 30.9083 74.1959 31.0617 75.1163C31.2151 75.8832 31.6752 76.6502 32.2888 77.2638C29.5278 80.6385 26.3066 84.3199 22.3184 88.615L21.3981 89.5353C17.1032 94.2906 13.7286 97.5118 12.0413 99.0458C11.4278 99.6593 10.8142 100.273 10.5074 100.426L10.354 100.58L10.2006 100.733C7.89977 103.034 5.59892 105.488 3.29807 108.556C2.8379 109.323 2.22434 110.09 1.76416 111.011C1.61077 111.317 1.4574 111.471 1.30401 111.777C1.15062 112.084 0.690452 113.005 0.537062 114.078C0.383672 115.766 0.843833 117.453 1.91756 118.834C2.68452 119.754 3.60485 120.521 4.83197 120.981C4.83197 121.748 4.98534 122.515 5.29212 123.282C6.67263 126.503 14.0354 131.719 19.5574 133.406V133.713C19.2507 133.713 19.0973 133.713 18.7905 133.713C14.9557 133.713 13.2684 136.014 12.8083 136.934C11.121 140.155 13.2684 143.837 13.882 145.064C14.3422 145.984 15.1091 147.058 16.0294 148.285C15.876 148.439 15.7227 148.746 15.7227 148.899C14.9557 150.279 14.8023 151.967 15.2625 153.347V153.501V153.654C15.2625 153.654 16.0294 155.495 16.7964 158.256C17.4099 160.25 18.0235 163.011 18.4837 165.926C18.4837 166.232 18.6371 166.539 18.6371 166.846V166.999C18.9439 169.3 18.9439 171.755 18.6371 174.056L18.4837 174.669V175.436C18.3303 176.05 18.1769 176.663 18.1769 177.584C18.0235 178.197 17.8701 179.118 17.8701 179.885C17.8701 180.038 17.7167 180.345 17.7167 180.652C16.7964 187.247 15.4159 198.138 24.6193 201.36L25.3862 201.667H26.46C28.7608 201.667 30.7549 200.133 31.5219 197.985L31.6753 197.372V197.218C31.8286 199.366 33.2091 200.9 35.9702 202.127C40.7253 203.967 45.4804 205.041 50.6956 205.195C53.3033 205.348 56.0643 205.348 58.6719 205.348C62.3533 205.348 66.188 205.348 70.483 205.655L70.7897 205.808H71.7101H71.8635C72.1703 205.808 72.6304 205.962 73.0906 205.962C74.0109 206.115 74.9313 206.268 76.005 206.422L77.2322 206.729H77.3855C77.5389 206.729 77.8457 206.882 78.1525 206.882C78.4592 206.882 78.766 207.035 79.0728 207.035C79.6864 207.189 80.4533 207.342 81.2203 207.496H81.5271C81.6805 207.496 81.9872 207.649 82.294 207.649C82.6008 207.649 83.6745 207.956 83.9813 207.956C84.2881 208.109 84.5949 208.109 84.9017 208.109H85.055H85.2084C85.822 208.262 86.589 208.416 87.2025 208.569C87.6627 208.723 88.2763 208.723 88.7364 208.876H89.0432C89.8101 209.029 90.5771 209.183 91.4974 209.336C96.0991 210.257 101.008 211.177 105.149 211.177C110.211 211.177 113.892 209.95 116.347 207.189C122.482 199.826 113.586 186.634 104.075 172.828Z" fill="white"/>
<path d="M26.1531 195.224C25.693 195.071 25.3862 194.917 25.0794 194.61C22.932 193.076 22.7786 189.395 23.2387 184.793C23.2387 184.486 23.3921 184.026 23.3921 183.719C23.3921 183.259 23.5455 182.799 23.5455 182.185C23.5455 181.725 23.6989 181.112 23.6989 180.652C23.8523 180.038 23.8523 179.578 24.0057 178.964C24.1591 178.044 24.3124 177.123 24.4658 176.203L24.6192 175.436C25.0794 172.828 25.0794 169.914 24.7726 167.153C24.7726 166.846 24.7726 166.386 24.6192 166.079C24.1591 162.398 23.3921 159.023 22.6252 156.262C21.7048 153.347 20.9379 151.353 20.9379 151.046C20.7845 150.433 20.0175 150.279 19.5574 150.433C18.9438 150.586 18.7904 151.353 18.9438 151.813C18.9438 151.813 19.8641 153.961 20.6311 157.029C21.2446 159.33 22.0116 162.244 22.4718 165.312C22.4718 165.619 22.6252 166.079 22.6252 166.386C22.932 169.147 22.932 172.061 22.6252 174.823L22.4718 175.283V175.743C22.3184 176.51 22.165 177.123 22.165 177.89C22.0116 178.657 21.8582 179.424 21.8582 180.191C21.8582 180.498 21.7048 180.805 21.7048 180.958C20.6311 188.935 20.4777 195.224 25.693 197.065C25.8464 197.065 25.9997 197.065 25.9997 197.065C26.4599 197.065 26.7667 196.758 26.9201 196.298C26.9201 195.991 26.6133 195.377 26.1531 195.224ZM71.8634 5.32186C71.71 5.16846 71.4032 5.01507 71.2498 5.01507C54.8371 3.48113 37.8108 43.8238 37.504 44.284C34.743 50.7266 37.504 55.175 39.8048 57.4759C40.4184 58.0895 40.8786 58.5497 41.3387 58.8565C39.8048 64.532 35.8167 72.0484 35.3565 72.9687V73.1221C35.0498 73.5823 35.2032 74.3493 35.8167 74.6561C35.9701 74.8095 36.1235 74.8095 36.2769 74.8095C36.5837 74.8095 37.0438 74.6561 37.1972 74.1959C37.1972 74.1959 37.504 73.7357 37.8108 73.1221C39.1913 70.5144 42.5659 63.9185 43.6396 58.7031L43.793 57.9361L43.1794 57.4759C43.0261 57.4759 42.1057 56.8623 41.1854 55.7886C39.4981 53.7944 37.504 50.2664 39.6515 45.051C43.9464 34.6202 57.4447 8.69653 69.4092 7.16259C69.7159 7.16259 70.0227 7.16259 70.3295 7.16259C70.6363 7.16259 70.9431 7.16259 71.0965 7.16259C71.71 7.16259 72.1702 6.8558 72.3236 6.39562V6.24222C72.1702 5.93544 72.0168 5.62865 71.8634 5.32186ZM92.8778 163.778C92.7244 163.471 92.4177 163.011 92.2643 162.704C91.9575 162.091 91.4973 161.477 91.3439 160.71C88.8897 155.648 87.9694 150.893 87.6626 147.212C87.5092 145.984 87.5092 144.757 87.6626 143.837C87.6626 142.763 86.8956 141.843 85.9753 141.536C85.5151 141.383 85.055 141.383 84.5948 141.536C84.4414 141.536 84.288 141.689 84.288 141.689C83.8278 141.843 83.2143 141.996 82.7541 142.15C79.3795 143.07 76.6185 142.763 74.3176 141.996C73.5507 141.689 72.7837 141.383 72.1702 141.076C70.0227 140.002 68.4888 138.468 67.4151 136.934C66.6481 136.014 65.421 136.167 64.8075 136.934C64.6541 137.088 64.5007 137.394 64.5007 137.701C63.8871 140.155 63.1202 141.996 62.1998 143.377C61.4329 144.604 62.5066 146.138 63.8871 145.831C64.5007 145.678 65.2676 145.678 65.8812 145.678C68.3354 145.524 70.4829 145.678 72.3236 146.138C73.2439 146.291 74.0109 146.598 74.7778 147.058C77.8456 148.592 79.5329 151.66 79.3795 156.569C78.6126 173.749 69.4091 182.952 59.7456 188.168C56.8312 189.702 53.9168 190.929 51.1558 191.849C40.4184 195.531 31.982 195.531 37.1972 197.678C41.7989 199.519 46.0938 200.286 50.5422 200.439C52.9964 200.593 55.604 200.593 58.2117 200.593C62.0464 200.593 66.0346 200.593 70.4829 200.9C70.7897 200.9 71.0964 200.9 71.4032 201.053C71.8634 201.053 72.3236 201.206 72.9371 201.206C74.3176 201.36 75.6982 201.667 77.2321 201.973C77.5389 201.973 77.999 202.127 78.3058 202.127C79.2261 202.28 80.2998 202.587 81.3736 202.74C81.6804 202.74 82.1405 202.894 82.4473 202.894C83.2143 203.047 83.8278 203.2 84.5948 203.354C85.055 203.507 85.3617 203.507 85.8219 203.661C87.049 203.967 88.1228 204.121 89.3499 204.428C90.1168 204.581 90.8838 204.734 91.8041 204.888C100.854 206.729 109.137 207.956 112.665 204.121C118.494 197.678 100.394 176.663 92.8778 163.778ZM89.0431 110.244C89.0431 103.954 88.8897 97.205 88.7363 90.7625C88.7363 90.3023 88.7363 89.8421 88.7363 89.5353C88.5829 83.2462 88.2761 77.5706 88.1227 72.8153C88.1227 72.3552 88.1227 72.0484 88.1227 71.5882C87.9693 69.5941 85.2083 69.1339 84.5948 71.128C84.4414 71.7416 84.1346 72.2018 83.9812 72.8153C82.9075 75.7298 81.9872 78.4909 81.0668 81.252C79.6863 85.3937 78.4592 89.2285 77.3854 93.0634C77.0786 93.8303 76.9253 94.5973 76.7719 95.3643C76.7719 95.5177 76.6185 95.6711 76.6185 95.8245C76.1583 97.5118 75.6982 99.0458 75.3914 100.58C75.238 101.04 75.0846 101.5 75.0846 101.96C74.9312 102.881 74.6244 103.648 74.471 104.415C74.3176 105.182 74.1643 105.795 74.0109 106.409C73.5507 108.249 73.2439 109.937 72.9371 111.624C72.7837 112.238 72.6304 112.851 72.6304 113.465C70.9431 122.822 70.7897 129.418 72.3236 132.026C74.6244 135.86 78.4592 137.855 81.8338 137.701C82.2939 137.701 82.7541 137.548 83.0609 137.548C83.521 137.394 83.9812 137.241 84.288 137.088C84.7482 136.934 85.055 136.627 85.5151 136.321C86.2821 135.707 87.049 134.787 87.6626 133.713C87.9694 133.253 88.1227 132.639 88.2761 131.565C88.4295 130.492 88.5829 129.111 88.7363 127.424C89.0431 123.589 89.1965 118.22 89.1965 112.238C89.0431 111.624 89.0431 110.857 89.0431 110.244ZM35.3565 146.598C35.0498 146.138 34.2828 145.371 33.2091 144.45C32.2887 143.837 31.215 143.07 30.1413 142.456C26.7667 140.616 22.6252 138.621 19.7108 138.161C18.0235 137.855 16.6429 138.008 16.1828 138.928C14.6489 141.843 25.3862 153.961 29.0675 154.114C30.7548 154.268 32.5955 153.194 33.976 151.66C34.2828 151.353 34.4362 151.046 34.743 150.74C35.5099 149.512 35.9701 147.825 35.3565 146.598ZM22.9319 127.577C22.6252 127.27 22.3184 126.81 22.0116 126.503C18.637 123.435 10.354 119.447 8.82007 120.981C7.43956 122.515 20.7845 131.565 23.0853 129.264C23.5455 128.804 23.3921 128.191 22.9319 127.577ZM86.4355 27.8708C86.4355 26.3369 86.2821 24.9563 86.1287 23.5758C85.8219 21.4283 85.5151 19.2807 84.9016 17.5934C84.9016 17.44 84.7482 17.2866 84.7482 17.1332C84.5948 16.673 84.4414 16.2129 84.288 15.7527C84.1346 15.4459 83.9812 14.9857 83.8278 14.6789C83.3677 13.7585 82.9075 12.9916 82.2939 12.2246C81.6804 11.4576 81.0668 10.9974 80.2999 10.5373C80.1465 10.3839 79.8397 10.2305 79.6863 10.2305C79.6863 10.2305 79.6863 10.2305 79.5329 10.2305C79.2261 10.0771 78.9194 9.92369 78.6126 9.92369C78.3058 9.77029 77.999 9.77029 77.6922 9.77029C77.2321 9.77029 76.7719 9.77029 76.3117 9.77029C75.0846 9.92369 73.7041 10.3839 72.3236 11.3042C71.5566 11.7644 70.7897 12.378 70.1761 12.9916C69.4092 13.6051 68.6422 14.3721 67.8753 15.1391C62.9668 20.2011 58.3651 27.8708 55.2973 33.5464C54.6837 34.7736 54.0701 35.8473 53.61 36.7677C52.5362 38.9152 53.1498 41.5229 54.9905 43.0568C55.1439 43.2102 55.4507 43.3636 55.6041 43.517C58.3651 45.6645 61.8931 49.1926 63.2736 53.6411C64.0405 55.7886 63.5803 58.0895 62.1998 59.9302C58.6718 64.6854 50.5422 76.8036 45.3269 93.0634C45.3269 93.2168 45.1735 93.5236 45.1735 93.677C44.0998 97.3584 43.026 101.193 42.2591 105.182C42.1057 105.642 42.1057 105.949 42.1057 106.409C41.9523 107.482 41.7989 108.71 41.6455 109.783C41.6455 110.244 41.4921 110.704 41.4921 111.164C41.3388 112.238 41.1854 113.465 41.1854 114.539C41.1854 114.845 41.1854 115.152 41.1854 115.459C41.1854 116.073 41.032 116.686 41.032 117.3C41.032 117.76 41.032 118.22 41.032 118.527C41.032 118.987 41.032 119.447 41.032 119.754C41.032 120.061 41.032 120.521 41.032 120.828V121.135C41.032 123.435 41.7989 125.276 43.026 126.657C43.3328 126.964 43.6396 127.27 43.9464 127.577C44.7133 128.191 45.4803 128.651 46.4006 128.958C47.0142 129.111 47.6277 129.264 48.2413 129.418C49.4684 129.571 50.8489 129.571 52.0761 129.418C55.4506 128.804 58.8252 126.964 61.2795 123.435C62.66 121.441 63.7337 118.987 64.1939 115.919C64.6541 113.311 65.2676 110.704 66.188 108.096C66.3414 107.789 66.4948 107.329 66.4948 107.022C66.8015 106.102 67.1083 105.335 67.4151 104.415C67.5685 103.954 67.7219 103.648 67.8753 103.187C68.0287 102.574 68.3354 102.114 68.4888 101.5C68.6422 101.04 68.7956 100.58 69.1024 100.12C69.4091 99.3525 69.7159 98.739 70.0227 97.972C72.477 92.143 75.238 86.4674 77.5388 80.9452C77.8456 80.0249 78.3058 79.2579 78.6126 78.3375C78.766 78.1841 78.7659 77.8773 78.9193 77.724C79.0727 77.2638 79.3795 76.6502 79.5329 76.19C79.6863 75.8832 79.6863 75.7298 79.8397 75.423C79.9931 74.9629 80.1465 74.5027 80.2999 74.0425C81.2202 71.5882 81.8338 68.9805 82.4473 66.5262C82.6007 66.2194 82.6007 65.7592 82.7541 65.4524C82.9075 64.8388 83.0609 64.2253 83.0609 63.6117C83.2143 62.9981 83.2143 62.3845 83.3677 61.7709C83.6745 59.9302 83.9812 57.9361 84.4414 55.942C84.4414 55.7886 84.4414 55.6352 84.5948 55.4818C84.7482 54.408 84.9015 53.3343 85.0549 52.2605C85.6685 48.2723 86.1287 44.1306 86.4355 39.989C86.4355 39.0686 86.5888 38.3016 86.5888 37.3813C86.5888 36.6143 86.5888 36.0007 86.7422 35.2337C86.7422 34.3134 86.7422 33.393 86.7422 32.4726C86.7422 31.8591 86.7422 31.3989 86.7422 30.7853C86.5888 29.7115 86.5889 28.7912 86.4355 27.8708ZM52.5363 58.8565L50.3888 56.7089C49.7752 56.0954 48.8549 56.5555 48.7015 57.3225C48.0879 65.6058 35.6633 80.485 25.3862 91.6828C25.0794 91.9896 24.7726 92.2964 24.4658 92.6032C20.7845 96.5915 17.4099 99.9661 14.9557 102.267C14.1887 103.034 13.5751 103.648 12.9616 104.108C10.2006 106.715 8.05312 109.323 6.51922 111.317C6.05905 111.931 5.59885 112.544 5.29207 113.158C5.13868 113.465 4.98531 113.618 4.83192 113.925C4.67853 114.232 4.52512 114.385 4.52512 114.692C4.37173 115.766 4.9853 116.993 6.21242 117.146C6.36581 117.146 6.51923 117.146 6.67262 117.3C18.9438 119.754 25.0794 123.589 27.8404 126.043C27.9938 126.197 28.3006 126.35 28.6074 126.503C29.5277 126.964 30.4481 126.964 31.215 126.657C31.982 126.35 32.5955 125.89 33.0557 124.969C33.6692 123.589 34.2828 122.055 34.5896 120.368C34.743 119.907 34.743 119.447 34.8964 118.834C34.8964 118.68 34.8964 118.527 35.0498 118.373C35.2032 117.76 35.2031 117.3 35.2031 116.686C35.3565 115.459 35.5099 114.078 35.5099 112.698C35.5099 112.084 35.5099 111.624 35.6633 111.011C35.6633 109.63 35.8167 108.249 35.8167 106.869C35.8167 106.255 35.8167 105.642 35.9701 105.028C35.9701 103.801 36.1235 102.574 36.1235 101.347C36.1235 101.193 36.1235 100.886 36.1235 100.733C36.4303 95.9779 37.1972 91.2227 39.0379 87.2344C39.1913 86.7742 39.4981 86.314 39.6515 85.8539C39.6515 85.8539 39.6515 85.7005 39.8048 85.7005C43.9464 78.3375 50.3888 66.5262 52.9964 61.9243C53.61 61.3108 53.4566 59.7768 52.5363 58.8565Z" fill="#1E1C31"/>
<path d="M68.3354 78.4909C69.7159 78.6443 71.5566 79.1045 72.9371 79.8715C73.5507 80.3317 74.471 80.3317 75.0846 79.7181C75.8515 79.1045 77.3855 78.3376 79.3795 77.8774C79.6863 77.8774 79.6863 77.4172 79.3795 77.4172C77.0787 77.2638 73.3973 77.2638 68.4888 78.0308C68.0286 78.0308 68.0286 78.3376 68.3354 78.4909Z" fill="#F376A2"/>
<path d="M79.6864 75.1162C79.533 75.423 79.533 75.5764 79.3796 75.8832H79.2262C78.1525 76.0366 77.0788 76.19 76.005 76.3434C74.9313 76.4968 73.7042 76.3434 72.6305 76.3434C71.5567 76.19 70.483 76.19 69.4093 76.0366C69.2559 76.0366 69.2559 75.8832 69.2559 75.7298C69.2559 75.5764 69.4093 75.5764 69.5627 75.5764C70.6364 75.7298 71.7101 75.7298 72.7838 75.8832C73.8576 75.8832 74.9313 76.0366 76.005 75.8832C77.0788 75.7298 78.1525 75.5764 79.2262 75.423C79.3796 75.1162 79.533 75.1162 79.6864 75.1162Z" fill="#1CD0C5"/>
<path d="M43.7931 57.9361L43.6397 58.7031C42.4126 63.9185 39.038 70.6678 37.8109 73.1221C36.8906 73.4289 36.1236 73.4289 35.3567 72.9687C35.8169 72.0484 39.805 64.532 41.3389 58.8565C40.8787 58.5497 40.4185 58.0895 39.805 57.4759C40.2651 56.8623 40.7253 56.2488 41.0321 55.7886C42.1058 56.8623 43.0261 57.4759 43.0261 57.4759L43.7931 57.9361Z" fill="#F376A2"/>
<path d="M86.4355 34.927C86.4355 35.6939 86.4355 36.3075 86.2821 37.0745C85.9754 37.2279 85.5152 37.3813 85.2084 37.3813C84.2881 37.5347 83.5211 37.6881 82.6008 37.8414C81.6805 37.9948 80.7601 37.8414 79.8397 37.8414C79.533 37.8414 79.3796 37.8414 79.0728 37.6881C75.6982 37.0745 74.6245 40.2958 77.5389 41.9831C77.6923 42.1365 77.8457 42.1365 77.9991 42.2899C79.6864 43.6704 81.8338 47.6587 78.766 51.3401C75.6982 55.175 69.5626 55.6352 66.3414 53.4877C65.4211 52.8741 64.8075 52.1071 64.5007 51.3401C62.66 48.1189 66.0347 35.3871 69.5626 35.0803C69.716 34.927 69.716 34.927 69.8694 34.927C71.5567 34.7736 73.244 34.7736 74.9313 34.7736C75.8516 34.7736 76.6185 34.927 77.5389 35.0803C77.9991 35.0803 78.4593 35.2337 78.766 35.2337L79.3796 35.3871C79.533 35.3871 79.6864 35.5405 79.9931 35.5405C81.527 35.6939 83.0609 35.6939 84.5948 35.3871C85.3618 35.2337 85.9754 35.0804 86.4355 34.927Z" fill="#1CD0C5"/>
<path d="M84.2881 55.6352C83.9813 57.6294 83.6746 59.6235 83.2144 61.4642C83.061 62.0778 82.9076 62.6914 82.9076 63.3049C82.7542 63.3049 82.6008 63.3049 82.4474 63.1515C81.2203 62.6914 77.5389 61.771 76.005 61.9244C74.4711 62.0778 72.7838 64.0719 70.0228 64.0719C67.2618 64.0719 68.0287 58.7031 68.0287 57.9361C68.1821 57.1692 69.8694 56.2488 72.0169 56.0954C73.7041 55.942 76.9254 55.175 78.7661 53.9479C79.533 53.4877 80.4533 53.4877 81.2203 53.7945C81.9872 54.2547 83.2144 54.7149 84.2881 54.8683" fill="#19B4EE"/>
<path d="M77.5389 80.6385C75.2381 86.1607 72.4771 91.8363 70.0228 97.6653C67.722 98.8925 65.2677 99.9662 62.5067 99.3526C59.2855 98.7391 58.6719 93.0635 59.1321 89.2286C59.5922 85.2404 64.194 80.3317 66.3415 80.1784C68.4889 80.025 70.0228 84.1666 72.3237 83.8598C74.3177 83.553 75.5449 81.5589 77.5389 80.6385Z" fill="#1996EE"/>
<path d="M81.5272 90.7625C80.4534 91.376 78.9195 92.143 77.5389 92.91C78.6127 89.0751 79.8398 85.2403 81.2203 81.0986C82.2941 82.6326 82.9077 85.7005 83.2145 87.6946C83.2145 88.9217 82.6009 90.1489 81.5272 90.7625Z" fill="#1996EE"/>
<path d="M72.1703 6.24222C71.8635 6.39561 71.5567 6.39561 71.4033 6.549C71.0965 6.549 70.7898 6.7024 70.6364 6.7024C70.483 6.85579 70.3296 6.85579 70.1762 7.00919V7.16258C69.8694 7.16258 69.5626 7.16258 69.2559 7.16258C69.2559 7.00919 69.2559 6.7024 69.4093 6.549C69.5627 6.08882 69.8694 5.78203 70.3296 5.62864C70.6364 5.47525 71.0965 5.47524 71.4033 5.32185C71.5567 5.32185 71.8635 5.32185 72.0169 5.16846C72.0169 5.62864 72.1703 5.93543 72.1703 6.24222Z" fill="#1996EE"/>
<path d="M70.3295 12.6848C70.1761 13.145 70.0227 13.4518 69.7159 13.7586C69.5625 13.912 69.4092 14.2188 69.1024 14.3721C68.949 14.5255 68.6422 14.6789 68.3354 14.8323C68.182 14.8323 68.1821 14.8323 68.0287 14.8323C68.7956 14.0654 69.5626 13.4518 70.3295 12.6848Z" fill="#4263A8"/>
<path d="M76.6186 15.139C75.6982 15.5992 74.7779 16.0594 74.011 16.673C73.244 17.2866 72.6305 18.0535 72.4771 18.6671C72.4771 18.8205 72.4771 18.9739 72.4771 19.2807C72.4771 19.4341 72.4771 19.4341 72.6305 19.5875V19.7409V19.8943C72.7839 20.3545 73.0907 20.6612 73.3974 20.8146C74.1644 21.2748 75.2381 21.5816 76.1584 21.5816C76.3118 21.5816 76.3118 21.735 76.3118 21.735C76.3118 21.8884 76.3118 21.8884 76.1584 21.8884C75.5449 22.0418 75.0847 22.1952 74.4711 22.1952C73.8576 22.1952 73.244 22.0418 72.7838 21.735C72.1703 21.4282 71.7101 20.968 71.4033 20.3545L71.2499 20.2011L71.0966 20.0477C71.0966 19.8943 70.9432 19.7409 70.9432 19.5875C70.7898 19.2807 70.7898 18.9739 70.7898 18.5137C70.7898 17.7467 71.0966 17.1332 71.5567 16.673C71.8635 16.2128 72.3237 15.7526 72.7838 15.4458C73.7042 14.6789 74.7779 14.2187 75.8516 13.9119C76.1584 13.7585 76.6186 13.9119 76.6186 14.3721C77.0787 14.5255 76.9253 14.9857 76.6186 15.139Z" fill="#4263A8"/>
<path d="M74.6245 10.9975C74.3177 11.7645 74.0109 12.5314 73.5507 13.2984C73.3973 13.6052 73.0905 14.0654 72.7838 14.3722L72.6304 14.679L72.3236 14.9857C72.1702 14.9857 72.1702 15.1391 72.0168 15.1391L71.7101 15.2925C70.9431 15.7527 70.1762 16.0595 69.5626 16.6731C69.2558 16.9799 69.1024 17.1333 68.949 17.5934C68.7956 17.9002 68.7956 18.3604 68.6423 18.8206C68.6423 19.2808 68.4889 19.741 68.4889 20.0478C68.4889 20.5079 68.3354 20.9681 68.1821 21.4283C68.1821 21.5817 68.0287 21.7351 68.0287 21.7351V21.8885L67.8753 22.0419L67.7219 22.1953C67.5685 22.3487 67.2617 22.5021 67.1084 22.6555C66.6482 22.9622 66.3414 23.1156 66.0346 23.269C65.7278 23.4224 65.2676 23.7292 65.1143 23.8826C64.8075 24.1894 64.6541 24.3428 64.5007 24.6496C64.3473 24.9564 64.5007 25.1098 64.5007 25.4166C64.6541 25.7233 64.8075 26.0301 65.1143 26.1835C65.421 26.4903 65.421 26.9505 65.1143 27.2573C64.8075 27.5641 64.3473 27.5641 64.0406 27.2573C63.7338 26.9505 63.427 26.4903 63.2736 25.8767C63.1202 25.4166 63.1202 24.6496 63.427 24.036C63.7338 23.4224 64.0405 23.1156 64.5007 22.8089C64.9609 22.5021 65.2677 22.3487 65.7279 22.0419C66.188 21.8885 66.4948 21.7351 66.8016 21.4283C66.9549 21.2749 67.1084 21.2749 67.2618 21.1215L67.4151 20.9681C67.5685 20.6613 67.7219 20.3545 67.7219 19.8944C67.8753 19.4342 67.8753 19.1274 68.0287 18.6672C68.1821 18.207 68.1821 17.7468 68.3355 17.2867C68.4888 16.8265 68.949 16.3663 69.2558 16.0595C70.0228 15.4459 70.7897 15.1391 71.5567 14.8324L71.8635 14.679L72.0168 14.5256L72.1702 14.3722L72.3236 14.2188C72.6304 13.912 72.7838 13.6052 73.0906 13.2984C73.5507 12.5314 74.0109 11.9179 74.3177 11.1509C74.3177 10.9975 74.4711 10.9975 74.6245 10.9975C74.6245 10.9975 74.6245 10.8441 74.6245 10.9975Z" fill="#8D67C3"/>
<path d="M74.1642 19.4341C74.0109 18.9739 74.0108 18.3604 74.3176 17.7468C74.471 17.44 74.6244 17.2866 74.9312 17.1332C75.238 16.9798 75.5447 16.8264 75.8515 16.8264C76.1583 16.8264 76.4651 16.8264 76.7719 17.1332C77.0786 17.2866 77.2321 17.5934 77.2321 18.0536C77.2321 18.3604 77.0786 18.6671 76.7719 18.9739C76.6185 19.1273 76.3117 19.2807 76.1583 19.4341C76.0049 19.4341 76.0049 19.4341 75.8515 19.2807C75.8515 19.1273 75.8515 19.1273 75.8515 19.1273C76.0049 18.9739 76.1583 18.8205 76.3117 18.6671C76.4651 18.5138 76.4651 18.3604 76.4651 18.207C76.4651 18.0536 76.1583 17.7468 75.6982 17.9002C75.5448 17.9002 75.3913 17.9002 75.238 18.0536C75.0846 18.207 74.9312 18.3604 74.7778 18.5138C74.6244 18.8205 74.471 19.2807 74.3176 19.7409C74.6244 19.5875 74.471 19.5875 74.1642 19.4341C74.1642 19.4341 74.3176 19.5875 74.1642 19.4341Z" fill="#1996EE"/>
<path d="M60.9728 32.9328C57.2914 37.0744 56.0643 40.6025 55.9109 43.2102C55.7575 43.0568 55.4507 42.9034 55.2973 42.75C53.3032 41.3695 52.6897 38.6084 53.9168 36.4609C54.377 35.5405 54.9905 34.3133 55.6041 33.2396C57.2914 32.4726 58.8253 31.859 60.2058 31.3989C60.9728 31.2455 61.5863 32.3192 60.9728 32.9328Z" fill="#19B4EE"/>
<path d="M50.8489 192.003C53.6099 191.082 56.5243 189.855 59.4387 188.321C58.6718 191.542 58.2116 195.531 57.9048 200.746C55.2972 200.746 52.6896 200.746 50.2354 200.593C50.3887 198.138 50.5421 195.071 50.8489 192.003Z" fill="#19B4EE"/>
<path d="M60.9727 121.288C60.9727 121.748 61.126 122.362 61.4328 123.129C58.9786 126.657 55.604 128.651 52.2294 129.111C52.2294 128.651 52.2294 128.191 52.2294 127.577C52.6895 123.589 54.0701 121.288 54.2235 118.22C54.3769 115.152 55.4506 112.238 58.9786 111.777C61.893 111.471 63.2735 112.698 62.8133 115.306C62.3531 118.067 60.6659 118.834 60.9727 121.288Z" fill="#19B4EE"/>
<path d="M65.5744 145.831C64.9608 145.831 64.1938 145.984 63.5803 145.984C62.1997 146.138 61.126 144.757 61.893 143.53C62.6599 142.15 63.5803 140.155 64.1939 137.854C64.1939 137.548 64.3472 137.241 64.5006 137.088C64.5006 137.394 64.654 137.701 64.654 138.008C64.654 138.161 64.654 138.315 64.8074 138.468C64.9608 139.388 65.1142 140.155 65.1142 141.076C65.2676 142.61 65.421 144.144 65.5744 145.831Z" fill="#19B4EE"/>
<path d="M32.9023 118.987C33.5159 119.14 34.1295 119.14 34.743 119.294C34.5897 119.754 34.5896 120.214 34.4362 120.828C33.8227 120.828 33.2091 120.674 32.5956 120.674C30.6015 120.521 28.6074 120.061 26.46 119.754C25.3863 119.601 24.4659 119.294 23.5456 119.14C22.6252 118.834 21.5515 118.68 20.6311 118.373C18.6371 117.76 16.7964 117.146 14.8023 116.533C12.8083 115.919 10.9675 115.306 9.12687 114.692C8.20653 114.385 7.2862 114.078 6.36586 113.925C6.05908 113.772 5.59889 113.772 5.29211 113.618C5.59889 113.005 6.05909 112.391 6.51926 111.777C7.59299 112.084 8.82013 112.391 9.74047 112.698C13.5752 113.925 17.41 115.306 21.2447 116.533C22.1651 116.839 23.2388 117.146 24.1591 117.453C25.0795 117.76 26.1532 117.913 27.0735 118.22L28.6074 118.527L29.3744 118.68L30.1413 118.834C31.0617 118.68 31.982 118.987 32.9023 118.987Z" fill="#1CD0C5"/>
<path d="M45.327 119.754C45.327 119.907 45.1736 120.061 45.0202 120.214C43.6397 120.521 42.4126 120.674 41.0321 120.828C41.0321 120.521 41.0321 120.061 41.0321 119.754C42.2592 119.754 43.6397 119.601 44.8668 119.447C45.1736 119.447 45.327 119.601 45.327 119.754Z" fill="#1CD0C5"/>
<path d="M22.0116 126.503C22.4718 126.963 22.7785 127.27 22.9319 127.577C22.4717 127.424 22.0116 127.27 21.5514 127.27C21.398 127.27 21.2446 126.963 21.2446 126.81C21.2446 126.657 21.398 126.503 21.7048 126.503C21.7048 126.503 21.8582 126.503 22.0116 126.503Z" fill="#8D67C3"/>
<path d="M30.4481 126.963C30.7549 126.963 30.9083 126.963 31.2151 126.963C30.2947 127.27 29.3744 127.27 28.6074 126.81L30.4481 126.963Z" fill="#8D67C3"/>
<path d="M45.1734 126.657C44.7133 126.964 44.4065 127.117 43.9463 127.424C43.6396 127.117 43.3328 126.81 43.026 126.503C43.1794 126.503 43.3328 126.503 43.3328 126.35C43.6396 126.35 43.793 126.197 44.0997 126.197C44.2531 126.197 44.5599 126.043 44.7133 126.043C44.8667 125.89 45.1734 126.043 45.1734 126.197C45.3268 126.35 45.3268 126.503 45.1734 126.657Z" fill="#8D67C3"/>
<path d="M35.51 111.471C35.51 112.084 35.51 112.545 35.3566 113.158C34.5897 112.851 33.6693 112.391 32.9024 111.931C31.5218 111.164 30.2948 110.55 28.9142 109.783L25.0795 107.483C24.4659 107.176 23.8523 106.716 23.0854 106.409C22.7786 106.255 22.4718 106.102 22.165 105.949C21.8582 105.795 21.5515 105.642 21.2447 105.488C20.6312 105.182 19.8642 104.875 19.2506 104.721L18.3303 104.415L17.2566 104.261C15.876 103.954 14.4955 104.108 13.115 104.415C13.5752 103.954 14.3421 103.341 15.1091 102.574C15.876 102.421 16.7964 102.421 17.5633 102.574L18.7905 102.727L20.0176 103.034C20.7845 103.341 21.5515 103.494 22.165 103.801C23.5455 104.415 24.9261 105.182 26.3066 105.949C27.6871 106.716 28.9142 107.483 30.1413 108.249L32.1354 109.477C32.749 109.937 33.3625 110.244 33.9761 110.704C34.4363 110.857 35.0498 111.164 35.51 111.471Z" fill="#19B4EE"/>
<path d="M41.9523 115.152C41.799 115.306 41.6455 115.459 41.4922 115.306C41.3388 115.306 41.3388 115.306 41.1854 115.152C41.1854 114.846 41.1854 114.539 41.1854 114.232C41.3388 114.385 41.4922 114.385 41.6456 114.385C41.9523 114.692 42.1057 114.999 41.9523 115.152Z" fill="#19B4EE"/>
<path d="M33.8226 116.993C34.2828 117.146 34.743 117.146 35.2031 117.146C35.2031 117.76 35.0498 118.22 35.0498 118.834C34.5896 118.834 34.1294 118.834 33.6692 118.68C32.9023 118.68 32.2887 118.527 31.5218 118.373C31.0616 118.22 30.6014 117.76 30.7548 117.3C30.9082 116.839 31.3684 116.379 31.8286 116.533C32.4421 116.839 33.2091 116.993 33.8226 116.993Z" fill="#4263A8"/>
<path d="M47.4743 115.306C46.4006 116.226 45.1735 116.993 43.9463 117.453C43.026 117.76 42.1057 118.067 41.1853 118.373C41.1853 117.913 41.1853 117.453 41.1853 117.146C41.9523 116.993 42.8726 116.839 43.6395 116.533C44.8667 116.072 46.0938 115.459 47.1676 114.692C47.321 114.539 47.6277 114.539 47.7811 114.845C47.6277 114.999 47.6277 115.152 47.4743 115.306Z" fill="#4263A8"/>
<path d="M35.0499 105.028C35.3567 105.182 35.5101 105.488 35.8168 105.642C35.8168 106.255 35.8168 106.869 35.6634 107.483C35.0499 107.022 34.5897 106.716 33.9761 106.255C31.9821 104.875 30.1414 103.341 28.1473 102.114C27.6872 101.807 27.0736 101.654 26.6134 101.347C26.1533 101.193 25.5397 101.04 24.9261 101.04C23.8524 100.887 22.6253 100.887 21.3981 101.04C21.2447 101.04 20.938 100.887 20.938 100.733C20.938 100.58 21.0914 100.426 21.2448 100.273C22.4719 99.9662 23.699 99.9662 24.9261 99.9662C25.5397 99.9662 26.1532 100.12 26.7668 100.273C27.3803 100.426 27.9939 100.733 28.6075 100.887C29.6812 101.5 30.755 102.114 31.8287 102.881C33.0558 103.494 34.1295 104.261 35.0499 105.028Z" fill="#1CD0C5"/>
<path d="M47.6279 112.084C47.6279 112.238 47.6279 112.238 47.6279 112.084C47.6279 112.391 47.3211 112.544 47.1677 112.544C45.1736 112.391 43.3329 111.778 41.6456 111.011C41.6456 110.55 41.799 110.09 41.799 109.63C43.4863 110.55 45.327 111.317 47.3211 111.778C47.4745 111.778 47.6279 111.931 47.6279 112.084Z" fill="#1CD0C5"/>
<path d="M74.471 147.058C73.7041 146.751 72.9371 146.445 72.0168 146.138C72.0168 144.45 71.8634 142.763 71.8634 141.076C72.477 141.383 73.2439 141.843 74.0109 141.996C74.1642 142.917 74.1642 143.683 74.3176 144.604C74.471 145.371 74.471 146.291 74.471 147.058Z" fill="#1CD0C5"/>
<path d="M26.7667 196.605C26.6133 197.065 26.3065 197.372 25.8464 197.372C25.693 196.605 25.3862 195.838 25.0794 195.224C24.926 195.071 24.926 194.917 25.0794 194.764C25.3862 195.071 25.8463 195.224 26.1531 195.377C26.6133 195.377 26.9201 195.991 26.7667 196.605Z" fill="#19B4EE"/>
<path d="M48.3948 92.91C48.088 92.91 47.9346 92.6032 48.088 92.4498C48.088 92.143 49.3151 86.4675 53.1498 82.9394C55.4507 80.7919 57.2913 78.6444 58.3651 77.4172C58.8252 76.8036 59.132 76.0367 59.132 75.1163C58.9786 73.7357 58.9786 71.5882 59.899 69.9009C60.0523 69.7475 60.2058 69.5941 60.3592 69.7475C60.5125 69.9009 60.6659 70.0543 60.5125 70.2077C59.7456 71.7416 59.7456 73.7357 59.7456 74.9629C59.8989 76.0367 59.4388 76.957 58.8253 77.724C57.7515 79.1045 55.7574 81.2521 53.61 83.3996C50.082 86.7743 48.855 92.4498 48.855 92.4498C48.855 92.91 48.7015 92.91 48.3948 92.91Z" fill="#F376A2"/>
<path d="M39.6515 86.3141C39.3447 86.7743 39.1913 87.2345 39.0379 87.6946C34.4362 90.4557 27.5336 92.1431 24.4658 92.7566C24.7726 92.4499 25.0794 92.1431 25.3862 91.8363C29.0675 90.9159 35.6633 89.2286 39.6515 86.3141Z" fill="#1CD0C5"/>
<path d="M63.4271 100.58C65.2677 100.12 67.2618 99.8127 69.1025 99.8127C68.9491 100.273 68.7957 100.733 68.4889 101.193C68.0288 101.193 67.4152 101.193 66.955 101.193L65.2677 101.347C64.6542 101.5 64.194 101.5 63.5804 101.653C61.433 102.114 59.2855 103.034 57.4448 104.261C56.5245 104.875 55.6042 105.642 54.8372 106.409C54.377 106.869 54.0702 107.176 53.7635 107.636C53.4567 108.096 52.9965 108.556 52.8431 109.016C52.6897 109.17 52.5363 109.323 52.3829 109.17C52.2296 109.016 52.0762 108.863 52.2296 108.71C53.3033 106.562 54.9906 104.875 56.9847 103.341C58.8253 102.114 61.1262 101.193 63.4271 100.58Z" fill="#8D67C3"/>
<path d="M89.0432 112.238C88.583 111.624 88.2763 111.164 87.8161 110.55C86.2822 108.863 84.7483 107.176 82.9076 105.795C81.0669 104.415 79.0729 103.341 77.0788 102.574C76.4653 102.267 75.6983 102.114 75.0847 101.96C75.2381 101.5 75.3915 101.04 75.3915 100.58C76.1585 100.733 76.9254 101.04 77.539 101.193L78.4593 101.5C78.7661 101.653 79.0729 101.807 79.2263 101.96L79.9932 102.42L80.4534 102.574L80.7602 102.881C81.2203 103.187 81.8339 103.494 82.2941 103.801L83.6746 104.875C85.5152 106.409 87.2026 108.096 88.7365 109.937C88.8899 110.09 88.8898 110.244 89.0432 110.397C89.0432 110.857 89.0432 111.624 89.0432 112.238Z" fill="#8D67C3"/>
<path d="M65.8812 103.648C66.4947 103.187 67.2617 103.034 67.8752 102.881C67.7219 103.341 67.5684 103.648 67.415 104.108C67.2617 104.108 67.2617 104.108 67.2617 104.108C66.9549 104.108 66.4947 104.261 66.3414 104.261C66.188 104.261 65.8812 104.261 65.8812 103.954C65.7278 103.954 65.7278 103.648 65.8812 103.648Z" fill="#4263A8"/>
<path d="M88.7363 127.424C88.5829 129.111 88.4295 130.492 88.2761 131.565C87.816 130.492 87.5092 129.264 87.049 128.191C86.7422 127.577 86.5889 126.81 86.2821 126.196C85.9753 125.583 85.8219 124.816 85.5151 124.202C84.9016 122.822 84.4414 121.595 83.8278 120.214C82.6007 117.606 81.2202 114.999 79.6863 112.698C79.2261 112.084 78.9193 111.471 78.4592 111.01C77.999 110.397 77.5388 109.937 77.0787 109.323C76.6185 108.863 76.1583 108.249 75.5448 107.789C75.0846 107.329 74.6244 106.869 74.0109 106.562C74.1643 105.948 74.3176 105.181 74.471 104.568C74.6244 104.721 74.7778 104.875 75.0846 104.875C76.3117 105.795 77.5388 106.869 78.4592 107.943C78.9193 108.556 79.3795 109.17 79.8397 109.63C80.2998 110.243 80.76 110.857 81.2202 111.471C82.9075 113.925 84.288 116.533 85.5151 119.294C86.1287 120.674 86.7423 122.055 87.2024 123.435C87.5092 124.049 87.6626 124.816 87.9694 125.583C88.2762 126.043 88.4295 126.657 88.7363 127.424Z" fill="#4263A8"/>
<path d="M62.9668 105.488C64.1939 105.642 65.421 106.102 66.6481 106.715C66.4947 107.022 66.3414 107.482 66.3414 107.789C65.2677 107.176 64.0405 106.715 62.8134 106.409C62.1999 106.255 61.5863 106.255 60.9728 106.255C60.8194 106.255 60.666 106.255 60.5126 106.255C60.3592 106.255 60.2058 106.255 60.0524 106.255C59.7456 106.255 59.4389 106.409 59.1321 106.409C58.9787 106.562 58.6719 106.409 58.6719 106.102C58.5185 105.948 58.6719 105.642 58.8253 105.642C59.1321 105.488 59.5922 105.335 59.899 105.335C60.2058 105.182 60.666 105.182 60.9728 105.182C61.5863 105.335 62.1999 105.488 62.9668 105.488Z" fill="#19B4EE"/>
<path d="M81.3737 125.583C82.9076 129.111 84.2881 132.486 85.5153 136.167C85.2085 136.474 84.7483 136.781 84.2881 136.934C84.1347 136.474 83.9813 135.86 83.6746 135.4C83.5212 134.787 83.2144 134.173 83.061 133.559C82.9076 132.946 82.6008 132.332 82.294 131.719C81.9873 131.105 81.8339 130.492 81.5271 129.878C81.2203 129.264 81.0669 128.804 80.7601 128.191C80.4534 127.577 80.1466 126.963 79.8398 126.35C79.0728 124.663 78.3059 122.975 77.3855 121.288C77.0787 120.674 76.772 120.214 76.4652 119.601C76.1584 118.987 75.8516 118.527 75.5449 118.067C75.3915 117.76 75.2381 117.606 75.0847 117.3C74.9313 116.993 74.7779 116.839 74.6245 116.533C74.0109 115.459 73.244 114.539 72.4771 113.618C72.6304 113.005 72.6304 112.391 72.7838 111.777C72.9372 111.931 72.9372 111.931 73.0906 112.084C74.9313 114.078 76.3118 116.379 77.6923 118.68C78.3059 119.907 79.0729 120.981 79.533 122.208C79.8398 122.822 80.1466 123.435 80.4533 124.049L81.3737 125.583Z" fill="#19B4EE"/>
<path d="M87.5093 147.212C86.8957 145.217 86.4356 143.377 85.822 141.383C86.7423 141.689 87.5093 142.61 87.5093 143.683C87.5093 144.911 87.5093 145.984 87.5093 147.212Z" fill="#19B4EE"/>
<path d="M35.8167 101.193C35.9701 101.193 35.97 101.347 36.1234 101.347C36.1234 101.5 36.1234 101.807 36.1234 101.96C35.97 101.807 35.8167 101.653 35.6633 101.5C35.6633 101.347 35.6633 101.347 35.8167 101.193C35.8167 101.04 35.6633 101.04 35.8167 101.193Z" fill="#F376A2"/>
<path d="M52.2294 106.255C52.2294 106.409 52.2294 106.409 52.076 106.409C51.3091 106.562 50.5421 106.715 49.7752 106.715C49.0082 106.715 48.2413 106.869 47.4743 106.869C46.7074 106.869 45.9405 106.869 45.1735 106.869H44.56C44.4066 106.869 44.2532 106.869 43.9464 106.715C43.793 106.715 43.6396 106.715 43.3329 106.562L42.7193 106.409C42.5659 106.409 42.2591 106.255 42.1057 106.102C42.1057 105.642 42.2591 105.335 42.2591 104.875C42.5659 105.028 42.7193 105.028 43.0261 105.182L43.4863 105.335C43.6396 105.335 43.793 105.488 43.9464 105.488C44.2532 105.642 44.56 105.642 45.0202 105.642C45.3269 105.642 45.7871 105.642 46.0938 105.795L47.1676 105.949C47.9345 105.949 48.7015 106.102 49.315 106.102C50.082 106.102 50.8489 106.255 51.4625 106.102C52.076 106.102 52.2294 106.255 52.2294 106.255Z" fill="#F376A2"/>
<path d="M58.0584 100.58C57.905 101.193 57.2914 101.807 56.6778 101.653H56.5245C55.6041 101.347 54.8372 101.04 53.9168 100.733C53.1499 100.273 52.2295 99.8126 51.616 99.3525C50.0821 98.2787 48.855 97.0516 47.7812 95.8244C47.1677 95.2108 46.7075 94.5972 46.0939 93.9837C45.9406 93.8303 45.7872 93.6769 45.6338 93.5235C45.6338 93.3701 45.7872 93.0633 45.7872 92.9099C46.094 93.0633 46.2474 93.3701 46.5541 93.5235C47.1677 94.1371 47.7812 94.5972 48.5482 95.2108C49.7753 96.2846 51.1558 97.3583 52.5363 98.1253C53.9168 98.8923 55.6041 99.3525 57.138 99.5059C57.5982 99.3525 58.2118 99.966 58.0584 100.58Z" fill="#1996EE"/>
<path d="M22.4717 156.262C22.0116 156.722 21.398 157.029 20.4777 157.182C19.5574 154.114 18.7904 151.967 18.7904 151.967C18.637 151.353 18.7904 150.74 19.404 150.586C20.0175 150.433 20.6311 150.586 20.7845 151.2C20.7845 151.353 21.5514 153.347 22.4717 156.262Z" fill="#1996EE"/>
<path d="M34.4363 150.893C34.2829 151.2 33.9761 151.507 33.6693 151.813C32.4422 151.967 31.3685 151.967 30.2948 151.967C27.6871 151.967 25.8464 151.66 25.693 151.66C25.5396 151.66 25.3862 151.353 25.3862 151.2C25.3862 151.046 25.693 150.893 25.8464 150.893C25.9998 150.893 29.8346 151.507 34.4363 150.893Z" fill="#19B4EE"/>
<path d="M33.209 144.604C32.1353 144.604 30.9082 144.604 29.8344 144.604C28.4539 144.45 27.0735 144.297 25.8463 144.144C25.693 144.144 25.5396 143.837 25.5396 143.683C25.5396 143.53 25.693 143.377 25.8463 143.377C27.2269 143.07 28.4539 142.916 29.8344 142.763H30.1412C31.3684 143.223 32.4421 143.837 33.209 144.604Z" fill="#1CD0C5"/>
<path d="M24.6193 167.153L23.6989 166.999L22.9319 166.846L22.4718 166.693C22.4718 166.232 22.3184 165.926 22.3184 165.619H22.4718L23.2387 165.772L24.0057 165.926L24.4659 166.079C24.4659 166.386 24.6193 166.846 24.6193 167.153Z" fill="#8D67C3"/>
<path d="M24.4658 175.436L24.3124 176.203C24.159 177.123 24.0056 178.044 23.8522 178.964C23.0853 178.657 22.4717 178.351 21.8582 177.89C22.0115 177.277 22.0115 176.51 22.1649 175.743V175.283C23.0852 175.283 23.6988 175.283 24.4658 175.436Z" fill="#19B4EE"/>
<path d="M23.2389 183.873C23.2389 184.18 23.0855 184.64 23.0855 184.947C22.4719 184.64 22.0118 184.18 21.8584 184.026C21.8584 183.566 22.3186 183.566 23.2389 183.873Z" fill="#1CD0C5"/>
<path d="M23.5457 180.805C23.3923 181.265 23.3923 181.879 23.3923 182.339C22.4719 182.032 21.705 181.572 21.3982 181.265C21.3982 180.958 21.5516 180.805 21.5516 180.498C21.8584 180.345 22.6253 180.498 23.5457 180.805Z" fill="#1CD0C5"/>
<path d="M56.2176 110.09C56.0642 110.244 55.7574 110.55 55.604 110.704C55.4506 110.857 55.2973 111.164 54.9905 111.317C54.8371 111.471 54.6837 111.777 54.5303 111.931L54.0701 112.698C53.4566 113.618 52.843 114.692 52.3828 115.766C51.3091 117.913 50.5421 120.061 49.9286 122.362L49.6218 123.129L49.4684 124.049C49.315 124.663 49.1616 125.123 49.0082 125.736C48.7015 126.963 48.5481 128.037 48.2413 129.264V129.418C47.6277 129.264 47.0142 129.111 46.4006 128.958C46.554 127.73 46.8608 126.657 47.1676 125.43C47.321 124.816 47.4743 124.202 47.6277 123.742L47.9345 122.822C48.0879 122.515 48.0879 122.208 48.2413 121.901C49.0082 119.601 49.9286 117.3 51.0023 115.152C51.3091 114.692 51.6159 114.078 51.9227 113.618C52.2295 113.158 52.5362 112.544 52.9964 112.084L53.6099 111.317C53.7633 111.011 54.0701 110.857 54.2235 110.55C54.3769 110.397 54.6837 110.09 54.8371 109.937C54.9905 109.783 55.1438 109.783 55.1438 109.63C55.2972 109.477 55.4506 109.477 55.604 109.323C55.9108 109.17 56.2176 109.17 56.371 109.477C56.5244 109.63 56.5244 109.937 56.2176 110.09Z" fill="#19B4EE"/>
<path d="M69.2558 69.4407C71.5566 67.9068 76.4651 67.6 77.5388 68.9805C78.6126 70.3611 78.3058 72.8154 77.5388 73.2755C76.7719 73.7357 74.7778 72.9688 73.2439 73.2755C71.5566 73.5823 69.5626 74.5027 68.7956 73.4289C67.7219 72.2018 68.3354 69.9009 69.2558 69.4407Z" fill="#8D67C3"/>
<path d="M72.6304 201.36C72.1702 201.36 71.5567 201.206 71.0965 201.206C70.7897 201.206 70.4829 201.206 70.1761 201.053C70.4829 200.133 70.7897 199.366 71.0965 198.599C71.2499 198.138 72.0168 198.292 72.1702 198.752C72.3236 199.519 72.477 200.286 72.6304 201.36Z" fill="#1996EE"/>
<path d="M77.9991 202.28C77.6924 202.127 77.2322 202.127 76.9254 202.127C76.4652 199.672 76.005 197.218 75.6982 194.764C75.6982 194.61 75.8516 194.304 76.005 194.304C76.1584 194.304 76.4652 194.457 76.4652 194.61C76.772 197.218 77.3856 199.672 77.9991 202.28Z" fill="#1CD0C5"/>
<path d="M81.527 196.911C81.6804 198.905 81.8338 201.053 81.9872 203.047C81.6804 202.894 81.2202 202.894 80.9134 202.894C80.9134 202.74 80.9134 202.587 80.9134 202.433C80.76 200.593 80.76 198.905 80.76 197.065C80.76 196.911 80.9134 196.604 81.0668 196.604C81.3736 196.604 81.527 196.758 81.527 196.911Z" fill="#F376A2"/>
<path d="M85.3619 203.814C84.9017 203.661 84.5949 203.661 84.1347 203.507C83.9813 202.434 83.6745 201.36 83.5211 200.439C83.5211 200.286 83.6745 199.979 83.8279 199.979C83.9813 199.979 84.2881 200.133 84.2881 200.286C84.7483 201.513 85.0551 202.74 85.3619 203.814Z" fill="#F376A2"/>
<path d="M91.3439 205.195C90.577 205.041 89.81 204.888 88.8897 204.734V204.581C88.4295 202.587 87.9694 200.746 87.049 198.905C86.5888 197.985 86.1287 197.218 85.5151 196.604C85.2083 196.298 84.9015 195.991 84.5948 195.838C84.4414 195.838 84.4413 195.838 84.288 195.684L84.1346 195.531C83.9812 195.531 83.8278 195.377 83.6744 195.377C83.521 195.224 83.3676 195.224 83.2142 195.071C82.7541 194.764 82.1405 194.304 81.8337 193.843C81.527 193.383 81.2202 192.923 80.9134 192.309C80.4532 191.236 80.1464 190.315 79.6862 189.395C79.3794 188.475 78.9193 187.708 78.3057 187.094C77.6922 186.48 76.9252 186.174 76.0049 185.867C75.6981 185.713 75.3913 185.407 75.5447 185.1C75.6981 184.793 76.0049 184.486 76.3117 184.486C76.9252 184.486 77.3854 184.64 77.999 184.947C78.6125 185.1 79.0727 185.407 79.5329 185.867C80.4532 186.634 81.0668 187.708 81.5269 188.628C81.9871 189.548 82.4473 190.469 82.754 191.389C83.2142 192.156 83.6744 192.923 84.4414 193.23C84.5947 193.23 84.5948 193.383 84.7482 193.383C84.9015 193.383 84.9015 193.537 85.0549 193.537C85.2083 193.537 85.6685 193.69 85.8219 193.843C86.4354 194.15 86.8956 194.61 87.3558 194.917C88.1227 195.838 88.7363 196.758 89.1965 197.832C89.6566 198.752 90.1168 199.826 90.4236 200.9C90.7304 201.973 91.0371 202.894 91.1905 203.967C91.1905 204.428 91.1905 204.734 91.3439 205.195Z" fill="#8D67C3"/>
<path d="M6.51935 117.606C6.36595 117.606 6.21253 117.606 6.05913 117.453C4.83195 117.146 4.2184 116.073 4.3718 114.999C5.44558 115.612 6.05916 116.533 6.51935 117.606Z" fill="#F376A2"/>
</svg>
