<svg width="70" height="231" viewBox="0 0 70 231" fill="none" xmlns="http://www.w3.org/2000/svg">
<path d="M69.4871 130.999C69.7939 126.244 70.8677 102.314 65.9592 98.019C65.8058 97.8656 65.499 97.7122 65.3456 97.5588C66.266 97.252 67.0329 96.6385 67.6465 95.8715C68.5668 94.7977 69.027 93.2638 69.027 90.6561V90.0425L68.8736 89.4289C68.7202 88.6619 68.5668 87.128 68.5668 85.4407C68.5668 84.8271 68.5668 84.3669 68.4134 83.7533C68.26 79.4583 68.1067 74.0895 67.7999 68.1071L67.6465 62.8917V62.1247C67.6465 61.5112 67.6465 60.8976 67.4931 60.1306C67.4931 59.6704 67.4931 59.2103 67.4931 58.7501V57.6763L67.0329 48.1659C67.0329 47.5523 67.0329 46.7853 66.8795 46.0183C66.8795 45.5582 66.8795 45.098 66.7261 44.4844C66.266 37.1215 65.8058 28.6848 65.3456 22.7024V21.9355L65.1922 20.7083C65.0388 19.021 65.0388 17.6404 65.0388 16.72V15.7997C65.0388 14.2657 64.8855 13.3454 64.7321 13.0386L64.2719 11.0445L61.8176 9.8173C61.6642 9.8173 61.6643 9.66391 61.5109 9.66391L60.7439 9.20373C59.3634 8.59015 57.9829 8.12997 56.6024 7.82318C51.0803 5.82905 44.4846 5.06208 39.2693 4.90869C38.8091 2.45438 36.6617 0.613647 34.054 0.613647H33.7472C13.4997 1.68741 6.29037 14.5725 6.29037 26.3839C6.29037 28.6848 6.13699 32.5197 4.90987 37.8885C4.90987 38.0418 4.90987 38.0418 4.90987 38.1952C4.75648 38.6554 4.75647 39.1156 4.75647 39.5758L3.22257 56.6026C3.06918 57.2161 3.06917 57.8297 3.06917 58.4433C2.91578 63.0451 4.14289 68.5673 6.75053 75.0099C5.5234 76.3904 5.06326 78.3845 5.67682 80.2253L5.83017 80.5321L5.98357 80.6854C5.98357 80.8388 6.13697 80.8388 6.13697 80.9922C6.59714 83.2931 6.44376 85.7475 6.29037 87.5882C5.98359 89.8891 5.37002 91.5764 5.37002 91.5764L5.06322 92.3434V94.7977L5.52342 95.5647C4.2963 98.019 4.29631 102.467 5.67682 115.353L5.83017 117.193C5.83017 117.653 5.98358 118.114 6.13697 118.574C6.13697 118.727 5.98357 118.881 5.98357 119.034C5.83018 119.341 5.67681 119.648 5.52342 120.108C4.60308 122.102 3.8361 124.71 3.52932 127.164C3.37593 128.238 3.22258 129.772 3.37597 131.306V131.612C3.37597 132.686 3.68271 133.606 4.29627 134.527C3.98949 135.447 3.98949 136.521 4.29627 137.441V137.595L4.90987 139.282V139.435C5.37004 140.509 6.29037 142.197 7.82428 143.73C7.67089 144.191 7.67088 144.651 7.67088 145.111C7.67088 145.111 7.67087 148.946 5.98357 152.627L5.83017 152.781V152.934C5.37 154.468 5.52341 156.002 6.13697 157.229C5.98358 157.689 5.83021 157.996 5.67682 158.456C5.37004 159.377 5.37004 160.297 5.67682 161.217C4.4497 162.138 3.68272 163.672 3.68272 165.512V165.819V165.973C3.83611 168.58 4.44966 177.631 2.76237 187.448L1.84207 191.896C1.68868 192.51 1.53526 192.97 1.38187 193.43C1.22848 194.044 1.0751 194.504 0.921715 195.118C0.154763 197.725 1.68864 200.793 4.29627 201.56L4.60307 201.714C4.1429 203.708 4.90987 205.702 6.44377 207.082L6.59713 207.236C7.51747 207.849 8.43783 208.77 9.20478 209.69L9.35818 209.843C10.2785 210.764 11.0455 211.684 11.659 212.451C11.8124 212.758 11.9658 213.065 12.1192 213.372L12.2726 213.678C15.6472 221.655 24.0836 230.858 36.6616 230.858C47.8591 230.858 52.3074 218.74 55.0685 211.684C55.682 209.997 56.449 207.849 56.9092 207.082C58.1363 206.009 58.9032 205.242 59.5168 204.628C59.8235 204.321 60.1303 204.014 60.2837 203.554C66.4193 201.714 67.7999 193.89 68.26 186.374V186.221V186.067C68.26 183.153 68.26 180.238 68.1066 177.324C67.9532 172.569 67.3397 164.746 65.8058 153.855V153.394L65.6524 153.088C65.499 152.474 65.1922 152.014 64.8854 151.554C65.1922 151.093 65.499 150.633 65.8058 150.173C67.9532 147.105 69.027 140.509 69.4871 130.999Z" fill="white"/>
<path d="M56.1421 200.64C52.921 201.407 45.2515 202.787 31.7531 202.941C27.6116 202.941 23.0099 202.941 17.7946 202.634C16.1073 202.481 14.42 202.48 12.5794 202.327C11.659 202.327 10.8921 202.174 9.97172 202.174H9.81832C8.89798 202.174 8.43781 203.247 9.20477 203.861C10.2785 204.628 11.5056 205.702 12.5794 206.929C13.6531 208.003 14.7268 209.23 15.4938 210.457C15.8005 211.071 16.2607 211.531 16.4141 212.144C18.5616 217.206 25.1573 226.717 36.815 226.717C48.4726 226.717 50.7735 207.236 53.9947 204.168C55.2218 203.094 55.9887 202.327 56.6023 201.714C57.0625 201.253 56.7557 200.486 56.1421 200.64ZM34.2073 111.211C34.0539 111.211 33.9006 111.058 33.7472 111.058C33.287 110.904 32.8269 110.444 32.5201 109.984C30.2192 106.609 31.4463 97.7122 32.2133 94.4909C32.3667 94.0308 32.0599 93.4172 31.4463 93.4172C30.9862 93.2638 30.3726 93.5706 30.3726 94.1842V94.3375C30.2192 94.6443 30.0658 95.7181 29.9124 96.9452C29.2989 100.78 28.8387 107.683 30.9862 111.058C31.7531 112.131 32.6735 112.898 33.9006 113.052H34.054C34.5141 113.052 34.8209 112.745 34.9743 112.438C34.9743 112.438 34.9743 112.438 34.9743 112.285C35.1277 111.671 34.8209 111.211 34.2073 111.211ZM34.054 4.90869C11.5056 6.13585 10.7387 22.8558 10.7387 26.2305C10.8921 32.5197 9.20477 38.9622 9.20477 39.1156C9.05137 39.5758 9.35815 40.1894 9.81832 40.1894C9.97171 40.1894 9.97172 40.1894 10.1251 40.1894C10.5853 40.1894 10.8921 39.8826 11.0455 39.4224C11.0455 39.1156 12.7328 32.6731 12.5794 26.0771C12.426 21.7821 13.8065 8.12997 33.5938 6.74942C33.7472 6.74942 33.9006 6.74942 34.054 6.74942H34.2073C34.6675 6.59603 34.9743 6.28924 34.9743 5.82906C34.9743 5.21548 34.5141 4.90869 34.054 4.90869ZM9.81832 165.359C9.81832 164.899 9.35817 164.439 8.74461 164.439C8.28444 164.439 7.82426 164.899 7.82426 165.512C7.82426 165.666 8.89798 176.25 6.90391 188.368C6.59713 189.902 6.29034 191.436 5.98356 192.97C5.67678 194.197 5.36999 195.271 5.06321 196.498C4.90982 196.958 5.21664 197.572 5.67681 197.725C5.8302 197.725 5.83017 197.725 5.98356 197.725C6.44373 197.725 6.75052 197.418 6.90391 196.958C7.0573 196.652 7.05732 196.345 7.21071 196.038C7.51749 194.657 7.97763 193.277 8.13102 191.896C11.0454 178.244 9.81832 165.512 9.81832 165.359ZM63.9651 177.631C63.5049 167.353 61.971 156.769 61.6642 154.621C61.5108 154.161 61.0506 153.701 60.5904 153.855C60.1303 154.008 59.6701 154.468 59.8235 154.928C62.2777 170.574 64.1184 196.038 58.5964 197.725C58.1362 197.879 57.8294 198.339 57.9828 198.952C58.1362 199.413 58.443 199.566 58.9031 199.566C59.0565 199.566 59.0566 199.566 59.2099 199.566C62.4311 198.646 63.6582 193.123 64.1184 186.221C64.1184 183.46 64.1184 180.545 63.9651 177.631ZM12.7327 144.037C12.2725 144.037 11.8124 144.497 11.8124 144.958C11.8124 144.958 11.8124 149.559 9.66492 154.315C9.51153 154.775 9.66494 155.388 10.1251 155.542C10.2785 155.542 10.4319 155.695 10.4319 155.695C10.7386 155.695 11.1988 155.542 11.3522 155.082C13.6531 149.866 13.6531 145.111 13.6531 144.958C13.6531 144.497 13.3463 144.037 12.7327 144.037ZM12.426 81.6058C12.2726 80.9922 12.2726 80.3787 12.1192 79.7651C11.9658 79.3049 11.8124 78.6913 11.659 78.2311C11.5056 77.9244 11.1988 77.6176 10.7387 77.6176C10.5853 77.6176 10.4319 77.6176 10.4319 77.6176C9.9717 77.771 9.66493 78.3845 9.81832 78.8447C9.97171 79.1515 9.97172 79.3049 10.1251 79.6117C10.8921 82.5262 10.7386 85.5941 10.4319 88.2018C9.9717 91.1163 9.20477 93.1104 9.20477 93.1104C9.20477 93.2638 9.20477 93.4172 9.20477 93.724C9.35816 94.0308 9.51154 94.3375 9.81832 94.3375C9.97171 94.3375 9.97172 94.3375 10.1251 94.3375C10.5853 94.3375 10.8921 94.0308 11.0455 93.724V93.5706C11.1989 92.957 11.9658 90.9629 12.2726 88.3552C12.5793 86.361 12.7327 83.9067 12.426 81.6058ZM24.237 75.7768C23.7768 75.7768 23.3167 76.0836 23.1633 76.6972C23.1633 76.6972 23.1633 77.6176 23.0099 78.8447C23.0099 79.1515 22.8565 79.4583 22.8565 79.9185C22.5497 81.9126 22.2429 84.8271 21.7828 87.7416C21.6294 88.5086 21.476 89.4289 21.3226 90.1959C21.1692 90.6561 21.1692 91.1163 21.0158 91.423C20.8624 92.0366 20.709 92.6502 20.5556 93.2638C20.2488 94.1841 20.0955 95.1045 19.7887 96.0249C19.7887 96.1783 19.7887 96.1783 19.7887 96.3317C19.7887 96.7918 20.0954 97.0986 20.4022 97.252C20.5556 97.252 20.5556 97.252 20.709 97.252C21.1692 97.252 21.476 96.9452 21.6294 96.6385C21.7828 96.1783 21.9361 95.7181 22.0895 95.4113C22.2429 94.7977 22.3963 94.1842 22.5497 93.4172C22.7031 92.957 22.8565 92.4968 22.8565 91.8832C23.0099 90.9629 23.1632 90.0425 23.47 89.2755C23.6234 88.5086 23.7768 87.7416 23.9302 86.9746C23.9302 86.6678 24.0836 86.361 24.0836 85.9009C24.3904 83.5999 24.6972 81.6058 24.8506 79.9185C24.8506 79.4583 25.0039 78.9981 25.0039 78.6913C25.1573 77.6176 25.1573 77.004 25.1573 76.8506C25.1573 76.237 24.6971 75.7768 24.237 75.7768ZM11.1988 120.108C10.7386 119.801 10.1251 119.954 9.97172 120.415C9.97172 120.568 9.66494 121.028 9.35816 121.795C8.7446 123.022 7.97764 125.17 7.67086 127.624C7.51747 128.698 7.36407 129.772 7.51746 130.845C7.51746 130.999 7.51746 131.152 7.51746 131.459C7.51746 131.919 7.97764 132.379 8.43781 132.379C8.5912 132.379 8.59122 132.379 8.74461 132.379C9.05139 132.226 9.35816 131.919 9.35816 131.459C9.35816 130.845 9.35816 130.232 9.35816 129.465C9.51155 127.164 10.1251 125.17 10.5853 123.789C10.892 123.022 11.0454 122.562 11.3522 122.102C11.5056 121.795 11.659 121.488 11.659 121.488C11.8124 120.875 11.659 120.415 11.1988 120.108ZM39.1158 162.138C36.9684 160.144 17.6412 159.99 17.6412 164.285C17.6412 165.052 17.948 165.666 18.4082 166.279C19.6353 167.66 22.0896 168.58 25.6175 168.887C27.1514 169.041 28.6853 169.041 30.526 169.041C38.1955 168.887 41.2633 164.285 39.1158 162.138ZM45.865 159.377C45.5582 158.763 42.7972 153.855 27.1514 153.855C11.3522 153.855 9.81831 159.07 9.66492 159.684C9.51153 160.144 9.81831 160.604 10.4319 160.757C10.892 160.911 11.5056 160.604 11.5056 160.144C11.5056 160.144 12.8861 155.849 27.1514 155.849C41.5701 155.849 44.0243 160.297 44.0243 160.297C44.1777 160.604 44.4845 160.911 44.9446 160.911C45.098 160.911 45.2514 160.911 45.4048 160.757C46.0184 160.45 46.1718 159.837 45.865 159.377ZM63.0447 101.24C61.204 99.7063 59.3633 98.4792 57.9828 98.019C56.9091 97.7122 56.1421 97.7122 55.3752 98.4792C55.0684 98.786 55.0684 100.013 55.2218 101.7C55.8354 107.683 58.5964 119.954 53.2277 123.636C51.5404 124.863 48.7794 126.397 45.5582 127.931C44.3311 128.544 43.104 129.158 41.7235 129.618C36.5082 131.766 30.0658 133.76 23.47 134.527C22.5497 134.68 21.6294 134.68 20.709 134.68C18.8683 134.834 17.0277 134.68 15.187 134.527C13.6531 134.373 12.1192 134.22 10.5853 133.913C10.4319 133.913 10.2785 133.913 10.2785 133.913C9.05139 133.913 7.97763 134.987 8.28442 136.214C8.43781 136.674 8.59122 137.135 8.74461 137.595C9.51156 139.435 11.1988 141.583 14.42 142.503C15.9539 142.964 17.948 143.27 20.4022 143.117C33.7472 142.35 41.2633 143.577 43.4107 142.35C45.5582 141.123 46.7853 139.589 49.0862 139.589C51.387 139.589 53.9947 149.559 60.4371 149.559C61.0506 149.559 61.6642 149.099 62.1244 148.179C63.8116 145.418 64.732 138.362 65.0388 130.692C65.8057 117.653 64.8854 102.621 63.0447 101.24ZM16.1073 95.7181C13.4997 95.7181 10.1251 96.0249 9.20477 97.4054C7.97764 99.2462 9.35816 110.751 9.97172 116.58C10.1251 117.807 11.8124 118.267 12.5794 117.193C14.42 114.739 16.7209 111.211 17.3344 108.296C17.948 105.382 18.5615 101.547 18.8683 98.9394C19.3285 97.252 17.948 95.7181 16.1073 95.7181ZM63.9651 83.7533C63.8117 78.2311 63.5049 70.8682 63.1981 62.8917C63.1981 62.5849 63.1981 62.2781 63.1981 61.9714C63.1981 60.8976 63.0447 59.6704 63.0447 58.5967C63.0447 58.2899 63.0447 57.9831 63.0447 57.6763C62.8913 54.455 62.7379 51.3871 62.5845 48.1659C62.5845 47.5523 62.5845 46.9387 62.4311 46.3251C62.4311 45.865 62.4311 45.4048 62.2778 44.9446C62.2778 44.7912 62.2778 44.6378 62.2778 44.6378C61.8176 36.2011 61.3574 28.378 60.8972 22.7024C60.8972 22.3956 60.8972 22.2422 60.8972 21.9355C60.7439 19.7879 60.5904 17.9472 60.5904 16.5667C60.5904 16.2599 60.5904 15.9531 60.5904 15.6463C60.5904 14.5725 60.4371 13.959 60.4371 13.959C60.1303 13.8056 59.8235 13.6522 59.5167 13.4988C59.3633 13.3454 59.0565 13.3454 58.9031 13.192C56.9091 12.2716 54.4549 11.8114 52.3074 11.5046C52.0006 11.5046 51.8472 11.5046 51.5404 11.3512C50.6201 11.1979 49.5463 11.1979 48.7794 11.1979C47.2455 11.1979 46.4785 12.8852 47.3989 13.959C49.2396 15.9531 50.6201 18.5608 51.8472 21.4753C52.0006 21.6287 52.0006 21.9355 52.154 22.0888C52.6142 23.1626 52.9209 24.3898 53.3811 25.6169C53.3811 25.7703 53.5345 26.0771 53.5345 26.2305C53.9947 27.7644 54.3015 29.2984 54.6082 30.8323C54.6082 31.1391 54.7616 31.2925 54.7616 31.5993C55.5286 36.0477 55.682 40.4962 55.5286 44.0242C55.3752 46.4785 54.915 48.3193 54.148 49.393C53.8413 49.6998 53.6879 50.0066 53.3811 50.3134C50.9269 52.1541 46.632 50.16 41.5701 47.2455C40.343 46.4785 38.9624 46.0184 37.4285 45.5582C36.048 45.2514 34.5141 44.9446 32.8268 44.7912C24.8505 44.1776 15.3404 46.4785 10.2785 51.3872C4.44969 57.2161 9.05138 69.1809 10.8921 73.6293C11.3522 74.7031 11.659 75.1633 11.659 75.1633C11.8124 75.1633 11.8124 75.3167 11.9658 75.3167C14.42 76.6972 20.8624 76.5438 23.9302 74.2429C24.3904 73.9361 24.6971 73.4759 25.0039 73.1691C25.1573 73.0157 25.1573 72.709 25.3107 72.5556C26.3845 69.9479 25.9243 65.1926 25.3107 62.1247C25.3107 61.9714 25.3107 61.818 25.1573 61.6646C25.0039 61.2044 25.1573 60.7442 25.3107 60.4374C25.6175 59.3637 26.8446 58.4433 28.0717 58.5967C28.2251 58.5967 28.3785 58.5967 28.5319 58.5967C29.1455 58.7501 29.759 59.0569 30.0658 59.6704C30.2192 59.9772 30.3726 60.284 30.526 60.5908C30.6794 61.051 30.6794 61.3578 30.8328 61.818C30.9862 62.4315 31.1395 62.8917 31.1395 63.3519C31.7531 66.113 31.9065 68.7207 31.9065 71.175C31.9065 71.6352 31.9065 71.942 31.9065 72.4022C31.9065 73.4759 31.7531 74.5497 31.7531 75.6234C31.7531 76.3904 31.5997 77.004 31.5997 77.6176C31.1396 82.2194 30.6794 84.9805 32.9802 85.1339C34.5141 85.2873 35.7413 83.9067 36.9684 81.9126C37.1218 81.6058 37.4285 81.1456 37.5819 80.8388C38.1955 79.7651 38.6557 78.5379 39.1158 77.3108C39.2692 76.6972 39.576 76.237 39.7294 75.6234C40.3429 73.9361 40.9565 72.5556 41.7235 71.4818C42.0303 71.0216 42.1837 70.7148 42.4904 70.5614C42.6438 70.408 42.7972 70.408 42.7972 70.2546C44.6379 69.0275 48.9328 68.7207 52.7675 69.1809C53.0743 69.1809 53.2277 69.1809 53.5345 69.3343C56.7557 69.7945 59.5167 70.7148 60.4371 71.7886C62.5845 74.7031 59.6701 80.6855 59.3633 84.3669C59.3633 84.9805 59.3633 85.5941 59.5167 86.2076C59.9769 88.662 61.204 91.5764 62.5845 92.8036C63.1981 93.4172 63.8116 93.5706 64.2718 92.957C64.4252 92.8036 64.5786 91.8832 64.5786 90.5027C64.1184 88.9687 64.1184 86.6678 63.9651 83.7533Z" fill="#1E1C31"/>
<path d="M12.2725 88.3552C11.9657 90.9629 11.1988 92.957 11.0454 93.5706C10.4319 93.5706 9.81827 93.724 9.20471 93.724C9.20471 93.5706 9.20471 93.4172 9.20471 93.1104C9.20471 93.1104 9.97165 90.9629 10.4318 88.2018C11.0454 88.2018 11.659 88.3552 12.2725 88.3552Z" fill="#19B4EE"/>
<path d="M22.5497 93.4171C22.3963 94.0307 22.2429 94.7976 22.0895 95.4112C21.7827 95.1044 21.6294 94.7976 21.3226 94.3375C21.0158 94.0307 20.8624 93.7239 20.5557 93.2637C20.709 92.6501 20.8625 92.0366 21.0158 91.423C21.0158 91.423 21.0158 91.423 21.1692 91.5764C21.476 92.1899 21.9361 92.8035 22.5497 93.4171Z" fill="#4263A8"/>
<path d="M20.4022 97.252C19.942 97.0986 19.7886 96.7918 19.6353 96.3317C19.942 96.6385 20.0954 96.9452 20.4022 97.252Z" fill="#8D67C3"/>
<path d="M23.3167 89.2756C23.1633 90.1959 23.0098 91.1163 22.703 91.8833C22.5496 91.8833 22.5497 91.7299 22.3963 91.7299C22.2429 91.5765 21.9361 91.2697 21.7827 91.1163L21.3225 90.6561L21.0157 90.3493C21.1691 89.5824 21.3225 88.662 21.4759 87.895C21.7827 87.895 21.9361 88.0484 22.0895 88.2018L23.3167 89.2756Z" fill="#1996EE"/>
<path d="M30.9862 96.3317C30.6794 96.7919 30.2192 96.9453 29.759 96.7919C29.9124 95.5647 30.0658 94.491 30.2192 94.1842L30.6794 94.491C31.2929 94.9512 31.4463 95.7181 30.9862 96.3317Z" fill="#1996EE"/>
<path d="M23.9302 85.9008C23.9302 86.2076 23.7768 86.5144 23.7768 86.9746C23.6234 86.8212 23.3166 86.6678 23.1632 86.6678C23.0098 86.5144 22.8564 86.2076 23.0098 86.0542C23.1632 85.9008 23.47 85.7474 23.6234 85.9008C23.7768 85.7474 23.9302 85.7474 23.9302 85.9008Z" fill="#1CD0C5"/>
<path d="M11.1987 121.948C11.0453 122.255 10.7386 122.869 10.4318 123.636C9.9716 123.022 9.51144 122.409 9.05127 121.795C9.35805 121.028 9.66482 120.568 9.66482 120.415L9.81822 120.568C10.4318 121.028 10.8919 121.488 11.1987 121.948Z" fill="#4263A8"/>
<path d="M23.47 134.527C23.47 134.527 23.47 134.68 23.3166 134.68C22.7031 135.447 21.7827 135.601 21.0158 134.987C21.0158 134.987 20.8624 134.987 20.8624 134.834L20.709 134.68C21.6293 134.68 22.5496 134.527 23.47 134.527Z" fill="#4263A8"/>
<path d="M27.6116 50.1599C27.765 49.5464 28.3785 48.9328 28.9921 48.7794C29.1455 48.7794 29.1455 48.7794 29.2989 48.7794H29.4523C29.6057 48.7794 29.759 48.7794 29.759 48.626L30.526 48.4726C30.8328 48.4726 31.1396 48.3192 31.4463 48.3192C31.5997 48.3192 31.7531 48.3192 31.9065 48.3192C32.0599 48.3192 32.0599 48.3192 32.2133 48.3192C32.3667 48.3192 32.3667 48.3192 32.5201 48.3192C33.1337 48.4726 33.5938 48.9328 34.054 49.2396C34.054 49.2396 34.054 49.393 34.054 49.5464H33.9006C33.2871 49.393 32.8269 49.2396 32.3667 49.2396H32.2133H32.0599C31.9065 49.2396 31.9065 49.2396 31.7532 49.2396C31.4464 49.2396 31.293 49.393 30.9862 49.393C30.6794 49.393 30.3726 49.5464 30.0658 49.5464C29.9124 49.5464 29.759 49.5464 29.6056 49.5464H29.2989H29.1455C28.6853 49.5464 28.2252 49.6998 27.9184 50.0065C27.765 50.0065 27.765 50.0065 27.6116 50.0065C27.6116 50.3133 27.6116 50.3133 27.6116 50.1599Z" fill="#F376A2"/>
<path d="M42.1835 61.818C41.7233 62.8918 40.9564 63.9655 40.0361 64.5791C39.7293 64.7325 39.4225 64.7325 39.2691 64.4257C39.1157 64.2723 39.1157 63.9655 39.2691 63.8121C40.4962 62.2782 40.9564 60.2841 40.6496 58.4433C40.4962 57.523 40.1894 56.6026 39.7293 55.8356C39.4225 55.3754 39.2691 55.0687 38.9623 54.7619L38.3488 54.1483C38.1954 53.9949 37.8886 53.6881 37.7352 53.5347C36.9683 52.6143 36.3547 51.5406 36.0479 50.3134C35.8945 49.6998 35.7412 49.2397 35.5878 48.6261C35.4344 48.1659 35.281 47.5523 35.281 47.2455C35.281 47.0921 35.1276 46.9388 35.1276 46.9388C35.1276 46.9388 35.1276 46.9388 34.9742 46.9388L34.8208 46.7854C34.5141 46.632 34.0539 46.4786 33.5937 46.4786C32.6734 46.3252 31.5996 46.4786 30.5259 46.632C30.2191 46.632 30.0657 46.4786 29.9124 46.1718C29.9124 46.0184 30.0658 45.7116 30.2192 45.7116C30.8327 45.4048 31.4462 45.2514 32.2132 45.098C33.7471 45.2514 35.281 45.4048 36.8149 45.865C37.1217 46.1718 37.1216 46.4786 37.275 46.632C37.5818 47.2455 37.7352 47.8591 37.8886 48.3193C38.042 48.7795 38.1954 49.2397 38.3488 49.6999C38.6556 50.6202 39.1157 51.3872 39.7293 52.1542C39.8827 52.3076 40.0361 52.4609 40.1895 52.6143L40.803 53.2279C41.2632 53.6881 41.5699 54.3017 41.8767 54.7619C42.4903 55.8356 42.7971 57.0628 42.7971 58.2899C42.7971 59.3637 42.6437 60.5908 42.1835 61.818Z" fill="#1CD0C5"/>
<path d="M28.3785 46.632C28.3785 46.632 28.2251 46.632 28.0717 46.7854C27.9183 46.7854 27.9183 46.9388 27.765 46.9388C27.6116 47.0922 27.4582 47.0922 27.3048 47.2456C27.1514 47.399 26.998 47.5523 26.8446 47.7057C26.6912 47.8591 26.5379 48.0125 26.3845 48.1659C25.7709 48.7795 25.3107 49.5465 24.8506 50.3134C24.6972 50.7736 24.3904 51.0804 24.237 51.5406L23.6234 52.7678C23.47 53.2279 23.1633 53.5347 22.8565 53.9949C22.5497 54.4551 22.3963 54.7619 22.0895 55.2221C21.9362 55.3755 21.7828 55.3755 21.7828 55.2221C21.7828 55.2221 21.6294 55.0687 21.6294 54.9153C21.7828 53.9949 22.0896 53.0745 22.3963 52.1542C22.7031 51.2338 23.1633 50.4668 23.7768 49.6999C24.237 48.9329 24.8506 48.1659 25.6175 47.5523C25.7709 47.399 25.9243 47.2456 26.2311 47.0922C26.3845 46.9388 26.6912 46.7854 26.8446 46.632C26.998 46.4786 27.3048 46.4786 27.6116 46.3252C27.7649 46.3252 27.9183 46.3252 28.0717 46.3252C28.2251 46.3252 28.3785 46.3252 28.5319 46.3252C28.6853 46.3252 28.6853 46.4786 28.6853 46.632C28.5319 46.4786 28.5319 46.4786 28.3785 46.632Z" fill="#19B4EE"/>
<path d="M52.6141 25.7702C53.2276 25.4635 53.6878 25.1567 54.3014 25.0033C54.9149 24.8499 55.5285 24.6965 56.1421 24.5431C56.7556 24.5431 57.5226 24.5431 58.2895 24.8499C58.5963 25.0033 58.9031 25.3101 59.2099 25.6169C59.3633 25.9236 59.67 26.3838 59.67 26.6906C59.67 26.844 59.67 26.9974 59.8234 27.3042C59.8234 27.4576 59.8234 27.611 59.8234 27.7644C59.8234 28.0712 59.8234 28.5313 59.67 28.8381C59.5166 29.6051 58.9031 30.2187 58.4429 30.6789C57.8294 31.139 57.2158 31.2924 56.4488 31.4458C55.8353 31.5992 55.2217 31.5992 54.4548 31.4458C54.148 31.4458 53.9946 31.139 53.9946 30.8323C53.9946 30.5255 54.148 30.3721 54.4548 30.3721C55.5285 30.2187 56.7556 29.9119 57.5226 29.2983C57.8294 28.9915 58.1361 28.6847 58.2895 28.2246C58.2895 28.0712 58.4429 27.7644 58.4429 27.4576C58.4429 27.1508 58.4429 26.9974 58.4429 26.6906C58.2895 26.2304 58.1362 25.9236 57.8294 25.6169C57.5226 25.3101 56.909 25.3101 56.4488 25.3101C55.3751 25.3101 54.148 25.4635 53.0743 25.7702C52.9209 25.7702 52.7675 25.7702 52.7675 25.6169C52.3073 25.9236 52.4607 25.7702 52.6141 25.7702Z" fill="#1CD0C5"/>
<path d="M62.2777 48.1659C60.8972 49.6998 59.0566 50.6202 57.8295 50.6202C56.2956 50.6202 54.7617 48.7795 54.7617 48.7795C54.3015 47.5523 55.3752 47.3989 57.2159 47.3989C58.443 47.5523 60.2836 45.5582 61.3574 44.331C61.6641 44.0243 61.9709 44.1777 62.1243 44.4844C62.1243 44.6378 62.2777 44.6378 62.1243 44.7912C61.9709 45.4048 60.2837 46.7854 60.1303 47.2455C59.9769 47.3989 60.2836 47.5523 60.437 47.3989C60.7438 47.0921 61.5108 46.9387 62.2777 46.1718C62.2777 46.9387 62.2777 47.5523 62.2777 48.1659Z" fill="#4263A8"/>
<path d="M55.5286 57.2162C55.3752 57.3696 55.2218 57.3696 55.0684 57.2162C54.6082 56.9094 54.1481 56.4492 53.8413 55.8356C53.5345 55.3754 53.3812 54.7619 53.2278 54.1483C53.0744 53.0745 53.0744 51.8474 52.921 50.927C52.921 50.7736 52.7676 50.4668 52.7676 50.3134C53.0744 50.16 53.3811 49.8532 53.5345 49.3931C53.6879 49.8532 53.8413 50.3134 53.8413 50.6202C53.9947 51.8474 53.8413 52.9211 53.9947 53.9949C53.9947 54.4551 54.1481 55.0687 54.4548 55.5288C54.6082 55.989 54.915 56.2958 55.3752 56.756C55.5286 56.9094 55.5286 57.0628 55.5286 57.2162Z" fill="#19B4EE"/>
<path d="M62.8913 58.5966C62.8913 58.5966 62.8913 58.75 62.8913 58.5966C62.7379 58.75 62.4312 58.75 62.4312 58.5966C62.2778 58.4432 62.2778 58.2898 62.4312 58.2898C62.5846 58.1365 62.7379 57.8297 62.8913 57.6763C62.8913 57.9831 62.8913 58.2898 62.8913 58.5966Z" fill="#1996EE"/>
<path d="M53.5345 67.3401C53.5345 68.1071 53.3812 68.8741 53.0744 69.4876C52.7676 69.4876 52.6142 69.4876 52.3074 69.3342C52.7676 68.7207 52.921 67.9537 52.7676 67.3401C52.7676 66.5731 52.4608 65.8062 52.154 65.1926C51.8472 64.579 51.3871 63.8121 50.9269 63.1985C50.4667 62.5849 50.0066 61.9713 49.393 61.3577C49.0862 61.051 48.9328 60.7442 48.626 60.4374C48.3193 60.1306 48.1658 59.6704 48.0124 59.2102C47.8591 58.75 47.7057 58.2899 47.7057 57.8297C47.7057 57.3695 47.8591 56.9093 48.1658 56.4491C48.4726 55.9889 48.7794 55.6822 49.0862 55.3754C49.393 55.0686 49.8531 54.7618 50.3133 54.6084C50.6201 54.455 51.0803 54.6084 51.2337 54.9152C51.3871 55.222 51.2337 55.6822 50.9269 55.8356C50.6201 55.9889 50.3133 56.1423 50.0066 56.2957C49.6998 56.4491 49.5464 56.7559 49.393 57.0627C49.2396 57.3695 49.0862 57.6763 49.0862 57.9831C49.0862 58.2899 49.0862 58.5966 49.2396 58.9034C49.393 59.2102 49.5464 59.517 49.6998 59.8238C49.8532 60.1306 50.1599 60.4374 50.4667 60.7442C50.9269 61.3577 51.3871 61.9713 51.8472 62.7383C52.3074 63.3519 52.7676 64.1188 53.0744 64.8858C53.2278 65.6528 53.3812 66.4198 53.5345 67.3401Z" fill="#8D67C3"/>
<path d="M28.532 53.0745C28.532 53.2279 28.3786 53.2279 28.3786 53.3813L28.2252 53.5347C28.2252 53.6881 28.0718 53.8415 27.9184 53.9949C27.765 54.3017 27.6116 54.4551 27.4582 54.7619C27.1515 55.222 26.6913 55.6822 26.2311 55.989C25.4642 56.756 24.5438 57.3696 23.4701 57.9831C22.5497 58.4433 21.476 58.9035 20.5557 59.2103C20.0955 59.3637 19.6353 59.6705 19.1752 59.8239C18.715 60.1307 18.4082 60.2841 18.1014 60.5908C17.4879 61.2044 17.0277 62.1248 16.8743 63.0451C16.7209 63.9655 16.7209 64.8859 17.0277 65.8062C17.3345 66.7266 17.9481 67.4936 18.715 68.2606C19.482 69.0275 20.2489 69.6411 21.0159 70.1013C21.1693 70.1013 21.1693 70.2547 21.0159 70.4081C21.0159 70.5615 20.8625 70.5615 20.7091 70.4081C19.7887 69.9479 18.8684 69.3343 18.1014 68.5673C17.3345 67.8004 16.5675 67.0334 16.1074 65.9596C15.954 65.6529 15.8006 65.4995 15.8006 65.1927L15.6472 64.7325C15.6472 64.5791 15.6472 64.4257 15.6472 64.2723V63.8121C15.6472 63.6587 15.6472 63.5053 15.6472 63.3519V62.8918C15.6472 62.7384 15.6472 62.585 15.6472 62.4316C15.8006 61.3578 16.2608 60.1307 17.0277 59.3637C17.4879 58.9035 17.9481 58.5967 18.4082 58.2899C18.8684 57.9831 19.3286 57.6763 19.7887 57.523C20.7091 57.0628 21.6294 56.6026 22.5498 56.1424C23.3167 55.6822 24.0837 55.0686 24.6972 54.3017C25.004 53.9949 25.3108 53.5347 25.6176 53.2279C25.771 53.0745 25.9243 52.7677 25.9243 52.6143C25.9243 52.4609 26.0777 52.4609 26.0777 52.3075V52.1542V52.0008C26.0777 51.3872 26.5379 50.927 27.1515 50.927C27.765 50.927 28.2252 51.3872 28.2252 52.0008C28.2252 52.1542 28.2252 52.3076 28.0718 52.4609L28.532 53.0745Z" fill="#1996EE"/>
<path d="M23.7768 72.8623C24.0836 72.8623 24.3904 72.7089 24.6971 72.7089C24.5438 72.8623 24.5437 73.1691 24.3903 73.3225C24.0836 73.7827 23.7768 74.0895 23.3166 74.3963C22.7031 74.5497 21.9361 74.5497 21.3225 74.5497C20.4022 74.5497 19.3285 74.3963 18.4081 74.0895C17.948 73.9361 17.4878 73.6293 17.181 73.3225C16.8742 73.0157 16.4141 72.5555 16.2607 72.0953C15.9539 71.6352 15.8005 71.175 15.8005 70.7148C15.6471 70.2546 15.6471 69.7944 15.8005 69.3343C15.8005 69.1809 15.9539 69.0275 16.1073 69.0275C16.2607 69.0275 16.4141 69.1809 16.4141 69.3343C16.4141 70.1012 16.7208 71.0216 17.181 71.6352C17.3344 71.942 17.6412 72.2487 17.948 72.5555C18.2548 72.7089 18.5615 73.0157 19.0217 73.1691C19.7886 73.4759 20.5556 73.4759 21.4759 73.4759C21.9361 73.1691 22.8564 73.0157 23.7768 72.8623Z" fill="#1996EE"/>
<path d="M34.6675 72.8623C34.5141 73.0157 34.3607 73.1691 34.2073 73.0157C33.2869 72.7089 32.3666 72.5555 31.2928 72.5555C31.2928 72.0953 31.2928 71.7886 31.2928 71.3284C32.3666 71.4818 33.4403 71.7886 34.3607 72.2487C34.6675 72.4021 34.6675 72.7089 34.6675 72.8623Z" fill="#1996EE"/>
<path d="M24.8505 78.6913C24.8505 78.9981 24.6971 79.4583 24.6971 79.9184C24.2369 79.9184 23.6234 79.9184 23.0098 79.9184C22.8564 79.9184 22.8564 79.9184 22.703 79.9184C22.703 79.6116 22.8564 79.1515 22.8564 78.8447C23.0098 78.8447 23.0098 78.8447 23.0098 78.8447C23.7768 78.8447 24.237 78.8447 24.8505 78.6913Z" fill="#4263A8"/>
<path d="M36.8149 80.9923C36.6615 81.2991 36.5081 81.7593 36.2013 82.0661C36.0479 82.0661 36.0479 82.0661 35.8945 82.0661C35.281 82.0661 34.6674 81.9127 34.0539 81.6059C33.9005 81.6059 33.9005 81.4525 34.0539 81.2991C34.0539 81.1457 34.2072 81.1457 34.2072 81.1457C35.281 81.4525 36.0479 81.4525 36.8149 80.9923Z" fill="#4263A8"/>
<path d="M38.9624 75.9302C38.809 76.5438 38.5022 77.004 38.3489 77.6176C38.3489 77.6176 38.3488 77.4642 38.1955 77.4642C38.0421 77.3108 37.8887 77.1574 37.7353 77.004C37.5819 76.8506 37.5819 76.8506 37.4285 76.8506L37.1218 76.6972C36.3548 76.237 35.4344 76.0836 34.3607 76.3904C33.4404 76.6972 32.3667 77.004 31.4463 77.6176C31.2929 77.771 31.1395 77.771 30.8328 77.9243C30.8328 77.3108 30.9862 76.6972 30.9862 75.9302C31.9065 75.47 32.8268 75.0099 33.9006 74.7031C35.1277 74.3963 36.6616 74.5497 37.7353 75.3166L38.1955 75.6234C38.3488 75.7768 38.5023 75.7768 38.6557 75.9302C38.9624 75.7768 38.9624 75.7768 38.9624 75.9302Z" fill="#4263A8"/>
<path d="M11.0455 75.3166C11.0455 75.3166 10.7387 74.7031 10.2786 73.7827C10.5853 73.4759 10.7387 73.1691 11.0455 72.8623C11.3523 72.5555 11.659 72.2488 11.9658 71.942C12.2726 71.6352 12.5794 71.4818 13.0395 71.175C13.4997 70.8682 14.1133 71.0216 14.42 71.4818C14.7268 71.942 14.5735 72.5555 14.1133 72.8623C13.8065 73.0157 13.4997 73.1691 13.1929 73.4759C12.8862 73.6293 12.5794 73.9361 12.426 74.2429C11.9658 74.7031 11.5056 75.1632 11.1989 75.6234C11.1989 75.47 11.0455 75.3166 11.0455 75.3166Z" fill="#8D67C3"/>
<path d="M12.426 81.4524C12.2726 81.4524 12.2726 81.299 12.1192 81.299C11.9658 81.1456 11.8124 80.9922 11.5056 80.9922C11.3522 80.8388 11.1989 80.6854 11.0455 80.532C10.8921 80.3786 10.7387 80.2252 10.5853 80.0718C10.4319 79.9184 10.2785 79.765 10.1251 79.4582C9.97175 79.1515 9.97173 78.9981 9.81834 78.6913C9.66496 78.2311 9.97172 77.6175 10.4319 77.4641C10.5853 77.4641 10.7387 77.4641 10.7387 77.4641C10.7387 78.0777 11.1988 78.5379 11.5056 79.1515C11.659 79.3048 11.8124 79.4582 11.8124 79.6116C11.8124 79.6116 11.9658 79.6116 11.9658 79.765C12.2725 80.3786 12.2726 80.9922 12.426 81.4524Z" fill="#8D67C3"/>
<path d="M53.9948 21.7821C53.5346 21.7821 53.0744 21.6287 52.7676 21.7821C52.4609 21.7821 52.1541 21.9355 51.8473 22.0889C51.6939 21.9355 51.6939 21.6287 51.5405 21.4753C52.0007 21.3219 52.3075 21.3219 52.7676 21.4753C53.0744 21.3219 53.5346 21.4753 53.9948 21.7821Z" fill="#8D67C3"/>
<path d="M60.7438 22.549C60.5904 22.549 60.5904 22.549 60.437 22.3956C58.7497 21.9355 57.2158 21.3219 55.6819 20.5549C55.5285 20.5549 55.5286 20.2481 55.5286 20.2481C55.5286 20.0947 55.6819 20.0947 55.8353 20.0947C57.3692 20.8617 58.9031 21.3219 60.437 21.6287C60.437 21.6287 60.437 21.6287 60.5904 21.6287C60.7438 22.0889 60.7438 22.3956 60.7438 22.549Z" fill="#1996EE"/>
<path d="M63.1981 62.8917C62.8913 63.0451 62.7379 63.1985 62.4311 63.3519C61.6642 63.6586 60.8972 63.812 60.1303 63.9654C59.3633 64.1188 58.5964 64.1188 57.8294 63.9654C57.5226 63.9654 57.2158 63.6587 57.2158 63.1985C57.2158 62.8917 57.5226 62.5849 57.9828 62.5849C58.5963 62.7383 59.3633 62.7383 59.9769 62.7383C60.5904 62.7383 61.3574 62.5849 61.9709 62.4315C62.2777 62.2781 62.7379 62.1247 63.0447 61.9713C63.0447 62.2781 63.0447 62.5849 63.1981 62.8917Z" fill="#1CD0C5"/>
<path d="M36.9684 57.2161C36.9684 57.5229 36.9684 57.6763 36.815 57.9831C36.6616 58.5966 36.3548 59.0568 35.8946 59.517C35.1277 60.284 34.2073 60.7442 33.4404 61.2043C32.2132 61.9713 31.1395 62.5849 30.3725 63.5053C30.2192 63.0451 30.2192 62.4315 30.0658 61.9713C30.2192 61.8179 30.2192 61.8179 30.3725 61.6645C31.1395 61.051 31.9065 60.4374 32.8268 59.9772C33.5938 59.517 34.3607 59.0568 34.9743 58.4432C35.2811 58.1365 35.4345 57.8297 35.5879 57.5229C35.5879 57.3695 35.7412 57.2161 35.7412 56.9093C35.7412 56.7559 35.7412 56.4491 35.7412 56.2957C35.7412 55.3754 35.5879 54.6084 35.2811 53.8414C35.1277 53.3812 34.8209 53.0745 34.6675 52.7677C34.5141 52.6143 34.3607 52.4609 34.2073 52.3075C34.0539 52.1541 33.9006 52.0007 33.7472 51.8473C33.5938 51.6939 33.5938 51.3871 33.7472 51.2337C33.9006 51.0803 34.2073 51.0803 34.3607 51.0803C34.8209 51.3871 35.1277 51.6939 35.5879 52.0007C35.8947 52.3075 36.2014 52.7677 36.5082 53.2278C36.9684 54.1482 37.2751 55.222 37.2751 56.1423C37.1218 56.7559 36.9684 56.9093 36.9684 57.2161Z" fill="#19B4EE"/>
<path d="M38.3488 62.4315C37.7352 62.8917 37.275 63.3518 36.6615 63.812C36.0479 64.2722 35.5877 64.7324 35.1276 65.1926C34.6674 65.6528 34.2072 66.2663 33.9005 66.8799C33.5937 67.4935 33.2869 68.1071 33.1335 68.7206C33.1335 69.0274 32.8267 69.1808 32.52 69.0274C32.3666 69.0274 32.2132 68.874 32.2132 68.5672C32.0598 67.6469 32.3665 66.8799 32.6733 66.1129C32.9801 65.346 33.5937 64.7324 34.0539 64.1188C34.6674 63.5052 35.281 63.045 35.8945 62.5849C36.5081 62.1247 37.275 61.8179 38.042 61.5111C38.3488 61.3577 38.5022 61.5111 38.6556 61.8179C38.5022 61.9713 38.5022 62.2781 38.3488 62.4315Z" fill="#F376A2"/>
<path d="M24.6971 60.5908C24.5437 61.051 24.5437 61.3578 24.5437 61.818C24.5437 61.9714 24.5437 62.1248 24.6971 62.2782C24.3903 62.4315 24.2369 62.5849 23.9301 62.5849C23.6234 62.7383 23.3166 62.8917 23.1632 63.1985C23.0098 63.3519 22.8564 63.6587 22.703 63.9655C22.5496 64.2723 22.5496 64.5791 22.703 64.8859C22.703 65.0393 22.5496 65.1926 22.3963 65.346C22.2429 65.346 22.0895 65.346 22.0895 65.1926C21.9361 64.8859 21.7827 64.4257 21.7827 63.9655C21.7827 63.5053 21.9361 63.0451 22.2429 62.5849C22.8564 61.818 23.47 61.3578 24.0835 61.051C24.2369 60.7442 24.5437 60.5908 24.6971 60.5908Z" fill="#8D67C3"/>
<path d="M32.0599 56.4491C32.0599 56.6025 31.9065 56.9093 31.7531 57.0627C31.5997 57.2161 31.5997 57.3695 31.4463 57.6763L31.1395 58.1365C30.9861 58.2899 30.8328 58.4432 30.8328 58.5966C30.3726 59.0568 29.9124 59.517 29.4523 59.8238C29.1455 59.3636 28.5319 58.9034 27.9183 58.75C28.5319 58.4432 28.9921 57.9831 29.4523 57.5229C29.6056 57.3695 29.6056 57.2161 29.759 57.2161L30.0658 56.7559C30.2192 56.6025 30.2192 56.4491 30.3726 56.2957C30.526 56.1423 30.526 55.9889 30.6794 55.8355C30.9862 55.222 31.1395 54.6084 31.1395 53.9948C31.1395 53.688 30.9862 53.3812 30.9862 53.0744C30.9862 52.9211 30.8328 52.7677 30.6794 52.6143C30.526 52.4609 30.526 52.3075 30.3726 52.3075C30.2192 52.1541 30.2192 51.8473 30.3726 51.6939C30.526 51.5405 30.6794 51.5405 30.8328 51.6939C31.293 52.0007 31.5997 52.1541 31.7531 52.6143C32.0599 52.9211 32.2133 53.3812 32.3667 53.8414C32.3667 54.6084 32.3667 55.6822 32.0599 56.4491Z" fill="#8D67C3"/>
<path d="M46.4786 57.8297C46.4786 59.2103 46.1718 60.7442 45.5583 62.1248C45.2515 62.7383 44.9447 63.5053 44.6379 64.1189C44.4845 64.4257 44.3311 64.7325 44.0244 65.0392C43.871 65.346 43.7176 65.6528 43.4108 65.8062C43.104 66.4198 42.7972 67.0334 42.6438 67.6469C42.4904 68.2605 42.3371 68.8741 42.1837 69.4877C42.1837 69.7945 42.1837 70.2546 42.1837 70.5614C42.0303 70.7148 41.8769 70.7148 41.8769 70.8682C41.5701 71.175 41.4167 71.4818 41.1099 71.7886C40.9565 71.0216 40.9565 70.1013 41.1099 69.3343C41.2633 68.5673 41.4167 67.9537 41.5701 67.1868C41.8769 66.4198 42.1837 65.8062 42.4905 65.1926C42.6439 64.8859 42.9506 64.5791 43.104 64.2723C43.2574 63.9655 43.4108 63.6587 43.5642 63.5053C43.871 62.8917 44.1777 62.2782 44.4845 61.6646C44.9447 60.4374 45.2515 59.0569 45.4049 57.8297C45.4049 57.5229 45.7116 57.3695 46.0184 57.3695C46.1718 57.2161 46.4786 57.5229 46.4786 57.8297Z" fill="#F376A2"/>
<path d="M59.3634 13.3454L55.0684 18.254C54.915 18.4074 54.9151 18.4074 54.7617 18.4074C54.6083 18.4074 54.6083 18.4074 54.4549 18.254C54.3015 18.1006 54.3015 17.9472 54.4549 17.7938L58.7498 13.0386C58.9032 13.192 59.0566 13.192 59.3634 13.3454Z" fill="#19B4EE"/>
<path d="M60.437 16.5667L57.5227 19.6346C57.5227 19.6346 57.3692 19.788 57.2159 19.788C57.0625 19.788 57.0625 19.788 56.9091 19.6346C56.7557 19.4812 56.7557 19.3278 56.9091 19.1744L60.2836 15.6464C60.2836 15.7998 60.437 16.1065 60.437 16.5667Z" fill="#1996EE"/>
<path d="M52.0006 11.3513L50.16 14.5725C50.16 14.7259 50.0066 14.7259 49.8532 14.7259H49.6998C49.5464 14.5726 49.5464 14.4192 49.5464 14.2658L51.2337 11.1979C51.5404 11.3513 51.6938 11.3513 52.0006 11.3513Z" fill="#F376A2"/>
<path d="M34.2073 6.74946C33.9005 6.74946 33.7471 6.74946 33.5938 6.74946L33.7471 6.59607C33.9005 6.59607 34.0539 6.59607 34.2073 6.74946Z" fill="#1CD0C5"/>
<path d="M45.0981 129.925C43.8709 129.772 42.7972 129.772 41.7235 129.618C43.104 129.005 44.3311 128.544 45.5583 127.931C45.7116 128.084 45.7116 128.084 45.865 128.084C46.632 128.698 46.1718 130.078 45.0981 129.925Z" fill="#1996EE"/>
<path d="M8.89795 137.595C11.3522 139.742 13.4997 141.276 14.5734 142.503C11.3522 141.583 9.6649 139.435 8.89795 137.595Z" fill="#1CD0C5"/>
<path d="M13.653 144.958C13.653 145.111 13.653 150.02 11.3521 155.082C11.1987 155.388 10.8919 155.695 10.4317 155.695C10.2783 155.695 10.1249 155.695 10.1249 155.542C9.66477 155.388 9.35796 154.775 9.66474 154.315C11.8122 149.559 11.8123 144.958 11.8123 144.958C11.8123 144.497 12.2724 144.037 12.7326 144.037C13.1928 144.037 13.653 144.497 13.653 144.958Z" fill="#1CD0C5"/>
<path d="M9.20471 129.311C9.20471 129.925 9.20471 130.539 9.20471 131.306C9.20471 131.766 9.05133 132.073 8.59117 132.226C8.13101 131.766 7.67086 131.306 7.21069 130.845C7.21069 129.772 7.21066 128.698 7.36404 127.624C8.13098 128.084 8.74455 128.698 9.20471 129.311Z" fill="#1996EE"/>
<path d="M23.4701 142.043C23.0099 142.81 21.9362 142.964 21.1692 142.503C20.2489 141.89 19.3285 141.123 18.2548 140.509L16.8743 139.436L16.1074 138.975L15.4938 138.362L14.1133 137.288C13.6531 136.981 13.1929 136.521 12.7328 136.214C11.8124 135.447 11.0455 134.68 10.2786 133.913C10.432 133.913 10.5853 133.913 10.5853 133.913C12.1192 134.22 13.6531 134.527 15.187 134.527C15.3404 134.68 15.6472 134.834 15.8006 134.987L17.1811 135.907L17.7947 136.368L18.5616 136.828L19.9421 137.748C20.8625 138.362 21.7828 138.975 22.8565 139.589C23.6235 140.202 23.9302 141.276 23.4701 142.043Z" fill="#1996EE"/>
<path d="M34.9743 112.285C34.6675 112.131 34.5141 111.978 34.2073 111.671C34.0539 111.364 33.7471 111.211 33.5938 110.904C33.7471 110.904 33.9006 111.058 34.054 111.058C34.8209 111.211 35.1277 111.671 34.9743 112.285Z" fill="#F376A2"/>
<path d="M57.9828 97.8657C56.9091 99.2462 55.9888 100.473 55.2218 101.547C55.0685 99.8598 55.0685 98.6326 55.3752 98.3259C55.9888 97.7123 56.9091 97.5589 57.9828 97.8657Z" fill="#F376A2"/>
<path d="M63.965 90.656C63.1981 91.423 62.5845 92.19 61.8176 92.957C60.5904 91.8832 59.2099 88.9687 58.7498 86.361C60.5904 85.4406 62.2777 84.5203 63.8116 83.7533C64.1184 86.6678 64.1184 88.9687 63.965 90.656Z" fill="#F376A2"/>
<path d="M8.13098 192.05C7.8242 193.43 7.51746 194.811 7.21067 196.191C6.7505 195.118 6.44369 194.197 5.98352 193.123C6.2903 191.589 6.59709 190.056 6.90387 188.522C7.36405 189.595 7.67081 190.823 8.13098 192.05Z" fill="#19B4EE"/>
<path d="M15.4938 210.457C14.7268 209.23 13.6531 208.003 12.5793 206.929C11.659 205.548 10.7386 203.861 9.97168 202.327C10.892 202.327 11.8124 202.481 12.5793 202.481C13.8065 205.088 15.0336 207.236 16.2607 208.923C16.7209 209.69 16.1073 210.304 15.4938 210.457Z" fill="#19B4EE"/>
<path d="M18.4082 166.279C19.3285 165.513 20.5556 165.052 21.9362 164.899C23.9302 164.592 25.004 166.279 25.6176 168.887C22.0896 168.58 19.4819 167.66 18.4082 166.279Z" fill="#4263A8"/>
<path d="M32.5201 215.519C30.0659 216.746 20.5557 216.9 19.0218 208.463C18.715 207.082 18.2548 205.242 17.7947 202.787C23.0099 203.094 27.6117 203.094 31.7532 203.094C36.0481 211.224 34.6676 214.292 32.5201 215.519Z" fill="#4263A8"/>
<path d="M63.9651 186.221C63.3516 184.227 63.5049 181.159 63.9651 177.631C64.1185 180.545 64.1185 183.46 63.9651 186.221Z" fill="#8D67C3"/>
<path d="M62.2778 148.026C63.9651 145.264 64.8854 138.208 65.1921 130.539C63.8117 136.521 62.5846 143.27 62.2778 148.026Z" fill="#1CD0C5"/>
</svg>
