<svg width="120" height="193" viewBox="0 0 120 193" fill="none" xmlns="http://www.w3.org/2000/svg">
<path d="M18.609 165.855C24.5912 154.964 32.4142 153.123 44.0718 158.032C55.5761 162.941 85.027 155.424 85.027 155.424L104.814 149.135L114.785 136.097L97.7584 110.633L98.5254 82.4086L100.519 63.2343C100.519 63.2343 78.738 57.2519 71.9889 43.1397C65.2397 29.0274 55.5761 13.5346 55.5761 13.5346C55.5761 13.5346 42.9981 0.0358915 31.0337 0.189286C19.0692 0.34268 0.66243 9.23954 4.1904 34.8564C7.71838 60.4732 17.9955 76.733 17.9955 76.733L27.0455 126.279L18.609 165.855Z" fill="white"/>
<path d="M6.18444 192.085C3.42342 192.085 1.12252 189.938 0.969133 187.177C0.202182 179.814 2.80984 173.218 7.41155 164.475C8.33189 162.48 9.55903 160.333 10.7862 158.185C11.3997 157.112 12.0133 155.884 12.6269 154.657C13.5472 152.817 14.6209 151.129 15.6947 149.135L16.0015 148.675C16.0015 148.521 16.1548 148.368 16.3082 148.215C17.8421 145.3 19.0692 142.386 19.9896 139.625C20.6031 137.784 20.9099 135.943 21.2167 134.102L21.6768 130.574C22.4438 123.825 22.1371 117.996 21.8303 115.235V115.082C21.6769 113.241 21.5235 111.86 21.2167 110.787C21.2167 110.326 21.0633 110.02 21.0633 109.713V109.406V109.253L20.9099 108.792V108.025C20.9099 106.491 21.5234 105.111 22.4438 104.037C22.5972 103.884 22.7506 103.73 23.0574 103.424C21.0633 103.117 19.376 101.89 18.4557 100.049C18.3023 99.5887 18.1489 99.2819 17.9955 98.8218C17.9955 98.6684 17.8421 98.515 17.8421 98.3616L17.6887 98.2082V98.0548C16.615 95.4471 15.5412 92.2258 14.7743 89.7715C12.1666 81.3348 9.55905 69.8302 7.25819 57.5587C7.1048 57.0985 7.10475 56.7917 7.10475 56.6383V56.485L6.95139 56.1782V55.8714C6.798 54.951 6.64463 54.0306 6.49124 53.2637C6.33785 52.8035 6.33779 52.4967 6.33779 52.0365C6.33779 51.8831 6.33779 51.7297 6.33779 51.5763L6.18444 51.1162C6.03105 50.1958 5.87764 49.122 5.87764 48.2017C5.72425 47.2813 5.72423 46.3609 5.57084 45.4406L5.41749 43.7532C4.95732 40.5319 4.65058 37.6175 4.49719 35.0098C3.88362 26.4197 3.88357 18.5966 9.7124 17.983C9.86579 17.983 10.0192 17.983 10.326 17.983C16.0014 17.983 18.6091 25.3459 20.6032 33.4758C21.0633 35.1632 21.3701 36.8505 21.8303 38.5378C22.1371 36.2369 22.904 33.7826 24.1311 31.3283C29.0396 21.9712 38.5498 16.4491 49.9007 16.2957L49.7473 15.8355C49.2872 15.3753 48.6735 14.7617 47.7532 14.1481C46.3727 13.3812 44.532 12.7676 42.6913 12.154C39.6235 11.2336 35.482 10.9269 30.5735 10.9269C29.3464 10.9269 28.2726 10.9269 26.8921 10.9269H26.7388C23.8244 10.9269 21.5235 8.47255 21.5235 5.71145C21.5235 2.95035 23.8243 0.496046 26.5853 0.496046C28.1192 0.496046 29.4997 0.342651 30.8802 0.342651C37.3226 0.342651 42.9981 1.10962 47.7532 2.64357C51.4345 3.87072 54.349 5.55806 56.6499 8.01236C58.0304 9.39291 58.9507 10.7735 59.4109 12.154C59.7177 13.0744 59.8711 13.8413 59.8711 14.3015C59.8711 15.3753 59.5643 16.4491 58.9507 17.3694C60.0245 17.6762 61.2515 17.983 62.3253 18.2898C68.6143 20.1305 73.3694 23.812 76.1304 28.874C77.5109 31.3283 78.2779 34.2428 78.4312 37.6175V37.7709V40.8387C78.4312 41.2989 78.4313 41.7591 78.2779 42.3727C78.2779 42.5261 78.2779 42.6795 78.2779 42.8329V43.1397V43.4464C77.9711 45.1338 77.0508 46.5143 75.8237 47.4347C76.2839 47.2813 76.744 47.2813 77.3576 47.2813C78.8915 47.2813 80.272 47.8949 81.3457 49.122L81.6525 49.4288C82.5728 50.5026 85.4872 52.6501 89.0152 54.6442C90.2423 55.2578 91.3161 55.8714 92.3898 56.3316L93.3101 56.6383C94.0771 56.9451 94.9975 57.2519 95.4576 57.5587C96.378 57.7121 97.1449 58.0189 97.9118 58.3257L98.2186 58.4791C99.139 58.7859 100.059 59.0926 100.826 59.246C101.133 59.3994 101.44 59.3994 101.593 59.5528C102.82 60.013 103.894 60.3198 104.508 60.6266C104.661 60.6266 104.814 60.78 104.968 60.78L105.275 60.9334C106.655 61.3936 107.729 62.3139 108.342 63.6945C108.649 64.3081 108.803 64.9216 108.803 65.5352C108.956 65.6886 109.109 65.842 109.263 65.9954C111.41 68.1429 112.331 71.0574 111.87 74.2787C111.717 75.6592 111.257 77.1932 110.643 78.5737V78.7271L110.183 79.8009C110.03 80.1077 109.876 80.4145 109.876 80.5678C109.723 81.028 109.57 81.3348 109.263 81.795C109.109 82.1018 108.956 82.2552 108.803 82.562L108.496 83.0222C107.575 84.7095 106.502 86.2434 105.581 87.7774C104.968 88.6977 104.201 89.7715 103.741 90.6919L104.508 90.9987C105.121 91.3054 105.888 91.6122 106.655 92.2258C107.115 92.5326 107.882 92.9928 108.649 93.7598C109.876 94.9869 110.797 96.5208 111.103 98.2082C111.257 98.6684 111.41 99.1286 111.41 99.7421C112.177 104.497 111.564 107.872 111.103 111.247C110.797 113.394 110.336 115.388 110.336 117.996C110.336 119.837 111.257 121.064 112.944 123.518C115.552 127.2 119.08 132.108 119.847 141.619C120.307 147.755 115.552 154.504 104.201 163.247C102.053 164.935 100.98 166.775 99.7525 168.77C97.6051 172.451 94.9975 176.899 86.561 178.28C85.4873 178.433 84.5669 178.433 83.6466 178.433C76.8974 178.433 73.3694 174.752 70.1482 171.531C68.1541 169.537 66.3135 167.696 63.5525 166.315C61.5584 165.395 58.6439 164.321 55.4227 163.247C46.5261 160.179 36.4024 156.651 34.1015 149.442C33.3345 147.141 33.1812 143.46 36.4024 139.318C37.9363 137.17 39.9303 135.636 44.3787 134.409L44.9922 134.256H45.1456C50.0541 133.029 58.0303 132.262 70.7617 131.495C71.9889 131.341 73.3694 131.341 74.4431 131.341C77.9711 131.341 81.3457 131.648 85.1805 132.568C91.4695 134.102 96.0711 136.557 99.4457 138.397L100.673 139.011C101.44 139.471 102.667 140.085 103.434 140.392C103.587 140.085 103.894 139.471 104.354 138.704C105.581 135.79 104.047 133.949 95.9178 129.04C94.844 128.273 93.6169 127.66 92.5432 126.893C90.5491 125.666 88.7085 124.285 87.328 122.905L86.7144 122.598L84.7203 120.604L84.5669 120.45C82.5728 118.149 81.3457 115.695 80.7321 113.087L80.5787 112.627V112.32C80.5787 112.014 80.4254 111.707 80.4254 111.4C80.1186 108.332 80.5787 102.196 88.2483 98.6684C83.3398 98.0548 78.2779 96.5209 74.7499 91.919C73.0626 89.6181 72.2957 86.857 72.9092 83.9425C74.4431 76.4262 83.1864 70.4438 87.1745 68.1429C87.4813 67.9895 87.7881 67.8361 88.0949 67.5293C88.2483 67.3759 88.4017 67.3759 88.5551 67.2226L88.8619 66.9158L89.322 66.7624C89.4754 66.7624 89.6288 66.609 89.7822 66.4556C89.4754 66.3022 88.5551 65.842 88.5551 65.842L88.4016 65.6886C87.9414 65.3818 87.3279 65.075 86.7144 64.7682C85.794 64.3081 84.7203 63.6945 83.6466 63.0809C81.9593 62.1605 75.8237 58.4791 73.216 55.2578L73.0626 55.1044L72.9092 54.951C71.2219 52.4967 71.8355 49.122 74.2898 47.5881C73.8296 47.7415 73.216 47.7415 72.7559 47.7415C71.0686 47.7415 69.5346 46.9745 68.4609 45.7474C66.4668 43.4464 63.399 39.6116 60.638 37.3107C60.638 37.4641 60.7914 38.8446 60.9448 39.4582C61.0982 40.2252 61.0982 40.8387 61.0982 41.1455C61.5583 48.0483 59.1041 52.8035 53.5821 55.4112C53.1219 55.718 52.0481 56.1782 50.821 56.485C49.1337 56.9451 47.293 57.4053 45.4523 57.5587H45.299C44.8388 57.5587 44.532 57.5587 44.0719 57.5587C41.3108 57.5587 39.0099 56.9451 37.0159 56.485H36.8625L33.948 55.2578L33.6413 54.951C33.6413 54.951 33.4879 54.951 33.4879 54.7976C33.1811 54.6442 32.8744 54.4908 32.5676 54.3374C31.3405 53.7239 30.4201 53.1103 29.4998 52.3433C29.0396 52.0365 27.5057 50.656 27.1989 50.5026C26.432 50.0424 25.8184 49.4288 25.5116 48.9686L24.4379 47.8949C24.1311 47.5881 23.671 47.1279 23.3642 46.8211C23.3642 46.9745 23.3641 47.1279 23.5175 47.2813C23.6709 47.7415 23.6709 48.2017 23.8243 48.5085V48.6618V48.8152C23.9777 49.2754 23.9777 49.7356 24.1311 50.0424C24.1311 50.1958 24.1311 50.3492 24.1311 50.5026C24.2845 50.9628 24.2845 51.4229 24.4379 51.8831C24.4379 52.0365 24.4379 52.1899 24.4379 52.3433C24.8981 54.3374 25.2048 56.1782 25.5116 58.0189C25.665 58.4791 25.665 58.7859 25.665 59.0927C25.665 59.246 25.665 59.3994 25.665 59.5528V59.7062C25.9718 60.9334 26.1251 62.0071 26.2785 63.2343C26.7387 65.6886 27.1989 67.9895 27.6591 70.137C28.1193 71.9778 28.4261 73.8185 28.7328 75.5058L28.8862 76.2728C29.193 78.1135 29.3463 79.8009 29.3463 81.795C29.8065 86.09 29.96 90.3851 29.8066 94.8335C29.8066 95.4471 29.8065 96.0607 29.6531 96.6742C29.6531 96.981 29.6531 97.2878 29.6531 97.4412C29.6531 98.6684 29.3464 99.7421 28.7328 100.662C28.2727 101.276 27.659 101.89 27.0455 102.35C28.8862 102.81 30.4201 104.191 30.8802 106.185C31.187 107.412 31.8006 110.173 31.8006 113.854C32.4142 119.99 32.4142 125.819 31.8006 131.495V131.802C31.6473 133.182 31.4938 134.563 31.187 136.097C30.8803 138.397 30.2667 140.698 29.6531 142.693L29.193 143.766C28.5794 145.607 27.8125 147.601 26.8921 149.749C26.7387 150.362 26.4319 150.822 26.2785 151.129C26.1251 151.436 25.8184 151.896 25.665 152.356C25.5116 152.663 25.3583 152.97 25.2049 153.123L25.0514 153.277C24.7446 153.737 24.4379 154.35 24.2845 154.811C23.8243 155.731 23.3641 156.651 22.7506 157.418C22.5972 157.725 22.4439 158.032 22.1371 158.492C21.8303 158.952 21.6769 159.412 21.3701 159.873C20.2964 161.867 19.0692 163.861 18.1489 165.702L17.6887 166.469C12.1667 176.593 10.4793 181.194 10.9395 185.95C11.2463 187.33 10.7862 188.864 9.86585 189.938C8.9455 191.012 7.71831 191.779 6.33779 191.932C6.64457 192.085 6.49122 192.085 6.18444 192.085Z" fill="white"/>
<path d="M26.892 107.412C26.7386 106.798 26.2784 106.491 25.8183 106.645C25.6649 106.645 25.5115 106.798 25.3581 106.952C25.2047 107.105 25.0513 107.412 25.0513 107.872C25.0513 107.872 25.2048 108.332 25.2048 108.946C25.3582 110.02 25.8183 112.014 25.9717 114.775C26.4319 119.07 26.5852 124.899 25.8183 131.188C25.6649 132.415 25.5115 133.642 25.3581 134.869C25.0513 136.864 24.5911 138.858 23.9776 140.852C23.0572 144.073 21.6768 147.294 19.9895 150.362C19.9895 150.516 19.8361 150.516 19.8361 150.669C18.609 152.817 17.5352 154.811 16.4615 156.805C14.4674 160.486 12.6267 163.554 11.2462 166.469C6.6445 175.212 4.65048 180.734 5.26404 186.87C5.26404 187.33 5.72414 187.79 6.3377 187.637C6.79787 187.637 7.25804 187.177 7.10465 186.563C6.49109 180.274 8.79196 174.599 14.314 164.474C15.3877 162.48 16.6149 160.179 17.9954 157.725C18.4556 156.958 18.9157 156.038 19.3759 155.271C20.1428 154.044 20.7564 152.663 21.5234 151.283C21.8301 150.669 22.2903 149.902 22.5971 149.288C22.7505 148.982 22.9039 148.675 23.0573 148.215C24.131 145.914 24.898 143.613 25.6649 141.465C26.2785 139.471 26.7386 137.324 27.0454 135.33C27.3522 133.949 27.5056 132.415 27.659 131.035C28.4259 124.439 28.1192 118.456 27.659 114.161C27.659 110.326 27.0454 107.872 26.892 107.412ZM55.4226 13.5345C55.2692 12.9209 54.8091 12.0006 53.7353 10.9268C52.3548 9.54627 50.2073 7.85893 46.526 6.63177C42.231 5.25122 35.9421 4.17747 26.7387 4.63765C26.2785 4.63765 25.8183 5.09783 25.8183 5.55802C25.8183 6.0182 26.2785 6.47838 26.7387 6.47838C34.4082 6.17159 39.9302 6.78517 43.765 7.85893C46.526 8.6259 48.5201 9.54626 49.9006 10.3132C51.2811 11.2336 52.2015 12.154 52.815 12.7675C53.582 13.6879 53.7353 14.3015 53.7353 14.4549C53.8887 14.9151 54.3489 15.2219 54.8091 15.2219C55.2692 15.0685 55.576 14.6083 55.576 14.1481C55.576 13.9947 55.576 13.8413 55.4226 13.5345ZM104.047 64.6148C103.894 64.6148 102.513 64.0012 100.366 63.2343C99.4457 62.9275 98.3719 62.4673 97.1447 62.1605C96.2244 61.8537 95.4574 61.5469 94.5371 61.3935C93.4634 61.0867 92.0829 60.4732 90.549 59.8596C89.4753 59.246 88.2481 58.6324 87.021 58.0189C83.4931 56.0247 79.965 53.5704 78.4311 51.8831C78.2777 51.7297 78.2778 51.7297 78.1244 51.5763C77.8176 51.1161 77.204 51.1161 76.7439 51.4229C76.2837 51.7297 76.2837 52.3433 76.5905 52.8034C78.1244 54.6442 81.9591 57.4053 85.9473 59.7062C87.4812 60.6266 89.1685 61.3935 90.549 62.1605C91.6227 62.6207 92.6964 63.0809 93.6168 63.3877C93.7702 63.3877 93.9236 63.541 94.0769 63.541C95.7642 64.0012 97.4515 64.6148 98.9854 65.075C100.519 65.6886 101.746 66.1488 102.513 66.4555C102.974 66.6089 103.28 66.7623 103.28 66.7623C103.434 66.7623 103.587 66.9157 103.741 66.7623C104.047 66.7623 104.354 66.4555 104.507 66.1487C104.814 65.3818 104.507 64.7682 104.047 64.6148ZM24.7445 77.0398C24.4377 75.199 24.131 73.2049 23.6709 71.2108C22.9039 67.9895 22.2903 64.4614 21.5234 60.6266C21.37 60.013 21.37 59.5528 21.2166 58.9392C20.9098 57.0985 20.603 55.2578 20.1428 53.417C19.9894 52.8035 19.9895 52.1899 19.8361 51.5763C19.6827 50.9627 19.6827 50.5025 19.5293 49.889C19.3759 49.4288 19.3759 48.8152 19.2225 48.355C18.7623 46.2075 18.4556 44.2134 17.9954 42.0658C17.3819 39.3048 16.7683 36.6971 16.1547 34.2427C14.314 26.8798 12.1666 21.8178 9.86575 22.1246C8.33184 22.278 8.02503 27.34 8.4852 34.5495C8.63859 37.464 9.09878 40.8387 9.55895 44.5202C9.86573 46.3609 10.0191 48.2016 10.3259 50.1957C10.4793 50.8093 10.4793 51.4229 10.6327 52.0365C10.7861 52.9568 10.9395 53.8772 11.0929 54.951C11.2462 55.4112 11.2463 55.8713 11.3996 56.3315C13.3937 67.3759 16.0013 79.1873 18.7624 88.2375C19.6827 91.152 20.603 93.9131 21.5234 96.214C21.8301 96.8276 21.9835 97.4412 22.2903 98.0548C22.9039 99.4353 24.7446 99.2819 25.3581 98.2082C25.5115 98.0548 25.5115 97.748 25.5115 97.5946C25.5115 96.8276 25.6649 95.9072 25.6649 94.8335C25.8183 91.4588 25.8183 87.1638 25.2048 82.1018C25.2048 80.261 25.0513 78.7271 24.7445 77.0398ZM106.348 68.6031C105.735 67.8361 104.661 67.5293 103.434 67.3759C102.513 67.3759 101.593 67.3759 100.519 67.5293C99.7524 67.6827 98.9854 67.8361 98.2185 67.9895C97.1448 68.2963 96.0711 68.6031 94.9973 69.0632C94.3838 69.37 93.7702 69.5234 93.1566 69.8302C92.3897 70.137 91.7761 70.5972 91.0091 70.904C90.549 71.2108 89.9354 71.5176 89.4752 71.8243C81.3456 76.5796 74.2896 84.0959 78.2778 89.3113C81.9591 94.2199 88.7083 94.3733 94.3837 94.8335C97.9117 95.1403 100.826 95.4471 102.513 96.981C102.974 97.4412 103.434 98.2082 103.587 98.9751C103.587 99.1285 103.587 99.2819 103.741 99.5887C103.741 100.049 103.434 100.509 102.82 100.509C101.44 100.509 98.8321 100.509 95.7643 100.969C90.2422 101.89 84.1066 104.344 84.8735 111.093C84.8735 111.4 85.027 111.707 85.027 112.167C85.4871 114.161 86.5608 116.002 87.9413 117.689C88.5549 118.303 89.1685 118.916 89.782 119.53C91.1625 120.757 92.8498 121.984 94.5371 123.058C102.36 128.12 111.41 131.955 108.036 140.238C105.428 146.374 103.127 145.3 98.3718 142.692C94.9973 140.852 90.549 138.091 84.1066 136.557C81.1922 135.943 77.971 135.483 74.2897 135.483C73.2159 135.483 72.1421 135.483 71.0684 135.636C56.9565 136.403 49.7472 137.324 45.6057 138.397C45.6057 138.397 45.6056 138.397 45.4522 138.397C41.9242 139.318 40.8505 140.392 39.9302 141.619C31.0336 153.583 56.4964 157.572 65.5464 162.174C74.443 166.622 75.6701 175.212 86.1006 173.678C96.5312 172.144 94.3838 165.088 101.593 159.566C108.649 154.044 116.012 147.141 115.552 141.619C114.478 127.046 106.041 125.206 106.041 117.689C106.041 110.48 108.342 107.105 107.115 99.8955C107.115 99.7421 107.115 99.4353 106.962 99.2819C106.808 98.0548 106.195 97.1344 105.581 96.5208C105.121 96.0606 104.661 95.7539 104.201 95.4471C103.587 94.9869 102.82 94.6801 102.207 94.3733C100.519 93.6063 98.9854 92.9927 98.6786 91.4588C98.3719 89.7715 102.053 85.1696 104.814 80.4144C104.968 80.1076 105.274 79.6475 105.428 79.3407C105.735 78.7271 106.041 77.9601 106.348 77.3465C106.502 77.0397 106.655 76.733 106.808 76.4262C107.268 75.3524 107.575 74.2787 107.729 73.2049C108.035 71.5176 107.729 69.8302 106.348 68.6031ZM72.449 30.8681C70.6083 27.4934 67.2336 24.1187 61.098 22.278C59.4107 21.6644 57.7235 21.3576 55.7294 20.8974C40.8505 18.4431 31.6471 25.8061 27.8123 33.169C26.4318 35.7767 25.8183 38.231 25.8183 40.3785C25.8183 42.2192 26.2784 43.9066 27.3522 44.8269C27.8124 45.2871 28.1191 45.5939 28.5793 46.0541C28.8861 46.3609 29.3463 46.8211 29.8065 47.1279C30.5734 47.7414 31.4937 48.5084 32.2607 49.122C33.0276 49.7356 33.7946 50.1957 34.7149 50.6559C35.1751 50.9627 35.6353 51.1161 36.0954 51.4229C36.8624 51.7297 37.6293 52.0365 38.3963 52.3433C40.5438 52.9568 42.6913 53.417 45.1455 53.2636C46.6794 53.1102 48.2133 52.8034 49.7472 52.3433C50.3608 52.1899 51.1277 51.8831 51.7413 51.5763C56.4964 49.4288 57.1099 45.4405 56.8031 41.4523C56.8031 41.1455 56.8032 40.8387 56.6498 40.3785C56.1896 36.2369 55.2693 32.5554 57.4167 31.4816C57.5701 31.3282 57.8769 31.3283 58.1837 31.3283C59.2574 31.1749 60.7912 31.9418 62.3251 33.169C65.6997 35.7767 69.5345 40.3785 71.8354 43.1396C72.6023 44.06 73.9828 43.5998 74.1362 42.526C74.1362 41.9125 74.2897 41.2989 74.2897 40.6853C74.2897 39.7649 74.2897 38.8446 74.2897 37.7708C74.1363 35.6233 73.6761 33.169 72.449 30.8681Z" fill="#1E1C31"/>
<path d="M53.7355 10.9269C52.5084 10.6201 51.2812 10.4667 50.0541 10.3133C48.6736 9.39293 46.6795 8.47257 43.9185 7.85899C44.6854 7.39881 45.6058 6.93862 46.5261 6.63184C50.2075 7.85899 52.5084 9.54633 53.7355 10.9269Z" fill="#F376A2"/>
<path d="M55.4228 13.5345C55.5762 13.8413 55.5763 13.9947 55.5763 14.1481C55.7297 14.6083 55.4229 15.0685 54.8093 15.2219C54.3491 15.2219 53.8889 14.9151 53.7355 14.4549C53.7355 14.4549 53.5822 13.8413 52.8152 12.7676C53.7356 12.921 54.5024 13.2278 55.4228 13.5345Z" fill="#1996EE"/>
<path d="M72.4491 30.868C68.1542 27.8001 64.0126 24.7323 61.0981 22.278C67.0804 24.2721 70.455 27.4934 72.4491 30.868Z" fill="#1996EE"/>
<path d="M70.1482 36.8505C71.3753 37.0039 72.7559 37.3107 74.2898 37.7709C74.4432 38.8446 74.4432 39.765 74.2898 40.6854C72.2957 39.3048 70.7618 38.5379 69.6881 37.9243C69.3813 37.4641 69.5347 36.6971 70.1482 36.8505Z" fill="#1996EE"/>
<path d="M103.741 66.4557C103.587 66.4557 103.434 66.4557 103.28 66.4557C103.28 66.4557 102.974 66.3022 102.513 66.1489C101.9 65.2285 101.133 64.3081 100.366 63.2344C102.36 64.0013 103.894 64.6149 104.047 64.6149C104.508 64.7683 104.814 65.3819 104.507 65.8421C104.354 66.1489 104.201 66.3023 103.741 66.4557Z" fill="#1996EE"/>
<path d="M107.729 73.3584C107.269 72.8982 106.808 72.438 106.348 71.9778C105.735 70.904 104.661 69.3701 103.434 67.376C104.661 67.5294 105.735 67.8362 106.348 68.6031C107.729 69.8303 108.035 71.5176 107.729 73.3584Z" fill="#1996EE"/>
<path d="M98.9856 64.6149C97.4517 64.1547 95.7644 63.5411 94.0771 63.0809C93.9237 63.0809 93.7703 63.0809 93.6169 62.9275L92.2364 61.3936C91.7762 60.9334 91.1626 60.3198 90.7025 59.8596C90.5491 59.7062 90.5491 59.7063 90.3958 59.5529C91.9297 60.3198 93.3101 60.78 94.3839 61.0868C95.3042 61.3936 96.2246 61.547 96.9915 61.8538C97.7585 62.9275 98.372 63.6945 98.9856 64.6149Z" fill="#4263A8"/>
<path d="M100.98 69.37C100.673 69.6768 100.213 69.6768 99.7525 69.37C99.2923 68.9098 98.8321 68.4497 98.3719 67.9895C99.1389 67.8361 99.9058 67.5293 100.673 67.5293C100.826 67.8361 100.98 68.1429 101.133 68.4497C101.286 68.7564 101.286 69.2166 100.98 69.37Z" fill="#4263A8"/>
<path d="M90.5492 61.8538C89.0153 61.2402 87.4814 60.3198 85.9474 59.3994C84.8737 58.3257 83.8 57.2519 82.7263 56.1782C81.9593 55.5646 81.3457 54.951 80.5787 54.3374C79.8118 53.7239 79.1982 53.1103 78.4312 52.6501C78.2778 52.4967 78.1245 52.1899 78.1245 52.0365C78.1245 51.8831 78.2779 51.7297 78.2779 51.7297C79.8118 53.4171 83.3398 55.8714 86.8678 57.8655C87.1745 58.3257 87.6347 58.6325 87.9415 59.0927C88.8619 59.8596 89.7822 60.78 90.5492 61.8538Z" fill="#8D67C3"/>
<path d="M106.808 76.4263C106.655 76.7331 106.502 77.0399 106.348 77.3466C106.195 77.1932 106.041 77.0398 105.888 76.8865C105.274 76.2729 104.508 75.8127 103.741 75.3525C102.207 74.2788 100.673 73.5118 99.1389 72.8982C97.1448 72.1312 94.9974 71.0575 93.1567 69.8303C93.7703 69.5235 94.3839 69.2167 94.9974 69.0634C96.5313 69.9837 98.0652 70.9041 99.7525 71.6711C101.44 72.438 102.974 73.3584 104.508 74.4322C105.274 75.0457 106.041 75.5059 106.655 76.1195C106.655 76.4263 106.808 76.4263 106.808 76.4263Z" fill="#1CD0C5"/>
<path d="M103.281 81.4882C103.127 81.6416 102.82 81.6416 102.667 81.4882C101.44 80.1076 100.059 79.0339 98.6788 77.8067C97.2983 76.733 95.7644 75.6592 94.2305 74.7388C93.9237 74.4321 93.4635 74.2787 93.0033 73.9719L92.3898 73.6651L91.7762 73.3583C91.316 73.0515 91.0093 72.8981 90.5491 72.5913C90.2423 72.4379 89.9356 72.1311 89.6288 71.9777C90.089 71.6709 90.7025 71.3642 91.1627 71.0574C91.3161 71.0574 91.316 71.2108 91.4694 71.2108C91.9296 71.3642 92.2364 71.671 92.6966 71.8243L93.3101 72.1311L93.9237 72.4379C94.3839 72.7447 94.6906 72.8981 95.1508 73.2049C95.9178 73.6651 96.6847 74.2787 97.4517 74.7388C98.2186 75.3524 98.9856 75.966 99.5992 76.5796C100.98 77.8067 102.36 79.1873 103.434 80.7212C103.434 81.028 103.434 81.3348 103.281 81.4882Z" fill="#1996EE"/>
<path d="M105.428 79.4941C105.275 79.8009 104.968 80.261 104.814 80.5678C104.661 80.261 104.508 80.1076 104.354 79.8009C103.434 78.5737 102.36 77.3466 101.286 76.2728C101.286 76.1194 101.133 76.1194 101.286 75.966C101.286 75.8126 101.44 75.8126 101.593 75.966C102.82 76.8864 104.047 77.9601 105.121 79.0339C105.275 79.1873 105.428 79.3407 105.428 79.4941Z" fill="#F376A2"/>
<path d="M89.9355 78.1135C90.549 78.8805 91.316 79.4941 92.083 80.261C92.8499 80.8746 93.6169 81.6416 94.3838 82.1018C96.0711 83.3289 97.7584 84.4027 99.9059 84.8629C100.366 85.0163 100.826 84.7095 100.98 84.2493C101.133 83.7891 100.826 83.3289 100.366 83.1755C100.366 83.1755 100.366 83.1755 100.213 83.1755C99.2923 83.0221 98.372 82.7153 97.605 82.4086C96.6847 82.1018 95.9178 81.6416 94.9974 81.028C94.2305 80.5678 93.3101 79.9543 92.5431 79.3407C91.7762 78.7271 91.0092 78.1135 90.2423 77.4999C90.0889 77.3465 89.9355 77.3465 89.7821 77.4999C89.7821 77.8067 89.7821 77.9601 89.9355 78.1135Z" fill="#4263A8"/>
<path d="M90.089 80.8747C90.2424 81.0281 90.2424 81.1815 90.3958 81.4883C90.5492 81.6417 90.5491 81.7951 90.7025 81.9485C90.8559 82.2553 91.0093 82.562 91.3161 82.8688C91.7763 83.4824 92.2365 83.9426 92.6967 84.5562C93.1568 85.0164 93.617 85.6299 94.2306 86.0901L94.9975 86.8571L95.7644 87.4707C96.2246 87.9309 96.9916 87.7775 97.2983 87.3173C97.7585 86.8571 97.6051 86.0901 97.1449 85.7833C97.1449 85.7833 96.9915 85.7833 96.9915 85.6299L96.0712 85.1698L95.3042 84.7096C94.6906 84.4028 94.2305 83.9426 93.7703 83.4824C93.3101 83.0222 92.85 82.7154 92.3899 82.1019C92.2365 81.7951 91.9297 81.6417 91.7763 81.3349C91.6229 81.1815 91.6229 81.0281 91.4695 81.0281C91.3161 80.8747 91.3162 80.7213 91.1628 80.7213C91.0094 80.4145 90.7026 80.4145 90.5492 80.5679C90.089 80.4145 89.9356 80.7213 90.089 80.8747Z" fill="#1996EE"/>
<path d="M104.201 95.4471C103.894 95.9073 103.587 96.3675 103.127 96.6742C102.82 96.8276 102.667 97.1344 102.36 97.2878C100.826 95.7539 97.7584 95.2937 94.2305 95.1403C93.6169 94.2199 93.9236 93.1462 94.844 92.5326C95.7643 91.919 96.8381 92.2258 97.4516 93.1462C97.4516 93.1462 97.4516 93.1462 97.4516 93.2996L97.605 93.453C97.605 93.6064 97.7584 93.6064 97.7584 93.7597C97.9118 93.9131 98.0652 94.2199 98.2186 94.3733C98.5254 94.6801 98.9855 94.9869 99.2923 95.1403C99.5991 95.2937 100.059 95.4471 100.366 95.4471C100.519 95.4471 100.826 95.4471 100.98 95.2937C101.133 95.2937 101.44 95.1403 101.593 94.9869C101.747 94.9869 101.747 94.8335 101.9 94.8335L102.053 94.6801C102.974 94.6801 103.587 94.9869 104.201 95.4471Z" fill="#19B4EE"/>
<path d="M107.115 99.8955C107.115 99.8955 107.115 100.049 107.115 99.8955C106.041 101.89 104.814 104.497 104.354 108.179C103.894 111.707 100.366 113.701 96.2244 110.633C92.0829 107.565 94.2304 103.424 95.7643 101.276C98.6787 100.816 101.44 100.816 102.82 100.816C103.28 100.816 103.741 100.356 103.741 99.8955C103.741 99.7421 103.741 99.4354 103.587 99.282C104.507 98.6684 105.274 97.5946 105.735 96.5209C106.348 97.1345 106.962 98.0548 107.115 99.282C107.115 99.4354 107.115 99.7421 107.115 99.8955Z" fill="#1CD0C5"/>
<path d="M19.9897 150.516C19.9897 150.669 19.9897 150.976 19.9897 151.129C19.9897 152.203 19.8363 153.584 19.6829 154.964C19.2228 155.884 18.7627 156.651 18.3025 157.418C16.922 159.873 15.6948 162.174 14.6211 164.168C14.3143 164.475 14.0075 164.628 13.5473 164.781C12.7804 165.241 12.1669 165.548 11.3999 166.008C12.9338 163.247 14.6211 160.026 16.6151 156.345C17.6889 154.811 18.7626 152.817 19.9897 150.516Z" fill="#1CD0C5"/>
<path d="M89.7821 119.53C90.5491 118.303 91.316 117.076 92.3898 116.002C93.0034 115.235 94.2305 115.695 94.2305 116.616C94.2305 118.149 94.3839 120.45 94.6907 123.058C92.85 121.984 91.1626 120.911 89.7821 119.53Z" fill="#F376A2"/>
<path d="M94.2305 161.714C81.4991 163.247 63.5524 162.02 63.0923 156.038C62.7855 150.056 79.6584 150.056 82.8796 140.238C83.3398 138.858 83.6465 137.631 84.1067 136.557C90.5491 138.091 95.1508 140.699 98.372 142.693C101.593 152.05 105.275 160.486 94.2305 161.714Z" fill="#F376A2"/>
<path d="M27.966 114.161C28.4261 118.456 28.7329 124.439 27.966 131.035C27.8126 131.035 27.6592 131.035 27.5058 131.035C27.0456 131.035 26.5855 131.188 25.9719 131.035C26.7389 124.592 26.4321 118.763 26.1253 114.621C26.2787 114.621 26.2787 114.621 26.4321 114.621C26.8922 114.468 27.5058 114.315 27.966 114.161Z" fill="#F376A2"/>
<path d="M25.8184 94.6802C25.8184 95.7539 25.665 96.6743 25.665 97.4413C25.665 97.7481 25.5116 97.9015 25.5116 98.0549C24.2844 97.7481 23.0573 96.6743 21.6768 96.0607C20.7564 93.7598 19.8361 90.9987 18.9158 88.0842C19.3759 88.5444 19.8362 89.158 20.2963 89.6182C22.137 91.9191 24.2845 93.453 25.8184 94.6802Z" fill="#4263A8"/>
<path d="M26.8922 107.412C27.0456 107.412 27.0456 107.412 26.8922 107.412C26.8922 107.565 26.7388 107.565 26.7388 107.719C26.2786 108.179 25.8184 108.486 25.3582 108.792C25.2048 108.179 25.2048 107.719 25.2048 107.719C25.2048 107.412 25.2048 107.105 25.5116 106.798C25.6649 106.645 25.8184 106.645 25.9718 106.492C26.2786 106.338 26.5854 106.338 26.8922 106.645C27.0456 106.952 27.0456 107.258 26.8922 107.412Z" fill="#19B4EE"/>
<path d="M25.3582 81.7951C23.5175 80.5679 21.5234 80.8747 20.9099 81.0281C19.9895 81.1815 17.6887 80.7213 18.609 77.9602C19.6827 75.1991 22.904 77.1932 24.4379 77.1932H24.5913C25.0514 78.7272 25.2048 80.2611 25.3582 81.7951Z" fill="#1CD0C5"/>
<path d="M27.3522 135.176C27.0455 137.17 26.5853 139.318 25.9718 141.312C25.3582 141.159 24.7447 141.005 24.1311 140.698C24.7447 138.704 25.2048 136.71 25.5115 134.716C26.1251 134.869 26.7387 135.176 27.3522 135.176Z" fill="#8D67C3"/>
<path d="M71.0684 135.636C72.1421 135.636 73.2159 135.483 74.2896 135.483C67.5405 137.937 61.5582 135.79 52.2015 137.17C49.5938 137.477 47.5998 137.937 45.6057 138.244C49.7472 137.17 57.1099 136.403 71.0684 135.636Z" fill="#8D67C3"/>
<path d="M87.9414 117.689C86.5608 116.155 85.4871 114.315 85.0269 112.167C85.0269 111.86 84.8735 111.554 84.8735 111.093C85.6404 110.94 86.4074 110.94 87.1744 111.4C88.555 112.474 88.7083 114.775 87.9414 117.689Z" fill="#8D67C3"/>
<path d="M49.7474 52.19C48.0602 52.6502 46.5263 52.9569 45.1458 53.1103C45.1458 52.4968 45.6058 51.8832 46.9864 51.423C47.5999 51.2696 48.6737 51.5764 49.7474 52.19Z" fill="#1996EE"/>
<path d="M21.5236 60.6267C20.6033 60.9335 19.8363 61.2402 18.9159 61.547C18.4558 61.7004 17.8422 61.3936 17.6888 60.9335C17.5354 60.4733 17.8423 59.8597 18.3024 59.7063C19.2228 59.3995 20.1431 59.0927 21.2168 58.9393C21.2168 59.5529 21.3702 60.0131 21.5236 60.6267Z" fill="#19B4EE"/>
<path d="M20.143 53.4171C19.5294 53.7239 18.7625 54.0307 18.1489 54.3375C17.0752 54.7976 16.0015 55.2578 14.7743 55.5646C13.7006 55.8714 12.6269 56.1782 11.3998 56.3316C11.2464 55.8714 11.2464 55.4112 11.093 54.951C12.1668 54.7977 13.0871 54.4909 14.1608 54.0307C15.2346 53.7239 16.3083 53.2637 17.2286 52.6501C17.9956 52.1899 18.7625 51.8832 19.6829 51.423C19.8362 52.1899 19.9896 52.8035 20.143 53.4171Z" fill="#1CD0C5"/>
<path d="M56.8034 40.2252C56.8034 40.532 56.8033 40.8388 56.9567 41.299C55.116 42.5261 53.2754 43.5999 51.2814 44.5203C49.1339 45.594 46.9864 46.5144 44.8389 47.2814L41.6177 48.5085L39.9304 49.1221C39.6236 49.2755 39.3169 49.2755 39.1635 49.4289C38.8567 49.5823 38.5499 49.5823 38.2432 49.7357C37.1694 50.0425 35.9422 50.3492 34.7151 50.5026H34.5618C33.7948 50.0425 32.8745 49.5823 32.1075 48.9687C33.9482 48.6619 35.7889 48.2017 37.4762 47.7415C37.783 47.5881 37.9364 47.5881 38.2432 47.4348L39.0101 47.128L40.6974 46.5144L43.9185 45.4406C48.5203 44.2135 52.8152 42.6795 56.8034 40.2252Z" fill="#1CD0C5"/>
<path d="M19.5295 49.889C18.3024 50.1958 17.0753 50.5026 15.8481 50.8094C14.1609 51.2696 12.4736 51.5764 10.7863 52.0366C10.6329 51.423 10.6329 50.8094 10.4795 50.1958C12.1668 49.889 13.7007 49.4289 15.388 49.1221C16.6151 48.8153 17.9956 48.5085 19.2227 48.3551C19.2227 48.8153 19.3762 49.2755 19.5295 49.889Z" fill="#1996EE"/>
<path d="M50.5144 39.9184C48.6737 40.9922 46.833 41.7592 44.8389 42.5262C42.9982 43.2931 41.0041 43.9067 39.0101 44.5203C35.7889 45.4406 32.721 46.361 29.4998 47.2814C29.0396 46.9746 28.7329 46.5144 28.2727 46.2076C31.8007 45.2873 35.1753 44.5203 38.7033 43.4465C40.6973 42.8329 42.538 42.3728 44.5321 41.6058C46.3728 40.9922 48.3668 40.2252 50.0541 39.3049C50.2075 39.1515 50.5144 39.3049 50.5144 39.4583C50.8211 39.6117 50.8211 39.7651 50.5144 39.9184Z" fill="#1996EE"/>
<path d="M56.6499 44.5202C55.116 45.9007 53.4286 47.2813 51.588 48.5084C50.6676 49.122 49.7473 49.7356 48.6736 50.1958C48.2134 50.3491 47.5999 50.6559 47.1397 50.6559C46.6795 50.8093 46.066 50.9627 45.6058 50.9627C43.4583 51.4229 41.4642 51.7297 39.3167 52.1899C39.01 52.1899 38.7032 52.3433 38.3964 52.3433C37.6295 52.0365 36.8625 51.7297 36.0956 51.4229L39.01 50.9627C41.1575 50.6559 43.1515 50.3491 45.299 49.889C46.3727 49.7356 47.4465 49.4288 48.3668 49.122C49.2871 48.8152 50.2075 48.2016 51.1278 47.7414C52.9685 46.6677 54.6558 45.4405 56.3431 44.2134C56.4965 44.2134 56.4965 44.2134 56.6499 44.2134C56.6499 44.2134 56.6499 44.3668 56.6499 44.5202Z" fill="#F376A2"/>
<path d="M23.3641 148.061C23.2107 148.368 23.0573 148.675 22.9039 149.135C22.5971 148.982 22.5971 148.522 22.9039 148.368C22.9039 148.215 23.2107 148.061 23.3641 148.061Z" fill="#4263A8"/>
<path d="M16.1548 34.2428C16.7683 36.6971 17.3819 39.3048 17.9955 42.0659C15.0811 42.8329 12.32 43.7532 9.71242 44.5202C9.25225 40.9921 8.94545 37.6175 8.63867 34.5496C11.2463 34.5496 13.8539 34.3962 16.1548 34.2428Z" fill="#1CD0C5"/>
<path d="M55.1159 34.8563C53.4286 36.8505 41.6176 39.765 31.0337 39.9184C29.193 39.9184 27.5056 40.0718 25.8184 40.3785C25.8184 38.231 26.4319 35.6233 27.8124 33.169C34.1014 31.6351 49.7473 26.4197 53.582 28.2604C55.7295 29.1808 56.8032 33.0156 55.1159 34.8563Z" fill="#1CD0C5"/>
<path d="M63.3991 32.402C63.0923 32.7088 62.7855 32.8622 62.4787 33.169C60.7915 31.7884 59.2575 31.0215 58.3372 31.3282C58.0304 31.3282 57.877 31.4816 57.5702 31.4816C57.4168 30.2545 56.9567 29.0273 55.883 28.2604C55.2694 27.8002 55.4228 26.7264 56.0363 26.4196C56.9567 25.9594 58.3372 25.4993 59.5643 25.6526C62.0185 25.806 66.0067 30.1011 63.3991 32.402Z" fill="#1CD0C5"/>
</svg>
