<svg width="107" height="213" viewBox="0 0 107 213" fill="none" xmlns="http://www.w3.org/2000/svg">
<path d="M105.466 69.0483C105.159 67.2076 104.853 65.827 104.392 64.7533L104.086 63.5261C103.932 62.7591 103.626 61.8388 103.319 61.0718C103.012 59.998 102.245 59.0777 101.325 58.6175C101.785 57.8505 102.245 56.9302 102.398 56.0098C102.552 55.3962 102.705 54.7826 102.705 54.3225C103.012 52.9419 103.165 51.5614 103.165 50.0274V49.5672C103.319 45.2722 102.859 41.7441 101.631 38.5229C100.251 34.8414 98.1035 31.3133 95.0357 28.2454C93.5018 26.7115 91.6612 25.1776 89.5137 23.9504L89.6671 23.6436C90.434 24.1038 91.3544 24.4106 92.2747 24.4106C93.3485 24.4106 94.4222 24.1038 95.3425 23.4902L97.3366 22.2631V20.1155C97.49 18.5816 97.1832 17.3544 96.4163 16.2807L96.2628 16.1273L96.1095 15.9739C91.8146 10.6051 76.9357 0.481079 51.1661 0.481079C50.3992 0.481079 49.6322 0.481079 48.8653 0.481079C35.367 0.787868 24.9365 7.844 18.4941 20.8825C14.5059 29.1658 13.5856 36.8355 13.5856 37.6025C13.5856 38.3695 13.739 39.1364 14.0458 39.9034C13.4322 40.2102 12.8186 40.6704 12.2051 41.1306C10.0576 42.9713 8.98387 45.4256 8.98387 48.4935C8.98387 48.8003 8.83047 49.874 8.83047 50.7944L8.67711 52.4817C7.75677 65.9804 5.6093 88.8362 3.92201 97.1194C3.46184 98.6534 3.76862 100.187 4.68896 101.414C4.84235 101.568 4.84232 101.721 4.99571 101.721C3.76859 102.181 2.84827 103.102 2.23471 104.329L1.77456 105.249V105.71C1.00761 108.164 0.240619 111.692 0.39401 115.22C0.5474 116.907 0.854189 118.441 1.31436 119.975C1.31436 119.975 4.68894 164.46 28.1576 175.964C35.8271 181.026 41.5026 185.168 43.9568 187.315C49.6323 192.837 61.1365 196.672 72.0272 196.672C73.2543 196.672 74.4815 196.672 75.7086 196.519C77.0891 196.366 78.3162 196.212 79.3899 196.059C80.617 195.905 81.6908 195.752 82.4577 195.752C83.3781 195.752 85.2187 195.752 88.2865 208.79C88.7467 211.091 90.8942 212.779 93.3485 212.779C94.8824 212.779 96.2629 212.165 97.3366 210.938C98.2569 209.864 98.5637 208.637 98.4103 207.257C98.2569 203.422 97.6434 193.911 94.5756 184.708C93.962 182.867 93.195 181.179 92.4281 179.492C94.4222 178.725 95.9561 177.345 96.8764 175.351C97.6434 173.97 97.7968 171.976 98.7171 165.84L99.0238 163.846C99.6374 159.244 100.251 153.415 101.018 147.279C101.325 144.365 101.631 141.144 102.092 138.076L103.012 129.332C103.779 122.736 104.393 115.68 104.853 109.084C104.853 108.01 105.006 106.937 105.006 105.863C105.159 104.329 105.313 102.795 105.313 101.261V100.648L105.006 99.8806C104.699 99.1136 104.393 98.5 103.932 97.8864C104.853 97.2728 105.466 96.1991 105.773 95.1253L105.926 94.6651V94.205C107.307 82.8538 106.387 74.2637 105.466 69.0483Z" fill="white"/>
<path d="M80.4637 66.4406C80.3103 65.9805 80.157 65.5203 80.0036 65.0601C79.6968 64.1397 79.5434 63.3728 79.5434 62.4524C79.5434 61.9922 79.39 61.532 79.39 61.0718C79.2366 59.0777 79.5434 57.237 80.1569 55.703C79.5434 55.0895 78.7764 54.6293 78.1629 54.4759C76.0154 53.7089 74.6349 55.2429 73.2544 56.0098V56.1632C73.7145 61.532 76.7824 65.6737 79.2366 68.2814C79.8502 69.0483 81.0773 68.2814 80.7705 67.361C80.6171 66.9008 80.4637 66.594 80.4637 66.4406ZM97.49 39.75C96.4163 36.6822 94.5756 33.7677 91.968 31.16C86.4459 25.6378 76.9358 21.6495 62.3637 20.269C35.0602 17.6613 27.2373 32.3871 24.9364 39.9034C24.3229 41.8976 25.8568 44.0451 28.0042 44.1985L34.9068 44.5053L39.9687 44.6587C40.7357 44.6587 41.3492 44.6587 41.9628 44.5053C43.8034 44.1985 45.4908 43.4315 46.8713 42.2044C47.4848 41.7442 47.945 41.284 48.4052 40.6704C48.7119 40.3636 48.8653 39.9034 49.1721 39.5966C50.0925 37.9093 51.6263 36.222 53.467 35.1482C54.0806 34.8414 54.6942 34.5346 55.4611 34.3812C57.1484 33.7677 58.9891 33.6143 61.4433 33.7677C65.8917 34.0745 68.6527 35.3016 70.34 37.1423C72.7942 37.1423 76.3222 36.222 81.2307 38.0627C86.9061 40.2102 91.0477 52.4818 89.9739 53.8623C88.9002 55.3963 84.912 50.9478 83.5315 52.0216C82.3044 52.7886 84.4519 53.5555 86.2925 55.0895C87.9798 55.703 89.6671 56.6234 91.3544 57.5438C92.2747 58.004 93.1951 58.3107 94.2688 58.1574C96.1095 57.8506 97.7968 56.6234 98.1036 54.6293C98.257 54.3225 98.257 53.8623 98.257 53.5555C98.5637 52.3284 98.7172 51.1012 98.7172 49.8741C98.7172 49.7207 98.7172 49.4139 98.7172 49.2605C98.8706 45.7324 98.5637 42.6645 97.49 39.75ZM89.207 81.7801C88.9002 81.1665 88.5934 80.5529 88.2866 79.9393C87.9798 79.3258 87.6731 78.8656 87.3663 78.4054C86.7527 77.485 85.679 76.7181 84.6053 76.2579C83.5315 75.9511 82.151 75.4909 80.1569 75.1841C78.4696 74.8773 76.4756 74.7239 74.1748 74.7239C72.0273 74.7239 69.4197 74.7239 66.5052 75.0307C60.0629 75.6443 54.8475 77.3316 51.0128 79.6326C50.3992 79.9393 49.7857 80.3995 49.3255 80.7063C47.945 81.7801 46.7179 82.8538 45.9509 84.081C45.4907 84.6946 45.0306 85.4615 44.7238 86.0751C44.2636 87.1489 43.9569 88.376 43.9569 89.6032C43.9569 90.5235 43.9568 91.4439 44.1102 92.2109C44.2636 92.9778 44.417 93.7448 44.5704 94.3584C45.0306 95.7389 45.7975 96.6593 46.5645 97.2729C46.8712 97.4263 47.0246 97.5797 47.3314 97.7331C48.5585 98.1933 49.7857 98.3467 51.1662 98.1933C52.0865 98.0399 53.0069 97.8865 53.9272 97.7331C55.3077 97.4263 56.5348 97.1195 57.4552 96.8127C57.6086 96.8127 57.7619 96.8127 57.9153 96.8127C58.2221 96.8127 58.5289 96.8127 58.8357 96.6593C59.6026 96.6593 60.3696 96.6593 61.2899 96.8127C62.0569 96.9661 62.8239 97.1195 63.7442 97.2729C64.3578 97.4263 64.9713 97.5797 65.5848 97.7331C66.1984 97.8865 66.812 98.0399 67.4256 98.3466C70.6467 99.267 73.101 100.341 73.101 100.341C73.4078 100.494 73.7145 100.648 74.0213 100.801C75.2484 101.261 76.4755 101.721 77.5493 102.028C80.9239 102.948 83.3781 102.642 85.2188 101.721C85.9857 101.261 86.5994 100.801 87.2129 100.187C89.207 98.0399 89.9739 94.6652 90.5874 91.4439C90.7408 90.8303 90.7409 90.0634 90.7409 89.4498C90.7409 89.143 90.7409 88.8362 90.7409 88.376C90.5875 85.6149 89.9739 83.4674 89.207 81.7801ZM55.3077 109.544C55.3077 109.391 55.3077 109.238 55.3077 109.084C55.1543 108.317 55.1543 107.55 55.0009 106.783C52.0865 106.937 49.3255 107.244 46.4111 107.857C46.4111 108.01 46.4111 108.164 46.4111 108.317C46.4111 108.471 46.4111 108.624 46.5645 108.777V108.931C46.7179 109.238 46.7179 109.544 46.8713 109.851C48.5586 109.698 50.0924 109.698 51.7797 109.544C51.9331 109.238 51.9331 109.084 52.0865 108.777C52.0865 108.624 52.3933 108.471 52.5467 108.624C52.7001 108.624 52.8535 108.777 52.7001 108.931C52.7001 109.084 52.7001 109.391 52.5467 109.544C53.6204 109.544 54.5408 109.544 55.3077 109.544ZM55.3077 109.544C55.3077 109.391 55.3077 109.238 55.3077 109.084C55.1543 108.317 55.1543 107.55 55.0009 106.783C52.0865 106.937 49.3255 107.244 46.4111 107.857C46.4111 108.01 46.4111 108.164 46.4111 108.317C46.4111 108.471 46.4111 108.624 46.5645 108.777V108.931C46.7179 109.238 46.7179 109.544 46.8713 109.851C48.5586 109.698 50.0924 109.698 51.7797 109.544C51.9331 109.238 51.9331 109.084 52.0865 108.777C52.0865 108.624 52.3933 108.471 52.5467 108.624C52.7001 108.624 52.8535 108.777 52.7001 108.931C52.7001 109.084 52.7001 109.391 52.5467 109.544C53.6204 109.544 54.5408 109.544 55.3077 109.544ZM55.3077 109.544C55.3077 109.391 55.3077 109.238 55.3077 109.084C55.1543 108.317 55.1543 107.55 55.0009 106.783C52.0865 106.937 49.3255 107.244 46.4111 107.857C46.4111 108.01 46.4111 108.164 46.4111 108.317C46.4111 108.471 46.4111 108.624 46.5645 108.777V108.931C46.7179 109.238 46.7179 109.544 46.8713 109.851C48.5586 109.698 50.0924 109.698 51.7797 109.544C51.9331 109.238 51.9331 109.084 52.0865 108.777C52.0865 108.624 52.3933 108.471 52.5467 108.624C52.7001 108.624 52.8535 108.777 52.7001 108.931C52.7001 109.084 52.7001 109.391 52.5467 109.544C53.6204 109.544 54.5408 109.544 55.3077 109.544ZM55.3077 109.544C55.3077 109.391 55.3077 109.238 55.3077 109.084C55.1543 108.317 55.1543 107.55 55.0009 106.783C52.0865 106.937 49.3255 107.244 46.4111 107.857C46.4111 108.01 46.4111 108.164 46.4111 108.317C46.4111 108.471 46.4111 108.624 46.5645 108.777V108.931C46.7179 109.238 46.7179 109.544 46.8713 109.851C48.5586 109.698 50.0924 109.698 51.7797 109.544C51.9331 109.238 51.9331 109.084 52.0865 108.777C52.0865 108.624 52.3933 108.471 52.5467 108.624C52.7001 108.624 52.8535 108.777 52.7001 108.931C52.7001 109.084 52.7001 109.391 52.5467 109.544C53.6204 109.544 54.5408 109.544 55.3077 109.544ZM55.3077 109.544C55.3077 109.391 55.3077 109.238 55.3077 109.084C55.1543 108.317 55.1543 107.55 55.0009 106.783C52.0865 106.937 49.3255 107.244 46.4111 107.857C46.4111 108.01 46.4111 108.164 46.4111 108.317C46.4111 108.471 46.4111 108.624 46.5645 108.777V108.931C46.7179 109.238 46.7179 109.544 46.8713 109.851C48.5586 109.698 50.0924 109.698 51.7797 109.544C51.9331 109.238 51.9331 109.084 52.0865 108.777C52.0865 108.624 52.3933 108.471 52.5467 108.624C52.7001 108.624 52.8535 108.777 52.7001 108.931C52.7001 109.084 52.7001 109.391 52.5467 109.544C53.6204 109.544 54.5408 109.544 55.3077 109.544ZM55.3077 109.544C55.3077 109.391 55.3077 109.238 55.3077 109.084C55.1543 108.317 55.1543 107.55 55.0009 106.783C52.0865 106.937 49.3255 107.244 46.4111 107.857C46.4111 108.01 46.4111 108.164 46.4111 108.317C46.4111 108.471 46.4111 108.624 46.5645 108.777V108.931C46.7179 109.238 46.7179 109.544 46.8713 109.851C48.5586 109.698 50.0924 109.698 51.7797 109.544C51.9331 109.238 51.9331 109.084 52.0865 108.777C52.0865 108.624 52.3933 108.471 52.5467 108.624C52.7001 108.624 52.8535 108.777 52.7001 108.931C52.7001 109.084 52.7001 109.391 52.5467 109.544C53.6204 109.544 54.5408 109.544 55.3077 109.544ZM55.3077 109.544C55.3077 109.391 55.3077 109.238 55.3077 109.084C55.1543 108.317 55.1543 107.55 55.0009 106.783C52.0865 106.937 49.3255 107.244 46.4111 107.857C46.4111 108.01 46.4111 108.164 46.4111 108.317C46.4111 108.471 46.4111 108.624 46.5645 108.777V108.931C46.7179 109.238 46.7179 109.544 46.8713 109.851C48.5586 109.698 50.0924 109.698 51.7797 109.544C51.9331 109.238 51.9331 109.084 52.0865 108.777C52.0865 108.624 52.3933 108.471 52.5467 108.624C52.7001 108.624 52.8535 108.777 52.7001 108.931C52.7001 109.084 52.7001 109.391 52.5467 109.544C53.6204 109.544 54.5408 109.544 55.3077 109.544ZM55.3077 109.544C55.3077 109.391 55.3077 109.238 55.3077 109.084C55.1543 108.317 55.1543 107.55 55.0009 106.783C52.0865 106.937 49.3255 107.244 46.4111 107.857C46.4111 108.01 46.4111 108.164 46.4111 108.317C46.4111 108.471 46.4111 108.624 46.5645 108.777V108.931C46.7179 109.238 46.7179 109.544 46.8713 109.851C48.5586 109.698 50.0924 109.698 51.7797 109.544C51.9331 109.238 51.9331 109.084 52.0865 108.777C52.0865 108.624 52.3933 108.471 52.5467 108.624C52.7001 108.624 52.8535 108.777 52.7001 108.931C52.7001 109.084 52.7001 109.391 52.5467 109.544C53.6204 109.544 54.5408 109.544 55.3077 109.544ZM55.3077 109.544C55.3077 109.391 55.3077 109.238 55.3077 109.084C55.1543 108.317 55.1543 107.55 55.0009 106.783C52.0865 106.937 49.3255 107.244 46.4111 107.857C46.4111 108.01 46.4111 108.164 46.4111 108.317C46.4111 108.471 46.4111 108.624 46.5645 108.777V108.931C46.7179 109.238 46.7179 109.544 46.8713 109.851C48.5586 109.698 50.0924 109.698 51.7797 109.544C51.9331 109.238 51.9331 109.084 52.0865 108.777C52.0865 108.624 52.3933 108.471 52.5467 108.624C52.7001 108.624 52.8535 108.777 52.7001 108.931C52.7001 109.084 52.7001 109.391 52.5467 109.544C53.6204 109.544 54.5408 109.544 55.3077 109.544ZM55.3077 109.544C55.3077 109.391 55.3077 109.238 55.3077 109.084C55.1543 108.317 55.1543 107.55 55.0009 106.783C52.0865 106.937 49.3255 107.244 46.4111 107.857C46.4111 108.01 46.4111 108.164 46.4111 108.317C46.4111 108.471 46.4111 108.624 46.5645 108.777V108.931C46.7179 109.238 46.7179 109.544 46.8713 109.851C48.5586 109.698 50.0924 109.698 51.7797 109.544C51.9331 109.238 51.9331 109.084 52.0865 108.777C52.0865 108.624 52.3933 108.471 52.5467 108.624C52.7001 108.624 52.8535 108.777 52.7001 108.931C52.7001 109.084 52.7001 109.391 52.5467 109.544C53.6204 109.544 54.5408 109.544 55.3077 109.544ZM55.3077 109.544C55.3077 109.391 55.3077 109.238 55.3077 109.084C55.1543 108.317 55.1543 107.55 55.0009 106.783C52.0865 106.937 49.3255 107.244 46.4111 107.857C46.4111 108.01 46.4111 108.164 46.4111 108.317C46.4111 108.471 46.4111 108.624 46.5645 108.777V108.931C46.7179 109.238 46.7179 109.544 46.8713 109.851C48.5586 109.698 50.0924 109.698 51.7797 109.544C51.9331 109.238 51.9331 109.084 52.0865 108.777C52.0865 108.624 52.3933 108.471 52.5467 108.624C52.7001 108.624 52.8535 108.777 52.7001 108.931C52.7001 109.084 52.7001 109.391 52.5467 109.544C53.6204 109.544 54.5408 109.544 55.3077 109.544ZM55.3077 109.544C55.3077 109.391 55.3077 109.238 55.3077 109.084C55.1543 108.317 55.1543 107.55 55.0009 106.783C52.0865 106.937 49.3255 107.244 46.4111 107.857C46.4111 108.01 46.4111 108.164 46.4111 108.317C46.4111 108.471 46.4111 108.624 46.5645 108.777V108.931C46.7179 109.238 46.7179 109.544 46.8713 109.851C48.5586 109.698 50.0924 109.698 51.7797 109.544C51.9331 109.238 51.9331 109.084 52.0865 108.777C52.0865 108.624 52.3933 108.471 52.5467 108.624C52.7001 108.624 52.8535 108.777 52.7001 108.931C52.7001 109.084 52.7001 109.391 52.5467 109.544C53.6204 109.544 54.5408 109.544 55.3077 109.544ZM55.3077 109.544C55.3077 109.391 55.3077 109.238 55.3077 109.084C55.1543 108.317 55.1543 107.55 55.0009 106.783C52.0865 106.937 49.3255 107.244 46.4111 107.857C46.4111 108.01 46.4111 108.164 46.4111 108.317C46.4111 108.471 46.4111 108.624 46.5645 108.777V108.931C46.7179 109.238 46.7179 109.544 46.8713 109.851C48.5586 109.698 50.0924 109.698 51.7797 109.544C51.9331 109.238 51.9331 109.084 52.0865 108.777C52.0865 108.624 52.3933 108.471 52.5467 108.624C52.7001 108.624 52.8535 108.777 52.7001 108.931C52.7001 109.084 52.7001 109.391 52.5467 109.544C53.6204 109.544 54.5408 109.544 55.3077 109.544ZM98.1036 100.187C97.1833 101.261 96.2629 102.642 95.496 104.022C93.6553 107.09 92.1214 110.618 92.2748 113.839C92.5816 121.356 94.1155 122.123 92.7349 123.197H92.5816C91.6613 123.197 88.5934 116.907 78.623 113.379C78.4696 113.379 78.3163 113.226 78.1629 113.226C76.0154 112.459 73.7145 111.999 70.9535 111.539C70.8001 111.539 70.8001 111.539 70.6467 111.539C68.806 111.232 66.6586 111.078 64.5111 111.078C63.8975 111.078 63.4374 111.078 62.8238 111.078C61.1366 111.078 59.2959 111.232 57.3018 111.385C56.8416 111.385 56.3815 111.539 55.9213 111.539C54.6942 111.692 53.6204 111.845 52.3933 111.999C51.473 112.152 50.3993 112.306 49.3255 112.459C48.8653 112.612 48.4052 112.766 48.2518 113.226C47.6382 114.146 47.945 115.373 49.1721 115.834C55.1543 117.828 62.9772 121.509 65.1247 128.565C65.5849 129.946 66.9654 130.713 68.1925 130.253C69.573 129.946 71.2603 129.946 73.101 131.173C73.5612 131.48 74.0213 131.94 74.4815 132.554C75.2484 133.627 76.0154 135.008 76.7823 137.002C77.0891 137.616 77.2425 138.383 77.3959 139.15C78.0095 141.45 78.4697 144.518 78.7765 148.2C78.9299 149.887 79.0832 151.728 79.0832 153.722C79.2366 158.631 79.2366 164.46 78.7765 171.516C78.6231 173.817 76.629 175.504 74.3281 175.351C72.9476 175.197 71.2603 175.044 69.4196 174.89C67.1188 174.584 64.6645 174.43 61.9035 174.123C51.7797 173.05 39.5085 171.516 31.5322 170.135C30.3051 169.982 29.6916 171.516 30.7653 172.129C36.1339 175.657 43.8034 180.873 47.3314 184.094C52.7001 189.309 65.2781 192.991 75.7087 192.071C85.0655 191.304 88.2866 187.622 93.0417 207.717C93.1951 208.637 94.729 208.484 94.5756 207.563C94.4223 201.888 93.5019 193.604 90.8942 186.088C90.1273 183.787 89.0536 181.64 87.9799 179.492C87.5197 178.725 87.2129 178.112 86.7527 177.345C86.2925 176.731 86.7527 175.811 87.5196 175.964C89.5137 176.118 92.2748 175.811 93.3485 173.51C93.8087 172.589 94.2688 168.908 95.0358 163.386C95.9561 156.636 96.8765 147.279 97.9503 137.769C98.257 134.854 98.5638 131.94 98.8706 129.026C99.6375 121.663 100.251 114.76 100.711 108.931C100.865 106.016 101.171 103.562 101.171 101.415C100.558 99.7272 98.8706 99.1136 98.1036 100.187ZM55.3077 109.544C55.3077 109.391 55.3077 109.238 55.3077 109.084C55.1543 108.317 55.1543 107.55 55.0009 106.783C52.0865 106.937 49.3255 107.244 46.4111 107.857C46.4111 108.01 46.4111 108.164 46.4111 108.317C46.4111 108.471 46.4111 108.624 46.5645 108.777V108.931C46.7179 109.238 46.7179 109.544 46.8713 109.851C48.5586 109.698 50.0924 109.698 51.7797 109.544C51.9331 109.238 51.9331 109.084 52.0865 108.777C52.0865 108.624 52.3933 108.471 52.5467 108.624C52.7001 108.624 52.8535 108.777 52.7001 108.931C52.7001 109.084 52.7001 109.391 52.5467 109.544C53.6204 109.544 54.5408 109.544 55.3077 109.544ZM55.3077 109.544C55.3077 109.391 55.3077 109.238 55.3077 109.084C55.1543 108.317 55.1543 107.55 55.0009 106.783C52.0865 106.937 49.3255 107.244 46.4111 107.857C46.4111 108.01 46.4111 108.164 46.4111 108.317C46.4111 108.471 46.4111 108.624 46.5645 108.777V108.931C46.7179 109.238 46.7179 109.544 46.8713 109.851C48.5586 109.698 50.0924 109.698 51.7797 109.544C51.9331 109.238 51.9331 109.084 52.0865 108.777C52.0865 108.624 52.3933 108.471 52.5467 108.624C52.7001 108.624 52.8535 108.777 52.7001 108.931C52.7001 109.084 52.7001 109.391 52.5467 109.544C53.6204 109.544 54.5408 109.544 55.3077 109.544ZM55.3077 109.544C55.3077 109.391 55.3077 109.238 55.3077 109.084C55.1543 108.317 55.1543 107.55 55.0009 106.783C52.0865 106.937 49.3255 107.244 46.4111 107.857C46.4111 108.01 46.4111 108.164 46.4111 108.317C46.4111 108.471 46.4111 108.624 46.5645 108.777V108.931C46.7179 109.238 46.7179 109.544 46.8713 109.851C48.5586 109.698 50.0924 109.698 51.7797 109.544C51.9331 109.238 51.9331 109.084 52.0865 108.777C52.0865 108.624 52.3933 108.471 52.5467 108.624C52.7001 108.624 52.8535 108.777 52.7001 108.931C52.7001 109.084 52.7001 109.391 52.5467 109.544C53.6204 109.544 54.5408 109.544 55.3077 109.544ZM55.3077 109.544C55.3077 109.391 55.3077 109.238 55.3077 109.084C55.1543 108.317 55.1543 107.55 55.0009 106.783C52.0865 106.937 49.3255 107.244 46.4111 107.857C46.4111 108.01 46.4111 108.164 46.4111 108.317C46.4111 108.471 46.4111 108.624 46.5645 108.777V108.931C46.7179 109.238 46.7179 109.544 46.8713 109.851C48.5586 109.698 50.0924 109.698 51.7797 109.544C51.9331 109.238 51.9331 109.084 52.0865 108.777C52.0865 108.624 52.3933 108.471 52.5467 108.624C52.7001 108.624 52.8535 108.777 52.7001 108.931C52.7001 109.084 52.7001 109.391 52.5467 109.544C53.6204 109.544 54.5408 109.544 55.3077 109.544ZM55.3077 109.544C55.3077 109.391 55.3077 109.238 55.3077 109.084C55.1543 108.317 55.1543 107.55 55.0009 106.783C52.0865 106.937 49.3255 107.244 46.4111 107.857C46.4111 108.01 46.4111 108.164 46.4111 108.317C46.4111 108.471 46.4111 108.624 46.5645 108.777V108.931C46.7179 109.238 46.7179 109.544 46.8713 109.851C48.5586 109.698 50.0924 109.698 51.7797 109.544C51.9331 109.238 51.9331 109.084 52.0865 108.777C52.0865 108.624 52.3933 108.471 52.5467 108.624C52.7001 108.624 52.8535 108.777 52.7001 108.931C52.7001 109.084 52.7001 109.391 52.5467 109.544C53.6204 109.544 54.5408 109.544 55.3077 109.544ZM55.3077 109.544C55.3077 109.391 55.3077 109.238 55.3077 109.084C55.1543 108.317 55.1543 107.55 55.0009 106.783C52.0865 106.937 49.3255 107.244 46.4111 107.857C46.4111 108.01 46.4111 108.164 46.4111 108.317C46.4111 108.471 46.4111 108.624 46.5645 108.777V108.931C46.7179 109.238 46.7179 109.544 46.8713 109.851C48.5586 109.698 50.0924 109.698 51.7797 109.544C51.9331 109.238 51.9331 109.084 52.0865 108.777C52.0865 108.624 52.3933 108.471 52.5467 108.624C52.7001 108.624 52.8535 108.777 52.7001 108.931C52.7001 109.084 52.7001 109.391 52.5467 109.544C53.6204 109.544 54.5408 109.544 55.3077 109.544ZM55.3077 109.544C55.3077 109.391 55.3077 109.238 55.3077 109.084C55.1543 108.317 55.1543 107.55 55.0009 106.783C52.0865 106.937 49.3255 107.244 46.4111 107.857C46.4111 108.01 46.4111 108.164 46.4111 108.317C46.4111 108.471 46.4111 108.624 46.5645 108.777V108.931C46.7179 109.238 46.7179 109.544 46.8713 109.851C48.5586 109.698 50.0924 109.698 51.7797 109.544C51.9331 109.238 51.9331 109.084 52.0865 108.777C52.0865 108.624 52.3933 108.471 52.5467 108.624C52.7001 108.624 52.8535 108.777 52.7001 108.931C52.7001 109.084 52.7001 109.391 52.5467 109.544C53.6204 109.544 54.5408 109.544 55.3077 109.544ZM55.3077 109.544C55.3077 109.391 55.3077 109.238 55.3077 109.084C55.1543 108.317 55.1543 107.55 55.0009 106.783C52.0865 106.937 49.3255 107.244 46.4111 107.857C46.4111 108.01 46.4111 108.164 46.4111 108.317C46.4111 108.471 46.4111 108.624 46.5645 108.777V108.931C46.7179 109.238 46.7179 109.544 46.8713 109.851C48.5586 109.698 50.0924 109.698 51.7797 109.544C51.9331 109.238 51.9331 109.084 52.0865 108.777C52.0865 108.624 52.3933 108.471 52.5467 108.624C52.7001 108.624 52.8535 108.777 52.7001 108.931C52.7001 109.084 52.7001 109.391 52.5467 109.544C53.6204 109.544 54.5408 109.544 55.3077 109.544ZM55.3077 109.544C55.3077 109.391 55.3077 109.238 55.3077 109.084C55.1543 108.317 55.1543 107.55 55.0009 106.783C52.0865 106.937 49.3255 107.244 46.4111 107.857C46.4111 108.01 46.4111 108.164 46.4111 108.317C46.4111 108.471 46.4111 108.624 46.5645 108.777V108.931C46.7179 109.238 46.7179 109.544 46.8713 109.851C48.5586 109.698 50.0924 109.698 51.7797 109.544C51.9331 109.238 51.9331 109.084 52.0865 108.777C52.0865 108.624 52.3933 108.471 52.5467 108.624C52.7001 108.624 52.8535 108.777 52.7001 108.931C52.7001 109.084 52.7001 109.391 52.5467 109.544C53.6204 109.544 54.5408 109.544 55.3077 109.544ZM55.3077 109.544C55.3077 109.391 55.3077 109.238 55.3077 109.084C55.1543 108.317 55.1543 107.55 55.0009 106.783C52.0865 106.937 49.3255 107.244 46.4111 107.857C46.4111 108.01 46.4111 108.164 46.4111 108.317C46.4111 108.471 46.4111 108.624 46.5645 108.777V108.931C46.7179 109.238 46.7179 109.544 46.8713 109.851C48.5586 109.698 50.0924 109.698 51.7797 109.544C51.9331 109.238 51.9331 109.084 52.0865 108.777C52.0865 108.624 52.3933 108.471 52.5467 108.624C52.7001 108.624 52.8535 108.777 52.7001 108.931C52.7001 109.084 52.7001 109.391 52.5467 109.544C53.6204 109.544 54.5408 109.544 55.3077 109.544ZM55.3077 109.544C55.3077 109.391 55.3077 109.238 55.3077 109.084C55.1543 108.317 55.1543 107.55 55.0009 106.783C52.0865 106.937 49.3255 107.244 46.4111 107.857C46.4111 108.01 46.4111 108.164 46.4111 108.317C46.4111 108.471 46.4111 108.624 46.5645 108.777V108.931C46.7179 109.238 46.7179 109.544 46.8713 109.851C48.5586 109.698 50.0924 109.698 51.7797 109.544C51.9331 109.238 51.9331 109.084 52.0865 108.777C52.0865 108.624 52.3933 108.471 52.5467 108.624C52.7001 108.624 52.8535 108.777 52.7001 108.931C52.7001 109.084 52.7001 109.391 52.5467 109.544C53.6204 109.544 54.5408 109.544 55.3077 109.544ZM55.3077 109.544C55.3077 109.391 55.3077 109.238 55.3077 109.084C55.1543 108.317 55.1543 107.55 55.0009 106.783C52.0865 106.937 49.3255 107.244 46.4111 107.857C46.4111 108.01 46.4111 108.164 46.4111 108.317C46.4111 108.471 46.4111 108.624 46.5645 108.777V108.931C46.7179 109.238 46.7179 109.544 46.8713 109.851C48.5586 109.698 50.0924 109.698 51.7797 109.544C51.9331 109.238 51.9331 109.084 52.0865 108.777C52.0865 108.624 52.3933 108.471 52.5467 108.624C52.7001 108.624 52.8535 108.777 52.7001 108.931C52.7001 109.084 52.7001 109.391 52.5467 109.544C53.6204 109.544 54.5408 109.544 55.3077 109.544ZM11.5915 114.76C10.0576 113.379 8.21693 110.772 7.91015 106.17C7.91015 106.016 7.91014 105.863 7.75675 105.863C7.44997 105.403 6.68302 105.403 6.37624 106.016V106.17C5.60929 108.471 4.8423 111.692 4.99569 114.76C5.14908 116.907 5.76267 119.055 6.9898 120.896C7.91014 122.123 9.59742 122.276 10.6712 121.356C10.8245 121.202 11.1313 120.896 11.2847 120.589L12.3585 118.441C12.972 117.214 12.6652 115.68 11.5915 114.76ZM92.8883 18.4282C89.6671 14.44 75.7086 4.00918 49.1721 4.62276C34.6 4.92954 26.7771 14.1332 22.6356 22.5699C18.9542 30.2396 18.1873 37.2957 18.1873 37.4491C18.1873 37.9093 18.4941 38.3695 19.1076 38.5229H19.261C19.7212 38.5229 20.028 38.0627 20.1814 37.6025C20.1814 37.4491 20.7949 31.9269 23.5559 25.4844C27.2373 16.8943 34.6 6.77028 49.4789 6.46349C75.095 5.84991 88.9002 15.9739 91.6612 19.502C91.968 19.9622 92.5816 19.9622 93.0417 19.6554C93.0417 19.502 93.1951 18.8884 92.8883 18.4282ZM18.8008 43.2781C18.6474 43.2781 16.8068 42.9713 15.2729 44.1985C14.1991 45.1188 13.5856 46.346 13.5856 48.1867C13.5856 48.9537 13.4322 50.4876 13.2788 52.4818C12.5119 63.2194 10.3644 88.6828 8.3703 97.8865C8.21691 98.3466 8.52369 98.9602 9.13725 98.9602C9.29064 98.9602 9.29066 98.9602 9.44405 98.9602C9.90422 98.9602 10.211 98.6534 10.3644 98.1933C12.5118 88.5294 14.8127 61.532 15.4263 51.408C15.5797 49.8741 15.5797 48.8003 15.5797 48.1867C15.5797 46.9596 15.8864 46.0392 16.5 45.579C17.2669 44.9654 18.4941 44.9654 18.4941 45.1188C18.9542 45.1188 19.5678 44.8121 19.5678 44.3519C19.5678 43.8917 19.261 43.4315 18.8008 43.2781ZM101.171 69.8153C100.865 68.2814 100.558 66.9008 100.251 65.8271C99.6375 63.6795 99.3307 62.4524 99.1774 62.4524C99.024 61.9922 98.4104 61.6854 97.9503 61.9922C97.4901 62.1456 97.1832 62.7592 97.49 63.2194C97.49 63.2194 97.6435 63.6795 97.9503 64.4465C98.1036 64.9067 98.257 65.5203 98.4104 66.2872C99.024 68.4348 99.6375 71.656 100.098 75.9511C100.251 77.3316 100.251 78.7122 100.404 80.3995C100.558 84.2344 100.404 88.6828 99.9443 93.5914C99.9443 94.0516 100.251 94.6652 100.865 94.6652H101.018C101.478 94.6652 101.785 94.205 101.938 93.7448C102.859 83.1606 102.092 75.0307 101.171 69.8153ZM90.4341 116.754C89.8205 115.834 89.0536 114.913 88.1332 114.146C87.3663 113.533 86.7527 112.919 85.9857 112.306C85.5256 111.999 85.0655 111.692 84.6053 111.385C84.1451 111.078 83.6849 110.925 83.2247 110.618C82.3044 110.158 81.3841 109.698 80.4637 109.391C78.4697 108.624 76.4755 108.164 74.4815 107.704C73.5611 107.55 72.6408 107.397 71.7205 107.244C71.1069 107.09 70.4934 107.09 69.7264 106.937C69.2662 106.937 68.9595 106.783 68.4993 106.783C67.579 106.63 66.6586 106.63 65.7383 106.63C65.1247 106.63 64.6645 106.63 64.0509 106.477C63.5908 106.477 62.9772 106.477 62.517 106.477C60.6764 106.477 58.6823 106.477 56.8416 106.63C56.6882 106.63 56.6882 106.63 56.5348 106.63C56.0747 106.63 55.6145 106.63 55.1543 106.783C52.2399 106.937 49.4789 107.244 46.5645 107.857C46.1043 108.01 45.6441 108.01 45.0306 108.164C44.8772 108.164 44.7238 108.164 44.417 108.317C43.9568 108.471 43.6501 108.931 43.6501 109.391C43.6501 109.851 44.1102 110.311 44.7238 110.311C45.0306 110.311 45.184 110.311 45.3374 110.311C45.7975 110.311 46.4111 110.158 47.0247 110.158C48.712 110.005 50.2458 110.005 51.9331 109.851C52.2399 109.851 52.5467 109.851 52.8535 109.851C53.6204 109.851 54.5408 109.851 55.3077 109.851C55.7679 109.851 56.0747 109.851 56.5348 109.851C56.6882 109.851 56.8416 109.851 56.995 109.851C58.5289 109.851 60.0628 109.851 61.5967 109.851C62.0569 109.851 62.3637 109.851 62.8238 109.851C64.6645 109.851 66.3518 110.005 68.1925 110.311C71.1069 110.618 74.0213 111.078 76.7823 111.845C77.0891 111.999 77.5493 111.999 77.8561 112.152C78.3162 112.306 78.9298 112.459 79.39 112.612C80.0035 112.766 80.4638 113.072 81.0773 113.226C81.8443 113.533 82.4578 113.839 83.2247 114.146C85.3722 115.22 87.3662 116.601 89.0535 118.441C89.3603 118.748 89.8206 118.748 90.2807 118.595C90.5875 117.828 90.7409 117.214 90.4341 116.754Z" fill="#1E1C31"/>
<path d="M98.2569 137.309C97.3366 146.819 96.2629 156.176 95.3425 162.926C92.7349 161.392 89.8205 157.864 83.5315 155.102C82.1509 154.489 80.9238 154.029 79.6967 153.569C79.6967 151.574 79.5433 149.734 79.3899 148.046C81.8441 148.046 84.145 147.74 85.3722 146.666C89.0535 143.598 91.3544 140.377 93.8086 138.843C95.4959 138.076 97.0298 137.769 98.2569 137.309Z" fill="#1996EE"/>
<path d="M90.7408 116.907C91.0476 117.367 90.8942 117.981 90.434 118.288C90.1273 118.595 89.5137 118.441 89.2069 118.134C89.0535 117.674 88.7467 117.367 88.7467 117.061C88.44 116.294 88.2865 115.373 88.4399 114.3C89.3603 115.22 90.1273 115.987 90.7408 116.907Z" fill="#19B4EE"/>
<path d="M100.251 108.624C99.7909 114.3 99.1773 121.356 98.4103 128.719C96.5696 127.645 94.5756 125.651 92.7349 123.35H92.8882C94.2687 122.276 92.8882 121.356 92.4281 113.993C92.2747 110.771 93.8086 107.243 95.6493 104.176C97.1832 105.249 98.7171 106.783 100.251 108.624Z" fill="#19B4EE"/>
<path d="M97.49 39.75C93.962 37.6025 92.4282 34.3812 91.968 31.1599C94.729 33.7676 96.4163 36.6821 97.49 39.75Z" fill="#19B4EE"/>
<path d="M90.2807 185.628C88.2866 183.174 87.3662 180.719 87.3662 179.032C88.44 181.18 89.5137 183.48 90.2807 185.628Z" fill="#4263A8"/>
<path d="M12.3585 118.595L11.2847 120.742C11.1313 121.049 10.978 121.356 10.6712 121.509C8.83049 118.748 6.683 116.601 4.99569 114.76C4.8423 111.692 5.6093 108.471 6.37625 106.17C6.83642 106.016 7.29659 105.863 7.75676 105.863C7.75676 106.016 7.91016 106.17 7.91016 106.17C8.21694 110.772 10.0576 113.379 11.5915 114.76C12.6653 115.68 12.9721 117.214 12.3585 118.595Z" fill="#F376A2"/>
<path d="M74.0214 74.7239C76.4756 74.7239 78.4697 75.0307 80.0036 75.1841C79.0833 75.1841 78.4697 75.3375 78.0096 75.6442C77.0892 76.4112 76.1688 77.485 75.2485 76.5646C75.0951 76.4112 74.6349 75.6442 74.0214 74.7239Z" fill="#F376A2"/>
<path d="M79.2367 60.9184C79.2367 61.3786 79.2366 61.8388 79.39 62.299C79.0832 62.1456 78.7765 62.1456 78.4697 62.1456C77.7028 61.9922 76.9358 62.1456 76.1689 62.299C76.0155 62.299 75.7087 62.299 75.7087 61.9922C75.7087 61.8388 75.7087 61.532 75.8621 61.532C76.7824 61.0718 77.7027 60.765 78.6231 60.765C78.7765 60.765 79.0833 60.9184 79.2367 60.9184Z" fill="#8D67C3"/>
<path d="M80.4636 66.4406C80.3102 66.4406 80.3102 66.4406 80.1568 66.4406C79.6967 66.2872 79.5433 65.827 79.85 65.3668C79.85 65.2135 80.0034 65.2135 80.1568 65.0601C80.1568 65.3668 80.1568 65.9804 80.4636 66.4406Z" fill="#1CD0C5"/>
<path d="M73.101 78.0986C74.7883 78.252 75.5552 83.1606 74.3281 83.4674C73.101 83.7742 69.2662 81.3198 69.8797 80.2461C70.4933 79.3257 71.7205 77.9452 73.101 78.0986Z" fill="#19B4EE"/>
<path d="M68.9595 86.9955C68.6528 87.4557 68.1926 87.4557 67.8858 87.3023C64.3578 84.848 61.1366 85.3082 61.1366 85.3082C60.8298 85.3082 60.3696 85.1548 60.3696 84.6946C60.3696 84.3878 60.523 83.9276 60.9832 83.9276C61.1366 83.9276 64.818 83.1607 68.9595 86.0751C69.1129 86.2285 69.1129 86.6887 68.9595 86.9955Z" fill="#F376A2"/>
<path d="M76.7823 135.775C76.6289 136.082 76.6289 136.542 76.3222 136.849C75.7086 134.854 74.7883 133.474 74.0214 132.4C76.0154 133.014 77.2425 134.087 76.7823 135.775Z" fill="#8D67C3"/>
<path d="M73.7145 35.4549C72.9476 35.3015 72.334 34.9947 71.7204 34.5345C71.1069 34.0744 70.4933 33.6142 70.1865 32.8472C69.7263 32.0802 69.573 31.1599 69.7264 30.3929C69.7264 30.2395 69.8797 29.9327 69.8797 29.7793C69.8797 29.6259 70.0332 29.3191 70.0332 29.1657L70.4933 28.2454L70.6467 27.9386C70.6467 27.7852 70.6467 27.7852 70.8001 27.6318C70.8001 27.4784 70.8001 27.4784 70.8001 27.325C70.8001 27.1716 70.8001 27.1716 70.8001 27.0182C70.8001 26.558 70.6467 26.2513 70.4933 25.7911C70.0332 24.8707 69.2662 24.1037 68.4993 23.3368C68.1925 23.03 68.1925 22.7232 68.4993 22.4164C68.6526 22.263 68.9594 22.1096 69.2662 22.263C70.0332 22.5698 70.4934 22.8766 71.1069 23.1834C71.7205 23.6435 72.1807 24.1037 72.6409 24.7173C73.101 25.3309 73.4078 26.0979 73.4078 27.0182C73.4078 27.1716 73.4078 27.4784 73.4078 27.6318C73.4078 27.7852 73.4078 28.092 73.2544 28.2454C73.2544 28.3988 73.101 28.7056 73.101 28.859C73.101 29.0124 72.9476 29.1657 72.7942 29.4725C72.6408 29.9327 72.4874 30.0861 72.4874 30.2395C72.4874 30.3929 72.4874 30.3929 72.334 30.5463C72.334 30.6997 72.1806 30.6997 72.1806 30.8531C72.0272 31.3133 72.1806 31.6201 72.1806 32.0802C72.4874 32.8472 73.2544 33.7676 74.1748 34.3811C74.4816 34.5345 74.4815 34.9947 74.3281 35.3015C74.3281 35.4549 74.0213 35.6083 73.7145 35.4549Z" fill="#19B4EE"/>
<path d="M68.8061 31.4667C68.8061 30.8531 68.6526 30.0862 68.3459 29.3192C68.0391 28.5522 67.5789 27.9386 67.1188 27.1717C66.045 25.9445 64.6645 24.8708 62.9773 24.2572C62.8239 24.2572 62.8239 24.1038 62.8239 23.9504C62.8239 23.797 62.9773 23.797 62.9773 23.797C64.8179 24.1038 66.5053 24.8708 68.0392 26.0979C68.8061 26.7115 69.4196 27.4785 70.0332 28.2454C70.6468 29.0124 71.1069 29.9328 71.2603 31.1599C71.4137 31.9269 70.9536 32.5405 70.34 32.6939C69.5731 32.8473 68.9595 32.3871 68.8061 31.7735C68.8061 31.6201 68.8061 31.6201 68.8061 31.4667Z" fill="#1CD0C5"/>
<path d="M74.4815 23.3368C75.4018 23.3368 76.3222 23.3368 77.2425 23.6436C78.1629 23.9504 78.9298 24.4106 79.6967 25.0241C80.4637 25.6377 81.0773 26.4047 81.5374 27.1717C81.8442 27.6318 81.8442 28.092 81.9976 28.3988C82.151 28.859 82.151 29.3192 82.3044 29.7794C82.3044 30.2395 81.9976 30.6997 81.5374 30.6997C81.2307 30.6997 80.7704 30.5463 80.617 30.2395V30.0861C80.4636 29.7794 80.3103 29.3192 80.1569 29.0124C80.0035 28.7056 79.8501 28.3988 79.6967 28.092C79.39 27.4784 78.9298 27.0183 78.3162 26.5581C77.856 26.0979 77.2425 25.6377 76.4756 25.3309L76.0153 25.1775C75.862 25.1775 75.7086 25.0241 75.5552 25.0241C75.2484 24.8707 74.7882 24.8707 74.4815 24.7173H74.3281C74.0213 24.5639 73.7146 24.2572 73.8679 23.797C73.8679 23.4902 74.1747 23.3368 74.4815 23.3368Z" fill="#8D67C3"/>
<path d="M75.095 33.6142C74.4815 32.8473 74.0213 32.0803 73.7145 31.0065C73.5611 30.5463 73.5612 29.9328 73.8679 29.3192C74.0213 28.7056 74.4815 28.092 75.095 27.7853C75.2484 27.6319 75.4018 27.6319 75.5552 27.6319C75.7086 27.6319 75.862 27.4785 76.0153 27.4785C76.3221 27.3251 76.629 27.3251 76.9357 27.3251C77.7027 27.3251 78.3162 27.7853 78.623 28.3988C78.9298 28.859 79.0832 29.4726 79.2366 29.9328C79.2366 30.393 79.2365 31.0065 79.0831 31.4667C78.9297 31.7735 78.7764 31.9269 78.4696 31.7735C78.3162 31.7735 78.1628 31.6201 78.1628 31.3133V31.1599C78.0094 30.5464 77.7027 29.7794 77.3959 29.3192C77.2425 29.1658 77.0891 29.1658 76.9357 29.1658C76.7823 29.1658 76.4755 29.3192 76.3221 29.3192C76.1687 29.4726 76.0154 29.626 75.862 29.7794C75.7086 29.9328 75.7086 30.2396 75.7086 30.5463C75.7086 31.1599 75.862 32.0803 76.1688 32.8473C76.3222 33.1541 76.0154 33.4608 75.862 33.4608C75.4018 33.7676 75.2484 33.7676 75.095 33.6142Z" fill="#F376A2"/>
<path d="M48.5585 40.517C48.0984 41.1306 47.6382 41.5907 47.0246 42.0509C47.0246 41.8975 46.8712 41.7441 46.8712 41.7441C46.5645 40.9772 46.2577 40.2102 45.6441 39.75C45.1839 39.2898 44.417 38.983 43.6501 38.5229C43.3433 38.3695 43.1899 38.0627 43.3433 37.7559C43.4966 37.6025 43.6501 37.4491 43.8034 37.4491C44.7238 37.4491 45.9509 37.6025 46.8712 38.2161C47.3314 38.5229 47.7916 38.983 48.0983 39.4432C48.2517 39.9034 48.4051 40.2102 48.5585 40.517Z" fill="#4263A8"/>
<path d="M55.6144 34.0744C54.8475 34.2278 54.2339 34.5346 53.6204 34.8414C53.1602 34.3812 52.7 34.0744 52.2399 33.6142C51.6263 33.0006 51.1661 32.3871 50.7059 31.4667C50.5525 31.1599 50.7059 30.6997 51.0127 30.5463C51.3195 30.3929 51.4729 30.3929 51.7796 30.5463C52.3932 31.0065 53.0068 31.6201 53.6204 32.0803C54.2339 32.5404 54.8475 33.154 55.3077 33.6142C55.4611 34.0744 55.461 34.0744 55.6144 34.0744Z" fill="#1996EE"/>
<path d="M38.5881 38.5229C38.5881 37.7559 38.7415 37.1423 39.0483 36.5287C39.3551 35.9152 39.8152 35.3016 40.2754 34.8414C40.7356 34.3812 41.5025 33.921 42.2695 33.7676C43.0364 33.6142 43.8034 33.6142 44.4169 33.7676C44.7237 33.7676 44.8771 34.0744 44.8771 34.3812C44.8771 34.5346 44.7237 34.688 44.5703 34.688H44.4169C43.8034 34.8414 43.3432 34.9948 42.883 35.1482C42.4229 35.455 42.1161 35.6084 41.6559 36.0685C41.3491 36.3753 41.0424 36.8355 40.7356 37.2957C40.4288 37.7559 40.122 38.2161 39.9686 38.6762V38.8296C39.8152 39.1364 39.3551 39.2898 39.0483 39.1364C38.7415 39.1364 38.5881 38.8296 38.5881 38.5229Z" fill="#F376A2"/>
<path d="M84.4518 37.6024C84.912 37.2956 85.3722 36.9888 85.679 36.5287C86.1392 36.0685 86.4459 35.6083 86.7526 35.1481C87.3662 34.2277 87.673 33.0006 87.5196 31.9268C87.3662 30.8531 86.7526 29.6259 85.9857 28.7056C85.2188 27.7852 84.2985 26.8648 83.3782 26.0979V25.9445H83.5315C84.6052 26.558 85.679 27.325 86.5993 28.3988C87.5196 29.3191 88.2865 30.5463 88.5933 31.9268C88.9001 33.3074 88.7467 34.8413 88.1332 36.0685C87.8264 36.6821 87.5196 37.2956 87.0594 37.9092C86.5993 38.5228 86.1391 38.983 85.5256 39.4432C85.0654 39.7499 84.4519 39.7499 84.1451 39.2898C83.8383 38.5228 83.9917 37.9092 84.4518 37.6024Z" fill="#4263A8"/>
<path d="M88.44 41.1306C88.9002 40.8238 89.3603 40.2102 89.8205 39.75C90.2807 39.2899 90.5875 38.6763 90.8942 38.2161C91.201 37.6025 91.3544 36.989 91.3544 36.3754C91.3544 35.7618 91.201 35.1482 90.8942 34.5347C90.8942 34.3813 90.8943 34.2279 91.0477 34.0745C91.2011 34.0745 91.3544 34.0745 91.3544 34.2279C91.8146 34.8414 92.1213 35.6084 92.1213 36.3754C92.1213 37.1423 92.1214 37.9093 91.8146 38.6763C91.6612 39.4433 91.201 40.0568 90.8942 40.6704C90.4341 41.284 90.1273 41.8976 89.5138 42.5111C89.207 42.9713 88.5934 42.9713 88.1332 42.6645C87.9798 42.3578 87.9799 41.7442 88.44 41.1306C88.44 41.284 88.44 41.284 88.44 41.1306Z" fill="#19B4EE"/>
<path d="M49.4788 26.5581C50.0924 26.2513 50.5526 26.0979 51.1661 25.9445C51.4729 25.9445 51.7797 25.9445 52.0865 25.7911C52.3932 25.7911 52.7 25.7911 53.0068 25.7911C53.6204 25.7911 54.0805 25.9445 54.6941 26.0979C55.3077 26.2513 55.7678 26.4047 56.3814 26.7115C56.8415 26.8649 57.4551 27.1717 57.9153 27.4785C58.3754 27.7853 58.8356 28.0921 59.2958 28.3988C59.756 28.7056 60.2161 29.0124 60.6763 29.4726C61.1365 29.7794 61.4432 30.2396 61.9034 30.5464C62.0568 30.6998 62.0568 30.8531 61.9034 31.0065C61.75 31.1599 61.75 31.1599 61.5966 31.0065C61.1365 30.6998 60.6763 30.5464 60.2161 30.2396C59.7559 29.9328 59.2958 29.7794 58.8356 29.4726C58.3754 29.1658 57.9153 29.0124 57.4551 28.7056C56.9949 28.5522 56.5348 28.2454 56.0746 28.0921C55.1543 27.6319 54.0805 27.4785 53.1602 27.1717C52.7 27.0183 52.0865 27.0183 51.6263 27.0183C51.1661 27.0183 50.5526 27.0183 50.0924 27.1717C49.939 27.1717 49.7856 27.0183 49.6322 26.8649C49.1721 26.7115 49.3254 26.5581 49.4788 26.5581Z" fill="#19B4EE"/>
<path d="M58.8358 96.3525C58.529 96.3525 58.2222 96.3525 57.9154 96.5059C57.762 96.5059 57.6087 96.5059 57.4553 96.5059C57.4553 96.3525 57.3019 96.3525 57.3019 96.1991C56.2281 94.5117 54.6943 93.2846 53.007 92.0574L51.7799 91.1371C51.3197 90.8303 51.0129 90.5235 50.5528 90.0633C49.7858 89.1429 49.1723 88.0692 48.8655 86.9954C48.5587 85.7683 48.5587 84.6945 48.7121 83.4674C48.7121 82.8538 48.8655 82.3936 49.0189 81.78C49.1723 81.4732 49.1723 81.1664 49.3257 80.8596C49.7858 80.3995 50.3994 80.0927 51.0129 79.7859C51.4731 80.0927 51.6265 80.5529 51.4731 81.013C51.3197 81.3198 51.1663 81.9334 51.0129 82.3936C50.8595 82.8538 50.8596 83.314 50.7062 83.7741C50.5528 84.6945 50.5528 85.6149 50.8596 86.5352C51.0129 87.4556 51.4731 88.2226 52.0867 88.8361C52.3934 89.1429 52.7002 89.4497 53.1604 89.9099L54.3875 90.9837C55.1544 91.5972 55.9214 92.3642 56.6883 93.1312C57.4553 93.8982 58.2222 94.8185 58.6824 95.7389C58.529 95.7389 58.6824 96.0457 58.8358 96.3525Z" fill="#1996EE"/>
<path d="M47.3315 87.1489C47.3315 87.3023 47.3315 87.4557 47.3315 87.6091C47.3315 87.9159 47.3315 88.2227 47.3315 88.5294C47.1781 89.7566 46.718 90.8304 46.2578 91.9041C45.7977 92.8245 45.1841 93.5915 44.5705 94.205C44.4172 93.5915 44.2637 92.9779 44.1104 92.0575C44.7239 90.8304 45.1841 89.4498 45.1841 88.2227V87.9159C45.1841 87.7625 45.1841 87.7625 45.1841 87.6091C45.1841 87.4557 45.1841 87.4557 45.1841 87.3023V86.9955C45.1841 86.8421 45.0307 86.6887 45.0307 86.3819C45.0307 86.2285 44.8773 86.0751 44.8773 85.9217C45.1841 85.1548 45.6443 84.5412 46.1044 83.9276C46.2578 84.2344 46.5646 84.3878 46.718 84.6946C47.0248 85.3082 47.3315 85.9217 47.4849 86.5353L47.3315 87.1489Z" fill="#4263A8"/>
<path d="M46.7179 108.931C46.8713 109.238 46.8713 109.544 47.0247 109.851C46.4112 109.851 45.951 110.005 45.3374 110.005C45.184 109.544 45.0306 109.084 44.8772 108.471C44.8772 108.317 44.8772 108.164 44.8772 108.01C45.3374 107.857 45.7975 107.857 46.4111 107.704C46.4111 107.857 46.4111 108.01 46.4111 108.164C46.4111 108.317 46.4111 108.471 46.5645 108.624C46.5645 108.931 46.7179 108.931 46.7179 108.931Z" fill="#1CD0C5"/>
<path d="M47.1781 97.4262C46.8713 97.2728 46.7179 97.1194 46.4111 96.966C46.4111 96.966 46.4111 96.966 46.4111 96.8126C46.4111 96.6592 46.5645 96.5059 46.5645 96.5059C46.7179 96.5059 46.8713 96.5059 46.8713 96.6593C47.0247 96.966 47.1781 97.2728 47.1781 97.4262Z" fill="#1CD0C5"/>
<path d="M49.0188 112.459C50.0925 112.305 51.0129 112.152 52.0866 111.999C51.7798 112.459 51.4731 112.919 50.8595 113.226C50.3993 113.533 49.6324 113.686 49.0188 113.533C48.5586 113.379 48.2518 113.226 47.9451 113.072C48.0985 112.766 48.4053 112.459 49.0188 112.459Z" fill="#1CD0C5"/>
<path d="M52.8535 108.931C52.8535 109.084 52.8535 109.391 52.7001 109.544C52.3933 109.544 52.0866 109.544 51.7798 109.544C51.9332 109.238 51.9332 109.084 52.0866 108.777C52.0866 108.624 52.3933 108.471 52.5467 108.624C52.8535 108.624 53.0069 108.777 52.8535 108.931Z" fill="#1CD0C5"/>
<path d="M42.1163 44.3518C41.5027 44.5052 40.7358 44.5052 40.1222 44.5052L35.0603 44.3518C35.2137 44.1984 35.3671 44.1984 35.5205 44.045C35.8273 43.8916 36.134 43.7382 36.4408 43.5848C36.7476 43.4314 37.0544 43.4314 37.3612 43.278C38.5883 42.9712 40.1222 43.278 41.1959 43.7382C41.5027 44.045 41.8095 44.1984 42.1163 44.3518Z" fill="#19B4EE"/>
<path d="M90.7409 87.9158C90.7409 88.2226 90.7409 88.5294 90.7409 88.9896C90.5875 88.9896 90.2807 88.8362 90.1273 88.8362C89.5137 88.6828 88.9002 88.376 88.44 87.9158C88.2866 87.7624 88.2866 87.609 88.44 87.4556C88.5934 87.3022 88.7468 87.3022 88.7468 87.4556C89.207 87.7624 89.6671 87.9158 90.1273 87.9158C90.5875 87.9158 90.5875 87.9158 90.7409 87.9158Z" fill="#4263A8"/>
<path d="M80.1569 93.438C80.7705 92.671 81.384 92.0575 82.151 91.2905C82.9179 90.6769 83.6849 90.0633 84.7587 89.7565C85.2188 89.6031 85.8324 89.6031 86.446 89.6031C87.0596 89.7565 87.5197 90.0633 87.8265 90.3701C88.5934 91.1371 88.9002 92.0574 89.207 92.9778C89.207 93.1312 89.207 93.2846 89.0536 93.438C88.9002 93.438 88.7468 93.438 88.5934 93.2846C88.2866 92.5176 87.8265 91.7507 87.213 91.2905C86.5994 90.8303 85.9858 90.8303 85.2188 91.1371C84.6052 91.4439 83.8384 92.0575 83.3782 92.671C82.7646 93.2846 82.3044 94.0516 81.8443 94.6651C81.5375 95.1253 80.9239 95.2787 80.4637 94.9719C80.0035 94.5118 79.8501 93.8982 80.1569 93.438Z" fill="#1CD0C5"/>
<path d="M100.558 79.019C100.558 79.3258 100.404 79.7859 100.404 80.0927C100.404 78.5588 100.251 77.0248 100.098 75.6443C100.251 75.7977 100.251 76.1045 100.404 76.2579C100.558 77.3316 100.558 78.252 100.558 79.019Z" fill="#1CD0C5"/>
<path d="M89.207 81.7801C89.0536 81.6267 89.0536 81.4733 88.9002 81.3199C88.5934 80.8597 88.44 80.3996 88.2866 80.0928C88.5934 80.553 88.9002 81.1665 89.207 81.7801Z" fill="#8D67C3"/>
<path d="M101.171 69.8153C101.171 69.6619 101.018 69.5085 101.018 69.3551C100.865 68.8949 100.558 68.2813 100.251 67.8212C99.9443 67.361 99.6375 66.9008 99.1773 66.594C98.8705 66.4406 98.7171 66.2872 98.4103 66.1338C98.257 65.3668 98.1036 64.7533 97.9502 64.2931C98.1036 64.2931 98.257 64.2931 98.4103 64.4465C99.1773 64.7533 99.6375 65.0601 100.251 65.5202C100.251 65.6736 100.404 65.6736 100.404 65.827C100.558 66.9008 100.865 68.2813 101.171 69.8153Z" fill="#F376A2"/>
<path d="M98.257 53.2487C98.257 53.5554 98.1036 54.0156 98.1036 54.3224C97.6434 56.3165 95.9561 57.5437 94.2688 57.8505C94.729 57.2369 95.496 56.9301 96.1095 56.6233C96.7231 56.3165 97.49 55.703 97.7968 54.936C98.257 54.3224 98.257 53.4021 97.9502 52.6351V52.4817H98.1036C98.1036 52.6351 98.1036 52.9419 98.257 53.2487Z" fill="#4263A8"/>
<path d="M98.7172 48.8003C98.7172 48.9537 98.7172 49.2605 98.7172 49.4139C98.4104 49.4139 98.1036 49.5673 97.9502 49.7207C97.3367 50.0274 96.8765 50.3342 96.4163 50.7944C95.9561 51.2546 95.4959 51.7148 95.1891 52.175C94.8823 52.6351 94.4222 53.2487 94.2688 53.7089C94.1154 54.0157 93.8087 54.1691 93.5019 54.3225C93.3485 54.3225 93.1951 54.3225 92.8883 54.1691C92.4281 53.8623 92.2747 53.4021 92.4281 52.7885C92.4281 52.7885 92.4282 52.6351 92.5816 52.6351C93.0417 52.0216 93.5019 51.5614 94.1155 51.1012C94.5756 50.641 95.1892 50.1808 95.8027 49.8741C96.4163 49.5673 97.0298 49.2605 97.7968 49.1071C97.9502 48.8003 98.4104 48.8003 98.7172 48.8003Z" fill="#8D67C3"/>
<path d="M91.6611 48.3401C92.1213 47.8799 92.428 47.2663 92.8882 46.8061C93.195 46.1926 93.5018 45.579 93.8086 44.9654C94.1154 44.3518 94.1154 43.7382 94.2688 42.9713C94.2688 42.3577 94.2688 41.5907 94.1154 40.9771C94.1154 40.8238 94.2687 40.517 94.4221 40.517C94.5755 40.517 94.8824 40.517 94.8824 40.8238C95.1892 41.5907 95.3425 42.3577 95.3425 43.1247C95.3425 43.8916 95.3425 44.6586 95.1891 45.4256C95.0357 46.1926 94.7289 46.9595 94.4221 47.7265C94.2687 48.0333 94.1154 48.4935 93.962 48.8003C93.8086 49.107 93.6552 49.4138 93.3485 49.874C93.0417 50.3342 92.4281 50.4876 91.9679 50.0274C91.3544 49.4138 91.2009 48.8003 91.6611 48.3401C91.6611 48.3401 91.5077 48.3401 91.6611 48.3401Z" fill="#1CD0C5"/>
<path d="M69.1127 174.584C68.9593 174.584 68.806 174.737 68.6526 174.89C66.9653 175.964 67.8857 177.191 66.5052 179.032C65.1247 181.026 56.228 179.799 55.7678 176.731C55.461 175.197 58.8356 174.737 61.5967 173.817C64.2043 174.123 66.8119 174.43 69.1127 174.584Z" fill="#1996EE"/>
<path d="M64.8179 184.094C66.9653 185.935 74.0213 184.094 76.1688 180.566C78.4696 177.038 76.9357 176.271 75.862 175.504C74.7882 174.89 61.4433 181.18 64.8179 184.094Z" fill="#8D67C3"/>
<path d="M19.5677 44.3518C19.4144 44.812 18.9542 45.2722 18.494 45.1188C18.494 45.1188 17.2669 44.9654 16.4999 45.579C15.8864 46.0392 15.5796 46.9595 15.5796 48.1867C15.5796 48.8003 15.4262 50.0274 15.4262 51.408C14.8127 51.7147 14.0457 52.0215 13.4321 52.3283C13.5855 50.3342 13.7389 48.8003 13.7389 48.0333C13.7389 46.1926 14.3525 44.9654 15.4262 44.045C16.9601 42.8179 18.8008 43.1247 18.9542 43.1247C19.261 43.4315 19.5677 43.8916 19.5677 44.3518Z" fill="#19B4EE"/>
<path d="M23.2491 25.6378C20.4881 32.0803 19.8745 37.6025 19.8745 37.7559C19.8745 38.2161 19.4144 38.5229 18.9542 38.6763H18.8008C18.3406 38.6763 17.8805 38.2161 17.8805 37.6025C17.8805 37.4491 18.6474 30.2396 22.3288 22.7233C22.789 23.6436 23.0958 24.7174 23.2491 25.6378Z" fill="#19B4EE"/>
<path d="M63.7443 96.9661C62.9773 96.8127 62.057 96.6593 61.29 96.5059C61.29 96.3525 61.4434 96.1991 61.4434 95.8923C61.5968 95.5855 61.5968 95.2787 61.7502 94.8186C61.7502 94.6652 61.9036 94.5118 61.9036 94.3584C62.057 94.205 62.057 94.0516 62.2104 93.7448C62.5172 93.1312 63.4375 92.8244 64.051 93.1312C64.6646 93.438 64.818 94.0516 64.6646 94.6652C64.6646 94.8186 64.6645 94.8186 64.5111 94.972C64.5111 94.972 64.5112 95.1254 64.3578 95.1254C64.3578 95.2787 64.2044 95.2787 64.2044 95.4321C64.2044 95.5855 64.051 95.7389 64.051 95.7389C63.8976 95.8923 63.7443 96.1991 63.7443 96.3525C63.8976 96.8127 63.7443 96.8127 63.7443 96.9661Z" fill="#1CD0C5"/>
<path d="M67.2723 108.164C67.1189 108.317 66.9654 108.317 66.812 108.317C65.8917 107.857 64.9714 107.244 64.051 106.477C64.6646 106.477 65.1248 106.477 65.7384 106.63C66.1985 107.09 66.6587 107.397 67.1188 107.704C67.2722 107.857 67.2723 108.011 67.2723 108.164Z" fill="#1CD0C5"/>
<path d="M62.0569 94.3584C63.4374 91.7507 63.5907 91.1371 66.045 91.5973C68.4992 92.0575 69.8798 93.5914 71.7204 93.8982C73.5611 94.205 74.1747 94.5118 73.4078 95.5856C72.6408 96.8127 66.5052 98.6534 65.8916 97.8865C65.2781 97.1195 66.5052 96.0458 66.1984 95.1254C65.8917 94.205 65.2781 94.205 64.3577 96.1991C63.4374 98.1933 62.2103 95.1254 62.2103 95.1254L62.0569 94.3584Z" fill="#1CD0C5"/>
<path d="M77.8561 111.692C77.5493 111.539 77.0891 111.539 76.7823 111.385C76.4756 111.232 76.3222 111.078 76.0154 110.772C74.6349 110.005 73.2544 109.391 71.8739 108.471C71.107 108.01 70.4934 107.397 69.7264 106.783C70.34 106.783 71.1069 106.937 71.7205 107.09C71.8739 107.244 72.1807 107.397 72.3341 107.704C72.9476 108.164 73.5612 108.624 74.3281 108.931C74.9417 109.391 75.7086 109.698 76.3222 110.158C76.9357 110.772 77.3959 111.232 77.8561 111.692Z" fill="#4263A8"/>
<path d="M78.4697 113.533C78.4697 113.839 78.4697 114.3 78.4697 114.606C78.4697 114.76 78.3163 114.76 78.1629 114.76C78.0095 114.76 78.0095 114.606 78.0095 114.453C78.0095 113.993 78.0095 113.686 77.8561 113.226C78.1629 113.379 78.3163 113.379 78.4697 113.533Z" fill="#4263A8"/>
<path d="M62.8239 109.544C62.3637 109.544 62.0569 109.544 61.5968 109.544C61.29 109.084 61.1366 108.471 60.8298 108.011C60.8298 107.857 60.8298 107.704 60.9832 107.704C61.1366 107.704 61.29 107.704 61.29 107.704C61.7501 108.317 62.2103 108.931 62.8239 109.544Z" fill="#1996EE"/>
<path d="M71.1071 113.84C70.9537 114.146 70.9536 114.453 70.6468 114.913C70.34 115.22 69.8799 115.527 69.4197 115.68C69.2663 115.68 68.9596 115.834 68.8062 115.834C68.6528 115.834 68.346 115.834 68.1926 115.834C68.0392 115.834 67.8858 115.68 67.579 115.68C67.4256 115.68 67.2722 115.527 67.1188 115.527C66.5053 115.22 65.8917 114.913 65.2781 114.453C64.2044 113.533 63.2841 112.612 62.5171 111.539C62.5171 111.385 62.3638 111.385 62.3638 111.232C62.9773 111.232 63.5909 111.232 64.051 111.232C64.6646 111.845 65.4316 112.459 66.1985 113.073C66.6587 113.379 67.1189 113.686 67.7324 113.84C68.1926 113.993 68.6527 114.146 69.1129 114.146C69.2663 114.146 69.5731 114.146 69.7265 114.146C69.8799 114.146 70.0333 113.84 70.1867 113.533C70.4934 113.073 70.4935 112.459 70.3401 111.999C70.3401 111.845 70.3401 111.845 70.4935 111.692C70.6469 111.692 70.6469 111.692 70.8003 111.845C71.107 112.306 71.2605 113.073 71.1071 113.84Z" fill="#1996EE"/>
<path d="M74.0213 92.0574C74.7882 91.7506 75.5552 91.904 76.1688 92.0574C76.7823 92.3642 77.3959 92.9777 77.856 93.4379C78.0094 93.7447 78.1628 94.0515 78.4696 94.3583C78.623 94.6651 78.7764 94.9719 78.9298 95.1253C79.2366 95.7388 79.6967 96.199 80.0035 96.6592C80.4637 97.1194 80.7704 97.5796 81.384 97.8863C81.8441 98.1931 82.3043 98.4999 82.9179 98.8067C83.3781 98.9601 83.9916 99.1135 84.4518 99.1135C84.912 99.1135 85.5255 98.9601 85.9857 98.8067C86.5992 98.6533 87.0595 98.9601 87.3662 99.4203C87.5196 100.034 87.2128 100.494 86.7526 100.801C86.7526 100.801 86.7527 100.801 86.5993 100.801C85.8323 100.954 85.0654 100.954 84.2984 100.954C83.5315 100.801 82.7645 100.647 82.1509 100.187C81.5374 99.8805 80.9238 99.4203 80.4637 98.8067C80.0035 98.3465 79.5433 97.733 79.0831 97.1194C78.7763 96.5058 78.3163 95.8922 78.0095 95.2786C77.8561 94.9719 77.7026 94.6651 77.5492 94.3583C77.3958 94.0515 77.2425 93.7447 77.0891 93.5913C76.7823 93.1311 76.4755 92.6709 75.862 92.3642C75.4018 92.0574 74.7883 91.904 74.1747 92.0574C74.0213 92.0574 73.8679 92.0574 73.8679 91.904C73.8679 92.3642 74.0213 92.2108 74.0213 92.0574Z" fill="#1996EE"/>
<path d="M84.6053 111.539C84.4519 111.845 84.4519 112.152 84.2985 112.305C83.9917 112.919 83.5315 113.379 83.2247 113.686C82.6111 113.379 81.8442 113.072 81.0773 112.766C81.2307 112.766 81.2306 112.766 81.384 112.766C81.384 112.766 82.151 112.919 82.7646 111.539C82.9179 111.232 83.0714 110.925 83.0714 110.618C83.6849 111.078 84.1451 111.232 84.6053 111.539Z" fill="#F376A2"/>
<path d="M77.5493 101.568C76.4756 101.261 75.4018 100.954 74.0213 100.341C73.8679 99.4204 73.868 98.0399 74.9417 97.2729C76.4756 96.1991 77.5493 99.1136 77.8561 100.494C78.0095 100.954 77.8561 101.415 77.5493 101.568Z" fill="#8D67C3"/>
<path d="M53.1603 96.3524C53.4671 96.6592 53.7739 96.966 53.9273 97.2728C53.007 97.4262 52.0866 97.733 51.1662 97.733C51.0128 97.733 51.0129 97.5796 50.8595 97.4262C50.7061 97.2728 50.7061 97.2728 50.5527 97.2728C50.3993 97.2728 50.2459 97.1194 50.2459 97.1194C49.6323 96.8126 49.3255 96.0456 49.6323 95.4321C49.9391 94.8185 50.7061 94.5117 51.3196 94.8185H51.473C51.7798 94.9719 51.7798 94.9719 51.9332 95.1253C52.0866 95.2787 52.24 95.2787 52.3934 95.4321C52.5468 95.8922 52.8536 96.199 53.1603 96.3524Z" fill="#F376A2"/>
<path d="M56.6883 106.63C56.6883 107.55 56.8417 108.471 56.8417 109.391C56.6883 109.391 56.5349 109.391 56.3815 109.391C55.9214 109.391 55.6146 109.391 55.1545 109.391C55.1545 109.238 55.1545 109.084 55.1545 108.931C55.0011 108.164 55.001 107.397 54.8477 106.63C55.3078 106.63 55.768 106.63 56.2282 106.476C56.535 106.63 56.5349 106.63 56.6883 106.63Z" fill="#F376A2"/>
<path d="M63.5908 121.662C63.5908 121.816 63.4374 121.969 63.284 121.969C62.6705 121.969 61.9035 121.816 61.29 121.509C60.6764 121.202 60.0628 120.895 59.6027 120.435C58.5289 119.515 57.762 118.441 57.3018 117.214C56.5349 115.373 56.0747 113.379 55.6145 111.538C56.0747 111.538 56.5349 111.385 56.9951 111.385C57.1484 113.226 57.4552 115.066 58.2222 116.907C58.6823 117.981 59.2959 119.055 60.0629 119.975C60.523 120.435 60.9832 120.742 61.5968 121.049C62.0569 121.356 62.6705 121.509 63.284 121.662C63.4374 121.356 63.5908 121.509 63.5908 121.662Z" fill="#F376A2"/>
<path d="M83.0713 87.4557C83.6849 86.6887 84.2984 85.9217 84.912 85.0013C85.2188 84.5412 85.3721 84.081 85.5255 83.6208C85.6789 83.1606 85.8323 82.7004 85.9857 82.2402C86.1391 81.7801 86.5993 81.6267 86.9061 81.7801C87.2129 81.9335 87.5196 82.3936 87.3662 82.7004V82.8538C87.0595 83.314 86.9061 83.7742 86.5993 84.2344C86.2925 84.6946 85.9858 85.1547 85.679 85.4615C84.912 86.2285 84.1451 86.9955 83.3781 87.609C83.2247 87.609 83.2247 87.609 83.0713 87.609C83.0713 87.609 83.0713 87.609 83.0713 87.4557Z" fill="#1996EE"/>
<path d="M74.6349 121.816C74.3281 122.583 73.7145 123.196 73.101 123.81C72.1806 124.577 71.2602 124.577 70.6467 124.424C68.3458 123.81 66.9653 119.975 66.8119 119.515C66.6585 119.055 66.812 118.595 67.2721 118.441C67.7323 118.288 68.1924 118.441 68.3458 118.901C68.806 120.282 70.0332 122.583 71.1069 122.89C71.2603 122.89 71.7204 123.043 72.1806 122.583C74.6348 120.435 74.3281 115.373 74.3281 115.22C74.3281 114.76 74.6348 114.453 75.095 114.3C75.5552 114.3 75.8619 114.606 76.0153 115.067C75.7085 115.22 76.0154 118.901 74.6349 121.816Z" fill="#8D67C3"/>
<path d="M91.3543 135.468C89.5137 139.303 83.2247 139.916 77.0891 138.996C76.9357 138.229 76.629 137.462 76.4756 136.849C75.862 134.854 74.9417 133.474 74.1747 132.4C73.7146 131.786 73.2544 131.326 72.7942 131.02C75.4018 129.179 78.0095 126.264 80.3103 122.123C81.5375 119.822 84.6053 119.362 86.4459 121.049C90.1273 124.27 94.2688 129.486 91.3543 135.468Z" fill="#1CD0C5"/>
</svg>
