<svg width="119" height="225" viewBox="0 0 119 225" fill="none" xmlns="http://www.w3.org/2000/svg">
<path d="M118.431 203.923C118.277 203.309 118.124 202.696 117.97 202.236C117.97 201.929 117.817 201.775 117.817 201.622V201.469V201.315C114.596 189.811 111.835 186.896 108.153 183.675C106.466 182.141 104.932 180.607 102.785 176.465C96.956 164.961 96.3424 147.627 96.3424 147.474C96.3424 144.559 94.0416 142.412 91.2806 142.412C91.1272 142.412 91.1272 142.412 90.9738 142.412C91.7407 142.105 92.5077 141.645 93.1213 141.031C94.195 139.958 94.6552 138.577 94.6552 137.043V136.583L94.3484 133.208C94.3484 132.748 94.5018 132.441 94.6552 132.134C98.3365 128.76 99.4103 124.772 99.717 122.01V121.857V121.704L100.484 100.382C100.484 98.6945 100.637 97.0072 100.637 95.1664V95.013C100.791 87.9569 100.791 80.2872 100.637 72.4641C100.637 71.2369 100.637 70.0098 100.484 68.7826C100.484 67.8622 100.484 66.7885 100.484 66.0215V64.3342C100.484 62.6468 99.717 61.1129 98.3365 60.1925C98.4899 60.0391 98.6433 59.8857 98.7967 59.579C99.2569 58.812 99.5636 58.045 99.717 57.278C100.024 56.3577 99.8704 55.4373 99.8704 54.9771C99.8704 54.2102 99.8704 53.2898 99.717 52.3694C99.717 51.7559 99.5636 51.1423 99.5636 50.6821C99.5636 49.9151 99.4102 49.3015 99.4102 48.5346V47.7676V47.4608C99.1035 43.0124 98.7967 40.2513 98.7967 39.6377C98.6433 37.03 96.4959 34.8825 93.8882 34.8825C93.5814 34.8825 93.2747 34.8825 92.9679 34.8825C92.9679 34.4223 93.1213 33.8087 93.1213 33.1951C93.2747 32.8884 93.2746 32.4282 93.2746 32.2748V32.1214L93.428 31.8146V31.3544C93.5814 30.1273 93.7348 28.9001 94.195 27.5196L94.3484 26.906C94.5018 26.5992 94.5018 26.139 94.5018 25.6788V25.5254V25.372C94.5018 24.9119 94.195 22.6109 93.2746 20.7702C94.195 19.2363 94.195 17.3955 93.428 15.7082L93.1213 15.0946L91.8941 13.8675C89.4399 11.4132 86.8322 10.0326 84.2246 10.0326C83.3043 10.0326 82.5373 10.186 81.7704 10.4928C81.1568 10.6462 80.5433 10.953 79.9297 11.4132C77.9356 9.57243 75.9416 7.7317 73.6407 6.35115L73.4873 6.19776C73.3339 6.04436 73.0271 5.89097 72.8737 5.73757C72.4136 5.43078 71.6466 4.9706 71.0331 4.51042C70.5729 4.20363 70.2661 4.05024 69.8059 3.74345C69.4992 3.59005 69.039 3.28327 68.7322 3.12987L68.5788 2.97648L68.4254 2.82308C65.0509 1.28914 61.5229 0.368774 57.9949 0.368774C47.411 0.368774 39.8949 7.57831 38.6677 8.95885C37.7474 9.87922 37.1338 11.2598 37.1338 12.6403C37.1338 13.7141 37.4406 14.6344 38.0542 15.5548C34.5262 17.2421 31.4584 20.1566 28.6974 24.1449C27.9304 25.372 27.1635 26.5992 26.3965 27.9797C25.9363 28.7467 25.6296 29.3603 25.4762 29.9739C24.2491 32.735 23.4821 35.9562 23.0219 39.4843C22.8685 41.0183 22.8685 42.2454 22.8685 43.4726C22.8685 53.4432 26.7033 62.1867 28.8508 66.4817C28.8508 66.4817 27.6236 69.2428 25.016 72.1573C24.7092 72.3107 24.5558 72.6175 24.2491 72.7709L24.0957 72.9243L23.9423 73.0777C23.9423 73.0777 23.0219 74.1514 21.6414 75.3786L21.488 75.532C21.1812 75.8387 20.7211 76.1455 20.4143 76.6057C19.9541 77.0659 19.3406 77.5261 18.5736 77.9863C18.1135 78.4464 17.3465 78.9066 16.5795 79.3668C15.5058 79.9804 14.5855 80.7474 13.9719 81.3609L13.8185 81.5143C11.9778 83.5085 10.9041 85.9628 10.5973 88.8773V89.1841V89.4908C10.5973 90.718 10.7507 91.6384 10.7507 92.0985C10.9041 93.1723 11.2109 94.0927 11.9778 94.7062L10.2905 98.3877L10.1372 98.6945C9.5236 99.9216 9.52359 100.995 9.52359 101.609C9.52359 104.217 11.0575 106.978 12.7448 109.585C13.3584 110.506 14.1253 111.733 15.0456 112.807C15.199 112.96 15.3524 113.267 15.5058 113.574C15.966 114.034 16.2728 114.647 16.7329 115.261L17.1931 115.875C17.1931 116.181 17.1931 116.335 17.1931 116.642C16.2728 120.63 17.3465 123.084 18.727 124.465C17.0397 125.385 15.6592 126.612 14.4321 127.993L13.0516 129.373L7.37614 150.849C6.76258 152.996 6.14902 155.45 5.53546 157.905C5.38207 158.518 5.22867 159.132 5.07528 159.592C4.92189 160.052 4.9219 160.512 4.76851 160.973V161.126C4.00156 164.194 3.54138 167.108 3.08121 169.716L2.62103 172.17L2.31425 174.164C2.00747 176.159 1.70068 178.153 1.3939 179.84C1.3939 180.3 1.24053 180.76 1.24053 181.221C1.08714 181.834 0.933752 182.601 0.933752 183.368C0.626972 185.209 0.626953 186.283 0.626953 186.436C0.626953 187.817 1.24051 189.351 2.16086 190.271L2.92781 191.038C3.23459 192.112 4.00155 193.185 5.07528 193.952L5.22866 194.106L5.53546 194.259C5.99563 194.566 6.60919 194.873 7.37614 195.179C8.75665 195.946 10.4439 196.867 12.2846 197.787C14.5855 198.861 19.0338 200.855 23.7889 202.082C23.6355 202.696 22.8685 206.377 22.8685 206.377C22.1016 210.212 21.488 214.507 21.1813 217.575C21.0279 219.416 21.6414 221.103 22.8685 222.484C24.0957 223.864 25.9364 224.631 27.777 224.631C28.3906 224.631 29.1575 224.478 29.7711 224.324C32.6855 223.404 47.8711 218.342 63.2102 209.599C85.9119 196.407 94.0416 191.038 95.8823 185.822C97.8764 188.737 99.5636 190.424 100.944 191.651L101.404 192.112C103.705 194.106 105.392 195.64 108 205.764V205.917V206.07C108 206.224 108.153 206.531 108.153 206.684C108.153 206.837 108.307 207.144 108.307 207.298C108.767 209.445 110.761 211.132 113.062 211.132H114.596L115.516 210.672C117.97 208.525 119.044 206.224 118.431 203.923Z" fill="white"/>
<path d="M76.4017 53.4431C75.7881 51.7558 75.1745 50.2219 74.4076 48.5345C73.4872 46.387 72.5669 44.3929 71.4932 42.3988C71.1864 41.6318 70.7262 40.8648 70.4194 40.2512C69.8059 39.0241 69.0389 37.7969 68.272 36.5698C67.8118 35.8028 67.3516 35.0358 66.8915 34.4223C65.3576 32.1213 63.8237 30.1272 62.2898 28.2865C61.5228 27.5195 60.9092 26.7525 60.1423 25.9856C56.3075 22.1507 52.4728 19.543 48.7914 18.6227C46.3372 18.0091 43.7295 18.0091 41.4287 18.776C38.0541 19.8498 34.8329 22.3041 32.0719 26.4458C31.3049 27.6729 30.538 28.9001 29.9244 30.1272C29.6176 30.5874 29.4642 31.0476 29.3109 31.5078C28.0837 34.2689 27.4702 37.1834 27.1634 39.9445C27.01 41.1716 27.01 42.2454 27.01 43.3191C27.01 52.3694 30.538 60.4993 32.532 64.3341C32.6854 64.6409 32.8388 64.7943 32.9922 64.9477C33.1456 65.1011 33.4524 65.2545 33.7592 65.2545C34.3727 65.4079 35.1397 65.1011 35.5998 64.4875C36.06 63.874 36.5202 63.107 37.1337 62.1866C37.2871 61.8798 37.4405 61.573 37.5939 61.4196C38.2075 60.1925 38.9744 58.8119 39.588 57.1246C39.8948 56.3576 40.2015 55.5907 40.5083 54.8237C40.6617 54.3635 40.8151 53.9033 40.9685 53.2898C41.2753 52.5228 41.4287 51.7558 41.7355 50.8354C42.0422 50.0685 42.1956 49.1481 42.349 48.3811C43.5761 43.0123 45.11 40.7114 47.1041 40.4046C47.5643 40.4046 47.8711 40.4046 48.3312 40.558C50.6321 41.0182 53.8533 43.4725 58.1482 46.5404C58.1482 46.5404 58.1482 46.5404 58.3016 46.5404C64.8974 51.2956 71.4932 53.7499 74.8677 54.6703C75.7881 55.2839 76.7084 54.3635 76.4017 53.4431ZM93.8882 167.722C93.7348 167.875 93.7347 168.029 93.5814 168.182C90.9737 170.943 84.6847 176.772 71.7999 181.527C66.5847 183.521 60.4491 185.209 53.0863 186.589C51.0923 186.896 49.0982 187.203 46.9507 187.51C44.6499 187.817 42.349 188.123 39.8948 188.277C30.6914 189.197 19.954 189.35 7.68282 188.737C7.22265 188.737 7.06925 189.197 7.52942 189.504C9.06333 190.271 11.3642 191.651 14.2786 193.032C17.8066 194.719 22.1015 196.407 26.0897 197.327C27.7769 197.634 28.6973 199.321 28.3905 200.855C28.0837 202.389 27.6235 204.383 27.1634 206.531C26.3964 210.059 25.7829 214.2 25.6295 217.115C25.4761 218.802 27.01 219.876 28.5439 219.416C34.3727 217.575 47.8711 212.666 61.0626 204.997C78.5491 194.873 90.5135 187.663 91.7407 183.521C92.5076 180.607 93.5813 174.931 94.1949 170.636C94.3483 169.716 94.5017 168.796 94.6551 168.029C94.6551 167.568 94.1949 167.262 93.8882 167.722ZM95.2687 121.55C95.2687 121.09 94.5017 120.783 94.3483 121.243C93.1212 123.851 90.8203 125.845 89.2864 126.305C88.0593 126.766 85.6051 125.232 83.4576 124.925C82.3839 124.771 81.4635 124.925 80.6966 125.692C80.2364 126.152 80.3898 127.072 81.0034 128.3C82.2305 130.907 85.2983 134.589 87.5991 137.196C87.9059 137.503 88.0593 137.657 88.2127 137.963C88.6729 138.424 89.4398 138.424 89.9 137.963C90.0534 137.81 90.2067 137.503 90.2067 137.043V136.736L89.9 133.515C89.7466 131.828 90.3602 130.14 91.5873 128.913C94.3483 126.459 95.1153 123.544 95.2687 121.55ZM52.7795 103.143C51.2456 99.7682 49.8651 103.603 43.5761 95.6266C37.2871 87.9569 28.0837 91.7917 24.5557 93.479H24.4024C23.7888 93.7858 23.1752 93.9392 22.5617 93.9392C21.3346 94.0926 20.1074 93.7858 19.1871 93.479C18.1134 93.1723 17.0396 93.6324 16.5795 94.5528L14.1252 99.9216L13.9718 100.228C13.8184 100.535 13.8184 100.842 13.8184 101.149C13.8184 102.529 14.8922 104.523 16.2727 106.671C16.8862 107.591 17.6532 108.665 18.4201 109.585C19.0337 110.352 19.6473 111.273 20.2608 111.886C20.5676 112.347 20.8744 112.807 21.1812 113.267C21.6413 114.341 21.7947 115.721 21.4879 116.948C21.0278 118.943 21.1812 120.63 22.8684 121.397C24.5557 122.164 25.9363 122.317 27.4702 122.01C30.538 121.397 33.9125 118.789 40.9685 115.568C51.5524 110.813 55.3872 108.665 52.7795 103.143ZM53.2397 123.698C52.9329 123.698 52.6262 123.544 52.3194 123.544C50.7855 123.238 49.2516 123.084 47.8711 123.084C46.6439 122.931 45.2634 122.931 44.0363 122.777C42.5024 122.777 40.9685 122.624 39.4346 122.777C37.9007 122.777 36.3668 123.084 34.8329 123.238C34.0659 123.391 33.299 123.391 32.532 123.391C31.7651 123.391 30.8448 123.544 30.0778 123.851C29.3109 124.005 28.3905 124.311 27.777 124.618C27.6236 124.618 27.3168 124.771 27.1634 124.771C26.5498 124.925 26.0897 125.078 25.4761 125.232C24.7091 125.538 24.0956 125.845 23.3286 126.152C22.7151 126.459 21.9481 126.919 21.3345 127.379C19.954 128.146 18.7269 129.067 17.6532 130.294L17.4998 130.447C17.4998 130.6 17.6532 130.754 17.8066 130.6C19.3405 130.294 20.8744 129.833 22.4083 129.373C23.1752 129.067 23.7888 128.76 24.5557 128.453C25.3227 128.146 25.9363 127.839 26.5498 127.379C26.7032 127.379 26.7032 127.226 26.8566 127.226C27.4702 126.919 27.9303 126.459 28.3905 125.999C28.6973 125.845 29.0041 125.538 29.3109 125.385C29.6176 125.232 29.9244 125.078 30.2312 124.925C30.9981 124.771 31.6117 124.618 32.3787 124.618C33.1456 124.618 33.9126 124.771 34.6795 124.771C36.2134 124.925 37.7473 125.078 39.2812 125.232C40.8151 125.232 42.349 125.232 43.8829 125.078C45.5702 124.925 47.2575 124.925 48.9448 124.618C50.1719 124.465 51.5524 124.311 52.7795 124.158C52.9329 124.158 53.0863 124.158 53.0863 124.158C53.2397 124.158 53.2397 124.005 53.2397 124.005C53.3931 123.851 53.3931 123.698 53.2397 123.698ZM90.0534 60.0391C90.0534 60.0391 90.0534 59.8857 90.0534 60.0391C89.4398 55.2839 88.2127 49.6083 88.2127 41.6318C88.2127 41.0182 88.2127 40.558 88.2127 39.9445C88.3661 37.6435 88.5195 35.1892 88.8262 32.4281C88.9796 31.968 88.9797 31.3544 89.133 30.8942C89.2864 29.3602 89.5932 27.8263 90.0534 26.2924C90.0534 26.139 90.2067 25.8322 90.2067 25.6788C90.2067 25.6788 90.0534 23.8381 89.4398 22.6109C89.133 21.9973 88.5195 21.6905 87.7525 22.1507C87.2924 22.4575 86.8322 23.0711 86.5254 23.8381C86.0652 24.7584 85.7584 26.139 85.7584 27.6729C85.6051 29.0535 85.6051 30.5874 85.6051 32.4281C85.6051 33.0417 85.6051 33.8087 85.7584 34.4223C85.7584 35.0358 85.9118 35.6494 85.9118 36.4164C86.0652 37.9503 86.372 39.6377 86.6788 41.4784C86.8322 41.9386 86.8322 42.3988 86.8322 42.8589C87.5991 48.0744 88.3661 53.7499 87.7525 58.045C87.5992 59.2721 87.2924 60.1925 86.8322 61.1129C86.372 62.0332 85.9118 64.1807 85.6051 67.2486C85.4517 68.169 85.4517 69.0894 85.2983 70.0097C85.1449 71.5437 84.9915 73.3844 84.8381 75.2251C84.8381 75.8387 84.6847 76.6057 84.6847 77.2193C84.6847 78.1396 84.5313 79.06 84.5313 80.1337C84.3779 82.5881 84.3779 85.0424 84.2245 87.6501C84.2245 87.9569 84.2245 88.2636 84.2245 88.7238C84.2245 89.4908 84.2245 90.2578 84.2245 91.0247C84.2245 92.0985 84.2245 93.0189 84.2245 94.0926C84.2245 95.013 84.2245 95.9334 84.2245 96.7003C84.2245 97.3139 84.2245 97.9275 84.2245 98.5411C84.3779 106.824 84.6847 114.341 85.6051 118.329C85.7585 119.096 86.8322 118.943 86.8322 118.176C86.8322 113.42 86.6788 104.523 86.6788 95.6266V92.5587C86.6788 88.417 86.6788 84.4288 86.8322 81.0541C86.8322 80.2871 86.8322 79.5202 86.8322 78.7532C86.8322 77.8328 86.8322 77.0659 86.8322 76.1455C86.9856 73.998 86.9856 72.3106 87.1389 71.2369C87.2923 70.6233 87.2924 70.1631 87.4457 70.0097C87.7525 69.5495 88.0593 69.2428 88.3661 68.7826C89.4398 67.402 90.8203 65.7147 90.0534 60.0391ZM89.5932 17.5489C89.2864 17.2421 89.133 17.0887 88.8262 16.7819C86.8322 14.7878 84.8381 13.8674 83.1508 14.481C81.7703 14.9412 80.6966 16.1683 79.9296 17.5489C79.6229 18.0091 79.4694 18.4693 79.3161 18.9294C78.8559 20.1566 78.3957 21.3837 78.2423 22.4575C78.0889 23.3779 77.9356 23.9915 77.9356 24.1448C77.9356 24.4516 78.0889 24.7584 78.3957 24.9118H78.5491C79.0093 24.9118 79.3161 24.7584 79.3161 24.2982C79.4694 23.5313 79.6228 22.3041 80.083 21.077C80.2364 20.4634 80.5432 19.8498 80.6966 19.2362V19.0828C81.3101 17.5489 82.2305 16.3217 83.4576 16.0149C84.5313 15.7082 85.7584 16.1683 87.1389 17.3955C87.4457 17.7023 87.9059 18.1625 88.3661 18.6227C88.6729 18.9294 89.133 18.9294 89.4398 18.6227C89.7466 18.3159 89.7466 17.8557 89.5932 17.5489ZM80.6966 18.4693C80.3898 18.1625 80.2364 17.8557 79.9296 17.7023C79.7762 17.3955 79.4694 17.2421 79.3161 16.9353C76.8618 14.1742 74.1008 11.7199 71.1864 9.72579C70.4194 9.2656 69.6525 8.65203 68.7321 8.19184C67.9652 7.73166 67.0448 7.27148 66.2779 6.81129C52.4728 0.215341 41.5821 12.0267 41.4287 12.1801C41.1219 12.4869 41.1219 12.9471 41.4287 13.2539L41.5821 13.4072C41.8889 13.5606 42.1956 13.4072 42.349 13.2539C42.8092 12.7937 52.6262 2.05607 65.3576 8.34524C66.2779 8.80542 67.1982 9.2656 67.9652 9.72579C68.7321 10.186 69.4991 10.6462 70.266 11.1063C73.0271 12.9471 75.4813 15.248 77.9356 17.8557C78.2423 18.3159 78.7025 18.776 79.0093 19.0828C79.1627 19.2362 79.1627 19.2362 79.3161 19.3896C79.6228 19.6964 80.083 19.6964 80.3898 19.543L80.5432 19.3896V19.2362C80.85 18.9294 80.85 18.6227 80.6966 18.4693ZM28.2371 75.5319C27.9303 75.2251 27.4702 75.3785 27.1634 75.6853C27.1634 75.6853 26.0897 76.9125 24.5557 78.293C23.6354 79.2134 22.5617 80.1337 21.3345 81.0541C20.5676 81.6677 19.6473 82.2813 18.8803 82.7415C18.1134 83.2016 17.4998 83.6618 17.0396 84.122C15.5057 85.8093 15.0456 87.6501 14.8922 89.0306C14.8922 90.2578 15.0456 91.1781 15.0456 91.1781C15.0456 91.3315 15.199 91.6383 15.5057 91.6383C15.6591 91.6383 15.8125 91.7917 15.9659 91.6383C16.4261 91.4849 16.5795 91.1781 16.4261 90.718C16.4261 90.718 16.2727 90.1044 16.2727 89.184C16.2727 87.8035 16.8862 85.5025 19.1871 83.9686C19.3405 83.8152 19.3405 83.8152 19.4939 83.8152C20.5676 83.2016 21.488 82.4347 22.4083 81.6677C23.482 80.7473 24.5558 79.827 25.4761 79.06C27.01 77.526 27.9303 76.4523 28.0837 76.2989C28.5439 76.1455 28.5439 75.6853 28.2371 75.5319ZM15.9659 140.878C15.6591 140.724 15.199 140.878 15.0456 141.338C14.8922 141.798 14.7388 142.105 14.5854 142.565C12.7447 147.167 11.2108 152.689 9.98368 158.211C9.6769 159.285 9.52351 160.359 9.21673 161.433C8.29639 165.268 7.68283 168.949 7.06927 172.17C6.6091 174.931 6.14893 177.539 5.84215 179.687C5.68876 181.067 5.38197 182.141 5.38197 183.061C5.07519 184.749 5.0752 185.669 5.0752 185.669C5.0752 185.976 5.22858 186.283 5.38197 186.436H5.53537C5.99554 186.436 6.30232 186.283 6.30232 185.822C6.30232 185.822 6.30231 185.516 6.4557 185.055C6.60909 184.288 6.76249 182.908 7.06927 181.067C7.37605 178.766 7.83621 175.852 8.44978 172.63C8.44978 172.477 8.44979 172.324 8.60318 172.17C9.67691 166.648 10.904 160.206 12.5913 154.07C12.8981 152.996 13.2049 151.922 13.5117 150.695C14.432 147.627 15.3523 144.559 16.4261 141.952C16.4261 141.952 16.4261 141.798 16.5795 141.798C16.4261 141.338 16.2727 140.878 15.9659 140.878ZM96.189 72.3106C96.189 70.0097 96.0356 67.8622 96.0356 65.8681C96.0356 65.2545 96.0356 64.6409 96.0356 64.1807C96.0356 63.7206 95.7288 63.4138 95.2687 63.4138C94.9619 63.4138 94.6551 63.7206 94.6551 64.0274V64.1807C94.8085 66.7884 94.8085 69.5495 94.9619 72.3106C95.2686 84.889 95.2687 99.7682 93.8882 111.273C93.8882 111.58 94.0415 111.886 94.3483 112.04H94.5017C94.9619 112.04 95.2687 111.733 95.2687 111.426C96.3424 99.9216 96.4958 84.889 96.189 72.3106ZM95.4221 54.8237C95.4221 54.2101 95.422 53.4432 95.2687 52.8296C95.1153 51.2956 95.1152 49.9151 94.9619 48.5345C94.9619 48.2277 94.9619 47.921 94.9619 47.6142C94.6551 42.7055 94.3483 39.7911 94.3483 39.7911C94.3483 39.3309 94.0415 39.0241 93.5814 39.1775C93.1212 39.1775 92.8144 39.4843 92.9678 39.9445C92.9678 39.9445 93.2746 43.4725 93.5814 48.8413C93.5814 49.1481 93.5814 49.4549 93.5814 49.6083C93.7347 51.7558 93.8882 54.0567 93.8882 56.511C93.8882 56.8178 94.0415 56.9712 94.3483 57.1246C94.5017 57.1246 94.5017 57.1246 94.6551 57.1246C95.1153 57.1246 95.422 56.8178 95.2687 56.3576C95.5754 55.8975 95.4221 55.2839 95.4221 54.8237ZM114.136 204.843C113.982 203.923 113.675 203.156 113.522 202.389C110.454 191.498 108.153 189.35 105.239 186.896C103.398 185.209 101.404 183.368 98.7966 178.459C92.3542 165.881 91.8941 147.627 91.8941 147.474C91.8941 147.014 91.5873 146.707 91.1271 146.707C90.6669 146.707 90.3601 147.014 90.3601 147.474C90.3601 147.627 90.6669 157.751 93.428 168.182C93.5813 169.102 93.8881 169.869 94.1949 170.79C95.1152 173.704 96.189 176.619 97.5695 179.226C100.177 184.442 102.478 186.283 104.319 187.97C107.08 190.424 109.381 192.572 112.295 203.77C112.448 204.23 112.602 204.843 112.755 205.303C112.755 205.457 112.909 205.764 113.215 205.764H113.369C113.522 205.764 113.522 205.764 113.675 205.764C113.982 205.61 114.289 205.303 114.136 204.843C114.289 204.843 114.289 204.843 114.136 204.843Z" fill="#1E1C31"/>
<path d="M37.9007 29.3603C37.9007 29.6671 37.594 29.9738 37.2872 29.9738C36.9804 29.9738 33.6058 29.8205 29.1575 31.5078C29.3109 31.0476 29.6176 30.5874 29.771 30.1272C33.9126 28.5933 37.1338 28.7467 37.2872 28.7467C37.7473 28.7467 37.9007 29.0535 37.9007 29.3603Z" fill="#1CD0C5"/>
<path d="M16.2728 141.798C16.2728 141.798 16.2728 141.952 16.1194 141.952C15.5059 142.105 15.0457 142.258 14.4321 142.412C14.5855 141.952 14.7389 141.645 14.8923 141.185C15.0457 140.878 15.5059 140.571 15.8126 140.725C16.2728 140.878 16.4262 141.338 16.2728 141.798Z" fill="#19B4EE"/>
<path d="M25.3228 125.232C25.783 125.078 26.3966 124.925 27.0101 124.771C27.0101 125.078 26.8567 125.385 26.8567 125.692C26.8567 126.305 26.7033 126.766 26.7033 127.379C26.5499 127.533 26.5499 127.533 26.3966 127.533C25.783 127.993 25.016 128.3 24.4025 128.606C23.6355 128.913 23.022 129.22 22.255 129.527C20.7211 130.14 19.3406 130.6 17.6533 130.754C17.4999 130.754 17.3466 130.754 17.3466 130.6C17.3466 130.447 17.3465 130.447 17.4999 130.447C18.7271 129.373 19.9542 128.453 21.1813 127.533C21.7949 127.072 22.5618 126.766 23.1754 126.305C23.9423 125.845 24.5559 125.538 25.3228 125.232Z" fill="#19B4EE"/>
<path d="M36.9805 107.131C34.3729 108.512 29.4644 116.181 27.6237 122.164C26.0898 122.471 24.7093 122.317 23.022 121.55C21.3347 120.783 21.1813 119.096 21.6415 117.102C21.9483 115.875 21.7949 114.647 21.3347 113.42C28.8508 108.052 32.839 98.5411 33.7593 98.0809C34.6797 97.6207 35.4466 99.1547 36.9805 100.842C38.5145 102.529 40.6619 102.683 40.8153 103.45C40.8153 104.37 40.2017 105.597 36.9805 107.131Z" fill="#19B4EE"/>
<path d="M20.8745 108.052L19.8007 109.279C19.6473 109.432 19.494 109.586 19.3406 109.586C19.1872 109.586 18.8804 109.739 18.5736 109.739C17.8067 108.819 17.1931 107.745 16.4261 106.824C17.4999 106.671 18.5736 106.518 19.8007 106.211C20.7211 106.057 21.488 107.285 20.8745 108.052Z" fill="#8D67C3"/>
<path d="M25.4762 102.376C25.4762 102.529 25.3228 102.529 25.1694 102.529C24.249 102.223 23.3287 102.069 22.4084 101.916C21.488 101.762 20.4143 101.762 19.4939 101.762C17.6533 101.762 15.8126 101.762 13.9719 101.456C13.9719 101.149 13.9719 100.842 14.1253 100.535L14.2787 100.228C15.966 100.535 17.8067 100.535 19.6473 100.689C21.6414 100.842 23.6355 101.149 25.4762 102.069C25.4762 102.069 25.6296 102.223 25.4762 102.376Z" fill="#4263A8"/>
<path d="M19.4939 84.122C17.0396 85.8093 16.5795 87.9569 16.5795 89.3374C16.1193 89.184 15.6591 89.184 15.199 89.0306C15.3524 87.6501 15.6592 85.6559 17.3464 84.122C18.1134 83.9686 18.8803 83.9686 19.4939 84.122Z" fill="#1CD0C5"/>
<path d="M28.3906 101.149C28.3906 101.302 28.2372 101.609 28.0838 101.762C27.7771 101.916 27.3169 101.916 27.1635 101.609C25.783 99.3081 24.4025 96.547 22.5618 94.2461C23.1753 94.2461 23.7889 94.0927 24.4025 93.7859H24.5559C24.7092 94.2461 24.7092 94.5529 24.8626 94.8596C25.6296 97.0072 27.1635 99.6149 28.3906 101.149C28.3906 100.995 28.3906 100.842 28.3906 101.149Z" fill="#1CD0C5"/>
<path d="M52.7795 124.311C51.5524 124.465 50.1719 124.772 48.9448 124.772C48.4846 124.158 48.1779 123.544 47.8711 122.931C49.405 123.084 50.9389 123.238 52.3194 123.391C52.4728 123.698 52.6262 124.005 52.7795 124.311Z" fill="#4263A8"/>
<path d="M89.9001 137.196C89.9001 137.503 89.7467 137.81 89.5933 138.117C88.8263 137.963 88.0594 137.657 87.2924 137.35C84.9916 134.742 81.9238 131.061 80.6967 128.453C80.5433 127.533 80.5433 126.766 80.3899 125.845C81.1568 125.078 82.0772 124.925 83.1509 125.078C82.9975 126.919 83.1509 128.76 83.4577 130.447C83.7645 131.521 84.0713 132.441 84.8382 133.362C85.4518 134.282 86.3721 135.049 87.2924 135.663C88.0594 136.123 88.9797 136.583 89.7467 136.89L89.9001 137.196Z" fill="#19B4EE"/>
<path d="M25.783 79.2134C24.8626 79.9804 23.9423 80.9007 22.7152 81.8211C22.255 81.5143 21.9482 81.2075 21.488 80.9007C22.7152 79.9804 23.7889 79.06 24.7092 78.1396C25.016 78.5998 25.4762 78.9066 25.783 79.2134Z" fill="#1996EE"/>
<path d="M32.9922 64.9478C33.299 65.1011 33.4524 65.1011 33.7592 65.2545C33.4524 65.2545 33.1456 65.2545 32.9922 64.9478Z" fill="#8D67C3"/>
<path d="M36.5202 60.9596C36.827 61.113 37.1338 61.2664 37.4406 61.4198C37.2872 61.7266 37.1338 62.0334 36.9804 62.1867C36.6736 62.0334 36.3669 61.88 36.2135 61.5732C35.7533 61.4198 36.0601 60.8062 36.5202 60.9596Z" fill="#8D67C3"/>
<path d="M40.355 54.9772C40.0482 55.7441 39.7414 56.5111 39.4347 57.2781C35.7533 55.8975 31.9185 54.8238 28.8507 54.0568C28.2372 53.9034 28.3906 53.1364 28.8507 52.983C30.8448 52.8296 34.3728 53.1364 40.355 54.9772Z" fill="#8D67C3"/>
<path d="M41.7354 50.9889C41.4287 51.7559 41.2753 52.6762 40.9685 53.4432C39.7414 52.5228 38.821 51.6025 39.2812 51.2957C39.588 50.9889 40.5083 50.9889 41.7354 50.9889Z" fill="#8D67C3"/>
<path d="M84.2246 96.3936C84.6848 96.8537 84.8382 97.4673 84.378 98.0809C84.378 98.0809 84.378 98.2343 84.2246 98.2343C84.2246 97.6207 84.2246 97.0071 84.2246 96.3936Z" fill="#8D67C3"/>
<path d="M85.2984 89.0306C84.9916 88.8772 84.6848 88.7238 84.2246 88.417C84.2246 88.1102 84.2246 87.8034 84.2246 87.3433C84.6848 87.65 85.145 88.1102 85.6051 88.417C85.9119 88.8772 85.6051 89.3374 85.2984 89.0306Z" fill="#8D67C3"/>
<path d="M86.6788 78.7533C86.6788 79.5202 86.6788 80.2872 86.6788 81.0542C86.0653 80.7474 85.2983 80.4406 84.5314 79.9804C84.5314 79.06 84.6847 77.9863 84.6847 77.0659C85.2983 77.6795 86.0653 78.1397 86.6788 78.7533Z" fill="#8D67C3"/>
<path d="M86.5254 92.5587V95.3198C85.7584 94.8597 84.9915 94.2461 84.0712 93.7859C84.0712 92.8655 84.0712 91.7918 84.0712 90.718C84.9915 91.3316 85.9118 91.9452 86.5254 92.5587Z" fill="#8D67C3"/>
<path d="M87.1389 71.237C86.9856 72.3108 86.9856 73.9981 86.8322 76.1456C86.2186 75.8388 85.4517 75.532 84.8381 75.0718C84.9915 73.2311 85.1449 71.5438 85.2983 69.8564C85.7585 70.3166 86.5254 70.7768 87.1389 71.237Z" fill="#8D67C3"/>
<path d="M76.4017 53.4432C76.7085 54.3636 75.9415 55.284 74.8678 54.9772C71.4932 53.9034 65.0508 51.4491 58.3016 46.8473C58.3016 46.8473 58.3016 46.8473 58.1482 46.8473C61.0626 47.7677 63.977 48.9948 65.2042 49.3016C67.1982 49.7618 70.7262 48.5346 74.2542 48.688C75.0212 50.0686 75.6347 51.7559 76.4017 53.4432Z" fill="#19B4EE"/>
<path d="M88.2127 68.7826C87.4458 68.3224 86.5254 67.7088 85.4517 67.0953C85.7584 64.0274 86.2186 61.8799 86.6788 60.9595C87.139 60.0391 87.4458 58.9654 87.5992 57.8916C88.2127 58.5052 88.8263 58.9654 89.2865 59.4255C89.5933 59.5789 89.7467 59.7323 90.0534 60.0391V60.1925C90.8204 65.7147 89.4399 67.402 88.2127 68.7826Z" fill="#19B4EE"/>
<path d="M96.189 72.3108C95.7288 72.4641 95.2686 72.4641 94.8085 72.3108C94.8085 69.3963 94.6551 66.6352 94.5017 64.1809V64.0275C94.9619 64.641 95.5754 65.2546 96.0356 65.8682C96.0356 67.8623 96.0356 70.0098 96.189 72.3108Z" fill="#19B4EE"/>
<path d="M70.4196 40.2513C70.8797 41.0183 71.1865 41.6319 71.4933 42.3989C71.3399 43.0124 71.1865 43.626 71.1865 44.2396C71.1865 44.6998 70.8797 45.0066 70.4196 44.8532C69.9594 44.8532 69.806 44.5464 69.6526 44.0862C69.6526 43.0124 69.806 41.9387 70.1128 40.8649C70.2662 40.7115 70.2662 40.5581 70.4196 40.2513Z" fill="#F376A2"/>
<path d="M90.2069 25.5255C90.2069 25.6788 90.0536 25.9856 90.0536 26.139C88.5197 26.5992 86.9857 27.0594 85.6052 27.673C85.7586 26.139 86.0654 24.7585 86.3722 23.8381C87.2925 23.3779 88.3663 22.9178 89.2866 22.611C90.0536 23.6847 90.2069 25.5255 90.2069 25.5255Z" fill="#F376A2"/>
<path d="M88.3661 39.9446C88.3661 40.5582 88.3661 41.0183 88.3661 41.6319C87.906 41.9387 87.2924 42.3989 86.8322 42.8591C86.6788 42.3989 86.6788 41.9387 86.6788 41.4785C87.139 40.8649 87.7526 40.4048 88.3661 39.9446Z" fill="#4263A8"/>
<path d="M95.1154 48.5346C94.6552 48.8413 94.195 49.3015 93.7349 49.6083C93.7349 49.3015 93.7349 48.9947 93.7349 48.8413C94.195 48.5345 94.6552 48.0744 95.1154 47.7676C95.1154 47.921 95.1154 48.2278 95.1154 48.5346Z" fill="#1CD0C5"/>
<path d="M95.422 54.8237C95.422 54.6703 95.422 54.6703 95.422 54.8237C94.8085 54.3635 94.655 53.5966 95.1152 53.1364C95.1152 53.1364 95.1152 52.983 95.2686 52.983L95.422 52.8296C95.422 53.4432 95.422 54.0567 95.422 54.8237Z" fill="#8D67C3"/>
<path d="M89.2865 30.7408C89.1331 31.3544 89.1331 31.8146 88.9797 32.2748C88.8263 32.2748 88.6729 32.4282 88.5195 32.5816C88.0593 32.8884 87.7525 33.0418 87.2924 33.3485C86.6788 33.6553 86.2186 33.9621 85.6051 34.4223C85.6051 33.6553 85.4517 33.0418 85.4517 32.4282L85.9118 32.2748L86.5254 31.968C87.4457 31.5078 88.3661 31.0476 89.2865 30.7408Z" fill="#1996EE"/>
<path d="M54.0067 36.8766C53.3932 34.2689 52.7796 31.8146 51.8593 29.3603C51.3991 28.1332 51.0923 26.906 50.4787 25.8322C50.0186 24.7585 49.405 23.5313 48.7915 22.611C48.4847 22.1508 48.0245 21.6906 47.7177 21.3838C47.2576 21.077 46.9508 20.7702 46.4906 20.6168C46.0304 20.4634 45.5702 20.31 45.1101 20.31C44.8033 20.31 44.6499 20.31 44.3431 20.31C44.1897 20.31 44.0363 20.31 44.0363 20.31C43.8829 20.31 43.7296 20.31 43.7296 20.31C42.8092 20.4634 42.1957 21.077 41.7355 22.1508C41.2753 23.2245 41.2753 24.4517 41.2753 25.8322C41.2753 25.9856 41.1219 26.139 40.9685 26.139C40.8151 26.139 40.8151 26.139 40.6618 25.9856C40.0482 24.7585 39.7414 23.3779 39.8948 21.844C40.0482 21.077 40.2016 20.31 40.8152 19.5431C41.2753 18.7761 42.0423 18.3159 42.9626 18.0091C43.116 17.8557 43.4228 17.8557 43.5762 17.8557C43.7296 17.8557 44.0363 17.7023 44.1897 17.7023C44.6499 17.7023 44.9567 17.549 45.4169 17.549C46.1838 17.549 47.1041 17.7023 47.8711 18.0091C48.6381 18.3159 49.405 18.7761 50.0186 19.3897C50.6321 20.0033 51.0923 20.4634 51.5525 21.077C52.4728 22.3042 52.933 23.6847 53.3932 24.9119C53.8533 26.2924 54.1601 27.5196 54.4669 28.9001C54.9271 31.6612 55.0805 34.2689 54.9271 37.03C54.9271 37.1834 54.7737 37.3368 54.6203 37.3368C54.1601 37.1834 54.0067 37.03 54.0067 36.8766Z" fill="#1CD0C5"/>
<path d="M66.8915 34.2689C67.3517 35.0359 67.8119 35.6495 68.272 36.4164C68.272 36.5698 68.1186 36.7232 68.1186 36.8766C67.5051 38.4106 67.0449 39.9445 66.7381 41.3251C66.5847 41.7852 66.2779 41.9386 65.8178 41.9386C65.3576 41.7852 65.2042 41.4785 65.2042 41.1717C65.3576 39.4843 65.8178 37.9504 66.278 36.263C66.4313 35.6495 66.7381 35.0359 66.8915 34.2689Z" fill="#1CD0C5"/>
<path d="M88.8263 16.9354C88.3661 17.0888 87.7525 17.2422 87.2924 17.3956C85.9119 16.1684 84.6847 15.5548 83.611 16.015C82.3839 16.3218 81.4635 17.7023 80.85 19.0829V19.2363C80.5432 19.8499 80.3898 20.4634 80.2364 21.077C79.7763 21.3838 79.4695 21.6906 79.0093 21.9974C78.8559 22.1508 78.5491 22.3042 78.3958 22.611C78.5491 21.6906 79.0093 20.31 79.4695 19.0829C79.1627 18.6227 78.7025 18.1625 78.3958 17.8557C78.7025 17.5489 79.1627 17.2422 79.4695 16.9354C79.7763 17.2422 79.9296 17.3956 80.083 17.7023C80.85 16.3218 81.9237 15.0946 83.3042 14.6345C84.8381 14.0209 86.8322 14.7879 88.8263 16.9354Z" fill="#1CD0C5"/>
<path d="M62.4432 28.1331V28.5933L62.2898 29.5137L62.1364 31.5078C61.8296 34.1155 61.5229 36.7232 61.8296 39.3309C61.8296 39.4843 61.6763 39.6377 61.5229 39.6377C61.3695 39.6377 61.2161 39.4843 61.2161 39.4843C60.6025 36.8766 60.7559 34.1155 60.7559 31.5078V29.5137V28.5933V28.1331V27.6729C60.7559 27.0594 60.6025 26.4458 60.4491 25.9856C60.9093 26.5992 61.6762 27.3661 62.4432 28.1331Z" fill="#19B4EE"/>
<path d="M71.1863 9.72576C71.033 10.1859 70.7262 10.4927 70.5728 10.9529V11.1063C69.8059 10.6461 69.0389 10.1859 68.272 9.72576C68.4254 9.26558 68.5788 8.8054 68.7321 8.34521C69.4991 8.652 70.4194 9.11219 71.1863 9.72576Z" fill="#F376A2"/>
<path d="M48.3313 40.7115C48.1779 40.8648 48.1779 40.8648 48.0245 40.8648C47.7178 40.8648 47.411 40.7115 47.1042 40.7115C44.8033 40.2513 42.5025 40.0979 40.355 40.0979C37.7474 40.0979 35.2931 40.4047 32.8389 41.0182C30.6914 41.6318 28.8508 42.3988 26.8567 43.4726C26.8567 42.3988 26.8567 41.1716 27.0101 40.0979C28.544 39.1775 30.2313 38.4105 31.9186 37.9504C34.6796 37.1834 37.594 37.03 40.355 37.4902C43.1161 37.9504 45.8771 38.8707 48.1779 40.4047C48.4847 40.4047 48.4847 40.5581 48.3313 40.7115Z" fill="#F376A2"/>
<path d="M71.8001 181.374C70.4196 184.595 67.8119 188.89 63.2102 194.566C53.0865 207.451 40.6619 210.826 33.9127 211.746C32.3788 211.899 31.4585 209.905 32.6856 208.985C43.4229 200.088 49.4051 192.418 53.0865 186.436C60.4492 185.209 66.5848 183.368 71.8001 181.374Z" fill="#8D67C3"/>
<path d="M114.289 204.843C113.982 205.15 113.829 205.457 113.522 205.61H113.369C113.215 205.457 113.062 205.303 112.909 205.15C112.755 204.69 112.602 204.076 112.448 203.616C112.755 203.156 113.215 202.696 113.522 202.236C113.829 203.156 113.982 203.923 114.289 204.843Z" fill="#4263A8"/>
<path d="M8.90997 172.324C8.75658 172.477 8.44979 172.63 8.2964 172.784C7.68283 176.159 7.22267 179.073 6.91589 181.221C6.60911 183.061 6.45573 184.442 6.30234 185.209C5.99555 185.669 5.53538 186.129 5.07521 186.436C4.76842 186.283 4.61504 185.976 4.76843 185.669C4.76843 185.669 4.92181 184.595 5.07521 183.061C5.2286 182.141 5.38199 180.914 5.53538 179.687C5.84216 177.539 6.30232 175.085 6.76249 172.17C7.22266 172.17 7.68285 172.17 8.14302 172.17C8.4498 172.17 8.60319 172.324 8.90997 172.324Z" fill="#F376A2"/>
<path d="M8.29645 172.784C7.68289 176.159 7.22272 179.073 6.91594 181.221C6.30238 181.834 5.8422 182.448 5.22864 183.061C5.38203 182.141 5.53542 180.914 5.68881 179.687C5.8422 179.533 5.8422 179.226 5.99559 179.073C6.45576 178.153 6.76255 177.232 7.22272 176.465C7.5295 175.545 7.83629 174.625 7.83629 174.011C7.83629 173.398 7.98967 173.091 8.29645 172.784Z" fill="#8D67C3"/>
<path d="M46.9508 187.51C44.0364 191.498 39.7415 196.253 36.827 201.315C35.7533 203.156 31.9186 204.997 27.1635 206.531C27.6236 204.383 27.9304 202.389 28.3906 200.855C28.6974 199.168 27.777 197.634 26.0897 197.327C22.1016 196.407 17.8067 194.719 14.2787 193.032C21.3346 190.884 27.4702 189.504 29.1575 189.811C33.7592 190.578 31.4584 198.401 34.5262 197.941C35.9067 197.787 37.7474 193.185 39.8948 188.43C42.3491 187.97 44.65 187.817 46.9508 187.51Z" fill="#4263A8"/>
<path d="M13.2049 150.695C12.8981 151.769 12.5913 152.843 12.2845 154.07C12.2845 152.996 12.2845 151.922 12.2845 150.848C12.2845 150.542 12.4379 150.388 12.7447 150.388C13.0515 150.235 13.2049 150.388 13.2049 150.695Z" fill="#4263A8"/>
<path d="M9.83032 158.058C9.83032 158.365 9.67694 158.672 9.67694 158.978C9.52355 159.745 9.37014 160.512 9.06335 161.279C9.37014 160.206 9.52354 159.132 9.83032 158.058Z" fill="#F376A2"/>
</svg>
