<svg width="111" height="197" viewBox="0 0 111 197" fill="none" xmlns="http://www.w3.org/2000/svg">
<path d="M22.224 15.3812L20.0765 61.8596L11.3333 102.969C11.3333 102.969 16.8554 131.654 17.9291 133.188C19.0028 134.722 43.5452 168.162 43.5452 168.162L83.1199 176.445L98.1521 172.917L104.134 164.327L100.146 122.144L87.2614 103.123L92.0165 91.4647L99.5326 79.6534L85.8809 67.2284L71.4622 50.3551L73.7631 38.8505V25.5052L59.3444 9.2454L41.8579 6.6377L25.2918 9.2454L22.224 15.3812Z" fill="white"/>
<path d="M78.5183 197C77.9047 197 77.1377 197 76.3708 196.847C66.5538 195.619 32.5012 173.531 21.4571 165.861L21.3037 165.708C21.1503 165.554 20.8435 165.401 20.6902 165.247C20.23 164.941 19.9232 164.787 19.4631 164.48C19.3097 164.327 19.0028 164.174 18.8495 164.02C18.3893 163.713 18.0825 163.56 17.6224 163.253C15.4749 161.719 13.4808 160.339 11.7935 158.958C11.0266 158.345 10.413 157.884 9.64604 157.424C5.35112 154.203 3.05024 149.294 3.20363 144.232V144.079V143.926C3.35702 142.392 3.66379 140.551 4.43074 138.557C6.27142 134.262 6.42488 131.807 6.42488 130.427C6.27149 129.2 6.11805 129.046 4.73754 128.279C4.27736 127.973 3.66384 127.666 3.05028 127.206C0.749428 125.518 -0.17097 122.757 0.595981 120.149C1.05615 118.615 2.12996 117.235 3.35708 116.468C2.28335 114.934 1.82316 113.093 2.28333 111.253L2.74348 108.952C3.05026 107.418 3.357 105.424 3.66379 103.276C4.12396 100.362 4.89096 95.9131 5.35113 90.5443C5.50452 88.7036 5.6579 86.8629 5.81129 85.0221C6.11807 80.7271 6.27144 76.2787 6.27144 71.6768C6.27144 69.3759 6.27147 67.2284 6.11808 65.2343V65.0809V64.9275C6.11808 63.7003 5.96468 62.6266 5.81129 61.246V60.7859C5.35111 55.1103 4.43074 49.8949 2.89683 45.293C2.74344 44.8328 2.43672 44.0659 2.28333 43.2989C1.97655 41.1514 2.12992 39.0039 2.74348 36.8563L3.35708 34.5554L3.51043 34.2486C3.66382 33.9419 3.81719 33.6351 3.97058 33.3283L4.27738 32.7147L4.73754 32.2545C6.57822 30.4138 8.41888 30.107 9.79939 30.107C10.1062 30.107 10.5664 30.107 10.8731 30.2604L13.0206 30.5672C13.4808 30.5672 14.0944 30.7206 14.5545 30.874C14.4012 29.4934 13.941 25.6586 14.0944 21.5169C14.2478 18.449 14.8613 15.6879 15.935 13.0802C17.3155 9.55217 19.7698 6.63768 22.8376 5.10373L22.991 4.95034H23.1444C23.9113 4.64355 24.6783 4.49016 25.5987 4.49016C26.2122 4.49016 26.8257 4.64355 27.2859 4.79694C27.8995 3.56979 28.8198 2.64943 30.0469 2.18924C30.9673 1.72906 32.3478 1.26888 34.9554 0.962087H35.2622H35.4156C36.3359 0.808693 37.4096 0.6553 38.4834 0.501906C39.7105 0.348511 40.7842 0.348511 42.0113 0.348511C44.3122 0.348511 46.7665 0.501904 49.5275 0.962087H49.8343H49.9876H50.1411C50.4479 0.962087 50.908 1.11548 51.2148 1.11548C52.4419 1.26888 53.669 1.72906 54.5894 2.03585C55.5097 2.34264 56.5835 2.64942 57.8106 3.263C67.781 7.55804 75.6038 15.6879 80.9725 27.6527L81.1258 27.8061V27.9595C81.7394 29.9536 81.2792 32.1011 79.8987 33.6351C79.592 33.9419 79.2852 34.2486 78.9784 34.5554C81.7395 35.4758 84.0403 36.5496 85.114 37.6233L85.2674 37.7767C87.875 41.3048 84.6539 45.7532 82.8132 48.0541L82.6597 48.2075C80.8191 50.5084 79.1318 52.0424 77.7513 53.2695C78.0581 53.8831 78.6717 54.8035 79.2852 55.7238C80.6657 57.4112 82.6598 59.7121 85.2674 61.5528C86.0343 62.013 86.6479 62.4732 87.4149 62.78H87.5682C90.0225 63.8537 92.4768 65.3877 95.0844 67.2284C95.8514 67.6886 96.6183 68.3022 97.0785 68.609L97.3853 68.7623C98.1522 69.2225 98.7658 69.6827 99.226 70.1429C99.3793 70.2963 99.5327 70.4497 99.6861 70.6031L99.9929 70.7565L100.146 70.9099C100.76 71.5234 101.373 72.137 101.68 72.2904L101.987 72.4438L102.14 72.5972C102.6 73.0574 103.061 73.3642 103.367 73.671C103.981 74.2845 104.595 74.8981 105.055 75.8185C105.515 76.7388 105.668 77.8126 105.668 78.8864C106.282 79.3465 106.742 79.9601 107.049 80.5737L107.202 80.7271V80.8805C108.123 83.3348 107.202 86.4027 104.595 89.1638C102.447 92.0783 99.226 94.9928 96.9251 97.1403C95.698 98.0607 94.6242 99.1344 93.5505 99.9014C93.2437 100.208 92.7835 100.515 92.4768 100.668H99.9929L98.1522 102.816C98.459 102.969 98.7658 103.123 98.9192 103.276C100.453 104.35 101.373 106.037 101.373 108.185V108.952L101.22 109.565C101.22 109.719 101.22 109.719 101.067 109.872C102.14 111.713 102.447 114.014 101.834 116.621C101.527 118.002 100.76 119.689 99.8395 121.223C101.067 121.99 102.14 123.217 102.447 124.751V124.905L106.589 145.613L107.356 149.601L109.963 162.179C110.27 163.713 109.963 165.247 109.043 166.474C108.276 167.395 107.202 168.162 105.975 168.315L106.589 169.236L105.362 171.383L104.134 173.531H102.754C102.601 173.531 102.447 173.684 102.294 173.684C99.9929 174.911 94.164 177.826 91.8632 179.36C91.8632 179.82 91.8632 180.127 91.7098 180.587C91.7098 181.507 91.5564 182.428 91.403 183.041L91.2497 183.501C91.0963 184.115 90.9429 184.882 90.4827 185.956C88.1818 195.773 82.0463 197 78.5183 197ZM39.097 121.99C38.7902 122.604 38.6368 123.371 38.33 123.984L38.0232 124.751C37.5631 126.285 37.4096 127.512 37.4096 128.74C37.7164 133.495 38.1766 138.864 39.5571 143.465L39.7105 144.079C39.7105 144.386 39.8639 144.693 39.8639 144.846L40.1707 145.306L40.3241 145.92C40.3241 146.073 40.4775 146.38 40.7842 146.84C42.4715 150.521 44.619 153.129 47.6868 154.97C51.2148 157.117 69.9284 167.855 88.7954 167.855C90.0225 167.855 91.2496 167.855 92.4768 167.702H92.6301H92.7836C93.2437 167.702 94.0107 167.548 94.7776 167.395C95.2378 167.395 95.5445 167.241 96.0047 167.241C96.3115 167.241 96.6183 167.088 96.9251 167.088C97.5387 166.935 97.9988 166.781 98.6124 166.781C98.6124 166.781 98.7657 166.628 99.0725 166.628C99.3793 166.474 99.6861 166.474 100.146 166.321C100.146 166.168 99.9929 165.708 99.9929 165.708L95.5446 143.926V143.772L94.164 136.563L92.7836 129.967C92.0166 130.273 91.2497 130.427 90.4827 130.427H90.3293C88.7954 130.427 86.6479 129.967 84.9606 127.819C84.1936 126.899 83.7335 125.978 83.5801 125.365C83.5801 125.211 83.5801 125.211 83.4267 125.058C83.2733 124.905 82.9665 124.291 82.9665 124.138C82.6598 123.984 82.0462 123.831 81.7394 123.831C81.2793 123.677 80.9725 123.677 80.5123 123.524C80.2056 123.371 80.0522 123.371 79.7454 123.371C79.4386 123.217 79.1318 123.217 78.825 123.064L78.5183 122.911L78.2115 122.757C78.0581 122.604 77.9047 122.604 77.7513 122.604C77.4446 122.45 76.9843 122.297 76.3708 121.837C75.6038 121.377 75.1437 120.916 74.6835 120.61C72.8428 118.769 72.3827 116.621 72.3827 115.241C72.3827 114.627 72.3827 114.014 72.3827 113.4C71.7691 112.786 71.3089 112.02 71.0021 111.099C70.542 109.719 70.542 108.185 71.3089 106.804C71.4623 106.344 71.7691 106.037 72.0759 105.577C70.2352 105.424 68.3945 104.963 66.5538 104.503C64.7131 104.043 63.0258 103.123 61.7987 102.049L61.6454 101.896C59.4979 99.5946 57.0436 96.0665 55.9699 92.6918V92.3851C55.6631 90.8511 55.9699 89.3172 56.8902 88.09C57.8105 86.8629 59.3445 86.0959 60.8784 86.0959C62.1055 86.0959 63.1792 86.5561 64.0996 87.1697C64.8665 87.6298 65.6335 87.9366 66.4004 87.9366C66.5538 87.9366 66.7072 87.9366 66.8606 87.9366H67.1674C67.1674 87.9366 67.7809 87.7832 68.0877 87.7832C69.6216 87.3231 72.2292 86.5561 75.6038 85.4823H75.7572C78.058 84.8687 80.6657 83.9484 83.12 83.1814C85.7276 82.4144 88.3353 81.4941 90.7895 80.8805L91.403 80.7271C92.0166 80.5737 92.4768 80.4203 93.0904 80.2669C92.4768 79.9601 92.0165 79.4999 91.8632 79.3466C91.7098 79.1932 91.403 79.0398 91.0962 78.733C90.7894 78.4262 90.4827 78.2728 90.1759 77.966C88.3352 76.5855 85.881 75.0515 82.9665 73.5176C81.586 72.904 80.2055 72.137 78.825 71.2167C74.0699 67.842 71.1555 63.8537 69.775 61.7062C67.7809 58.4849 67.3208 57.4112 67.1674 56.4908C67.014 55.8772 67.014 55.2637 67.1674 54.8035C65.9402 53.4229 65.0199 51.7356 64.4064 50.355C64.4064 50.2016 64.2529 50.0482 64.2529 49.8949C64.0995 49.8949 64.0996 49.8949 63.9462 50.0483C61.9521 50.6618 59.0377 52.0424 57.6572 52.9627C57.197 53.2695 55.3563 54.4967 49.9876 54.4967C48.4537 54.4967 46.9198 54.3433 45.3859 54.1899C44.3122 54.0365 42.6249 53.8831 40.7842 53.2695C40.9376 54.0365 41.2444 54.6501 41.3978 55.4171C41.7046 56.184 41.858 56.7976 42.1648 57.2578C42.3182 57.5646 42.3182 57.8714 42.4716 58.0247L43.3919 60.3257C44.1588 62.3198 44.9258 64.1605 45.5394 66.0013C45.9996 67.2284 46.3063 68.1488 46.613 69.0691V69.2225C46.7664 69.6827 46.9199 70.1429 47.0733 70.6031C47.2267 71.0633 47.38 71.5235 47.5334 72.137L47.6868 72.7506C47.8402 73.3642 48.147 74.1311 48.3004 74.7447C49.0673 77.0456 49.5275 79.1932 49.9876 81.1873L50.1411 81.8009C50.908 85.4823 51.5216 89.1638 51.675 92.6918C52.1352 98.3674 48.4537 104.81 44.619 111.866C43.3919 114.014 42.1648 116.161 41.091 118.309V118.462L40.7842 119.076C40.7842 119.229 40.6309 119.229 40.6309 119.382C40.3241 119.996 40.0173 120.61 39.7105 121.377L39.097 121.99ZM19.4631 116.621C20.23 116.928 20.6901 117.082 21.1503 117.235C21.7639 114.167 22.3774 108.645 22.991 101.589C22.8376 102.969 22.5308 104.35 22.3774 105.73C22.224 107.418 21.9172 109.105 21.6105 110.486C21.6105 110.792 21.4571 111.099 21.4571 111.253V111.406C21.1503 113.4 20.3833 115.087 19.0028 116.468C19.3096 116.468 19.3097 116.468 19.4631 116.621ZM36.6427 36.2428C36.7961 37.0097 36.9495 37.6233 37.1029 38.3903C37.2563 39.1573 37.4096 40.0776 37.7164 40.8446C39.0969 39.6174 41.091 38.2369 43.852 36.8563C47.2266 35.0156 50.4478 33.7885 53.5156 32.8681C55.3563 32.2545 57.8106 31.9477 60.8784 31.9477C62.2589 31.9477 63.486 31.9477 65.0199 32.1011C66.7072 32.2545 69.1615 32.5613 71.6157 33.0215C71.6157 32.8681 71.4623 32.5613 71.4623 32.5613V32.4079C71.3089 31.9477 71.0022 31.4875 70.8488 31.0274C70.542 30.4138 70.2352 29.9536 70.0818 29.34C65.7869 21.3635 60.2648 15.9947 53.6691 13.387C52.4419 12.9268 51.2148 12.4667 49.9876 12.1599C49.2207 12.1599 48.7606 12.0065 48.3004 11.8531H48.1469C46.3063 11.5463 44.3122 11.3929 42.3181 11.3929C41.2444 11.3929 40.3241 11.3929 39.5571 11.5463C39.097 11.5463 38.6368 11.6997 38.1766 11.6997C38.0232 11.6997 37.7165 11.6997 37.5631 11.6997H37.4096H37.2563C36.0292 11.8531 35.1089 12.1599 34.8021 12.1599C34.1885 12.4667 33.4215 12.6201 32.8079 12.6201C32.9613 13.5404 33.1148 14.4608 33.2682 15.5345C33.4216 16.9151 33.7283 18.449 34.0351 20.2898L34.4953 22.4373C34.8021 23.9712 35.1088 25.812 35.4156 27.4993V27.8061C35.569 28.7265 35.8758 29.8002 36.0292 30.874C36.336 32.2545 36.6427 33.6351 36.9495 35.169C36.6427 35.4758 36.6427 35.936 36.6427 36.2428Z" fill="white"/>
<path d="M106.129 164.02L103.521 151.288L102.754 147.3L98.6124 126.592C98.459 125.978 97.9988 125.672 97.3853 125.825C96.7717 125.978 96.4649 126.439 96.6183 127.052L98.3056 135.335L99.8395 143.005V143.159L104.134 164.327C104.288 164.787 104.595 165.094 105.055 165.094C105.208 165.094 105.362 165.094 105.362 165.094C105.822 165.094 106.282 164.634 106.129 164.02ZM77.1377 29.6468C71.3089 16.7617 63.3326 10.4725 56.1233 7.40465C55.2029 6.94447 54.2826 6.63768 53.3623 6.33089C52.4419 6.0241 51.3681 5.71731 50.4478 5.56392C49.9876 5.41053 49.3741 5.41053 48.9139 5.25713C45.2325 4.64356 42.0114 4.49016 39.2503 4.79695C38.0232 4.95034 36.7961 5.10374 35.8757 5.25713C35.8757 5.25713 35.8758 5.25713 35.7224 5.25713C33.4215 5.56392 32.1944 6.0241 32.041 6.1775C31.4274 6.33089 31.1207 6.94447 31.4275 7.55805C31.5809 8.17162 32.1944 8.47841 32.8079 8.17162C32.8079 8.17162 34.0351 7.71144 36.1825 7.40465C36.7961 7.25126 37.563 7.25126 38.4834 7.09786C39.5571 6.94447 40.6309 6.94447 41.858 6.94447C43.8521 6.94447 46.1529 7.09786 48.6072 7.55805C49.2208 7.71144 49.6809 7.86483 50.2944 7.86483C51.8283 8.32502 53.3623 8.7852 54.8962 9.39878C62.5657 12.4667 68.8547 18.6024 73.6098 27.4993C74.07 28.5731 74.6835 29.6468 75.1437 30.7206C75.2971 31.0274 75.6039 31.3342 75.9106 31.3342C76.064 31.3342 76.3708 31.3342 76.5241 31.1808C76.5241 31.1808 76.6776 31.1808 76.6776 31.0274C77.1378 30.7206 77.2911 30.107 77.1377 29.6468ZM101.373 78.4262C101.373 78.2728 100.606 77.6592 99.3793 76.4321C98.7658 75.9719 98.1522 75.3583 97.3853 74.5913C96.7717 74.1312 96.1582 73.5176 95.3912 73.0574C95.2378 73.0574 95.2378 72.904 95.0844 72.904C94.4709 72.4438 93.7039 71.8302 92.9369 71.3701C90.9428 69.9895 88.4886 68.4556 85.881 67.2284C84.8073 66.7682 83.8869 66.1547 82.9666 65.5411C79.8987 63.3936 77.5979 60.7859 75.9106 58.6383C74.3767 56.3374 73.4563 54.6501 73.4563 54.6501C73.1496 54.1899 72.5361 53.8831 72.0759 54.0365C71.6157 54.3433 71.3089 54.9569 71.4623 55.4171C71.4623 55.5705 72.2292 56.951 73.4563 58.9451C74.9902 61.3994 77.5979 64.6207 81.2793 67.2284C82.353 67.9954 83.5801 68.609 84.8073 69.2225C87.8751 70.7565 90.6361 72.4438 92.7836 74.1312C93.5505 74.7447 94.3174 75.2049 94.931 75.8185C95.0844 75.9719 95.2378 76.1253 95.3912 76.1253C96.0048 76.5855 96.6183 77.0457 97.0785 77.5058C97.9988 78.2728 98.6124 78.8864 99.0725 79.3466C99.3793 79.6533 99.5327 79.8067 99.5327 79.8067C99.6861 79.9601 99.9929 80.1135 100.146 80.1135C100.453 80.1135 100.76 80.1135 101.067 79.8067C101.68 79.6534 101.68 78.8864 101.373 78.4262ZM86.8013 105.884C86.4945 106.804 86.1878 107.571 85.881 108.185C86.1878 108.185 86.4945 108.185 86.8013 108.031C87.7216 108.031 88.4886 107.878 89.409 107.878C90.0225 107.264 90.6361 106.651 91.2497 105.884C89.5624 105.884 88.1818 105.884 86.8013 105.884ZM86.8013 105.884C86.4945 106.804 86.1878 107.571 85.881 108.185C86.1878 108.185 86.4945 108.185 86.8013 108.031C87.7216 108.031 88.4886 107.878 89.409 107.878C90.0225 107.264 90.6361 106.651 91.2497 105.884C89.5624 105.884 88.1818 105.884 86.8013 105.884ZM86.8013 105.884C86.4945 106.804 86.1878 107.571 85.881 108.185C86.1878 108.185 86.4945 108.185 86.8013 108.031C87.7216 108.031 88.4886 107.878 89.409 107.878C90.0225 107.264 90.6361 106.651 91.2497 105.884C89.5624 105.884 88.1818 105.884 86.8013 105.884ZM86.8013 105.884C86.4945 106.804 86.1878 107.571 85.881 108.185C86.1878 108.185 86.4945 108.185 86.8013 108.031C87.7216 108.031 88.4886 107.878 89.409 107.878C90.0225 107.264 90.6361 106.651 91.2497 105.884C89.5624 105.884 88.1818 105.884 86.8013 105.884ZM86.8013 105.884C86.4945 106.804 86.1878 107.571 85.881 108.185C86.1878 108.185 86.4945 108.185 86.8013 108.031C87.7216 108.031 88.4886 107.878 89.409 107.878C90.0225 107.264 90.6361 106.651 91.2497 105.884C89.5624 105.884 88.1818 105.884 86.8013 105.884ZM86.8013 105.884C86.4945 106.804 86.1878 107.571 85.881 108.185C86.1878 108.185 86.4945 108.185 86.8013 108.031C87.7216 108.031 88.4886 107.878 89.409 107.878C90.0225 107.264 90.6361 106.651 91.2497 105.884C89.5624 105.884 88.1818 105.884 86.8013 105.884ZM96.6183 112.02C96.6183 112.02 94.931 111.099 92.0166 110.639C90.4827 110.332 88.7954 110.179 86.8013 110.179C86.8013 110.179 86.8013 110.179 86.648 110.179C85.881 110.179 85.114 110.179 84.5005 110.179C79.8987 110.332 76.5242 110.792 76.8309 114.627C76.8309 115.701 77.2911 116.468 77.9047 117.082C78.2115 117.388 78.3649 117.542 78.6716 117.695C79.1318 118.002 79.592 118.155 80.2055 118.462C80.6657 118.615 81.2793 118.769 81.7394 118.922C83.2733 119.382 84.8072 119.689 85.7276 120.303C86.4945 120.916 86.8013 121.837 87.2615 122.757C87.5682 123.371 87.7217 124.138 88.1819 124.598C88.642 125.211 89.2555 125.672 90.3293 125.672C93.3971 125.825 101.527 114.627 96.6183 112.02ZM86.8013 105.884C86.4945 106.804 86.1878 107.571 85.881 108.185C86.1878 108.185 86.4945 108.185 86.8013 108.031C87.7216 108.031 88.4886 107.878 89.409 107.878C90.0225 107.264 90.6361 106.651 91.2497 105.884C89.5624 105.884 88.1818 105.884 86.8013 105.884ZM86.8013 105.884C86.4945 106.804 86.1878 107.571 85.881 108.185C86.1878 108.185 86.4945 108.185 86.8013 108.031C87.7216 108.031 88.4886 107.878 89.409 107.878C90.0225 107.264 90.6361 106.651 91.2497 105.884C89.5624 105.884 88.1818 105.884 86.8013 105.884ZM86.8013 105.884C86.4945 106.804 86.1878 107.571 85.881 108.185C86.1878 108.185 86.4945 108.185 86.8013 108.031C87.7216 108.031 88.4886 107.878 89.409 107.878C90.0225 107.264 90.6361 106.651 91.2497 105.884C89.5624 105.884 88.1818 105.884 86.8013 105.884ZM86.8013 105.884C86.4945 106.804 86.1878 107.571 85.881 108.185C86.1878 108.185 86.4945 108.185 86.8013 108.031C87.7216 108.031 88.4886 107.878 89.409 107.878C90.0225 107.264 90.6361 106.651 91.2497 105.884C89.5624 105.884 88.1818 105.884 86.8013 105.884ZM86.8013 105.884C86.4945 106.804 86.1878 107.571 85.881 108.185C86.1878 108.185 86.4945 108.185 86.8013 108.031C87.7216 108.031 88.4886 107.878 89.409 107.878C90.0225 107.264 90.6361 106.651 91.2497 105.884C89.5624 105.884 88.1818 105.884 86.8013 105.884ZM86.8013 105.884C86.4945 106.804 86.1878 107.571 85.881 108.185C86.1878 108.185 86.4945 108.185 86.8013 108.031C87.7216 108.031 88.4886 107.878 89.409 107.878C90.0225 107.264 90.6361 106.651 91.2497 105.884C89.5624 105.884 88.1818 105.884 86.8013 105.884ZM96.9251 107.878C96.4649 107.571 96.1581 107.418 95.6979 107.264C95.2378 107.111 94.7776 106.958 94.4708 106.804C94.164 106.651 93.5505 106.651 93.2437 106.497C92.7835 106.344 92.3233 106.344 91.8632 106.191C91.5564 106.191 91.403 106.037 91.0962 106.037C89.7157 105.884 88.3352 105.73 86.8013 105.884C86.6479 105.884 86.6479 105.884 86.4945 105.884C84.8072 105.884 82.9666 106.191 81.2793 106.344L80.0522 106.651L78.825 106.958L76.3708 107.571C76.3708 107.571 76.3708 107.571 76.2174 107.571C75.4505 107.724 74.9903 108.645 75.297 109.258C75.4504 110.025 76.3708 110.486 76.9844 110.179L78.2115 109.872L79.2852 109.565L81.7394 108.952C83.12 108.645 84.347 108.491 85.7276 108.338C86.0343 108.338 86.3412 108.338 86.648 108.185C87.5683 108.185 88.3353 108.031 89.2556 108.031C90.0226 108.031 90.7895 108.031 91.5565 108.185C92.0166 108.185 92.3234 108.338 92.7836 108.338C93.2437 108.338 93.5505 108.491 94.0107 108.645C94.1641 108.645 94.3174 108.645 94.4708 108.798C94.7776 108.798 94.931 108.952 95.2378 108.952C95.5446 109.105 96.0047 109.258 96.3115 109.412C96.6183 109.565 97.2319 109.565 97.3853 109.105C97.3853 108.645 97.3853 108.185 96.9251 107.878ZM20.9969 57.8714C20.0766 45.5998 17.3156 39.6174 15.6283 37.0097C14.8613 35.936 13.7876 35.169 12.5605 35.0156L10.2596 34.7088C9.33928 34.5554 8.57233 35.0156 7.95877 35.6292C7.80538 35.936 7.65192 36.0894 7.49853 36.3962L6.88502 38.3903C6.42485 39.7708 6.27144 41.3048 6.57822 42.8387C6.57822 43.1455 6.73163 43.4523 6.88502 43.7591C8.57232 48.8211 9.64601 54.4967 10.1062 60.4791C10.2596 62.013 10.413 63.3936 10.413 64.9275C10.5664 67.075 10.5663 69.3759 10.5663 71.6768C10.5663 76.2787 10.413 80.8805 10.1062 85.3289C9.95279 87.3231 9.79942 89.1638 9.64603 91.0045C9.18586 95.7597 8.57233 100.208 7.95877 103.89C7.65199 106.191 7.34516 108.185 7.03838 109.872C6.88498 110.639 6.73161 111.406 6.57822 112.173C6.27144 113.707 7.49858 115.241 9.18588 115.087L12.5605 114.934C14.8613 114.781 16.8554 113.093 17.1622 110.792C17.1622 110.486 17.3155 110.179 17.3155 109.872C17.6223 108.338 17.9291 106.651 18.0825 105.117C21.4571 83.4882 21.7639 68.3022 20.9969 57.8714ZM101.527 170.156C100.76 170.309 100.146 170.616 99.3793 170.77C98.459 170.923 97.5387 171.23 96.6183 171.383C95.3912 171.537 94.0107 171.843 92.7836 171.843C73.6098 173.377 53.5156 163.407 45.3859 158.498C41.3978 156.044 38.7902 152.669 36.9495 148.681C36.6427 148.067 36.3359 147.454 36.1825 146.687C35.8757 146.073 35.7224 145.306 35.569 144.693C34.0351 139.63 33.5749 134.108 33.2682 129.046C33.1148 127.206 33.4216 125.365 34.0351 123.371C34.3419 122.45 34.6486 121.377 35.1088 120.303C35.1088 120.303 35.1088 120.303 35.1088 120.149C35.5689 119.076 36.0291 118.002 36.6427 116.928C36.6427 116.775 36.7961 116.775 36.7961 116.621C41.091 107.878 47.6868 98.6742 47.2266 92.5385C47.0732 89.3172 46.613 85.9425 45.8461 82.4144C45.3859 80.2669 44.9258 77.966 44.1588 75.6651C44.0054 74.8981 43.6987 74.1312 43.3919 73.2108C43.0851 72.137 42.7784 71.2167 42.4716 70.1429C42.1648 69.2225 41.858 68.3022 41.3978 67.2284C40.4775 64.6207 39.4038 62.013 38.33 59.2519C38.0232 58.4849 37.7164 57.5646 37.2563 56.4908C35.8758 52.656 34.6486 47.4406 33.4215 41.9184C33.1147 40.231 32.6545 38.5437 32.3478 36.8563C32.3478 36.5496 32.1944 36.2428 32.1944 36.0894C31.7342 33.4817 31.1207 31.0274 30.6605 28.5731C30.3537 26.7323 30.0469 24.8916 29.7401 23.2043C29.2799 20.5966 28.8198 18.1422 28.513 16.1481C28.2062 13.8472 27.8995 11.8531 27.5927 10.4725C27.4393 9.24538 26.0588 8.63181 24.9851 9.09199C22.6842 10.3191 20.9969 12.4667 20.0765 14.921C19.1562 17.2219 18.696 19.6762 18.5426 21.9771C18.2359 26.7323 19.0028 30.874 19.0028 30.874C21.6104 35.4758 23.4512 41.1514 24.8317 47.2872C25.9054 51.889 26.6724 56.951 27.1326 62.013C27.1326 62.1664 27.1326 62.3198 27.1326 62.3198C29.8936 90.0842 25.752 120.763 24.5249 121.683C23.4512 122.45 20.3834 121.53 17.9291 120.61C15.9351 119.843 13.7875 119.536 11.6401 119.689L6.73158 119.996C4.7375 120.149 3.97063 122.604 5.65792 123.831C7.34521 125.058 10.413 125.518 10.8731 130.12C11.1799 133.341 9.95279 137.176 8.57228 140.397C7.95872 141.778 7.80536 143.159 7.65197 144.539C7.49858 148.221 9.18588 151.749 12.2537 154.05C14.5545 155.737 17.1622 157.731 20.23 159.879C20.8436 160.339 21.457 160.646 22.0706 161.106C22.6842 161.566 23.2977 161.873 23.9113 162.333C42.7783 175.218 69.9284 191.631 76.9844 192.552C82.9666 193.318 85.5742 189.637 86.8013 185.802C87.1081 185.035 87.2615 184.422 87.4149 183.808C87.5683 183.041 87.7217 182.427 87.7217 181.661C87.8751 180.127 87.875 178.899 88.0284 178.593C88.0284 177.519 95.698 173.531 100.76 170.923C101.22 170.77 101.527 170.463 101.834 170.309C101.987 170.463 101.834 170.156 101.527 170.156ZM103.367 83.3348C103.214 83.028 103.061 82.8746 102.6 82.8746C102.447 82.8746 102.294 82.8746 101.987 82.7212C101.22 82.7212 100.146 82.7212 98.9192 83.028C98.3056 83.1814 97.6921 83.3348 96.9251 83.4882C96.6183 83.4882 96.3115 83.6416 96.0047 83.6416C95.5446 83.795 95.2378 83.795 94.7776 83.9484C94.0107 84.1018 93.3971 84.2552 92.6301 84.562C92.4767 84.562 92.17 84.7154 92.0166 84.7154C87.2615 86.0959 81.7395 87.9366 76.9844 89.3172C73.7632 90.3909 70.8488 91.3113 69.0081 91.7715C68.2411 91.9249 67.7809 92.0783 67.3207 92.0783C64.5597 92.3851 62.5657 91.3113 61.3386 90.3909C60.8784 89.9308 60.1114 90.3909 60.2648 91.0045C61.0318 93.4588 63.1792 96.5267 65.0199 98.5208C65.6334 99.1344 66.5538 99.5946 67.781 99.9014C69.4683 100.362 71.6157 100.822 74.0699 100.975C76.3708 101.129 78.825 101.282 81.1258 101.129C82.9665 100.975 84.6538 100.822 86.0344 100.515C86.4945 100.362 87.2615 100.055 88.1819 99.4412C89.1022 98.8276 90.0225 98.214 91.0962 97.2937C92.1699 96.5267 93.2437 95.6064 94.3175 94.686C97.0785 92.2317 99.8395 89.4706 101.527 87.1697C103.061 85.6357 103.674 84.1018 103.367 83.3348ZM81.8928 40.6912C80.9725 39.6174 72.5361 37.0097 64.4064 36.3962C63.1792 36.2428 61.9521 36.2428 60.725 36.2428C58.5775 36.2428 56.4301 36.3962 54.7428 37.0097C51.5216 37.9301 48.4537 39.3107 45.8461 40.6912C41.3978 43.1455 38.4834 45.7532 38.7902 46.5202C39.5571 48.0541 42.4715 49.1279 45.6927 49.4347C49.5275 49.8949 53.8224 49.7415 55.203 48.8211C56.8902 47.7473 60.1114 46.2134 62.5657 45.4464C64.0996 44.9862 65.4801 44.6795 66.0936 44.9862C66.5538 45.1396 67.1674 45.9066 67.6275 46.827C68.7013 48.8211 69.775 51.7356 71.6157 52.0424C73.1496 52.3492 76.831 48.8211 79.4386 45.7532C81.2793 43.2989 82.353 41.3048 81.8928 40.6912Z" fill="#1E1C31"/>
<path d="M15.4749 37.0097C17.1622 39.6174 19.9232 45.5998 20.8435 57.7179C18.0825 63.7003 14.8614 63.0867 11.7936 61.246C11.18 60.7858 10.413 60.6324 9.79943 60.3256C9.33926 54.3432 8.26557 48.6676 6.57828 43.6056C6.42489 43.2988 6.42487 42.992 6.27148 42.6853C7.19182 40.0776 7.80542 37.4699 7.65203 35.7825C7.65203 35.6291 7.65203 35.6291 7.65203 35.4757C8.26559 34.8622 9.03254 34.402 9.95287 34.5554L12.2537 34.8622C13.6342 35.3223 14.8613 35.9359 15.4749 37.0097Z" fill="#4263A8"/>
<path d="M32.5011 37.0097C32.3477 38.8505 28.2061 41.6116 24.9849 47.4406C23.6044 41.3048 21.7638 35.6292 19.1561 31.0274C19.1561 31.0274 18.3892 26.8857 18.696 22.1305C19.9231 22.2839 20.9968 22.4373 22.0705 22.5907C23.9112 22.8975 25.4451 23.0509 26.8256 23.0509C27.2858 23.0509 27.7459 23.0509 28.2061 23.2043C28.8197 23.2043 29.2798 23.2043 29.74 23.2043C30.0468 24.8916 30.3536 26.7323 30.6604 28.5731C30.507 28.5731 30.5069 28.7264 30.5069 28.7264C30.3536 28.8798 30.3536 28.8798 30.2002 29.0332C30.2002 29.0332 30.0468 29.1866 30.0468 29.34C29.8934 29.4934 29.74 29.8002 29.74 29.9536V30.107V30.2604C29.74 30.5672 29.5866 30.7206 29.74 31.0274C29.74 31.4875 29.8934 31.9477 29.8934 32.2545C29.8934 32.5613 30.0468 32.7147 30.0468 32.8681C30.0468 33.0215 30.0469 33.0215 30.2002 33.1749V33.3283V33.4817C30.6604 34.2486 31.1205 34.7088 31.5807 35.169L31.7341 35.3224C31.8875 35.4758 32.0409 35.7826 32.1943 36.0894C32.1943 36.2428 32.3477 36.3962 32.3477 36.5496C32.501 36.8563 32.5011 36.8563 32.5011 37.0097Z" fill="#4263A8"/>
<path d="M56.1232 7.40462C55.9698 7.71141 55.8165 8.0182 55.6631 8.32499L55.3563 8.93856C55.2029 9.09196 55.2029 9.24535 55.0495 9.39875C53.5156 8.78517 51.9817 8.32499 50.4478 7.8648V7.71141C50.4478 7.09783 50.4478 6.48426 50.6012 5.71729C51.5215 5.87068 52.4418 6.17747 53.5156 6.48426C54.1291 6.63765 55.0495 6.94444 56.1232 7.40462Z" fill="#1996EE"/>
<path d="M39.2504 4.64355C40.0173 5.25713 40.9377 6.0241 41.858 6.63768C40.6309 6.63768 39.5572 6.79108 38.4834 6.79108C37.5631 6.1775 36.7961 5.56392 35.8758 5.10374C35.8758 5.10374 35.8758 5.10374 35.7224 5.10374C35.7224 5.10374 35.7224 5.10374 35.8758 5.10374C36.7961 4.95034 38.0233 4.79695 39.2504 4.64355Z" fill="#4263A8"/>
<path d="M76.831 31.0273L76.6776 31.1807C76.5243 31.3341 76.2174 31.3341 76.064 31.3341C75.7573 31.3341 75.4505 31.0273 75.2971 30.7205C74.8369 29.6468 74.2234 28.573 73.7632 27.4993C75.2971 28.8798 76.3708 30.107 76.831 31.0273Z" fill="#4263A8"/>
<path d="M79.4386 45.5998C78.5183 45.7532 77.7513 45.9066 76.8309 46.2134C73.4564 46.9804 70.3886 47.1338 67.6275 46.827C67.1674 45.9066 66.7072 45.1396 66.0936 44.9862C65.4801 44.6795 64.0996 44.9862 62.5657 45.4464C59.958 44.0659 58.7309 41.9184 59.8047 39.4641C60.1114 38.5437 60.725 37.9301 61.4919 37.4699C62.2589 37.0097 63.3326 36.703 64.4064 36.5496C72.5361 37.1631 80.9725 39.7708 81.8928 40.8446C82.353 41.3048 81.2793 43.2989 79.4386 45.5998Z" fill="#8D67C3"/>
<path d="M27.746 10.4725C27.8994 11.8531 28.2062 13.8472 28.6664 16.1481C28.3596 16.1481 27.8994 15.9947 27.5926 15.9947C27.1325 15.9947 26.8257 15.8413 26.3655 15.8413C26.0588 15.8413 25.5986 15.6879 25.2918 15.6879C24.8316 15.6879 24.5249 15.5345 24.0647 15.5345C22.8376 15.3811 21.6104 15.2277 20.3833 15.0743C21.3036 12.62 22.8376 10.6259 25.2918 9.24535C26.2121 8.63177 27.5926 9.24535 27.746 10.4725Z" fill="#1CD0C5"/>
<path d="M36.1824 7.25128C34.0349 7.55807 32.8078 8.01825 32.8078 8.01825C32.1942 8.17164 31.5807 7.86486 31.4274 7.40467C31.274 6.7911 31.5807 6.17752 32.0409 6.02413C32.1942 6.02413 33.5748 5.56394 35.7222 5.10376C35.7222 5.10376 35.7222 5.10376 35.8756 5.10376C36.029 5.87073 36.029 6.48431 36.1824 7.25128Z" fill="#1CD0C5"/>
<path d="M81.8926 40.6912C78.5181 41.9184 74.2232 42.532 69.0079 41.765C65.3266 41.3048 63.1791 39.6175 61.4918 37.3166C61.185 37.0098 61.0316 36.5496 60.7249 36.2428C61.952 36.2428 63.1791 36.2428 64.4062 36.3962C72.5359 37.0098 81.1257 39.6175 81.8926 40.6912Z" fill="#1CD0C5"/>
<path d="M33.575 42.0717C34.8021 47.5938 36.1826 52.6559 37.4097 56.6441C34.6487 60.1722 30.3538 66.1546 28.2063 64.6206C27.5927 64.1604 27.4394 63.5468 27.286 62.4731C27.286 62.3197 27.286 62.1663 27.286 62.1663C27.1326 60.479 27.4394 57.8713 27.8996 54.4966C28.2064 50.8151 30.3538 45.5997 33.575 42.0717Z" fill="#1CD0C5"/>
<path d="M45.6928 49.2812C42.4715 48.821 39.5571 47.9007 38.7902 46.3667C38.33 45.5997 41.2444 42.992 45.8461 40.5377C46.7665 41.9183 47.38 43.759 47.6868 45.1396C47.8402 46.6735 47.0733 48.054 45.6928 49.2812Z" fill="#1CD0C5"/>
<path d="M11.7935 66.0013C13.0206 67.2284 11.7934 69.3759 10.4129 71.6768C10.4129 69.3759 10.4129 67.2284 10.2595 64.9275C10.8731 65.2343 11.4867 65.5411 11.7935 66.0013Z" fill="#F376A2"/>
<path d="M19.463 88.5503C18.0825 86.8629 15.935 86.8629 15.0147 87.1697C13.174 87.7833 14.5545 91.4647 12.5605 91.9249C11.3334 92.2317 10.5664 91.6181 9.33923 91.0046C9.49262 89.1638 9.64599 87.3231 9.79938 85.329C9.95277 85.329 9.95279 85.329 10.1062 85.4824C13.7875 86.2493 16.0884 83.4883 18.5426 86.0959C19.3096 86.8629 19.7697 87.6299 20.0765 88.2435C20.2299 88.5503 19.7698 88.857 19.463 88.5503Z" fill="#F376A2"/>
<path d="M43.5452 73.3641C43.0851 73.3641 42.4715 73.3641 42.0113 73.3641C40.6308 73.2107 39.2503 72.7506 38.0232 71.8302C37.2563 71.2166 37.1029 70.1429 37.5631 69.3759C37.7164 69.2225 37.8698 69.0691 38.1766 68.9157L38.4834 68.7623C39.5571 68.1487 40.6308 67.8419 41.5512 67.5352C41.8579 68.4555 42.1647 69.5293 42.6249 70.4496C42.9317 71.2166 43.2384 72.2904 43.5452 73.3641Z" fill="#8D67C3"/>
<path d="M83.12 65.6944C82.6598 66.308 82.1997 66.7682 81.5861 67.2284C77.9048 64.6207 75.2971 61.3994 73.7632 58.9451C74.5301 58.7917 75.2971 58.6383 76.064 58.6383C77.5979 60.9392 79.8988 63.5469 83.12 65.6944Z" fill="#4263A8"/>
<path d="M92.0166 110.639C87.2615 114.934 82.6598 117.849 80.2055 118.462C79.7454 118.309 79.1318 118.002 78.6716 117.695C79.2852 116.468 82.6598 113.86 86.6479 110.179C86.6479 110.179 86.6479 110.179 86.8013 110.179C88.9488 110.179 90.6361 110.332 92.0166 110.639Z" fill="#8D67C3"/>
<path d="M95.6979 107.264C95.2377 107.725 94.7776 108.185 94.3174 108.645C94.164 108.645 94.0106 108.491 93.8573 108.491C93.5505 108.338 93.0902 108.338 92.63 108.185C92.1699 108.185 91.8631 108.031 91.4029 108.031C90.636 107.878 89.869 107.878 89.1021 107.878C89.7156 107.264 90.3292 106.651 90.9428 105.884C91.2496 105.884 91.4029 105.884 91.7097 106.037C92.1699 106.037 92.6301 106.191 93.0903 106.344C93.5505 106.497 94.0106 106.497 94.3174 106.651C94.6242 106.804 95.2377 107.111 95.6979 107.264Z" fill="#8D67C3"/>
<path d="M103.367 83.3348C103.674 84.2552 103.061 85.6357 101.68 87.4765C101.987 85.9425 102.294 84.4086 102.6 82.8746C103.061 82.8746 103.214 83.028 103.367 83.3348Z" fill="#8D67C3"/>
<path d="M99.686 143.005L98.1521 135.336C98.6123 134.875 99.0724 134.722 99.5325 134.722C100.913 134.875 100.453 138.864 99.686 143.005Z" fill="#1CD0C5"/>
<path d="M92.7834 171.843C94.0106 171.69 95.3911 171.536 96.6182 171.383C95.3911 172.15 94.1639 173.377 93.2436 172.61C93.0902 172.303 92.9368 172.15 92.7834 171.843Z" fill="#19B4EE"/>
<path d="M101.68 170.616C101.373 170.769 100.913 170.923 100.606 171.23C100.146 171.076 99.8393 170.923 99.3792 170.769C100.146 170.616 100.76 170.463 101.527 170.156C101.833 170.156 101.987 170.463 101.68 170.616Z" fill="#19B4EE"/>
<path d="M37.1029 148.681C34.6487 149.908 32.1944 151.288 30.2003 152.516C27.2859 154.51 25.2918 158.651 23.7579 162.486C23.1444 162.026 22.5308 161.719 21.9172 161.259C21.3037 160.799 20.6901 160.492 20.0765 160.032C21.7638 155.89 24.0647 151.442 27.746 148.988C30.0469 147.454 32.8079 146.073 35.4156 144.693C35.5689 145.306 35.8758 146.073 36.0292 146.687C36.4893 147.454 36.7961 148.067 37.1029 148.681Z" fill="#1996EE"/>
<path d="M88.1819 124.751C87.8751 124.138 87.5683 123.524 87.2615 122.911C87.7217 123.524 88.0285 124.138 88.1819 124.751Z" fill="#4263A8"/>
<path d="M19.7697 125.365C25.9053 123.064 31.7341 119.996 36.6426 116.928C36.029 118.002 35.5689 119.076 35.1087 120.149C35.1087 120.149 35.1087 120.149 35.1087 120.303C34.6485 121.377 34.3418 122.297 34.035 123.371C33.2681 123.831 32.6545 124.138 31.8875 124.598C30.507 125.365 29.1265 125.978 27.5927 126.745C27.1325 127.052 26.5189 127.206 26.0588 127.512C23.9113 128.433 21.7639 129.353 19.463 130.12C19.1562 130.273 18.8494 130.273 18.3893 130.273C17.6223 130.12 17.0087 129.66 16.7019 128.893C16.2418 127.819 16.8554 126.592 17.9291 126.132C18.6961 125.825 19.3096 125.518 19.7697 125.365Z" fill="#F376A2"/>
<path d="M84.6539 110.332C84.5005 110.792 84.1938 111.099 83.887 111.559C82.6599 113.4 81.2793 114.781 79.592 116.008C79.1318 116.468 78.5183 116.775 78.0581 117.082C77.4445 116.468 76.9844 115.701 76.9844 114.627C76.6777 110.946 80.0522 110.486 84.6539 110.332Z" fill="#1CD0C5"/>
<path d="M86.4945 105.884C86.6479 105.884 86.6479 105.884 86.8013 105.884C86.4945 106.804 86.1877 107.571 85.881 108.185C84.5005 108.338 83.1199 108.645 81.8928 108.798L79.4386 109.412L78.3648 109.719L76.9844 110.179C76.2174 110.332 75.4504 110.025 75.297 109.258C75.1436 108.491 75.4505 107.725 76.2174 107.571C76.2174 107.571 76.2174 107.571 76.3708 107.571L78.825 106.958L80.0522 106.651L81.2793 106.344C82.9666 106.191 84.6538 105.884 86.4945 105.884Z" fill="#1CD0C5"/>
<path d="M92.7836 90.0841L92.0166 91.4647C91.7098 91.9249 91.403 92.385 91.0962 92.8452L90.3293 94.0724C90.0225 94.5326 89.7157 94.8394 89.5623 95.2995C89.1021 96.0665 88.7954 96.6801 88.7954 97.4471C88.642 98.214 88.4886 98.981 88.3352 99.748C87.4149 100.362 86.648 100.668 86.1878 100.822C84.8073 101.129 83.12 101.282 81.2793 101.435C78.9784 101.589 76.5241 101.435 74.2233 101.282C73.9165 100.975 73.6098 100.668 73.303 100.362C72.9962 100.208 72.536 100.055 71.9224 99.9014C71.3089 99.9014 70.3885 99.9014 69.6216 99.9014C69.1614 99.9014 68.7012 99.9014 68.3945 100.055H68.0877C66.8605 99.748 65.7868 99.1344 65.3267 98.6742C65.6334 98.0606 65.9402 97.2937 66.4004 96.3733C67.014 95.2995 67.7809 94.0724 68.7013 92.5384L69.1614 91.7715C71.0021 91.3113 73.9165 90.3909 77.1377 89.3172C81.7394 87.7832 87.2615 86.0959 92.17 84.7153C92.3234 84.8687 92.4768 85.0221 92.7836 85.1755C93.3971 85.7891 94.0107 86.5561 93.8573 87.6298C93.3972 88.3968 93.0904 89.3172 92.7836 90.0841Z" fill="#1CD0C5"/>
<path d="M103.521 151.289C102.601 150.982 101.987 149.908 102.294 148.834C102.447 148.221 102.601 147.76 102.754 147.3L103.521 151.289Z" fill="#F376A2"/>
<path d="M8.87897 142.545C8.87897 142.698 8.57221 143.465 7.65186 144.693C7.65186 143.312 7.9586 141.931 8.57217 140.551C9.03235 141.164 9.18576 141.931 8.87897 142.545Z" fill="#4263A8"/>
<path d="M15.4749 37.0097C17.1622 39.6174 19.9232 45.5998 20.8435 57.7179C18.0825 63.7003 14.8614 63.0867 11.7936 61.246C11.18 60.7858 10.413 60.6324 9.79943 60.3256C9.33926 54.3432 8.26557 48.6676 6.57828 43.6056C6.42489 43.2988 6.42487 42.992 6.27148 42.6853C7.19182 40.0776 7.80542 37.4699 7.65203 35.7825C7.65203 35.6291 7.65203 35.6291 7.65203 35.4757C8.26559 34.8622 9.03254 34.402 9.95287 34.5554L12.2537 34.8622C13.6342 35.3223 14.8613 35.9359 15.4749 37.0097Z" fill="#4263A8"/>
<path d="M32.5011 37.0097C32.3477 38.8505 28.2061 41.6116 24.9849 47.4406C23.6044 41.3048 21.7638 35.6292 19.1561 31.0274C19.1561 31.0274 18.3892 26.8857 18.696 22.1305C19.9231 22.2839 20.9968 22.4373 22.0705 22.5907C23.9112 22.8975 25.4451 23.0509 26.8256 23.0509C27.2858 23.0509 27.7459 23.0509 28.2061 23.2043C28.8197 23.2043 29.2798 23.2043 29.74 23.2043C30.0468 24.8916 30.3536 26.7323 30.6604 28.5731C30.507 28.5731 30.5069 28.7264 30.5069 28.7264C30.3536 28.8798 30.3536 28.8798 30.2002 29.0332C30.2002 29.0332 30.0468 29.1866 30.0468 29.34C29.8934 29.4934 29.74 29.8002 29.74 29.9536V30.107V30.2604C29.74 30.5672 29.5866 30.7206 29.74 31.0274C29.74 31.4875 29.8934 31.9477 29.8934 32.2545C29.8934 32.5613 30.0468 32.7147 30.0468 32.8681C30.0468 33.0215 30.0469 33.0215 30.2002 33.1749V33.3283V33.4817C30.6604 34.2486 31.1205 34.7088 31.5807 35.169L31.7341 35.3224C31.8875 35.4758 32.0409 35.7826 32.1943 36.0894C32.1943 36.2428 32.3477 36.3962 32.3477 36.5496C32.501 36.8563 32.5011 36.8563 32.5011 37.0097Z" fill="#4263A8"/>
<path d="M56.1232 7.40462C55.9698 7.71141 55.8165 8.0182 55.6631 8.32499L55.3563 8.93856C55.2029 9.09196 55.2029 9.24535 55.0495 9.39875C53.5156 8.78517 51.9817 8.32499 50.4478 7.8648V7.71141C50.4478 7.09783 50.4478 6.48426 50.6012 5.71729C51.5215 5.87068 52.4418 6.17747 53.5156 6.48426C54.1291 6.63765 55.0495 6.94444 56.1232 7.40462Z" fill="#1996EE"/>
<path d="M39.2504 4.64355C40.0173 5.25713 40.9377 6.0241 41.858 6.63768C40.6309 6.63768 39.5572 6.79108 38.4834 6.79108C37.5631 6.1775 36.7961 5.56392 35.8758 5.10374C35.8758 5.10374 35.8758 5.10374 35.7224 5.10374C35.7224 5.10374 35.7224 5.10374 35.8758 5.10374C36.7961 4.95034 38.0233 4.79695 39.2504 4.64355Z" fill="#4263A8"/>
<path d="M76.831 31.0273L76.6776 31.1807C76.5243 31.3341 76.2174 31.3341 76.064 31.3341C75.7573 31.3341 75.4505 31.0273 75.2971 30.7205C74.8369 29.6468 74.2234 28.573 73.7632 27.4993C75.2971 28.8798 76.3708 30.107 76.831 31.0273Z" fill="#4263A8"/>
<path d="M79.4386 45.5998C78.5183 45.7532 77.7513 45.9066 76.8309 46.2134C73.4564 46.9804 70.3886 47.1338 67.6275 46.827C67.1674 45.9066 66.7072 45.1396 66.0936 44.9862C65.4801 44.6795 64.0996 44.9862 62.5657 45.4464C59.958 44.0659 58.7309 41.9184 59.8047 39.4641C60.1114 38.5437 60.725 37.9301 61.4919 37.4699C62.2589 37.0097 63.3326 36.703 64.4064 36.5496C72.5361 37.1631 80.9725 39.7708 81.8928 40.8446C82.353 41.3048 81.2793 43.2989 79.4386 45.5998Z" fill="#8D67C3"/>
<path d="M27.746 10.4725C27.8994 11.8531 28.2062 13.8472 28.6664 16.1481C28.3596 16.1481 27.8994 15.9947 27.5926 15.9947C27.1325 15.9947 26.8257 15.8413 26.3655 15.8413C26.0588 15.8413 25.5986 15.6879 25.2918 15.6879C24.8316 15.6879 24.5249 15.5345 24.0647 15.5345C22.8376 15.3811 21.6104 15.2277 20.3833 15.0743C21.3036 12.62 22.8376 10.6259 25.2918 9.24535C26.2121 8.63177 27.5926 9.24535 27.746 10.4725Z" fill="#1CD0C5"/>
<path d="M36.1824 7.25128C34.0349 7.55807 32.8078 8.01825 32.8078 8.01825C32.1942 8.17164 31.5807 7.86486 31.4274 7.40467C31.274 6.7911 31.5807 6.17752 32.0409 6.02413C32.1942 6.02413 33.5748 5.56394 35.7222 5.10376C35.7222 5.10376 35.7222 5.10376 35.8756 5.10376C36.029 5.87073 36.029 6.48431 36.1824 7.25128Z" fill="#1CD0C5"/>
<path d="M81.8926 40.6912C78.5181 41.9184 74.2232 42.532 69.0079 41.765C65.3266 41.3048 63.1791 39.6175 61.4918 37.3166C61.185 37.0098 61.0316 36.5496 60.7249 36.2428C61.952 36.2428 63.1791 36.2428 64.4062 36.3962C72.5359 37.0098 81.1257 39.6175 81.8926 40.6912Z" fill="#1CD0C5"/>
<path d="M33.575 42.0717C34.8021 47.5938 36.1826 52.6559 37.4097 56.6441C34.6487 60.1722 30.3538 66.1546 28.2063 64.6206C27.5927 64.1604 27.4394 63.5468 27.286 62.4731C27.286 62.3197 27.286 62.1663 27.286 62.1663C27.1326 60.479 27.4394 57.8713 27.8996 54.4966C28.2064 50.8151 30.3538 45.5997 33.575 42.0717Z" fill="#1CD0C5"/>
<path d="M45.6928 49.2812C42.4715 48.821 39.5571 47.9007 38.7902 46.3667C38.33 45.5997 41.2444 42.992 45.8461 40.5377C46.7665 41.9183 47.38 43.759 47.6868 45.1396C47.8402 46.6735 47.0733 48.054 45.6928 49.2812Z" fill="#1CD0C5"/>
<path d="M11.7935 66.0013C13.0206 67.2284 11.7934 69.3759 10.4129 71.6768C10.4129 69.3759 10.4129 67.2284 10.2595 64.9275C10.8731 65.2343 11.4867 65.5411 11.7935 66.0013Z" fill="#F376A2"/>
<path d="M19.463 88.5503C18.0825 86.8629 15.935 86.8629 15.0147 87.1697C13.174 87.7833 14.5545 91.4647 12.5605 91.9249C11.3334 92.2317 10.5664 91.6181 9.33923 91.0046C9.49262 89.1638 9.64599 87.3231 9.79938 85.329C9.95277 85.329 9.95279 85.329 10.1062 85.4824C13.7875 86.2493 16.0884 83.4883 18.5426 86.0959C19.3096 86.8629 19.7697 87.6299 20.0765 88.2435C20.2299 88.5503 19.7698 88.857 19.463 88.5503Z" fill="#F376A2"/>
<path d="M43.5452 73.3641C43.0851 73.3641 42.4715 73.3641 42.0113 73.3641C40.6308 73.2107 39.2503 72.7506 38.0232 71.8302C37.2563 71.2166 37.1029 70.1429 37.5631 69.3759C37.7164 69.2225 37.8698 69.0691 38.1766 68.9157L38.4834 68.7623C39.5571 68.1487 40.6308 67.8419 41.5512 67.5352C41.8579 68.4555 42.1647 69.5293 42.6249 70.4496C42.9317 71.2166 43.2384 72.2904 43.5452 73.3641Z" fill="#8D67C3"/>
<path d="M83.12 65.6944C82.6598 66.308 82.1997 66.7682 81.5861 67.2284C77.9048 64.6207 75.2971 61.3994 73.7632 58.9451C74.5301 58.7917 75.2971 58.6383 76.064 58.6383C77.5979 60.9392 79.8988 63.5469 83.12 65.6944Z" fill="#4263A8"/>
<path d="M92.0166 110.639C87.2615 114.934 82.6598 117.849 80.2055 118.462C79.7454 118.309 79.1318 118.002 78.6716 117.695C79.2852 116.468 82.6598 113.86 86.6479 110.179C86.6479 110.179 86.6479 110.179 86.8013 110.179C88.9488 110.179 90.6361 110.332 92.0166 110.639Z" fill="#8D67C3"/>
<path d="M95.6979 107.264C95.2377 107.725 94.7776 108.185 94.3174 108.645C94.164 108.645 94.0106 108.491 93.8573 108.491C93.5505 108.338 93.0902 108.338 92.63 108.185C92.1699 108.185 91.8631 108.031 91.4029 108.031C90.636 107.878 89.869 107.878 89.1021 107.878C89.7156 107.264 90.3292 106.651 90.9428 105.884C91.2496 105.884 91.4029 105.884 91.7097 106.037C92.1699 106.037 92.6301 106.191 93.0903 106.344C93.5505 106.497 94.0106 106.497 94.3174 106.651C94.6242 106.804 95.2377 107.111 95.6979 107.264Z" fill="#8D67C3"/>
<path d="M103.367 83.3348C103.674 84.2552 103.061 85.6357 101.68 87.4765C101.987 85.9425 102.294 84.4086 102.6 82.8746C103.061 82.8746 103.214 83.028 103.367 83.3348Z" fill="#8D67C3"/>
<path d="M99.686 143.005L98.1521 135.336C98.6123 134.875 99.0724 134.722 99.5325 134.722C100.913 134.875 100.453 138.864 99.686 143.005Z" fill="#1CD0C5"/>
<path d="M92.7834 171.843C94.0106 171.69 95.3911 171.536 96.6182 171.383C95.3911 172.15 94.1639 173.377 93.2436 172.61C93.0902 172.303 92.9368 172.15 92.7834 171.843Z" fill="#19B4EE"/>
<path d="M101.68 170.616C101.373 170.769 100.913 170.923 100.606 171.23C100.146 171.076 99.8393 170.923 99.3792 170.769C100.146 170.616 100.76 170.463 101.527 170.156C101.833 170.156 101.987 170.463 101.68 170.616Z" fill="#19B4EE"/>
<path d="M37.1029 148.681C34.6487 149.908 32.1944 151.288 30.2003 152.516C27.2859 154.51 25.2918 158.651 23.7579 162.486C23.1444 162.026 22.5308 161.719 21.9172 161.259C21.3037 160.799 20.6901 160.492 20.0765 160.032C21.7638 155.89 24.0647 151.442 27.746 148.988C30.0469 147.454 32.8079 146.073 35.4156 144.693C35.5689 145.306 35.8758 146.073 36.0292 146.687C36.4893 147.454 36.7961 148.067 37.1029 148.681Z" fill="#1996EE"/>
<path d="M88.1819 124.751C87.8751 124.138 87.5683 123.524 87.2615 122.911C87.7217 123.524 88.0285 124.138 88.1819 124.751Z" fill="#4263A8"/>
<path d="M19.7697 125.365C25.9053 122.91 31.7342 119.996 36.7961 116.621C36.7961 116.775 36.6426 116.775 36.6426 116.928C36.0291 118.002 35.5689 119.076 35.1087 120.149C35.1087 120.149 35.1087 120.149 35.1087 120.303C34.6486 121.377 34.3419 122.297 34.0351 123.371C33.2681 123.831 32.6545 124.138 31.8876 124.598C30.5071 125.365 29.1266 125.978 27.5927 126.745C27.1325 127.052 26.519 127.206 26.0588 127.512C23.9113 128.433 21.7639 129.353 19.463 130.12C19.1563 130.273 18.8495 130.273 18.3893 130.273C17.6223 130.12 17.0087 129.66 16.7019 128.893C16.2418 127.819 16.8554 126.592 17.9291 126.132C18.6961 125.825 19.3096 125.518 19.7697 125.365Z" fill="#F376A2"/>
<path d="M87.2614 184.115C87.108 184.728 86.9547 185.495 86.6479 186.109C80.5123 184.728 76.5241 183.041 76.0639 182.888C74.9902 182.427 74.53 181.2 74.9902 180.127C75.4504 179.053 76.6776 178.593 77.7513 179.053C77.7513 179.053 81.586 180.74 87.4149 181.967C87.5683 182.581 87.4148 183.348 87.2614 184.115Z" fill="#8D67C3"/>
<path d="M84.6539 110.332C84.5005 110.792 84.1938 111.099 83.887 111.559C82.6599 113.4 81.2793 114.781 79.592 116.008C79.1318 116.468 78.5183 116.775 78.0581 117.082C77.4445 116.468 76.9844 115.701 76.9844 114.627C76.6777 110.946 80.0522 110.486 84.6539 110.332Z" fill="#1CD0C5"/>
<path d="M86.4945 105.884C86.6479 105.884 86.6479 105.884 86.8013 105.884C86.4945 106.804 86.1877 107.571 85.881 108.185C84.5005 108.338 83.1199 108.645 81.8928 108.798L79.4386 109.412L78.3648 109.719L76.9844 110.179C76.2174 110.332 75.4504 110.025 75.297 109.258C75.1436 108.491 75.4505 107.725 76.2174 107.571C76.2174 107.571 76.2174 107.571 76.3708 107.571L78.825 106.958L80.0522 106.651L81.2793 106.344C82.9666 106.191 84.6538 105.884 86.4945 105.884Z" fill="#1CD0C5"/>
<path d="M92.7836 90.0841L92.0166 91.4647C91.7098 91.9249 91.403 92.385 91.0962 92.8452L90.3293 94.0724C90.0225 94.5326 89.7157 94.8394 89.5623 95.2995C89.1021 96.0665 88.7954 96.6801 88.7954 97.4471C88.642 98.214 88.4886 98.981 88.3352 99.748C87.4149 100.362 86.648 100.668 86.1878 100.822C84.8073 101.129 83.12 101.282 81.2793 101.435C78.9784 101.589 76.5241 101.435 74.2233 101.282C73.9165 100.975 73.6098 100.668 73.303 100.362C72.9962 100.208 72.536 100.055 71.9224 99.9014C71.3089 99.9014 70.3885 99.9014 69.6216 99.9014C69.1614 99.9014 68.7012 99.9014 68.3945 100.055H68.0877C66.8605 99.748 65.7868 99.1344 65.3267 98.6742C65.6334 98.0606 65.9402 97.2937 66.4004 96.3733C67.014 95.2995 67.7809 94.0724 68.7013 92.5384L69.1614 91.7715C71.0021 91.3113 73.9165 90.3909 77.1377 89.3172C81.7394 87.7832 87.2615 86.0959 92.17 84.7153C92.3234 84.8687 92.4768 85.0221 92.7836 85.1755C93.3971 85.7891 94.0107 86.5561 93.8573 87.6298C93.3972 88.3968 93.0904 89.3172 92.7836 90.0841Z" fill="#1CD0C5"/>
<path d="M103.521 151.289C102.601 150.982 101.987 149.908 102.294 148.834C102.447 148.221 102.601 147.76 102.754 147.3L103.521 151.289Z" fill="#F376A2"/>
<path d="M8.87897 142.545C8.87897 142.698 8.57221 143.465 7.65186 144.693C7.65186 143.312 7.9586 141.931 8.57217 140.551C9.03235 141.164 9.18576 141.931 8.87897 142.545Z" fill="#4263A8"/>
<path d="M17.9291 105.117C17.6223 106.651 17.4689 108.185 17.1621 109.872C17.1621 110.179 17.0087 110.486 17.0087 110.792C16.5485 113.093 14.7079 114.781 12.407 114.934L9.03244 115.087C7.49855 115.241 6.11812 113.707 6.4249 112.173C6.57829 111.559 6.73166 110.792 6.88505 109.872C7.19183 108.185 7.49857 106.191 7.80535 103.89C9.03246 104.196 10.2596 104.35 11.3333 104.503C13.3273 104.81 15.3214 104.963 16.5485 104.963C17.3155 104.963 17.7757 104.963 17.9291 105.117Z" fill="#8D67C3"/>
<path d="M45.846 82.4145C44.1587 88.0901 40.0173 96.3734 37.8698 95.7598C34.9554 94.8394 36.9494 86.8629 36.796 82.7213C36.6427 78.5796 28.0528 78.4262 29.1265 75.5117C30.2003 72.4439 39.5571 73.0574 44.1588 75.6651C44.9257 78.1194 45.3858 80.267 45.846 82.4145Z" fill="#1996EE"/>
<path d="M97.3851 77.5059C96.925 77.0457 96.3113 76.5855 95.6978 76.1253C95.6978 75.2049 95.5444 74.1312 95.5444 73.2108C96.3114 73.671 96.9249 74.2846 97.5385 74.7448C98.3054 75.3583 98.919 75.9719 99.5326 76.5855C100.76 77.6592 101.373 78.4262 101.527 78.5796C101.987 79.0398 101.833 79.6534 101.527 80.1136C101.22 80.267 100.913 80.4203 100.606 80.4203C100.3 80.4203 100.146 80.267 99.9928 80.1136C99.9928 80.1136 99.8393 79.9602 99.5326 79.6534C98.7656 79.0398 98.1521 78.2728 97.3851 77.5059Z" fill="#1996EE"/>
<path d="M101.987 82.7212C101.833 83.028 101.833 83.4882 101.68 83.795C101.22 85.1755 100.76 86.5561 100.146 87.9366C99.6859 89.0104 98.3054 89.4706 97.2317 89.0104C96.7715 88.857 96.3114 88.3968 96.158 87.9366C96.0046 87.7832 96.0045 87.4764 96.0045 87.323V87.1696C95.8512 85.9425 95.8512 84.8687 95.8512 83.795C96.158 83.6416 96.4647 83.6416 96.7715 83.6416C97.5385 83.4882 98.152 83.3348 98.7656 83.1814C100.146 82.7212 101.22 82.5678 101.987 82.7212Z" fill="#1996EE"/>
<path d="M93.0903 74.1311C93.0903 73.2108 93.0903 72.2904 93.0903 71.5234C93.8573 71.9836 94.6242 72.5972 95.2377 73.0574C95.3911 73.0574 95.3911 73.2108 95.5445 73.2108C96.3115 73.671 96.925 74.2845 97.5386 74.7447C97.5386 75.6651 97.5386 76.5854 97.5386 77.5058C97.0784 77.0456 96.4649 76.5854 95.8513 76.1253C95.6979 75.9719 95.5446 75.8185 95.3912 75.8185C94.6242 75.2049 93.8573 74.7447 93.0903 74.1311Z" fill="#1CD0C5"/>
<path d="M96.3115 87.7832C95.8513 90.2375 95.2377 92.5384 94.4708 94.8393C93.397 95.7597 92.3233 96.6801 91.2496 97.4471C90.1759 96.9869 89.5623 95.7597 90.0225 94.686C90.1759 94.3792 90.1758 94.0724 90.3292 93.7656C91.2495 90.8511 92.0166 87.9366 92.3234 84.8687L92.4767 84.2552C93.2437 84.1018 94.0106 83.795 94.6242 83.6416C95.0844 83.4882 95.3911 83.4882 95.8513 83.3348C96.1581 83.1814 96.4648 83.1814 96.7716 83.1814C96.7716 84.8687 96.4648 86.4027 96.3115 87.7832Z" fill="#1CD0C5"/>
</svg>
