<svg width="125" height="182" viewBox="0 0 125 182" fill="none" xmlns="http://www.w3.org/2000/svg">
<path d="M123.866 98.096C124.479 96.5621 124.479 94.8747 123.712 93.3408C119.264 82.4498 117.27 73.2461 116.503 68.6443C116.35 67.8773 116.196 67.2638 115.736 66.6502C115.889 66.19 115.889 65.8832 115.889 65.423V63.4289C116.043 62.3551 116.043 61.4348 115.889 60.361C115.889 58.8271 115.736 57.1397 115.583 55.7592L115.122 51.004L114.816 48.5497L114.356 46.2487C114.202 45.175 113.742 44.2546 112.975 43.641C114.356 40.113 113.895 35.6645 113.589 33.9772C112.208 24.6202 106.839 17.4106 99.1699 14.6495C89.0462 10.9681 79.0758 9.12733 68.4919 8.82054C69.1054 8.05357 69.5656 6.97981 69.5656 5.75266V3.91193L68.3385 2.68477C67.8783 2.22459 66.6512 0.997437 64.6571 0.997437C59.5952 0.997437 54.9935 1.15083 50.852 1.61101H50.5452C50.2385 1.61101 49.9317 1.76441 49.4715 1.76441C49.0113 1.76441 48.5511 1.9178 47.9376 1.9178C47.6308 1.9178 47.324 2.07119 47.1706 2.07119H46.7105L45.7901 2.37798H45.4833L43.4893 2.68477L41.1884 3.14496C40.8816 3.14496 40.5748 3.29835 40.2681 3.29835C39.9613 3.45174 39.5011 3.45174 39.1943 3.60514L36.8935 4.21872L36.7401 4.37211C36.5867 4.37211 36.2799 4.5255 35.9732 4.6789L35.513 4.83229C35.513 4.83229 35.513 4.83229 35.3596 4.83229L34.746 4.98569C33.3655 5.29248 32.1384 5.90605 31.0647 6.36624C27.9968 7.59339 25.2358 8.97394 22.935 10.6613C20.6341 12.1952 18.1799 14.1893 15.879 16.6437L14.9587 17.564L14.8053 17.8708L14.6519 18.0242C14.3451 18.331 14.0384 18.6378 13.7316 19.098C12.5045 20.6319 11.1239 22.4726 9.89682 24.7735C9.12987 26.3075 8.51629 27.688 8.05612 29.0686C7.59595 29.989 7.44256 30.9093 7.28917 31.6763C7.13578 32.2899 6.98237 32.75 6.98237 33.2102L6.82901 33.517V35.2044C6.82901 38.579 9.28323 41.1867 12.5044 41.1867C12.6578 42.7207 12.9646 44.1012 13.7316 45.4818H13.5782C12.9646 45.4818 12.351 45.6352 11.7375 45.7886C11.1239 45.942 10.5104 46.2487 9.89682 46.7089C8.36292 47.7827 7.44257 49.7768 7.44257 51.6175C7.44257 52.0777 7.44257 52.6913 7.44257 53.4583C7.44257 54.3786 7.59596 55.4524 7.59596 56.833C7.59596 58.3669 7.59596 59.7474 7.44257 61.4348V61.5882C7.28918 64.6561 7.13576 68.7977 6.21542 73.0927L5.90866 73.3995V74.9335C5.90866 75.0869 5.75526 75.3937 5.75526 75.7005C5.60187 76.314 5.4485 77.081 5.29511 77.6946C4.83494 79.5353 4.52814 81.0692 4.22136 82.4498V82.6032C3.91458 83.677 3.76119 84.7507 3.45441 85.6711C3.14763 86.8982 2.84085 88.1254 2.68746 89.1991V89.5059C2.53407 90.4263 2.3807 91.5001 2.22731 92.4204C0.693404 103.772 -0.993926 119.111 0.846757 125.707L5.44846 141.813C5.44846 142.12 6.21542 144.421 7.90272 147.949C12.8112 158.227 25.0824 176.174 50.852 180.622C54.2266 181.236 57.7545 181.696 61.5893 181.696H63.2766C65.5775 181.696 67.7249 181.542 69.719 181.389L74.0139 180.929C79.8428 180.009 85.6716 178.321 91.347 175.714C93.4945 174.64 95.6419 173.413 97.636 172.185C114.356 161.141 120.338 144.114 120.951 142.12C124.939 133.99 123.712 113.589 121.105 101.317C122.485 100.244 123.406 99.3232 123.866 98.096Z" fill="white"/>
<path d="M97.7894 18.7912C86.7453 14.8029 76.4681 13.269 66.9579 13.1156C66.8046 13.1156 66.8046 13.1156 66.6512 13.1156C66.0376 13.1156 65.424 13.1156 64.6571 13.1156C64.1969 13.1156 63.7368 13.1156 63.43 13.1156C62.3563 13.1156 61.2825 13.1156 60.2088 13.1156C58.6749 13.1156 57.141 13.269 55.4537 13.269C55.1469 13.269 54.6868 13.269 54.38 13.4224C50.3918 13.7292 46.2503 14.3427 41.9554 15.2631C38.8876 15.8767 35.8197 16.6437 32.5985 17.7174C31.3714 18.0242 30.2977 18.4844 29.0706 18.9446C29.0706 18.9446 28.9172 18.9446 28.9172 19.098C28.3036 19.2514 27.8435 19.5581 27.2299 19.8649C16.4926 25.3871 15.5722 41.6469 18.4866 43.9478C20.7875 45.7886 20.4807 45.4818 25.3892 44.8682C26.4629 44.7148 27.69 44.5614 29.2239 44.408C30.2977 44.2546 31.5248 44.2546 32.9053 44.1012C33.8257 44.1012 34.746 43.9478 35.6664 43.9478C39.1943 43.7944 41.4952 43.0275 42.8757 42.1071C43.4893 41.8003 43.796 41.3401 44.2562 40.8799C44.4096 40.7266 44.4096 40.7266 44.563 40.5732C44.563 40.5732 44.563 40.5732 44.563 40.4198C45.7901 38.579 47.4774 40.5732 49.0113 42.5673C49.3181 43.0275 49.6249 43.4877 49.7783 43.9478C50.085 44.408 50.852 44.1012 50.6986 43.6411C50.6986 43.3343 50.5452 42.8741 50.3918 42.5673C49.7783 40.4198 48.3978 37.9655 47.4774 35.8179C47.1706 35.051 46.8638 34.4374 46.5571 33.8238C46.2503 33.2102 46.0969 32.5967 46.0969 32.1365C46.0969 31.9831 46.0969 31.8297 46.0969 31.6763C46.0969 29.8356 47.1706 28.7618 48.7045 27.8414C48.8579 27.688 49.0113 27.688 49.1647 27.5347C49.4715 27.3813 49.6248 27.2279 49.9316 27.0745C50.2384 26.9211 50.6986 26.6143 51.0054 26.4609C52.2325 25.8473 53.613 25.2337 54.6867 24.7736C55.1469 24.6202 55.4537 24.4668 55.7605 24.3134C58.9817 23.2396 61.4359 23.0862 62.5096 23.0862C62.8164 23.0862 63.1232 23.0862 63.1232 23.0862C63.1232 23.0862 63.7368 23.0862 64.8105 23.0862C65.7308 23.0862 66.9579 23.2396 68.4918 23.6998C68.952 23.8532 69.5656 24.0066 70.1791 24.16C72.1732 24.7736 74.6275 25.6939 77.0817 27.2279C79.3826 28.7618 80.4563 31.6763 79.6894 34.284C78.769 37.3519 77.6953 38.8858 76.9283 40.4198C76.4681 41.3401 76.008 42.2605 75.8546 43.4877C75.7012 44.1012 76.4681 44.408 76.7749 43.7944C77.2351 43.0275 77.6952 42.2605 78.3088 41.4935C79.3825 39.9596 80.7631 38.8858 81.6834 39.8062C82.7571 41.9537 85.2114 43.4877 90.7334 43.7944C106.686 44.5614 104.539 46.4021 107.913 43.7944C111.441 41.1867 110.214 23.2396 97.7894 18.7912ZM85.2114 60.361C85.058 60.0542 84.9046 59.9008 84.7512 59.5941C84.1377 58.8271 83.5241 58.0601 82.9105 57.2931C82.4503 56.833 81.9902 56.3728 81.53 55.9126C79.6893 54.0719 77.5419 52.5379 75.8546 51.3108C73.5538 49.7768 70.6393 49.7768 68.3384 51.1574C67.4181 51.6175 66.3444 52.0777 65.1173 52.2311C64.6571 52.2311 64.1969 52.3845 63.7367 52.3845C63.5834 52.3845 63.2766 52.3845 63.1232 52.3845C61.5893 52.2311 60.2088 51.7709 59.2884 51.1574C57.7545 50.237 56.0672 49.9302 54.5333 50.237C53.7664 50.3904 52.9994 50.5438 52.3859 51.004C52.2325 51.004 52.2325 51.1574 52.0791 51.1574C51.9257 51.1574 51.9257 51.3108 51.7723 51.3108C51.3122 51.6176 50.852 51.9243 50.2384 52.3845C49.7783 52.8447 49.1647 53.1515 48.5511 53.6117C48.0909 53.9185 47.7842 54.3786 47.324 54.6854C46.8638 55.1456 46.4037 55.6058 45.7901 56.066C45.4833 56.2194 45.3299 56.5262 45.0232 56.6796C41.3418 60.361 38.5808 64.9628 40.1147 69.8715C40.1147 70.0249 40.2681 70.1783 40.2681 70.3317C41.035 72.1724 42.8757 73.7063 45.6367 74.7801C49.1647 76.1606 54.2266 76.9276 59.5952 77.2344C60.5156 77.2344 61.4359 77.3878 62.5096 77.3878C62.9698 77.3878 63.43 77.3878 63.7367 77.3878C67.2647 77.2344 70.6393 77.081 73.7071 76.6208C73.8605 76.6208 74.0139 76.6208 74.3207 76.4674C80.9165 75.5471 85.9783 73.5529 87.2055 70.1783C88.1258 66.8036 87.2054 63.4289 85.2114 60.361ZM90.8868 87.3584C88.7394 85.8245 86.2851 84.5973 83.8309 83.5236C83.5241 83.3702 83.2173 83.2168 82.9105 83.2168C81.8368 82.7566 80.7631 82.4498 79.6894 82.143L78.1555 81.6828C77.6953 81.5294 77.0817 81.376 76.6216 81.2226C76.1614 81.0692 75.5478 80.9158 75.0877 80.9158L73.5538 80.6091C72.7868 80.4557 72.0198 80.3023 71.2529 80.3023C70.9461 80.3023 70.7927 80.3023 70.4859 80.1489C70.3326 80.1489 70.0257 80.1489 69.8723 80.1489C69.5656 80.1489 69.2588 80.1489 68.952 79.9955L67.4181 79.8421C65.2707 79.6887 63.2766 79.8421 61.1291 79.9955C61.1291 79.9955 61.1291 79.9955 60.9757 79.9955C59.2884 80.1489 57.7545 80.3023 56.2206 80.6091C55.7605 80.7625 55.3003 80.7625 54.9935 80.9158C52.9995 81.376 51.0054 81.8362 49.0113 82.6032C48.091 82.91 47.0172 83.3702 46.0969 83.8303C45.6367 83.9837 45.1765 84.2905 44.7164 84.5973C44.2562 84.9041 43.796 85.0575 43.3359 85.3643C43.0291 85.5177 43.0291 85.8245 43.0291 86.1313C43.1825 86.438 43.4892 86.7448 43.796 86.7448C45.7901 86.2847 47.7842 85.9779 49.7783 85.6711C51.4656 85.3643 53.1528 85.2109 54.8401 85.0575C54.9935 85.0575 55.3003 85.0575 55.4537 85.0575C57.4478 84.9041 59.2885 84.7507 61.2825 84.7507C62.9698 84.7507 64.6571 84.7507 66.3444 84.7507C66.6512 84.7507 66.8046 84.7507 67.1113 84.7507C67.7249 84.7507 68.3385 84.7507 68.952 84.7507C70.3326 84.9041 71.5596 84.9041 72.9402 85.0575C74.9342 85.2109 76.7749 85.5177 78.769 85.8245C79.2292 85.8245 79.5359 85.9779 79.9961 85.9779C80.3029 85.9779 80.7631 86.1313 81.0699 86.1313C84.1377 86.7448 87.2055 87.5118 90.2733 88.4322C90.5801 88.4322 90.7334 88.4322 90.8868 88.1254C91.1936 87.8186 91.1936 87.5118 90.8868 87.3584ZM110.981 125.707C110.828 125.707 110.674 125.707 110.521 125.707C110.367 125.707 110.214 125.86 109.907 125.86C109.294 126.014 108.68 126.167 108.067 126.321C106.839 126.627 105.305 126.934 103.772 127.241C99.7834 128.008 94.7216 128.468 89.3529 128.468C87.5122 128.468 85.825 128.468 84.2911 128.315C83.8309 128.315 83.3707 128.161 83.0639 128.161C82.1436 128.008 81.3766 128.008 80.6097 127.855C78.1554 127.394 76.1614 126.934 74.3207 126.474C70.9461 125.554 67.8783 124.633 63.5834 124.633C62.2029 124.633 60.9758 124.787 59.7486 124.94C58.2147 125.093 56.8342 125.4 55.6071 125.86C54.5333 126.167 53.4596 126.474 52.3859 126.781C51.6189 126.934 50.852 127.241 49.9316 127.394C49.9316 127.394 49.9317 127.394 49.7783 127.394C49.4715 127.394 49.1647 127.548 48.8579 127.548C46.4037 128.008 43.6426 128.468 39.9613 128.621C39.6545 128.621 39.3477 128.621 39.041 128.621C38.5808 128.621 38.1206 128.621 37.6604 128.621C28.3036 128.621 20.3273 126.934 16.1858 125.707C15.2654 125.4 14.4985 126.627 15.1121 127.394C20.4807 133.683 26.4629 139.052 32.4451 143.347C32.7519 143.501 32.9053 143.654 33.2121 143.807C34.4392 144.728 35.6663 145.648 37.0469 146.415C38.1206 147.182 39.1943 147.796 40.2681 148.409C46.7104 152.398 52.5393 155.159 56.8342 156.999C58.2147 157.613 59.7486 158.073 61.2825 158.227C62.9698 158.533 64.6571 158.533 66.3444 158.227C66.8046 158.227 67.1113 158.073 67.5715 158.073C67.8783 158.073 68.1851 157.92 68.3384 157.92C69.1054 157.766 70.0257 157.46 70.7927 157.153C73.4003 156.079 76.4681 154.545 79.9961 152.704C81.9902 151.631 83.9843 150.557 86.1317 149.176C87.5122 148.409 88.8928 147.489 90.4267 146.569C91.0402 146.262 91.5004 145.802 92.1139 145.495C92.8809 145.035 93.4945 144.574 94.2614 143.961C95.0284 143.501 95.6419 142.887 96.4089 142.427C99.4767 140.126 102.391 137.672 105.305 134.911C106.226 133.99 107.146 133.223 107.913 132.303C108.833 131.383 109.754 130.309 110.674 129.235C110.981 128.928 111.134 128.621 111.441 128.315C111.594 128.161 111.748 128.008 111.901 127.855C112.361 126.781 111.748 125.86 110.981 125.707ZM15.7256 59.4407C15.5722 56.833 15.5722 54.0719 15.5722 51.3108C15.5722 50.0836 14.3451 49.1632 13.2714 49.6234C13.118 49.6234 12.9646 49.7768 12.9646 49.7768C12.5044 50.0836 12.1977 50.6972 12.1977 51.3108C12.1977 52.3845 12.351 54.2253 12.351 56.5262C12.351 58.0601 12.3511 59.594 12.1977 61.4348C12.0443 65.2696 11.7375 69.7181 10.8171 74.3199C10.8171 74.4733 10.8172 74.7801 10.6638 74.9335C10.6638 75.2403 10.5104 75.5471 10.5104 76.0072C9.89681 78.7683 9.43663 81.2226 8.82307 83.3702C8.2095 85.9779 7.74933 88.1254 7.28916 89.9661C6.6756 93.1874 6.6756 95.4883 8.05611 96.8689C9.59002 98.5562 11.7375 99.3232 13.2714 99.7833C13.7315 99.9367 14.1917 99.9367 14.6519 99.63C15.2654 99.3232 15.7256 98.7096 15.7256 98.096C16.0324 95.7951 16.3392 92.1136 16.646 88.1254C16.7994 85.3643 16.9527 82.6032 16.9527 79.9955C17.1061 74.3199 16.0324 67.2638 15.7256 59.4407ZM119.724 95.0281C115.583 85.0575 113.282 75.7004 112.208 69.2579C112.055 68.1841 110.521 68.3375 110.521 69.4113C110.061 82.143 110.521 93.3408 110.828 97.7892C110.981 99.0164 112.055 99.7834 113.128 99.4766C115.276 99.0164 117.423 98.096 118.804 97.329C119.724 97.0223 120.184 95.9485 119.724 95.0281ZM66.4978 157.613C66.191 157.46 66.0376 157.306 65.8842 157.306C65.8842 157.46 65.8842 157.613 65.8842 157.613V157.766C65.8842 157.92 65.8842 157.92 65.8842 158.073C66.3444 158.073 66.6512 157.92 67.1113 157.92C66.958 157.766 66.8046 157.766 66.4978 157.613ZM66.4978 157.613C66.191 157.46 66.0376 157.306 65.8842 157.306C65.8842 157.46 65.8842 157.613 65.8842 157.613V157.766C65.8842 157.92 65.8842 157.92 65.8842 158.073C66.3444 158.073 66.6512 157.92 67.1113 157.92C66.958 157.766 66.8046 157.766 66.4978 157.613ZM66.4978 157.613C66.191 157.46 66.0376 157.306 65.8842 157.306C65.8842 157.46 65.8842 157.613 65.8842 157.613V157.766C65.8842 157.92 65.8842 157.92 65.8842 158.073C66.3444 158.073 66.6512 157.92 67.1113 157.92C66.958 157.766 66.8046 157.766 66.4978 157.613ZM66.4978 157.613C66.191 157.46 66.0376 157.306 65.8842 157.306C65.8842 157.46 65.8842 157.613 65.8842 157.613V157.766C65.8842 157.92 65.8842 157.92 65.8842 158.073C66.3444 158.073 66.6512 157.92 67.1113 157.92C66.958 157.766 66.8046 157.766 66.4978 157.613ZM66.4978 157.613C66.191 157.46 66.0376 157.306 65.8842 157.306C65.8842 157.46 65.8842 157.613 65.8842 157.613V157.766C65.8842 157.92 65.8842 157.92 65.8842 158.073C66.3444 158.073 66.6512 157.92 67.1113 157.92C66.958 157.766 66.8046 157.766 66.4978 157.613ZM86.1317 160.067C85.8249 160.221 85.6715 160.221 85.3648 160.374C83.8309 160.834 82.297 161.448 80.7631 161.908C80.6097 161.908 80.4563 162.061 80.3029 162.061C79.2292 162.368 78.1554 162.675 77.0817 162.828C76.6215 162.982 76.1614 162.982 75.8546 163.135C73.4004 163.595 71.0995 164.056 68.6452 164.209C68.3385 164.209 68.0317 164.209 67.7249 164.362C66.3444 164.516 65.1173 164.516 63.7367 164.516C63.43 164.516 63.1232 164.516 62.8164 164.516C59.1351 164.516 55.3003 164.056 51.6189 163.289C51.1588 163.135 50.6986 163.135 50.3918 162.982C43.0291 161.294 35.9731 158.533 29.5307 155.005C26.1562 153.165 23.0883 151.17 20.1739 149.176C18.1799 147.642 16.1858 146.108 14.4985 144.574C12.8112 143.194 11.4307 141.66 10.0502 140.279C10.0502 140.279 10.6638 142.427 12.1977 145.648C16.4926 154.545 27.6901 171.725 52.0791 176.02C55.1469 176.634 58.3681 176.941 61.8961 176.941C62.5096 176.941 62.9698 176.941 63.5834 176.941C65.7309 176.941 67.7249 176.787 69.719 176.634C71.0995 176.48 72.3266 176.327 73.7071 176.174C79.8427 175.253 85.2114 173.413 89.8131 171.265C91.8071 170.345 93.8012 169.118 95.4885 168.044C111.748 157.306 116.963 140.74 117.117 140.279C109.907 147.642 98.7097 155.465 86.1317 160.067ZM66.4978 157.613C66.191 157.46 66.0376 157.306 65.8842 157.306C65.8842 157.46 65.8842 157.613 65.8842 157.613V157.766C65.8842 157.92 65.8842 157.92 65.8842 158.073C66.3444 158.073 66.6512 157.92 67.1113 157.92C66.958 157.766 66.8046 157.766 66.4978 157.613ZM66.4978 157.613C66.191 157.46 66.0376 157.306 65.8842 157.306C65.8842 157.46 65.8842 157.613 65.8842 157.613V157.766C65.8842 157.92 65.8842 157.92 65.8842 158.073C66.3444 158.073 66.6512 157.92 67.1113 157.92C66.958 157.766 66.8046 157.766 66.4978 157.613ZM66.4978 157.613C66.191 157.46 66.0376 157.306 65.8842 157.306C65.8842 157.46 65.8842 157.613 65.8842 157.613V157.766C65.8842 157.92 65.8842 157.92 65.8842 158.073C66.3444 158.073 66.6512 157.92 67.1113 157.92C66.958 157.766 66.8046 157.766 66.4978 157.613ZM66.4978 157.613C66.191 157.46 66.0376 157.306 65.8842 157.306C65.8842 157.46 65.8842 157.613 65.8842 157.613V157.766C65.8842 157.92 65.8842 157.92 65.8842 158.073C66.3444 158.073 66.6512 157.92 67.1113 157.92C66.958 157.766 66.8046 157.766 66.4978 157.613ZM66.4978 157.613C66.191 157.46 66.0376 157.306 65.8842 157.306C65.8842 157.46 65.8842 157.613 65.8842 157.613V157.766C65.8842 157.92 65.8842 157.92 65.8842 158.073C66.3444 158.073 66.6512 157.92 67.1113 157.92C66.958 157.766 66.8046 157.766 66.4978 157.613ZM64.6571 5.29248C60.2088 5.29248 55.7605 5.44587 51.3122 5.90606C50.3918 6.05945 49.4715 6.05945 48.5511 6.21285C48.2443 6.21285 47.9376 6.36624 47.4774 6.36624L47.0172 6.51964L46.4037 6.67303L44.4096 6.97982L42.4155 7.44C41.802 7.59339 41.035 7.74679 40.4215 7.90018L38.5808 8.36037C38.274 8.51376 37.9672 8.51376 37.6604 8.66716L36.7401 8.97394C36.5867 8.97394 36.2799 9.12734 36.1265 9.12734C35.0528 9.43413 33.9791 9.89431 32.9053 10.3545C30.2977 11.4283 27.8434 12.6554 25.5426 14.1893C23.2417 15.7233 21.0943 17.564 19.1002 19.5581C18.9468 19.7115 18.64 20.0183 18.4866 20.1717C18.1798 20.6319 17.7197 20.9387 17.4129 21.3989C16.1858 22.9328 14.9587 24.6202 14.0383 26.4609C13.4248 27.688 12.8112 29.0686 12.351 30.4491C12.0442 31.0627 11.8909 31.8297 11.7375 32.5967C11.5841 32.9035 11.5841 33.3636 11.5841 33.6704C11.5841 33.8238 11.5841 33.9772 11.4307 34.284C11.4307 34.4374 11.4307 34.4374 11.4307 34.5908C11.4307 34.7442 11.4307 34.7442 11.4307 34.8976C11.4307 35.8179 12.0443 36.5849 12.9646 36.5849C13.885 36.5849 14.6519 35.9713 14.6519 35.051V34.8976V34.7442C14.6519 34.5908 14.6519 34.4374 14.6519 34.284C14.6519 33.9772 14.8053 33.6704 14.8053 33.3636C14.9587 32.7501 15.1121 32.1365 15.2655 31.5229C15.5723 30.2957 16.0324 29.0686 16.646 27.9948C17.7197 25.6939 19.1002 23.5464 20.7875 21.5523C22.4748 19.5581 24.4689 17.8708 26.6163 16.3369C27.6901 15.5699 28.7638 14.9563 29.8375 14.3427C30.7579 13.8826 31.6782 13.269 32.5985 12.8088C32.9053 12.6554 33.2121 12.502 33.5189 12.3486C33.6723 12.3486 33.6723 12.1952 33.8257 12.1952C36.1265 11.1215 38.4274 10.3545 40.8816 9.58752C43.0291 8.97394 45.1766 8.36037 47.324 8.05358C47.7842 7.90018 48.2443 7.90018 48.7045 7.74679C49.0113 7.74679 49.1647 7.59339 49.4715 7.59339C49.6249 7.59339 49.9316 7.44 50.085 7.44C50.6986 7.28661 51.4656 7.28661 52.0791 7.13321C56.2207 6.51964 60.5156 6.21285 64.8105 6.21285C65.1173 6.21285 65.2706 6.05945 65.2706 5.75267C65.1173 5.59927 64.8105 5.29248 64.6571 5.29248ZM111.594 60.8212C111.594 59.2873 111.441 57.7533 111.288 56.2194C111.134 54.6854 110.981 53.1515 110.828 51.6175L110.521 49.3166C110.367 48.5497 110.214 47.7827 110.061 47.0157C110.061 46.8623 109.907 46.7089 109.754 46.7089C109.6 46.7089 109.447 46.8623 109.447 47.0157L110.061 56.2194L110.367 60.8212L110.674 65.423C110.674 65.7298 110.981 65.8832 111.134 65.8832C111.441 65.8832 111.594 65.7298 111.594 65.423C111.594 64.6561 111.594 63.8891 111.594 63.1221C111.748 62.3551 111.748 61.5882 111.594 60.8212ZM94.5682 93.6476C91.347 91.6535 86.4385 89.1991 79.0758 87.972C78.769 87.972 78.3088 87.8186 78.0021 87.8186C76.9283 87.6652 75.8546 87.5118 74.6275 87.3584C73.8605 87.205 73.0935 87.205 72.1732 87.205C70.6393 87.0516 68.7986 87.0516 67.1113 87.0516C61.8961 87.0516 57.141 87.5118 53.3062 88.1254C52.3859 88.2788 51.6189 88.4322 50.852 88.5856C47.4774 89.3525 44.7164 90.1195 42.2621 91.0399C40.268 91.8069 38.5808 92.5738 37.3537 93.1874C35.6664 94.1078 35.8197 96.5621 37.6604 97.1757C45.4833 99.9367 53.3062 101.317 60.5156 101.777C62.663 101.931 64.6571 101.931 66.6512 102.084C77.8487 102.238 87.2055 100.55 93.0343 99.0164C93.3411 99.0164 93.6478 98.863 93.9546 98.863C96.1021 98.096 96.5623 95.0281 94.5682 93.6476Z" fill="#1E1C31"/>
<path d="M70.4859 80.1488C70.7927 80.1488 70.9461 80.1488 71.2529 80.3022C69.719 81.5294 67.4181 82.9099 64.1969 83.9837H64.0435C63.8901 83.9837 63.7368 83.8303 63.5834 83.6769C63.43 83.3701 63.5833 83.2167 63.8901 83.0633C66.3444 82.2963 68.3384 81.2226 69.8723 80.1488C70.0257 80.1488 70.1792 80.1488 70.4859 80.1488Z" fill="#F376A2"/>
<path d="M74.0139 76.6208C73.8606 76.6208 73.7072 76.6208 73.4004 76.7742C73.5538 76.4674 73.8606 76.4674 74.0139 76.6208Z" fill="#F376A2"/>
<path d="M47.6306 35.3578C46.5569 36.5849 43.6425 37.5053 40.1145 37.1985C35.206 36.8917 32.2916 32.2899 33.6721 31.5229C35.3594 30.6025 35.3594 33.517 39.6543 34.4374C42.7222 35.051 45.3298 33.517 46.8637 33.3636C47.0171 33.9772 47.3238 34.5908 47.6306 35.3578Z" fill="#8D67C3"/>
<path d="M70.4858 23.8532C69.8723 23.6998 69.4121 23.5464 68.7985 23.393C68.0316 22.3192 66.8044 21.3989 65.2706 20.4785C62.6629 18.9446 58.5214 20.6319 56.8341 21.0921C55.9138 21.3989 55.9138 22.626 56.0672 23.8532C55.7604 24.0066 55.3002 24.16 54.9935 24.3134C53.613 22.7794 53.6129 22.1658 53.9197 20.9387C54.2265 19.4047 58.2146 19.2513 58.368 18.1776C58.5214 17.1038 56.2206 16.3369 56.0672 15.4165C55.9138 14.4961 59.2884 14.8029 62.8164 14.9563C66.1909 15.1097 69.5655 19.2513 70.4858 23.393C70.4858 23.5464 70.4858 23.6998 70.4858 23.8532Z" fill="#1CD0C5"/>
<path d="M55.6071 56.3728C55.4537 57.1398 55.3003 57.9067 54.2266 57.9067C53.1528 57.9067 51.3121 56.3728 50.3918 56.6796C49.9316 56.833 48.3977 55.9126 46.8638 54.6854C47.3239 54.3787 47.6308 53.9185 48.0909 53.6117C48.3977 53.9185 48.7045 54.0719 49.0113 54.2253C51.3121 55.1456 55.7605 55.4524 55.6071 56.3728Z" fill="#1996EE"/>
<path d="M48.8578 58.6736C48.7044 59.4406 52.6926 61.5882 53.3061 60.361C54.0731 58.9804 49.1646 57.5999 48.8578 58.6736Z" fill="#19B4EE"/>
<path d="M56.5273 58.2136C57.1409 58.6737 57.9078 59.1339 58.5214 59.5941C59.2883 60.0543 59.9019 60.3611 60.6688 60.6679C61.4358 60.9747 62.2027 61.2814 62.9697 61.5882C63.7366 61.895 64.5036 62.0484 65.2705 62.2018C65.5773 62.2018 65.8841 62.662 65.8841 62.9688C65.8841 63.2756 65.424 63.5824 65.1172 63.5824C64.3502 63.429 63.4299 63.1222 62.6629 62.8154C61.896 62.5086 61.129 62.2018 60.3621 61.7416C59.5951 61.4348 58.8282 60.9747 58.2146 60.5145C57.4477 60.0543 56.8341 59.5941 56.2205 58.9805C56.0671 58.8271 56.0671 58.5203 56.2205 58.367C56.0671 58.2136 56.3739 58.0602 56.5273 58.2136Z" fill="#1CD0C5"/>
<path d="M60.0554 54.5321C61.4359 55.4524 62.8165 56.2194 64.197 57.1398C64.9639 57.5999 65.5775 58.0601 66.3444 58.3669C66.6512 58.5203 67.1114 58.8271 67.4182 58.9805C67.5716 59.1339 67.7249 59.1339 67.8783 59.2873C68.0317 59.4407 68.1851 59.4407 68.3385 59.5941C68.7987 59.7475 68.9521 60.2076 68.7987 60.6678C68.6453 61.128 68.1851 61.2814 67.7249 61.128C67.5715 60.9746 67.2648 60.9746 67.1114 60.8212C66.958 60.6678 66.8046 60.6678 66.4978 60.5144C66.1911 60.361 65.7309 60.0542 65.4241 59.9009C64.6571 59.4407 64.0436 59.1339 63.2766 58.6737C61.8961 57.7533 60.5156 56.9864 58.9817 56.066C58.6749 55.7592 58.5215 55.299 58.6749 54.9922C59.1351 54.3787 59.5953 54.2253 60.0554 54.5321Z" fill="#F376A2"/>
<path d="M69.1054 57.4465C68.7986 57.7533 68.3384 57.7533 68.1851 57.4465L63.1232 52.5379L62.9698 52.3845C62.8164 52.0777 62.8164 51.7709 63.1232 51.6175C63.4299 51.3108 63.8901 51.3108 64.1969 51.6175L64.9639 52.3845L69.2588 56.5262C69.2588 56.6796 69.2587 57.1397 69.1054 57.4465Z" fill="#8D67C3"/>
<path d="M57.4477 63.5823C54.6867 63.5823 52.6926 62.9687 52.5392 62.9687C52.2324 62.9687 52.2324 62.6619 52.2324 62.3551C52.2324 62.0483 52.5392 62.0483 52.846 62.0483C52.846 62.0483 55.1469 62.6619 58.0613 62.6619C58.3681 62.6619 58.5214 62.8153 58.5214 63.1221C58.5214 63.4289 58.3681 63.5823 58.0613 63.5823C57.9079 63.5823 57.6011 63.5823 57.4477 63.5823Z" fill="#4263A8"/>
<path d="M75.2409 74.7801L73.2469 72.6326C73.0935 72.4792 73.0935 72.1724 73.2469 72.019C73.4003 71.8656 73.707 71.8656 73.8604 72.019L76.0079 74.0131C76.3147 74.3199 76.3147 74.6267 76.0079 74.9335C75.8545 74.9335 75.5477 74.9335 75.2409 74.7801Z" fill="#8D67C3"/>
<path d="M77.6952 72.019C77.0817 71.5588 76.3148 71.252 75.7012 70.7919C75.3944 70.4851 74.9342 70.3317 74.6274 70.0249C74.3207 69.7181 74.1673 69.4113 73.8605 68.9511C73.5537 68.6443 73.4003 68.1842 73.0935 67.8774C72.9401 67.5706 72.6334 67.1104 72.48 66.6502C72.48 66.4968 72.48 66.4968 72.6334 66.4968H72.7868C73.247 66.6502 73.5537 66.957 73.8605 67.2638C74.1673 67.5706 74.6275 67.724 74.9342 68.0308C75.241 68.3376 75.5478 68.6443 75.8546 68.7977C76.1614 69.1045 76.3148 69.5647 76.4681 69.8715C76.9283 70.4851 77.3885 71.0986 78.002 71.7122V71.8656C77.8487 72.019 77.6952 72.019 77.6952 72.019Z" fill="#4263A8"/>
<path d="M79.9961 68.3375L78.1554 67.4172L77.235 66.957L76.9283 66.8036C76.7749 66.8036 76.7749 66.6502 76.6215 66.6502C76.4681 66.4968 76.3147 66.4968 76.1613 66.3434L72.9401 63.7357C72.6333 63.4289 72.48 62.9687 72.7867 62.5086C73.0935 62.0484 73.5537 62.0484 74.0138 62.3552L77.0817 65.1163C77.235 65.2697 77.2351 65.2697 77.3884 65.423L77.5418 65.5764L77.6952 65.7298L78.6156 66.3434L80.3029 67.4172C80.6096 67.5706 80.6096 67.8774 80.4563 68.0307C80.6096 68.3375 80.3028 68.4909 79.9961 68.3375Z" fill="#19B4EE"/>
<path d="M73.5537 60.0542L79.6893 62.8153C80.1495 62.9687 80.3028 63.4289 80.1494 63.8891C79.9961 64.3493 79.5359 64.5027 79.0757 64.3493L73.0935 61.4348C72.7867 61.2814 72.6334 60.8212 72.7867 60.5144C72.7867 60.0542 73.2469 59.9008 73.5537 60.0542Z" fill="#1996EE"/>
<path d="M40.7281 9.58753C38.2739 10.3545 35.9731 11.1215 33.6722 12.1952C34.1324 10.9681 34.8994 9.89431 35.8197 9.28074C36.5866 8.82055 37.3536 8.51377 38.4273 8.51377H38.5807C40.5748 8.36037 40.8815 8.82056 40.7281 9.58753Z" fill="#1996EE"/>
<path d="M55.4536 16.6436C54.84 16.3369 54.0731 16.0301 53.6129 16.0301C52.079 16.0301 50.3917 16.6436 50.3917 17.4106C50.2383 18.1776 51.0053 20.0183 51.7722 20.7853C52.5392 21.5523 54.3799 23.2396 53.9197 23.5464C53.4595 23.8532 50.2384 20.1717 49.7782 20.7853C49.318 21.5523 50.8519 22.4726 50.5451 22.7794C50.3917 23.2396 48.5511 21.3989 48.0909 21.7057C47.7841 22.0124 50.8519 24.6201 51.3121 25.8473C51.0053 26.0007 50.5451 26.3075 50.2383 26.4609C49.7782 26.3075 49.4714 26.0007 49.1646 26.3075C48.8578 26.6143 48.8578 26.7677 49.0112 27.2278C47.4773 28.3016 46.4036 29.3754 46.4036 31.0627C45.6366 31.0627 45.0231 30.6025 44.5629 29.5288C43.4892 27.0745 42.4154 22.9328 37.8137 22.0124C33.8256 21.0921 32.9053 19.2513 32.9053 17.564C36.1265 16.4902 39.1942 15.7233 42.262 15.1097C43.4892 16.3369 44.7163 16.797 46.557 16.9504C49.0112 17.1038 51.6189 14.6495 53.6129 15.1097C54.6867 15.4165 55.4536 15.7233 56.0671 16.1835C55.9137 16.3369 55.607 16.797 55.4536 16.6436Z" fill="#1996EE"/>
<path d="M27.2299 19.5582C27.69 19.2514 28.3036 19.098 28.9171 18.7913C28.9171 18.9447 28.7637 19.098 28.7637 19.2514C28.6104 19.5582 28.457 20.0184 28.3036 20.3252C28.1502 20.632 27.8434 20.632 27.5367 20.4786C27.3833 20.3252 27.2299 20.1718 27.2299 19.865C27.2299 19.865 27.2299 19.7116 27.2299 19.5582Z" fill="#1CD0C5"/>
<path d="M32.9053 12.3486C32.7519 12.502 32.5985 12.6554 32.5985 12.6554C31.6782 13.1156 30.7579 13.5758 29.8375 14.1894C29.9909 13.8826 30.2977 13.5758 30.6045 13.4224C30.9113 13.1156 31.218 12.8088 31.5248 12.502C31.8316 12.1952 32.1384 12.0418 32.5985 11.735C32.7519 11.5817 33.0587 11.735 33.0587 11.8884C33.0587 12.0418 33.0587 12.1952 32.9053 12.3486Z" fill="#1CD0C5"/>
<path d="M51.9257 7.13324C51.3121 7.28663 50.5451 7.28663 49.9316 7.44002C49.4714 6.97984 49.1647 6.51966 49.0113 6.51966C48.8579 6.51966 49.0112 6.97984 49.318 7.44002C49.0112 7.44002 48.8579 7.44002 48.5511 7.59342C48.0909 7.74681 47.6307 7.74681 47.1706 7.90021C47.0172 7.44003 47.0172 6.97984 46.8638 6.36626L47.324 6.21287C47.6308 6.21287 47.9375 6.05947 48.3977 6.05947C49.318 5.90608 50.2384 5.75269 51.1587 5.75269C51.3121 6.36626 51.6189 6.82645 51.9257 7.13324Z" fill="#F376A2"/>
<path d="M69.719 75.7004C69.5656 75.7004 69.5656 75.547 69.5656 75.547C70.1791 72.9393 69.8723 71.0986 69.8723 71.0986C69.8723 70.9452 69.8723 70.9452 70.0257 70.9452C70.1791 70.9452 70.1791 70.9452 70.1791 71.0986C70.1791 71.0986 70.4859 72.9393 69.719 75.7004C69.719 75.7004 69.8723 75.7004 69.719 75.7004Z" fill="#1CD0C5"/>
<path d="M65.1173 22.7795C64.0435 22.6261 63.43 22.7795 63.43 22.7795C63.43 22.7795 63.2766 22.7795 62.8164 22.7795C62.9698 22.4727 63.1232 22.1659 63.2766 22.1659C63.7367 22.1659 64.9639 22.3193 65.1173 22.7795Z" fill="#F376A2"/>
<path d="M64.8104 12.9622C64.3503 13.2689 63.8901 13.4223 63.4299 13.4223C62.9698 13.5757 62.5096 13.5757 62.0494 13.7291C61.5893 13.7291 61.1291 13.8825 60.6689 13.8825C60.3621 13.8825 60.2087 13.5757 60.2087 13.4223C60.2087 13.2689 60.2087 13.1156 60.3621 13.1156C61.4359 13.1156 62.5096 13.1156 63.5833 13.1156C63.8901 12.9622 64.3503 12.9622 64.8104 12.9622Z" fill="#F376A2"/>
<path d="M55.607 14.1894C55.4536 14.3428 55.1468 14.3428 54.9934 14.036L54.3799 13.269C54.6867 13.269 55.1468 13.269 55.4536 13.1156L55.7604 13.4224C55.9138 13.7292 55.9138 14.036 55.607 14.1894Z" fill="#1996EE"/>
<path d="M67.1112 13.5758C67.1112 15.1097 66.3443 15.8767 66.1909 16.0301C66.1909 16.0301 66.1909 16.0301 66.0375 16.0301H65.8842V15.8767C65.8842 15.8767 66.6511 15.1097 66.6511 13.7292C66.6511 13.5758 66.6511 13.269 66.6511 13.1156C66.8045 13.1156 66.8045 13.1156 66.9578 13.1156C67.1112 13.1156 67.1112 13.269 67.1112 13.5758Z" fill="#8D67C3"/>
<path d="M49.7782 62.6619C48.8578 63.1221 48.7044 68.1841 50.0849 71.252C50.8519 72.9393 51.7722 74.6266 52.5391 75.8538C52.8459 76.314 53.4595 76.0072 53.4595 75.547C53.3061 74.4732 53.1527 73.0927 53.3061 72.1723C53.3061 71.8655 53.7663 71.7121 54.073 71.8655C54.3798 72.1723 54.9934 72.4791 55.4535 72.0189C56.3739 71.4054 56.834 70.6384 56.834 69.8714C56.834 69.1044 55.3002 65.423 53.6129 64.1958C51.9256 63.1221 50.6985 62.2017 49.7782 62.6619Z" fill="#1996EE"/>
<path d="M57.2943 76.3141C57.2943 75.5471 57.7545 74.9336 58.5214 75.2403C59.2884 75.5471 60.3621 76.6209 61.4358 77.0811C61.5892 77.2345 61.896 77.2345 62.0494 77.3879C61.1291 77.3879 60.0553 77.2345 59.135 77.2345C58.368 77.0811 57.2943 76.9277 57.2943 76.3141Z" fill="#1CD0C5"/>
<path d="M62.0494 83.3703C61.1291 84.7508 59.7485 83.3703 58.9816 83.0635C58.2146 82.7567 56.9875 82.7567 56.3739 81.2228C56.2205 81.0694 56.2205 80.916 56.0671 80.6092C57.601 80.3024 59.2883 80.149 60.8223 79.9956C60.8223 80.3024 60.9757 80.6092 61.1291 80.7626C61.7426 81.0694 62.9697 81.9897 62.0494 83.3703Z" fill="#1CD0C5"/>
<path d="M60.0554 72.019L62.0495 72.3258C62.663 72.4792 63.4299 72.4792 64.0435 72.6326H64.1969H64.3503C64.5037 72.6326 64.5037 72.786 64.6571 72.786L64.8105 72.9394L64.9639 73.0928C65.1172 73.2462 65.424 73.3996 65.7308 73.3996H65.8842H66.0376C66.1909 73.3996 66.191 73.553 66.3443 73.553C66.4977 73.7064 66.6511 73.8598 66.6511 74.0132C66.8045 74.3199 66.9579 74.6267 67.1113 74.9335C67.1113 75.0869 67.1113 75.0869 66.9579 75.2403C66.8045 75.2403 66.8045 75.2403 66.6511 75.0869C66.4978 74.7801 66.3443 74.6267 66.191 74.32C66.0376 74.1666 66.0376 74.0132 65.8842 74.0132H65.7308C65.7308 74.0132 65.7308 74.0132 65.5774 74.0132H65.424C65.1172 74.0132 64.6571 73.7064 64.3503 73.553L64.1969 73.3996C64.1969 73.3996 64.1969 73.3996 64.0435 73.2462C64.0435 73.2462 64.0435 73.2462 63.8901 73.0928C63.8901 73.0928 63.8901 73.0928 63.7367 73.0928C63.1231 72.9394 62.3562 72.786 61.7427 72.786C61.1291 72.6326 60.5156 72.4792 59.7486 72.3258C59.5952 72.3258 59.5952 72.1724 59.5952 72.1724C59.902 72.019 60.0554 72.019 60.0554 72.019Z" fill="#F376A2"/>
<path d="M65.7308 76.0073C65.7308 76.0073 65.5774 76.0073 65.7308 76.0073C65.424 75.7005 65.1172 75.5471 64.8104 75.3937C64.5036 75.2403 64.0434 75.0869 63.7367 74.7801C62.9697 74.1665 60.9757 73.8598 60.9757 73.8598C60.8223 73.8598 60.8223 73.7064 60.8223 73.7064C60.8223 73.553 60.9757 73.553 60.9757 73.553C61.1291 73.553 62.9697 73.8598 63.8901 74.4733C64.1968 74.7801 64.657 74.9335 64.9638 75.0869C65.424 75.2403 65.7307 75.3937 66.0375 75.7005C65.8841 75.8539 65.8841 75.8539 65.7308 76.0073Z" fill="#F376A2"/>
<path d="M57.9078 69.5647C58.2146 70.4851 59.5951 68.6443 60.5155 68.9511C61.4358 69.2579 62.6629 69.2579 62.9697 68.9511C63.2764 68.4909 63.2765 67.2638 63.5833 66.6502C63.7367 66.4968 64.0434 66.19 64.5036 65.8832C64.8103 65.5764 64.657 64.9629 64.1968 65.1163C63.7366 65.2696 63.1231 65.2696 62.6629 65.2696C61.4358 65.423 59.7485 65.1163 59.2883 66.4968C58.8281 67.8773 58.9815 68.4909 58.8282 68.7977C58.6748 69.1045 57.7544 69.1045 57.9078 69.5647Z" fill="#19B4EE"/>
<path d="M70.1791 68.6443C69.8723 70.0249 67.1112 68.9511 66.8044 67.5706C66.6511 66.19 68.4918 66.19 69.2587 64.9629C69.7189 64.0425 70.1791 62.662 70.3325 62.2018C70.3325 62.0484 70.6392 61.895 70.7926 62.0484C70.946 62.0484 70.946 62.2018 70.946 62.3552C70.6392 63.2755 69.8723 66.19 69.8723 66.957C69.8723 67.724 70.3325 68.0308 70.1791 68.6443Z" fill="#4263A8"/>
<path d="M77.235 40.113C77.6952 40.4198 78.1554 40.88 78.6155 41.1868C78.002 41.9538 77.5418 42.7207 77.0816 43.4877C76.7749 43.9479 76.0079 43.6411 76.1613 43.1809C76.4681 41.9538 76.7749 41.0334 77.235 40.113Z" fill="#F376A2"/>
<path d="M82.757 57.4467C82.4503 58.367 81.9901 59.2874 81.6833 59.7476C81.5299 60.0544 81.2231 60.2078 80.9163 60.2078C80.7629 60.2078 80.7629 60.2078 80.6095 60.2078C79.996 60.0544 79.6892 59.2874 79.996 58.8272C80.3027 58.2136 80.763 57.2933 81.2231 55.9127C81.8367 56.3729 82.2969 56.8331 82.757 57.4467Z" fill="#F376A2"/>
<path d="M83.6774 67.1104C83.524 67.2638 83.5241 67.2638 83.5241 67.4172C83.5241 68.4909 82.9105 69.4113 81.9902 70.1782C81.0698 70.9452 80.1495 72.019 80.1495 72.019C79.8427 73.3995 77.6952 73.8597 77.5418 73.8597C77.5418 73.8597 77.5418 74.1665 77.3885 74.9335C77.2351 75.7004 76.4681 75.8538 75.8545 75.8538C75.7012 75.8538 75.7012 75.7004 75.8545 75.7004C76.9283 75.2403 76.9283 74.1665 76.9283 73.5529C76.9283 73.2461 77.0817 73.0927 77.3885 73.0927C77.8486 73.0927 78.6155 72.9393 79.2291 72.4792C79.9961 72.019 79.8427 70.9452 79.6893 70.3316C79.6893 70.0248 79.8427 69.8715 80.1495 69.7181C80.4562 69.7181 80.9164 69.5647 81.3766 69.1045C81.9901 68.4909 81.8368 67.5705 81.8368 66.957C81.8368 66.6502 81.9901 66.3434 82.2969 66.4968C82.9105 66.6502 83.5241 66.6502 84.1376 66.19C85.058 65.5764 84.4444 64.8094 83.6774 64.5027C82.9105 64.1959 82.6037 63.4289 82.7571 62.8153C82.9105 62.2017 77.5418 61.2814 77.8486 60.5144C78.4622 59.2873 81.53 61.895 82.9105 61.7416C83.6774 61.5882 84.291 60.8212 84.7512 59.7474C84.9046 60.0542 85.058 60.2076 85.2113 60.5144C85.2113 60.5144 85.2114 60.6678 85.058 60.6678C84.4444 62.0483 85.2114 62.5085 85.5181 64.3493C85.8249 65.7298 84.291 66.8036 83.6774 67.1104Z" fill="#1CD0C5"/>
<path d="M43.029 41.647C41.4951 42.7207 39.3476 43.3343 35.8197 43.4877C34.7459 43.4877 33.8256 43.6411 33.0586 43.6411C33.0586 43.4877 33.212 43.3343 33.212 43.1809C33.3654 42.8741 33.0586 42.414 32.7518 42.5673C31.6781 42.8741 30.1442 43.3343 29.3772 43.9479C27.8433 44.1013 26.6162 44.2547 25.5425 44.4081C26.3094 42.2606 27.5366 39.8062 28.9171 38.8859C28.9171 38.8859 29.5307 37.8121 28.1501 37.3519C26.923 36.7384 24.4688 41.4936 22.3213 41.8004C20.1738 41.9538 19.7137 32.5967 23.2416 31.0628C26.7696 29.5288 31.0645 28.6085 31.8315 29.8356C32.4451 30.6026 31.5247 32.5967 30.7577 33.8239C30.451 34.2841 30.6044 35.051 31.2179 35.2044C31.9849 35.6646 33.3654 36.4316 34.4391 37.3519C35.9731 38.5791 39.6544 40.7266 43.029 41.647Z" fill="#1CD0C5"/>
<path d="M49.9315 43.4877C49.6247 43.0275 49.4713 42.5674 49.1646 42.1072C49.7781 42.1072 50.2383 42.1072 50.6985 42.1072C50.8518 42.414 50.8519 42.8741 51.0052 43.1809C50.8519 43.7945 50.0849 44.1013 49.9315 43.4877Z" fill="#1CD0C5"/>
<path d="M51.6188 51.1575C51.6188 51.6177 52.5392 52.3846 52.2324 52.8448C51.9256 53.305 51.0053 53.9186 50.0849 52.8448C49.9316 52.6914 49.9316 52.538 49.7782 52.3846C50.2384 52.0778 50.8519 51.6177 51.3121 51.3109C51.4655 51.3109 51.4654 51.3109 51.6188 51.1575Z" fill="#1CD0C5"/>
<path d="M58.9815 53.1515C58.8281 53.9185 57.601 54.3787 56.834 54.0719C56.2204 53.7651 52.9993 51.3108 51.9255 51.004C52.6925 50.5438 53.306 50.3905 54.073 50.2371C56.0671 51.3108 58.9815 52.6914 58.9815 53.1515Z" fill="#1CD0C5"/>
<path d="M73.8605 92.2671C74.474 92.8806 81.3766 96.7155 82.297 96.4087C83.2173 96.1019 82.9105 95.4883 82.4504 95.1816C81.9902 94.8748 74.9342 91.0399 74.3207 91.0399C73.7071 91.0399 73.7071 91.8069 73.8605 92.2671Z" fill="#1CD0C5"/>
<path d="M15.7255 59.4407C16.1857 67.1104 17.2594 74.3199 17.2594 80.1489C17.2594 82.7566 17.106 85.5177 16.9526 88.2788C13.2712 86.8982 10.5102 85.2109 8.97632 83.3702C9.43649 81.2227 10.0501 78.7683 10.6636 76.0072L10.817 75.8539C11.2771 75.5471 11.4305 74.7801 10.9704 74.3199C11.7373 69.8715 12.1975 65.2697 12.3509 61.4348C13.2712 60.6678 14.4984 60.0543 15.7255 59.4407Z" fill="#19B4EE"/>
<path d="M71.5595 92.4205C67.1112 94.1078 60.9756 96.8689 60.2086 99.0164C59.9019 99.9368 59.9019 100.857 60.362 101.778C53.1527 101.317 45.3298 99.9368 37.5069 97.1757C35.6662 96.5621 35.5128 94.1078 37.2001 93.1874C38.4272 92.5739 40.1145 91.8069 42.1086 91.0399C42.7222 91.3467 43.1823 91.5001 43.7959 91.8069C50.6984 94.7214 54.3798 94.4146 59.1349 93.3408C61.8959 92.7273 67.418 91.9603 71.2528 91.5001C72.0197 91.1933 72.1731 92.1137 71.5595 92.4205Z" fill="#19B4EE"/>
<path d="M50.3918 129.849C50.085 129.388 49.7782 128.928 49.4714 128.468C49.1646 128.161 49.0113 127.854 48.7045 127.394C49.0113 127.394 49.318 127.241 49.6248 127.241V127.088C49.6248 127.088 49.6248 127.088 49.6248 127.241C49.9316 128.008 50.3918 128.775 50.8519 129.542C51.0053 129.849 50.5452 130.155 50.3918 129.849Z" fill="#F376A2"/>
<path d="M14.8052 99.7833C14.345 99.9367 13.8849 100.09 13.4247 99.9367C11.8908 99.4766 9.74334 98.5562 8.20944 97.0222C6.82892 95.6417 6.82892 93.3408 7.44248 90.1195C8.66961 91.9602 10.6637 93.801 13.1179 94.8747C14.0382 95.3349 14.4985 96.1019 14.4985 97.0222C14.3451 97.7892 14.345 98.7096 14.8052 99.7833Z" fill="#4263A8"/>
<path d="M51.7723 132.456C51.7723 132.303 51.7723 132.303 51.7723 132.456C51.3121 131.996 50.6986 131.383 50.2384 130.769C49.7782 130.002 49.4714 129.235 49.3181 128.622C49.1647 128.161 49.3181 127.701 49.4715 127.394V127.241C49.4715 127.241 49.4715 127.241 49.4715 127.394C50.3918 127.241 51.1587 126.934 51.9257 126.781C53.613 127.394 54.9935 129.542 55.3002 130.616C55.7604 131.996 52.9994 133.223 51.7723 132.456Z" fill="#1CD0C5"/>
<path d="M68.185 125.707L83.6774 137.825C84.2909 138.285 84.4443 139.206 83.9842 139.819C83.524 140.433 82.757 140.586 82.1435 140.126L65.8841 128.928C64.9638 128.315 64.657 127.088 65.4239 126.167C66.1909 125.247 67.2646 125.093 68.185 125.707Z" fill="#F376A2"/>
<path d="M83.0638 132.149C82.6036 132.61 81.6833 132.763 81.2231 132.303L74.3206 126.474C76.1612 126.934 78.1553 127.548 80.6095 127.854L83.0638 130.309C83.524 130.769 83.524 131.689 83.0638 132.149Z" fill="#8D67C3"/>
<path d="M61.1291 129.235L59.135 129.542C58.368 129.695 57.6011 129.235 57.2943 128.621L55.4536 125.707C56.8341 125.4 58.0613 125.093 59.5952 124.787L61.896 127.241C62.5096 128.008 62.0494 129.082 61.1291 129.235Z" fill="#1996EE"/>
<path d="M84.4444 129.388C84.1376 129.388 83.9842 129.235 83.8308 129.082C83.6774 128.928 83.524 128.468 83.0638 128.008C83.524 128.008 83.8308 128.161 84.291 128.161C84.4444 128.468 84.5978 128.621 84.5978 128.775C84.7511 129.082 84.5977 129.388 84.4444 129.388Z" fill="#4263A8"/>
<path d="M96.102 142.12C95.3351 142.734 94.7215 143.194 93.9546 143.654C93.4944 143.654 93.0342 143.501 92.4207 143.501C91.8071 143.501 91.1936 143.501 90.4266 143.347C89.813 143.347 89.0461 143.347 88.4325 143.347C87.6656 143.347 87.052 142.734 87.052 141.967C87.052 141.2 87.6656 140.586 88.4325 140.586H88.5859C89.3529 140.586 89.9664 140.74 90.7334 140.74C91.3469 140.893 92.1139 140.893 92.7275 141.046C93.4944 141.2 94.108 141.353 94.7215 141.507C95.1817 141.813 95.6418 141.967 96.102 142.12Z" fill="#F376A2"/>
<path d="M91.8071 145.188C91.1935 145.495 90.7333 145.955 90.1198 146.262C89.813 145.955 89.6596 145.648 89.813 145.495C89.813 145.188 90.7333 145.188 91.8071 145.188Z" fill="#8D67C3"/>
<path d="M111.288 128.161C110.981 128.468 110.828 128.775 110.521 129.082C110.521 128.928 110.367 128.775 110.367 128.622L110.214 128.008C110.214 127.855 110.061 127.701 110.061 127.394C110.061 127.088 109.907 126.934 109.907 126.627C109.907 126.474 109.907 126.321 109.907 126.321V126.014V125.86C110.061 125.86 110.367 125.707 110.521 125.707C110.674 125.707 110.828 125.707 110.981 125.707C110.981 125.86 110.981 125.86 110.981 126.014V126.321C110.981 126.474 110.981 126.474 110.981 126.627C110.981 126.781 110.981 126.934 110.981 127.088C110.981 127.241 111.134 127.394 111.134 127.701L111.288 128.161Z" fill="#F376A2"/>
<path d="M107.453 131.536C107.606 131.689 107.606 131.843 107.606 131.996C107.606 132.763 106.379 133.837 104.999 134.604C103.772 135.371 102.391 135.831 101.317 135.831C98.4028 135.984 95.6418 137.365 95.335 136.138C95.1817 134.911 97.7893 134.144 101.317 132.917C103.158 132.15 103.618 129.695 103.772 127.241C105.305 126.934 106.839 126.627 108.066 126.321C107.76 127.854 107.453 129.388 107.3 130.309C107.146 130.769 107.299 131.229 107.453 131.536Z" fill="#1996EE"/>
<path d="M58.9817 131.229C59.135 130.462 63.7367 130.462 65.5774 131.229C67.4181 131.996 78.3087 138.592 77.5418 139.973C76.1613 142.12 58.6749 133.837 58.9817 131.229Z" fill="#19B4EE"/>
<path d="M65.1172 142.887C61.2824 142.887 54.3798 136.291 54.0731 135.984C53.9197 135.831 53.9197 135.524 54.0731 135.371C54.2264 135.218 54.5332 135.218 54.6866 135.371C56.6807 137.365 62.5095 142.274 65.2705 142.12C65.7307 142.12 66.0375 141.967 66.1909 141.66C66.3443 141.507 66.651 141.507 66.8044 141.66C66.9578 141.813 66.9578 142.12 66.8044 142.274C66.3443 142.734 65.8841 143.041 65.1172 143.041C65.2706 142.734 65.2706 142.887 65.1172 142.887Z" fill="#1CD0C5"/>
<path d="M46.0968 74.3199C45.79 74.4733 45.6367 74.6267 45.3299 74.7801C42.5688 73.7063 40.7282 72.3258 39.9612 70.3317C39.9612 70.1783 39.8079 70.0249 39.8079 69.8715C43.4892 70.3317 45.6367 66.6502 46.557 64.3493C46.8638 63.5823 47.7841 63.5823 48.0909 64.3493C49.4714 67.5706 49.0112 71.7122 46.0968 74.3199Z" fill="#4263A8"/>
<path d="M50.6985 88.4322C51.4654 88.2788 52.2324 88.1254 53.1527 87.972C52.5392 88.739 51.9256 89.0458 51.3121 88.8924C51.1587 88.739 50.8519 88.5856 50.6985 88.4322Z" fill="#8D67C3"/>
<path d="M54.84 84.9042C53.1527 85.0575 51.4655 85.2109 49.7782 85.5177C49.7782 84.7508 49.9316 83.8304 50.2383 83.0634C50.5451 82.143 51.4654 81.8363 52.2324 82.4498C52.9993 83.0634 53.7663 83.5236 54.3799 83.9838C54.6867 84.2906 54.84 84.5974 54.84 84.9042Z" fill="#8D67C3"/>
<path d="M77.8486 87.6653C78.1554 87.6653 78.6156 87.8187 78.9224 87.8187C78.769 87.9721 78.6156 87.9721 78.6156 88.1255C78.4622 88.1255 78.4622 88.1255 78.3088 88.1255C78.1554 88.1255 78.002 87.9721 77.8486 87.9721C77.8486 87.9721 77.8486 87.8187 77.8486 87.6653Z" fill="#1CD0C5"/>
<path d="M83.8308 83.5236C82.9104 84.5974 81.9901 85.3643 81.2232 86.1313C80.9164 85.9779 80.4562 85.9779 80.1494 85.9779C80.9164 85.2109 81.9901 84.2906 83.0638 83.2168C83.2172 83.2168 83.524 83.3702 83.8308 83.5236Z" fill="#1CD0C5"/>
<path d="M66.4977 83.5236C66.6511 83.5236 67.5714 83.9837 68.9519 84.5973C68.3383 84.5973 67.7248 84.5973 67.1112 84.5973C66.8044 84.5973 66.651 84.5973 66.3443 84.5973C66.1909 84.5973 66.1909 84.4439 66.0375 84.4439C65.7307 84.2905 65.7307 84.1371 65.7307 83.8303C65.8841 83.5236 66.1909 83.3702 66.4977 83.5236Z" fill="#F376A2"/>
<path d="M82.1434 94.1077C81.99 94.1077 81.99 94.2611 81.8366 94.2611C81.6832 94.2611 81.5298 94.2611 81.3764 94.1077C79.6891 91.5 75.5476 89.0457 72.0197 87.205C72.7866 87.205 73.7069 87.3583 74.4739 87.3583C77.5417 89.0457 80.6095 91.1932 82.1434 93.4941C82.4502 93.6475 82.2968 93.9543 82.1434 94.1077Z" fill="#F376A2"/>
<path d="M49.7782 61.128C49.6248 61.2814 49.4714 61.4348 49.318 61.4348H49.1646C47.0172 60.5145 45.9435 58.5203 44.8698 56.6796C45.0231 56.3728 45.3299 56.2194 45.6367 56.066C45.6367 56.066 45.6367 56.2194 45.7901 56.2194C46.8638 58.0602 47.7842 59.7475 49.7782 60.6679C49.7782 60.6679 49.9316 60.9746 49.7782 61.128Z" fill="#F376A2"/>
<path d="M18.7934 23.5465C18.7934 23.8533 18.6401 24.0067 18.3333 24.0067C18.0265 24.0067 17.8731 23.8533 17.8731 23.6999C17.7197 22.9329 17.4129 22.3193 17.2595 21.5523C17.5663 21.0922 17.8731 20.7854 18.3333 20.3252C18.4867 21.399 18.64 22.4727 18.7934 23.5465Z" fill="#1996EE"/>
<path d="M12.1976 56.6796C12.1976 54.3787 12.0442 52.538 12.0442 51.4642C12.0442 50.8507 12.351 50.2371 12.8111 49.9303C13.1179 52.3846 12.9645 54.6855 12.1976 56.6796Z" fill="#4263A8"/>
<path d="M20.0205 149.023C22.9349 151.17 26.0027 153.011 29.3773 154.852C25.3892 155.465 21.5544 155.005 19.7138 154.698C19.1002 154.545 18.7934 153.931 18.9468 153.471L20.0205 149.023Z" fill="#F376A2"/>
<path d="M43.6426 139.512C42.8757 141.66 41.802 144.268 40.5748 147.182C40.4215 147.642 40.268 147.949 39.9613 148.409C38.8875 147.796 37.8138 147.029 36.7401 146.415C39.3477 144.114 40.8816 140.279 41.3418 138.592C41.4952 138.285 41.802 138.132 42.1087 138.285L43.1824 138.899C43.6426 138.899 43.6426 139.206 43.6426 139.512Z" fill="#F376A2"/>
<path d="M61.5892 176.787C58.0612 176.634 54.8401 176.327 51.7722 175.867C51.6189 173.873 51.9256 172.032 52.2324 171.572C52.3858 171.112 52.9994 170.958 53.4595 171.418C55.1468 172.799 58.6748 174.64 60.0553 175.1C61.2824 175.253 61.7426 175.714 61.5892 176.787Z" fill="#8D67C3"/>
<path d="M85.9784 94.8748C88.586 96.1019 90.8868 97.4825 92.8809 99.0164C87.0521 100.397 77.6953 102.084 66.4978 102.084C66.6512 101.931 66.8046 101.777 66.958 101.624C74.1673 98.096 78.6156 97.4825 81.6834 97.1757C83.3707 97.0223 83.9843 96.2553 84.2911 95.6417C84.5979 94.8748 85.3648 94.568 85.9784 94.8748Z" fill="#1CD0C5"/>
<path d="M65.8842 156.846C66.6512 157.153 67.2647 157.46 68.0317 157.766C67.7249 157.92 67.4181 157.92 67.2647 157.92C66.958 157.766 66.8046 157.766 66.4978 157.613C66.191 157.46 66.0376 157.306 65.8842 157.306C65.7309 157.306 65.5775 157.153 65.5775 157.153C65.5775 157.153 65.4241 156.999 65.5775 156.999C65.5775 156.999 65.7308 156.846 65.7308 156.999C65.7308 156.846 65.7309 156.846 65.8842 156.846Z" fill="#F376A2"/>
<path d="M81.0698 162.215C81.0698 162.368 81.0698 162.368 80.9164 162.368H80.763C80.6096 162.215 80.4563 162.061 80.3029 161.908C80.4563 161.908 80.6096 161.755 80.763 161.755C80.9164 161.908 81.0698 162.061 81.0698 162.215Z" fill="#F376A2"/>
<path d="M78.9224 163.442L78.769 163.595C77.8487 163.442 76.775 163.289 75.8546 162.982C76.3148 162.828 76.7749 162.828 77.0817 162.675C77.6953 162.828 78.1555 163.135 78.769 163.289C78.9224 163.289 78.9224 163.442 78.9224 163.442Z" fill="#F376A2"/>
<path d="M75.3945 169.578C74.781 170.652 72.02 168.964 71.7132 168.964C71.4064 168.964 70.1793 168.504 69.5657 170.345C69.1056 172.185 73.4005 173.566 73.5539 174.64C73.7073 175.1 73.7073 175.714 73.4005 176.174C72.1734 176.327 70.7928 176.481 69.4123 176.634C67.1115 175.867 64.3504 174.64 63.7369 174.333C62.6631 173.719 62.5098 172.799 63.2767 171.572C63.8903 170.498 65.1174 172.799 66.6513 172.185C67.5717 171.879 67.725 170.498 67.725 169.424C67.725 168.657 67.2649 168.044 66.6513 167.737C64.6572 166.817 63.1233 165.743 62.5098 164.516C62.5098 164.516 62.5098 164.516 62.5098 164.362C62.8165 164.362 63.1233 164.362 63.4301 164.362C64.8106 164.362 66.1912 164.362 67.4183 164.209C67.1115 164.516 66.9581 164.976 67.2649 165.283C67.8784 166.05 69.7191 166.357 71.8666 166.97C74.781 167.584 75.8547 168.351 75.3945 169.578Z" fill="#4263A8"/>
<path d="M60.9758 158.073C60.8224 156.232 60.8225 154.545 61.1292 153.318C61.436 150.71 64.5038 151.017 64.964 148.87C65.4242 146.722 59.1352 142.734 59.7487 141.046C59.7487 140.893 60.0555 140.74 60.2089 140.74C60.6691 140.586 61.5894 140.74 62.5097 141.046C63.2767 141.2 64.0436 141.507 64.964 141.813C65.4242 141.967 66.0377 142.274 66.4979 142.427C68.492 143.194 70.3327 144.114 71.253 144.421C73.7072 145.341 74.9343 143.808 75.5479 144.421C76.3149 145.035 75.2411 145.648 73.8606 146.722C73.247 147.182 72.9403 147.949 72.9403 148.716C72.7869 149.943 71.8665 150.864 70.7928 151.324C68.9521 152.091 66.6513 153.471 65.8843 155.619C65.731 155.926 65.7309 156.386 65.7309 156.693C65.7309 156.846 65.7309 156.999 65.7309 156.999C65.7309 157.153 65.7309 157.306 65.7309 157.306V157.46C65.7309 157.613 65.7309 157.613 65.7309 157.766C64.3504 158.38 62.6631 158.38 60.9758 158.073Z" fill="#4263A8"/>
<path d="M76.6217 166.51C74.014 165.129 70.3326 164.516 68.4919 164.209C70.9462 164.056 73.4005 163.595 75.7013 163.135C76.6217 163.902 77.0818 165.129 77.3886 165.896C77.542 166.203 77.0818 166.663 76.6217 166.51Z" fill="#4263A8"/>
<path d="M14.3452 146.415C14.3452 146.875 13.885 147.029 13.5782 146.722C13.2714 146.262 12.6579 145.802 12.0443 145.341C10.5104 142.12 9.89685 139.973 9.89685 139.973C11.2774 141.353 12.8113 142.887 14.3452 144.268C14.1918 145.035 14.3452 145.802 14.3452 146.415Z" fill="#8D67C3"/>
<path d="M50.3918 130.616C49.6249 129.695 48.2443 130.002 47.9376 131.229C46.557 136.291 43.796 147.182 45.1765 149.943C45.1765 150.097 45.3299 150.097 45.3299 150.25C45.7901 151.017 47.0172 150.864 47.1706 149.943C48.2443 145.955 50.3918 138.592 52.2325 138.745C54.8401 139.052 55.1469 137.058 54.6867 135.984C54.3799 135.371 52.0791 132.61 50.3918 130.616Z" fill="#8D67C3"/>
<path d="M84.1377 130.462C84.4445 129.849 85.3648 129.542 85.9784 129.849C88.2792 130.922 92.8809 133.223 93.8013 133.223C95.0284 133.223 94.5683 136.598 92.7276 136.905C91.0403 137.212 89.353 136.291 88.4326 137.212C87.6657 137.979 87.3589 138.899 86.2852 138.439C85.2114 137.979 85.9784 136.445 85.5182 135.524C85.058 134.604 83.064 133.683 83.064 132.917C83.2174 132.303 83.6775 131.229 84.1377 130.462Z" fill="#4263A8"/>
<path d="M95.3351 167.89C93.6479 169.118 91.6538 170.191 89.6597 171.112C87.6657 166.97 85.9783 162.061 87.0521 162.368C89.5063 163.135 92.4207 165.129 95.3351 167.89Z" fill="#1CD0C5"/>
<path d="M32.9054 143.501C32.9054 143.654 32.9054 143.654 32.9054 143.501C32.5986 143.501 32.4452 143.347 32.1384 143.194H32.2918C32.752 143.194 32.9054 143.347 32.9054 143.501Z" fill="#1CD0C5"/>
<path d="M86.7453 142.58C86.5919 143.961 86.1318 146.569 85.825 149.023C83.6775 150.25 81.5301 151.477 79.6894 152.551C79.536 152.091 79.3826 151.631 79.0758 151.17C78.1554 149.483 73.7071 150.097 74.0139 148.87C75.0876 145.188 80.4563 148.409 81.8368 147.489C82.9106 146.722 83.6775 143.654 84.1377 142.12C84.2911 141.66 84.7512 141.353 85.2114 141.507L86.1317 141.813C86.5919 141.66 86.8987 142.12 86.7453 142.58Z" fill="#19B4EE"/>
<path d="M41.3417 137.211C41.035 137.211 40.8815 137.058 40.7282 136.905C39.3477 133.683 38.7341 130.922 38.8875 128.468C39.1943 128.468 39.5011 128.468 39.8079 128.468C39.8079 130.769 40.268 133.53 41.6485 136.598C41.8019 136.751 41.6485 137.058 41.3417 137.211Z" fill="#F376A2"/>
<path d="M42.4154 133.837C42.5688 134.144 42.8756 134.451 43.4892 134.451C43.796 134.451 43.9493 134.144 43.9493 133.837L43.6426 133.07C43.6426 132.917 43.3358 132.763 43.1824 132.917L42.5688 133.223C42.2621 133.53 42.2621 133.684 42.4154 133.837Z" fill="#8D67C3"/>
<path d="M86.1317 160.067V160.221C86.1317 160.527 85.9783 160.681 85.9783 160.988C85.9783 161.294 85.8249 161.448 85.8249 161.755C85.8249 161.908 85.6715 161.908 85.5181 161.908C85.3648 161.908 85.3647 161.755 85.3647 161.755C85.3647 161.294 85.3647 160.988 85.3647 160.527C85.6715 160.221 85.8249 160.067 86.1317 160.067Z" fill="#1996EE"/>
<path d="M81.2233 165.59L80.9165 167.43C80.9165 167.737 81.2233 167.89 81.3767 167.737C82.1436 167.123 83.6775 165.436 83.9843 162.982C83.9843 162.828 83.8309 162.675 83.6775 162.828C83.3707 163.442 82.7572 164.362 81.9902 164.669C81.6835 164.823 81.3767 165.129 81.2233 165.59Z" fill="#1CD0C5"/>
<path d="M66.0375 176.327C65.8841 176.48 65.7308 176.634 65.5774 176.634H65.424C65.424 176.634 60.5155 174.486 57.7545 172.952C56.374 172.185 53.1528 167.584 50.085 162.828C50.5451 162.982 51.0053 162.982 51.3121 163.135C54.2265 167.584 56.9875 171.572 58.2147 172.185C60.9757 173.719 65.7308 175.713 65.7308 175.867C66.0376 175.713 66.0375 176.02 66.0375 176.327Z" fill="#1CD0C5"/>
</svg>
