<svg width="93" height="209" viewBox="0 0 93 209" fill="none" xmlns="http://www.w3.org/2000/svg">
<path d="M92.571 87.6827V84.9217C91.8041 48.5672 88.2761 14.8205 85.5151 10.0653C83.9812 7.30416 80.9134 5.77021 79.0727 5.00324C78.3057 4.69645 77.3854 4.54306 76.6184 4.54306C76.465 4.54306 76.465 4.54306 76.3116 4.54306L53.9167 1.16839C53.4565 1.01499 52.843 0.861599 52.3828 0.861599C49.7752 0.708205 47.1675 0.55481 44.5599 0.55481C42.8726 0.55481 41.3387 0.55481 39.6514 0.708204C39.1912 0.708204 38.5777 0.708205 38.1175 0.861599C37.9641 0.861599 37.8107 0.861599 37.6573 0.861599H37.5039H37.3506C32.7489 1.32178 28.4539 1.93536 24.6192 3.00912L22.7785 3.4693C22.1649 3.6227 21.398 3.77609 20.9378 3.92948C19.2505 4.38967 17.5632 5.31003 16.3361 6.53719C14.1886 8.53131 12.8081 11.2924 12.5014 14.0535L11.2742 24.6377L10.2005 34.6083L10.0471 36.2957L9.74033 39.3636V39.6703C9.74033 39.8237 9.74033 40.1305 9.74033 40.2839L7.74625 61.2989C7.74625 61.4523 7.59286 74.4908 6.9793 91.9778C6.51913 106.09 5.75217 126.798 4.52505 145.052C4.37166 146.74 4.21829 148.273 4.0649 149.961C3.91151 151.495 3.91149 153.182 3.7581 154.716V154.869V155.023V155.33C3.7581 155.636 3.60472 155.943 3.60472 156.25C3.60472 156.864 3.45132 157.324 3.45132 157.937C3.45132 158.397 3.45134 158.858 3.29795 159.318V159.625V159.931C3.29795 160.085 3.29795 160.238 3.29795 160.392C3.29795 160.852 3.14455 161.159 3.14455 161.619C2.99116 162.846 2.83776 164.226 2.68437 165.3C2.07081 170.516 1.45726 174.351 0.843697 177.265C0.536916 178.492 0.690311 179.719 1.30387 180.946C2.07082 182.327 3.29795 183.247 4.83185 183.554C7.43948 185.548 12.6547 189.843 15.4158 191.991C15.8759 192.451 16.3361 192.911 16.9497 193.218C20.1709 195.059 25.2327 197.82 30.9082 200.428C32.1353 201.041 33.3624 201.501 34.4361 201.808C37.9641 203.342 41.7989 204.723 45.9404 205.95H46.0938C51.9226 207.637 57.1379 208.404 61.7396 208.404C70.6362 208.404 77.9989 204.876 83.6744 198.127C88.4295 192.298 90.8837 185.088 90.8837 177.418C90.8837 173.584 91.0371 168.061 91.1905 161.619C91.4973 150.881 91.804 137.382 91.9574 123.117V101.948C92.571 96.8864 92.571 92.2846 92.571 87.6827Z" fill="white"/>
<path d="M12.9615 60.3786C12.5013 60.3786 12.0411 60.6854 12.0411 61.299C12.0411 61.6058 11.8877 74.6443 11.2742 92.1312C10.814 108.238 10.0471 128.025 8.81993 145.512C8.51315 148.734 8.35976 151.955 8.05298 155.176C8.05298 155.636 7.8996 156.25 7.8996 156.71C7.74621 157.784 7.7462 158.858 7.5928 159.931C7.5928 160.545 7.43943 161.159 7.43943 161.772C7.28604 163.153 7.13264 164.533 6.97925 165.76C6.36569 170.516 5.75214 174.811 5.13858 178.185C4.98519 178.646 5.29197 179.106 5.90553 179.259H6.0589C6.51907 179.259 6.82586 178.952 6.97925 178.492C7.7462 174.811 8.35976 170.362 8.81993 165.3C8.97332 163.92 9.12672 162.539 9.28011 161.159C9.28011 160.852 9.28012 160.545 9.43351 160.238C9.5869 159.318 9.58689 158.244 9.74028 157.324C9.74028 156.864 9.89366 156.403 9.89366 155.943C10.2004 152.875 10.3538 149.654 10.6606 146.433C11.8877 129.406 12.6547 109.925 13.2683 93.8185C13.8818 75.5646 14.0352 61.9125 14.0352 61.4524C13.7284 60.6854 13.4216 60.3786 12.9615 60.3786ZM52.076 5.31006C47.4743 5.00327 43.3327 5.00327 39.6514 5.15667C38.8844 5.15667 38.1174 5.31006 37.5039 5.31006C32.442 5.77024 28.4539 6.53721 25.3861 7.30418C24.7725 7.45758 24.159 7.61097 23.5454 7.76437C22.9318 7.91776 22.3183 8.07116 21.8581 8.22455C20.7844 8.53134 19.7106 9.14492 18.9437 9.91189C17.5632 11.139 16.6428 12.9798 16.4894 14.8205L16.0293 18.8088L15.2623 25.4047L14.0352 37.2161L13.7284 39.9772C13.7284 40.4373 14.0352 40.8975 14.4954 40.8975H14.6488C15.1089 40.8975 15.4157 40.5907 15.5691 40.1306L16.0293 36.2957L16.9496 27.3988L17.7166 20.6495L18.3301 15.1273C18.4835 13.5933 19.2505 12.2128 20.3242 11.139C20.9378 10.5255 21.7047 10.0653 22.625 9.91189C23.392 9.6051 24.4657 9.29831 25.5395 8.99152C26.153 8.83813 26.92 8.68473 27.5335 8.53134C29.9878 7.91776 33.0556 7.45758 36.4302 7.15079C38.2708 6.9974 40.4183 6.844 42.5658 6.844C45.4802 6.69061 48.7014 6.844 52.076 7.15079C52.5361 7.15079 52.9963 6.844 52.9963 6.38382C52.9963 5.61685 52.5361 5.31006 52.076 5.31006ZM60.9726 140.757L37.0437 141.064L25.0793 141.217C24.6191 141.217 24.159 141.217 23.5454 141.217H22.7784L22.0115 141.371C20.9378 141.524 19.864 141.831 18.9437 142.291C18.7903 142.445 18.6369 142.445 18.4835 142.598C17.7166 143.058 16.9496 143.518 16.3361 143.978C15.5691 144.592 14.8022 145.359 14.0352 146.279C14.0352 146.433 13.8818 146.433 13.8818 146.586C13.8818 146.74 13.8818 147.046 14.1886 147.2C14.4954 147.353 14.9555 147.353 15.1089 147.046C15.7225 146.279 16.3361 145.666 17.103 145.052C17.87 144.439 18.6369 143.978 19.5572 143.672C20.4776 143.365 21.3979 143.058 22.3183 142.905L23.0852 142.751H23.8522C24.3123 142.751 24.7725 142.751 25.3861 142.751L37.3505 142.905L61.2794 143.212C61.8929 143.212 62.3531 142.751 62.3531 141.984C62.0463 141.371 61.5861 140.757 60.9726 140.757ZM88.1226 85.0751C87.3557 45.1926 83.3676 15.2807 81.6803 12.2128C80.9133 10.8323 79.0726 9.75849 77.5387 9.14492C75.8514 8.53134 74.1641 9.6051 74.0108 11.4458C73.704 18.1952 71.5565 24.7911 65.1141 28.4726C64.0404 29.0862 62.9667 29.5464 61.5862 30.0065C60.2056 30.4667 58.5183 30.7735 56.8311 31.0803C55.9107 31.2337 54.837 31.2337 53.7633 31.2337C53.4565 31.2337 53.1497 31.2337 52.8429 31.2337C51.6158 31.2337 50.3887 31.2337 49.315 31.3871C47.781 31.3871 46.4005 31.5405 45.1734 31.6939C42.8725 32.0007 40.7251 32.3075 38.731 32.7676C36.1234 33.3812 33.8225 34.1482 31.6751 34.9152C22.6251 38.5966 18.1767 44.1188 16.1827 47.6469C15.2623 49.3342 16.0293 51.4817 18.0233 51.9419C23.5454 53.4759 29.8344 53.6293 33.8225 53.4759C33.9759 53.4759 34.1293 53.4759 34.2827 53.4759C36.2768 53.3225 38.1175 52.2487 39.3446 50.5614C40.8785 48.5672 42.4124 47.1867 43.7929 46.4197C45.02 45.6527 46.4005 45.346 47.4743 45.1926C50.5421 44.8858 53.1497 46.2663 54.2234 47.0333C55.2972 47.6469 56.6777 58.5379 58.2116 70.8094C58.5183 73.1103 58.8251 75.4112 58.9785 77.8655C59.1319 79.7063 59.4387 81.3936 59.5921 83.2344C60.2056 87.9896 60.6658 92.438 61.126 96.2729C61.4328 98.1136 61.5862 99.9543 61.8929 101.335C62.0463 102.562 62.1997 103.789 62.5065 104.556C62.5065 104.71 62.5065 104.71 62.5065 104.863C62.6599 105.937 62.9667 107.01 63.1201 107.931C63.4268 109.311 63.7336 110.692 63.887 111.919C64.1938 113.76 64.1938 115.294 63.5802 116.674C63.12 117.441 62.5065 118.208 61.5862 118.822C59.7455 119.896 56.6777 120.663 51.9226 120.969C51.6158 120.969 51.1556 120.969 50.6955 120.969C49.1616 121.123 47.4743 121.123 45.6336 121.123C34.2827 121.123 27.8403 122.81 24.3123 124.344C22.3183 125.264 22.6251 128.179 24.7725 128.639C39.1912 131.4 49.9285 134.775 57.9048 138.149C58.5183 138.456 59.1319 138.61 59.5921 138.916C63.4268 140.604 66.4946 142.138 68.9489 143.672C69.409 143.978 69.7158 144.132 70.176 144.439C71.7099 145.359 71.2497 147.66 69.5624 147.967C69.4091 147.967 69.1023 147.967 68.9489 147.967C66.1878 147.66 62.8133 147.507 59.1319 147.353C57.7514 147.353 56.3709 147.2 54.837 147.2C39.498 146.893 21.8581 147.507 21.8581 149.194C21.8581 152.108 31.2149 154.409 42.259 154.409C48.548 154.409 57.1378 156.25 63.887 161.159C66.648 163.153 69.1023 165.76 70.7896 168.828C72.3235 171.589 73.5506 174.811 74.0108 178.492C75.0845 187.082 62.3531 189.23 48.2412 189.23L42.7192 189.076C40.8785 189.076 39.0378 188.923 37.1971 188.77C30.6013 188.309 24.3123 187.542 19.864 186.929C18.4835 186.775 17.7166 188.616 19.0971 189.383C22.625 191.377 27.5335 193.985 32.9022 196.439C33.8225 196.9 34.8963 197.36 35.97 197.666C39.6514 199.2 43.4861 200.581 47.3209 201.808C52.2294 203.189 57.2912 204.109 61.7395 204.109C70.6362 204.109 76.465 199.967 80.2998 195.366C84.4413 190.304 86.5887 184.014 86.5887 177.418C86.7421 167.141 87.3557 146.126 87.6625 123.117C87.6625 121.276 87.6625 119.282 87.6625 117.288C87.6625 114.527 87.6625 111.612 87.6625 108.698C87.6625 106.397 87.6625 103.943 87.6625 101.642C88.2761 95.8127 88.1226 90.4439 88.1226 85.0751ZM74.1642 93.5118C74.1642 93.3584 74.1641 93.3584 74.0108 93.205C73.0904 89.3701 72.3235 84.6149 71.7099 80.0131C71.4031 77.5588 71.0963 75.2578 70.9429 72.9569C70.6362 69.5823 70.3294 66.6678 70.176 64.827C70.176 64.3669 70.3294 63.9067 70.4828 63.5999C70.9429 62.8329 71.8633 62.3727 72.7836 62.5261C73.5506 62.6795 74.3175 62.8329 74.9311 62.9863C77.5387 63.5999 79.993 64.5202 81.8337 65.2872C82.1404 65.4406 82.4472 65.594 82.754 65.7474C83.5209 66.0542 84.1345 66.6678 84.4413 67.2813C84.5947 67.5881 84.7481 68.0483 84.7481 68.3551C84.7481 68.5085 84.7481 68.6619 84.7481 68.8153C84.7481 70.3492 84.7481 71.7298 84.5947 73.2637C84.4413 75.1044 84.2879 76.7918 83.9811 78.4791C83.8277 79.7063 83.5209 80.78 83.2142 81.8538C82.754 83.5411 82.1404 85.2285 81.5269 86.609C80.7599 88.4498 79.993 89.9837 79.0726 91.3642C78.3057 92.5914 77.6921 93.5118 77.0786 94.2787C76.465 95.0457 75.5447 95.1991 74.7777 94.7389C74.6243 94.4321 74.3175 93.9719 74.1642 93.5118Z" fill="#1E1C31"/>
<path d="M20.0175 11.1389C18.9438 12.2127 18.1768 13.5933 18.0234 15.1272L17.4099 20.6494C16.7963 20.0358 16.3361 19.4222 15.876 18.9621L16.3362 14.9738C16.4895 13.1331 17.4099 11.2923 18.7904 10.0652C19.2505 10.372 19.7107 10.6788 20.0175 11.1389Z" fill="#1996EE"/>
<path d="M47.4743 44.8858C46.2472 45.0392 45.0201 45.346 43.793 46.1129C40.1116 42.7383 35.8167 38.75 31.6752 34.7618C33.8226 33.9948 36.1235 33.2278 38.7311 32.6143C41.9523 36.9093 45.0201 41.2043 47.4743 44.8858Z" fill="#1996EE"/>
<path d="M27.0735 45.0391C30.2946 45.9594 34.743 47.6468 39.1913 50.4079C37.9641 52.0952 36.1235 53.0156 34.1294 53.3224C30.6014 50.2545 27.9938 48.107 26.1531 46.7264C25.5395 45.9594 26.1531 44.7323 27.0735 45.0391Z" fill="#1996EE"/>
<path d="M88.2761 116.981C88.2761 118.975 88.2761 120.816 88.2761 122.81C87.049 120.969 85.6685 119.282 83.9812 117.901C82.6006 116.828 81.5269 115.6 80.9134 114.067C78.3057 107.931 71.0964 92.2845 59.1319 77.5587C58.8252 75.2578 58.5184 72.8035 58.365 70.5026C63.1201 77.0985 68.9489 85.075 74.3176 93.0515C74.6243 93.5117 75.0845 94.1253 75.3913 94.5855C80.4532 102.562 85.2083 110.538 88.2761 116.981Z" fill="#1996EE"/>
<path d="M72.0167 108.391C71.4031 108.851 70.4828 108.851 70.0227 108.238C69.2557 107.164 68.4888 106.243 67.7218 105.17C66.9548 104.096 66.3413 103.022 65.5743 102.102C64.0404 100.108 62.8133 97.9601 61.2794 95.966C60.8192 92.1311 60.2057 87.6827 59.7455 82.9275C59.7455 82.9275 59.7455 83.0809 59.8989 83.0809L61.126 84.6148C61.4328 85.075 61.893 85.6886 62.1997 86.1488C62.9667 87.2225 63.5802 88.2963 64.3472 89.3701C64.9608 90.4438 65.7277 91.671 66.3413 92.7447C67.7218 95.0456 68.7955 97.3465 69.8693 99.6475C70.943 101.948 71.8633 104.403 72.7837 106.857C72.6303 107.471 72.4769 108.084 72.0167 108.391Z" fill="#4263A8"/>
<path d="M64.5007 104.403C64.1939 105.016 63.5804 105.17 62.9668 104.863C62.8134 104.71 62.66 104.71 62.5066 104.556C62.5066 104.403 62.5066 104.403 62.5066 104.249C62.3532 103.329 62.1998 102.255 61.8931 101.028C62.0465 101.181 62.1999 101.335 62.3532 101.488C62.66 101.795 62.9668 101.948 63.2736 102.255C63.5803 102.562 63.8871 102.715 64.1939 102.869H64.3473C64.6541 103.176 64.8075 103.789 64.5007 104.403Z" fill="#8D67C3"/>
<path d="M71.0964 72.9569C71.4031 75.1044 71.5565 77.5588 71.8633 80.0131C71.7099 79.8597 71.7099 79.8597 71.7099 79.7063C71.0964 78.9393 70.4828 78.1723 69.8692 77.5588C69.5625 77.252 69.2557 76.7918 68.9489 76.485C68.6421 76.1782 68.3353 75.718 67.8752 75.4112L66.8014 74.4909L65.7277 73.5705C64.1938 72.3434 62.6599 71.2696 61.126 70.3492C60.6658 70.0424 60.359 69.4289 60.5124 68.8153C60.6658 68.0483 61.4328 67.7415 62.1997 67.8949C65.2675 68.9687 68.3353 70.8094 71.0964 72.9569Z" fill="#F376A2"/>
<path d="M88.2761 101.335C88.2761 103.636 88.2761 106.09 88.2761 108.391C87.9693 108.238 87.8159 108.084 87.8159 107.777C86.282 104.096 84.4413 100.568 82.754 97.0398C81.6803 95.0456 80.6066 93.0515 79.5328 91.2108C80.2998 89.8302 81.2201 88.2963 81.9871 86.4556C83.6744 89.3701 85.0549 92.4379 86.282 95.5058C86.8955 97.3466 87.6625 99.3407 88.2761 101.335Z" fill="#F376A2"/>
<path d="M86.282 139.377C85.9752 140.144 85.6684 140.911 85.3617 141.678C84.9015 142.445 84.4413 143.058 83.8278 143.825C83.521 144.132 83.0608 144.132 82.9074 143.825C82.6006 143.518 82.6006 143.058 82.9074 142.905C83.3676 142.445 83.8278 141.831 84.1345 141.217C84.4413 140.604 84.7481 139.837 85.0549 139.223C85.515 137.843 85.5151 136.309 85.3617 134.928C85.2083 133.394 84.5947 132.014 83.9811 130.633C83.3676 129.253 82.6006 128.026 81.6803 126.645C81.2201 126.031 80.76 125.418 80.2998 124.804C79.8396 124.191 79.3795 123.577 78.7659 123.117C77.6922 122.043 76.6184 120.816 75.5447 119.896C73.2438 117.901 70.7896 116.061 68.182 114.373C66.8014 113.606 65.421 112.686 64.1938 111.766C64.0404 110.539 63.7337 109.311 63.4269 107.777C65.421 109.311 67.415 110.845 69.5625 112.226C72.1701 113.913 74.7777 116.061 77.0786 118.208C78.1523 119.282 79.3794 120.509 80.2998 121.736C81.3735 122.963 82.2939 124.191 83.2142 125.571C84.1345 126.952 84.9015 128.332 85.515 129.713C86.1286 131.247 86.7422 132.781 86.8956 134.468C86.8956 136.002 86.7422 137.689 86.282 139.377Z" fill="#1CD0C5"/>
<path d="M42.4125 6.69058C40.265 6.69058 38.2709 6.84398 36.2769 6.99737C36.2769 6.69058 36.4302 6.38379 36.5836 6.077C36.737 5.77021 37.0438 5.46343 37.504 5.15664C38.1175 4.69645 39.0379 4.69645 39.6514 5.00324C39.8048 5.00324 39.8048 5.00324 39.9582 5.15664C40.8786 5.77021 41.6455 6.2304 42.4125 6.69058Z" fill="#4263A8"/>
<path d="M71.7101 46.4197C70.9431 46.7265 70.0228 46.2663 69.8694 45.4994C68.6423 41.6645 66.955 37.8297 64.6541 34.3016C64.1939 33.3812 63.5804 32.6143 62.9668 31.6939C62.5066 31.0803 62.0465 30.4667 61.5863 29.8532C62.8134 29.393 64.0405 28.9328 65.1143 28.3192C65.421 28.7794 65.7278 29.2396 66.0346 29.6998C66.6482 30.6201 67.2617 31.5405 67.7219 32.4609C69.8694 36.2957 71.5567 40.284 72.7838 44.579C72.9372 45.346 72.477 46.1129 71.7101 46.4197Z" fill="#4263A8"/>
<path d="M58.5184 43.3518C58.0583 43.5052 57.4447 43.1984 57.2913 42.7382C56.2176 39.9771 55.2973 37.216 54.6837 34.3015C54.3769 33.2278 54.2235 32.154 53.9167 30.9268C54.9905 30.9268 55.9108 30.7734 56.9845 30.7734C57.1379 31.6938 57.2913 32.7676 57.4447 33.6879C57.9049 36.449 58.5184 39.2101 59.2854 41.9712C59.2854 42.7382 58.9786 43.1984 58.5184 43.3518Z" fill="#4263A8"/>
<path d="M70.6362 54.0895C72.1701 57.004 73.5506 60.0718 75.0845 62.9863C74.3175 62.8329 73.704 62.6795 72.937 62.5261C72.0167 62.3728 71.0963 62.8329 70.6362 63.5999C69.2557 61.1456 68.0285 58.5379 66.8014 55.9302C65.2675 52.5555 63.887 49.1808 62.8133 45.6528C62.6599 45.0392 62.9666 44.2722 63.5802 43.812C64.3472 43.3519 65.2675 43.6586 65.5743 44.4256C67.415 47.4935 68.9489 50.8682 70.6362 54.0895Z" fill="#1CD0C5"/>
<path d="M87.049 83.2343C86.5889 83.6945 85.9753 83.8479 85.3618 83.3877C84.7482 82.7741 84.1346 82.3139 83.3677 81.7004C83.6745 80.6266 83.9812 79.5528 84.1346 78.3257C84.9016 79.3994 85.8219 80.6266 86.8957 81.547C87.3558 82.0071 87.3558 82.7741 87.049 83.2343Z" fill="#1CD0C5"/>
<path d="M27.3802 8.53136C26.6132 8.68475 25.9996 8.83814 25.3861 8.99154C24.7725 8.53135 24.159 8.07117 23.5454 7.76438C24.159 7.61099 24.7725 7.45759 25.3861 7.3042C25.9996 7.61099 26.6132 8.07117 27.3802 8.53136Z" fill="#8D67C3"/>
<path d="M50.5422 38.5966C49.4684 39.0567 48.2413 38.4432 47.7812 37.3694V37.216L46.8608 34.9151L46.4006 33.8413L45.9405 32.7676L45.3269 31.5404C46.7074 31.387 48.0879 31.2336 49.4684 31.2336L50.082 32.154L50.6956 33.3812L51.9227 35.6821V35.8355C52.0761 36.9092 51.6159 38.1364 50.5422 38.5966Z" fill="#8D67C3"/>
<path d="M75.8515 51.6351C76.1583 51.9419 81.3736 57.4641 84.5948 67.128C84.288 66.361 83.6744 65.9008 82.9075 65.594C82.6007 65.4406 82.2939 65.2872 81.9871 65.1338C78.7659 57.3107 74.6244 52.8623 74.6244 52.7089C74.3176 52.4021 74.3176 51.7885 74.6244 51.4817C74.9312 51.3283 75.5447 51.3283 75.8515 51.6351Z" fill="#19B4EE"/>
<path d="M85.2084 73.1103C84.9016 73.1103 84.9016 73.1103 84.7482 73.1103C84.9016 71.7297 84.9016 70.1958 84.9016 68.6618C84.9016 68.5084 84.9016 68.3551 84.9016 68.2017C85.2084 69.4288 85.6685 70.656 85.9753 72.0365C85.9753 72.6501 85.8219 73.1103 85.2084 73.1103Z" fill="#19B4EE"/>
<path d="M72.9372 129.713C72.6304 130.02 72.0168 129.866 71.71 129.559C69.8694 126.952 67.8753 124.651 65.5744 122.35C64.3473 120.969 62.9668 119.742 61.5863 118.515C62.5066 117.901 63.1202 117.288 63.5804 116.367C63.7337 116.521 64.0405 116.828 64.1939 116.981C65.4211 118.055 66.4948 119.282 67.5685 120.509C69.716 122.963 71.7101 125.571 73.0906 128.639C73.3973 128.946 73.2439 129.406 72.9372 129.713Z" fill="#1996EE"/>
<path d="M70.943 120.356C72.4769 122.503 74.0108 124.804 75.238 127.105C76.4651 129.406 77.6922 131.86 78.4592 134.315C78.6126 135.082 79.5329 135.542 80.2998 135.235C81.0668 135.082 81.5269 134.161 81.2202 133.394V133.241C79.993 130.633 78.4592 128.332 76.7719 126.031C75.0846 123.884 73.3973 121.736 71.4032 119.742C71.2498 119.589 71.0964 119.589 70.943 119.742C70.7897 120.049 70.7897 120.202 70.943 120.356Z" fill="#F376A2"/>
<path d="M68.0286 134.161C67.7218 134.928 66.8015 135.235 66.0345 134.928C62.6599 133.394 59.8989 131.093 57.4446 128.793C56.2175 127.565 54.9904 126.338 53.9167 124.958C52.843 123.577 51.7692 122.35 50.8489 120.816C50.8489 120.816 50.8489 120.816 50.8489 120.663C51.309 120.663 51.6158 120.663 52.076 120.663C52.9963 121.736 54.0701 122.964 55.1438 124.037C56.3709 125.264 57.598 126.338 58.8252 127.412C60.0523 128.486 61.4328 129.406 62.8133 130.326C64.1938 131.093 65.7277 131.86 67.1082 132.321H67.2616C68.0286 132.474 68.3354 133.394 68.0286 134.161Z" fill="#4263A8"/>
<path d="M60.9727 138.149C60.6659 138.456 60.2057 138.61 59.8989 138.61C59.2854 138.303 58.6718 138.149 58.2116 137.843L57.1379 136.616L55.9108 135.235C55.1438 134.315 54.3769 133.241 53.7633 132.321C52.9964 131.247 52.3828 130.326 51.9227 129.099C51.6159 128.486 51.3091 128.025 51.1557 127.412C51.0023 127.105 51.0023 126.798 50.8489 126.492C50.6956 126.185 50.6955 125.878 50.5421 125.571C50.3888 125.111 50.6955 124.804 51.0023 124.651C51.4625 124.497 51.9227 124.651 52.076 125.111V125.264C52.076 125.418 52.2295 125.725 52.3828 125.878C52.5362 126.185 52.6896 126.338 52.843 126.645C53.1498 127.105 53.4566 127.565 53.7633 128.025C54.3769 128.946 55.1438 129.866 55.9108 130.633C56.6777 131.4 57.4447 132.321 58.365 133.087L59.5922 134.161L60.9727 135.235C61.1261 135.235 61.1261 135.388 61.1261 135.388C61.893 136.155 61.893 137.383 60.9727 138.149Z" fill="#1996EE"/>
<path d="M72.9371 148.427C72.9371 149.654 72.7837 151.188 72.1702 152.568C71.5566 153.949 70.4829 155.023 69.2558 155.79C68.6422 156.25 68.0286 156.557 67.4151 156.71C66.8015 157.017 66.0346 157.17 65.2676 157.17C63.7337 157.324 62.0464 157.017 60.6659 156.403C59.2854 155.79 58.0583 154.869 57.1379 153.949C56.6777 153.489 56.2176 152.875 55.7574 152.415C55.604 152.108 55.2972 151.802 55.1438 151.648L54.8371 151.188C54.6837 151.035 54.6837 150.881 54.5303 150.574C53.9167 149.194 54.2235 147.66 55.4506 146.739L59.7456 146.893C60.0523 147.2 60.2057 147.506 60.5125 147.813V147.967L60.6659 148.273C60.8193 148.427 60.8193 148.734 60.9727 148.887C61.1261 149.347 61.4329 149.654 61.5863 149.961C62.0464 150.728 62.66 151.188 63.2735 151.648C63.8871 152.108 64.5007 152.262 65.1142 152.415C65.421 152.415 65.8812 152.415 66.188 152.415C66.6481 152.415 66.9549 152.262 67.4151 152.108C67.5685 152.108 67.7219 151.955 68.0286 151.802C68.182 151.648 68.3354 151.648 68.4888 151.495C68.7956 151.341 69.1024 151.035 69.2558 150.728C69.7159 150.114 70.0227 149.347 70.1761 148.427C70.1761 148.12 70.1761 147.813 70.1761 147.506C71.71 147.2 72.3236 144.899 70.7897 143.978C70.3295 143.672 70.0227 143.518 69.5626 143.211C69.4092 142.905 69.4092 142.598 69.2558 142.291C69.1024 141.831 69.2558 141.371 69.7159 141.064C70.1761 140.757 70.7897 140.911 71.0965 141.371C71.71 142.444 72.1702 143.518 72.6304 144.592C72.6304 145.973 72.7837 147.2 72.9371 148.427Z" fill="#19B4EE"/>
<path d="M75.0845 162.539C73.8574 164.226 72.6303 166.067 71.4032 168.521C69.5625 165.454 67.1082 162.846 64.5006 160.852C65.7277 161.005 66.8015 161.005 68.0286 160.698C72.6303 159.625 74.6244 153.642 76.465 150.728C77.5388 149.04 78.1523 139.99 79.993 141.984C83.3676 145.819 77.3854 159.318 75.0845 162.539Z" fill="#1CD0C5"/>
<path d="M48.7015 188.923C48.3947 191.991 47.9346 196.439 47.7812 201.501C43.9464 200.427 40.1117 198.894 36.4303 197.36C38.4244 194.598 40.7252 191.531 43.3329 188.77L48.7015 188.923Z" fill="#F376A2"/>
<path d="M9.12673 160.852C8.97334 161.005 8.97334 161.005 8.81995 161.159C8.35978 161.312 7.89962 161.465 7.43945 161.619C7.43945 161.005 7.59283 160.392 7.59283 159.778C7.89961 159.778 8.20639 159.625 8.35978 159.625C8.66656 159.625 8.97334 159.778 9.12673 160.085V160.238C9.43351 160.392 9.43351 160.698 9.12673 160.852Z" fill="#1CD0C5"/>
<path d="M9.74031 155.636C9.74031 156.097 9.58691 156.557 9.58691 157.017C8.97336 156.864 8.51321 156.71 7.89966 156.557C7.89966 156.097 8.05303 155.483 8.05303 155.023C8.20642 155.176 8.35981 155.176 8.5132 155.33C8.81998 155.33 9.28015 155.483 9.74031 155.636Z" fill="#4263A8"/>
<path d="M8.82004 165.147C8.20648 170.209 7.59292 174.811 6.97935 178.339C6.82596 178.799 6.51917 179.106 6.059 179.106H5.90563C5.44545 178.952 5.13867 178.492 5.13867 178.032C5.75223 174.657 6.36579 170.362 6.97935 165.607C7.13275 165.607 7.13274 165.607 7.28613 165.607C7.7463 165.3 8.20648 165.147 8.82004 165.147Z" fill="#19B4EE"/>
<path d="M11.2743 91.9778C11.8878 92.438 12.348 92.8981 12.9615 93.5117C12.5014 109.465 11.7344 128.946 10.3539 146.126C9.74034 145.973 9.28019 145.666 8.66663 145.359C10.0471 127.872 10.8141 108.084 11.2743 91.9778Z" fill="#1996EE"/>
<path d="M37.6574 188.463C36.5836 190.917 35.0497 193.525 33.3624 196.133C27.8404 193.678 23.0853 191.071 19.5573 189.076C18.3302 188.309 18.9438 186.469 20.3243 186.622C24.7726 187.236 31.0616 188.003 37.6574 188.463Z" fill="#8D67C3"/>
<path d="M16.7963 27.2453L15.876 36.1422C15.2624 36.449 14.6488 36.9092 14.0353 37.0626L15.2624 25.2512C15.8759 26.0182 16.3361 26.6318 16.7963 27.2453Z" fill="#1CD0C5"/>
</svg>
