<svg width="180" height="632" viewBox="0 0 180 632" fill="none" xmlns="http://www.w3.org/2000/svg">
<path opacity="0.05" d="M56.5 553.25L124 553.25C137.25 553.25 145.5 562.5 145.5 572.5C145.5 581 139.25 589 124.75 588.25L56.5 588.25L56.5 631.25L124.75 631.25C155 631.25 178.75 622.75 178.75 586.75C178.75 573 171.75 558.5 159 552.25C185.75 552.25 180.5 517 176.5 500.75L153.25 500.75C153.25 510.5 149.5 510.75 141.5 510.75L56.5 510.75L56.5 553.25ZM24.25 480.418C40.5 480.418 48.75 467.918 48.5 455.418C48.25 443.168 40.25 431.168 24.25 431.168C8.49998 431.168 0.499984 443.168 0.249987 455.418C-8.81339e-06 467.918 7.99998 480.418 24.25 480.418ZM58.25 434.668L58.25 476.918L177 477.168L177 434.668L58.25 434.668ZM176.75 413.158L176.75 369.408L1.99997 284.908L1.99997 328.658L176.75 413.158ZM56.5 192.898L124 192.898C137.25 192.898 145.5 202.148 145.5 212.148C145.5 220.648 139.25 228.648 124.75 227.898L56.5 227.898L56.5 270.898L124.75 270.898C155 270.898 178.75 262.398 178.75 226.398C178.75 212.648 171.75 198.148 159 191.898C185.75 191.898 180.5 156.648 176.5 140.398L153.25 140.398C153.25 150.148 149.5 150.398 141.5 150.398L56.5 150.398L56.5 192.898ZM143.5 63.0664L177 41.8164L177 0.316392L172.25 0.316393L115.75 40.0664L61.25 3.5664L56.5 3.5664L56.5 47.0664L83.75 63.8164L83.75 64.8164L56.5 82.3164L56.5 122.816L61.25 122.816L113 88.3164L172.25 129.316L177 129.316L177 85.3164L143.5 64.0664L143.5 63.0664Z" fill="white"/>
</svg>
