<?xml version="1.0" standalone="no"?>
<!DOCTYPE svg PUBLIC "-//W3C//DTD SVG 20010904//EN"
 "http://www.w3.org/TR/2001/REC-SVG-20010904/DTD/svg10.dtd">
<svg version="1.0" xmlns="http://www.w3.org/2000/svg"
 width="126.000000pt" height="126.000000pt" viewBox="0 0 126.000000 126.000000"
 preserveAspectRatio="xMidYMid meet">
<metadata>
Created by potrace 1.11, written by Peter Selinger 2001-2013
</metadata>
<g transform="translate(0.000000,126.000000) scale(0.100000,-0.100000)"
fill="#000000" stroke="none">
<path d="M32 629 l3 -623 286 1 c319 0 377 5 484 38 217 69 364 224 411 434
20 87 15 267 -10 343 -49 155 -157 281 -298 348 -149 71 -164 73 -541 78
l-337 3 2 -622z m663 337 c184 -44 279 -169 271 -356 -7 -162 -131 -297 -312
-339 -66 -16 -342 -21 -353 -7 -9 13 -8 697 1 712 11 17 309 9 393 -10z"/>
<path d="M512 630 l-1 -150 40 0 c92 0 167 38 190 97 25 66 -2 148 -60 178
-17 8 -62 18 -99 20 l-69 6 -1 -151z"/>
</g>
</svg>
