<svg width="456" height="145" viewBox="0 0 456 145" fill="none" xmlns="http://www.w3.org/2000/svg">
<path d="M79.4369 74.498C78.5719 74.8216 77.8151 75.253 77.0582 75.6844L74.7876 72.233C73.4901 73.0959 72.3007 74.1744 71.2194 75.3609C70.2463 76.5473 69.3813 77.9494 68.7326 79.4594L72.517 81.0773C72.1926 81.8323 71.8682 82.6952 71.7601 83.558L67.7595 82.6952C67.4351 84.313 67.327 85.823 67.4351 87.4409C67.6513 89.0588 67.9757 90.5687 68.5163 92.0788L72.3007 90.5688C72.6251 91.4316 73.0576 92.1866 73.4901 92.9416L70.0301 95.2066C70.8951 96.5009 71.9763 97.6873 73.1657 98.7659C74.3551 99.7366 75.7607 100.599 77.2744 101.247L78.8963 97.4716C79.6532 97.7952 80.5182 98.1188 81.3832 98.2266L80.5182 102.217C82.1401 102.541 83.6538 102.649 85.2757 102.541C86.8975 102.325 88.4113 102.002 89.9251 101.462L88.4113 97.6873C88.8438 97.5795 89.2763 97.3638 89.6007 97.1481C90.0332 96.9323 90.3575 96.7166 90.6819 96.5009L92.9525 99.9523C94.25 99.0895 95.4394 98.0109 96.5207 96.8245C97.4938 95.638 98.3588 94.2359 99.0075 92.7259L95.2232 91.108C95.5475 90.353 95.8719 89.4902 95.98 88.6273L99.9806 89.4902C100.305 87.8723 100.413 86.3623 100.305 84.7445C100.089 83.1266 99.7644 81.6166 99.2238 80.1066L95.4394 81.6166C95.115 80.7537 94.6825 79.9987 94.25 79.2437L97.71 76.9787C96.845 75.6844 95.7638 74.498 94.5744 73.4195C93.385 72.4487 91.9794 71.5859 90.4657 70.9387L88.8438 74.7137C88.1951 74.498 87.6544 74.2823 87.0057 74.0666C86.7894 74.0666 86.5732 73.9587 86.3569 73.9587L87.2219 69.968C85.6001 69.6444 84.0863 69.5366 82.4644 69.6445C80.8426 69.8602 79.3288 70.1837 77.8151 70.723L79.4369 74.498ZM83.5457 76.9787C84.6269 76.8709 85.7082 76.9787 86.7894 77.3023C90.4657 78.273 93.2769 81.5087 93.6013 85.4995C93.7094 87.1173 93.4931 88.6273 92.8444 90.0295C91.9794 91.9709 90.4657 93.5887 88.6275 94.5595C87.5463 95.0987 86.3569 95.5302 85.0594 95.638C79.9776 96.0695 75.4363 92.2945 75.0038 87.1173C74.5713 81.9402 78.3557 77.4102 83.5457 76.9787Z" fill="#1CD0C5"/>
<path d="M83.6534 79.0282C79.6528 79.3517 76.7334 82.911 77.0578 86.7939C77.3822 90.7846 80.9503 93.6968 84.8428 93.3732C85.8159 93.2653 86.789 93.0496 87.654 92.6182C89.1678 91.8632 90.249 90.5689 90.8978 89.1667C91.3303 88.0882 91.5465 86.9017 91.4384 85.6075C91.2222 82.4796 88.9516 79.9989 86.1403 79.2439C85.3834 79.0282 84.6265 78.9203 83.6534 79.0282Z" fill="#1CD0C5"/>
<path d="M61.7034 59.1823C65.7043 59.1823 68.9478 55.947 68.9478 51.9559C68.9478 47.9649 65.7043 44.7295 61.7034 44.7295C57.7024 44.7295 54.459 47.9649 54.459 51.9559C54.459 55.947 57.7024 59.1823 61.7034 59.1823Z" fill="#1CD0C5"/>
<path d="M56.8384 69.105C57.9197 69.4286 59.1091 69.6442 60.2985 69.7521C60.5147 70.2914 60.6228 70.9385 60.9472 71.4778C61.8122 71.5857 62.5691 71.4778 63.4341 71.4778C64.1909 71.37 65.0559 71.2621 65.8128 71.0464C65.9209 70.3993 66.0291 69.86 66.1372 69.2128C67.3266 68.8892 68.4078 68.5657 69.4891 68.0264C69.9216 68.4578 70.3541 68.7814 70.8947 69.2128C72.3003 68.4578 73.706 67.4871 74.8953 66.4086C74.6791 65.8693 74.4628 65.2221 74.2466 64.6828C75.1116 63.82 75.8685 62.9571 76.5172 61.9864C77.0578 62.0943 77.7066 62.2021 78.2472 62.31C78.4634 61.9864 78.6797 61.6628 78.8959 61.2314L79.4366 60.1528C79.8691 59.3978 80.0853 58.6428 80.3016 57.8878C79.8691 57.4564 79.3284 57.1328 78.8959 56.7014C79.2203 55.6228 79.4366 54.4364 79.5447 53.25C80.0853 53.0343 80.7341 52.9264 81.2747 52.6028C81.3828 51.74 81.2747 50.985 81.2747 50.1221C81.1666 49.3671 81.0584 48.5043 80.9503 47.7493C80.3016 47.6414 79.7609 47.5336 79.1122 47.4257C78.7878 46.2393 78.4634 45.1607 77.9228 44.0821C78.3553 43.6507 78.6797 43.2193 79.1122 42.68C78.6797 42.0328 78.3553 41.2779 77.8147 40.6307L77.0578 39.66C76.8416 39.3364 76.5172 39.0129 76.3009 38.6893C75.7603 38.905 75.1116 39.1207 74.5709 39.3364C73.8141 38.4736 72.8409 37.7186 71.8678 37.0714C71.9759 36.5321 72.0841 35.885 72.1922 35.2379C70.8947 34.375 69.2728 33.7279 67.7591 33.1886C67.3266 33.62 67.0022 34.1593 66.5697 34.5907C65.4884 34.2671 64.299 34.0514 63.1097 33.9436C62.8934 33.4043 62.7853 32.7571 62.461 32.2179C61.7041 32.11 60.8391 32.2179 59.9741 32.2179C59.1091 32.3257 58.3522 32.4336 57.5953 32.5414C57.4872 33.1886 57.3791 33.7279 57.2709 34.375C56.0816 34.6986 55.0003 35.0221 53.919 35.5614C53.4865 35.13 53.0541 34.8064 52.5134 34.375C51.1078 35.13 49.7022 36.1007 48.5128 37.1793C48.729 37.7186 48.9453 38.3657 49.1616 38.905C48.2966 39.7678 47.5397 40.6307 46.8909 41.6014C46.3503 41.4936 45.7016 41.3857 45.0528 41.2778C44.8366 41.6014 44.6203 41.925 44.4041 42.3564L43.8634 43.435C43.4309 44.19 43.2147 44.945 42.8903 45.7C43.3228 46.1314 43.8634 46.455 44.2959 46.8864C43.9716 47.965 43.7553 49.1514 43.6472 50.3378C43.1065 50.5536 42.4578 50.6614 41.9172 50.985C41.8091 51.74 41.9172 52.6028 41.9172 53.4657C42.0253 54.2207 42.1334 55.0835 42.3497 55.8385C42.8903 55.9464 43.539 56.0543 44.1878 56.1621C44.5122 57.3485 44.8366 58.4271 45.3772 59.5057C44.9447 59.9371 44.5122 60.3686 44.1878 60.9078C44.6203 61.555 44.9447 62.31 45.4853 62.9571L46.2422 63.9278C46.4584 64.2514 46.7828 64.575 46.9991 64.8985C47.5397 64.6828 48.1884 64.4671 48.7291 64.2514C49.5941 65.1143 50.4591 65.8692 51.4322 66.5164C51.3241 67.0557 51.2159 67.7028 51.1078 68.2421C52.5134 69.105 54.0272 69.7521 55.5409 70.2914C56.0815 70.0757 56.4059 69.6443 56.8384 69.105ZM50.3509 52.9264C49.8103 46.6707 54.4597 41.17 60.7309 40.6307C67.0022 40.0914 72.5166 44.7293 73.0572 50.985C73.5978 57.2407 68.9484 62.7414 62.6772 63.2807C56.4059 63.82 50.8916 59.1821 50.3509 52.9264Z" fill="#1CD0C5"/>
<path d="M14.0206 121.847C17.3725 124.22 21.1569 126.054 25.0494 127.024L26.3469 121.739C27.5362 122.063 28.7256 122.279 30.0231 122.386L29.4825 127.779C30.4556 127.887 31.5369 127.887 32.51 127.995C33.4831 127.995 34.5644 127.887 35.5375 127.887C36.5106 127.779 37.5919 127.671 38.565 127.456C39.5381 127.24 40.5112 127.024 41.5925 126.809L40.0787 121.524C41.2681 121.2 42.4575 120.769 43.5388 120.229L45.7013 125.191C49.4856 123.573 52.9456 121.2 55.7569 118.18L51.8644 114.405C52.7294 113.542 53.4863 112.571 54.2431 111.601L58.6763 114.836C59.8656 113.219 60.9469 111.385 61.8119 109.551L62.1362 108.904C62.2444 108.689 62.3525 108.473 62.4606 108.149L63.0013 106.747L63.2175 105.992C63.3256 105.776 63.3256 105.453 63.4337 105.237L63.8662 103.727L58.5681 102.433C58.8925 101.246 59.1088 100.06 59.2169 98.7657L64.6231 99.305C64.7313 98.3342 64.7312 97.2556 64.8394 96.2849C64.8394 95.3142 64.7312 94.2357 64.7312 93.2649C64.6231 92.2942 64.515 91.2156 64.2987 90.2449C64.0825 89.2742 63.8662 88.1957 63.65 87.2249L58.3519 88.7349C58.0275 87.5485 57.595 86.3621 57.0544 85.2835L62.0281 83.1264L61.3794 81.7242C61.2713 81.5085 61.1631 81.2928 61.055 81.0771L60.6225 80.4299L59.8656 79.1356C59.7575 78.9199 59.6494 78.7042 59.4331 78.4885L59.0006 77.8413C57.8112 76.1156 56.5137 74.6056 55 73.2035L51.4319 76.9785C50.5669 76.1156 49.5937 75.3606 48.6206 74.6056L51.8644 70.1835C48.5125 67.8107 44.7281 65.9771 40.8356 65.0064L39.5381 70.2913C38.3487 69.9678 37.1594 69.7521 35.8619 69.6442L36.4025 64.2514C35.3213 64.1435 34.3481 64.1435 33.375 64.0356C32.4019 64.0356 31.3206 64.1435 30.3475 64.1435C29.3744 64.2514 28.2931 64.4671 27.32 64.5749C26.3469 64.7906 25.3737 65.0064 24.2925 65.2221L25.8062 70.5071C24.6169 70.8306 23.4275 71.2621 22.3463 71.8014L20.1838 66.8399C16.3994 68.4578 13.0475 70.8307 10.1281 73.8507L14.0206 77.6257C13.1556 78.4885 12.3988 79.4592 11.6419 80.4299L7.20877 77.1942C6.01939 78.8121 4.93815 80.6457 4.07315 82.4792L3.74876 83.1264C3.64063 83.3421 3.53252 83.5578 3.42439 83.8814L2.88377 85.2835L2.55937 86.0385C2.45125 86.2542 2.45127 86.5778 2.34314 86.7935L1.91065 88.3035L7.20877 89.5978C6.88439 90.7842 6.66814 91.9707 6.56001 93.2649L1.15376 92.7257C1.04564 93.6964 1.04562 94.7749 0.9375 95.7456C0.9375 96.7164 1.04563 97.795 1.04563 98.7657C1.15376 99.7364 1.26187 100.815 1.47812 101.786C1.69437 102.756 1.91063 103.727 2.12688 104.806L7.425 103.296C7.74937 104.482 8.18189 105.669 8.72251 106.747L3.74876 108.904L4.39751 110.306C4.50564 110.522 4.61375 110.738 4.72187 110.954L5.1544 111.601L5.91125 112.895C6.01938 113.111 6.1275 113.326 6.34375 113.542L6.77627 114.189C7.96565 115.915 9.26313 117.425 10.7769 118.827L14.5613 114.944C15.4263 115.807 16.3994 116.562 17.3725 117.317L14.0206 121.847ZM11.75 97.7949C10.7769 86.1464 19.4269 75.7921 31.2125 74.8214C42.89 73.8506 53.27 82.4792 54.2431 94.2357C55.2162 105.884 46.5663 116.238 34.7806 117.209C22.995 118.18 12.7231 109.444 11.75 97.7949Z" fill="#1CD0C5"/>
<path d="M34.3483 111.924C43.2145 111.169 49.702 103.403 48.9452 94.667C48.1883 85.8227 40.4033 79.3513 31.6452 80.1063C22.7789 80.8613 16.2914 88.627 17.0483 97.3634C17.6971 106.1 25.482 112.679 34.3483 111.924ZM20.6164 97.0399C20.0758 90.2448 25.1577 84.2049 31.9695 83.6656C38.7814 83.1263 44.8364 88.0877 45.377 94.9906C45.9176 101.786 40.9439 107.826 34.0239 108.365C27.212 108.904 21.157 103.835 20.6164 97.0399Z" fill="#1CD0C5"/>
<path d="M33.4831 102.109C30.0231 102.433 27.1037 99.8442 26.7794 96.5006C26.455 93.0492 29.05 90.1371 32.4019 89.8135C35.8619 89.4899 38.7813 92.0785 39.1056 95.4221C39.43 98.8735 36.835 101.893 33.4831 102.109Z" fill="#96EADC"/>
<path d="M26.7794 96.5006C26.455 93.0492 29.05 90.1371 32.4019 89.8135C35.8619 89.4899 38.7813 92.0785 39.1056 95.4221C39.43 98.8735 36.835 101.786 33.4831 102.109C30.0231 102.433 27.1037 99.9521 26.7794 96.5006Z" fill="#96EADC"/>
<path d="M26.7794 96.5006C26.455 93.0492 29.05 90.1371 32.4019 89.8135C35.8619 89.4899 38.7813 92.0785 39.1056 95.4221C39.43 98.8735 36.835 101.786 33.4831 102.109C30.0231 102.433 27.1037 99.9521 26.7794 96.5006Z" fill="#1CD0C5"/>
<path d="M404.136 100.923C403.595 102.001 403.163 103.08 402.73 104.159L404.46 105.776C405.001 106.316 405.65 106.747 406.298 107.178C406.623 107.394 406.947 107.61 407.271 107.826L408.245 108.473L409.218 109.12L409.758 109.444L410.299 109.659C411.272 108.904 412.137 108.149 412.894 107.394C414.84 108.365 417.003 109.012 419.273 109.444C419.49 110.522 419.706 111.709 420.03 112.787C421.544 113.111 423.166 113.111 424.788 113.219C426.301 113.111 427.923 113.111 429.437 112.787C429.761 111.709 429.978 110.522 430.194 109.444C432.356 109.012 434.519 108.365 436.465 107.394C437.33 108.149 438.195 108.904 439.06 109.659L439.601 109.444L440.141 109.12L441.115 108.473L442.088 107.826C442.412 107.61 442.736 107.394 443.061 107.178C443.71 106.639 444.358 106.208 444.899 105.669L446.629 104.051C446.196 102.972 445.764 101.894 445.223 100.815C446.737 99.1971 448.035 97.3635 449.116 95.4221C450.305 95.5299 451.386 95.6378 452.576 95.7456C454.09 92.9413 454.955 89.9214 455.495 86.7935C454.522 86.1464 453.549 85.6071 452.576 84.9599C452.684 83.8813 452.792 82.8028 452.792 81.6163C452.792 80.5378 452.684 79.3514 452.576 78.2728C453.549 77.7335 454.522 77.0864 455.495 76.4392L455.279 75.2528L454.955 74.0663C454.738 73.3113 454.63 72.5564 454.306 71.8014L453.441 69.6442C453.116 68.8892 452.792 68.2421 452.468 67.4871C451.278 67.4871 450.197 67.5949 449.008 67.8106C447.926 65.8692 446.629 64.0356 445.115 62.4178C445.656 61.3392 446.088 60.2606 446.521 59.1821C444.25 57.0249 441.655 55.1913 438.952 53.6813C437.979 54.4363 437.114 55.1913 436.357 55.9464C434.411 54.9756 432.248 54.3285 429.978 53.8971C429.761 52.8185 429.545 51.6321 429.221 50.5535C427.707 50.2299 426.085 50.2299 424.571 50.1221C422.95 50.2299 421.436 50.2299 419.922 50.5535C419.598 51.6321 419.381 52.8185 419.165 53.8971C416.895 54.3285 414.84 55.0835 412.786 55.9464C411.921 55.1913 411.056 54.4363 410.191 53.6813C407.38 55.1913 404.785 57.0249 402.622 59.1821C403.055 60.2606 403.487 61.3392 404.028 62.4178C402.514 64.0356 401.216 65.8692 400.135 67.8106C398.946 67.5949 397.865 67.5949 396.675 67.4871C396.351 68.2421 395.918 68.8892 395.702 69.6442L394.945 71.9092C394.621 72.6642 394.513 73.4192 394.296 74.1742L393.972 75.3606L393.756 76.5471C394.729 77.1942 395.702 77.8413 396.783 78.3806C396.675 79.4592 396.567 80.5378 396.567 81.7242C396.567 82.8028 396.675 83.9892 396.783 85.0678C395.81 85.6071 394.837 86.2542 393.756 86.9014C394.296 90.0292 395.161 93.0492 396.675 95.8535C397.865 95.8535 398.946 95.7457 400.135 95.5299C401.325 97.4714 402.622 99.3049 404.136 100.923ZM436.573 81.8321C436.573 88.3035 431.383 93.4806 424.896 93.4806C418.408 93.4806 413.218 88.3035 413.218 81.8321C413.218 75.3606 418.408 70.1835 424.896 70.1835C431.275 70.1835 436.465 75.3606 436.573 81.8321Z" fill="#1CD0C5"/>
<path d="M395.594 57.8877C396.243 57.3484 396.783 56.8091 397.324 56.162L400.352 58.5348C401.325 57.3484 402.082 56.0541 402.622 54.652C403.163 53.2498 403.487 51.7398 403.703 50.2298L399.811 49.9063C399.919 49.0434 399.919 48.2884 399.811 47.4256L403.703 46.9941C403.487 45.4841 403.163 43.9741 402.514 42.572C401.865 41.1699 401.108 39.8756 400.135 38.6891L397.108 41.1699C396.567 40.5227 395.918 39.8756 395.378 39.4441L397.757 36.4241C396.567 35.4534 395.27 34.6984 393.864 34.1591C392.458 33.6199 390.945 33.1884 389.431 33.0806L389.107 36.9634C388.242 36.8556 387.485 36.8556 386.62 36.9634L386.187 33.0806C384.673 33.2963 383.16 33.6198 381.754 34.267C380.348 34.9141 379.051 35.6691 377.862 36.6399L380.348 39.6598C380.024 39.8756 379.7 40.1991 379.375 40.5227C379.051 40.8463 378.835 41.1699 378.51 41.4934L375.483 39.1206C374.51 40.307 373.753 41.6013 373.212 43.0034C372.671 44.4056 372.239 45.9156 372.131 47.4256L376.023 47.7491C375.915 48.612 375.915 49.367 376.023 50.2298L372.131 50.6613C372.347 52.1713 372.672 53.6813 373.32 55.0834C373.969 56.4856 374.726 57.7799 375.699 58.9663L378.727 56.4856C379.267 57.1327 379.916 57.7799 380.457 58.2113L378.078 61.2313C379.267 62.202 380.565 62.957 381.97 63.4963C383.376 64.0356 384.89 64.467 386.403 64.5748L386.728 60.692C387.377 60.7998 388.025 60.7998 388.566 60.692C388.782 60.692 388.998 60.692 389.215 60.5841L389.647 64.467C391.161 64.2513 392.675 63.9277 394.08 63.2806C395.486 62.6334 396.783 61.8784 397.973 60.9077L395.594 57.8877ZM391.161 56.8091C390.188 57.2406 389.107 57.4563 388.133 57.4563C384.565 57.672 380.997 55.6227 379.592 52.0634C378.943 50.6613 378.835 49.1513 378.943 47.7491C379.159 45.8077 380.024 43.8663 381.43 42.4641C382.187 41.6013 383.16 40.9541 384.349 40.5227C388.89 38.5813 394.08 40.7384 395.918 45.1606C397.757 49.7984 395.702 54.9756 391.161 56.8091Z" fill="#1CD0C5"/>
<path d="M390.404 55.0834C393.864 53.5734 395.486 49.5827 394.08 46.1313C392.567 42.6799 388.566 41.062 385.106 42.4642C384.241 42.7877 383.484 43.327 382.835 43.9742C381.754 45.0527 381.105 46.5627 380.889 48.0727C380.781 49.1513 380.889 50.3377 381.43 51.4163C382.619 54.1127 385.322 55.7306 388.134 55.6227C388.89 55.5149 389.647 55.407 390.404 55.0834Z" fill="#1CD0C5"/>
<path d="M421.978 41.3855C422.41 40.954 422.951 40.5226 423.275 40.0912L425.546 41.9247C426.195 41.0619 426.843 40.0912 427.276 39.0126C427.708 37.934 427.925 36.8555 428.033 35.7769L425.221 35.4533C425.33 34.8062 425.221 34.2669 425.221 33.6198L428.033 33.2962C427.925 32.2176 427.6 31.139 427.168 30.0605C426.735 29.0898 426.195 28.0112 425.438 27.1483L423.167 28.9819C422.735 28.5505 422.302 28.0112 421.87 27.6876L423.708 25.4226C422.843 24.7755 421.87 24.1283 420.788 23.6969C419.707 23.2655 418.626 23.0498 417.545 22.9419L417.22 25.7462C416.571 25.6383 416.031 25.7462 415.382 25.7462L415.058 22.9419C413.976 23.0498 412.787 23.3733 411.814 23.8048C410.841 24.2362 409.76 24.7755 408.895 25.5305L410.733 27.7955C410.516 28.0112 410.3 28.2269 410.084 28.4426C409.868 28.6583 409.651 28.874 409.435 29.0898L407.165 27.2562C406.516 28.119 405.867 29.0898 405.435 30.1683C405.002 31.2469 404.786 32.3255 404.678 33.404L407.489 33.7276C407.381 34.3747 407.489 34.914 407.489 35.5612L404.678 35.8847C404.786 36.9633 405.11 38.1497 405.543 39.1205C405.975 40.0912 406.516 41.1698 407.273 42.0326L409.543 40.199C409.976 40.6305 410.408 41.1698 410.841 41.4933L409.003 43.7583C409.868 44.4055 410.841 45.0526 411.922 45.484C413.003 45.9155 414.085 46.1312 415.166 46.239L415.49 43.4347C415.923 43.4347 416.463 43.4347 416.896 43.4347C417.004 43.4347 417.22 43.4347 417.328 43.4347L417.653 46.239C418.734 46.1312 419.815 45.8076 420.896 45.3762C421.87 44.9447 422.951 44.4055 423.816 43.6505L421.978 41.3855ZM418.734 40.6305C417.977 40.954 417.22 41.0619 416.463 41.1698C413.76 41.2776 411.165 39.7676 410.084 37.179C409.651 36.1005 409.543 35.0219 409.543 34.0512C409.651 32.5412 410.3 31.2469 411.381 30.1683C411.922 29.5212 412.679 29.0898 413.544 28.6583C416.896 27.2562 420.68 28.7662 422.086 32.1097C423.708 35.4533 422.086 39.2283 418.734 40.6305Z" fill="#1CD0C5"/>
<path d="M406.406 144.605H46.6742C39.538 144.605 33.6992 138.78 33.6992 131.662V107.394C33.6992 100.275 39.538 94.4512 46.6742 94.4512H406.406C413.542 94.4512 419.381 100.275 419.381 107.394V131.662C419.381 138.78 413.542 144.605 406.406 144.605Z" fill="white"/>
<path d="M85.5987 128.642L71.8668 119.474C73.0562 115.807 72.7319 111.708 70.5694 108.149C66.6769 101.677 58.2431 99.6282 51.7556 103.511C45.2681 107.394 43.2137 115.807 47.1062 122.278C50.9987 128.75 59.4325 130.799 65.92 126.916C66.8931 126.269 67.8662 125.622 68.6231 124.759L82.1387 133.711C83.1118 134.358 84.4094 134.142 85.0581 133.172L86.1394 131.554C86.7881 130.691 86.5719 129.397 85.5987 128.642ZM51.215 119.797C48.7281 115.699 50.0256 110.198 54.2425 107.717C58.4594 105.237 63.8656 106.531 66.3525 110.737C68.8393 114.836 67.5419 120.337 63.325 122.817C59.1081 125.298 53.7018 124.004 51.215 119.797Z" fill="#F46A91"/>
<path d="M105.385 124.866C105.385 126.699 104.737 128.209 103.331 129.288C101.925 130.367 100.195 130.906 97.9249 130.906C95.2217 130.906 93.1673 130.582 91.7617 130.043V128.533C93.3836 129.18 95.438 129.504 97.8167 129.504C99.6548 129.504 101.06 129.072 102.142 128.209C103.223 127.347 103.764 126.268 103.764 124.974C103.764 124.111 103.547 123.464 103.223 122.924C102.899 122.385 102.25 121.846 101.493 121.414C100.736 120.983 99.5467 120.444 98.033 119.904C95.7624 119.149 94.2486 118.287 93.3836 117.424C92.5186 116.561 92.0861 115.374 92.0861 113.864C92.0861 112.247 92.7348 110.844 94.0323 109.874C95.3298 108.795 96.9517 108.364 99.0061 108.364C101.06 108.364 103.007 108.795 104.845 109.55L104.304 110.844C102.466 110.089 100.736 109.658 99.0061 109.658C97.3842 109.658 96.0867 109.982 95.1136 110.737C94.1405 111.492 93.708 112.57 93.708 113.864C93.708 114.727 93.8161 115.374 94.1405 115.914C94.4649 116.453 94.8973 116.884 95.5461 117.316C96.1948 117.747 97.3842 118.287 99.0061 118.826C100.736 119.365 102.034 120.012 102.899 120.552C103.764 121.091 104.412 121.738 104.845 122.493C105.277 123.032 105.385 123.895 105.385 124.866Z" fill="#58368E"/>
<path d="M122.145 130.583H110.035V108.58H122.145V109.982H111.657V118.287H121.605V119.689H111.657V129.181H122.145V130.583Z" fill="#58368E"/>
<path d="M137.822 122.818H128.848L125.712 130.583H123.982L132.849 108.473H133.822L142.58 130.583H140.85L137.822 122.818ZM129.389 121.416H137.282L134.254 113.434C134.038 112.787 133.714 111.924 133.389 110.845C133.065 111.816 132.849 112.679 132.524 113.434L129.389 121.416Z" fill="#58368E"/>
<path d="M147.338 120.984V130.583H145.824V108.58H151.122C153.826 108.58 155.88 109.119 157.177 110.09C158.475 111.061 159.124 112.571 159.124 114.62C159.124 116.13 158.691 117.317 157.934 118.395C157.177 119.366 155.988 120.121 154.366 120.552L160.421 130.583H158.475L152.744 120.984H147.338ZM147.338 119.689H151.555C153.393 119.689 154.907 119.258 155.88 118.395C156.853 117.532 157.394 116.346 157.394 114.728C157.394 113.002 156.853 111.816 155.88 111.061C154.907 110.306 153.177 109.874 150.906 109.874H147.23V119.689H147.338Z" fill="#58368E"/>
<path d="M173.613 109.659C170.801 109.659 168.639 110.522 167.017 112.355C165.395 114.081 164.638 116.562 164.638 119.582C164.638 122.71 165.395 125.19 166.909 126.916C168.423 128.642 170.585 129.505 173.396 129.505C175.234 129.505 176.964 129.289 178.478 128.75V130.152C176.964 130.691 175.234 130.907 172.964 130.907C169.828 130.907 167.449 129.936 165.611 127.887C163.773 125.837 162.908 123.141 162.908 119.474C162.908 117.209 163.341 115.267 164.206 113.542C165.071 111.816 166.26 110.522 167.882 109.551C169.504 108.58 171.342 108.149 173.504 108.149C175.667 108.149 177.613 108.58 179.343 109.335L178.695 110.737C177.073 109.982 175.343 109.659 173.613 109.659Z" fill="#58368E"/>
<path d="M199.454 130.583H197.941V119.689H185.074V130.583H183.344V108.58H184.857V118.395H197.724V108.58H199.238V130.583H199.454Z" fill="#58368E"/>
<path d="M204.969 129.397C204.969 128.426 205.401 127.887 206.158 127.887C207.023 127.887 207.348 128.426 207.348 129.397C207.348 130.367 206.915 130.907 206.158 130.907C205.401 130.907 204.969 130.367 204.969 129.397Z" fill="#58368E"/>
<path d="M212.32 129.397C212.32 128.426 212.753 127.887 213.51 127.887C214.375 127.887 214.699 128.426 214.699 129.397C214.699 130.367 214.267 130.907 213.51 130.907C212.753 130.907 212.32 130.367 212.32 129.397Z" fill="#58368E"/>
<path d="M219.674 129.397C219.674 128.426 220.106 127.887 220.863 127.887C221.728 127.887 222.053 128.426 222.053 129.397C222.053 130.367 221.62 130.907 220.863 130.907C220.106 130.907 219.674 130.367 219.674 129.397Z" fill="#58368E"/>
<path d="M331.475 46.3471C331.475 61.3392 327.799 72.772 320.338 80.6456C312.986 88.5192 302.065 92.402 287.901 92.402C273.844 92.402 263.032 88.5192 255.571 80.6456C248.111 72.772 244.326 61.3392 244.326 46.2392C244.326 31.3549 248.002 20.0299 255.463 12.1563C262.924 4.28275 273.736 0.399902 288.009 0.399902C302.281 0.399902 313.094 4.28276 320.446 12.0485C327.799 19.8142 331.475 31.2471 331.475 46.3471ZM269.736 46.3471C269.736 63.6042 275.791 72.2328 287.792 72.2328C293.956 72.2328 298.497 70.1835 301.416 65.977C304.336 61.7706 305.849 55.1913 305.849 46.3471C305.849 37.3949 304.336 30.8156 301.308 26.6092C298.281 22.4028 293.847 20.2456 287.901 20.2456C275.791 20.1378 269.736 28.8742 269.736 46.3471Z" fill="#00A8A8"/>
<path d="M231.893 71.4779L236.434 73.6351H231.893V91.1079H183.237V93.2651L178.695 91.1079V1.69434H231.893L236.434 3.85148H231.893V21.1086H202.915V35.2379H229.73L234.272 37.2872H229.73V54.5443H202.915V71.4779H231.893Z" fill="#00A8A8"/>
<path d="M126.687 25.5306C126.687 27.2563 127.552 28.8741 129.39 30.2763C131.228 31.6784 136.094 34.1591 144.203 37.8263C151.88 41.2777 157.286 45.0527 160.314 48.9356C163.341 52.9263 164.855 57.8877 164.855 63.9277C164.855 69.4284 163.449 74.3899 160.638 78.7041C157.827 83.0184 153.718 86.362 148.42 88.7348C143.122 91.1077 136.851 92.2942 129.714 92.2942C123.768 92.2942 118.794 91.8627 114.685 90.9999C112.09 90.4606 109.387 89.7056 106.684 88.627V88.8427L102.143 86.6856V65.1141L106.576 67.1634L106.792 67.2713C110.036 68.6734 113.279 69.752 116.631 70.6149C121.605 71.9091 126.146 72.5563 130.363 72.5563C133.931 72.5563 136.634 71.9092 138.256 70.7227C139.878 69.4284 140.743 67.9184 140.743 65.8692C140.743 64.6827 140.419 63.6041 139.77 62.6334C139.121 61.6627 138.04 60.7999 136.526 59.8291C135.013 58.8584 131.012 57.0249 124.633 54.1127C118.794 51.4163 114.361 48.9356 111.441 46.4549C108.522 43.9741 106.359 41.1699 104.954 37.9341C103.548 34.6984 102.791 30.9234 102.791 26.5013C102.791 18.3041 105.819 11.8327 111.766 7.19486C117.821 2.557 126.038 0.291992 136.526 0.291992C145.825 0.291992 155.232 2.44914 164.963 6.65557L169.504 8.81272L164.423 7.84199L157.503 25.3149C149.177 21.5399 141.933 19.5984 135.769 19.5984C132.634 19.5984 130.363 20.1377 128.849 21.2163C127.444 22.5106 126.687 23.9127 126.687 25.5306Z" fill="#00A8A8"/>
<path d="M169.397 66.0849C169.397 71.5857 167.991 76.5471 165.18 80.8614C162.369 85.1757 158.26 88.5192 152.962 90.8921C147.664 93.265 141.392 94.4514 134.256 94.4514C128.309 94.4514 123.336 94.02 119.227 93.1571C115.226 92.2942 111.009 90.8921 106.576 88.735V67.1635C111.226 69.5364 115.983 71.37 120.957 72.6642C125.931 73.9585 130.472 74.6057 134.689 74.6057C138.257 74.6057 140.96 73.9585 142.582 72.7721C144.204 71.4778 145.069 69.9678 145.069 68.0264C145.069 66.84 144.744 65.7614 144.096 64.7907C143.447 63.82 142.366 62.9571 140.852 61.9864C139.338 61.0157 135.337 59.1821 128.958 56.27C123.119 53.5735 118.686 51.0928 115.767 48.6121C112.847 46.1314 110.685 43.2192 109.279 40.0914C107.874 36.8557 107.117 33.0807 107.117 28.6585C107.117 20.4614 110.144 13.9899 116.091 9.35209C122.146 4.71423 130.364 2.44922 140.852 2.44922C150.151 2.44922 159.557 4.60636 169.181 8.92065L161.72 27.5799C153.394 23.6971 146.15 21.8635 139.987 21.8635C136.851 21.8635 134.581 22.4028 133.175 23.4814C131.769 24.5599 131.012 25.9621 131.012 27.5799C131.012 29.3057 131.877 30.9235 133.716 32.3257C135.554 33.7278 140.419 36.2085 148.529 39.8757C156.206 43.3271 161.612 47.1021 164.639 50.9849C167.883 55.0835 169.397 60.1528 169.397 66.0849Z" fill="#1CD0C5"/>
<path d="M236.434 93.2651H183.236V3.85156H236.434V23.2658H207.456V37.2873H234.271V56.7016H207.456V73.5273H236.434V93.2651Z" fill="#1CD0C5"/>
<path d="M336.018 48.5043C336.018 63.4964 332.342 74.9293 324.881 82.8028C317.529 90.6764 306.608 94.5593 292.444 94.5593C278.387 94.5593 267.575 90.6764 260.114 82.8028C252.654 74.9293 248.869 63.4964 248.869 48.3964C248.869 33.5121 252.545 22.1871 260.006 14.3136C267.467 6.43998 278.279 2.55713 292.552 2.55713C306.824 2.55713 317.637 6.43999 324.989 14.2057C332.342 21.9714 336.018 33.4043 336.018 48.5043ZM274.387 48.5043C274.387 65.7614 280.442 74.39 292.444 74.39C298.607 74.39 303.148 72.3407 306.067 68.1343C308.987 63.9278 310.5 57.3486 310.5 48.5043C310.5 39.5521 308.987 32.9729 305.959 28.7664C302.932 24.56 298.499 22.4028 292.552 22.4028C280.442 22.295 274.387 31.0314 274.387 48.5043Z" fill="#1CD0C5"/>
</svg>
