<svg width="23" height="23" viewBox="0 0 23 23" fill="none" xmlns="http://www.w3.org/2000/svg">
<g clip-path="url(#clip0)">
<path d="M20.7707 6.36967H15.0077V4.93819H20.7712V6.36967H20.7707ZM11.1712 12.2397C11.543 12.8156 11.7289 13.515 11.7289 14.336C11.7289 15.185 11.5193 15.9467 11.0931 16.6195C10.8219 17.0647 10.4853 17.4408 10.0808 17.7436C9.62517 18.0937 9.08578 18.3338 8.46571 18.4621C7.84366 18.5906 7.17038 18.6555 6.44512 18.6555H0V4.34448H6.91141C8.65351 4.37282 9.88858 4.87756 10.6179 5.86879C11.0555 6.47672 11.2724 7.2062 11.2724 8.05412C11.2724 8.92905 11.0529 9.62912 10.611 10.161C10.3652 10.4592 10.002 10.7305 9.52132 10.9754C10.2495 11.2419 10.802 11.6617 11.1712 12.2397ZM3.30047 9.98659H6.32876C6.95108 9.98659 7.45416 9.86831 7.84162 9.63185C8.22882 9.39576 8.42202 8.97611 8.42202 8.37357C8.42202 7.70789 8.16621 7.26604 7.65335 7.05338C7.21251 6.90563 6.64848 6.82954 5.96407 6.82954H3.30047V9.98659ZM8.71361 14.1316C8.71361 13.3882 8.40978 12.8742 7.80334 12.5985C7.46421 12.4418 6.98573 12.3616 6.37224 12.3559H3.30047V16.1697H6.3247C6.946 16.1697 7.42689 16.0884 7.77393 15.9187C8.39978 15.6068 8.71361 15.0131 8.71361 14.1316ZM22.9089 11.8034C22.9785 12.2716 23.01 12.9509 22.9973 13.8388H15.5336C15.5748 14.8691 15.9304 15.5895 16.6049 16.0018C17.0117 16.2603 17.5049 16.3866 18.0824 16.3866C18.6913 16.3866 19.1877 16.2326 19.5697 15.9162C19.7779 15.7484 19.9615 15.5116 20.1203 15.2129H22.856C22.7843 15.8214 22.4549 16.4385 21.863 17.0656C20.9459 18.0624 19.6596 18.5622 18.0077 18.5622C16.6431 18.5622 15.4404 18.1407 14.3965 17.3007C13.3561 16.4577 12.8336 15.0906 12.8336 13.1942C12.8336 11.4159 13.3027 10.0547 14.2441 9.10728C15.1889 8.15808 16.4083 7.68564 17.9114 7.68564C18.8023 7.68564 19.6054 7.84488 20.3219 8.16503C21.0362 8.48549 21.6265 8.98985 22.0914 9.68302C22.5121 10.2935 22.7827 10.9993 22.9089 11.8034ZM20.2162 12.0704C20.166 11.3581 19.9282 10.8189 19.4999 10.4504C19.0752 10.0809 18.5445 9.89542 17.9114 9.89542C17.2224 9.89542 16.6903 10.0937 16.3123 10.4834C15.9316 10.8723 15.6948 11.4011 15.5977 12.0705H20.2162V12.0704Z" fill="white"/>
</g>
<defs>
<clipPath id="clip0">
<rect width="23" height="23" fill="white"/>
</clipPath>
</defs>
</svg>
