<svg width="15" height="15" viewBox="0 0 15 15" fill="none" xmlns="http://www.w3.org/2000/svg">
<g clip-path="url(#clip0)">
<path d="M1.9253 0H13.0747C14.1335 0 14.9998 0.783921 14.9998 1.92515V13.0749C14.9998 14.2161 14.1335 15 13.0747 15H1.9253C0.866164 15 0 14.2161 0 13.0749V1.92515C0 0.783921 0.866164 0 1.9253 0ZM10.9268 1.66656C10.5554 1.66656 10.2518 1.97028 10.2518 2.34191V3.95826C10.2518 4.32974 10.5554 4.63361 10.9268 4.63361H12.6222C12.9937 4.63361 13.2976 4.32974 13.2976 3.95826V2.34191C13.2976 1.97028 12.9937 1.66656 12.6222 1.66656H10.9268ZM13.3046 6.34345H11.9844C12.1094 6.75127 12.177 7.18327 12.177 7.63022C12.177 10.1252 10.0892 12.1477 7.51425 12.1477C4.93947 12.1477 2.85199 10.1252 2.85199 7.63022C2.85199 7.18297 2.91945 6.75112 3.04451 6.34345H1.66687V12.6797C1.66687 13.0075 1.93516 13.276 2.26321 13.276H12.7086C13.0367 13.276 13.3049 13.0077 13.3049 12.6797V6.34345H13.3046ZM7.51409 4.54844C5.85045 4.54844 4.50162 5.85523 4.50162 7.46743C4.50162 9.07963 5.85045 10.3864 7.51409 10.3864C9.17789 10.3864 10.5269 9.07963 10.5269 7.46743C10.5269 5.85523 9.17804 4.54844 7.51409 4.54844Z" fill="white"/>
</g>
<defs>
<clipPath id="clip0">
<rect width="15" height="15" fill="white"/>
</clipPath>
</defs>
</svg>
