<svg width="57" height="53" viewBox="0 0 57 53" fill="none" xmlns="http://www.w3.org/2000/svg">
<path d="M25.5441 52.0442C11.4586 52.0442 0 40.5856 0 26.5001C0 12.4146 11.4586 0.956055 25.5441 0.956055C39.6296 0.956055 51.0881 12.4163 51.0881 26.5001C51.0881 27.3061 50.4351 27.9608 49.6274 27.9608C48.8214 27.9608 48.1667 27.3078 48.1667 26.5001C48.1667 14.025 38.0175 3.87415 25.5424 3.87415C13.0657 3.87415 2.91646 14.025 2.91646 26.5001C2.91646 38.9752 13.0657 49.1244 25.5424 49.1244C33.5236 49.1244 40.9998 44.846 45.0545 37.9603C45.4641 37.2645 46.359 37.0359 47.0531 37.4438C47.7473 37.8518 47.9776 38.7466 47.5713 39.4424C42.9967 47.2147 34.555 52.0442 25.5441 52.0442Z" fill="#8D67C3"/>
<path d="M49.6268 27.9606C49.3751 27.9606 49.1185 27.8948 48.8866 27.7583L39.7392 22.3563C39.045 21.9468 38.8147 21.0519 39.2243 20.3578C39.6355 19.6636 40.5304 19.4333 41.2245 19.8445L49.2057 24.5573L54.3428 17.1995C54.8051 16.5382 55.7147 16.377 56.3743 16.8376C57.0356 17.2982 57.1968 18.2078 56.7362 18.8691L50.8243 27.3339C50.5414 27.7402 50.089 27.9606 49.6268 27.9606Z" fill="#8D67C3"/>
</svg>
