<svg width="122" height="40" viewBox="0 0 122 40" fill="none" xmlns="http://www.w3.org/2000/svg">
<path d="M50.3086 17.7237V8.56812H54.2188C57.1134 8.56812 59.2462 10.2692 59.2462 13.1208C59.2462 15.9726 57.1641 17.6736 54.2696 17.6736H50.3086V17.7237ZM56.8087 13.1709C56.8087 11.7701 55.9453 10.6694 54.2696 10.6694H52.7461V15.6724H54.2696C55.8438 15.6724 56.8087 14.5218 56.8087 13.1709Z" fill="white"/>
<path d="M60.1621 13.1709C60.1621 10.369 62.2951 8.46802 65.1389 8.46802C67.9826 8.46802 70.0648 10.4192 70.0648 13.1709C70.0648 15.9226 67.9318 17.8737 65.1389 17.8737C62.2442 17.8737 60.1621 15.9226 60.1621 13.1709ZM67.6272 13.1709C67.6272 11.67 66.6623 10.5192 65.1389 10.5192C63.6154 10.5192 62.5996 11.67 62.5996 13.1709C62.5996 14.6718 63.5645 15.8225 65.1389 15.8225C66.6115 15.8225 67.6272 14.6217 67.6272 13.1709Z" fill="white"/>
<path d="M76.6661 17.7237L75.0918 14.6718H73.873V17.7237H71.4863V8.56812H76.1075C78.1388 8.56812 79.3067 9.91884 79.3067 11.6199C79.3067 13.2209 78.3418 14.0714 77.4786 14.3716L79.3575 17.7237H76.6661ZM76.92 11.6199C76.92 11.0196 76.4121 10.6694 75.7519 10.6694H73.873V12.6206H75.7519C76.3614 12.6206 76.92 12.2704 76.92 11.6199Z" fill="white"/>
<path d="M80.2695 13.1709C80.2695 10.369 82.4025 8.46802 85.2463 8.46802C88.09 8.46802 90.1721 10.4192 90.1721 13.1709C90.1721 15.9226 88.0394 17.8737 85.2463 17.8737C82.4025 17.8737 80.2695 15.9226 80.2695 13.1709ZM87.7853 13.1709C87.7853 11.67 86.8204 10.5192 85.2971 10.5192C83.7736 10.5192 82.7579 11.67 82.7579 13.1709C82.7579 14.6718 83.7228 15.8225 85.2971 15.8225C86.7698 15.8225 87.7853 14.6217 87.7853 13.1709Z" fill="white"/>
<path d="M97.8438 17.7237V14.0714H93.9843V17.7237H91.5977V8.56812H93.9843V12.0202H97.8438V8.61807H100.231V17.7237H97.8438Z" fill="white"/>
<path d="M101.65 13.1709C101.65 10.369 103.783 8.46802 106.627 8.46802C109.471 8.46802 111.553 10.4192 111.553 13.1709C111.553 15.9226 109.42 17.8737 106.627 17.8737C103.783 17.8737 101.65 15.9226 101.65 13.1709ZM109.116 13.1709C109.116 11.67 108.151 10.5192 106.576 10.5192C105.053 10.5192 104.037 11.67 104.037 13.1709C104.037 14.6718 105.002 15.8225 106.576 15.8225C108.151 15.8225 109.116 14.6217 109.116 13.1709Z" fill="white"/>
<path d="M115.109 17.7237L111.605 8.56812H114.297L116.582 15.1722L118.867 8.56812H121.559L118.055 17.6736H115.109V17.7237Z" fill="white"/>
<path d="M50.3086 31.3825V22.277H54.2188C57.1134 22.277 59.2462 23.978 59.2462 26.8298C59.2462 29.6816 57.1641 31.3825 54.2696 31.3825H50.3086ZM56.8087 26.8298C56.8087 25.429 55.9453 24.3282 54.2696 24.3282H52.7461V29.3313H54.2696C55.8438 29.3313 56.8087 28.1805 56.8087 26.8298Z" fill="white"/>
<path d="M60.6699 31.3825V22.277H67.4241V24.3282H63.0059V25.729H67.3224V27.7804H63.0059V29.3313H67.4241V31.3825H60.6699Z" fill="white"/>
<path d="M68.4922 30.1311L69.7618 28.3799C70.4219 29.0303 71.4375 29.5806 72.7071 29.5806C73.5196 29.5806 74.0274 29.2805 74.0274 28.8301C74.0274 27.5795 68.7969 28.58 68.7969 25.0779C68.7969 23.527 70.1172 22.1761 72.504 22.1761C73.9767 22.1761 75.297 22.6264 76.2618 23.427L74.9416 25.128C74.1797 24.4776 73.1642 24.1774 72.25 24.1774C71.5392 24.1774 71.2344 24.4275 71.2344 24.8278C71.2344 25.9785 76.465 25.128 76.465 28.5301C76.465 30.3812 75.0939 31.5819 72.6056 31.5819C70.7267 31.5819 69.4062 30.9816 68.4922 30.1311Z" fill="white"/>
<path d="M77.8359 31.3825V22.277H80.2226V31.3825H77.8359Z" fill="white"/>
<path d="M81.6445 26.8294C81.6445 23.9277 83.879 22.1266 86.672 22.1266C88.7541 22.1266 89.9728 23.2272 90.633 24.328L88.6525 25.3285C88.297 24.7281 87.5861 24.1778 86.672 24.1778C85.1485 24.1778 84.0821 25.3285 84.0821 26.8294C84.0821 28.3303 85.1485 29.4811 86.672 29.4811C87.3321 29.4811 88.0431 29.231 88.3987 28.9308V28.2303H86.3165V26.1791H90.7853V29.8312C89.7698 30.9319 88.4493 31.6324 86.672 31.6324C83.9297 31.5824 81.6445 29.7312 81.6445 26.8294Z" fill="white"/>
<path d="M98.756 31.3826L94.8457 26.1293V31.4326H92.459V22.277H94.8965L98.6545 27.28V22.277H101.041V31.3826H98.756Z" fill="white"/>
<path d="M16.3364 0.262939H0.492188V39.6371H16.438C29.8445 39.6371 38.4776 31.8823 38.4776 19.925C38.4267 7.96775 29.7937 0.262939 16.3364 0.262939ZM15.9302 31.7323H8.87133V8.7182H16.0317C24.3092 8.7182 30.0984 11.9201 30.0984 19.975C30.0984 26.429 24.8171 31.7323 15.9302 31.7323Z" fill="white"/>
<path d="M17.5548 15.2723H15.7266V24.6281H17.5548C21.1604 24.6281 23.2932 22.4768 23.2932 19.8252C23.2424 16.5731 20.9065 15.2723 17.5548 15.2723Z" fill="white"/>
</svg>
