<svg width="54" height="54" viewBox="0 0 54 54" fill="none" xmlns="http://www.w3.org/2000/svg">
<g clip-path="url(#clip0)">
<path d="M36.4508 3.6C36.4508 1.61177 34.839 0 32.8508 0H7.65078C5.66256 0 4.05078 1.61177 4.05078 3.6V50.4C4.05078 52.3882 5.66256 54 7.65078 54H32.8508C34.839 54 36.4508 52.3882 36.4508 50.4V40.3344C37.5257 39.9544 38.2461 38.9401 38.2508 37.8C38.2488 37.3991 38.1565 37.0038 37.9808 36.6435L43.3943 31.23C43.7545 31.4061 44.1498 31.4984 44.5508 31.5C45.8643 31.5025 46.9881 30.5573 47.2106 29.2628C47.4332 27.9683 46.6897 26.702 45.4508 26.2656V9.9H49.0508C49.3697 9.90001 49.6649 9.7312 49.8266 9.45627C49.9883 9.18134 49.9924 8.84136 49.8374 8.5626L45.3374 0.4626C45.165 0.195358 44.8688 0.0339031 44.5508 0.0339031C44.2328 0.0339031 43.9365 0.195358 43.7642 0.4626L39.2642 8.5626C39.1092 8.84136 39.1133 9.18134 39.275 9.45627C39.4367 9.7312 39.7318 9.90001 40.0508 9.9H43.6508V26.2656C42.5759 26.6456 41.8555 27.6599 41.8508 28.8C41.8528 29.2009 41.945 29.5962 42.1208 29.9565L36.7073 35.37C36.6238 35.3304 36.5382 35.2956 36.4508 35.2656V3.6ZM7.65078 1.8H32.8508C33.8449 1.8 34.6508 2.60589 34.6508 3.6V26.5698C34.5271 26.4959 34.3991 26.4294 34.2674 26.3709L31.2443 25.0749C30.8898 24.9188 30.5954 24.652 30.4055 24.3144C31.9296 23.3181 32.8489 21.6208 32.8508 19.8V18C32.8508 15.0177 30.4331 12.6 27.4508 12.6C24.4684 12.6 22.0508 15.0177 22.0508 18V19.8C22.0526 21.6208 22.972 23.3181 24.4961 24.3144C24.3061 24.652 24.0118 24.9188 23.6573 25.0749L20.6423 26.37C20.5075 26.43 20.3768 26.4985 20.2508 26.5752C20.1272 26.5 19.9992 26.4323 19.8674 26.3727L16.8443 25.0767C16.4898 24.9206 16.1954 24.6538 16.0055 24.3162C17.5301 23.3196 18.4495 21.6215 18.4508 19.8V18C18.4508 15.0177 16.0331 12.6 13.0508 12.6C10.0684 12.6 7.65078 15.0177 7.65078 18V19.8C7.65265 21.6208 8.572 23.3181 10.0961 24.3144C9.90613 24.652 9.6118 24.9188 9.25728 25.0749L6.23598 26.37C6.10361 26.4287 5.97497 26.4954 5.85078 26.5698V3.6C5.85078 2.60589 6.65667 1.8 7.65078 1.8ZM23.8508 19.8V18C23.8508 16.0118 25.4626 14.4 27.4508 14.4C29.439 14.4 31.0508 16.0118 31.0508 18V19.8C31.0508 21.7882 29.439 23.4 27.4508 23.4C25.4626 23.4 23.8508 21.7882 23.8508 19.8ZM9.45078 19.8V18C9.45078 16.0118 11.0626 14.4 13.0508 14.4C15.039 14.4 16.6508 16.0118 16.6508 18V19.8C16.6508 21.7882 15.039 23.4 13.0508 23.4C11.0626 23.4 9.45078 21.7882 9.45078 19.8ZM34.6508 50.4C34.6508 51.3941 33.8449 52.2 32.8508 52.2H7.65078C6.65667 52.2 5.85078 51.3941 5.85078 50.4V29.682C5.85024 28.9604 6.28063 28.3083 6.94428 28.0251L9.96738 26.7291C10.7451 26.3935 11.3796 25.7944 11.7593 25.0371C12.6066 25.2543 13.495 25.2543 14.3423 25.0371C14.7219 25.7944 15.3564 26.3935 16.1342 26.7291L18.9332 27.9288C18.6239 28.4618 18.4577 29.0658 18.4508 29.682V38.7C18.4508 39.1971 18.8537 39.6 19.3508 39.6C19.8478 39.6 20.2508 39.1971 20.2508 38.7V29.682C20.2542 29.1682 20.4753 28.6798 20.8592 28.3383C21.001 28.206 21.1653 28.0999 21.3443 28.0251L24.3674 26.7291C25.1451 26.3935 25.7796 25.7944 26.1593 25.0371C27.0066 25.2543 27.895 25.2543 28.7423 25.0371C29.1219 25.7944 29.7564 26.3935 30.5342 26.7291L33.5591 28.026C34.2217 28.3096 34.6513 28.9612 34.6508 29.682V35.262C34.5078 35.3139 34.3694 35.3774 34.2368 35.4519L30.8555 32.49C30.9831 32.1755 31.0494 31.8394 31.0508 31.5C31.0508 30.0088 29.8419 28.8 28.3508 28.8C26.8596 28.8 25.6508 30.0088 25.6508 31.5C25.6508 32.9912 26.8596 34.2 28.3508 34.2C28.8125 34.1956 29.2652 34.0715 29.6648 33.84L33.0461 36.81C32.9185 37.1245 32.8522 37.4606 32.8508 37.8C32.8555 38.9401 33.5759 39.9544 34.6508 40.3344V50.4ZM28.3508 32.4C27.8537 32.4 27.4508 31.9971 27.4508 31.5C27.4508 31.0029 27.8537 30.6 28.3508 30.6C28.8478 30.6 29.2508 31.0029 29.2508 31.5C29.2508 31.9971 28.8478 32.4 28.3508 32.4ZM35.5508 38.7C35.1445 38.7001 34.7886 38.4279 34.6821 38.0359C34.5756 37.6438 34.745 37.229 35.0955 37.0236C35.446 36.8181 35.8907 36.873 36.1808 37.1574L36.1871 37.1673L36.197 37.1736C36.4486 37.4331 36.5205 37.818 36.3795 38.1509C36.2386 38.4837 35.9122 38.7 35.5508 38.7ZM41.5808 8.1L44.5508 2.7531L47.5208 8.1H41.5808ZM44.5508 27.9C44.9571 27.8999 45.313 28.1721 45.4195 28.5641C45.5259 28.9562 45.3565 29.371 45.006 29.5764C44.6555 29.7819 44.2109 29.727 43.9208 29.4426V29.43L43.9109 29.4237C43.662 29.1648 43.5908 28.7826 43.7299 28.4515C43.869 28.1203 44.1916 27.9036 44.5508 27.9Z" fill="#F376A2"/>
<path d="M18.4508 5.40059H22.0508C22.5478 5.40059 22.9508 4.99764 22.9508 4.50059C22.9508 4.00353 22.5478 3.60059 22.0508 3.60059H18.4508C17.9537 3.60059 17.5508 4.00353 17.5508 4.50059C17.5508 4.99764 17.9537 5.40059 18.4508 5.40059Z" fill="#F376A2"/>
<path d="M24.7496 5.40032C24.989 5.40275 25.2194 5.30871 25.3887 5.13939C25.558 4.97008 25.652 4.73975 25.6496 4.50032C25.6473 4.09408 25.3731 3.7398 24.9804 3.63564C24.5877 3.53148 24.174 3.70327 23.9706 4.05492C23.7672 4.40656 23.8245 4.85088 24.1106 5.13932C24.2831 5.30378 24.5113 5.397 24.7496 5.40032Z" fill="#F376A2"/>
<path d="M20.2508 45.0005C18.7596 45.0005 17.5508 46.2093 17.5508 47.7005C17.5508 49.1917 18.7596 50.4005 20.2508 50.4005C21.7419 50.4005 22.9508 49.1917 22.9508 47.7005C22.9508 46.2093 21.7419 45.0005 20.2508 45.0005ZM20.2508 48.6005C19.7537 48.6005 19.3508 48.1976 19.3508 47.7005C19.3508 47.2034 19.7537 46.8005 20.2508 46.8005C20.7478 46.8005 21.1508 47.2034 21.1508 47.7005C21.1508 48.1976 20.7478 48.6005 20.2508 48.6005Z" fill="#F376A2"/>
<path d="M9.45039 41.3999H8.55039C8.05333 41.3999 7.65039 41.8028 7.65039 42.2999C7.65039 42.797 8.05333 43.1999 8.55039 43.1999H9.45039C9.94745 43.1999 10.3504 42.797 10.3504 42.2999C10.3504 41.8028 9.94745 41.3999 9.45039 41.3999Z" fill="#F376A2"/>
<path d="M31.9504 41.3999H13.0504C12.5533 41.3999 12.1504 41.8028 12.1504 42.2999C12.1504 42.797 12.5533 43.1999 13.0504 43.1999H31.9504C32.4475 43.1999 32.8504 42.797 32.8504 42.2999C32.8504 41.8028 32.4475 41.3999 31.9504 41.3999Z" fill="#F376A2"/>
</g>
<defs>
<clipPath id="clip0">
<rect width="54" height="54" fill="white"/>
</clipPath>
</defs>
</svg>
