<svg width="51" height="51" viewBox="0 0 51 51" fill="none" xmlns="http://www.w3.org/2000/svg">
<path d="M51 26.3226V19.7223C51 17.8919 49.822 16.3086 48.0692 15.7829L42.7742 14.1943V12.9448C44.2639 11.9029 45.2419 10.1778 45.2419 8.22661V5.75806C45.2419 2.58302 42.6589 0 39.4839 0C36.3088 0 33.7258 2.58302 33.7258 5.75806V8.22581C33.7258 10.1778 34.7038 11.9029 36.1935 12.944V14.1935L31.5272 15.5937C29.776 14.0277 27.5448 13.1613 25.1759 13.1613C22.8166 13.1613 20.6581 14.0256 18.99 15.4499L14.8065 14.1943V12.9448C16.2962 11.9029 17.2742 10.1778 17.2742 8.22661V5.75806C17.2742 2.58302 14.6912 0 11.5161 0C8.34108 0 5.75806 2.58302 5.75806 5.75806V8.22581C5.75806 10.1778 6.73608 11.9029 8.22581 12.944V14.1935L2.93085 15.7821C1.17804 16.3086 0 17.8919 0 19.7223V26.3226H1.64516V19.7223C1.64516 18.6241 2.35166 17.6738 3.40399 17.3589L8.70056 15.7696C9.17933 16.3914 10.1055 17.2742 11.5161 17.2742C12.9267 17.2742 13.8529 16.3914 14.3317 15.7696L17.7052 16.7814C16.6344 18.1281 15.921 19.7672 15.7045 21.5606C14.6542 20.4444 13.1669 19.7419 11.5161 19.7419C8.34108 19.7419 5.75806 22.325 5.75806 25.5V27.9677C5.75806 29.9198 6.73608 31.6449 8.22581 32.6859V33.9355L2.93085 35.524C1.17804 36.0506 0 37.6339 0 39.4642V46.8871H9.87097C10.324 46.8871 10.6935 47.2566 10.6935 47.7097V51H40.3064V47.7097C40.3064 47.2566 40.676 46.8871 41.129 46.8871H51V39.4642C51 37.6339 49.822 36.0506 48.0692 35.5248L42.7742 33.9363V32.6867C44.2639 31.6449 45.2419 29.9198 45.2419 27.9685V25.5008C45.2419 22.3258 42.6589 19.7427 39.4839 19.7427C37.8733 19.7427 36.4173 20.4091 35.371 21.4783V20.6987C35.371 19.074 34.4881 17.6116 33.1105 16.8384L36.6683 15.7704C37.1471 16.3914 38.0733 17.2742 39.4839 17.2742C40.8945 17.2742 41.8207 16.3914 42.2994 15.7696L47.5968 17.3589C48.6483 17.6738 49.3548 18.6241 49.3548 19.7223V26.3226H51ZM11.5161 1.64516C13.7838 1.64516 15.629 3.49034 15.629 5.75806H11.8567C11.3342 5.75806 10.8217 5.54599 10.4526 5.17647L9.87097 4.59488L9.28938 5.17647C8.92026 5.54599 8.40775 5.75806 7.88521 5.75806H7.40323C7.40323 3.49034 9.24841 1.64516 11.5161 1.64516ZM7.40323 8.22581V7.40323H7.88521C8.60175 7.40323 9.28616 7.19758 9.87097 6.8136C10.4558 7.19758 11.1402 7.40323 11.8567 7.40323H15.629V8.22581C15.629 10.4935 13.7838 12.3387 11.5161 12.3387C9.24841 12.3387 7.40323 10.4935 7.40323 8.22581ZM11.5161 15.629C10.6417 15.629 10.075 14.8944 9.87097 14.5803V13.7421C10.3923 13.8975 10.9446 13.9839 11.5161 13.9839C12.0877 13.9839 12.6399 13.8975 13.1613 13.7413V14.5795C12.9573 14.8952 12.3905 15.629 11.5161 15.629ZM34.1271 30.0668C34.546 31.1307 35.2689 32.0405 36.1935 32.6867V33.9363L30.8994 35.5248C30.7251 35.5766 30.5556 35.6441 30.3901 35.7188L29.6129 35.5397V33.919C30.4921 33.2125 31.185 32.2847 31.6103 31.2211C32.5578 31.138 33.4463 30.7347 34.1271 30.0668ZM25.5 35.371C26.3728 35.371 27.2054 35.1967 27.9677 34.8866V35.7823L25.5 37.6331L23.0323 35.7823V34.8866C23.7946 35.1967 24.6272 35.371 25.5 35.371ZM22.0221 37.0812L24.0275 38.5858L21.9647 39.8237L21.4429 37.2153L22.0221 37.0812ZM24.5911 43.5968H26.4089L27.0488 49.3548H23.9512L24.5911 43.5968ZM26.5519 41.9516H24.4473L23.9749 40.535L25.5 39.6204L27.0243 40.535L26.5519 41.9516ZM26.9725 38.5858L28.9779 37.0812L29.5571 37.2145L29.0353 39.8229L26.9725 38.5858ZM33.0844 28.8052C32.7996 29.1177 32.4377 29.3366 32.0453 29.4699C32.0682 29.2462 32.0806 29.0197 32.0806 28.7903V24.8541C32.9659 25.1899 33.6246 25.9687 33.7134 26.8994C33.7808 27.6075 33.5579 28.2834 33.0844 28.8052ZM30.4355 28.7903C30.4355 31.5123 28.222 33.7258 25.5 33.7258C22.778 33.7258 20.5645 31.5123 20.5645 28.7903V24.6774H23.3572C25.1498 24.6774 26.8941 24.23 28.4537 23.3753L29.1044 24.6774H30.4355V28.7903ZM18.9547 29.4699C18.5623 29.3366 18.2004 29.1177 17.9156 28.8052C17.4421 28.2842 17.2192 27.6075 17.2866 26.9002C17.3754 25.9695 18.0341 25.1899 18.9194 24.8549V28.7903C18.9194 29.0197 18.9318 29.2462 18.9547 29.4699ZM19.3897 31.2211C19.8142 32.2847 20.5071 33.2125 21.3871 33.919V35.5397L20.6099 35.7188C20.4436 35.6441 20.2749 35.5774 20.1014 35.5248L14.8065 33.9363V32.6867C15.7302 32.0405 16.454 31.1307 16.8729 30.0668C17.5537 30.7347 18.4422 31.138 19.3897 31.2211ZM11.5161 21.3871C13.7838 21.3871 15.629 23.2323 15.629 25.5H15.1471C14.6245 25.5 14.112 25.2879 13.7429 24.9184L13.1613 24.3368L12.5797 24.9184C12.2106 25.2879 11.6981 25.5 11.1755 25.5H7.40323C7.40323 23.2323 9.24841 21.3871 11.5161 21.3871ZM7.40323 27.9677V27.1452H11.1755C11.8921 27.1452 12.5765 26.9395 13.1613 26.5555C13.7461 26.9395 14.4305 27.1452 15.1471 27.1452H15.629V27.9677C15.629 30.2355 13.7838 32.0806 11.5161 32.0806C9.24841 32.0806 7.40323 30.2355 7.40323 27.9677ZM11.5161 33.7258C12.0877 33.7258 12.6399 33.6395 13.1613 33.4832V34.3215C12.9573 34.6371 12.3905 35.371 11.5161 35.371C10.6417 35.371 10.075 34.6363 9.87097 34.3223V33.484C10.3923 33.6395 10.9446 33.7258 11.5161 33.7258ZM9.87097 45.2419H6.58065V39.4839H4.93548V45.2419H1.64516V39.4642C1.64516 38.3661 2.35166 37.4158 3.40399 37.1009L8.70056 35.5115C9.17933 36.1333 10.1055 37.0161 11.5161 37.0161C12.9267 37.0161 13.8529 36.1333 14.3317 35.5115L17.4509 36.4478L15.1567 36.9768C12.5287 37.5837 10.6935 39.8911 10.6935 42.5874V43.5968H12.3387V42.5874C12.3387 40.6611 13.6501 39.0135 15.527 38.5798L19.8391 37.5845L20.8087 42.4344L22.5298 41.4022L23.0166 42.863L22.296 49.3548H18.0968V42.7742H16.4516V49.3548H12.3387V47.7097C12.3387 46.3493 11.2314 45.2419 9.87097 45.2419ZM47.596 37.1009C48.6483 37.4158 49.3548 38.3661 49.3548 39.4642V45.2419H46.0645V39.4839H44.4194V45.2419H41.129C39.7686 45.2419 38.6613 46.3493 38.6613 47.7097V49.3548H34.5484V42.7742H32.9032V49.3548H28.704L27.9826 42.863L28.4694 41.4022L30.1905 42.4344L31.1601 37.5845L35.473 38.5798C37.3499 39.0135 38.6613 40.6611 38.6613 42.5874V43.5968H40.3064V42.5874C40.3064 39.8911 38.4713 37.5837 35.8433 36.9768L33.5491 36.4478L36.6683 35.5115C37.1471 36.1333 38.0733 37.0161 39.4839 37.0161C40.8945 37.0161 41.8207 36.1333 42.2994 35.5115L47.596 37.1009ZM41.129 34.3223C40.925 34.6371 40.3583 35.371 39.4839 35.371C38.6079 35.371 38.0403 34.6339 37.8387 34.3223V33.4832C38.3601 33.6395 38.9123 33.7258 39.4839 33.7258C40.0554 33.7258 40.6077 33.6395 41.129 33.4832V34.3223ZM39.4839 32.0806C37.2162 32.0806 35.371 30.2355 35.371 27.9677V27.1452H35.8529C36.5695 27.1452 37.2539 26.9395 37.8387 26.5555C38.4235 26.9395 39.1079 27.1452 39.8245 27.1452H43.5968V27.9677C43.5968 30.2355 41.7516 32.0806 39.4839 32.0806ZM39.4839 21.3871C41.7516 21.3871 43.5968 23.2323 43.5968 25.5H39.8245C39.3019 25.5 38.7894 25.2879 38.4203 24.9184L37.8387 24.3368L37.2571 24.9184C36.888 25.2879 36.3755 25.5 35.8529 25.5H35.371C35.371 23.2323 37.2162 21.3871 39.4839 21.3871ZM33.7258 23.9247C32.998 23.3737 32.0939 23.0323 31.1167 23.0323H30.1214L29.1096 21.0087L28.3344 21.5253C26.8548 22.5117 25.1341 23.0323 23.3572 23.0323H19.8833C18.9061 23.0323 18.002 23.3737 17.2742 23.9247V22.7081C17.2742 18.3518 20.8196 14.8065 25.1759 14.8065C27.2865 14.8065 29.2715 15.6282 30.7636 17.1204L31.6364 17.9931L31.8208 18.055C32.9599 18.435 33.7258 19.4969 33.7258 20.6979V23.9247ZM39.4839 1.64516C41.7516 1.64516 43.5968 3.49034 43.5968 5.75806H43.1148C42.5922 5.75806 42.0797 5.54599 41.7106 5.17647L41.129 4.59488L40.5474 5.17647C40.1783 5.54599 39.6658 5.75806 39.1433 5.75806H35.371C35.371 3.49034 37.2162 1.64516 39.4839 1.64516ZM35.371 8.22581V7.40323H39.1433C39.8598 7.40323 40.5442 7.19758 41.129 6.8136C41.7138 7.19758 42.3982 7.40323 43.1148 7.40323H43.5968V8.22581C43.5968 10.4935 41.7516 12.3387 39.4839 12.3387C37.2162 12.3387 35.371 10.4935 35.371 8.22581ZM39.4839 15.629C38.6079 15.629 38.0403 14.892 37.8387 14.5803V13.7413C38.3601 13.8975 38.9123 13.9839 39.4839 13.9839C40.0554 13.9839 40.6077 13.8975 41.129 13.7413V14.5795C40.925 14.8952 40.3583 15.629 39.4839 15.629Z" fill="#F376A2"/>
<path d="M18.9199 0H20.5651V1.64516H18.9199V0Z" fill="#F376A2"/>
<path d="M18.9199 3.29053H20.5651V12.3389H18.9199V3.29053Z" fill="#F376A2"/>
<path d="M30.4355 0H32.0807V1.64516H30.4355V0Z" fill="#F376A2"/>
<path d="M30.4355 3.29053H32.0807V12.3389H30.4355V3.29053Z" fill="#F376A2"/>
<path d="M22.209 3.29053H23.8541V9.04859H22.209V3.29053Z" fill="#F376A2"/>
<path d="M22.209 10.6934H23.8541V12.3385H22.209V10.6934Z" fill="#F376A2"/>
<path d="M27.1445 3.29053H28.7897V9.04859H27.1445V3.29053Z" fill="#F376A2"/>
<path d="M27.1445 10.6934H28.7897V12.3385H27.1445V10.6934Z" fill="#F376A2"/>
</svg>
