<svg width="62" height="62" viewBox="0 0 62 62" fill="none" xmlns="http://www.w3.org/2000/svg">
<path d="M59.0938 0.96875H2.90625C1.30115 0.96875 0 2.2699 0 3.875V46.5C0 47.035 0.433758 47.4688 0.96875 47.4688H23.0369L21.4869 55.2188H19.375C18.84 55.2188 18.4062 55.6525 18.4062 56.1875V59.0938H16.4688V61.0312H45.5312V59.0938H43.5938V56.1875C43.5938 55.6525 43.16 55.2188 42.625 55.2188H40.5116L38.9616 47.4688H61.0312C61.5662 47.4688 62 47.035 62 46.5V3.875C62 2.2699 60.6988 0.96875 59.0938 0.96875ZM39.7188 57.1562H41.6562V59.0938H20.3438V57.1562H22.2812H39.7188ZM23.4631 55.2188L25.0117 47.4688H36.9869L38.5369 55.2188H23.4631ZM60.0625 45.5312H1.9375V36.8125H15.5H21.3125H27.125H32.9375H38.75H46.5H60.0625V45.5312ZM46.5 9.6875H38.75C38.215 9.6875 37.7812 10.1213 37.7812 10.6562V19.375H39.7188V11.625H45.5312V15.5H41.6562V17.4375H45.5312V22.2812H41.6562V24.2188H45.5312V29.0625H41.6562V31H45.5312V34.875H39.7188V27.125H37.7812V34.875H33.9062V30.0312C33.9062 26.0778 38.7074 25.2088 38.9089 25.1739C39.0283 25.154 39.1428 25.1118 39.2467 25.0496C39.7058 24.7747 39.8551 24.1798 39.5802 23.7208L30.8615 9.18956C30.7912 9.08712 30.7027 8.9986 30.6003 8.92836C30.1418 8.61413 29.5153 8.73098 29.201 9.18956L20.4823 23.7208C20.4204 23.824 20.3783 23.9378 20.3582 24.0565C20.2684 24.584 20.6232 25.0842 21.1507 25.1739C21.3551 25.2088 26.1562 26.0778 26.1562 30.0312V34.875H22.2812V27.125H20.3438V34.875H19.375V17.4375H20.3438V19.375H22.2812V16.4688C22.2815 16.3375 22.2549 16.2076 22.2028 16.0871L19.2965 9.30581C19.1986 9.07743 19.0166 8.89543 18.7882 8.79746C18.2965 8.58652 17.7269 8.81417 17.516 9.30581L14.6097 16.0871C14.5576 16.2076 14.531 16.3375 14.5312 16.4688V34.875H6.78125V7.75H55.2188V34.875H47.4688V10.6562C47.4688 10.1213 47.035 9.6875 46.5 9.6875ZM28.0938 31.9688V31H31.9688V31.9688H28.0938ZM31.9688 33.9062V34.875H28.0938V33.9062H31.9688ZM28.023 29.0625C27.559 25.9819 24.9211 24.3156 22.8112 23.6036L29.0625 13.1853V21.3125H31V13.1853L37.2513 23.6036C35.1395 24.3108 32.5035 25.9819 32.0395 29.0625H28.023ZM16.9671 15.5L18.4062 12.1423L19.8454 15.5H16.9671ZM17.4375 17.4375V34.875H16.4688V17.4375H17.4375ZM60.0625 34.875H57.1562V6.78125C57.1562 6.24626 56.7225 5.8125 56.1875 5.8125H5.8125C5.27751 5.8125 4.84375 6.24626 4.84375 6.78125V34.875H1.9375V3.875C1.9375 3.34001 2.37126 2.90625 2.90625 2.90625H59.0938C59.6287 2.90625 60.0625 3.34001 60.0625 3.875V34.875Z" fill="#F376A2"/>
<path d="M31 37.7812C29.3949 37.7812 28.0938 39.0824 28.0938 40.6875C28.0938 42.2926 29.3949 43.5938 31 43.5938C32.6051 43.5938 33.9062 42.2926 33.9062 40.6875C33.9062 39.0824 32.6051 37.7812 31 37.7812ZM31 41.6562C30.465 41.6562 30.0312 41.2225 30.0312 40.6875C30.0312 40.1525 30.465 39.7188 31 39.7188C31.535 39.7188 31.9688 40.1525 31.9688 40.6875C31.9688 41.2225 31.535 41.6562 31 41.6562Z" fill="#F376A2"/>
</svg>
