<svg width="54" height="54" viewBox="0 0 54 54" fill="none" xmlns="http://www.w3.org/2000/svg">
<g clip-path="url(#clip0)">
<path d="M30.5999 54H23.4001C22.9032 54 22.4999 53.5967 22.4999 53.0998V49.9502C22.4999 48.914 21.8394 47.9961 20.8927 47.718C19.4347 47.2887 18.0179 46.7029 16.6814 45.9737C15.8084 45.4986 14.6882 45.6758 13.9565 46.4075L11.7268 48.6367C11.375 48.989 10.8064 48.989 10.4546 48.6367L5.36325 43.5454C5.011 43.1936 5.011 42.625 5.36325 42.2732L7.59251 40.0435C8.32338 39.3118 8.50218 38.1916 8.02634 37.3186C7.29712 35.9821 6.71127 34.5645 6.28198 33.1073C6.00389 32.1606 5.08598 31.5001 4.04984 31.5001H0.900192C0.403336 31.5001 0 31.0968 0 30.5999V23.4001C0 22.9032 0.403336 22.4999 0.900192 22.4999H4.04984C5.08598 22.4999 6.00389 21.8394 6.28198 20.8927C6.71127 19.4339 7.29712 18.017 8.02634 16.6814C8.50136 15.8084 8.32338 14.6882 7.59251 13.9565L5.36325 11.7268C5.011 11.375 5.011 10.8064 5.36325 10.4546L10.4546 5.36325C10.8064 5.011 11.375 5.011 11.7268 5.36325L13.9565 7.59251C14.6882 8.32338 15.8096 8.50218 16.6814 8.02634C18.0179 7.29712 19.4355 6.71127 20.8927 6.28198C21.8394 6.00389 22.4999 5.08598 22.4999 4.04984V0.900192C22.4999 0.403336 22.9032 0 23.4001 0H30.5999C31.0968 0 31.5001 0.403336 31.5001 0.900192V4.04984C31.5001 5.08598 32.1606 6.00389 33.1073 6.28198C34.5653 6.71127 35.9821 7.29712 37.3186 8.02634C38.1916 8.50053 39.3118 8.32338 40.0435 7.59251L42.2732 5.36325C42.625 5.011 43.1936 5.011 43.5454 5.36325L48.6367 10.4546C48.989 10.8064 48.989 11.375 48.6367 11.7268L46.4075 13.9565C45.6766 14.6882 45.4978 15.8084 45.9737 16.6814C46.7021 18.017 47.2887 19.4347 47.718 20.8927C47.9961 21.8394 48.914 22.4999 49.9502 22.4999H53.0998C53.5967 22.4999 54 22.9032 54 23.4001V30.5999C54 31.0968 53.5967 31.5001 53.0998 31.5001H49.9502C48.914 31.5001 47.9961 32.1606 47.718 33.1073C47.2887 34.5653 46.7029 35.9821 45.9737 37.3186C45.4986 38.1916 45.6766 39.3118 46.4075 40.0435L48.6367 42.2732C48.989 42.625 48.989 43.1936 48.6367 43.5454L43.5454 48.6367C43.1936 48.989 42.625 48.989 42.2732 48.6367L40.0435 46.4075C39.3118 45.6758 38.1916 45.4995 37.3186 45.9737C35.9821 46.7029 34.5645 47.2887 33.1073 47.718C32.1606 47.9961 31.5001 48.914 31.5001 49.9502V53.0998C31.5001 53.5967 31.0968 54 30.5999 54ZM24.2998 52.2H29.7002V49.9502C29.7002 48.1214 30.8925 46.4932 32.5997 45.991C33.9354 45.5983 35.2332 45.0611 36.458 44.3941C38.0268 43.5392 40.025 43.8445 41.3174 45.1361L42.9101 46.7288L46.7288 42.9101L45.1361 41.3174C43.8437 40.025 43.5392 38.0268 44.3941 36.458C45.0611 35.2332 45.5983 33.9354 45.991 32.5997C46.4932 30.8925 48.1214 29.7002 49.9502 29.7002H52.2V24.2998H49.9502C48.1214 24.2998 46.4932 23.1075 45.991 21.4003C45.5975 20.0638 45.0603 18.766 44.3941 17.542C43.5392 15.9732 43.8445 13.975 45.1361 12.6826L46.7288 11.0899L42.9101 7.27199L41.3174 8.86514C40.025 10.1575 38.0268 10.4616 36.458 9.60672C35.2332 8.93971 33.9354 8.40248 32.5997 8.00986C30.8925 7.50682 29.7002 5.87865 29.7002 4.04984V1.79997H24.2998V4.04984C24.2998 5.87865 23.1075 7.50682 21.4003 8.00903C20.0646 8.40166 18.7668 8.93889 17.542 9.6059C15.9732 10.4608 13.975 10.1555 12.6826 8.86391L11.0899 7.27116L7.27199 11.0899L8.86514 12.6826C10.1575 13.975 10.4616 15.9732 9.60672 17.542C8.93971 18.766 8.40248 20.0638 8.00986 21.4003C7.50682 23.1075 5.87865 24.2998 4.04984 24.2998H1.79997V29.7002H4.04984C5.87865 29.7002 7.50682 30.8925 8.00903 32.5997C8.40166 33.9354 8.93889 35.2332 9.6059 36.458C10.4608 38.0268 10.1555 40.025 8.86391 41.3174L7.27116 42.9101L11.0899 46.7288L12.6826 45.1361C13.975 43.8437 15.9732 43.5392 17.542 44.3941C18.7668 45.0611 20.0646 45.5983 21.4003 45.991C23.1075 46.4932 24.2998 48.1214 24.2998 49.9502V52.2Z" fill="#F376A2"/>
<path d="M27.0001 45.0003C17.075 45.0003 9 36.9253 9 27.0001C9 17.075 17.075 9 27.0001 9C36.9253 9 45.0003 17.075 45.0003 27.0001C45.0003 36.9253 36.9253 45.0003 27.0001 45.0003ZM27.0001 10.8C18.0678 10.8 10.8 18.0678 10.8 27.0001C10.8 35.9324 18.0678 43.2003 27.0001 43.2003C35.9324 43.2003 43.2003 35.9324 43.2003 27.0001C43.2003 18.0678 35.9324 10.8 27.0001 10.8Z" fill="#F376A2"/>
<path d="M27.0018 19.8001C26.5049 19.8001 26.1016 19.3968 26.1016 18.8999V6.30009C26.1016 5.80324 26.5049 5.3999 27.0018 5.3999C27.4986 5.3999 27.9019 5.80324 27.9019 6.30009V18.8999C27.9019 19.3968 27.4986 19.8001 27.0018 19.8001Z" fill="#F376A2"/>
<path d="M27.0018 48.5999C26.5049 48.5999 26.1016 48.1966 26.1016 47.6997V35.0999C26.1016 34.603 26.5049 34.1997 27.0018 34.1997C27.4986 34.1997 27.9019 34.603 27.9019 35.0999V47.6997C27.9019 48.1966 27.4986 48.5999 27.0018 48.5999Z" fill="#F376A2"/>
<path d="M26.9982 39.6C20.0501 39.6 14.3984 33.9484 14.3984 27.0002C14.3984 20.052 20.0501 14.4004 26.9982 14.4004C33.9464 14.4004 39.5981 20.052 39.5981 27.0002C39.5981 33.9484 33.9464 39.6 26.9982 39.6ZM26.9982 16.2004C21.043 16.2004 16.1984 21.0449 16.1984 27.0002C16.1984 32.9555 21.043 37.8 26.9982 37.8C32.9535 37.8 37.7981 32.9555 37.7981 27.0002C37.7981 21.0449 32.9535 16.2004 26.9982 16.2004Z" fill="#F376A2"/>
<path d="M47.6992 27.9H35.0994C34.6026 27.9 34.1992 27.4967 34.1992 26.9998C34.1992 26.5029 34.6026 26.0996 35.0994 26.0996H47.6992C48.1961 26.0996 48.5994 26.5029 48.5994 26.9998C48.5994 27.4967 48.1961 27.9 47.6992 27.9Z" fill="#F376A2"/>
<path d="M18.8984 27.9H6.29863C5.80177 27.9 5.39844 27.4967 5.39844 26.9998C5.39844 26.5029 5.80177 26.0996 6.29863 26.0996H18.8984C19.3953 26.0996 19.7986 26.5029 19.7986 26.9998C19.7986 27.4967 19.3953 27.9 18.8984 27.9Z" fill="#F376A2"/>
<path d="M26.9949 31.5003C24.8151 31.5003 22.6946 30.123 20.8633 27.5176C20.6445 27.207 20.6445 26.7933 20.8633 26.4827C22.6946 23.8773 24.8151 22.5 26.9949 22.5C29.1475 22.5 31.2413 23.8431 33.0573 26.3846C33.2093 26.5494 33.2995 26.767 33.2995 27.0001C33.2995 27.2333 33.2093 27.4509 33.0573 27.6156C31.2437 30.1564 29.1488 31.5003 26.9949 31.5003ZM22.7181 27.0001C24.0908 28.7696 25.5612 29.7003 26.9949 29.7003C28.4286 29.7003 29.8994 28.7696 31.2717 27.0001C29.8973 25.2298 28.4278 24.3 26.9949 24.3C25.5612 24.3 24.0908 25.2307 22.7181 27.0001Z" fill="#F376A2"/>
</g>
<defs>
<clipPath id="clip0">
<rect width="54" height="54" fill="white"/>
</clipPath>
</defs>
</svg>
