<svg width="57" height="57" viewBox="0 0 57 57" fill="none" xmlns="http://www.w3.org/2000/svg">
<g clip-path="url(#clip0)">
<path d="M36.3629 14.8136C37.8975 14.8136 39.1461 13.565 39.1461 12.0304C39.1461 10.4957 37.8975 9.24707 36.3629 9.24707C34.8282 9.24707 33.5797 10.4957 33.5797 12.0304C33.5797 12.6572 33.7881 13.2361 34.1391 13.7019L29.5662 20.0922C29.2933 20.0026 29.0022 19.9534 28.6996 19.9534C27.9683 19.9534 27.3023 20.2374 26.8051 20.7003L23.7571 18.9707C23.7977 18.7819 23.8195 18.5862 23.8195 18.3854C23.8195 16.8508 22.571 15.6022 21.0363 15.6022C19.5017 15.6022 18.2531 16.8508 18.2531 18.3854C18.2531 18.5862 18.2749 18.7819 18.3156 18.9707L15.2675 20.7003C14.7703 20.2374 14.1044 19.9535 13.373 19.9535C11.8384 19.9535 10.5898 21.2021 10.5898 22.7368C10.5898 24.2715 11.8384 25.5201 13.373 25.5201C14.9077 25.5201 16.1562 24.2715 16.1562 22.7368C16.1562 22.5361 16.1344 22.3404 16.0938 22.1516L19.1418 20.422C19.639 20.8849 20.305 21.1689 21.0363 21.1689C21.7676 21.1689 22.4335 20.8849 22.9308 20.4221L25.9788 22.1517C25.9382 22.3405 25.9164 22.5362 25.9164 22.7369C25.9164 24.2716 27.1649 25.5202 28.6996 25.5202C30.2344 25.5202 31.4829 24.2716 31.4829 22.7369C31.4829 22.11 31.2744 21.531 30.9234 21.0652L35.4963 14.6749C35.769 14.7644 36.0603 14.8136 36.3629 14.8136ZM36.3629 10.917C36.9767 10.917 37.4761 11.4164 37.4761 12.0304C37.4761 12.6442 36.9767 13.1437 36.3629 13.1437C35.749 13.1437 35.2496 12.6442 35.2496 12.0304C35.2495 11.4164 35.7489 10.917 36.3629 10.917ZM13.3727 23.85C12.7588 23.85 12.2594 23.3506 12.2594 22.7366C12.2594 22.1226 12.7588 21.6232 13.3727 21.6232C13.9866 21.6232 14.486 22.1226 14.486 22.7366C14.486 23.3506 13.9866 23.85 13.3727 23.85ZM21.0361 19.4987C20.4222 19.4987 19.9228 18.9993 19.9228 18.3853C19.9228 17.7715 20.4222 17.272 21.0361 17.272C21.65 17.272 22.1494 17.7715 22.1494 18.3853C22.1495 18.9993 21.65 19.4987 21.0361 19.4987ZM28.6995 23.85C28.0856 23.85 27.5862 23.3506 27.5862 22.7366C27.5862 22.1226 28.0856 21.6232 28.6995 21.6232C29.3135 21.6232 29.8129 22.1226 29.8129 22.7366C29.8129 23.3506 29.3133 23.85 28.6995 23.85Z" fill="#F376A2"/>
<path d="M46.6238 41.9666H40.7806H8.9539H2.36183C1.9803 41.9666 1.66992 41.6562 1.66992 41.2747V6.82765C1.66992 6.44613 1.9803 6.13574 2.36183 6.13574H6.29794C6.75906 6.13574 7.1329 5.76201 7.1329 5.30078C7.1329 4.83955 6.75906 4.46582 6.29794 4.46582H2.36183C1.05951 4.46582 0 5.52533 0 6.82765V41.2747C0 42.577 1.05951 43.6365 2.36183 43.6365H8.11894V45.4741C8.11894 46.5209 8.9706 47.3726 10.0174 47.3726H18.3753L14.4409 55.054C14.2307 55.4645 14.3929 55.9675 14.8034 56.1778C14.9252 56.2403 15.0552 56.2698 15.1834 56.2698C15.4867 56.2698 15.7794 56.1039 15.9272 55.8153L20.2515 47.3726H29.483L33.8073 55.8153C33.9552 56.1039 34.2478 56.2698 34.5511 56.2698C34.6793 56.2698 34.8093 56.2401 34.9311 56.1778C35.3416 55.9675 35.5039 55.4645 35.2936 55.054L31.3592 47.3726H39.7171C40.7639 47.3726 41.6156 46.521 41.6156 45.4741V43.6365H46.6238C47.0849 43.6365 47.4587 43.2628 47.4587 42.8015C47.4587 42.3403 47.0849 41.9666 46.6238 41.9666ZM39.9456 45.4741C39.9456 45.6001 39.8431 45.7026 39.7171 45.7026H10.0174C9.89139 45.7026 9.78886 45.6001 9.78886 45.4741V43.6365H39.9456V45.4741Z" fill="#F376A2"/>
<path d="M9.63965 6.13585H21.0699H28.6682H47.3744C47.7559 6.13585 48.0663 6.44623 48.0663 6.82776V14.7667C48.0663 15.2279 48.4402 15.6016 48.9013 15.6016C49.3624 15.6016 49.7363 15.2279 49.7363 14.7667V6.82776C49.7363 5.52544 48.6767 4.46593 47.3744 4.46593H29.5033V2.82473C29.5033 1.6697 28.5635 0.72998 27.4084 0.72998H22.3298C21.1748 0.72998 20.235 1.6697 20.235 2.82473V4.46593H9.63965C9.17853 4.46593 8.80469 4.83966 8.80469 5.30089C8.80469 5.76212 9.17853 6.13585 9.63965 6.13585ZM21.9049 2.82473C21.9049 2.5905 22.0955 2.3999 22.3298 2.3999H27.4084C27.6426 2.3999 27.8333 2.5905 27.8333 2.82473V4.46593H21.905V2.82473H21.9049Z" fill="#F376A2"/>
<path d="M11.6787 29.7886C11.2176 29.7886 10.8438 30.1623 10.8438 30.6235V38.0015C10.8438 38.4627 11.2176 38.8364 11.6787 38.8364H15.0661C15.5272 38.8364 15.901 38.4627 15.901 38.0015V30.6235C15.901 30.1623 15.5272 29.7886 15.0661 29.7886H11.6787ZM14.2311 37.1666H12.5137V31.4586H14.2311V37.1666Z" fill="#F376A2"/>
<path d="M19.3428 25.5215C18.8817 25.5215 18.5078 25.8952 18.5078 26.3564V38.0015C18.5078 38.4627 18.8817 38.8364 19.3428 38.8364H22.7302C23.1913 38.8364 23.5651 38.4627 23.5651 38.0015V26.3564C23.5651 25.8952 23.1913 25.5215 22.7302 25.5215H19.3428ZM21.8953 37.1665H20.1778V27.1914H21.8953V37.1665Z" fill="#F376A2"/>
<path d="M27.0029 29.7886C26.5418 29.7886 26.168 30.1623 26.168 30.6235V38.0015C26.168 38.4627 26.5418 38.8364 27.0029 38.8364H30.3903C30.8514 38.8364 31.2253 38.4627 31.2253 38.0015V30.6235C31.2253 30.1623 30.8514 29.7886 30.3903 29.7886H27.0029ZM29.5554 37.1666H27.8379V31.4586H29.5554V37.1666Z" fill="#F376A2"/>
<path d="M34.667 34.7158C34.2059 34.7158 33.832 35.0895 33.832 35.5508V38.0019C33.832 38.4631 34.2059 38.8369 34.667 38.8369H38.0544C38.5155 38.8369 38.8893 38.4631 38.8893 38.0019C38.8893 37.5407 38.5155 37.1669 38.0544 37.1669H35.502V35.5508C35.502 35.0895 35.1281 34.7158 34.667 34.7158Z" fill="#F376A2"/>
<path d="M56.5754 42.7521L51.7853 34.4552C52.9989 33.1617 53.8826 31.5812 54.3546 29.8195C55.1091 27.0039 54.7219 24.063 53.2644 21.5385C50.2556 16.3269 43.568 14.5353 38.3568 17.5439C33.1454 20.5526 31.3536 27.2402 34.3623 32.4515C35.8198 34.976 38.1732 36.7818 40.9888 37.5363C41.9291 37.7883 42.883 37.9128 43.831 37.9128C44.6595 37.9128 45.4832 37.8176 46.2888 37.629L51.0779 45.926C51.6649 46.9432 52.7339 47.5125 53.8318 47.5123C54.3699 47.5123 54.9149 47.3755 55.4136 47.0878C56.3928 46.5226 57.0012 45.4687 57.0012 44.3374C57.0012 43.7831 56.854 43.235 56.5754 42.7521ZM41.421 35.9233C39.0362 35.2843 37.0429 33.7547 35.8083 31.6166C33.26 27.2026 34.7778 21.5385 39.1916 18.9901C40.6437 18.1518 42.2304 17.7537 43.7977 17.7537C46.9945 17.7537 50.1081 19.4117 51.8181 22.3734C53.0525 24.5116 53.3805 27.0025 52.7415 29.3873C52.1024 31.7722 50.5729 33.7653 48.4347 34.9998C46.2967 36.2344 43.8058 36.5621 41.421 35.9233ZM54.5789 45.6415C53.8605 46.0563 52.9387 45.8094 52.5243 45.0913L47.9166 37.1086C48.3784 36.9201 48.8306 36.6997 49.2699 36.4461C49.7096 36.1923 50.1259 35.9097 50.5201 35.6038L55.1291 43.5868C55.2614 43.8162 55.3313 44.0759 55.3313 44.3375C55.3313 44.8739 55.043 45.3736 54.5789 45.6415Z" fill="#F376A2"/>
<path d="M51.3804 29.3473C51.9699 27.4485 51.8295 25.4156 50.9851 23.6232C50.7885 23.206 50.2911 23.0272 49.874 23.2237C49.4567 23.4203 49.2779 23.9177 49.4745 24.3348C50.1406 25.7487 50.2511 27.3528 49.7857 28.852C49.3176 30.3594 48.3066 31.6244 46.9387 32.4141C45.4912 33.25 43.8047 33.4718 42.1903 33.0392C40.5758 32.6066 39.2263 31.5712 38.3907 30.1237C36.6654 27.1355 37.693 23.3009 40.6811 21.5757C42.866 20.3144 45.5774 20.483 47.5892 22.0051C47.957 22.2834 48.4806 22.2109 48.7588 21.8431C49.037 21.4754 48.9645 20.9517 48.5967 20.6735C46.0483 18.7452 42.6134 18.5317 39.8461 20.1294C38.0123 21.1881 36.7005 22.8977 36.1524 24.943C35.6044 26.9883 35.8857 29.1247 36.9444 30.9585C38.0032 32.7924 39.7127 34.1041 41.758 34.6523C42.441 34.8353 43.1342 34.9258 43.8227 34.9258C45.1963 34.9258 46.5521 34.5656 47.7735 33.8603C49.5066 32.8599 50.7875 31.2572 51.3804 29.3473Z" fill="#F376A2"/>
</g>
<defs>
<clipPath id="clip0">
<rect width="57" height="57" fill="white"/>
</clipPath>
</defs>
</svg>
