<svg width="54" height="54" viewBox="0 0 54 54" fill="none" xmlns="http://www.w3.org/2000/svg">
<path d="M18.0016 34.1998C18.0016 33.7028 17.5986 33.2998 17.1016 33.2998C16.6045 33.2998 16.2016 33.7028 16.2016 34.1998V35.0998H13.5016C13.0045 35.0998 12.6016 35.5028 12.6016 35.9998C12.6016 36.4968 13.0045 36.8998 13.5016 36.8998H16.2016V37.7998C16.2016 38.2968 16.6045 38.6998 17.1016 38.6998C17.5986 38.6998 18.0016 38.2968 18.0016 37.7998V36.8998H39.6016C40.0986 36.8998 40.5016 36.4968 40.5016 35.9998C40.5016 35.5028 40.0986 35.0998 39.6016 35.0998H18.0016V34.1998Z" fill="#F376A2"/>
<path d="M23.8252 22.634C23.5597 22.7983 23.3985 23.0879 23.3985 23.3999V30.5999C23.3967 30.9128 23.5575 31.2037 23.823 31.369C24.0888 31.5342 24.4211 31.5496 24.7006 31.4098L31.9006 27.8098C32.2064 27.6578 32.3993 27.3458 32.3993 27.0043C32.3993 26.6633 32.2064 26.3513 31.9006 26.1988L24.7006 22.5988C24.4224 22.4582 24.091 22.4714 23.8252 22.634ZM25.1985 24.8563L29.4862 26.9999L25.1985 29.1436V24.8563Z" fill="#F376A2"/>
<path d="M17.1016 24.3C17.5986 24.3 18.0016 23.897 18.0016 23.4C18.0016 22.903 17.5986 22.5 17.1016 22.5C15.6105 22.5 14.4016 23.7089 14.4016 25.2V26.1H13.5016C13.0045 26.1 12.6016 26.503 12.6016 27C12.6016 27.497 13.0045 27.9 13.5016 27.9H14.4016V30.6C14.4016 31.097 14.8045 31.5 15.3016 31.5C15.7986 31.5 16.2016 31.097 16.2016 30.6V27.9H17.1016C17.5986 27.9 18.0016 27.497 18.0016 27C18.0016 26.503 17.5986 26.1 17.1016 26.1H16.2016V25.2C16.2016 24.703 16.6045 24.3 17.1016 24.3Z" fill="#F376A2"/>
<path d="M36.8984 30.6002C36.8984 31.0972 37.3014 31.5002 37.7984 31.5002C38.2955 31.5002 38.6984 31.0972 38.6984 30.6002V26.1002C38.6984 25.6032 38.2955 25.2002 37.7984 25.2002C37.3014 25.2002 36.8984 25.6032 36.8984 26.1002V30.6002Z" fill="#F376A2"/>
<path d="M38.6984 23.4C38.6984 23.897 38.2955 24.3 37.7984 24.3C37.3014 24.3 36.8984 23.897 36.8984 23.4C36.8984 22.903 37.3014 22.5 37.7984 22.5C38.2955 22.5 38.6984 22.903 38.6984 23.4Z" fill="#F376A2"/>
<path d="M11.7016 18H9.00156C8.50454 18 8.10156 18.403 8.10156 18.9V40.5C8.10156 40.997 8.50454 41.4 9.00156 41.4H45.0016C45.4986 41.4 45.9016 40.997 45.9016 40.5V22.5C45.9016 22.003 45.4986 21.6 45.0016 21.6C44.5045 21.6 44.1016 22.003 44.1016 22.5V39.6H9.90156V19.8H11.7016C12.1986 19.8 12.6016 19.397 12.6016 18.9C12.6016 18.403 12.1986 18 11.7016 18Z" fill="#F376A2"/>
<path d="M31.5008 19.8C31.9978 19.8 32.4008 19.397 32.4008 18.9C32.4008 18.403 31.9978 18 31.5008 18H25.2008C24.7038 18 24.3008 18.403 24.3008 18.9C24.3008 19.397 24.7038 19.8 25.2008 19.8H31.5008Z" fill="#F376A2"/>
<path d="M48.6 21.6C48.103 21.6 47.7 22.003 47.7 22.5V42.3C47.7 42.797 47.297 43.2 46.8 43.2H7.2C6.70298 43.2 6.3 42.797 6.3 42.3V18.9C6.3 18.403 5.89702 18 5.4 18C4.90298 18 4.5 18.403 4.5 18.9V42.3C4.5 43.7911 5.70894 45 7.2 45H19.8V48.6H14.4C12.9089 48.6 11.7 49.8089 11.7 51.3C11.7 52.7911 12.9089 54 14.4 54H39.6C40.097 54 40.5 53.597 40.5 53.1C40.5 52.603 40.097 52.2 39.6 52.2H14.4C13.903 52.2 13.5 51.797 13.5 51.3C13.5 50.803 13.903 50.4 14.4 50.4H39.6C40.097 50.4 40.5 49.997 40.5 49.5C40.5 49.003 40.097 48.6 39.6 48.6H34.2V45H46.8C48.2911 45 49.5 43.7911 49.5 42.3V22.5C49.5 22.003 49.097 21.6 48.6 21.6ZM32.4 48.6H21.6V45H32.4V48.6Z" fill="#F376A2"/>
<path d="M49.5 0H38.7C36.2158 0.00307618 34.2031 2.01577 34.2 4.5V14.4H25.0343C25.1411 14.1117 25.1969 13.8072 25.2 13.5V2.7C25.2 1.20894 23.9911 0 22.5 0H2.7C1.20894 0 0 1.20894 0 2.7V13.5C0 14.9911 1.20894 16.2 2.7 16.2H13.1273L20.0637 23.1363C20.3212 23.3934 20.7083 23.4708 21.0445 23.3314C21.3807 23.1921 21.6 22.8639 21.6 22.5V16.2H34.2901C34.7208 18.294 36.5625 19.7974 38.7 19.8H49.5C51.9842 19.7969 53.9969 17.7842 54 15.3V4.5C53.9969 2.01577 51.9842 0.00307618 49.5 0ZM21.6 14.4H20.7C20.203 14.4 19.8 14.803 19.8 15.3V20.3273L14.1363 14.6637C13.9676 14.4949 13.7386 14.4 13.5 14.4H2.7C2.20298 14.4 1.8 13.997 1.8 13.5V2.7C1.8 2.20298 2.20298 1.8 2.7 1.8H22.5C22.997 1.8 23.4 2.20298 23.4 2.7V13.5C23.4 13.997 22.997 14.4 22.5 14.4H21.6ZM52.2 15.3C52.2 16.7911 50.9911 18 49.5 18H38.7C37.2089 18 36 16.7911 36 15.3V4.5C36 3.00894 37.2089 1.8 38.7 1.8H49.5C50.9911 1.8 52.2 3.00894 52.2 4.5V15.3Z" fill="#F376A2"/>
<path d="M47.7016 8.9999C47.2045 8.9999 46.8016 9.40288 46.8016 9.8999C46.8016 11.391 45.5926 12.5999 44.1016 12.5999C42.6105 12.5999 41.4016 11.391 41.4016 9.8999C41.4016 8.40884 42.6105 7.1999 44.1016 7.1999C44.5986 7.1999 45.0016 6.79692 45.0016 6.2999C45.0016 5.80288 44.5986 5.3999 44.1016 5.3999C41.6165 5.3999 39.6016 7.41479 39.6016 9.8999C39.6016 12.385 41.6165 14.3999 44.1016 14.3999C46.5867 14.3999 48.6016 12.385 48.6016 9.8999C48.6016 9.40288 48.1986 8.9999 47.7016 8.9999Z" fill="#F376A2"/>
<path d="M18.0016 3.6001H9.00156C8.50454 3.6001 8.10156 4.00308 8.10156 4.5001C8.10156 4.99712 8.50454 5.4001 9.00156 5.4001H18.0016C18.4986 5.4001 18.9016 4.99712 18.9016 4.5001C18.9016 4.00308 18.4986 3.6001 18.0016 3.6001Z" fill="#F376A2"/>
<path d="M5.4 9.0002H12.6C13.097 9.0002 13.5 8.59722 13.5 8.1002C13.5 7.60317 13.097 7.2002 12.6 7.2002H5.4C4.90298 7.2002 4.5 7.60317 4.5 8.1002C4.5 8.59722 4.90298 9.0002 5.4 9.0002Z" fill="#F376A2"/>
<path d="M18 10.7998H9.9C9.40298 10.7998 9 11.2028 9 11.6998C9 12.1968 9.40298 12.5998 9.9 12.5998H18C18.497 12.5998 18.9 12.1968 18.9 11.6998C18.9 11.2028 18.497 10.7998 18 10.7998Z" fill="#F376A2"/>
<path d="M6.3 10.7998H5.4C4.90298 10.7998 4.5 11.2028 4.5 11.6998C4.5 12.1968 4.90298 12.5998 5.4 12.5998H6.3C6.79702 12.5998 7.2 12.1968 7.2 11.6998C7.2 11.2028 6.79702 10.7998 6.3 10.7998Z" fill="#F376A2"/>
<path d="M18.0008 7.2002H16.2008C15.7038 7.2002 15.3008 7.60317 15.3008 8.1002C15.3008 8.59722 15.7038 9.0002 16.2008 9.0002H18.0008C18.4978 9.0002 18.9008 8.59722 18.9008 8.1002C18.9008 7.60317 18.4978 7.2002 18.0008 7.2002Z" fill="#F376A2"/>
</svg>
