<svg width="54" height="54" viewBox="0 0 54 54" fill="none" xmlns="http://www.w3.org/2000/svg">
<path d="M53.209 26.9945C52.772 26.9945 52.418 27.3487 52.418 27.7856V33.1265H1.58203V6.78578C1.58203 6.22869 2.03534 5.77539 2.59242 5.77539H38.3192C38.7562 5.77539 39.1102 5.42123 39.1102 4.98437C39.1102 4.54752 38.7562 4.19336 38.3192 4.19336H2.59242C1.1629 4.19336 0 5.35626 0 6.78578V36.7535C0 38.1829 1.1629 39.3459 2.59242 39.3459H11.426C11.8628 39.3459 12.217 38.9917 12.217 38.5549C12.217 38.118 11.8628 37.7638 11.426 37.7638H2.59242C2.03534 37.7638 1.58203 37.3106 1.58203 36.7535V34.7086H52.418V36.7535C52.418 37.3105 51.9647 37.7638 51.4076 37.7638H15.0671C14.6302 37.7638 14.276 38.118 14.276 38.5549C14.276 38.9917 14.6302 39.3459 15.0671 39.3459H21.7324L21.4275 41.3459C21.186 42.9292 20.4726 44.3768 19.3642 45.5327L18.4972 46.4367C17.9354 47.0226 17.7841 47.8503 18.1027 48.597C18.4212 49.3437 19.1232 49.8074 19.935 49.8074H34.0653C34.877 49.8074 35.5791 49.3437 35.8976 48.597C36.216 47.8502 36.0648 47.0225 35.503 46.4367L34.636 45.5327C33.5276 44.3769 32.8141 42.9292 32.5727 41.3459L32.2677 39.3459H51.4076C52.8371 39.3459 54 38.183 54 36.7535V27.7857C54 27.3487 53.6459 26.9945 53.209 26.9945ZM34.4422 47.9763C34.4101 48.0512 34.3095 48.2253 34.0651 48.2253H19.9349C19.6905 48.2253 19.5898 48.0511 19.5578 47.9762C19.5259 47.9013 19.4698 47.7081 19.639 47.5316L20.506 46.6276C20.6622 46.4648 20.8112 46.2967 20.9542 46.1245H33.0458C33.1888 46.2966 33.3378 46.4647 33.494 46.6275L34.361 47.5316C34.5302 47.7081 34.4741 47.9013 34.4422 47.9763ZM31.0085 41.5842C31.168 42.63 31.4994 43.626 31.9855 44.5424H22.0145C22.5005 43.6259 22.832 42.6299 22.9914 41.5842L23.3327 39.3458H30.6674L31.0085 41.5842Z" fill="#F376A2"/>
<path d="M51.4062 4.19336H41.959C41.522 4.19336 41.168 4.54752 41.168 4.98438C41.168 5.42123 41.522 5.77539 41.959 5.77539H51.4062C51.9633 5.77539 52.4166 6.2287 52.4166 6.78578V24.1446C52.4166 24.5814 52.7707 24.9356 53.2076 24.9356C53.6446 24.9356 53.9987 24.5814 53.9987 24.1446V6.78578C53.9987 5.35626 52.8358 4.19336 51.4062 4.19336Z" fill="#F376A2"/>
<path d="M19.1585 27.9302H34.8416C35.5804 27.9302 36.2591 27.5273 36.613 26.8786C36.9668 26.2301 36.9381 25.4412 36.5382 24.82L28.6966 12.6398C28.3236 12.0603 27.6892 11.7144 27 11.7144C26.3108 11.7144 25.6765 12.0604 25.3035 12.6399L17.462 24.8201C17.062 25.4413 17.0334 26.2302 17.3873 26.8788C17.7409 27.5273 18.4197 27.9302 19.1585 27.9302ZM18.7921 25.6764L26.6336 13.4962C26.7497 13.3159 26.9285 13.2964 27 13.2964C27.0715 13.2964 27.2504 13.3159 27.3665 13.4964L35.208 25.6765C35.3345 25.8728 35.2615 26.0528 35.2242 26.1211C35.1869 26.1893 35.0751 26.3481 34.8416 26.3481H19.1585C18.9251 26.3481 18.8132 26.1893 18.776 26.1211C18.7387 26.0527 18.6658 25.8728 18.7921 25.6764Z" fill="#F376A2"/>
<path d="M26.998 22.2529C27.435 22.2529 27.7891 21.8987 27.7891 21.4619V17.6299C27.7891 17.193 27.435 16.8389 26.998 16.8389C26.5612 16.8389 26.207 17.193 26.207 17.6299V21.4619C26.207 21.8987 26.5612 22.2529 26.998 22.2529Z" fill="#F376A2"/>
<path d="M26.9941 24.6777H27.0055C27.4424 24.6777 27.7966 24.3236 27.7966 23.8867C27.7966 23.4499 27.4424 23.0957 27.0055 23.0957H26.9941C26.5573 23.0957 26.2031 23.4499 26.2031 23.8867C26.2031 24.3236 26.5573 24.6777 26.9941 24.6777Z" fill="#F376A2"/>
<path d="M22.0023 12.8765C22.4391 12.8765 22.7933 12.5223 22.7933 12.0854C22.7933 11.6486 22.4391 11.2944 22.0023 11.2944H11.6699C11.2331 11.2944 10.8789 11.6486 10.8789 12.0854C10.8789 12.5223 11.2331 12.8765 11.6699 12.8765H22.0023Z" fill="#F376A2"/>
<path d="M7.3457 12.8765H8.71859C9.15544 12.8765 9.50961 12.5223 9.50961 12.0854C9.50961 11.6486 9.15544 11.2944 8.71859 11.2944H7.3457C6.90885 11.2944 6.55469 11.6486 6.55469 12.0854C6.55469 12.5223 6.90885 12.8765 7.3457 12.8765Z" fill="#F376A2"/>
<path d="M19.6328 15.8496C19.6328 15.4128 19.2786 15.0586 18.8418 15.0586H7.3457C6.90885 15.0586 6.55469 15.4128 6.55469 15.8496C6.55469 16.2865 6.90885 16.6406 7.3457 16.6406H18.8418C19.2786 16.6406 19.6328 16.2865 19.6328 15.8496Z" fill="#F376A2"/>
<path d="M17.1016 19.6123C17.1016 19.1755 16.7474 18.8213 16.3105 18.8213H7.3457C6.90885 18.8213 6.55469 19.1755 6.55469 19.6123C6.55469 20.0492 6.90885 20.4033 7.3457 20.4033H16.3105C16.7474 20.4033 17.1016 20.0492 17.1016 19.6123Z" fill="#F376A2"/>
<path d="M15.2031 23.3755C15.2031 22.9386 14.849 22.5845 14.4121 22.5845H7.3457C6.90885 22.5845 6.55469 22.9386 6.55469 23.3755C6.55469 23.8123 6.90885 24.1665 7.3457 24.1665H14.4121C14.849 24.1665 15.2031 23.8123 15.2031 23.3755Z" fill="#F376A2"/>
<path d="M13.7793 26.3481H7.3457C6.90885 26.3481 6.55469 26.7023 6.55469 27.1392C6.55469 27.576 6.90885 27.9302 7.3457 27.9302H13.7793C14.2161 27.9302 14.5703 27.576 14.5703 27.1392C14.5703 26.7023 14.2161 26.3481 13.7793 26.3481Z" fill="#F376A2"/>
<path d="M46.6543 11.2944H31.9941C31.5572 11.2944 31.2031 11.6486 31.2031 12.0854C31.2031 12.5223 31.5572 12.8765 31.9941 12.8765H46.6543C47.0913 12.8765 47.4453 12.5223 47.4453 12.0854C47.4453 11.6486 47.0913 11.2944 46.6543 11.2944Z" fill="#F376A2"/>
<path d="M46.6543 15.0586H35.1582C34.7212 15.0586 34.3672 15.4128 34.3672 15.8496C34.3672 16.2865 34.7212 16.6406 35.1582 16.6406H46.6543C47.0913 16.6406 47.4453 16.2865 47.4453 15.8496C47.4453 15.4128 47.0913 15.0586 46.6543 15.0586Z" fill="#F376A2"/>
<path d="M46.6562 18.8213H43.4395C43.0025 18.8213 42.6484 19.1755 42.6484 19.6123C42.6484 20.0492 43.0025 20.4033 43.4395 20.4033H46.6562C47.0932 20.4033 47.4473 20.0492 47.4473 19.6123C47.4473 19.1755 47.0932 18.8213 46.6562 18.8213Z" fill="#F376A2"/>
<path d="M41.1312 19.6123C41.1312 19.1755 40.7772 18.8213 40.3402 18.8213H37.6895C37.2525 18.8213 36.8984 19.1755 36.8984 19.6123C36.8984 20.0492 37.2525 20.4033 37.6895 20.4033H40.3402C40.7772 20.4033 41.1312 20.0492 41.1312 19.6123Z" fill="#F376A2"/>
<path d="M46.6543 22.5845H39.5879C39.1509 22.5845 38.7969 22.9386 38.7969 23.3755C38.7969 23.8123 39.1509 24.1665 39.5879 24.1665H46.6543C47.0913 24.1665 47.4453 23.8123 47.4453 23.3755C47.4453 22.9386 47.0913 22.5845 46.6543 22.5845Z" fill="#F376A2"/>
<path d="M46.6543 26.3481H40.2207C39.7837 26.3481 39.4297 26.7023 39.4297 27.1392C39.4297 27.576 39.7837 27.9302 40.2207 27.9302H46.6543C47.0913 27.9302 47.4453 27.576 47.4453 27.1392C47.4453 26.7023 47.0913 26.3481 46.6543 26.3481Z" fill="#F376A2"/>
</svg>
