<svg width="61" height="61" viewBox="0 0 61 61" fill="none" xmlns="http://www.w3.org/2000/svg">
<g clip-path="url(#clip0)">
<path d="M30.7039 4.11133C22.0818 4.11133 15.0664 11.1267 15.0664 19.7488C15.0664 28.371 22.0818 35.3864 30.7039 35.3864C39.3261 35.3864 46.3414 28.371 46.3414 19.7488C46.3414 11.1267 39.3261 4.11133 30.7039 4.11133ZM30.7039 33.4317C23.1588 33.4317 17.0211 27.2939 17.0211 19.7488C17.0211 12.2037 23.1588 6.06602 30.7039 6.06602C38.249 6.06602 44.3868 12.2037 44.3868 19.7488C44.3868 27.2939 38.249 33.4317 30.7039 33.4317Z" fill="#F376A2"/>
<path d="M44.9579 0.202148L48.8672 4.11153L45.7212 7.2576C42.1324 2.95044 36.7335 0.202148 30.7023 0.202148C19.9242 0.202148 11.1554 8.97089 11.1554 19.749C11.1554 25.7802 13.9037 31.1791 18.2109 34.7679L17.0195 35.9593L14.0874 33.0272L0 47.1147L8.22338 55.3381L15.0648 48.4967L18.9742 52.406L24.8382 46.542V54.9335C24.8382 58.1675 27.4683 60.7975 30.7023 60.7975C33.9363 60.7975 36.5664 58.1675 36.5664 54.9335V43.2053H38.5211V41.2506H36.5664V38.3948C44.0421 36.0384 49.5748 29.2987 50.1759 21.2053L57.5793 13.8019L61 17.2226V0.202148H44.9579ZM24.8382 41.2506H22.8836V43.2053H24.8382V43.778L18.9742 49.6421L15.0648 45.7327L8.22338 52.5741L2.76393 47.1147L14.0874 35.7912L17.0195 38.7232L19.7863 35.9564C21.3286 36.9982 23.0272 37.8241 24.8382 38.3948V41.2506ZM34.6117 54.9335C34.6117 57.0895 32.8583 58.8428 30.7023 58.8428C28.5463 58.8428 26.7929 57.0895 26.7929 54.9335V43.2053H34.6117V54.9335ZM34.6117 41.2506H26.7929V38.9021C28.0566 39.1591 29.3633 39.2959 30.7023 39.2959C32.0413 39.2959 33.348 39.1591 34.6117 38.9021V41.2506ZM30.7023 37.3413C21.0022 37.3413 13.1101 29.4492 13.1101 19.749C13.1101 10.0489 21.0022 2.15684 30.7023 2.15684C40.4025 2.15684 48.2945 10.0489 48.2945 19.749C48.2945 29.4492 40.4025 37.3413 30.7023 37.3413ZM59.0453 12.503L57.5793 11.037L50.1827 18.4335C49.9453 14.8965 48.7861 11.6097 46.9096 8.83308L51.6312 4.11153L49.6765 2.15684H59.0453V12.503Z" fill="#F376A2"/>
<path d="M30.7021 13.4903C28.4239 11.4193 24.883 11.4819 22.681 13.6828C20.4136 15.9493 20.4136 19.6398 22.681 21.9062L30.7021 29.9273L38.7232 21.9062C40.9906 19.6398 40.9906 15.9493 38.7232 13.6828C36.5212 11.4809 32.9813 11.4183 30.7021 13.4903ZM37.3412 20.5243L30.7021 27.1634L24.063 20.5243C22.5579 19.0191 22.5579 16.5699 24.063 15.0648C24.8165 14.3123 25.8037 13.936 26.7927 13.936C27.7818 13.936 28.7689 14.3132 29.5225 15.0648L30.7021 16.2445L31.8818 15.0648C33.3879 13.5607 35.8351 13.5607 37.3412 15.0648C38.8463 16.5699 38.8463 19.0191 37.3412 20.5243Z" fill="#F376A2"/>
<path d="M51.2266 34.4092C45.8375 34.4092 41.4531 38.7935 41.4531 44.1826C41.4531 49.5717 45.8375 53.9561 51.2266 53.9561C56.6157 53.9561 61 49.5717 61 44.1826C61 38.7935 56.6157 34.4092 51.2266 34.4092ZM51.2266 52.0014C46.9155 52.0014 43.4078 48.4937 43.4078 44.1826C43.4078 39.8716 46.9155 36.3639 51.2266 36.3639C55.5376 36.3639 59.0453 39.8716 59.0453 44.1826C59.0453 48.4937 55.5376 52.0014 51.2266 52.0014Z" fill="#F376A2"/>
<path d="M50.2484 41.2507H52.2031C52.7426 41.2507 53.1805 41.6885 53.1805 42.228H55.1352C55.1352 40.6115 53.8197 39.296 52.2031 39.296V37.3413H50.2484V39.296C48.6319 39.296 47.3164 40.6115 47.3164 42.228C47.3164 43.8446 48.6319 45.1601 50.2484 45.1601H52.2031C52.7426 45.1601 53.1805 45.5979 53.1805 46.1374C53.1805 46.6769 52.7426 47.1148 52.2031 47.1148H50.2484C49.7089 47.1148 49.2711 46.6769 49.2711 46.1374H47.3164C47.3164 47.7539 48.6319 49.0694 50.2484 49.0694V51.0241H52.2031V49.0694C53.8197 49.0694 55.1352 47.7539 55.1352 46.1374C55.1352 44.5209 53.8197 43.2054 52.2031 43.2054H50.2484C49.7089 43.2054 49.2711 42.7675 49.2711 42.228C49.2711 41.6885 49.7089 41.2507 50.2484 41.2507Z" fill="#F376A2"/>
</g>
<defs>
<clipPath id="clip0">
<rect width="61" height="61" fill="white"/>
</clipPath>
</defs>
</svg>
