<svg width="51" height="51" viewBox="0 0 51 51" fill="none" xmlns="http://www.w3.org/2000/svg">
<g clip-path="url(#clip0)">
<path d="M50.2736 29.709C50.6915 29.709 51.03 29.3767 51.03 28.9675V9.00693C51.03 6.42947 48.9888 4.31204 46.4079 4.12208C44.9974 1.73191 42.3628 0.119141 39.3492 0.119141C36.3423 0.119141 33.7119 1.72505 32.2995 4.10644H24.8183C23.6825 2.67295 21.9094 1.74793 19.9188 1.74793C16.4986 1.74793 13.7161 4.47568 13.7161 7.82825V9.60809H9.82553C9.43799 9.60809 9.11348 9.89495 9.0734 10.273L6.57188 33.8729H1.61047V9.00693C1.61047 7.12257 3.17426 5.5899 5.09603 5.5899H12.8558C13.2737 5.5899 13.6122 5.25766 13.6122 4.84798C13.6122 4.43868 13.2737 4.10644 12.8558 4.10644H5.09603C2.34004 4.10644 0.0976562 6.30474 0.0976562 9.00693V35.1084C0.0976562 37.8354 2.36027 40.0539 5.14155 40.0539H7.417C7.8349 40.0539 8.17341 39.7221 8.17341 39.3124C8.17341 38.9031 7.8349 38.5708 7.417 38.5708H5.14155C3.27932 38.5708 1.75055 37.1499 1.62059 35.356H49.507C49.3771 37.1499 47.8479 38.5708 45.9853 38.5708H9.93837C9.52048 38.5708 9.18196 38.9031 9.18196 39.3124C9.18196 39.7221 9.52048 40.0539 9.93837 40.0539H16.0025L14.9982 44.1785H12.906C10.7325 44.1785 8.96445 45.9122 8.96445 48.043V49.375C8.96445 49.7847 9.30297 50.1166 9.72086 50.1166H41.406C41.8239 50.1166 42.1624 49.7847 42.1624 49.375V48.043C42.1624 45.9122 40.3943 44.1785 38.2208 44.1785H36.1286L35.1244 40.0539H45.9853C48.767 40.0539 51.03 37.8354 51.03 35.1084V31.4392C51.03 31.03 50.6915 30.6977 50.2736 30.6977C49.8557 30.6977 49.5172 31.03 49.5172 31.4392V33.8729H38.1664L36.4508 18.116C36.41 17.7387 36.0855 17.453 35.6987 17.453H31.5256L30.7641 10.2726C30.7241 9.89495 30.3995 9.60809 30.012 9.60809H26.121V7.82825C26.121 7.03788 25.9646 6.28299 25.6837 5.58952H31.6159C31.3466 6.38255 31.1984 7.22937 31.1984 8.10976C31.1984 12.5159 34.8547 16.1004 39.3492 16.1004C43.8433 16.1004 47.5001 12.5159 47.5001 8.10976C47.5001 7.29536 47.3744 6.50957 47.1425 5.7688C48.5215 6.22463 49.5172 7.50363 49.5172 9.00655V28.9671C49.5172 29.3767 49.8557 29.709 50.2736 29.709ZM40.6496 48.043V48.6335H10.4773V48.043C10.4773 46.7301 11.5667 45.6616 12.906 45.6616H38.2208C39.5601 45.6616 40.6496 46.7301 40.6496 48.043ZM34.5734 44.1785H16.5534L17.5577 40.0539H33.5691L34.5734 44.1785ZM36.645 33.8725H20.7211L22.3471 18.9361H30.8334H30.8548H35.0185L36.645 33.8725ZM29.3299 11.0912L30.0046 17.453H21.667C21.2806 17.453 20.9561 17.7391 20.9149 18.116L19.1993 33.8725H8.09287L10.5072 11.0912H13.7161V12.7219C13.7161 13.1315 14.0547 13.4634 14.4725 13.4634C14.8904 13.4634 15.229 13.1315 15.229 12.7219V11.0912H24.6082V12.7219C24.6082 13.1315 24.9467 13.4634 25.3646 13.4634C25.7825 13.4634 26.121 13.1315 26.121 12.7219V11.0912H29.3299ZM24.6082 7.82825V9.60809H15.2293V7.82825C15.2293 5.29313 17.3328 3.23101 19.9188 3.23101C20.9448 3.23101 21.8942 3.55639 22.667 4.10644H17.9997C17.5818 4.10644 17.2433 4.43868 17.2433 4.84798C17.2433 5.25766 17.5818 5.5899 17.9997 5.5899H24.0125C24.3915 6.25248 24.6082 7.01614 24.6082 7.82825ZM39.3492 14.6173C35.689 14.6173 32.7112 11.6981 32.7112 8.10976C32.7112 4.52146 35.689 1.60222 39.3492 1.60222C43.0095 1.60222 45.9873 4.52146 45.9873 8.10976C45.9873 11.6981 43.0095 14.6173 39.3492 14.6173Z" fill="#F376A2"/>
<path d="M28.6847 26.8239C27.3084 26.8239 26.1886 25.7264 26.1886 24.3769V21.1883C26.1886 20.779 25.8501 20.4468 25.4322 20.4468C25.0143 20.4468 24.6758 20.779 24.6758 21.1883V24.3769C24.6758 26.5439 26.4742 28.3069 28.6847 28.3069C30.8952 28.3069 32.6936 26.5439 32.6936 24.3769V21.1883C32.6936 20.779 32.3551 20.4468 31.9372 20.4468C31.5193 20.4468 31.1808 20.779 31.1808 21.1883V24.3769C31.1808 25.7264 30.0613 26.8239 28.6847 26.8239Z" fill="#F376A2"/>
<path d="M42.4352 3.97853C42.059 3.79963 41.6064 3.95297 41.4239 4.32107L38.5298 10.1584L37.2186 7.84491C37.0158 7.48673 36.5555 7.3578 36.1902 7.55653C35.8248 7.75565 35.6933 8.20691 35.896 8.56509L37.9131 12.1244C38.047 12.3601 38.3003 12.5058 38.5746 12.5058C38.5812 12.5058 38.5882 12.5058 38.5952 12.5055C38.8773 12.4982 39.1314 12.3372 39.2547 12.0885L42.7846 4.96954C42.9675 4.60144 42.8107 4.15743 42.4352 3.97853Z" fill="#F376A2"/>
<path d="M47.508 19.7236H40.2466C39.8287 19.7236 39.4902 20.0559 39.4902 20.4652C39.4902 20.8748 39.8287 21.2067 40.2466 21.2067H47.508C47.9259 21.2067 48.2644 20.8748 48.2644 20.4652C48.2644 20.0559 47.9259 19.7236 47.508 19.7236Z" fill="#F376A2"/>
<path d="M47.5089 23.1841H41.7603C41.3424 23.1841 41.0039 23.5159 41.0039 23.9256C41.0039 24.3353 41.3424 24.6672 41.7603 24.6672H47.5089C47.9267 24.6672 48.2653 24.3353 48.2653 23.9256C48.2653 23.5159 47.9267 23.1841 47.5089 23.1841Z" fill="#F376A2"/>
</g>
<defs>
<clipPath id="clip0">
<rect width="51" height="49.9974" fill="white" transform="translate(0 0.216797)"/>
</clipPath>
</defs>
</svg>
