<svg width="61" height="61" viewBox="0 0 61 61" fill="none" xmlns="http://www.w3.org/2000/svg">
<path d="M31.4531 17.1562H29.5469V19.0625H31.4531V17.1562Z" fill="#F376A2"/>
<path d="M27.6406 17.1562H25.7344V19.0625H27.6406V17.1562Z" fill="#F376A2"/>
<path d="M35.2656 17.1562H33.3594V19.0625H35.2656V17.1562Z" fill="#F376A2"/>
<path d="M12.3906 53.375H10.4844V55.2812H12.3906V53.375Z" fill="#F376A2"/>
<path d="M16.2031 53.375H14.2969V55.2812H16.2031V53.375Z" fill="#F376A2"/>
<path d="M20.0156 53.375H18.1094V55.2812H20.0156V53.375Z" fill="#F376A2"/>
<path d="M56.2344 1.90625H4.76562C4.00727 1.90625 3.27998 2.2075 2.74374 2.74374C2.2075 3.27998 1.90625 4.00727 1.90625 4.76562V54.3281C1.90776 55.5916 2.41034 56.8029 3.30374 57.6963C4.19714 58.5897 5.40842 59.0922 6.67188 59.0938H23.8281C25.0916 59.0922 26.3029 58.5897 27.1963 57.6963C28.0897 56.8029 28.5922 55.5916 28.5938 54.3281V53.375H40.0312V54.3281C40.0328 55.5916 40.5353 56.8029 41.4287 57.6963C42.3221 58.5897 43.5334 59.0922 44.7969 59.0938H54.3281C55.5916 59.0922 56.8029 58.5897 57.6963 57.6963C58.5897 56.8029 59.0922 55.5916 59.0938 54.3281V4.76562C59.0937 4.00727 58.7925 3.27998 58.2563 2.74374C57.72 2.2075 56.9927 1.90625 56.2344 1.90625V1.90625ZM3.8125 4.76562C3.8125 4.51284 3.91292 4.27041 4.09166 4.09166C4.27041 3.91292 4.51284 3.8125 4.76562 3.8125H56.2344C56.4872 3.8125 56.7296 3.91292 56.9083 4.09166C57.0871 4.27041 57.1875 4.51284 57.1875 4.76562V29.5412C56.8917 29.3262 56.5718 29.1465 56.2344 29.0055V4.76562H4.76562V21.371C4.72941 21.3862 4.69509 21.4043 4.65983 21.4205C4.57119 21.4615 3.84491 21.8971 3.8125 21.92V4.76562ZM47.6562 30.5H51.4688V31.4531H47.6562V30.5ZM6.67188 20.9688V6.67188H54.3281V28.5938H44.7969C43.6987 28.5951 42.6345 28.9751 41.7838 29.6696C40.9331 30.364 40.3478 31.3306 40.1266 32.4062H28.5938V25.7344C28.5922 24.4709 28.0897 23.2596 27.1963 22.3662C26.3029 21.4728 25.0916 20.9703 23.8281 20.9688H6.67188ZM19.0625 22.875V23.8281C19.0625 24.0809 18.9621 24.3233 18.7833 24.5021C18.6046 24.6808 18.3622 24.7812 18.1094 24.7812H12.3906C12.1378 24.7812 11.8954 24.6808 11.7167 24.5021C11.5379 24.3233 11.4375 24.0809 11.4375 23.8281V22.875H19.0625ZM28.5938 34.3125H40.0312V40.0312H28.5938V34.3125ZM26.6875 54.3281C26.6875 55.0865 26.3862 55.8138 25.85 56.35C25.3138 56.8862 24.5865 57.1875 23.8281 57.1875H6.67188C5.91352 57.1875 5.18623 56.8862 4.64999 56.35C4.11375 55.8138 3.8125 55.0865 3.8125 54.3281V25.7344C3.81216 25.0972 4.02509 24.4782 4.41737 23.9761C4.80965 23.4739 5.3587 23.1175 5.97705 22.9636C6.20338 22.9018 6.43726 22.8719 6.67188 22.875H9.53125V23.8281C9.53125 24.5865 9.8325 25.3138 10.3687 25.85C10.905 26.3862 11.6323 26.6875 12.3906 26.6875H18.1094C18.8677 26.6875 19.595 26.3862 20.1313 25.85C20.6675 25.3138 20.9687 24.5865 20.9688 23.8281V22.875H23.8281C24.5865 22.875 25.3138 23.1763 25.85 23.7125C26.3862 24.2487 26.6875 24.976 26.6875 25.7344V54.3281ZM28.5938 51.4688V41.9375H34.6299L38.6016 51.4688H28.5938ZM36.6953 41.9375H40.0312V49.9438L36.6953 41.9375ZM57.1875 54.3281C57.1875 55.0865 56.8862 55.8138 56.35 56.35C55.8138 56.8862 55.0865 57.1875 54.3281 57.1875H44.7969C44.0385 57.1875 43.3112 56.8862 42.775 56.35C42.2388 55.8138 41.9375 55.0865 41.9375 54.3281V33.3594C41.9375 32.601 42.2388 31.8737 42.775 31.3375C43.3112 30.8013 44.0385 30.5 44.7969 30.5H45.75V31.4531C45.75 31.9587 45.9508 32.4436 46.3083 32.801C46.6658 33.1585 47.1507 33.3594 47.6562 33.3594H51.4688C51.9743 33.3594 52.4592 33.1585 52.8167 32.801C53.1742 32.4436 53.375 31.9587 53.375 31.4531V30.5H54.3281C54.5572 30.4979 54.7855 30.5271 55.0068 30.5867L55.0401 30.5934H55.0535C55.6661 30.7515 56.2085 31.1093 56.595 31.6103C56.9815 32.1112 57.19 32.7267 57.1875 33.3594V54.3281Z" fill="#F376A2"/>
<path d="M50.5156 53.375H48.6094V55.2812H50.5156V53.375Z" fill="#F376A2"/>
<path d="M54.3281 53.375H52.4219V55.2812H54.3281V53.375Z" fill="#F376A2"/>
<path d="M46.7031 53.375H44.7969V55.2812H46.7031V53.375Z" fill="#F376A2"/>
</svg>
