<svg width="51" height="52" viewBox="0 0 51 52" fill="none" xmlns="http://www.w3.org/2000/svg">
<g clip-path="url(#clip0)">
<path d="M5.87318 19.6403C6.0187 19.7859 6.20975 19.859 6.4008 19.859C6.59185 19.859 6.7829 19.7863 6.92881 19.6403C7.22025 19.3489 7.22025 18.8762 6.92881 18.5847L5.11638 16.7723L6.92881 14.9602C7.22025 14.6684 7.22025 14.196 6.92881 13.9046C6.63737 13.6132 6.16462 13.6132 5.87318 13.9046L3.53313 16.2447C3.39305 16.3847 3.31445 16.5746 3.31445 16.7723C3.31445 16.9703 3.39305 17.1602 3.53313 17.3003L5.87318 19.6403Z" fill="#F376A2"/>
<path d="M13.281 16.7722L11.4685 18.5846C11.1771 18.8761 11.1771 19.3488 11.4689 19.6402C11.6144 19.7858 11.8055 19.8589 11.9965 19.8589C12.1876 19.8589 12.3786 19.7858 12.5242 19.6402L14.8646 17.2998C15.156 17.0084 15.156 16.5356 14.8646 16.2446L12.5242 13.9041C12.2327 13.6127 11.7604 13.6127 11.4689 13.9041C11.1771 14.1959 11.1771 14.6683 11.4689 14.9598L13.281 16.7722Z" fill="#F376A2"/>
<path d="M8.08494 19.8073C8.17443 19.8424 8.26704 19.8591 8.3577 19.8591C8.65575 19.8591 8.93707 19.6793 9.05263 19.3856L10.8911 14.7051C11.0421 14.3214 10.853 13.8883 10.4693 13.7374C10.0861 13.5868 9.65262 13.7755 9.50204 14.1592L7.66315 18.8397C7.51257 19.2233 7.70128 19.6568 8.08494 19.8073Z" fill="#F376A2"/>
<path d="M4.48262 24.2381H9.51097C9.92303 24.2381 10.2573 23.9039 10.2573 23.4914C10.2573 23.0794 9.92303 22.7451 9.51097 22.7451H4.48262C4.07018 22.7451 3.73633 23.0794 3.73633 23.4914C3.73633 23.9039 4.07018 24.2381 4.48262 24.2381Z" fill="#F376A2"/>
<path d="M21.0925 22.7451H12.2522C11.8401 22.7451 11.5059 23.0794 11.5059 23.4914C11.5059 23.9039 11.8401 24.2381 12.2522 24.2381H21.0925C21.505 24.2381 21.8392 23.9039 21.8392 23.4914C21.8392 23.0794 21.505 22.7451 21.0925 22.7451Z" fill="#F376A2"/>
<path d="M4.48262 27.3861H6.62462C7.03668 27.3861 7.37092 27.0518 7.37092 26.6394C7.37092 26.2273 7.03668 25.8931 6.62462 25.8931H4.48262C4.07018 25.8931 3.73633 26.2273 3.73633 26.6394C3.73633 27.0518 4.07018 27.3861 4.48262 27.3861Z" fill="#F376A2"/>
<path d="M18.3615 25.8931C17.9491 25.8931 17.6152 26.2273 17.6152 26.6394C17.6152 27.0518 17.9491 27.3861 18.3615 27.3861H19.6658C20.0782 27.3861 20.4125 27.0518 20.4125 26.6394C20.4125 26.2273 20.0782 25.8931 19.6658 25.8931H18.3615Z" fill="#F376A2"/>
<path d="M16.3976 26.6394C16.3976 26.2273 16.0633 25.8931 15.6513 25.8931H9.24434C8.8319 25.8931 8.49805 26.2273 8.49805 26.6394C8.49805 27.0518 8.8319 27.3861 9.24434 27.3861H15.6513C16.0633 27.3861 16.3976 27.0518 16.3976 26.6394Z" fill="#F376A2"/>
<path d="M21.2871 26.6394C21.2871 27.0518 21.6213 27.3861 22.0334 27.3861H24.4766C24.889 27.3861 25.2233 27.0518 25.2233 26.6394C25.2233 26.2273 24.889 25.8931 24.4766 25.8931H22.0334C21.6213 25.8931 21.2871 26.2273 21.2871 26.6394Z" fill="#F376A2"/>
<path d="M17.2213 17.3709H19.7983C20.2108 17.3709 20.545 17.0367 20.545 16.6242C20.545 16.2122 20.2108 15.8779 19.7983 15.8779H17.2213C16.8088 15.8779 16.4746 16.2122 16.4746 16.6242C16.4746 17.0367 16.8088 17.3709 17.2213 17.3709Z" fill="#F376A2"/>
<path d="M22.6861 17.3709H38.4101C38.8225 17.3709 39.1564 17.0367 39.1564 16.6242C39.1564 16.2122 38.8225 15.8779 38.4101 15.8779H22.6861C22.2737 15.8779 21.9395 16.2122 21.9395 16.6242C21.9395 17.0367 22.2737 17.3709 22.6861 17.3709Z" fill="#F376A2"/>
<path d="M36.0221 19.1621H29.6525C29.2405 19.1621 28.9062 19.4963 28.9062 19.9088C28.9062 20.3209 29.2405 20.6551 29.6525 20.6551H36.0221C36.4342 20.6551 36.7684 20.3209 36.7684 19.9088C36.7684 19.4963 36.4342 19.1621 36.0221 19.1621Z" fill="#F376A2"/>
<path d="M27.2639 19.1621H25.0744C24.662 19.1621 24.3281 19.4963 24.3281 19.9088C24.3281 20.3209 24.662 20.6551 25.0744 20.6551H27.2639C27.6763 20.6551 28.0102 20.3209 28.0102 19.9088C28.0102 19.4963 27.6763 19.1621 27.2639 19.1621Z" fill="#F376A2"/>
<path d="M17.2213 20.6551H22.585C22.9971 20.6551 23.3313 20.3209 23.3313 19.9088C23.3313 19.4963 22.9971 19.1621 22.585 19.1621H17.2213C16.8088 19.1621 16.4746 19.4963 16.4746 19.9088C16.4746 20.3209 16.8088 20.6551 17.2213 20.6551Z" fill="#F376A2"/>
<path d="M15.6594 29.0151H10.6314C10.219 29.0151 9.88477 29.3494 9.88477 29.7614C9.88477 30.1735 10.219 30.5077 10.6314 30.5077H15.6594C16.0715 30.5077 16.4057 30.1735 16.4057 29.7614C16.4057 29.3494 16.0715 29.0151 15.6594 29.0151Z" fill="#F376A2"/>
<path d="M8.34561 29.0151H4.48262C4.07018 29.0151 3.73633 29.3494 3.73633 29.7614C3.73633 30.1735 4.07018 30.5077 4.48262 30.5077H8.34561C8.75806 30.5077 9.09191 30.1735 9.09191 29.7614C9.09191 29.3494 8.75806 29.0151 8.34561 29.0151Z" fill="#F376A2"/>
<path d="M24.7756 29.0151H18.2072C17.7948 29.0151 17.4609 29.3494 17.4609 29.7614C17.4609 30.1735 17.7948 30.5077 18.2072 30.5077H24.7756C25.1877 30.5077 25.5219 30.1735 25.5219 29.7614C25.5219 29.3494 25.1877 29.0151 24.7756 29.0151Z" fill="#F376A2"/>
<path d="M33.6584 25.1807H30.0666C29.6545 25.1807 29.3203 25.5149 29.3203 25.927C29.3203 26.3394 29.6545 26.6736 30.0666 26.6736H33.6584C34.0708 26.6736 34.4047 26.3394 34.4047 25.927C34.4047 25.5149 34.0708 25.1807 33.6584 25.1807Z" fill="#F376A2"/>
<path d="M39.8908 26.6736H44.9612C45.3736 26.6736 45.7079 26.3394 45.7079 25.927C45.7079 25.5149 45.3736 25.1807 44.9612 25.1807H39.8908C39.4784 25.1807 39.1445 25.5149 39.1445 25.927C39.1445 26.3394 39.4788 26.6736 39.8908 26.6736Z" fill="#F376A2"/>
<path d="M37.3558 25.1807H36.194C35.7815 25.1807 35.4473 25.5149 35.4473 25.927C35.4473 26.3394 35.7815 26.6736 36.194 26.6736H37.3558C37.7683 26.6736 38.1021 26.3394 38.1021 25.927C38.1021 25.5149 37.7683 25.1807 37.3558 25.1807Z" fill="#F376A2"/>
<path d="M30.0666 34.8075H33.6584C34.0708 34.8075 34.4047 34.4737 34.4047 34.0612C34.4047 33.6492 34.0708 33.3149 33.6584 33.3149H30.0666C29.6545 33.3149 29.3203 33.6492 29.3203 34.0612C29.3203 34.4737 29.6545 34.8075 30.0666 34.8075Z" fill="#F376A2"/>
<path d="M39.8908 34.8075H44.9612C45.3736 34.8075 45.7079 34.4737 45.7079 34.0612C45.7079 33.6492 45.3736 33.3149 44.9612 33.3149H39.8908C39.4784 33.3149 39.1445 33.6492 39.1445 34.0612C39.1445 34.4737 39.4788 34.8075 39.8908 34.8075Z" fill="#F376A2"/>
<path d="M36.1936 34.8075H37.3554C37.7679 34.8075 38.1021 34.4737 38.1021 34.0612C38.1021 33.6492 37.7679 33.3149 37.3554 33.3149H36.1936C35.7811 33.3149 35.4473 33.6492 35.4473 34.0612C35.4473 34.4737 35.7811 34.8075 36.1936 34.8075Z" fill="#F376A2"/>
<path d="M33.6584 41.4492H30.0666C29.6545 41.4492 29.3203 41.7835 29.3203 42.1955C29.3203 42.6076 29.6545 42.9418 30.0666 42.9418H33.6584C34.0708 42.9418 34.4047 42.6076 34.4047 42.1955C34.4047 41.7835 34.0708 41.4492 33.6584 41.4492Z" fill="#F376A2"/>
<path d="M44.9612 41.4492H39.8908C39.4784 41.4492 39.1445 41.7835 39.1445 42.1955C39.1445 42.6076 39.4784 42.9418 39.8908 42.9418H44.9612C45.3736 42.9418 45.7079 42.6076 45.7079 42.1955C45.7079 41.7835 45.3736 41.4492 44.9612 41.4492Z" fill="#F376A2"/>
<path d="M37.3558 41.4492H36.194C35.7815 41.4492 35.4473 41.7835 35.4473 42.1955C35.4473 42.6076 35.7815 42.9418 36.194 42.9418H37.3558C37.7683 42.9418 38.1021 42.6076 38.1021 42.1955C38.1021 41.7835 37.7683 41.4492 37.3558 41.4492Z" fill="#F376A2"/>
<path d="M47.7154 1.05859H3.28518C1.47391 1.05859 0 2.53212 0 4.34377V40.4589C0 42.2702 1.47391 43.7437 3.28518 43.7437H6.09409C6.50615 43.7437 6.84039 43.4099 6.84039 42.9974C6.84039 42.5854 6.50615 42.2511 6.09409 42.2511H3.28518C2.29686 42.2511 1.49298 41.4472 1.49298 40.4589V37.6274H28.6861V38.9138H28.0942C27.2845 38.9138 26.6262 39.5722 26.6262 40.3819V42.2511H10.6322C10.2201 42.2511 9.88588 42.5854 9.88588 42.9974C9.88588 43.4099 10.2201 43.7437 10.6322 43.7437H17.8087V46.4207H15.5551C14.0516 46.4207 12.8286 47.6441 12.8286 49.1472V50.7596C12.8286 51.4456 13.3866 52.0035 14.0726 52.0035H36.8708C37.5568 52.0035 38.1147 51.4456 38.1147 50.7596V49.1472C38.1147 47.6441 36.8918 46.4207 35.3883 46.4207H33.1346V45.4772H46.9333C47.7426 45.4772 48.401 44.8188 48.401 44.0091V43.6577C49.8559 43.32 50.9434 42.0146 50.9434 40.4589L50.9998 4.34338C51.0002 2.53212 49.5267 1.05859 47.7154 1.05859ZM28.1191 35.8504V32.2726H46.9084V35.8504H28.1191ZM30.1786 30.7797V29.2093H44.8485V30.7797H30.1786ZM44.8485 37.343V38.9138H30.1786V37.343H44.8485ZM19.3013 43.7437H26.6262V44.0095C26.6262 44.8188 27.2845 45.4772 28.0942 45.4772H31.6421V46.4207H19.3013V43.7437ZM35.3887 47.9137C36.0689 47.9137 36.6222 48.467 36.6222 49.1472V50.511H14.3212V49.1472C14.3212 48.467 14.8749 47.9137 15.5551 47.9137H35.3887ZM46.9084 43.9842H28.1191V40.4068H46.9084V43.9842ZM49.4508 40.4589C49.4508 41.1819 49.0197 41.8048 48.4014 42.0877V40.3815C48.4014 39.5722 47.7426 38.9138 46.9333 38.9138H46.3415V37.6274H49.4508V40.4589ZM49.4508 36.1349H48.3769C48.3921 36.0504 48.4014 32.2477 48.4014 32.2477C48.4014 31.438 47.7426 30.7797 46.9333 30.7797H46.3415V29.2093H46.9333C47.7426 29.2093 48.4014 28.5505 48.4014 27.7412V24.1136C48.4014 23.3043 47.7426 22.6455 46.9333 22.6455H42.7174C42.305 22.6455 41.9711 22.9797 41.9711 23.3922C41.9711 23.8043 42.305 24.1385 42.7174 24.1385H46.9084V27.7163H28.1191V24.1385H38.0731C38.4856 24.1385 38.8194 23.8043 38.8194 23.3922C38.8194 22.9797 38.4856 22.6455 38.0731 22.6455H28.0942C27.2845 22.6455 26.6262 23.3043 26.6262 24.1136V27.7412C26.6262 28.5505 27.2845 29.2093 28.0942 29.2093H28.6861V30.7797H28.0942C27.2845 30.7797 26.6262 31.4384 26.6262 32.2477C26.6262 32.2477 26.6355 36.0504 26.6507 36.1349H1.49298V11.2118H49.4508V36.1349ZM49.4508 9.71881H1.54784V4.34338C1.54784 3.35546 2.35172 2.55157 3.34004 2.55157H47.6586C48.6469 2.55157 49.4508 3.35546 49.4508 4.34377V9.71881Z" fill="#F376A2"/>
<path d="M5.5047 3.92334C4.29693 3.92334 3.31445 4.90582 3.31445 6.11359C3.31445 7.32136 4.29693 8.30423 5.5047 8.30423C6.71247 8.30423 7.69534 7.32136 7.69534 6.11359C7.69534 4.90582 6.71247 3.92334 5.5047 3.92334ZM5.5047 6.81125C5.12027 6.81125 4.80704 6.49841 4.80704 6.11359C4.80704 5.72916 5.12027 5.41593 5.5047 5.41593C5.88952 5.41593 6.20236 5.72916 6.20236 6.11359C6.20236 6.49841 5.88952 6.81125 5.5047 6.81125Z" fill="#F376A2"/>
<path d="M11.0813 3.92334C9.87349 3.92334 8.89062 4.90582 8.89062 6.11359C8.89062 7.32136 9.87349 8.30423 11.0813 8.30423C12.289 8.30423 13.2715 7.32136 13.2715 6.11359C13.2715 4.90582 12.2886 3.92334 11.0813 3.92334ZM11.0813 6.81125C10.6964 6.81125 10.3836 6.49841 10.3836 6.11359C10.3836 5.72916 10.6964 5.41593 11.0813 5.41593C11.4657 5.41593 11.7789 5.72916 11.7789 6.11359C11.7789 6.49841 11.4657 6.81125 11.0813 6.81125Z" fill="#F376A2"/>
<path d="M16.657 3.92334C15.4493 3.92334 14.4668 4.90582 14.4668 6.11359C14.4668 7.32136 15.4493 8.30423 16.657 8.30423C17.8648 8.30423 18.8477 7.32136 18.8477 6.11359C18.8477 4.90582 17.8648 3.92334 16.657 3.92334ZM16.657 6.81125C16.2726 6.81125 15.9594 6.49841 15.9594 6.11359C15.9594 5.72916 16.2726 5.41593 16.657 5.41593C17.0419 5.41593 17.3547 5.72916 17.3547 6.11359C17.3547 6.49841 17.0419 6.81125 16.657 6.81125Z" fill="#F376A2"/>
</g>
<defs>
<clipPath id="clip0">
<rect width="51" height="51" fill="white" transform="translate(0 0.958984)"/>
</clipPath>
</defs>
</svg>
