<svg width="53" height="53" viewBox="0 0 53 53" fill="none" xmlns="http://www.w3.org/2000/svg">
<path d="M33.4045 10.4291C33.4045 8.92165 32.1777 7.69482 30.6698 7.69482C29.1624 7.69482 27.9355 8.92165 27.9355 10.4291C27.9355 11.9369 29.1624 13.1638 30.6698 13.1638C32.1777 13.1638 33.4045 11.9369 33.4045 10.4291ZM29.4883 10.4291C29.4883 9.77767 30.0184 9.24756 30.6698 9.24756C31.3216 9.24756 31.8517 9.77767 31.8517 10.4291C31.8517 11.0809 31.3216 11.611 30.6698 11.611C30.0184 11.611 29.4883 11.0809 29.4883 10.4291Z" fill="#F376A2"/>
<path d="M52.3324 16.0037C53.2196 15.1165 53.2196 13.673 52.3324 12.7858L50.066 10.5194C49.1788 9.63221 47.7353 9.63221 46.8481 10.5194L43.5789 13.7882V9.96338C43.5789 9.53436 43.2311 9.18701 42.8025 9.18701C42.3735 9.18701 42.0261 9.53436 42.0261 9.96338V15.3413L36.3845 20.9829V6.26148C36.3845 5.83286 36.0368 5.48512 35.6082 5.48512H23.1863C22.7573 5.48512 22.4099 5.83286 22.4099 6.26148C22.4099 6.69051 22.7573 7.03785 23.1863 7.03785H34.8318V13.5678L30.0733 17.7044L25.5983 14.2799C25.1709 12.9686 24.4398 11.7357 23.3994 10.6953C21.9696 9.26586 20.1427 8.37587 18.1654 8.12315V7.03785H19.8734C20.3024 7.03785 20.6497 6.69051 20.6497 6.26148C20.6497 5.83286 20.3024 5.48512 19.8734 5.48512H17.389C16.9604 5.48512 16.6126 5.83286 16.6126 6.26148V8.05562C14.5092 8.14175 12.5355 8.94076 10.971 10.337V1.55273H42.0257V6.625C42.0257 7.05402 42.3735 7.40137 42.8021 7.40137C43.2311 7.40137 43.5785 7.05402 43.5785 6.625V0.776367C43.5785 0.347344 43.2311 0 42.8021 0H10.1947C9.76605 0 9.4183 0.347344 9.4183 0.776367V12.1348C7.44949 15.1379 7.44949 19.0622 9.4183 22.065V22.3299L0.680534 31.068C-0.226845 31.975 -0.226845 33.4521 0.680534 34.3611C1.13463 34.8152 1.73106 35.0425 2.32789 35.0425C2.92432 35.0425 3.52115 34.8152 3.97524 34.3611L9.41871 28.9173V43.0107C9.41871 43.4398 9.76605 43.7871 10.1951 43.7871C10.6237 43.7871 10.9714 43.4398 10.9714 43.0107V27.3645L13.0701 25.2655C14.2787 25.8462 15.6127 26.1539 16.9948 26.1539C19.4169 26.1539 21.6914 25.2129 23.3994 23.5045C23.7601 23.1442 24.0815 22.7601 24.3682 22.3582H35.0089L29.7838 27.5837H14.8015C14.3725 27.5837 14.0252 27.931 14.0252 28.36C14.0252 28.7891 14.3725 29.1364 14.8015 29.1364H28.2311L26.3334 31.0341H14.8015C14.3725 31.0341 14.0252 31.3814 14.0252 31.8104C14.0252 32.2391 14.3725 32.5868 14.8015 32.5868H24.7807L22.8834 34.484H14.8015C14.3725 34.484 14.0252 34.8314 14.0252 35.2604C14.0252 35.6894 14.3725 36.0368 14.8015 36.0368H21.3307L19.4322 37.9352H14.8015C14.3725 37.9352 14.0252 38.2826 14.0252 38.7116C14.0252 39.1406 14.3725 39.488 14.8015 39.488H17.8795L17.1233 40.2441C16.7699 40.5975 16.6676 41.1078 16.814 41.5534C15.8549 42.1919 14.5718 43.6913 14.1881 47.1963C14.1444 47.5966 14.2843 47.9916 14.5718 48.2791C14.825 48.5322 15.161 48.6713 15.5108 48.6713C15.5589 48.6713 15.607 48.6685 15.6551 48.6633C19.1605 48.2803 20.6599 46.9973 21.2979 46.0378C21.4285 46.0806 21.5644 46.1033 21.7007 46.1033C22.029 46.1033 22.3578 45.9783 22.6076 45.7284L32.2989 36.0368H37.5746C38.0036 36.0368 38.3509 35.6894 38.3509 35.2604C38.3509 34.8318 38.0036 34.484 37.5746 34.484H33.8516L35.7493 32.5868H37.5746C38.0036 32.5868 38.3509 32.2391 38.3509 31.8104C38.3509 31.3814 38.0036 31.0341 37.5746 31.0341H37.302L42.0257 26.31V40.5264H36.8924C35.7562 40.5264 34.8314 41.4511 34.8314 42.5874V47.2642C34.8314 48.4008 35.7562 49.3252 36.8924 49.3252H42.0257V51.4473H10.971V46.4268C10.971 45.9977 10.6237 45.6504 10.1947 45.6504C9.76605 45.6504 9.4183 45.9977 9.4183 46.4268V52.2236C9.4183 52.6527 9.76605 53 10.1947 53H42.8021C43.2311 53 43.5785 52.6527 43.5785 52.2236V49.3252H49.2294C50.366 49.3252 51.2904 48.4004 51.2904 47.2642V42.5874C51.2904 41.4507 50.366 40.5264 49.2294 40.5264H43.5785V24.7572L52.3324 16.0037ZM36.3845 47.2642V42.5874C36.3845 42.3072 36.6126 42.0791 36.8928 42.0791H40.3784V47.7725H36.8928C36.6126 47.7725 36.3845 47.5444 36.3845 47.2642ZM41.9311 42.0791H43.4838V47.7725H41.9311V42.0791ZM49.738 42.5874V47.2642C49.738 47.5444 49.51 47.7725 49.2298 47.7725H45.0366V42.0791H49.2298C49.51 42.0791 49.738 42.3072 49.738 42.5874ZM23.8939 42.2461L20.6053 38.9579L42.9161 16.647L46.2044 19.9352L23.8939 42.2461ZM21.7007 44.4393L18.412 41.1511L19.5074 40.0557L22.7957 43.3443L21.7007 44.4393ZM45.1094 14.4538L48.3976 17.742L47.3026 18.8374L44.0144 15.5492L45.1094 14.4538ZM47.9459 11.6172C48.2278 11.3354 48.6863 11.3358 48.9677 11.6172L51.2342 13.8836C51.516 14.1655 51.516 14.624 51.2342 14.9054L49.4958 16.6442L46.2076 13.3559L47.9459 11.6172ZM34.8318 15.6252V20.8054H34.1258L31.3321 18.6676L34.8318 15.6252ZM2.87701 33.2633C2.73022 33.4101 2.53532 33.4909 2.32789 33.4909C2.12005 33.4909 1.92515 33.4101 1.77877 33.2637C1.47631 32.9608 1.47591 32.4679 1.77837 32.1659L10.5165 23.4277C10.5412 23.4532 10.5647 23.4794 10.5897 23.5049C10.9359 23.8506 11.3058 24.1632 11.6948 24.4446L2.87701 33.2633ZM16.9948 24.6011C14.9875 24.6011 13.1028 23.8219 11.688 22.4067C8.76163 19.4808 8.76163 14.7194 11.688 11.7935C13.1028 10.3783 14.9875 9.59905 16.9948 9.59905C19.002 9.59905 20.8867 10.3783 22.3015 11.7935C25.2275 14.7194 25.2275 19.4808 22.3015 22.4067C20.8867 23.8219 19.002 24.6011 16.9948 24.6011ZM25.2578 20.8054C25.8571 19.4646 26.115 18.0077 26.0305 16.5661L31.5702 20.8054H25.2578ZM15.7319 47.3653C15.7319 47.3649 15.7319 47.3649 15.7319 47.3649V47.3653ZM15.7647 47.0871C16.1565 44.035 17.2713 43.056 17.8192 42.754L18.4096 43.3443L17.4966 44.2574C17.1933 44.5606 17.1933 45.0523 17.4966 45.3552C17.6482 45.5068 17.8467 45.5829 18.0453 45.5829C18.2442 45.5829 18.4428 45.5068 18.5944 45.3552L19.5074 44.4422L20.1014 45.0358C19.8059 45.5723 18.8305 46.694 15.7647 47.0871Z" fill="#F376A2"/>
</svg>
