<svg width="51" height="52" viewBox="0 0 51 52" fill="none" xmlns="http://www.w3.org/2000/svg">
<g clip-path="url(#clip0)">
<path d="M50.2738 35.9532C50.2735 35.9532 50.2732 35.9531 50.2728 35.9531V35.9506L46.9817 35.4809C46.5189 35.4155 46.1968 34.9873 46.2621 34.5246C46.2937 34.3015 46.4129 34.1002 46.5932 33.9652L47.6722 33.1579H49.9301C50.3974 33.1579 50.7764 32.779 50.7764 32.3116V1.84578C50.7764 1.37843 50.3974 0.999512 49.9301 0.999512H0.846274C0.378919 0.999512 7.51734e-07 1.37843 7.51734e-07 1.84578V32.3116C7.51734e-07 32.779 0.378919 33.1579 0.846274 33.1579H3.03474L1.9405 34.2521C1.65214 34.5408 1.61088 34.9942 1.84234 35.3303L3.45026 37.6694L0.668556 38.2533C0.278107 38.3372 -0.000528169 38.6825 7.51734e-07 39.0818V42.4669C-0.000210816 42.8672 0.280223 43.2129 0.671941 43.2954L3.45364 43.8802L1.84572 46.2184C1.61427 46.5545 1.65552 47.0079 1.94389 47.2966L4.48271 49.8354C4.77139 50.1237 5.22478 50.165 5.56086 49.9335L7.89911 48.3256L8.48389 51.1073C8.56746 51.4965 8.91094 51.7748 9.309 51.7759H12.6941C13.0944 51.7761 13.4401 51.4957 13.5226 51.1039L14.1074 48.3214L16.4456 49.9335C16.7817 50.165 17.2351 50.1237 17.5238 49.8354L20.0626 47.2966C20.351 47.0079 20.3922 46.5545 20.1608 46.2184L18.5528 43.8793L21.3345 43.2954C21.725 43.2115 22.0036 42.8662 22.0031 42.4669V39.0818C22.0033 38.6815 21.7229 38.3358 21.3312 38.2533L18.5495 37.6685L20.1574 35.3303C20.3888 34.9942 20.3476 34.5408 20.0592 34.2521L18.9684 33.1579H22.4609L21.7839 37.8674C21.7168 38.3299 22.0374 38.7593 22.4999 38.8264C22.5035 38.827 22.5072 38.8275 22.5108 38.8279L25.8019 39.2976C26.2647 39.363 26.5868 39.7912 26.5215 40.2539C26.4899 40.477 26.3707 40.6783 26.1903 40.8133L23.5264 42.8054C23.1524 43.0858 23.0767 43.6162 23.3571 43.9902L26.4037 48.0523C26.6841 48.4262 27.2145 48.502 27.5885 48.2215L30.2483 46.226C30.6222 45.9455 31.1527 46.0212 31.4331 46.3951C31.568 46.5748 31.6259 46.8007 31.5939 47.0232L31.1234 50.3144C31.057 50.7771 31.3783 51.2058 31.8409 51.2722C31.8412 51.2722 31.8415 51.2723 31.8419 51.2723L36.8679 51.99C36.9076 51.996 36.9478 51.9992 36.988 51.9993C37.4093 51.9993 37.7664 51.6895 37.8259 51.2723L38.2964 47.9812C38.3623 47.5185 38.7908 47.1968 39.2535 47.2627C39.4759 47.2943 39.6764 47.4131 39.8112 47.5928L41.8059 50.2526C42.0863 50.6265 42.6167 50.7023 42.9907 50.4218L47.0528 47.3753C47.4267 47.0948 47.5025 46.5644 47.222 46.1905L45.2265 43.5306C44.946 43.1568 45.0217 42.6263 45.3956 42.3459C45.5753 42.211 45.8013 42.1531 46.0237 42.1851L49.3149 42.6548C49.7775 42.7212 50.2064 42.3999 50.2728 41.9373C50.2728 41.9372 50.2728 41.9372 50.2728 41.9371L50.9913 36.9111C51.0577 36.4485 50.7364 36.0197 50.2738 35.9532ZM20.3105 39.769V41.7797L18.2008 42.2232C17.286 42.4154 16.7002 43.3127 16.8925 44.2276C16.9387 44.4474 17.0281 44.6558 17.1556 44.8407L18.3641 46.5984L16.8256 48.1369L15.0679 46.925C14.2982 46.3946 13.2443 46.5886 12.7138 47.3583C12.5866 47.5429 12.4973 47.7509 12.4512 47.9702L12.0069 50.0833H9.99618L9.55188 47.9744C9.3584 47.0599 8.46019 46.4754 7.54569 46.6688C7.32851 46.7147 7.12255 46.803 6.93944 46.9284L5.1775 48.1369L3.63897 46.5984L4.85084 44.8407C5.38166 44.0712 5.18829 43.0172 4.41881 42.4863C4.2339 42.3588 4.02551 42.2693 3.80569 42.2232L1.69255 41.7797V39.769L3.8023 39.3255C4.71681 39.1319 5.30116 38.2336 5.10757 37.3191C5.06156 37.1017 4.97312 36.8954 4.84745 36.7122L3.63897 34.9503L5.1775 33.4118L6.93944 34.6202C7.70912 35.1506 8.76316 34.9566 9.29356 34.1869C9.42071 34.0024 9.50999 33.7944 9.55611 33.5751L9.99618 31.4653H12.0069L12.4512 33.5742C12.6433 34.4891 13.5406 35.075 14.4554 34.8829C14.6749 34.8368 14.8831 34.7475 15.0679 34.6202L16.8256 33.4118L18.3641 34.9503L17.1556 36.7122C16.6248 37.4817 16.8182 38.5357 17.5877 39.0666C17.7726 39.1941 17.981 39.2836 18.2008 39.3297L20.3105 39.769ZM14.6126 32.8778L14.1048 33.2264L13.5201 30.4447C13.4378 30.0539 13.0934 29.7738 12.6941 29.7728H11.0015V23.8489H14.3866V32.3116C14.388 32.522 14.4687 32.7242 14.6126 32.8778ZM18.618 18.7712C18.1506 18.7712 17.7717 19.1502 17.7717 19.6175V31.4653H16.0792V23.0026C16.0792 22.5353 15.7003 22.1563 15.2329 22.1563H10.1553C9.68792 22.1563 9.309 22.5353 9.309 23.0026V29.7728C8.90872 29.7726 8.56301 30.053 8.4805 30.4447L7.89573 33.2273L5.55747 31.6151C5.41583 31.52 5.24827 31.471 5.07764 31.4746V31.4653H1.69255V2.69206H49.0838V30.3373L46.3758 26.7262C46.0953 26.3523 45.5649 26.2765 45.191 26.5569L42.5311 28.5525C42.1573 28.833 41.6268 28.7573 41.3464 28.3834C41.2115 28.2037 41.1536 27.9777 41.1856 27.7553L41.6561 24.4641C41.6884 24.2297 41.6198 23.9926 41.4674 23.8116V8.61597C41.4674 8.14861 41.0885 7.76969 40.6211 7.76969H35.5435C35.0761 7.76969 34.6972 8.14861 34.6972 8.61597V25.2994L34.4831 26.7973C34.421 27.2567 33.9982 27.5789 33.5387 27.5168C33.3298 27.4886 33.1392 27.3828 33.0046 27.2204V12.8473C33.0046 12.38 32.6257 12.0011 32.1584 12.0011H27.0807C26.6134 12.0011 26.2345 12.38 26.2345 12.8473V27.0224L25.7267 27.4032C25.3527 27.6837 25.277 28.2141 25.5574 28.588L27.5529 31.2478C27.8335 31.6217 27.7577 32.1522 27.3839 32.4326C27.2042 32.5675 26.9781 32.6254 26.7558 32.5934L24.5419 32.2778V19.6175C24.5419 19.1502 24.163 18.7712 23.6956 18.7712H18.618ZM39.7748 9.46224V23.3411L36.3897 22.857V9.46224H39.7748ZM31.3121 13.6936V24.9778L30.9736 24.5259C30.6931 24.1519 30.1628 24.0762 29.7888 24.3566L27.927 25.753V13.6936H31.3121ZM22.8494 31.4653H19.4643V20.4638H22.8494V31.4653ZM48.7165 40.859L46.2624 40.5086C44.8743 40.3104 43.5883 41.2749 43.3901 42.663C43.2949 43.3296 43.4684 44.0067 43.8725 44.5453L45.3602 46.529L42.6522 48.56L41.1652 46.5772C40.3246 45.455 38.7334 45.2268 37.6112 46.0673C37.0717 46.4714 36.7151 47.0736 36.6199 47.7409L36.2696 50.195L32.92 49.7161L33.2704 47.2619C33.4682 45.8738 32.5032 44.5881 31.1151 44.3902C30.4492 44.2954 29.7728 44.4686 29.2345 44.872L27.25 46.3597L25.2189 43.6517L27.2009 42.1648C28.3227 41.3236 28.5503 39.7323 27.7091 38.6105C27.3052 38.0719 26.7038 37.7157 26.0373 37.6203L23.5831 37.2691L24.0621 33.9187L26.5163 34.269C27.9044 34.4673 29.1903 33.5027 29.3885 32.1146C29.4837 31.4481 29.3102 30.771 28.9061 30.2323L27.4192 28.2495L30.1273 26.2184L31.6142 28.2013C32.4549 29.3235 34.0461 29.5517 35.1682 28.7111C35.7077 28.307 36.0643 27.7049 36.1595 27.0376L36.5099 24.5834L39.8603 25.0624L39.5099 27.5166C39.3121 28.9047 40.2771 30.1904 41.6652 30.3882C42.3311 30.4831 43.0075 30.3099 43.5458 29.9065L45.5295 28.4187L47.5605 31.1268L45.5786 32.6137C44.4567 33.4549 44.2292 35.0462 45.0704 36.168C45.4743 36.7066 46.0756 37.0628 46.7422 37.1582L49.1964 37.5094L48.7165 40.859Z" fill="#F376A2"/>
<path d="M11.0015 35.6963C8.19713 35.6963 5.92383 37.9696 5.92383 40.7739C5.92383 43.5783 8.19713 45.8516 11.0015 45.8516C13.8058 45.8516 16.0791 43.5783 16.0791 40.7739C16.0764 37.9708 13.8046 35.699 11.0015 35.6963ZM11.0015 44.159C9.13194 44.159 7.61637 42.6434 7.61637 40.7739C7.61637 38.9044 9.13194 37.3888 11.0015 37.3888C12.871 37.3888 14.3866 38.9044 14.3866 40.7739C14.3866 42.6434 12.871 44.159 11.0015 44.159Z" fill="#F376A2"/>
<path d="M36.3893 30.6191C32.6503 30.6191 29.6191 33.6503 29.6191 37.3893C29.6191 41.1284 32.6503 44.1595 36.3893 44.1595C40.1284 44.1595 43.1595 41.1284 43.1595 37.3893C43.1553 33.652 40.1267 30.6234 36.3893 30.6191ZM36.3893 42.467C33.585 42.467 31.3117 40.1937 31.3117 37.3893C31.3117 34.585 33.585 32.3117 36.3893 32.3117C39.1937 32.3117 41.467 34.585 41.467 37.3893C41.4642 40.1925 39.1925 42.4642 36.3893 42.467Z" fill="#F376A2"/>
<path d="M34.0202 4.40145L29.7889 3.55518L29.4504 5.21387L31.5017 5.62516L8.88086 18.8871L9.73729 20.3478L32.651 6.91573L32.1754 9.29291L33.8341 9.62465L34.6803 5.39328C34.7697 4.93756 34.4751 4.49496 34.0202 4.40145Z" fill="#F376A2"/>
<path d="M5.07731 23.8486H3.38477V29.7725H5.07731V23.8486Z" fill="#F376A2"/>
<path d="M5.07731 20.4634H3.38477V22.1559H5.07731V20.4634Z" fill="#F376A2"/>
<path d="M47.3918 12.001H45.6992V24.6951H47.3918V12.001Z" fill="#F376A2"/>
<path d="M47.3918 8.61621H45.6992V10.3088H47.3918V8.61621Z" fill="#F376A2"/>
<path d="M21.1574 49.2368H19.4648V50.9294H21.1574V49.2368Z" fill="#F376A2"/>
<path d="M24.5422 49.2368H22.8496V50.9294H24.5422V49.2368Z" fill="#F376A2"/>
<path d="M27.9269 49.2368H26.2344V50.9294H27.9269V49.2368Z" fill="#F376A2"/>
</g>
<defs>
<clipPath id="clip0">
<rect width="51" height="51" fill="white" transform="translate(0 0.998535)"/>
</clipPath>
</defs>
</svg>
