<svg width="58" height="58" viewBox="0 0 58 58" fill="none" xmlns="http://www.w3.org/2000/svg">
<path d="M54.7271 7.60369C54.7271 7.60369 54.7271 7.60369 54.7265 7.60369C54.6783 7.59872 54.6415 7.59507 29.7672 7.59473V7.30334C30.6454 7.30334 31.3602 6.58848 31.3602 5.71033V5.49792C31.3602 4.18037 30.2883 3.1084 28.9707 3.1084C27.6531 3.1084 26.5812 4.18037 26.5812 5.49792V5.71033C26.5812 6.58848 27.296 7.30334 28.1742 7.30334V7.59473C21.8771 7.59473 14.0859 7.59507 4.43989 7.5954H3.37622C2.49807 7.5954 1.7832 8.31026 1.7832 9.18841V10.7814C1.7832 11.6596 2.49807 12.3744 3.37622 12.3744H7.09326V30.5295C6.52542 30.963 5.99209 31.4402 5.50024 31.9566V14.7643C5.50024 14.3246 5.14347 13.9678 4.70373 13.9678C4.264 13.9678 3.90723 14.3246 3.90723 14.7643V33.9841C2.56312 36.0782 1.7832 38.5673 1.7832 41.2346C1.7832 48.6571 7.82173 54.6956 15.2442 54.6956C21.445 54.6956 26.6791 50.4808 28.2343 44.7658H42.0321L43.4273 47.8659C42.8867 48.1211 42.5113 48.67 42.5113 49.3059V49.5183C42.5113 50.8359 43.5833 51.9078 44.9009 51.9078C46.2184 51.9078 47.2904 50.8359 47.2904 49.5183V49.3059C47.2904 48.4277 46.5755 47.7129 45.6974 47.7129H45.105L43.7788 44.7658H50.9779C52.6632 44.7658 54.0338 43.3948 54.0338 41.7102V12.3698C54.7006 12.3688 54.7139 12.3675 54.7271 12.3662C55.5429 12.2832 56.1582 11.6022 56.1582 10.7814V9.18841C56.1582 8.36801 55.5429 7.68633 54.7271 7.60369ZM28.1742 5.49792C28.1742 5.05852 28.5313 4.70142 28.9707 4.70142C29.4101 4.70142 29.7672 5.05852 29.7672 5.49792V5.71033H28.1742V5.49792ZM45.6974 49.5183C45.6974 49.9577 45.3403 50.3148 44.9009 50.3148C44.4615 50.3148 44.1044 49.9577 44.1044 49.5183V49.3059H45.6974V49.5183ZM8.68628 25.9187L14.1785 20.4268L19.69 25.9383C20.0007 26.2496 20.5051 26.2496 20.8164 25.9383L23.0852 23.6696L31.7704 32.3549C31.9198 32.5042 32.1222 32.5878 32.334 32.5878C32.545 32.5878 32.7475 32.5042 32.8972 32.3549L46.0688 19.1829V20.1802C46.0688 20.62 46.4255 20.9767 46.8653 20.9767C47.3053 20.9767 47.6618 20.62 47.6618 20.1802V17.2607C47.6618 17.2341 47.6604 17.2076 47.6581 17.181C47.6568 17.1701 47.6551 17.1598 47.6535 17.1495C47.6515 17.1339 47.6495 17.119 47.6462 17.1037C47.6438 17.0914 47.6405 17.0792 47.6375 17.0669C47.6342 17.0539 47.6316 17.041 47.6276 17.0284C47.6239 17.0161 47.6193 17.0042 47.615 16.9922C47.6107 16.9796 47.6063 16.9673 47.601 16.9547C47.5964 16.9438 47.5911 16.9328 47.5858 16.9215C47.5798 16.9092 47.5745 16.8963 47.5678 16.8843C47.5622 16.8741 47.5559 16.8641 47.5496 16.8535C47.5426 16.8415 47.5357 16.8293 47.5277 16.8176C47.5201 16.8064 47.5121 16.7961 47.5041 16.7851C47.4965 16.7752 47.4895 16.7649 47.4816 16.7549C47.466 16.7363 47.4494 16.7181 47.4324 16.7005C47.4311 16.6992 47.4301 16.6982 47.4291 16.6968C47.4278 16.6955 47.4265 16.6948 47.4258 16.6938C47.4079 16.6766 47.3896 16.6593 47.3704 16.6437C47.3614 16.6368 47.3518 16.6301 47.3422 16.6228C47.3309 16.6145 47.3196 16.6056 47.3073 16.5976C47.2967 16.5903 47.2851 16.5837 47.2738 16.577C47.2625 16.5704 47.2522 16.5638 47.2406 16.5574C47.229 16.5511 47.2174 16.5462 47.2054 16.5405C47.1938 16.5349 47.1822 16.5289 47.1703 16.5239C47.1583 16.5193 47.147 16.5156 47.1347 16.511C47.1225 16.5063 47.1095 16.5017 47.0966 16.4977C47.085 16.4941 47.073 16.4914 47.0611 16.4884C47.0478 16.4851 47.0349 16.4814 47.0212 16.4791C47.0076 16.4761 46.9937 16.4745 46.9801 16.4728C46.9681 16.4708 46.9559 16.4685 46.9439 16.4675C46.919 16.4649 46.8941 16.4635 46.8689 16.4635C46.8682 16.4635 46.8669 16.4632 46.8656 16.4632H43.9451C43.505 16.4632 43.1486 16.82 43.1486 17.2597C43.1486 17.6998 43.505 18.0562 43.9451 18.0562H44.9424L32.334 30.6653L23.6487 21.98C23.3381 21.6687 22.8336 21.669 22.5223 21.98L20.2536 24.2487L14.7417 18.7369C14.4308 18.4259 13.9263 18.4259 13.615 18.7369L8.68628 23.666V12.3748H25.3615C37.9696 12.3748 45.1558 12.3741 49.2551 12.3731V39.7743H28.6259C27.8954 33.0365 22.1735 27.7736 15.2442 27.7736C12.8646 27.7736 10.6278 28.3952 8.68628 29.4828V25.9187ZM15.2442 53.1026C8.70022 53.1026 3.37622 47.7786 3.37622 41.2346C3.37622 34.691 8.70022 29.3666 15.2442 29.3666C21.5094 29.3666 26.6549 34.2466 27.0826 40.4049C27.0717 40.4583 27.0654 40.5141 27.0654 40.5709C27.0654 40.6568 27.079 40.7388 27.1039 40.8161C27.1089 40.9552 27.1122 41.0946 27.1122 41.2346C27.1122 47.7786 21.7882 53.1026 15.2442 53.1026ZM52.4412 41.7102C52.4412 42.5167 51.7847 43.1728 50.9782 43.1728H28.5651C28.6504 42.5824 28.6979 41.9797 28.7035 41.3674H49.2551C50.1333 41.3674 50.8481 40.6525 50.8481 39.7743V12.3725C51.4757 12.3725 52.0011 12.3721 52.4412 12.3715V41.7102ZM7.89276 10.7814C7.89176 10.7814 7.89043 10.7814 7.88977 10.7814C7.88911 10.7814 7.88778 10.7814 7.88678 10.7814C6.34288 10.7814 4.85341 10.7814 3.43928 10.7814H3.37622V9.18841H4.44022C11.9715 9.18808 18.7449 9.18808 24.7011 9.18808C43.0304 9.18808 53.6054 9.18974 54.5652 9.19207L54.5665 10.7778C53.015 10.7818 26.4597 10.7824 7.89276 10.7814Z" fill="#F376A2"/>
<path d="M15.2444 32.5522C10.4571 32.5522 6.5625 36.4468 6.5625 41.2342C6.5625 46.0215 10.4571 49.9161 15.2444 49.9161C16.9815 49.9161 18.6595 49.4027 20.0965 48.431C20.4609 48.1847 20.5565 47.6892 20.3102 47.3251C20.0637 46.9607 19.5688 46.8648 19.2041 47.1114C18.0316 47.9043 16.6622 48.3231 15.2444 48.3231C11.3356 48.3231 8.15552 45.143 8.15552 41.2342C8.15552 37.3256 11.3356 34.1453 15.2444 34.1453C19.1537 34.1453 22.3334 37.3256 22.3334 41.2342C22.3334 42.6241 21.9298 43.9702 21.1658 45.1274C20.9236 45.4948 21.0251 45.9887 21.3922 46.2309C21.7592 46.4729 22.2531 46.372 22.4957 46.0049C23.4316 44.5865 23.9264 42.9367 23.9264 41.2342C23.9264 36.4468 20.0318 32.5522 15.2444 32.5522Z" fill="#F376A2"/>
<path d="M15.245 35.7383C14.8053 35.7383 14.4485 36.0947 14.4485 36.5348V38.9817C13.5212 39.3106 12.8555 40.1957 12.8555 41.2342C12.8555 42.5517 13.9274 43.6237 15.245 43.6237C16.2834 43.6237 17.1686 42.9579 17.4978 42.0307H18.2186C18.6584 42.0307 19.0151 41.6742 19.0151 41.2342C19.0151 40.7941 18.6584 40.4377 18.2186 40.4377H17.4978C17.2568 39.76 16.7192 39.2223 16.0415 38.9817V36.5348C16.0415 36.0947 15.6847 35.7383 15.245 35.7383ZM15.245 42.0307C14.8056 42.0307 14.4485 41.6736 14.4485 41.2342C14.4485 40.7948 14.8056 40.4377 15.245 40.4377C15.6844 40.4377 16.0415 40.7948 16.0415 41.2342C16.0415 41.6736 15.6844 42.0307 15.245 42.0307Z" fill="#F376A2"/>
</svg>
