<svg width="54" height="54" viewBox="0 0 54 54" fill="none" xmlns="http://www.w3.org/2000/svg">
<g clip-path="url(#clip0)">
<path d="M22.7781 9.67272L21.2046 8.97874C21.1332 8.71454 21.0558 8.46443 20.9694 8.22322L21.8439 6.71749C22.0032 6.44213 22.0059 6.10331 21.851 5.82547C21.4202 5.05643 20.9058 4.33732 20.317 3.68121C20.0988 3.43538 19.7635 3.32898 19.4435 3.40382L17.7881 3.78254C17.5952 3.62846 17.3939 3.4799 17.1841 3.33698L17.0238 1.58463C16.994 1.26441 16.7961 0.984316 16.5043 0.849398C15.7152 0.479811 14.8865 0.201522 14.0343 0.0199403C13.7128 -0.0484768 13.3798 0.0643494 13.1661 0.31401L12.0107 1.65519H11.3169L10.1613 0.313897C9.94786 0.0640112 9.61457 -0.0489277 9.29311 0.0198275C8.44088 0.201522 7.61221 0.479811 6.82311 0.849286C6.53095 0.984429 6.33303 1.26497 6.30361 1.58542L6.14333 3.33687C5.93459 3.47957 5.73215 3.62835 5.5393 3.78243L3.88365 3.40382C3.56366 3.32876 3.22822 3.43527 3.01012 3.68121C2.42131 4.3372 1.90688 5.05632 1.4762 5.82547C1.32122 6.10331 1.32393 6.44213 1.48331 6.71749L2.35774 8.22322C2.2714 8.46454 2.19396 8.71454 2.12262 8.97874L0.548911 9.67261C0.222268 9.81699 0.0116062 10.1405 0.0117189 10.4977V12.9474C0.0114935 13.3046 0.222155 13.6281 0.548911 13.7724L2.1225 14.4664C2.19385 14.7306 2.27129 14.9807 2.35762 15.2219L1.48319 16.7277C1.32382 17.003 1.32111 17.3419 1.47609 17.6197C1.90688 18.3887 2.42131 19.1079 3.01001 19.764C3.22856 20.0092 3.56355 20.1156 3.88354 20.0413L5.53896 19.6626C5.73181 19.8167 5.93312 19.9653 6.14299 20.1082L6.30327 21.8605C6.33303 22.1808 6.53095 22.4608 6.82277 22.5958C7.61187 22.9654 8.44054 23.2436 9.29277 23.4252C9.61423 23.4932 9.94707 23.3805 10.161 23.1312L11.3163 21.7901H12.0102L13.1655 23.1312C13.3367 23.3303 13.5863 23.4448 13.8489 23.4446C13.911 23.4447 13.973 23.4382 14.0338 23.4252C14.8861 23.2435 15.7147 22.9652 16.5038 22.5958C16.796 22.4606 16.9939 22.1801 17.0233 21.8596L17.1836 20.1082C17.3924 19.9655 17.5948 19.8167 17.7876 19.6626L19.4432 20.0412C19.7632 20.1158 20.0984 20.0093 20.3167 19.7638C20.9055 19.1078 21.4199 18.3887 21.8506 17.6196C22.0056 17.3417 22.0029 17.0029 21.8435 16.7276L20.9691 15.2218C21.0554 14.9805 21.1329 14.7305 21.2042 14.4663L22.7778 13.7724C23.1045 13.6281 23.3151 13.3046 23.315 12.9474V10.4978C23.3155 10.1406 23.1048 9.81699 22.7781 9.67272ZM21.512 12.3601L20.0723 12.9951C19.8123 13.1103 19.6217 13.3413 19.558 13.6185C19.4569 14.0753 19.3173 14.5228 19.1407 14.956C19.0331 15.2157 19.0526 15.5106 19.1935 15.7538L20.0186 17.1759C19.8032 17.518 19.5676 17.847 19.3132 18.1613L17.7546 17.8047C17.4713 17.7382 17.1734 17.8137 16.9559 18.0072C16.6107 18.3103 16.2408 18.584 15.8499 18.8253C15.6093 18.9743 15.4528 19.2277 15.4272 19.5094L15.2757 21.1641C14.9158 21.3102 14.5477 21.4352 14.1733 21.5383L13.1069 20.3002C12.9356 20.1013 12.6861 19.9869 12.4235 19.9868H10.9036C10.641 19.9869 10.3916 20.1013 10.2202 20.3002L9.15379 21.5383C8.77902 21.4352 8.41068 21.3102 8.05044 21.1641L7.89896 19.5078C7.87281 19.2264 7.71636 18.9735 7.47628 18.8245C7.0855 18.5838 6.7158 18.3104 6.37112 18.0073C6.1537 17.8139 5.8558 17.7384 5.57244 17.8048L4.01384 18.1614C3.75944 17.8472 3.52398 17.5181 3.30848 17.1761L4.13354 15.7539C4.27432 15.5107 4.29393 15.2159 4.1864 14.9562C4.00978 14.5229 3.87013 14.0754 3.76902 13.6186C3.70534 13.3414 3.51485 13.1104 3.25471 12.9952L1.81502 12.3603V11.0851L3.25482 10.4502C3.51485 10.335 3.70545 10.104 3.76913 9.8268C3.87024 9.36997 4.00989 8.9225 4.18651 8.48923C4.29404 8.22954 4.27454 7.93468 4.13365 7.69144L3.30859 6.26934C3.52398 5.92725 3.75944 5.59824 4.01384 5.284L5.57244 5.64062C5.8558 5.70656 6.15348 5.63104 6.37112 5.43808C6.71637 5.13499 7.08629 4.86132 7.47718 4.62C7.71771 4.47099 7.87427 4.21761 7.89986 3.93583L8.05134 2.2812C8.41124 2.13512 8.77936 2.01012 9.15379 1.90699L10.2202 3.14503C10.3915 3.34397 10.6409 3.45838 10.9036 3.45849H12.4234C12.6859 3.45838 12.9353 3.34386 13.1068 3.14503L14.1732 1.90699C14.5479 2.01012 14.9163 2.13512 15.2765 2.2812L15.428 3.93752C15.4541 4.21885 15.6106 4.47178 15.8507 4.62079C16.2414 4.86143 16.6111 5.13488 16.9558 5.43796C17.1734 5.63104 17.4711 5.70656 17.7545 5.64051L19.3131 5.28388C19.5675 5.59813 19.8031 5.92714 20.0185 6.26922L19.1934 7.69133C19.0526 7.93457 19.033 8.22942 19.1405 8.48912C19.3172 8.92239 19.4568 9.36986 19.5579 9.82669C19.6216 10.1038 19.8121 10.3349 20.0722 10.4501L21.5119 11.085V12.3601H21.512Z" fill="#F376A2"/>
<path d="M11.6635 5.41064C8.17751 5.41064 5.35156 8.2366 5.35156 11.7226C5.35573 15.2068 8.17932 18.0304 11.6635 18.0346C15.1495 18.0346 17.9755 15.2086 17.9755 11.7226C17.9755 8.2366 15.1495 5.41064 11.6635 5.41064ZM11.6635 16.2311C9.17356 16.2311 7.15498 14.2126 7.15498 11.7226C7.15791 9.23377 9.17469 7.21699 11.6635 7.21406C14.1535 7.21406 16.1721 9.23264 16.1721 11.7226C16.1721 14.2126 14.1535 16.2311 11.6635 16.2311Z" fill="#F376A2"/>
<path d="M53.4489 8.07376L52.2037 7.52428C52.1553 7.34991 52.1025 7.18265 52.0462 7.01966L52.74 5.82389C52.8994 5.54819 52.9021 5.20915 52.7471 4.93097C52.3821 4.28095 51.9469 3.67298 51.4491 3.11786C51.231 2.87249 50.8963 2.76597 50.5765 2.84047L49.2662 3.13984C49.1376 3.03941 49.0055 2.94203 48.8699 2.84746L48.7431 1.45793C48.714 1.13737 48.516 0.856605 48.2236 0.7218C47.5552 0.409584 46.8537 0.174125 46.1322 0.0199333C45.8108 -0.0487092 45.4775 0.064117 45.264 0.314003L44.3464 1.37948H43.9061L42.9885 0.314003C42.7752 0.0638916 42.4417 -0.0490473 42.1203 0.0199333C41.3989 0.174125 40.6973 0.409471 40.0289 0.7218C39.7365 0.856605 39.5385 1.13737 39.5094 1.45793L39.3826 2.84746C39.247 2.94169 39.1149 3.03919 38.9863 3.13984L37.676 2.84047C37.3562 2.76642 37.0217 2.87282 36.8034 3.11786C36.3055 3.67286 35.8706 4.28129 35.5063 4.93187C35.3513 5.20971 35.3539 5.54853 35.5133 5.82389L36.2063 7.01876C36.15 7.18163 36.0974 7.35014 36.0488 7.52417L34.8036 8.07376C34.4765 8.21769 34.2654 8.54141 34.2656 8.89882V10.9399C34.2654 11.2974 34.4765 11.6211 34.8036 11.765L36.0488 12.3145C36.0972 12.4889 36.15 12.6561 36.2063 12.8191L35.5125 14.015C35.3531 14.2907 35.3504 14.6297 35.5054 14.9079C35.8703 15.5579 36.3056 16.1659 36.8034 16.721C37.0217 16.9665 37.3569 17.073 37.6769 16.9984L38.9854 16.6981C39.114 16.7994 39.2469 16.8972 39.3825 16.9914L39.5093 18.381C39.5384 18.7016 39.7365 18.9823 40.0288 19.1171C40.6972 19.4293 41.3987 19.6648 42.1202 19.819C42.4416 19.887 42.7746 19.7743 42.9884 19.5249L43.906 18.4594H44.3463L45.2639 19.5249C45.4351 19.724 45.6846 19.8386 45.9473 19.8383C46.0094 19.8385 46.0713 19.8319 46.1322 19.819C46.8537 19.6648 47.5552 19.4294 48.2236 19.1171C48.516 18.9823 48.714 18.7015 48.7431 18.381L48.8699 16.9914C49.0055 16.8972 49.1376 16.7997 49.2662 16.699L50.5765 16.9984C50.8963 17.0726 51.2309 16.9662 51.4491 16.721C51.9468 16.166 52.3821 15.5579 52.7471 14.9079C52.9021 14.6297 52.8994 14.2907 52.74 14.015L52.0462 12.8192C52.1025 12.6564 52.1554 12.489 52.2037 12.3146L53.4489 11.7651C53.776 11.6212 53.9871 11.2975 53.9869 10.9401V8.89882C53.9871 8.54141 53.776 8.21769 53.4489 8.07376ZM52.1835 10.3527L51.073 10.8423C50.8117 10.9572 50.6206 11.1892 50.5579 11.4676C50.4755 11.8391 50.3618 12.2028 50.218 12.555C50.1104 12.8149 50.1299 13.1101 50.2708 13.3537L50.9127 14.4598C50.7674 14.6852 50.6107 14.9048 50.4425 15.1185L49.2343 14.842C48.9515 14.7758 48.6543 14.8513 48.4374 15.0445C48.1565 15.2909 47.8556 15.5133 47.5375 15.7093C47.2963 15.8583 47.1391 16.112 47.113 16.3944L46.9959 17.6818C46.7538 17.7769 46.5107 17.8597 46.2686 17.9284L45.4426 16.9694C45.2713 16.7705 45.0219 16.6561 44.7594 16.656H43.4931C43.2306 16.6561 42.9812 16.7706 42.8099 16.9694L41.9839 17.9284C41.7418 17.8598 41.4987 17.7769 41.2566 17.6818L41.1395 16.3944C41.1134 16.112 40.9563 15.8583 40.715 15.7093C40.397 15.5135 40.0963 15.291 39.8159 15.0445C39.5975 14.8527 39.3006 14.7771 39.0172 14.8411L37.8099 15.1176C37.6417 14.9053 37.4849 14.6852 37.3397 14.4598L37.9816 13.3537C38.1223 13.1101 38.142 12.8149 38.0344 12.555C37.8906 12.2028 37.7769 11.839 37.6945 11.4676C37.6317 11.1892 37.4405 10.9572 37.1794 10.8423L36.0689 10.3527V9.48629L37.1794 8.99666C37.4407 8.8818 37.6318 8.64984 37.6945 8.37144C37.777 7.99948 37.8907 7.63508 38.0344 7.28217C38.142 7.02248 38.1225 6.72762 37.9816 6.48439L37.3404 5.37833C37.4848 5.15381 37.6416 4.93368 37.8098 4.72054L39.018 4.99702C39.3008 5.0624 39.5976 4.98699 39.8148 4.79448C40.0957 4.54808 40.3967 4.3257 40.7148 4.12969C40.956 3.98068 41.1132 3.72697 41.1392 3.44462L41.2563 2.15721C41.4984 2.06208 41.7416 1.97934 41.9837 1.91059L42.8096 2.86955C42.981 3.06849 43.2304 3.1829 43.493 3.18301H44.7592C45.0218 3.1829 45.2713 3.06849 45.4426 2.86955L46.2686 1.91059C46.5107 1.97923 46.7538 2.06208 46.9959 2.15721L47.113 3.44462C47.1391 3.72697 47.2962 3.98068 47.5375 4.12969C47.8556 4.3257 48.1565 4.54808 48.4374 4.79448C48.6545 4.98722 48.9516 5.06273 49.2343 4.99702L50.4425 4.72054C50.6107 4.93368 50.7674 5.15313 50.9127 5.37923L50.2708 6.48529C50.13 6.72886 50.1104 7.02406 50.218 7.28398C50.3618 7.63621 50.4755 8.00005 50.5579 8.37144C50.6207 8.64984 50.8118 8.8818 51.073 8.99666L52.1835 9.48629V10.3527Z" fill="#F376A2"/>
<path d="M44.1257 5.41064C41.6358 5.41064 39.6172 7.42923 39.6172 9.91918C39.6201 12.408 41.6369 14.4248 44.1257 14.4277C46.6157 14.4277 48.6343 12.4091 48.6343 9.91918C48.6343 7.42923 46.6157 5.41064 44.1257 5.41064ZM44.1257 12.6243C42.6317 12.6243 41.4206 11.4132 41.4206 9.91918C41.4222 8.42584 42.6324 7.21564 44.1257 7.21406C45.6197 7.21406 46.8309 8.42516 46.8309 9.91918C46.8309 11.4132 45.6196 12.6243 44.1257 12.6243Z" fill="#F376A2"/>
<path d="M53.2272 38.1574L51.9204 37.8826C51.8667 37.6563 51.8059 37.4299 51.7382 37.2054L52.7403 36.3072C53.0281 36.0496 53.1198 35.6374 52.9683 35.2822C52.5334 34.2727 51.9771 33.3201 51.312 32.445C51.0791 32.1372 50.6769 32.011 50.3099 32.1306L49.0497 32.5445C48.8895 32.3745 48.7231 32.2081 48.5531 32.0479L48.967 30.7886C49.0875 30.4222 48.9615 30.0197 48.6535 29.7874C47.7785 29.1211 46.8256 28.5642 45.8154 28.1293C45.46 27.9794 45.0487 28.0709 44.7904 28.3573L43.8922 29.3602C43.6677 29.2916 43.4413 29.2308 43.215 29.1771L42.9402 27.8703C42.8523 27.4531 42.4843 27.1544 42.0579 27.1543H38.9831C38.5567 27.1544 38.1887 27.453 38.1007 27.8703L37.826 29.1771C37.5996 29.2308 37.3733 29.2916 37.1488 29.3593L36.2506 28.3572C35.9923 28.0707 35.5809 27.9791 35.2255 28.1292C34.2161 28.5641 33.2634 29.1204 32.3883 29.7855C32.0798 30.0178 31.9535 30.4206 32.074 30.7876L32.4878 32.0477C32.3179 32.208 32.1515 32.3744 31.9912 32.5444L30.732 32.1305C30.3656 32.0118 29.9641 32.1375 29.7308 32.4439C29.0645 33.3189 28.5076 34.2719 28.0726 35.2821C27.9211 35.6373 28.0129 36.0495 28.3006 36.3071L29.3036 37.2053C29.2349 37.4298 29.1742 37.6561 29.1204 37.8825L27.8136 38.1573C27.3965 38.2452 27.0978 38.6132 27.0977 39.0396V42.1145C27.0978 42.5409 27.3963 42.9089 27.8136 42.9968L29.1204 43.2716C29.1742 43.498 29.2349 43.7243 29.3027 43.9488L28.3005 44.847C28.0128 45.1046 27.921 45.5168 28.0725 45.872C28.5075 46.8815 29.0637 47.8342 29.7288 48.7093C29.9617 49.017 30.364 49.1432 30.731 49.0236L31.9911 48.6097C32.1514 48.7797 32.3178 48.9461 32.4877 49.1064L32.0738 50.3656C31.9534 50.732 32.0794 51.1345 32.3873 51.3668C33.2623 52.0331 34.2153 52.59 35.2254 53.025C35.5806 53.1772 35.9933 53.0854 36.2504 52.7969L37.1487 51.794C37.3732 51.8627 37.5995 51.9234 37.8258 51.9772L38.1006 53.284C38.1885 53.7011 38.5566 53.9998 38.983 53.9999H42.0579C42.4843 53.9998 42.8523 53.7012 42.9402 53.284L43.215 51.9772C43.4413 51.9234 43.6677 51.8627 43.8922 51.7949L44.7904 52.7971C45.0475 53.0855 45.4603 53.1772 45.8154 53.0251C46.8249 52.5901 47.7775 52.0339 48.6526 51.3687C48.9611 51.1364 49.0875 50.7335 48.967 50.3666L48.5531 49.1065C48.7231 48.9462 48.8895 48.7798 49.0497 48.6099L50.309 49.0237C50.6754 49.1433 51.0773 49.0174 51.3102 48.7103C51.9764 47.8353 52.5334 46.8823 52.9683 45.8722C53.1198 45.5169 53.0281 45.1047 52.7403 44.8471L51.7374 43.9489C51.806 43.7244 51.8668 43.4981 51.9205 43.2718L53.2273 42.997C53.6445 42.909 53.9432 42.541 53.9433 42.1146V39.0397C53.9431 38.6134 53.6445 38.2453 53.2272 38.1574ZM52.1397 41.3829L50.973 41.6286C50.6139 41.7041 50.3364 41.9896 50.2711 42.3507C50.1737 42.8855 50.032 43.4112 49.8475 43.9226C49.7233 44.2681 49.8213 44.6544 50.0949 44.8991L51.0407 45.7463C50.8055 46.2161 50.5392 46.6697 50.2438 47.1041L49.0524 46.7122C48.7034 46.5983 48.32 46.7065 48.0821 46.9861C47.7302 47.4021 47.3444 47.7883 46.9286 48.1405C46.6492 48.3783 46.5413 48.7615 46.6556 49.1101L47.0475 50.3006C46.6131 50.5962 46.1595 50.8624 45.6896 51.0974L44.8417 50.1517C44.5961 49.8788 44.21 49.7811 43.8642 49.9043C43.3536 50.0891 42.8284 50.2308 42.2941 50.3278C41.9331 50.3931 41.6475 50.6706 41.5721 51.0297L41.3264 52.1965H39.7149L39.4692 51.0297C39.3937 50.6706 39.1082 50.3931 38.7472 50.3278C38.2123 50.2305 37.6866 50.0888 37.1753 49.9043H37.1754C36.8298 49.7821 36.4445 49.8797 36.1988 50.1517L35.3517 51.0974C34.8819 50.8622 34.4282 50.596 33.9938 50.3006L34.3857 49.1092C34.5002 48.7601 34.3919 48.3764 34.1118 48.1388C33.6958 47.7869 33.3096 47.4011 32.9574 46.9853C32.7192 46.7065 32.3366 46.5987 31.9878 46.7123L30.7973 47.1042C30.5016 46.6698 30.2354 46.2163 30.0004 45.7464L30.9461 44.8984C31.2199 44.6534 31.3178 44.2668 31.1936 43.921C31.0087 43.4104 30.867 42.8851 30.77 42.3509C30.7047 41.9899 30.4272 41.7042 30.0681 41.6288L28.9013 41.3831V39.7717L30.0681 39.5259C30.4272 39.4504 30.7047 39.1649 30.77 38.8039C30.8674 38.2691 31.009 37.7434 31.1936 37.232C31.3178 36.8864 31.2198 36.5002 30.9461 36.2555L30.0004 35.4084C30.2356 34.9386 30.5018 34.485 30.7973 34.0506L31.9886 34.4425C32.3377 34.5564 32.721 34.4482 32.959 34.1686C33.3109 33.7525 33.6967 33.3664 34.1125 33.0142C34.3919 32.7763 34.4998 32.3932 34.3855 32.0446L33.9936 30.8541C34.428 30.5585 34.8815 30.2922 35.3514 30.0572L36.1994 31.003C36.4448 31.2762 36.831 31.3739 37.1768 31.2504C37.6874 31.0656 38.2127 30.9239 38.7469 30.8268C39.108 30.7616 39.3936 30.4841 39.469 30.125L39.7147 28.9582H41.3262L41.5719 30.125C41.6474 30.4841 41.9329 30.7616 42.2939 30.8268C42.8287 30.9242 43.3544 31.0659 43.8657 31.2504C44.2113 31.3742 44.5973 31.2763 44.8423 31.003L45.6894 30.0572C46.1592 30.2925 46.6129 30.5587 47.0473 30.8541L46.6554 32.0455C46.5408 32.3946 46.6492 32.7782 46.9293 33.0158C47.3453 33.3677 47.7314 33.7536 48.0837 34.1694C48.3223 34.4473 48.7045 34.5549 49.0532 34.4423L50.2437 34.0504C50.5394 34.4848 50.8056 34.9384 51.0406 35.4083L50.0948 36.2562C49.821 36.5013 49.7232 36.8879 49.8474 37.2337C50.0323 37.7443 50.1739 38.2695 50.271 38.8038C50.3362 39.1648 50.6137 39.4504 50.9728 39.5258L52.1397 39.7715V41.3829Z" fill="#F376A2"/>
<path d="M40.5177 32.4619C36.0358 32.4619 32.4023 36.0952 32.4023 40.5773C32.4023 45.0592 36.0358 48.6926 40.5177 48.6926C44.9977 48.6878 48.6282 45.0573 48.6331 40.5773C48.6331 36.0952 44.9996 32.4619 40.5177 32.4619ZM40.5177 46.8892C37.0335 46.8851 34.2099 44.0615 34.2058 40.5773C34.2058 37.0913 37.0317 34.2653 40.5177 34.2653C44.0037 34.2653 46.8297 37.0913 46.8297 40.5773C46.8297 44.0633 44.0037 46.8892 40.5177 46.8892Z" fill="#F376A2"/>
<path d="M32.4051 9.91943H25.1914V11.7228H32.4051V9.91943Z" fill="#F376A2"/>
<path d="M25.1159 39.3214C25.0247 39.1082 24.8549 38.9383 24.6416 38.8471L18.3297 36.142C17.8724 35.9457 17.3425 36.1572 17.1462 36.6145C17.0979 36.727 17.073 36.8482 17.0731 36.9706V38.774H6.25263V24.3467H4.44922V39.6757C4.44888 40.1734 4.85217 40.5771 5.34991 40.5774C5.35025 40.5774 5.35059 40.5774 5.35093 40.5774H17.0731V42.3808C17.0728 42.8784 17.476 43.2822 17.9736 43.2825C17.974 43.2825 17.9744 43.2825 17.9748 43.2825C18.0969 43.2828 18.2177 43.258 18.3297 43.2095L24.6416 40.5044C25.0992 40.3088 25.3116 39.7791 25.1159 39.3214ZM18.8765 41.0134V38.3382L21.9973 39.6758L18.8765 41.0134Z" fill="#F376A2"/>
<path d="M43.4316 37.2949L39.5553 41.9469L37.5485 39.9402L36.2734 41.2152L38.9786 43.9203C39.1474 44.0897 39.3769 44.1848 39.6161 44.1845C39.6293 44.1845 39.6433 44.1845 39.6565 44.1836C39.9098 44.1723 40.1465 44.055 40.309 43.8605L44.8176 38.4502L43.4316 37.2949Z" fill="#F376A2"/>
</g>
<defs>
<clipPath id="clip0">
<rect width="54" height="54" fill="white"/>
</clipPath>
</defs>
</svg>
