<svg width="51" height="51" viewBox="0 0 51 51" fill="none" xmlns="http://www.w3.org/2000/svg">
<g clip-path="url(#clip0)">
<path d="M26.2997 40.249H24.7031V41.7534H26.2997V40.249Z" fill="#F376A2"/>
<path d="M26.2504 15.4556H24.7461V17.0522H26.2504V15.4556Z" fill="#F376A2"/>
<path d="M26.2504 9.06982H24.7461V10.6664H26.2504V9.06982Z" fill="#F376A2"/>
<path d="M30.5566 20.5122L31.6202 21.576L32.7312 20.4651V25.834H34.2356V20.4652L35.3464 21.576L36.4103 20.5122L33.4834 17.5854L30.5566 20.5122Z" fill="#F376A2"/>
<path d="M14.5898 20.5122L15.6536 21.576L16.7644 20.4652V25.834H18.2688V20.4652L19.3796 21.576L20.4435 20.5122L17.5166 17.5854L14.5898 20.5122Z" fill="#F376A2"/>
<path d="M8.20312 12.5288L9.2669 13.5927L10.3778 12.4817V17.8507H11.8822V12.4817L12.9931 13.5926L14.0569 12.5289L11.13 9.60205L8.20312 12.5288Z" fill="#F376A2"/>
<path d="M42.7972 12.5289L39.8703 9.60205L36.9434 12.5288L38.0072 13.5927L39.1182 12.4817V17.8507H40.6225V12.4817L41.7333 13.5926L42.7972 12.5289Z" fill="#F376A2"/>
<path d="M38.2742 3.52686H30.291V5.03121H38.2742V3.52686Z" fill="#F376A2"/>
<path d="M49 38.5606C50.1046 38.5606 51 37.6651 51 36.5606V5.52686C51 4.42229 50.1046 3.52686 49 3.52686H40.6681V5.03121H49.4957V37.0562H1.50435V5.03121H20.7101V3.52686H2C0.895432 3.52686 0 4.42229 0 5.52686V36.5606C0 37.6651 0.895431 38.5606 2 38.5606H17.4841L16.8362 45.0394H14.7731C13.6686 45.0394 12.7731 45.9348 12.7731 47.0394V47.7371C12.7731 48.8417 13.6686 49.7371 14.7731 49.7371H36.2271C37.3316 49.7371 38.2271 48.8417 38.2271 47.7371V47.0393C38.2271 45.9347 37.3316 45.0393 36.2271 45.0393H34.1641L33.5161 38.5605L49 38.5606ZM36.7226 48.2327H14.2774V46.5437H36.7226V48.2327ZM32.6521 45.0393H18.3481L18.6766 41.7538H23.1051V40.2495H18.827L18.9959 38.5605H32.0042L32.6521 45.0393Z" fill="#F376A2"/>
<path d="M29.4931 40.2495H27.8965V41.7539H29.4931V40.2495Z" fill="#F376A2"/>
<path d="M19.1135 7.4719C19.1135 7.05649 18.7767 6.71973 18.3613 6.71973H5.19336C4.08879 6.71973 3.19336 7.61516 3.19336 8.71973V33.3669C3.19336 34.4714 4.08879 35.3669 5.19336 35.3669H11.1764C11.5919 35.3669 11.9286 35.0301 11.9286 34.6147C11.9286 34.1993 11.5919 33.8625 11.1764 33.8625H4.69771V8.22408H18.3613C18.7767 8.22408 19.1135 7.88732 19.1135 7.4719Z" fill="#F376A2"/>
<path d="M21.5553 16.2082V33.8635H15.0764C14.661 33.8635 14.3242 34.2002 14.3242 34.6156C14.3242 35.031 14.661 35.3678 15.0764 35.3678H45.8076C46.9121 35.3678 47.8076 34.4724 47.8076 33.3678V8.72065C47.8076 7.61608 46.9121 6.72065 45.8076 6.72065H32.6394C32.224 6.72065 31.8872 7.05741 31.8872 7.47283C31.8872 7.88824 32.224 8.225 32.6394 8.225H46.3032V33.8635H29.4463V24.2375H27.9419V33.8635H23.0597V14.7038H18.8747L25.5007 4.10218L32.1268 14.7038H27.9419V21.8426H29.4463V16.2082H33.0368C33.8222 16.2082 34.3011 15.3442 33.8848 14.6782L27.1967 3.97727C26.4134 2.72393 24.5881 2.72393 23.8047 3.97727L17.1167 14.6782C16.7004 15.3442 17.1792 16.2082 17.9647 16.2082H21.5553Z" fill="#F376A2"/>
<path d="M26.2524 18.6489H24.748V29.027H26.2524V18.6489Z" fill="#F376A2"/>
<path d="M26.2524 12.2632H24.748V13.8598H26.2524V12.2632Z" fill="#F376A2"/>
<path d="M34.2348 27.4321H32.7305V29.0288H34.2348V27.4321Z" fill="#F376A2"/>
<path d="M34.2348 30.6255H32.7305V32.2221H34.2348V30.6255Z" fill="#F376A2"/>
<path d="M18.268 27.4321H16.7637V29.0288H18.268V27.4321Z" fill="#F376A2"/>
<path d="M18.268 30.6255H16.7637V32.2221H18.268V30.6255Z" fill="#F376A2"/>
<path d="M11.8833 19.4463H10.3789V21.0429H11.8833V19.4463Z" fill="#F376A2"/>
<path d="M11.8833 22.6416H10.3789V24.2383H11.8833V22.6416Z" fill="#F376A2"/>
<path d="M40.6215 19.4463H39.1172V21.0429H40.6215V19.4463Z" fill="#F376A2"/>
<path d="M40.6215 22.6416H39.1172V24.2383H40.6215V22.6416Z" fill="#F376A2"/>
<path d="M11.8833 25.8345H10.3789V32.2211H11.8833V25.8345Z" fill="#F376A2"/>
<path d="M40.6215 25.8345H39.1172V32.2211H40.6215V25.8345Z" fill="#F376A2"/>
</g>
<defs>
<clipPath id="clip0">
<rect width="51" height="51" fill="white"/>
</clipPath>
</defs>
</svg>
