<svg width="51" height="51" viewBox="0 0 51 51" fill="none" xmlns="http://www.w3.org/2000/svg">
<g clip-path="url(#clip0)">
<path d="M4.77451 13.5358C5.09201 13.6674 5.45776 13.5946 5.70095 13.351L7.64995 11.402L9.59895 13.351C9.75848 13.5106 9.97443 13.6 10.1997 13.6004C10.3118 13.6004 10.4223 13.5786 10.5254 13.5358C10.8429 13.4039 11.0499 13.0938 11.0499 12.7503V7.65034C11.0499 7.42466 10.9604 7.20871 10.8009 7.04918L8.25072 4.49941C7.91882 4.16751 7.38069 4.16751 7.04879 4.49941L4.49902 7.04918C4.33949 7.20871 4.25 7.42466 4.25 7.65034V12.7503C4.24961 13.0938 4.45661 13.4039 4.77451 13.5358ZM5.94997 8.00208L7.64995 6.30211L9.34992 8.00208V10.6985L8.25072 9.59933C7.91882 9.26743 7.38069 9.26743 7.04879 9.59933L5.94997 10.6985V8.00208Z" fill="#F376A2"/>
<path d="M5.09979 17.0003H10.1997C10.6694 17.0003 11.0499 16.6197 11.0499 16.1501C11.0499 15.6808 10.6694 15.3003 10.1997 15.3003H5.09979C4.63054 15.3003 4.25 15.6808 4.25 16.1501C4.25 16.6197 4.63054 17.0003 5.09979 17.0003Z" fill="#F376A2"/>
<path d="M21.2502 5.95046H22.1004C22.5696 5.95046 22.9502 5.56992 22.9502 5.10028C22.9502 4.63103 22.5696 4.25049 22.1004 4.25049H21.2502C20.7809 4.25049 20.4004 4.63103 20.4004 5.10028C20.4004 5.56992 20.7809 5.95046 21.2502 5.95046Z" fill="#F376A2"/>
<path d="M25.5006 5.95046H32.3005C32.7701 5.95046 33.1507 5.56992 33.1507 5.10028C33.1507 4.63103 32.7701 4.25049 32.3005 4.25049H25.5006C25.0313 4.25049 24.6504 4.63103 24.6504 5.10028C24.6504 5.56992 25.0313 5.95046 25.5006 5.95046Z" fill="#F376A2"/>
<path d="M23.7994 9.34988H32.2993C32.7689 9.34988 33.1495 8.96934 33.1495 8.4997C33.1495 8.03044 32.7689 7.6499 32.2993 7.6499H23.7994C23.3298 7.6499 22.9492 8.03044 22.9492 8.4997C22.9492 8.96934 23.3298 9.34988 23.7994 9.34988Z" fill="#F376A2"/>
<path d="M48.4498 28.0502H36.55V26.3502H45.0499C46.4584 26.3502 47.6001 25.2082 47.6001 23.8V13.6002C47.6001 12.1916 46.4584 11.05 45.0499 11.05H36.55V1.69997C36.55 0.761078 35.7889 0 34.8501 0H1.69997C0.761078 0 0 0.761078 0 1.69997V49.3C0 50.2389 0.761078 51 1.69997 51H48.4498C49.8584 51 51 49.8584 51 48.4498V30.5999C51 29.1918 49.8584 28.0502 48.4498 28.0502ZM45.9001 13.6002V23.8C45.9001 24.2693 45.5195 24.6498 45.0499 24.6498H26.3502C25.8805 24.6498 25.5 24.2693 25.5 23.8V13.6002C25.5 13.1305 25.8805 12.75 26.3502 12.75H45.0499C45.5195 12.75 45.9001 13.1305 45.9001 13.6002ZM1.69997 1.69997H34.8501V11.05H26.3502C24.9416 11.05 23.8 12.1916 23.8 13.6002V23.8C23.8 25.2082 24.9416 26.3502 26.3502 26.3502H34.8501V28.0502H17.0001C15.5916 28.0502 14.45 29.1918 14.45 30.5999V42.5001H5.09992C4.63067 42.5001 4.25013 42.8807 4.25013 43.3499C4.25013 43.8196 4.63067 44.2001 5.09992 44.2001H14.45V45.9001H9.35005C8.88041 45.9001 8.49987 46.2806 8.49987 46.7499C8.49987 47.2195 8.88041 47.6001 9.35005 47.6001H14.45V48.4498C14.4527 48.7401 14.5056 49.0277 14.6064 49.3H1.69997V1.69997ZM49.3 48.4498C49.3 48.9195 48.9195 49.3 48.4498 49.3H17.0001C16.5305 49.3 16.1499 48.9195 16.1499 48.4498V30.5999C16.1499 30.1307 16.5305 29.7501 17.0001 29.7501H48.4498C48.9195 29.7501 49.3 30.1307 49.3 30.5999V48.4498Z" fill="#F376A2"/>
<path d="M46.1481 31.6981L43.847 33.9989H21.601L19.2999 31.6981C18.9664 31.3759 18.4365 31.3806 18.1085 31.7082C17.7805 32.0362 17.7758 32.5666 18.098 32.9001L20.6481 35.4498C20.8073 35.6094 21.0236 35.6988 21.2489 35.6988H44.1991C44.4244 35.6988 44.6408 35.6094 44.7999 35.4498L47.3501 32.9001C47.6722 32.5666 47.6676 32.0362 47.3396 31.7082C47.0119 31.3806 46.4816 31.3759 46.1481 31.6981Z" fill="#F376A2"/>
<path d="M36.5506 42.5005H28.9006C28.4313 42.5005 28.0508 42.881 28.0508 43.3503C28.0508 43.8199 28.4313 44.2005 28.9006 44.2005H36.5506C37.0199 44.2005 37.4004 43.8199 37.4004 43.3503C37.4004 42.881 37.0199 42.5005 36.5506 42.5005Z" fill="#F376A2"/>
<path d="M36.5506 45.8999H28.9006C28.4313 45.8999 28.0508 46.2804 28.0508 46.7497C28.0508 47.2193 28.4313 47.5999 28.9006 47.5999H36.5506C37.0199 47.5999 37.4004 47.2193 37.4004 46.7497C37.4004 46.2804 37.0199 45.8999 36.5506 45.8999Z" fill="#F376A2"/>
<path d="M30.3514 13.85C30.0195 13.5181 29.4814 13.5181 29.1495 13.85L27.4495 15.55C27.1274 15.8834 27.132 16.4134 27.46 16.7414C27.7877 17.0694 28.318 17.0737 28.6515 16.7519L29.7507 15.6527L30.8495 16.7519C31.1829 17.0737 31.7133 17.0694 32.0413 16.7414C32.3689 16.4134 32.3736 15.8834 32.0514 15.55L30.3514 13.85Z" fill="#F376A2"/>
<path d="M30.6005 17.8501H28.9006C28.4313 17.8501 28.0508 18.2306 28.0508 18.7003C28.0508 19.1695 28.4313 19.5501 28.9006 19.5501H30.6005C31.0702 19.5501 31.4507 19.1695 31.4507 18.7003C31.4507 18.2306 31.0702 17.8501 30.6005 17.8501Z" fill="#F376A2"/>
<path d="M37.4006 17.0003H39.1009C39.5702 17.0003 39.9507 16.6197 39.9507 16.1501C39.9507 15.6808 39.5702 15.3003 39.1009 15.3003H37.4006C36.9313 15.3003 36.5508 15.6808 36.5508 16.1501C36.5508 16.6197 36.9313 17.0003 37.4006 17.0003Z" fill="#F376A2"/>
<path d="M42.5006 17.0003H43.3504C43.82 17.0003 44.2005 16.6197 44.2005 16.1501C44.2005 15.6808 43.82 15.3003 43.3504 15.3003H42.5006C42.0309 15.3003 41.6504 15.6808 41.6504 16.1501C41.6504 16.6197 42.0309 17.0003 42.5006 17.0003Z" fill="#F376A2"/>
<path d="M43.3499 17.8501H39.1002C38.6305 17.8501 38.25 18.2306 38.25 18.7003C38.25 19.1695 38.6305 19.5501 39.1002 19.5501H43.3499C43.8196 19.5501 44.2001 19.1695 44.2001 18.7003C44.2001 18.2306 43.8196 17.8501 43.3499 17.8501Z" fill="#F376A2"/>
<path d="M37.4006 22.9495H39.1009C39.5702 22.9495 39.9507 22.5689 39.9507 22.0997C39.9507 21.6301 39.5702 21.2495 39.1009 21.2495H37.4006C36.9313 21.2495 36.5508 21.6301 36.5508 22.0997C36.5508 22.5689 36.9313 22.9495 37.4006 22.9495Z" fill="#F376A2"/>
<path d="M43.3504 21.2495H42.5006C42.0309 21.2495 41.6504 21.6301 41.6504 22.0997C41.6504 22.5689 42.0309 22.9495 42.5006 22.9495H43.3504C43.82 22.9495 44.2005 22.5689 44.2005 22.0997C44.2005 21.6301 43.82 21.2495 43.3504 21.2495Z" fill="#F376A2"/>
</g>
<defs>
<clipPath id="clip0">
<rect width="51" height="51" fill="white"/>
</clipPath>
</defs>
</svg>
