<svg width="51" height="51" viewBox="0 0 51 51" fill="none" xmlns="http://www.w3.org/2000/svg">
<g clip-path="url(#clip0)">
<path d="M0.853263 47.6012H3.40309V50.1511C3.40309 50.6204 3.78366 51.001 4.25304 51.001H38.2508C38.7201 51.001 39.1007 50.6204 39.1007 50.1511V45.9013H37.4008V49.3011H5.10298V47.6012H35.7009V45.9013H1.70321V9.35377H8.50275C8.97213 9.35377 9.3527 8.97321 9.3527 8.50383V1.70428H34.0011V18.7031H35.7009V5.10405H37.4008V18.7031H39.1007V4.25411C39.1007 3.78473 38.7201 3.40417 38.2508 3.40417H35.7009V0.854338C35.7009 0.38496 35.3204 0.00439453 34.851 0.00439453H8.50275C8.48491 0.00439453 8.46955 0.0139398 8.45254 0.0147698C8.37659 0.01892 8.30147 0.0338604 8.22926 0.058761C8.2027 0.0683063 8.17655 0.0749465 8.15082 0.0869818C8.05828 0.128068 7.97403 0.185754 7.90182 0.256721L0.252327 7.90621C0.18136 7.97842 0.123673 8.06309 0.0825873 8.15522C0.0705519 8.18095 0.0639117 8.20792 0.0543665 8.23449C0.0298808 8.30545 0.0149404 8.37974 0.0103753 8.45444C0.0103753 8.47312 0 8.4893 0 8.50715V46.7513C0 46.9775 0.0900574 47.1941 0.250252 47.3535C0.410446 47.5128 0.627497 47.6021 0.853263 47.6012ZM7.65281 2.90615V7.65388H2.90508L7.65281 2.90615Z" fill="#F376A2"/>
<path d="M17.8516 15.3038C18.5364 15.3088 19.1863 15.0046 19.6212 14.4759C20.3018 14.5369 20.9742 14.2929 21.4572 13.8098C21.9403 13.3267 22.1843 12.6544 22.1233 11.9738C22.6483 11.5359 22.9513 10.8877 22.9513 10.2042C22.9513 9.52063 22.6483 8.87238 22.1233 8.43455C22.1843 7.75393 21.9403 7.08161 21.4572 6.59853C20.9742 6.11546 20.3018 5.87143 19.6212 5.93244C19.1834 5.40787 18.5351 5.10449 17.8516 5.10449C17.1681 5.10449 16.5203 5.40787 16.082 5.93244C15.4018 5.87143 14.7291 6.11546 14.246 6.59853C13.7629 7.08161 13.5189 7.75393 13.5799 8.43455C13.0553 8.87238 12.752 9.52063 12.752 10.2042C12.752 10.8877 13.0553 11.5359 13.5799 11.9738C13.5189 12.6544 13.7629 13.3267 14.246 13.8098C14.7291 14.2929 15.4018 14.5369 16.082 14.4759C16.5169 15.0046 17.1673 15.3088 17.8516 15.3038ZM15.4479 12.6079C15.2611 12.4328 15.2134 12.1551 15.3308 11.9277C15.4338 11.7106 15.4404 11.46 15.3483 11.2379C15.2561 11.0159 15.0744 10.8433 14.8482 10.7628C14.6104 10.6785 14.4514 10.454 14.4514 10.2017C14.4514 9.94934 14.6104 9.72482 14.8482 9.64057C15.0744 9.56006 15.2561 9.38741 15.3483 9.16538C15.4404 8.94335 15.4338 8.69268 15.3308 8.47522C15.2204 8.24738 15.2665 7.97471 15.4458 7.79543C15.6247 7.61656 15.8973 7.57049 16.1256 7.68088C16.3426 7.78381 16.5933 7.79003 16.8153 7.69832C17.0374 7.60618 17.21 7.42441 17.2909 7.19781C17.3748 6.96001 17.5997 6.80106 17.8516 6.80106C18.1039 6.80106 18.3285 6.96001 18.4127 7.19781C18.4932 7.42441 18.6659 7.60618 18.8879 7.69832C19.1103 7.79003 19.3606 7.78381 19.5781 7.68088C19.8059 7.57049 20.0786 7.61656 20.2578 7.79543C20.4367 7.97471 20.4828 8.24738 20.3728 8.47522C20.2695 8.69268 20.2632 8.94335 20.3554 9.16538C20.4471 9.38741 20.6289 9.56006 20.8555 9.64057C21.0933 9.72482 21.2522 9.94934 21.2522 10.2017C21.2522 10.454 21.0933 10.6785 20.8555 10.7628C20.6289 10.8433 20.4471 11.0159 20.3554 11.2379C20.2632 11.46 20.2695 11.7106 20.3728 11.9277C20.4828 12.156 20.4367 12.4286 20.2578 12.6079C20.0786 12.7868 19.8059 12.8328 19.5781 12.7224C19.3606 12.6195 19.1103 12.6133 18.8879 12.705C18.6659 12.7971 18.4932 12.9789 18.4127 13.2055C18.3285 13.4429 18.1039 13.6023 17.8516 13.6023C17.5997 13.6023 17.3748 13.4429 17.2909 13.2055C17.21 12.9785 17.0369 12.7967 16.8149 12.7046C16.7116 12.6623 16.6008 12.6403 16.4891 12.6403C16.363 12.6407 16.2389 12.6697 16.1256 12.7249C15.8986 12.8403 15.623 12.7926 15.4479 12.6079Z" fill="#F376A2"/>
<path d="M11.9023 17.0034H15.3021V18.7033H11.9023V17.0034Z" fill="#F376A2"/>
<path d="M17.0039 17.0034H23.8035V18.7033H17.0039V17.0034Z" fill="#F376A2"/>
<path d="M5.10352 24.6528H15.3028V26.3527H5.10352V24.6528Z" fill="#F376A2"/>
<path d="M5.10352 28.0498H15.3028V29.7497H5.10352V28.0498Z" fill="#F376A2"/>
<path d="M5.10352 21.2505H11.9031V22.9504H5.10352V21.2505Z" fill="#F376A2"/>
<path d="M5.10352 36.5518H15.3028V38.2516H5.10352V36.5518Z" fill="#F376A2"/>
<path d="M5.10352 39.9492H15.3028V41.6491H5.10352V39.9492Z" fill="#F376A2"/>
<path d="M5.10352 33.1499H11.9031V34.8498H5.10352V33.1499Z" fill="#F376A2"/>
<path d="M47.6019 20.4009H20.4037C18.5262 20.4009 17.0039 21.9231 17.0039 23.8007V40.7995C17.0039 42.677 18.5262 44.1993 20.4037 44.1993H47.6019C49.4798 44.1993 51.0016 42.677 51.0016 40.7995V23.8007C51.0016 21.9231 49.4798 20.4009 47.6019 20.4009ZM49.3018 40.7995C49.3018 41.7383 48.5406 42.4994 47.6019 42.4994H20.4037C19.4649 42.4994 18.7038 41.7383 18.7038 40.7995V23.8007C18.7038 22.8619 19.4649 22.1008 20.4037 22.1008H47.6019C48.5406 22.1008 49.3018 22.8619 49.3018 23.8007V40.7995Z" fill="#F376A2"/>
<path d="M27.1999 25.5028C27.1999 25.0334 26.8194 24.6528 26.35 24.6528H21.2503C20.781 24.6528 20.4004 25.0334 20.4004 25.5028V30.6024C20.4004 31.0718 20.781 31.4524 21.2503 31.4524H26.35C26.8194 31.4524 27.1999 31.0718 27.1999 30.6024V25.5028ZM25.5001 29.7525H22.1003V26.3527H25.5001V29.7525Z" fill="#F376A2"/>
<path d="M20.4004 34.8535H22.1003V36.5534H20.4004V34.8535Z" fill="#F376A2"/>
<path d="M23.8027 34.8535H25.5026V36.5534H23.8027V34.8535Z" fill="#F376A2"/>
<path d="M27.1992 34.8535H28.8991V36.5534H27.1992V34.8535Z" fill="#F376A2"/>
<path d="M30.6016 34.8535H32.3015V36.5534H30.6016V34.8535Z" fill="#F376A2"/>
<path d="M33.998 34.8535H35.6979V36.5534H33.998V34.8535Z" fill="#F376A2"/>
<path d="M20.4004 38.2505H25.5V39.9504H20.4004V38.2505Z" fill="#F376A2"/>
<path d="M27.1992 38.2505H32.2989V39.9504H27.1992V38.2505Z" fill="#F376A2"/>
<path d="M41.6523 25.5015H46.752V27.2014H41.6523V25.5015Z" fill="#F376A2"/>
<path d="M38.25 25.5015H39.9499V27.2014H38.25V25.5015Z" fill="#F376A2"/>
<path d="M38.25 28.9028H46.7494V30.6027H38.25V28.9028Z" fill="#F376A2"/>
<path d="M44.1999 34.0005C43.6023 34.0009 43.0151 34.1611 42.5 34.4645C41.985 34.1611 41.3982 34.0009 40.8002 34.0005C38.9226 34.0005 37.4004 35.5228 37.4004 37.4003C37.4004 39.2778 38.9226 40.8 40.8002 40.8C41.3982 40.7996 41.985 40.6394 42.5 40.3361C43.0151 40.6394 43.6023 40.7996 44.1999 40.8C46.0778 40.8 47.5997 39.2778 47.5997 37.4003C47.5997 35.5228 46.0778 34.0005 44.1999 34.0005ZM44.1999 39.1002C43.7812 39.0968 43.3782 38.9391 43.0686 38.6573C42.7453 38.3664 42.2548 38.3664 41.9315 38.6573C41.2525 39.2753 40.2054 39.2425 39.5667 38.5835C38.9276 37.924 38.9276 36.8765 39.5667 36.2171C40.2054 35.558 41.2525 35.5252 41.9315 36.1432C42.2548 36.4341 42.7453 36.4341 43.0686 36.1432C43.6318 35.6311 44.4664 35.5551 45.1121 35.9577C45.7583 36.3607 46.0575 37.1434 45.8454 37.8742C45.6334 38.605 44.9611 39.106 44.1999 39.1002Z" fill="#F376A2"/>
</g>
<defs>
<clipPath id="clip0">
<rect width="51" height="51" fill="white"/>
</clipPath>
</defs>
</svg>
