<svg width="51" height="51" viewBox="0 0 51 51" fill="none" xmlns="http://www.w3.org/2000/svg">
<g clip-path="url(#clip0)">
<path d="M26.2997 39.6465H24.7031V41.0986H26.2997V39.6465Z" fill="#F376A2"/>
<path d="M26.2504 15.7129H24.7461V17.2541H26.2504V15.7129Z" fill="#F376A2"/>
<path d="M26.2504 9.54883H24.7461V11.09H26.2504V9.54883Z" fill="#F376A2"/>
<path d="M30.5566 20.5943L31.6202 21.6211L32.7312 20.5488V25.7314H34.2356V20.5489L35.3464 21.6211L36.4103 20.5943L33.4834 17.769L30.5566 20.5943Z" fill="#F376A2"/>
<path d="M14.5898 20.5943L15.6536 21.6211L16.7644 20.5489V25.7314H18.2688V20.5489L19.3796 21.6211L20.4435 20.5943L17.5166 17.769L14.5898 20.5943Z" fill="#F376A2"/>
<path d="M8.20312 12.8877L9.2669 13.9147L10.3778 12.8422V18.025H11.8822V12.8422L12.9931 13.9146L14.0569 12.8878L11.13 10.0625L8.20312 12.8877Z" fill="#F376A2"/>
<path d="M42.7972 12.8878L39.8703 10.0625L36.9434 12.8877L38.0072 13.9147L39.1182 12.8422V18.025H40.6225V12.8422L41.7333 13.9146L42.7972 12.8878Z" fill="#F376A2"/>
<path d="M38.2742 4.19873H30.291V5.65089H38.2742V4.19873Z" fill="#F376A2"/>
<path d="M51 38.017V4.19873H40.6681V5.65089H49.4957V36.5648H1.50435V5.65089H20.7101V4.19873H0V38.017H17.4841L16.8362 44.271H12.7731V48.8057H38.2271V44.2709H34.1641L33.5161 38.0169H51V38.017ZM36.7226 47.3535H14.2774V45.7231H36.7226V47.3535ZM32.6521 44.2709H18.3481L18.6766 41.0994H23.1051V39.6473H18.827L18.9959 38.0169H32.0042L32.6521 44.2709Z" fill="#F376A2"/>
<path d="M29.4931 39.647H27.8965V41.0991H29.4931V39.647Z" fill="#F376A2"/>
<path d="M19.1135 7.28027H3.19336V34.9335H11.9286V33.4814H4.69771V8.73243H19.1135V7.28027Z" fill="#F376A2"/>
<path d="M21.5553 16.4397V33.4824H14.3242V34.9346H47.8076V7.28133H31.8872V8.73349H46.3032V33.4824H29.4463V24.1905H27.9419V33.4824H23.0597V14.9875H18.8747L25.5007 4.7537L32.1268 14.9875H27.9419V21.8786H29.4463V16.4397H34.8411L25.5007 2.01367L16.1604 16.4397H21.5553Z" fill="#F376A2"/>
<path d="M26.2524 18.7959H24.748V28.814H26.2524V18.7959Z" fill="#F376A2"/>
<path d="M26.2524 12.6318H24.748V14.1731H26.2524V12.6318Z" fill="#F376A2"/>
<path d="M34.2348 27.2744H32.7305V28.8157H34.2348V27.2744Z" fill="#F376A2"/>
<path d="M34.2348 30.3564H32.7305V31.8977H34.2348V30.3564Z" fill="#F376A2"/>
<path d="M18.268 27.2744H16.7637V28.8157H18.268V27.2744Z" fill="#F376A2"/>
<path d="M18.268 30.3564H16.7637V31.8977H18.268V30.3564Z" fill="#F376A2"/>
<path d="M11.8833 19.5654H10.3789V21.1067H11.8833V19.5654Z" fill="#F376A2"/>
<path d="M11.8833 22.6499H10.3789V24.1912H11.8833V22.6499Z" fill="#F376A2"/>
<path d="M40.6215 19.5654H39.1172V21.1067H40.6215V19.5654Z" fill="#F376A2"/>
<path d="M40.6215 22.6499H39.1172V24.1912H40.6215V22.6499Z" fill="#F376A2"/>
<path d="M11.8833 25.7319H10.3789V31.8969H11.8833V25.7319Z" fill="#F376A2"/>
<path d="M40.6215 25.7319H39.1172V31.8969H40.6215V25.7319Z" fill="#F376A2"/>
</g>
<defs>
<clipPath id="clip0">
<rect width="51" height="49.2306" fill="white" transform="translate(0 0.793945)"/>
</clipPath>
</defs>
</svg>
