<svg width="54" height="54" viewBox="0 0 54 54" fill="none" xmlns="http://www.w3.org/2000/svg">
<g clip-path="url(#clip0)">
<path d="M16.84 32.0498C17.2198 32.6231 17.4201 33.2857 17.4201 33.9678C17.4201 35.8892 15.8576 37.4517 13.9362 37.4517C13.254 37.4517 12.5915 37.2514 12.0182 36.8716L11.0566 38.3243C11.9157 38.8929 12.9113 39.1936 13.9362 39.1936C16.8183 39.1936 19.162 36.8499 19.162 33.9678C19.162 32.9429 18.8613 31.9473 18.2927 31.0874L16.84 32.0498Z" fill="#F376A2"/>
<path d="M13.9348 30.4836C14.6169 30.4836 15.2804 30.6839 15.8519 31.0629L16.8143 29.611C15.9561 29.0424 14.961 28.7417 13.9348 28.7417C11.0527 28.7417 8.70898 31.0854 8.70898 33.9675C8.70898 34.9924 9.00966 35.988 9.57825 36.8479L11.031 35.8864C10.6512 35.3122 10.4509 34.6496 10.4509 33.9675C10.4509 32.0461 12.0134 30.4836 13.9348 30.4836Z" fill="#F376A2"/>
<path d="M31.3555 36.5806V41.8064H34.8393V40.0644H33.0974V36.5806H31.3555Z" fill="#F376A2"/>
<path d="M32.2249 31.355C30.0206 31.355 27.8675 32.123 26.1621 33.5184L27.2666 34.8669C28.4344 33.9105 29.862 33.3198 31.3539 33.1518V34.8389H33.0958V33.1484C36.7234 33.5515 39.6089 36.4379 40.0121 40.0647H38.3216V41.8066H40.0087C39.8407 43.2993 39.25 44.7261 38.2936 45.8948L39.6413 46.9984C41.0366 45.293 41.8055 43.1398 41.8055 40.9356C41.8055 35.6533 37.5072 31.355 32.2249 31.355Z" fill="#F376A2"/>
<path d="M33.0961 48.7192V47.0321H31.3542V48.7226C27.7266 48.3194 24.8411 45.433 24.4379 41.8063H26.1284V40.0643H24.4413C24.6093 38.5716 25.2 37.1448 26.1565 35.9762L24.8088 34.8726C23.4134 36.5779 22.6445 38.7311 22.6445 40.9353C22.6445 46.2177 26.9428 50.516 32.2252 50.516C34.4294 50.516 36.5826 49.7479 38.2879 48.3526L37.1835 47.004C36.0157 47.9605 34.5889 48.5512 33.0961 48.7192Z" fill="#F376A2"/>
<path d="M48.7742 40.0643H47.0323V15.6772H41.8064V32.0827C41.2744 31.5069 40.6918 30.9808 40.0645 30.5079V20.0321H34.8387V28.1336C34.2718 28.0179 33.6875 27.9537 33.0968 27.9141V24.3869H27.871V28.6329C26.9949 28.9437 26.1622 29.3452 25.3827 29.827C25.2075 29.3418 25.0144 28.8655 24.7809 28.4109L26.158 26.4822L21.4208 21.7434L19.4913 23.1213C18.9104 22.8244 18.3035 22.5735 17.6762 22.3724L17.2871 20.0321H10.5847L10.1956 22.3724C9.56831 22.5735 8.96144 22.8244 8.38051 23.1213L6.45146 21.7434L1.71387 26.4822L3.09091 28.4109C2.79322 28.9909 2.54231 29.5978 2.34115 30.2259L0 30.6168V37.3183L2.3403 37.7083C2.54146 38.3364 2.79322 38.9433 3.09006 39.5234L1.71302 41.4516L6.45018 46.1909L8.37966 44.813C8.96059 45.1098 9.56746 45.3607 10.1947 45.5619L10.5839 47.903H17.2862L17.6754 45.5627C18.3027 45.3616 18.9095 45.1106 19.4905 44.8138L19.8388 45.0626C21.573 50.2476 26.4654 53.9998 32.2258 53.9998C39.1361 53.9998 44.7949 48.6043 45.2461 41.8062H54V8.70947H48.7742V40.0643ZM43.5484 17.4192H45.2903V40.0643H45.2461C45.1109 38.0289 44.5125 36.1216 43.5484 34.4455V17.4192ZM36.5806 21.774H38.3226V29.3899C37.7659 29.0943 37.1816 28.8472 36.5806 28.6337V21.774ZM29.6129 26.1288H31.3548V27.915C30.7641 27.9545 30.1798 28.0188 29.6129 28.1349V26.1288ZM19.1222 43.0327C18.3609 43.4691 17.5397 43.8085 16.6781 44.0419L16.1388 44.1882L15.8097 46.1611H12.0604L11.7313 44.1882L11.192 44.0419C10.3313 43.8085 9.5092 43.4691 8.74795 43.0327L8.26271 42.7546L6.63858 43.9156L3.98655 41.2644L5.14756 39.6386L4.86942 39.1534C4.43394 38.3938 4.09372 37.5726 3.86024 36.7101L3.7148 36.1709L1.74194 35.8426V32.0925L3.7148 31.7642L3.86109 31.2249C4.09627 30.3616 4.43479 29.5396 4.87027 28.7817L5.14841 28.2965L3.9874 26.6706L6.63943 24.0195L8.26356 25.1805L8.7488 24.9023C9.51005 24.466 10.3313 24.1266 11.1929 23.8931L11.7321 23.7469L12.0613 21.774H15.8105L16.1397 23.7469L16.6789 23.8931C17.5397 24.1266 18.3618 24.466 19.123 24.9023L19.6083 25.1805L21.2324 24.0195L23.8844 26.6706L22.7234 28.2965L23.0015 28.7817C23.3775 29.4366 23.6667 30.1464 23.8942 30.8817C23.3847 31.3049 22.9169 31.7744 22.4772 32.2681C21.6836 28.2765 18.1564 25.2579 13.9355 25.2579C9.13283 25.2579 5.22581 29.1649 5.22581 33.9675C5.22581 38.7702 9.13283 42.6772 13.9355 42.6772C15.8377 42.6772 17.6677 42.0338 19.1621 40.9119C19.1621 40.9195 19.1613 40.9276 19.1613 40.9353C19.1613 41.6102 19.2285 42.2677 19.3276 42.9149L19.1222 43.0327ZM20.8815 34.4804C20.2258 35.6295 19.7346 36.882 19.4505 38.2135C18.1351 39.918 16.0895 40.9353 13.9355 40.9353C10.0935 40.9353 6.96774 37.8095 6.96774 33.9675C6.96774 30.1256 10.0935 26.9998 13.9355 26.9998C17.7774 26.9998 20.9032 30.1256 20.9032 33.9675C20.9032 34.1411 20.8934 34.3107 20.8815 34.4804ZM32.2258 52.2579C25.9827 52.2579 20.9032 47.1783 20.9032 40.9353C20.9032 34.6922 25.9827 29.6127 32.2258 29.6127C38.4689 29.6127 43.5484 34.6922 43.5484 40.9353C43.5484 47.1783 38.4689 52.2579 32.2258 52.2579ZM50.5161 10.4514H52.2581V40.0643H50.5161V10.4514Z" fill="#F376A2"/>
<path d="M48.7742 0V1.74194H50.6458L44.484 6.67175L41.8064 3.9942L37.7 8.10068C37.3593 7.93695 36.983 7.83871 36.5806 7.83871C35.1402 7.83871 33.9677 9.0112 33.9677 10.4516C33.9677 10.902 34.0932 11.32 34.2944 11.69L29.7418 16.7487C29.4334 16.6207 29.0966 16.5484 28.7419 16.5484C28.7253 16.5484 28.7105 16.5526 28.6939 16.5535L25.1917 7.21355C25.7599 6.73426 26.129 6.02618 26.129 5.22581C26.129 3.78539 24.9565 2.6129 23.5161 2.6129C22.0757 2.6129 20.9032 3.78539 20.9032 5.22581C20.9032 5.41378 20.9249 5.59665 20.9632 5.77441L13.8232 10.1675C13.3754 9.80604 12.8128 9.58064 12.1935 9.58064C11.0598 9.58064 10.1016 10.3113 9.74097 11.3226H5.06548C4.70484 10.3113 3.74669 9.58064 2.6129 9.58064C1.17249 9.58064 0 10.7531 0 12.1935C0 13.634 1.17249 14.8065 2.6129 14.8065C3.74669 14.8065 4.70484 14.0758 5.06548 13.0645H9.74183C10.1025 14.0758 11.0606 14.8065 12.1944 14.8065C13.6348 14.8065 14.8073 13.634 14.8073 12.1935C14.8073 12.0056 14.7856 11.8227 14.7473 11.6449L21.8873 7.25183C22.3343 7.61331 22.8969 7.83871 23.5161 7.83871C23.5327 7.83871 23.5476 7.83446 23.5642 7.83361L27.0663 17.1727C26.4982 17.6528 26.129 18.3609 26.129 19.1613C26.129 20.6017 27.3015 21.7742 28.7419 21.7742C30.1824 21.7742 31.3548 20.6017 31.3548 19.1613C31.3548 18.7109 31.2302 18.2929 31.0282 17.9229L35.5808 12.8642C35.8891 12.9922 36.226 13.0645 36.5806 13.0645C38.0211 13.0645 39.1936 11.892 39.1936 10.4516C39.1936 10.0493 39.0953 9.67293 38.9316 9.33228L41.8064 6.45741L44.3547 9.00567L52.2581 2.6835V5.22581H54V0H48.7742ZM2.6129 13.0645C2.13234 13.0645 1.74194 12.6733 1.74194 12.1935C1.74194 11.7138 2.13234 11.3226 2.6129 11.3226C3.09347 11.3226 3.48387 11.7138 3.48387 12.1935C3.48387 12.6733 3.09347 13.0645 2.6129 13.0645ZM12.1935 13.0645C11.713 13.0645 11.3226 12.6733 11.3226 12.1935C11.3226 11.7138 11.713 11.3226 12.1935 11.3226C12.6741 11.3226 13.0645 11.7138 13.0645 12.1935C13.0645 12.6733 12.6741 13.0645 12.1935 13.0645ZM22.6452 5.22581C22.6452 4.74609 23.0356 4.35484 23.5161 4.35484C23.9967 4.35484 24.3871 4.74609 24.3871 5.22581C24.3871 5.70552 23.9967 6.09677 23.5161 6.09677C23.0356 6.09677 22.6452 5.70552 22.6452 5.22581ZM28.7419 20.0323C28.2614 20.0323 27.871 19.641 27.871 19.1613C27.871 18.6816 28.2614 18.2903 28.7419 18.2903C29.2225 18.2903 29.6129 18.6816 29.6129 19.1613C29.6129 19.641 29.2225 20.0323 28.7419 20.0323ZM36.5806 11.3226C36.1001 11.3226 35.7097 10.9313 35.7097 10.4516C35.7097 9.9719 36.1001 9.58064 36.5806 9.58064C37.0612 9.58064 37.4516 9.9719 37.4516 10.4516C37.4516 10.9313 37.0612 11.3226 36.5806 11.3226Z" fill="#F376A2"/>
</g>
<defs>
<clipPath id="clip0">
<rect width="54" height="54" fill="white"/>
</clipPath>
</defs>
</svg>
