<svg width="64" height="64" viewBox="0 0 64 64" fill="none" xmlns="http://www.w3.org/2000/svg">
<g clip-path="url(#clip0)">
<path d="M11.4136 8.65381C11.4136 6.91992 10.0034 5.50977 8.26954 5.50977C6.53565 5.50977 5.125 6.91992 5.125 8.65381C5.125 10.3877 6.53565 11.7979 8.26954 11.7979C10.0029 11.7979 11.4136 10.3877 11.4136 8.65381ZM7 8.65381C7 7.95411 7.56983 7.38477 8.26954 7.38477C8.96925 7.38477 9.53858 7.95411 9.53858 8.65381C9.53858 9.35352 8.96925 9.92286 8.26954 9.92286C7.56983 9.92286 7 9.35352 7 8.65381Z" fill="#F376A2"/>
<path d="M15.7398 11.7979C17.4736 11.7979 18.8843 10.3877 18.8843 8.65381C18.8843 6.91992 17.4736 5.50977 15.7398 5.50977C14.0059 5.50977 12.5957 6.91992 12.5957 8.65381C12.5957 10.3877 14.0059 11.7979 15.7398 11.7979ZM15.7398 7.38477C16.4399 7.38477 17.0093 7.95411 17.0093 8.65381C17.0093 9.35352 16.4395 9.92286 15.7398 9.92286C15.04 9.92286 14.4707 9.35352 14.4707 8.65381C14.4707 7.95411 15.04 7.38477 15.7398 7.38477Z" fill="#F376A2"/>
<path d="M23.209 11.7979C24.9424 11.7979 26.353 10.3877 26.353 8.65381C26.353 6.91992 24.9424 5.50977 23.209 5.50977C21.4751 5.50977 20.0645 6.91992 20.0645 8.65381C20.0645 10.3877 21.4751 11.7979 23.209 11.7979ZM23.209 7.38477C23.9087 7.38477 24.478 7.95411 24.478 8.65381C24.478 9.35352 23.9087 9.92286 23.209 9.92286C22.5088 9.92286 21.9395 9.35352 21.9395 8.65381C21.9395 7.95411 22.5088 7.38477 23.209 7.38477Z" fill="#F376A2"/>
<path d="M33.584 9.59131H56.417C56.9351 9.59131 57.3545 9.17188 57.3545 8.65381C57.3545 8.13574 56.9351 7.71631 56.417 7.71631H33.584C33.0659 7.71631 32.6465 8.13574 32.6465 8.65381C32.6465 9.17188 33.0659 9.59131 33.584 9.59131Z" fill="#F376A2"/>
<path d="M59.9606 2.125H3.78956C1.63135 2.125 -0.125 3.88086 -0.125 6.03956V58.1959C-0.125 60.3541 1.63135 62.1105 3.78956 62.1105H59.9606C62.1188 62.1105 63.8751 60.3541 63.8751 58.1959V6.03956C63.8751 3.88086 62.1188 2.125 59.9606 2.125V2.125ZM59.9606 60.2355H3.78956C2.66504 60.2355 1.75 59.3204 1.75 58.1959V15.1826H6.97609C7.49416 15.1826 7.91359 14.7632 7.91359 14.2451C7.91359 13.7276 7.49416 13.3076 6.97609 13.3076H1.75V6.03956C1.75 4.91505 2.66504 4 3.78956 4H59.9606C61.0851 4 62.0001 4.91505 62.0001 6.03956V13.3076H10.4761C9.95852 13.3076 9.53859 13.7276 9.53859 14.2451C9.53859 14.7632 9.95852 15.1826 10.4761 15.1826H62.0001V58.1959C62.0001 59.3204 61.0851 60.2355 59.9606 60.2355V60.2355Z" fill="#F376A2"/>
<path d="M52.9259 17.52H44.7325C43.0958 17.52 41.7642 18.8516 41.7642 20.4883V21.6226C40.8028 21.9277 40.0425 22.6885 39.7383 23.6504L25.0952 23.7056C24.7901 22.7466 24.0308 21.9883 23.0713 21.6836V20.5498C23.0713 18.9131 21.7398 17.5815 20.1031 17.5815H11.9102C10.2734 17.5815 8.9419 18.9131 8.9419 20.5498V28.7427C8.9419 30.3794 10.2734 31.7105 11.9102 31.7105H13.044C13.3486 32.6714 14.1084 33.4312 15.0693 33.7359V37.5664C15.0693 39.543 16.6773 41.1509 18.6538 41.1509H27.4849C27.7896 42.1114 28.5494 42.8711 29.5098 43.1758V44.3746C29.5098 45.9756 30.8125 47.2784 32.4136 47.2784H33.6836C33.9532 48.2178 34.6553 48.9756 35.5596 49.3228C35.2901 49.8599 34.7344 50.2291 34.0943 50.2291H24.0806C23.8379 49.1485 23.0308 48.2794 21.9868 47.9478V46.8135C21.9868 45.1768 20.6553 43.8453 19.0186 43.8453H10.8252C9.18897 43.8453 7.85742 45.1768 7.85742 46.8135V55.0069C7.85742 56.6436 9.18897 57.9747 10.8252 57.9747H19.0186C20.6553 57.9747 21.9868 56.6436 21.9868 55.0069V53.8726C22.8599 53.5953 23.5674 52.9425 23.9175 52.1041H34.0943C35.7486 52.1041 37.1397 50.9547 37.5108 49.4127C38.544 49.1221 39.3609 48.3091 39.6573 47.2784H40.7354C42.337 47.2784 43.6392 45.9756 43.6392 44.3746V41.9083C43.6392 41.3902 43.2198 40.9708 42.7017 40.9708C42.1841 40.9708 41.7642 41.3902 41.7642 41.9083V44.3746C41.7642 44.942 41.3028 45.4034 40.7354 45.4034H39.606C38.6314 42.6065 34.6968 42.6285 33.7344 45.4034H32.4136C31.8462 45.4034 31.3848 44.942 31.3848 44.3746V43.1758C31.585 43.1124 31.774 43.0308 31.9585 42.9278C31.9717 42.9146 33.5542 42.1153 33.5542 40.2134C33.5542 38.8663 32.6812 37.6646 31.3848 37.251V36.0528C31.3848 35.4854 31.8462 35.024 32.4136 35.024H40.7354C41.3028 35.024 41.7642 35.4854 41.7642 36.0528V38.5191C41.7642 39.0367 42.1841 39.4566 42.7017 39.4566C43.2198 39.4566 43.6392 39.0367 43.6392 38.5191V36.0528C43.6392 34.4517 42.3365 33.149 40.7354 33.149H32.4136C30.8125 33.149 29.5098 34.4517 29.5098 36.0528V37.251C28.5494 37.5557 27.7896 38.3155 27.4849 39.2759H18.6543C17.7114 39.2759 16.9444 38.5088 16.9444 37.5664V33.7359C17.9048 33.4312 18.6646 32.6714 18.9693 31.7105H20.1035C21.7398 31.7105 23.0713 30.3794 23.0713 28.7427V27.6084C24.0332 27.3032 24.7935 26.5425 25.0972 25.5806L39.7403 25.5254C40.0455 26.4844 40.8048 27.2432 41.7642 27.5474V28.6817C41.7642 30.3184 43.0958 31.6499 44.7325 31.6499H52.9259C54.5621 31.6499 55.8936 30.3184 55.8936 28.6817V20.4883C55.8936 18.8516 54.5621 17.52 52.9259 17.52V17.52ZM21.0493 52.1422C20.3697 52.1422 19.8174 51.5894 19.8174 50.9102C19.8174 50.231 20.3701 49.6783 21.0493 49.6783C21.7285 49.6783 22.2813 50.231 22.2813 50.9102C22.2813 51.5894 21.7285 52.1422 21.0493 52.1422ZM20.1118 55.0069C20.1118 55.6095 19.6216 56.0997 19.0186 56.0997H10.8252C10.2227 56.0997 9.73243 55.6095 9.73243 55.0069V46.8135C9.73243 46.2105 10.2227 45.7203 10.8252 45.7203H19.0186C19.6216 45.7203 20.1118 46.2105 20.1118 46.8135V47.9478C17.2046 48.8741 17.2383 52.9566 20.1118 53.8726V55.0069ZM37.9019 46.4268C37.899 47.1036 37.3477 47.6529 36.67 47.6529C35.9927 47.6529 35.4415 47.1036 35.4385 46.4268C35.5928 44.7349 37.754 44.8062 37.9019 46.4268V46.4268ZM30.6343 38.9956C31.2251 39.0865 31.6792 39.5982 31.6792 40.2134C31.6792 40.8941 31.1255 41.4454 30.4473 41.4454C29.7676 41.4454 29.2154 40.8926 29.2154 40.2134C29.2154 39.462 29.8868 38.8814 30.6343 38.9956V38.9956ZM22.1338 25.8779C21.4546 25.8779 20.9019 25.3252 20.9019 24.646C20.9019 23.9668 21.4546 23.4141 22.1338 23.4141C22.813 23.4141 23.3658 23.9668 23.3658 24.646C23.3658 25.3252 22.8135 25.8779 22.1338 25.8779ZM16.0069 32.0054C15.2598 32.0054 14.6738 31.3389 14.7891 30.586C14.8794 29.9951 15.3911 29.5415 16.0069 29.5415C16.6856 29.5415 17.2388 30.0933 17.2388 30.773C17.2388 31.4527 16.6861 32.0054 16.0069 32.0054ZM21.1963 28.7427C21.1963 29.3452 20.7061 29.8355 20.1031 29.8355H18.9693C18.482 28.3135 16.9336 27.4126 15.3838 27.729C15.3706 27.7359 13.6275 28.0127 13.0444 29.8355H11.9102C11.3071 29.8355 10.8169 29.3452 10.8169 28.7427V20.5493C10.8169 19.9468 11.3071 19.4561 11.9102 19.4561H20.1035C20.7061 19.4561 21.1963 19.9468 21.1963 20.5493V21.6836C19.8814 22.1025 18.96 23.3579 19.0308 24.8027C19.0362 24.8154 19.0493 26.9238 21.1963 27.6084V28.7427ZM42.7017 23.353C43.3795 23.353 43.9337 23.9043 43.9337 24.585C43.9337 25.2666 43.3785 25.8169 42.7017 25.8169C42.0225 25.8169 41.4698 25.2642 41.4698 24.585C41.4698 23.9058 42.0225 23.353 42.7017 23.353V23.353ZM54.0186 28.6817C54.0186 29.2842 53.5284 29.7749 52.9259 29.7749H44.7325C44.1295 29.7749 43.6392 29.2842 43.6392 28.6817V27.5474C44.9791 27.1206 45.877 25.8472 45.8048 24.4258V24.4253C45.7398 23.1362 44.8746 22.0161 43.6392 21.6226V20.4883C43.6392 19.8857 44.1295 19.3955 44.7325 19.3955H52.9259C53.5284 19.3955 54.0186 19.8857 54.0186 20.4883V28.6817Z" fill="#F376A2"/>
</g>
<defs>
<clipPath id="clip0">
<rect width="64" height="64" fill="white"/>
</clipPath>
</defs>
</svg>
