<svg width="60" height="60" viewBox="0 0 60 60" fill="none" xmlns="http://www.w3.org/2000/svg">
<path d="M11.25 11.3086H9.375V13.0664H11.25V11.3086Z" fill="#F376A2"/>
<path d="M15 11.3086H13.125V13.0664H15V11.3086Z" fill="#F376A2"/>
<path d="M18.75 11.3086H16.875V13.0664H18.75V11.3086Z" fill="#F376A2"/>
<path d="M27.1875 22.5586H25.3125V24.3164H27.1875V22.5586Z" fill="#F376A2"/>
<path d="M30.9375 22.5586H29.0625V24.3164H30.9375V22.5586Z" fill="#F376A2"/>
<path d="M34.6875 22.5586H32.8125V24.3164H34.6875V22.5586Z" fill="#F376A2"/>
<path d="M9.375 17.8711V29.0039H50.5078V17.8711H9.375ZM48.75 27.2461H11.1328V19.6289H48.75V27.2461Z" fill="#F376A2"/>
<path d="M39.375 30.9961V36.5039H50.5078V30.9961H39.375ZM48.75 34.7461H41.1328V32.7539H48.75V34.7461Z" fill="#F376A2"/>
<path d="M24.375 30.9961V36.5039H35.5078V30.9961H24.375ZM33.75 34.7461H26.1328V32.7539H33.75V34.7461Z" fill="#F376A2"/>
<path d="M26.25 45.9961H24.375V47.7539H26.25V45.9961Z" fill="#F376A2"/>
<path d="M30 45.9961H28.125V47.7539H30V45.9961Z" fill="#F376A2"/>
<path d="M35.625 38.4961H24.375V40.2539H35.625V38.4961Z" fill="#F376A2"/>
<path d="M50.625 38.4961H39.375V40.2539H50.625V38.4961Z" fill="#F376A2"/>
<path d="M35.625 42.2461H24.375V44.0039H35.625V42.2461Z" fill="#F376A2"/>
<path d="M50.625 42.2461H39.375V44.0039H50.625V42.2461Z" fill="#F376A2"/>
<path d="M41.25 45.9961H39.375V47.7539H41.25V45.9961Z" fill="#F376A2"/>
<path d="M45 45.9961H43.125V47.7539H45V45.9961Z" fill="#F376A2"/>
<path d="M11.1328 49.7461V32.7539H18.75V47.7539H20.5078V30.9961H9.375V49.7461H7.38281V15.8789H52.5V47.7539H54.2578V8.49609H5.625V49.7461H0V51.5039H60V49.7461H11.1328ZM7.38281 10.2539H52.5V14.1211H7.38281V10.2539Z" fill="#F376A2"/>
<path d="M15 34.7461H13.125V36.5039H15V34.7461Z" fill="#F376A2"/>
<path d="M15 38.4961H13.125V40.2539H15V38.4961Z" fill="#F376A2"/>
<path d="M15 42.2461H13.125V44.0039H15V42.2461Z" fill="#F376A2"/>
<path d="M15 45.9961H13.125V47.7539H15V45.9961Z" fill="#F376A2"/>
</svg>
