<svg width="60" height="60" viewBox="0 0 60 60" fill="none" xmlns="http://www.w3.org/2000/svg">
<g clip-path="url(#clip0)">
<path d="M33.9291 11.2183C31.0583 8.34956 27.2417 6.76953 23.1819 6.76953C19.1222 6.76953 15.3054 8.34944 12.4346 11.2183C6.50878 17.1402 6.50878 26.776 12.4346 32.6981C15.3054 35.5668 19.122 37.1468 23.1819 37.1468C27.2416 37.1468 31.0583 35.5669 33.9291 32.6981C36.7997 29.8294 38.3807 26.0152 38.3807 21.9582C38.3807 17.9012 36.7997 14.0871 33.9291 11.2183ZM13.6586 12.4415C16.2023 9.89949 19.5845 8.49946 23.1818 8.49946C26.7791 8.49946 30.1611 9.89949 32.7048 12.4415C34.7125 14.4476 36.0075 16.976 36.4644 19.7199L31.7466 24.3303C31.2997 24.0783 30.7846 23.9339 30.236 23.9339C29.1681 23.9339 28.2254 24.4793 27.6717 25.3057L20.7374 23.1314C20.7377 23.1113 20.7389 23.0913 20.7389 23.0712C20.7389 21.3716 19.3552 19.9887 17.6544 19.9887C15.9536 19.9887 14.5699 21.3716 14.5699 23.0712C14.5699 23.6267 14.7185 24.1481 14.977 24.5988L11.3387 28.3677C8.57796 23.2666 9.35058 16.7466 13.6586 12.4415ZM31.5896 27.0162C31.5896 27.7619 30.9824 28.3688 30.2361 28.3688C29.4899 28.3688 28.8826 27.7619 28.8826 27.0162C28.8826 26.2704 29.4899 25.6636 30.2361 25.6636C30.9824 25.6636 31.5896 26.2703 31.5896 27.0162ZM19.008 23.0709C19.008 23.8167 18.4008 24.4235 17.6545 24.4235C16.9081 24.4235 16.3009 23.8167 16.3009 23.0709C16.3009 22.3252 16.9081 21.7183 17.6545 21.7183C18.4008 21.7184 19.008 22.3252 19.008 23.0709ZM32.7049 31.475C30.1612 34.0169 26.7792 35.417 23.1819 35.417C19.5846 35.417 16.2024 34.0171 13.6588 31.475C13.1536 30.9701 12.6973 30.4345 12.2893 29.8745L16.2227 25.7999C16.6509 26.0252 17.1379 26.1533 17.6545 26.1533C18.7224 26.1533 19.6651 25.608 20.2188 24.7815L27.1531 26.9559C27.1528 26.9759 27.1516 26.9959 27.1516 27.0161C27.1516 28.7157 28.5353 30.0985 30.2361 30.0985C31.9369 30.0985 33.3206 28.7157 33.3206 27.0161C33.3206 26.4924 33.1888 25.999 32.9573 25.5666L36.6497 21.9584C36.6496 25.5533 35.2486 28.933 32.7049 31.475Z" fill="#F376A2"/>
<path d="M15.5176 13.1356L16.6531 14.4414C19.3372 12.1095 23.1003 11.3905 26.4746 12.5652L27.044 10.9313C23.0857 9.55312 18.669 10.3978 15.5176 13.1356Z" fill="#F376A2"/>
<path d="M29.2657 11.9795L28.3652 13.4571C28.8233 13.736 29.263 14.0558 29.672 14.4075L30.8009 13.0957C30.3206 12.6829 29.8041 12.3074 29.2657 11.9795Z" fill="#F376A2"/>
<path d="M25.2526 31.6919C23.3051 32.1022 21.3036 31.9295 19.464 31.1929L18.8203 32.7989C20.2152 33.3575 21.6888 33.6398 23.1734 33.6398C23.9861 33.6398 24.8019 33.5551 25.6097 33.3849L25.2526 31.6919Z" fill="#F376A2"/>
<path d="M44.8635 35.855L43.6067 37.1108L40.4888 33.7804C44.1791 28.3898 45.0675 21.6459 43.1531 15.6037L45.6268 13.1863C46.0619 13.4212 46.5595 13.5547 47.0879 13.5547C48.7887 13.5547 50.1724 12.1719 50.1724 10.4723C50.1724 9.96893 50.0503 9.49382 49.8353 9.07364L55.1457 3.8842V6.56646H56.8767V0.963867H51.2705V2.69368H53.8882L48.6478 7.8146C48.1898 7.54513 47.6569 7.38973 47.088 7.38973C45.3873 7.38973 44.0035 8.77255 44.0035 10.4721C44.0035 11.016 44.1458 11.5271 44.3942 11.9711L42.4984 13.8238C41.4778 11.395 39.9809 9.12024 38.0049 7.14556C29.8313 -1.02241 16.5324 -1.02218 8.35888 7.14556C1.07789 14.4216 0.283008 25.7621 5.97353 33.9257L4.51618 35.4354C4.08798 35.21 3.60094 35.0819 3.08438 35.0819C1.38364 35.0818 0 36.4646 0 38.1642C0 39.8638 1.38364 41.2466 3.0845 41.2466C4.78536 41.2466 6.169 39.8638 6.169 38.1642C6.169 37.6085 6.0204 37.0873 5.76177 36.6365L7.03501 35.3175C7.44986 35.8176 7.89025 36.3033 8.35877 36.7716C12.4456 40.8555 17.8137 42.8974 23.1818 42.8974C27.3026 42.8974 31.423 41.6926 34.9641 39.286L38.0894 42.6244L36.7898 43.9232L51.9262 58.9966L60.0001 50.9284L44.8635 35.855ZM47.088 9.11966C47.8343 9.11966 48.4415 9.72652 48.4415 10.4723C48.4415 11.218 47.8343 11.8249 47.088 11.8249C46.3417 11.8249 45.7345 11.218 45.7345 10.4723C45.7345 9.72652 46.3417 9.11966 47.088 9.11966ZM3.0845 39.5167C2.33825 39.5167 1.73098 38.9099 1.73098 38.1641C1.73098 37.4184 2.33825 36.8115 3.0845 36.8115C3.83087 36.8115 4.43802 37.4184 4.43802 38.1641C4.4379 38.91 3.83075 39.5167 3.0845 39.5167ZM9.58279 35.5485C2.0843 28.0551 2.0843 15.8624 9.58279 8.36876C13.332 4.62199 18.2568 2.74884 23.1817 2.74884C28.1067 2.74884 33.0316 4.62222 36.7808 8.36876C44.2793 15.8622 44.2793 28.0549 36.7808 35.5485C29.2825 43.0418 17.0811 43.0418 9.58279 35.5485ZM36.3631 38.2483C36.9297 37.7898 37.478 37.298 38.0049 36.7716C38.514 36.2629 38.9912 35.7342 39.4367 35.1884L42.3822 38.3345L39.3141 41.4005L36.3631 38.2483ZM51.9242 56.5524L39.2401 43.9209L44.8658 38.299L57.55 50.9303L51.9242 56.5524Z" fill="#F376A2"/>
<path d="M44.8656 40.8096L42.3887 43.2847L43.6128 44.5079L44.8656 43.2559L49.6428 48.0299L50.8667 46.8068L44.8656 40.8096Z" fill="#F376A2"/>
<path d="M52.3509 48.2873L51.127 49.5112L52.4098 50.794L53.6337 49.5701L52.3509 48.2873Z" fill="#F376A2"/>
<path d="M11.1099 43.7832H9.37891V45.6678H11.1099V43.7832Z" fill="#F376A2"/>
<path d="M11.1099 54.3462H9.37891V56.2308H11.1099V54.3462Z" fill="#F376A2"/>
<path d="M25.3657 47.418H23.6348V49.3025H25.3657V47.418Z" fill="#F376A2"/>
<path d="M50.1724 31.8604H48.4414V33.745H50.1724V31.8604Z" fill="#F376A2"/>
<path d="M52.1353 16.8506H50.4043V18.7352H52.1353V16.8506Z" fill="#F376A2"/>
<path d="M57.8716 24.7983H56.1406V26.683H57.8716V24.7983Z" fill="#F376A2"/>
</g>
<defs>
<clipPath id="clip0">
<rect width="60" height="59.9595" fill="white"/>
</clipPath>
</defs>
</svg>
