<svg width="51" height="52" viewBox="0 0 51 52" fill="none" xmlns="http://www.w3.org/2000/svg">
<g clip-path="url(#clip0)">
<path d="M24.6504 40.0591H26.3504V41.7591H24.6504V40.0591Z" fill="#F376A2"/>
<path d="M21.25 40.0591H22.95V41.7591H21.25V40.0591Z" fill="#F376A2"/>
<path d="M17.8496 40.0591H19.5496V41.7591H17.8496V40.0591Z" fill="#F376A2"/>
<path d="M31.4492 40.0591H33.1492V41.7591H31.4492V40.0591Z" fill="#F376A2"/>
<path d="M28.0508 40.0591H29.7508V41.7591H28.0508V40.0591Z" fill="#F376A2"/>
<path d="M24.6504 43.459H26.3504V45.159H24.6504V43.459Z" fill="#F376A2"/>
<path d="M21.25 43.459H22.95V45.159H21.25V43.459Z" fill="#F376A2"/>
<path d="M28.0508 43.459H29.7508V45.159H28.0508V43.459Z" fill="#F376A2"/>
<path d="M21.25 46.8589H29.75V48.5589H21.25V46.8589Z" fill="#F376A2"/>
<path d="M48.45 40.059C47.8196 40.0565 47.2115 40.2943 46.75 40.7239C46.286 40.2985 45.6796 40.0611 45.05 40.059C44.4196 40.0565 43.8115 40.2943 43.35 40.7239C42.886 40.2985 42.2796 40.0611 41.65 40.059C41.3603 40.0602 41.0727 40.1109 40.8 40.2084V37.509C40.8 37.0396 40.4194 36.659 39.95 36.659H2.975C2.27068 36.659 1.7 36.0883 1.7 35.384C1.7 34.6797 2.27068 34.109 2.975 34.109H11.475C13.1181 34.109 14.45 32.7771 14.45 31.134V29.859H20.9209L19.7878 33.259H17.85V34.959H33.15V33.259H31.2122L30.0791 29.859H42.5C44.3776 29.859 45.9 28.3366 45.9 26.459V4.35898C45.9 2.48135 44.3776 0.958984 42.5 0.958984H8.5C6.62236 0.958984 5.1 2.48135 5.1 4.35898V26.459C5.1 28.3366 6.62236 29.859 8.5 29.859H12.75V31.134C12.75 31.8383 12.1793 32.409 11.475 32.409H2.975C1.33186 32.409 0 33.7408 0 35.384C0 37.0271 1.33186 38.359 2.975 38.359H10.2V40.2084C9.32053 39.8909 8.33689 40.0897 7.65 40.7247C7.18765 40.296 6.58044 40.0582 5.95 40.059C5.32039 40.0615 4.71401 40.2989 4.25 40.7247C3.78765 40.296 3.18044 40.0582 2.55 40.059C1.14177 40.059 0 41.2008 0 42.609V51.959H1.7V42.609C1.7 42.1396 2.08059 41.759 2.55 41.759C2.77952 41.7586 2.99866 41.8528 3.15596 42.02C3.31409 42.1749 3.40208 42.3878 3.4 42.609V46.009H5.1V42.609C5.1 42.1396 5.48059 41.759 5.95 41.759C6.17952 41.7586 6.39866 41.8528 6.55596 42.02C6.71409 42.1749 6.80208 42.3878 6.8 42.609V46.009H8.5V42.609C8.5 42.1396 8.88059 41.759 9.35 41.759C9.57952 41.7586 9.79866 41.8528 9.95596 42.02C10.1141 42.1749 10.2021 42.3878 10.2 42.609V46.009H11.9V42.609C11.9 42.1396 12.2806 41.759 12.75 41.759C12.9795 41.7586 13.1987 41.8528 13.356 42.02C13.5141 42.1749 13.6021 42.3878 13.6 42.609V47.709C13.6 48.0153 13.7648 48.2979 14.0316 48.4486C14.2981 48.5997 14.6251 48.5951 14.8879 48.4374L17.8542 46.6618C18.1845 46.4614 18.6145 46.556 18.8299 46.8768C18.9341 47.0362 18.9702 47.2304 18.9308 47.4168C18.8909 47.6031 18.7784 47.7658 18.6182 47.8688L14.8273 50.4026C14.5164 50.6109 14.3782 50.9978 14.4869 51.3559C14.5957 51.7141 14.9256 51.959 15.3 51.959H35.7C36.0744 51.959 36.4043 51.7141 36.5131 51.3559C36.6218 50.9978 36.4836 50.6109 36.1727 50.4026L32.3706 47.8621C32.0435 47.6438 31.9551 47.2018 32.1726 46.8743C32.388 46.5519 32.8205 46.4585 33.15 46.6627L36.1155 48.4374C36.3782 48.5934 36.704 48.5968 36.9692 48.4461C37.2348 48.2954 37.3992 48.014 37.4 47.709V42.609C37.3996 42.3795 37.4938 42.1603 37.6611 42.003C37.8159 41.8449 38.0288 41.7569 38.25 41.759C38.7194 41.759 39.1 42.1396 39.1 42.609V46.009H40.8V42.609C40.7996 42.3795 40.8938 42.1603 41.0611 42.003C41.2159 41.8449 41.4288 41.7569 41.65 41.759C42.1194 41.759 42.5 42.1396 42.5 42.609V46.009H44.2V42.609C44.1996 42.3795 44.2938 42.1603 44.4611 42.003C44.6159 41.8449 44.8288 41.7569 45.05 41.759C45.5194 41.759 45.9 42.1396 45.9 42.609V46.009H47.6V42.609C47.5996 42.3795 47.6938 42.1603 47.8611 42.003C48.0159 41.8449 48.2288 41.7569 48.45 41.759C48.9194 41.759 49.3 42.1396 49.3 42.609V51.959H51V42.609C51 41.2008 49.8582 40.059 48.45 40.059ZM29.42 33.259H21.58L22.713 29.859H28.287L29.42 33.259ZM6.8 26.459V4.35898C6.8 3.42017 7.56118 2.65898 8.5 2.65898H42.5C43.4388 2.65898 44.2 3.42017 44.2 4.35898V26.459C44.2 27.3978 43.4388 28.159 42.5 28.159H8.5C7.56118 28.159 6.8 27.3978 6.8 26.459ZM38.25 40.059C37.6196 40.0573 37.0115 40.2951 36.55 40.7247V40.059H34.85V41.759H35.8548C35.7552 42.0312 35.7029 42.3189 35.7 42.609V43.459H34.85V45.159H35.7V46.2086L34.0203 45.2042C33.7535 45.0432 33.458 44.9357 33.15 44.8871V43.459H31.45V45.159H31.6202C30.8748 45.5603 30.3958 46.324 30.3589 47.1694C30.3215 48.0149 30.732 48.8171 31.4388 49.2824L32.8952 50.259H18.1048L19.55 49.289C20.2676 48.8313 20.688 48.0261 20.6528 47.1752C20.6179 46.3244 20.1331 45.5566 19.3798 45.159H19.55V43.459H17.85V44.8871C17.5425 44.9357 17.2474 45.0432 16.9805 45.203L15.3 46.2086V45.159H16.15V43.459H15.3V42.609C15.2975 42.3189 15.2456 42.0312 15.146 41.759H16.15V40.059H14.45V40.7272C13.9881 40.2972 13.3809 40.0586 12.75 40.059C12.4599 40.0606 12.1727 40.1121 11.9 40.2113V38.359H39.1V40.2113C38.8277 40.1117 38.5401 40.0602 38.25 40.059Z" fill="#F376A2"/>
<path d="M18.554 18.8088L29.8351 22.8389C30.1145 23.9711 31.1334 24.7651 32.3 24.7588H32.3536C33.7373 24.7219 34.8422 23.5934 34.85 22.2088V6.90883C34.8592 5.6193 33.9021 4.52692 32.6225 4.3663C31.343 4.20526 30.1452 5.02704 29.8351 6.2788L18.554 10.3088H13.6001C11.4165 10.3068 9.58663 11.9594 9.36749 14.1318C9.14793 16.3041 10.6101 18.2892 12.7501 18.7237V24.7588C12.7501 25.2282 13.1306 25.6088 13.6001 25.6088H17.0001C17.4695 25.6088 17.8501 25.2282 17.8501 24.7588V18.8088H18.554ZM32.3 6.05883C32.7695 6.05883 33.15 6.43942 33.15 6.90883V22.2088C33.1476 22.6704 32.779 23.0464 32.3179 23.0588C32.0917 23.0505 31.8755 22.9646 31.7049 22.8156C31.5414 22.6562 31.4492 22.4375 31.45 22.2088V6.90883C31.45 6.43942 31.8306 6.05883 32.3 6.05883ZM29.75 21.0027L19.5501 17.3637V11.7623L29.75 8.11908V21.0027ZM11.0501 14.5588C11.0501 13.1506 12.1918 12.0088 13.6001 12.0088H17.8501V17.1088H13.6001C12.1918 17.1088 11.0501 15.9671 11.0501 14.5588ZM16.1501 23.9088H14.4501V18.8088H16.1501V23.9088Z" fill="#F376A2"/>
<path d="M36.5508 12.8589H40.8008V14.5589H36.5508V12.8589Z" fill="#F376A2"/>
<path d="M36.2461 6.04966L40.4957 4.41357L41.1066 6.0011L36.857 7.63677L36.2461 6.04966Z" fill="#F376A2"/>
<path d="M36.2441 21.3679L36.8547 19.7808L41.1047 21.4148L40.4941 23.0023L36.2441 21.3679Z" fill="#F376A2"/>
<path d="M8.5 4.35889H10.2V6.05889H8.5V4.35889Z" fill="#F376A2"/>
<path d="M11.9004 4.35889H13.6004V6.05889H11.9004V4.35889Z" fill="#F376A2"/>
<path d="M15.3008 4.35889H17.0008V6.05889H15.3008V4.35889Z" fill="#F376A2"/>
</g>
<defs>
<clipPath id="clip0">
<rect width="51" height="51" fill="white" transform="translate(0 0.958984)"/>
</clipPath>
</defs>
</svg>
