<svg width="51" height="51" viewBox="0 0 51 51" fill="none" xmlns="http://www.w3.org/2000/svg">
<g clip-path="url(#clip0)">
<path d="M5.87318 18.8327C6.0187 18.9732 6.20975 19.0438 6.4008 19.0438C6.59185 19.0438 6.7829 18.9735 6.92881 18.8327C7.22025 18.5514 7.22025 18.095 6.92881 17.8137L5.11638 16.0641L6.92881 14.315C7.22025 14.0333 7.22025 13.5773 6.92881 13.296C6.63737 13.0146 6.16462 13.0146 5.87318 13.296L3.53313 15.5548C3.39305 15.69 3.31445 15.8733 3.31445 16.0641C3.31445 16.2553 3.39305 16.4386 3.53313 16.5738L5.87318 18.8327Z" fill="#F376A2"/>
<path d="M13.281 16.064L11.4685 17.8136C11.1771 18.0949 11.1771 18.5513 11.4689 18.8326C11.6144 18.9731 11.8055 19.0437 11.9965 19.0437C12.1876 19.0437 12.3786 18.9731 12.5242 18.8326L14.8646 16.5733C15.156 16.292 15.156 15.8357 14.8646 15.5547L12.5242 13.2955C12.2327 13.0141 11.7604 13.0141 11.4689 13.2955C11.1771 13.5772 11.1771 14.0331 11.4689 14.3145L13.281 16.064Z" fill="#F376A2"/>
<path d="M8.08494 18.9939C8.17443 19.0277 8.26704 19.0438 8.3577 19.0438C8.65575 19.0438 8.93707 18.8703 9.05263 18.5867L10.8911 14.0686C11.0421 13.6983 10.853 13.2802 10.4693 13.1345C10.0861 12.9891 9.65262 13.1713 9.50204 13.5416L7.66315 18.0598C7.51257 18.4301 7.70128 18.8485 8.08494 18.9939Z" fill="#F376A2"/>
<path d="M4.48262 23.2708H9.51097C9.92303 23.2708 10.2573 22.9481 10.2573 22.55C10.2573 22.1522 9.92303 21.8296 9.51097 21.8296H4.48262C4.07018 21.8296 3.73633 22.1522 3.73633 22.55C3.73633 22.9481 4.07018 23.2708 4.48262 23.2708Z" fill="#F376A2"/>
<path d="M21.0925 21.8296H12.2522C11.8401 21.8296 11.5059 22.1522 11.5059 22.55C11.5059 22.9481 11.8401 23.2708 12.2522 23.2708H21.0925C21.505 23.2708 21.8392 22.9481 21.8392 22.55C21.8392 22.1522 21.505 21.8296 21.0925 21.8296Z" fill="#F376A2"/>
<path d="M4.48262 26.3098H6.62462C7.03668 26.3098 7.37092 25.9872 7.37092 25.5891C7.37092 25.1913 7.03668 24.8687 6.62462 24.8687H4.48262C4.07018 24.8687 3.73633 25.1913 3.73633 25.5891C3.73633 25.9872 4.07018 26.3098 4.48262 26.3098Z" fill="#F376A2"/>
<path d="M18.3615 24.8687C17.9491 24.8687 17.6152 25.1913 17.6152 25.5891C17.6152 25.9872 17.9491 26.3098 18.3615 26.3098H19.6658C20.0782 26.3098 20.4125 25.9872 20.4125 25.5891C20.4125 25.1913 20.0782 24.8687 19.6658 24.8687H18.3615Z" fill="#F376A2"/>
<path d="M16.3976 25.5891C16.3976 25.1913 16.0633 24.8687 15.6513 24.8687H9.24434C8.8319 24.8687 8.49805 25.1913 8.49805 25.5891C8.49805 25.9872 8.8319 26.3098 9.24434 26.3098H15.6513C16.0633 26.3098 16.3976 25.9872 16.3976 25.5891Z" fill="#F376A2"/>
<path d="M21.2871 25.5891C21.2871 25.9872 21.6213 26.3098 22.0334 26.3098H24.4766C24.889 26.3098 25.2233 25.9872 25.2233 25.5891C25.2233 25.1913 24.889 24.8687 24.4766 24.8687H22.0334C21.6213 24.8687 21.2871 25.1913 21.2871 25.5891Z" fill="#F376A2"/>
<path d="M17.2213 16.6424H19.7983C20.2108 16.6424 20.545 16.3197 20.545 15.9216C20.545 15.5238 20.2108 15.2012 19.7983 15.2012H17.2213C16.8088 15.2012 16.4746 15.5238 16.4746 15.9216C16.4746 16.3197 16.8088 16.6424 17.2213 16.6424Z" fill="#F376A2"/>
<path d="M22.6861 16.6424H38.4101C38.8225 16.6424 39.1564 16.3197 39.1564 15.9216C39.1564 15.5238 38.8225 15.2012 38.4101 15.2012H22.6861C22.2737 15.2012 21.9395 15.5238 21.9395 15.9216C21.9395 16.3197 22.2737 16.6424 22.6861 16.6424Z" fill="#F376A2"/>
<path d="M36.0221 18.3711H29.6525C29.2405 18.3711 28.9062 18.6937 28.9062 19.0919C28.9062 19.4896 29.2405 19.8123 29.6525 19.8123H36.0221C36.4342 19.8123 36.7684 19.4896 36.7684 19.0919C36.7684 18.6937 36.4342 18.3711 36.0221 18.3711Z" fill="#F376A2"/>
<path d="M27.2639 18.3711H25.0744C24.662 18.3711 24.3281 18.6937 24.3281 19.0919C24.3281 19.4896 24.662 19.8123 25.0744 19.8123H27.2639C27.6763 19.8123 28.0102 19.4896 28.0102 19.0919C28.0102 18.6937 27.6763 18.3711 27.2639 18.3711Z" fill="#F376A2"/>
<path d="M17.2213 19.8123H22.585C22.9971 19.8123 23.3313 19.4896 23.3313 19.0919C23.3313 18.6937 22.9971 18.3711 22.585 18.3711H17.2213C16.8088 18.3711 16.4746 18.6937 16.4746 19.0919C16.4746 19.4896 16.8088 19.8123 17.2213 19.8123Z" fill="#F376A2"/>
<path d="M15.6594 27.8818H10.6314C10.219 27.8818 9.88477 28.2045 9.88477 28.6022C9.88477 29 10.219 29.3226 10.6314 29.3226H15.6594C16.0715 29.3226 16.4057 29 16.4057 28.6022C16.4057 28.2045 16.0715 27.8818 15.6594 27.8818Z" fill="#F376A2"/>
<path d="M8.34561 27.8818H4.48262C4.07018 27.8818 3.73633 28.2045 3.73633 28.6022C3.73633 29 4.07018 29.3226 4.48262 29.3226H8.34561C8.75806 29.3226 9.09191 29 9.09191 28.6022C9.09191 28.2045 8.75806 27.8818 8.34561 27.8818Z" fill="#F376A2"/>
<path d="M24.7756 27.8818H18.2072C17.7948 27.8818 17.4609 28.2045 17.4609 28.6022C17.4609 29 17.7948 29.3226 18.2072 29.3226H24.7756C25.1877 29.3226 25.5219 29 25.5219 28.6022C25.5219 28.2045 25.1877 27.8818 24.7756 27.8818Z" fill="#F376A2"/>
<path d="M33.6584 24.1807H30.0666C29.6545 24.1807 29.3203 24.5033 29.3203 24.9011C29.3203 25.2992 29.6545 25.6218 30.0666 25.6218H33.6584C34.0708 25.6218 34.4047 25.2992 34.4047 24.9011C34.4047 24.5033 34.0708 24.1807 33.6584 24.1807Z" fill="#F376A2"/>
<path d="M39.8908 25.6218H44.9612C45.3736 25.6218 45.7079 25.2992 45.7079 24.9011C45.7079 24.5033 45.3736 24.1807 44.9612 24.1807H39.8908C39.4784 24.1807 39.1445 24.5033 39.1445 24.9011C39.1445 25.2992 39.4788 25.6218 39.8908 25.6218Z" fill="#F376A2"/>
<path d="M37.3558 24.1807H36.194C35.7815 24.1807 35.4473 24.5033 35.4473 24.9011C35.4473 25.2992 35.7815 25.6218 36.194 25.6218H37.3558C37.7683 25.6218 38.1021 25.2992 38.1021 24.9011C38.1021 24.5033 37.7683 24.1807 37.3558 24.1807Z" fill="#F376A2"/>
<path d="M30.0666 33.4735H33.6584C34.0708 33.4735 34.4047 33.1513 34.4047 32.7531C34.4047 32.3554 34.0708 32.0327 33.6584 32.0327H30.0666C29.6545 32.0327 29.3203 32.3554 29.3203 32.7531C29.3203 33.1513 29.6545 33.4735 30.0666 33.4735Z" fill="#F376A2"/>
<path d="M39.8908 33.4735H44.9612C45.3736 33.4735 45.7079 33.1513 45.7079 32.7531C45.7079 32.3554 45.3736 32.0327 44.9612 32.0327H39.8908C39.4784 32.0327 39.1445 32.3554 39.1445 32.7531C39.1445 33.1513 39.4788 33.4735 39.8908 33.4735Z" fill="#F376A2"/>
<path d="M36.1936 33.4735H37.3554C37.7679 33.4735 38.1021 33.1513 38.1021 32.7531C38.1021 32.3554 37.7679 32.0327 37.3554 32.0327H36.1936C35.7811 32.0327 35.4473 32.3554 35.4473 32.7531C35.4473 33.1513 35.7811 33.4735 36.1936 33.4735Z" fill="#F376A2"/>
<path d="M33.6584 39.8848H30.0666C29.6545 39.8848 29.3203 40.2074 29.3203 40.6052C29.3203 41.0029 29.6545 41.3256 30.0666 41.3256H33.6584C34.0708 41.3256 34.4047 41.0029 34.4047 40.6052C34.4047 40.2074 34.0708 39.8848 33.6584 39.8848Z" fill="#F376A2"/>
<path d="M44.9612 39.8848H39.8908C39.4784 39.8848 39.1445 40.2074 39.1445 40.6052C39.1445 41.0029 39.4784 41.3256 39.8908 41.3256H44.9612C45.3736 41.3256 45.7079 41.0029 45.7079 40.6052C45.7079 40.2074 45.3736 39.8848 44.9612 39.8848Z" fill="#F376A2"/>
<path d="M37.3558 39.8848H36.194C35.7815 39.8848 35.4473 40.2074 35.4473 40.6052C35.4473 41.0029 35.7815 41.3256 36.194 41.3256H37.3558C37.7683 41.3256 38.1021 41.0029 38.1021 40.6052C38.1021 40.2074 37.7683 39.8848 37.3558 39.8848Z" fill="#F376A2"/>
<path d="M47.7154 0.895508H3.28518C1.47391 0.895508 0 2.31791 0 4.06671V38.9289C0 40.6773 1.47391 42.0998 3.28518 42.0998H6.09409C6.50615 42.0998 6.84039 41.7775 6.84039 41.3793C6.84039 40.9816 6.50615 40.6589 6.09409 40.6589H3.28518C2.29686 40.6589 1.49298 39.883 1.49298 38.9289V36.1957H28.6861V37.4374H28.0942C27.2845 37.4374 26.6262 38.0729 26.6262 38.8546V40.6589H10.6322C10.2201 40.6589 9.88588 40.9816 9.88588 41.3793C9.88588 41.7775 10.2201 42.0998 10.6322 42.0998H17.8087V44.6839H15.5551C14.0516 44.6839 12.8286 45.8648 12.8286 47.3157V48.8722C12.8286 49.5344 13.3866 50.073 14.0726 50.073H36.8708C37.5568 50.073 38.1147 49.5344 38.1147 48.8722V47.3157C38.1147 45.8648 36.8918 44.6839 35.3883 44.6839H33.1346V43.7731H46.9333C47.7426 43.7731 48.401 43.1375 48.401 42.3559V42.0167C49.8559 41.6907 50.9434 40.4306 50.9434 38.9289L50.9998 4.06634C51.0002 2.31791 49.5267 0.895508 47.7154 0.895508ZM28.1191 34.4803V31.0266H46.9084V34.4803H28.1191ZM30.1786 29.5855V28.0695H44.8485V29.5855H30.1786ZM44.8485 35.9211V37.4374H30.1786V35.9211H44.8485ZM19.3013 42.0998H26.6262V42.3563C26.6262 43.1375 27.2845 43.7731 28.0942 43.7731H31.6421V44.6839H19.3013V42.0998ZM35.3887 46.1251C36.0689 46.1251 36.6222 46.6592 36.6222 47.3157V48.6322H14.3212V47.3157C14.3212 46.6592 14.8749 46.1251 15.5551 46.1251H35.3887ZM46.9084 42.3319H28.1191V38.8786H46.9084V42.3319ZM49.4508 38.9289C49.4508 39.6268 49.0197 40.2281 48.4014 40.5012V38.8542C48.4014 38.0729 47.7426 37.4374 46.9333 37.4374H46.3415V36.1957H49.4508V38.9289ZM49.4508 34.7549H48.3769C48.3921 34.6734 48.4014 31.0026 48.4014 31.0026C48.4014 30.221 47.7426 29.5855 46.9333 29.5855H46.3415V28.0695H46.9333C47.7426 28.0695 48.4014 27.4336 48.4014 26.6524V23.1507C48.4014 22.3694 47.7426 21.7335 46.9333 21.7335H42.7174C42.305 21.7335 41.9711 22.0562 41.9711 22.4543C41.9711 22.852 42.305 23.1747 42.7174 23.1747H46.9084V26.6283H28.1191V23.1747H38.0731C38.4856 23.1747 38.8194 22.852 38.8194 22.4543C38.8194 22.0562 38.4856 21.7335 38.0731 21.7335H28.0942C27.2845 21.7335 26.6262 22.3694 26.6262 23.1507V26.6524C26.6262 27.4336 27.2845 28.0695 28.0942 28.0695H28.6861V29.5855H28.0942C27.2845 29.5855 26.6262 30.2214 26.6262 31.0026C26.6262 31.0026 26.6355 34.6734 26.6507 34.7549H1.49298V10.6965H49.4508V34.7549ZM49.4508 9.25527H1.54784V4.06634C1.54784 3.11268 2.35172 2.33669 3.34004 2.33669H47.6586C48.6469 2.33669 49.4508 3.11268 49.4508 4.06671V9.25527Z" fill="#F376A2"/>
<path d="M5.5047 3.66113C4.29693 3.66113 3.31445 4.60953 3.31445 5.77539C3.31445 6.94126 4.29693 7.89003 5.5047 7.89003C6.71247 7.89003 7.69534 6.94126 7.69534 5.77539C7.69534 4.60953 6.71247 3.66113 5.5047 3.66113ZM5.5047 6.44885C5.12027 6.44885 4.80704 6.14686 4.80704 5.77539C4.80704 5.4043 5.12027 5.10194 5.5047 5.10194C5.88952 5.10194 6.20236 5.4043 6.20236 5.77539C6.20236 6.14686 5.88952 6.44885 5.5047 6.44885Z" fill="#F376A2"/>
<path d="M11.0813 3.66113C9.87349 3.66113 8.89062 4.60953 8.89062 5.77539C8.89062 6.94126 9.87349 7.89003 11.0813 7.89003C12.289 7.89003 13.2715 6.94126 13.2715 5.77539C13.2715 4.60953 12.2886 3.66113 11.0813 3.66113ZM11.0813 6.44885C10.6964 6.44885 10.3836 6.14686 10.3836 5.77539C10.3836 5.4043 10.6964 5.10194 11.0813 5.10194C11.4657 5.10194 11.7789 5.4043 11.7789 5.77539C11.7789 6.14686 11.4657 6.44885 11.0813 6.44885Z" fill="#F376A2"/>
<path d="M16.657 3.66113C15.4493 3.66113 14.4668 4.60953 14.4668 5.77539C14.4668 6.94126 15.4493 7.89003 16.657 7.89003C17.8648 7.89003 18.8477 6.94126 18.8477 5.77539C18.8477 4.60953 17.8648 3.66113 16.657 3.66113ZM16.657 6.44885C16.2726 6.44885 15.9594 6.14686 15.9594 5.77539C15.9594 5.4043 16.2726 5.10194 16.657 5.10194C17.0419 5.10194 17.3547 5.4043 17.3547 5.77539C17.3547 6.14686 17.0419 6.44885 16.657 6.44885Z" fill="#F376A2"/>
</g>
<defs>
<clipPath id="clip0">
<rect width="51" height="49.2307" fill="white" transform="translate(0 0.799316)"/>
</clipPath>
</defs>
</svg>
