<svg width="58" height="58" viewBox="0 0 58 58" fill="none" xmlns="http://www.w3.org/2000/svg">
<path d="M21.5234 28.207C21.5234 28.0268 21.4518 27.8539 21.3244 27.7264C21.1969 27.599 21.024 27.5273 20.8438 27.5273H15.293C15.1127 27.5273 14.9398 27.599 14.8124 27.7264C14.6849 27.8539 14.6133 28.0268 14.6133 28.207V37.3828C14.6133 37.5631 14.6849 37.736 14.8124 37.8634C14.9398 37.9909 15.1127 38.0625 15.293 38.0625H20.8438C21.024 38.0625 21.1969 37.9909 21.3244 37.8634C21.4518 37.736 21.5234 37.5631 21.5234 37.3828V28.207ZM20.2773 36.5898H15.9727V28.8867H20.2773V36.5898Z" fill="#F376A2"/>
<path d="M10.082 21.6367C10.082 21.4565 10.0104 21.2836 9.88296 21.1561C9.75549 21.0286 9.58261 20.957 9.40234 20.957H3.85156C3.6713 20.957 3.49842 21.0286 3.37095 21.1561C3.24348 21.2836 3.17188 21.4565 3.17188 21.6367V37.2695C3.17188 37.4498 3.24348 37.6227 3.37095 37.7501C3.49842 37.8776 3.6713 37.9492 3.85156 37.9492H9.40234C9.58261 37.9492 9.75549 37.8776 9.88296 37.7501C10.0104 37.6227 10.082 37.4498 10.082 37.2695V21.6367ZM8.83594 36.5898H4.53125V22.3164H8.83594V36.5898Z" fill="#F376A2"/>
<path d="M26.8415 14.9789C27.454 15.6229 28.271 16.0344 29.1531 16.1434C30.0352 16.2524 30.9278 16.052 31.6787 15.5765C32.4295 15.1009 32.9922 14.3796 33.2707 13.5356C33.5493 12.6916 33.5264 11.777 33.2061 10.948L37.6651 6.86103C38.091 7.69978 38.8099 8.35306 39.6855 8.69692C40.5611 9.04079 41.5324 9.05133 42.4152 8.72654C43.298 8.40176 44.031 7.76424 44.4749 6.93492C44.9189 6.10561 45.043 5.14218 44.8238 4.22742C44.6045 3.31265 44.0572 2.51017 43.2855 1.97221C42.5138 1.43425 41.5715 1.19822 40.6374 1.30892C39.7033 1.41961 38.8422 1.86932 38.2177 2.57273C37.5931 3.27614 37.2484 4.18432 37.2491 5.12499C37.2491 5.21392 37.2531 5.30183 37.2591 5.38917L32.4825 9.76715C31.8754 9.08813 31.0467 8.64695 30.1444 8.52234C29.242 8.39772 28.3248 8.59779 27.5563 9.08683C26.7878 9.57587 26.2181 10.3221 25.9489 11.1922C25.6796 12.0624 25.7283 13 26.0863 13.8376L21.4824 17.7204C21.1635 17.1621 20.7095 16.6928 20.162 16.3556C19.6145 16.0185 18.9911 15.8243 18.349 15.7908C17.7069 15.7573 17.0667 15.8856 16.4871 16.164C15.9076 16.4424 15.4072 16.8619 15.032 17.3841L10.3786 14.1442C10.6374 13.2183 10.5404 12.2291 10.1068 11.3711C9.6731 10.5131 8.93415 9.84842 8.0352 9.50767C7.13625 9.16692 6.14235 9.1748 5.24891 9.52977C4.35548 9.88473 3.62717 10.5611 3.20717 11.4259C2.78718 12.2906 2.7059 13.2812 2.9793 14.2029C3.25271 15.1246 3.86103 15.9106 4.68465 16.4065C5.50827 16.9023 6.48759 17.0721 7.43006 16.8824C8.37253 16.6928 9.20996 16.1574 9.77768 15.3816L14.4389 18.6272C14.2896 19.1775 14.2645 19.7541 14.3657 20.3153C14.4668 20.8764 14.6915 21.408 15.0234 21.8716C15.3554 22.3352 15.7864 22.7191 16.2851 22.9955C16.7838 23.2719 17.3378 23.4339 17.9068 23.4697C18.4759 23.5056 19.0458 23.4143 19.5752 23.2027C20.1047 22.991 20.5804 22.6642 20.9679 22.2459C21.3554 21.8277 21.645 21.3284 21.8157 20.7844C21.9864 20.2404 22.0339 19.6652 21.9548 19.1005L26.8415 14.9789ZM41.0922 2.64119C41.5835 2.64117 42.0637 2.78682 42.4722 3.05973C42.8807 3.33264 43.1991 3.72055 43.3871 4.1744C43.5751 4.62826 43.6243 5.12767 43.5285 5.60949C43.4326 6.09131 43.1961 6.53389 42.8487 6.88127C42.5014 7.22865 42.0588 7.46522 41.577 7.56106C41.0952 7.65691 40.5957 7.60773 40.1419 7.41974C39.688 7.23175 39.3001 6.9134 39.0272 6.50493C38.7542 6.09647 38.6086 5.61625 38.6086 5.12499C38.6093 4.46652 38.8712 3.83522 39.3368 3.36959C39.8024 2.90395 40.4337 2.642 41.0921 2.64119H41.0922ZM29.6204 9.84463C30.1116 9.84463 30.5918 9.9903 31.0003 10.2632C31.4088 10.5362 31.7271 10.9241 31.9151 11.3779C32.1031 11.8318 32.1523 12.3312 32.0564 12.813C31.9606 13.2948 31.724 13.7374 31.3767 14.0848C31.0293 14.4321 30.5867 14.6687 30.1049 14.7645C29.6231 14.8604 29.1237 14.8112 28.6699 14.6232C28.216 14.4352 27.8281 14.1168 27.5552 13.7084C27.2822 13.2999 27.1366 12.8197 27.1366 12.3284C27.1373 11.6699 27.3992 11.0386 27.8649 10.5729C28.3305 10.1073 28.9618 9.84538 29.6204 9.84463ZM6.67672 15.5986C6.18546 15.5986 5.70524 15.453 5.29678 15.18C4.88832 14.9071 4.56996 14.5192 4.38197 14.0653C4.19398 13.6115 4.1448 13.112 4.24065 12.6302C4.33649 12.1484 4.57306 11.7058 4.92044 11.3585C5.26782 11.0111 5.7104 10.7746 6.19222 10.6787C6.67404 10.5829 7.17345 10.6321 7.62731 10.8201C8.08116 11.0081 8.46907 11.3265 8.74198 11.735C9.01489 12.1435 9.16054 12.6237 9.16052 13.1149C9.15974 13.7734 8.8978 14.4047 8.43217 14.8704C7.96653 15.336 7.33521 15.5979 6.67672 15.5986ZM18.1485 22.1123C17.6572 22.1123 17.177 21.9666 16.7686 21.6937C16.3601 21.4208 16.0417 21.0329 15.8537 20.579C15.6658 20.1252 15.6166 19.6257 15.7124 19.1439C15.8082 18.6621 16.0448 18.2196 16.3922 17.8722C16.7395 17.5248 17.1821 17.2883 17.6639 17.1924C18.1457 17.0966 18.6451 17.1458 19.099 17.3338C19.5529 17.5218 19.9408 17.8401 20.2137 18.2486C20.4866 18.657 20.6323 19.1373 20.6323 19.6285C20.6316 20.287 20.3697 20.9184 19.904 21.384C19.4384 21.8497 18.807 22.1116 18.1485 22.1123Z" fill="#F376A2"/>
<path d="M41.2033 31.5024C38.9783 31.5024 36.8032 32.1622 34.9531 33.3984C33.103 34.6345 31.661 36.3915 30.8095 38.4472C29.958 40.5029 29.7352 42.7649 30.1693 44.9472C30.6034 47.1295 31.6748 49.1341 33.2482 50.7075C34.8215 52.2808 36.8261 53.3523 39.0084 53.7864C41.1907 54.2205 43.4527 53.9977 45.5084 53.1462C47.5641 52.2947 49.3211 50.8528 50.5573 49.0027C51.7935 47.1527 52.4533 44.9776 52.4533 42.7525C52.4499 39.7699 51.2635 36.9104 49.1545 34.8013C47.0455 32.6922 44.186 31.5059 41.2033 31.5024ZM41.2033 52.6432C39.2471 52.6432 37.3348 52.0632 35.7083 50.9764C34.0818 49.8896 32.814 48.3449 32.0654 46.5376C31.3168 44.7303 31.1209 42.7416 31.5025 40.823C31.8842 38.9044 32.8261 37.142 34.2094 35.7588C35.5926 34.3755 37.355 33.4335 39.2736 33.0519C41.1922 32.6702 43.1809 32.8661 44.9882 33.6147C46.7955 34.3633 48.3402 35.631 49.427 37.2575C50.5138 38.884 51.0939 40.7963 51.0939 42.7525C51.0909 45.3747 50.0479 47.8887 48.1937 49.7429C46.3395 51.5972 43.8256 52.6402 41.2033 52.6432Z" fill="#F376A2"/>
<path d="M41.2056 37.6547C41.8369 37.6554 42.4422 37.9066 42.8886 38.353C43.3351 38.7995 43.5862 39.4048 43.5869 40.0361C43.5869 40.2164 43.6585 40.3893 43.7859 40.5167C43.9134 40.6442 44.0863 40.7158 44.2666 40.7158C44.4485 40.7164 44.6233 40.6455 44.7535 40.5183C44.8836 40.3912 44.9585 40.218 44.9621 40.0361C44.9568 39.1659 44.6506 38.3244 44.0956 37.6541C43.5406 36.9839 42.7708 36.5262 41.9169 36.3588V35.2939C41.9169 35.1137 41.8453 34.9408 41.7178 34.8133C41.5903 34.6859 41.4174 34.6143 41.2372 34.6143C41.0569 34.6143 40.884 34.6859 40.7566 34.8133C40.6291 34.9408 40.5575 35.1137 40.5575 35.2939V36.3588C39.6907 36.5051 38.9046 36.9558 38.3406 37.63C37.7766 38.3042 37.4716 39.1575 37.4807 40.0365C37.48 41.0274 37.8729 41.978 38.5728 42.6794C39.2728 43.3809 40.2226 43.7757 41.2135 43.7771C41.8449 43.775 42.4514 44.0238 42.8993 44.4688C43.3473 44.9138 43.6002 45.5185 43.6023 46.15C43.6044 46.7814 43.3556 47.3878 42.9106 47.8358C42.4656 48.2838 41.8609 48.5367 41.2295 48.5388C41.222 48.5388 41.214 48.5377 41.2068 48.5377C41.1997 48.5377 41.1919 48.5386 41.1842 48.5388C40.5567 48.5325 39.957 48.2791 39.5152 47.8335C39.0735 47.3878 38.8252 46.786 38.8243 46.1585C38.8243 45.9783 38.7527 45.8054 38.6252 45.6779C38.4977 45.5504 38.3249 45.4788 38.1446 45.4788C38.0562 45.4792 37.9687 45.4971 37.8873 45.5316C37.8058 45.566 37.7321 45.6164 37.6703 45.6796C37.6085 45.7429 37.5599 45.8178 37.5273 45.9C37.4948 45.9822 37.4789 46.0701 37.4807 46.1585C37.4716 47.0375 37.7766 47.8908 38.3406 48.565C38.9046 49.2392 39.6907 49.6899 40.5575 49.8362V51.0407C40.5575 51.221 40.6291 51.3939 40.7566 51.5213C40.884 51.6488 41.0569 51.7204 41.2372 51.7204C41.4174 51.7204 41.5903 51.6488 41.7178 51.5213C41.8453 51.3939 41.9169 51.221 41.9169 51.0407V49.8362C42.8331 49.6627 43.6515 49.1533 44.2117 48.4079C44.772 47.6625 45.0338 46.7348 44.9458 45.8065C44.8577 44.8781 44.4263 44.0161 43.7359 43.3893C43.0455 42.7625 42.146 42.416 41.2135 42.4178C40.8994 42.4204 40.588 42.3608 40.297 42.2426C40.006 42.1244 39.7414 41.9497 39.5182 41.7288C39.295 41.5078 39.1177 41.2449 38.9965 40.9551C38.8754 40.6653 38.8127 40.3545 38.8122 40.0404C38.8117 39.7263 38.8733 39.4153 38.9935 39.1251C39.1137 38.8349 39.2901 38.5714 39.5125 38.3497C39.735 38.128 39.9991 37.9525 40.2897 37.8333C40.5802 37.7141 40.8915 37.6535 41.2056 37.6551V37.6547Z" fill="#F376A2"/>
<path d="M44.5197 29.1991V13.6097C44.5197 13.2344 44.2675 12.9141 43.8922 12.9141H38.2893C38.1074 12.9178 37.9343 12.9928 37.8071 13.1229C37.68 13.253 37.6091 13.4278 37.6096 13.6097V29.2576C35.9857 29.6915 34.4516 30.4097 33.0783 31.3789V20.7847C33.0783 20.4093 32.7958 20.0508 32.4204 20.0508H26.8177C26.4424 20.0508 26.1682 20.4093 26.1682 20.7847V37.3238C26.1659 37.4086 26.1814 37.493 26.2135 37.5715C26.2457 37.65 26.2939 37.7209 26.355 37.7798C26.4161 37.8386 26.4889 37.8841 26.5685 37.9133C26.6482 37.9424 26.7331 37.9547 26.8177 37.9492H28.0667C27.5208 39.4827 27.2404 41.098 27.2376 42.7257C27.2376 50.4262 33.502 56.7046 41.203 56.7046C48.904 56.7046 55.1421 50.4464 55.1421 42.7459C55.1398 39.6256 54.0924 36.5961 52.1671 34.1407C50.2417 31.6853 47.5494 29.9456 44.5197 29.1991ZM38.969 14.2734H43.1604V28.9326C42.5039 28.8327 41.8407 28.7842 41.1767 28.7875C40.4371 28.7853 39.6985 28.8453 38.969 28.967V14.2734ZM27.5276 21.4102H31.719V32.4825C30.474 33.6726 29.4345 35.0605 28.6425 36.5898H27.5276V21.4102ZM41.203 55.3586C38.7098 55.3586 36.2725 54.6193 34.1995 53.2342C32.1265 51.8491 30.5107 49.8803 29.5566 47.5769C28.6024 45.2735 28.3528 42.7389 28.8391 40.2936C29.3255 37.8483 30.526 35.6021 32.289 33.8391C34.0519 32.0761 36.298 30.8755 38.7433 30.389C41.1886 29.9026 43.7232 30.1522 46.0267 31.1062C48.3301 32.0603 50.2989 33.6759 51.6842 35.7489C53.0694 37.8219 53.8087 40.2591 53.8088 42.7523C53.8051 46.0945 52.4758 49.2988 50.1126 51.6621C47.7494 54.0254 44.5452 55.3548 41.203 55.3586Z" fill="#F376A2"/>
</svg>
