<svg width="58" height="58" viewBox="0 0 58 58" fill="none" xmlns="http://www.w3.org/2000/svg">
<g clip-path="url(#clip0)">
<path d="M4.43881 12.4287V14.2043H49.1225V5.32666H0V43.7961H35.8062V42.0206H1.77546V7.10223H47.3469V12.4287H4.43881Z" fill="#F376A2"/>
<path d="M6.41999 8.87744H4.64453V10.6529H6.41999V8.87744Z" fill="#F376A2"/>
<path d="M9.97077 8.87744H8.19531V10.6529H9.97077V8.87744Z" fill="#F376A2"/>
<path d="M13.5215 8.87744H11.7461V10.6529H13.5215V8.87744Z" fill="#F376A2"/>
<path d="M44.478 8.87744H18.8516V10.6529H44.478V8.87744Z" fill="#F376A2"/>
<path d="M4.14453 17.5186V38.7063H16.5731V17.5186H4.14453ZM14.7976 36.9308H5.9201V19.294H14.7976V36.9308Z" fill="#F376A2"/>
<path d="M18.3438 17.5186V27.2247H44.9764V17.5186H18.3438ZM43.2009 25.4491H20.1193V19.294H43.2009V25.4491Z" fill="#F376A2"/>
<path d="M27.2247 21.4834H25.4492V23.2589H27.2247V21.4834Z" fill="#F376A2"/>
<path d="M30.7755 21.4834H29V23.2589H30.7755V21.4834Z" fill="#F376A2"/>
<path d="M34.3262 21.4834H32.5508V23.2589H34.3262V21.4834Z" fill="#F376A2"/>
<path d="M37.877 21.4834H36.1016V23.2589H37.877V21.4834Z" fill="#F376A2"/>
<path d="M18.3438 29V38.7062H28.4049V29H18.3438ZM26.6295 36.9306H20.1193V30.7755H26.6295V36.9306Z" fill="#F376A2"/>
<path d="M44.0924 29H34.2383V30.7755H44.0924V29Z" fill="#F376A2"/>
<path d="M44.0926 31.6431H30.6875V33.4185H44.0926V31.6431Z" fill="#F376A2"/>
<path d="M49.1232 33.1848V16.8672H47.3478V33.1848C46.0232 33.3049 44.7741 33.6898 43.6544 34.2872H30.6875V36.0627H41.2795C41.0101 36.3365 40.7575 36.6266 40.5216 36.9303H30.6875V38.7058H39.4219C38.8124 39.9793 38.4701 41.4042 38.4701 42.9078C38.4701 48.2924 42.851 52.6731 48.2354 52.6731C53.6199 52.6731 58.0007 48.2927 58.0007 42.9079C58.0007 37.8229 54.0931 33.6351 49.1232 33.1848ZM48.2354 50.8978C43.8298 50.8978 40.2456 47.3137 40.2456 42.9079C40.2456 38.5022 43.8297 34.9181 48.2354 34.9181C52.6412 34.9181 56.2253 38.5023 56.2253 42.9079C56.2253 47.3136 52.6411 50.8978 48.2354 50.8978Z" fill="#F376A2"/>
<path d="M49.1205 42.0204V37.5815H47.345V42.0204H42.9062V43.7958H47.345V48.2346H49.1205V43.7958H53.5592V42.0204H49.1205Z" fill="#F376A2"/>
</g>
<defs>
<clipPath id="clip0">
<rect width="58" height="58" fill="white"/>
</clipPath>
</defs>
</svg>
