<svg width="456" height="145" fill="none" xmlns="http://www.w3.org/2000/svg"><path d="M79.437 74.498c-.865.324-1.622.755-2.379 1.186l-2.27-3.451c-1.298.863-2.487 1.941-3.569 3.128a17.286 17.286 0 0 0-2.486 4.098l3.784 1.618c-.324.755-.649 1.618-.757 2.481l-4-.863a17.56 17.56 0 0 0-.325 4.746c.216 1.618.54 3.128 1.081 4.638l3.785-1.51c.324.863.757 1.618 1.19 2.373l-3.46 2.265c.864 1.294 1.945 2.48 3.135 3.559 1.19.97 2.595 1.833 4.108 2.481l1.622-3.775c.757.323 1.622.647 2.487.755l-.865 3.99a17.67 17.67 0 0 0 4.758.324c1.621-.216 3.135-.539 4.65-1.079l-1.515-3.775a4 4 0 0 0 1.19-.539 9.413 9.413 0 0 0 1.08-.647l2.272 3.451c1.297-.862 2.486-1.941 3.568-3.127a17.288 17.288 0 0 0 2.486-4.1l-3.784-1.617c.325-.755.649-1.618.757-2.48l4 .862c.325-1.618.433-3.128.325-4.745-.216-1.618-.54-3.128-1.081-4.638l-3.785 1.51c-.324-.863-.756-1.618-1.189-2.373l3.46-2.265c-.865-1.295-1.946-2.481-3.136-3.56a17.347 17.347 0 0 0-4.108-2.48l-1.622 3.775c-.649-.216-1.19-.432-1.838-.647-.217 0-.433-.108-.65-.108l.866-3.991a17.686 17.686 0 0 0-4.758-.324c-1.621.216-3.135.54-4.649 1.079l1.622 3.775zm4.109 2.48a8.331 8.331 0 0 1 3.243.324c3.677.971 6.488 4.207 6.812 8.197.108 1.618-.108 3.128-.757 4.53a9.552 9.552 0 0 1-4.216 4.53c-1.082.54-2.271.971-3.569 1.079-5.081.431-9.623-3.344-10.055-8.52-.433-5.178 3.352-9.708 8.542-10.14z" fill="#1CD0C5"/><path d="M83.653 79.028c-4 .324-6.92 3.883-6.595 7.766.324 3.99 3.892 6.903 7.785 6.58.973-.109 1.946-.324 2.811-.756 1.514-.755 2.595-2.05 3.244-3.451a7.722 7.722 0 0 0 .54-3.56c-.216-3.127-2.486-5.608-5.298-6.363a6.135 6.135 0 0 0-2.487-.216zm-21.95-19.846c4.001 0 7.245-3.235 7.245-7.226s-3.244-7.227-7.245-7.227c-4 0-7.244 3.236-7.244 7.227s3.243 7.226 7.244 7.226z" fill="#1CD0C5"/><path d="M56.838 69.105c1.082.324 2.271.54 3.46.647.217.54.325 1.187.65 1.726.864.108 1.621 0 2.486 0 .757-.108 1.622-.216 2.379-.432.108-.647.216-1.186.324-1.833 1.19-.324 2.27-.647 3.352-1.187.433.432.865.755 1.406 1.187a20.523 20.523 0 0 0 4-2.804c-.216-.54-.432-1.187-.648-1.726.865-.863 1.621-1.726 2.27-2.697.54.108 1.19.216 1.73.324.216-.324.433-.647.649-1.079l.54-1.078c.433-.755.65-1.51.866-2.265-.433-.432-.974-.755-1.406-1.187.324-1.078.54-2.265.649-3.451.54-.216 1.19-.324 1.73-.647.108-.863 0-1.618 0-2.48-.108-.756-.217-1.619-.325-2.374-.648-.108-1.19-.215-1.838-.323-.324-1.187-.649-2.265-1.19-3.344.433-.431.758-.863 1.19-1.402-.432-.647-.757-1.402-1.297-2.05l-.757-.97c-.216-.324-.54-.647-.757-.97-.54.215-1.19.43-1.73.646-.757-.862-1.73-1.617-2.703-2.265a61.33 61.33 0 0 0 .324-1.833c-1.297-.863-2.92-1.51-4.433-2.05-.432.432-.757.971-1.19 1.403a17.844 17.844 0 0 0-3.46-.647c-.216-.54-.324-1.187-.648-1.726-.757-.108-1.622 0-2.487 0-.865.108-1.622.216-2.379.323-.108.648-.216 1.187-.324 1.834-1.19.324-2.27.647-3.352 1.186-.432-.431-.865-.755-1.406-1.186a20.522 20.522 0 0 0-4 2.804c.216.54.432 1.187.649 1.726-.865.863-1.622 1.726-2.271 2.696-.54-.107-1.19-.215-1.838-.323-.216.323-.433.647-.649 1.078l-.54 1.079c-.433.755-.65 1.51-.974 2.265.433.431.973.755 1.406 1.186a17.73 17.73 0 0 0-.649 3.452c-.54.216-1.19.323-1.73.647-.108.755 0 1.618 0 2.48.108.756.216 1.618.433 2.373.54.108 1.189.216 1.838.324.324 1.187.649 2.265 1.19 3.344-.433.431-.866.863-1.19 1.402.432.647.757 1.402 1.297 2.05l.757.97c.216.323.54.647.757.97.54-.215 1.19-.43 1.73-.647.865.863 1.73 1.618 2.703 2.265-.108.54-.216 1.187-.324 1.726 1.405.863 2.92 1.51 4.433 2.05.54-.216.865-.648 1.297-1.187zm-6.487-16.179c-.54-6.255 4.109-11.756 10.38-12.295 6.271-.54 11.786 4.098 12.326 10.354.54 6.256-4.109 11.756-10.38 12.296-6.271.539-11.785-4.099-12.326-10.355zM14.02 121.847c3.352 2.373 7.137 4.207 11.03 5.177l1.297-5.285c1.19.324 2.379.54 3.676.647l-.54 5.393c.973.108 2.054.108 3.027.216.973 0 2.054-.108 3.028-.108.973-.108 2.054-.216 3.027-.431.973-.216 1.946-.432 3.028-.647l-1.514-5.285a18.987 18.987 0 0 0 3.46-1.295l2.162 4.962c3.785-1.618 7.245-3.991 10.056-7.011l-3.893-3.775c.865-.863 1.622-1.834 2.38-2.804l4.432 3.235a32.38 32.38 0 0 0 3.136-5.285l.324-.647c.108-.215.216-.431.325-.755l.54-1.402.217-.755c.108-.216.108-.539.216-.755l.432-1.51-5.298-1.294c.325-1.187.54-2.373.649-3.667l5.406.539c.108-.97.108-2.05.216-3.02 0-.97-.108-2.05-.108-3.02-.108-.97-.216-2.05-.432-3.02-.217-.97-.433-2.05-.649-3.02l-5.298 1.51a18.903 18.903 0 0 0-1.298-3.451l4.974-2.158-.649-1.402-.324-.647-.432-.647-.757-1.294c-.108-.216-.217-.432-.433-.647l-.432-.648A27.452 27.452 0 0 0 55 73.204l-3.568 3.775c-.865-.863-1.838-1.618-2.811-2.373l3.243-4.422c-3.351-2.373-7.136-4.207-11.028-5.178l-1.298 5.285a20.138 20.138 0 0 0-3.676-.647l.54-5.393c-1.08-.108-2.054-.108-3.027-.215-.973 0-2.054.108-3.027.108-.974.107-2.055.323-3.028.43-.973.217-1.946.432-3.027.648l1.513 5.285c-1.19.324-2.379.755-3.46 1.294l-2.162-4.961c-3.785 1.618-7.137 3.99-10.056 7.01l3.893 3.776c-.865.862-1.622 1.833-2.38 2.804L7.21 77.194a32.433 32.433 0 0 0-3.136 5.285l-.324.647a5.25 5.25 0 0 0-.325.755l-.54 1.403-.325.754c-.108.216-.108.54-.216.755l-.432 1.51 5.298 1.295a19.99 19.99 0 0 0-.649 3.667l-5.406-.54c-.108.971-.108 2.05-.216 3.02 0 .971.108 2.05.108 3.02.108.971.216 2.05.432 3.021.216.97.433 1.941.649 3.02l5.298-1.51a18.89 18.89 0 0 0 1.298 3.451l-4.974 2.157.649 1.402.324.648.432.647.757 1.294c.108.216.217.431.433.647l.432.647a27.434 27.434 0 0 0 4 4.638l3.785-3.883c.865.863 1.838 1.618 2.811 2.373l-3.351 4.53zm-2.27-24.052c-.973-11.649 7.677-22.003 19.462-22.974 11.678-.97 22.058 7.658 23.031 19.415.973 11.648-7.677 22.002-19.462 22.973-11.786.971-22.058-7.765-23.031-19.414z" fill="#1CD0C5"/><path d="M34.348 111.924c8.867-.755 15.354-8.521 14.597-17.257-.757-8.844-8.542-15.316-17.3-14.56-8.866.754-15.354 8.52-14.597 17.256.65 8.737 8.434 15.316 17.3 14.561zM20.616 97.04c-.54-6.795 4.542-12.835 11.354-13.374 6.811-.54 12.866 4.422 13.407 11.325.54 6.795-4.433 12.835-11.353 13.374-6.812.539-12.867-4.53-13.408-11.325z" fill="#1CD0C5"/><path d="M33.483 102.109c-3.46.324-6.38-2.265-6.704-5.608-.324-3.452 2.271-6.364 5.623-6.688 3.46-.323 6.38 2.266 6.704 5.61.324 3.45-2.271 6.47-5.623 6.686z" fill="#96EADC"/><path d="M26.78 96.5c-.325-3.45 2.27-6.363 5.622-6.686 3.46-.324 6.38 2.265 6.704 5.608.324 3.452-2.271 6.364-5.623 6.687-3.46.324-6.38-2.157-6.704-5.608z" fill="#96EADC"/><path d="M26.78 96.5c-.325-3.45 2.27-6.363 5.622-6.686 3.46-.324 6.38 2.265 6.704 5.608.324 3.452-2.271 6.364-5.623 6.687-3.46.324-6.38-2.157-6.704-5.608zm377.356 4.423c-.541 1.078-.973 2.157-1.406 3.236l1.73 1.617c.541.54 1.19.971 1.838 1.402l.973.648.974.647.973.647.54.324.541.215a27.835 27.835 0 0 0 2.595-2.265c1.946.971 4.109 1.618 6.379 2.05.217 1.078.433 2.265.757 3.343 1.514.324 3.136.324 4.758.432 1.513-.108 3.135-.108 4.649-.432.324-1.078.541-2.265.757-3.343 2.162-.432 4.325-1.079 6.271-2.05l2.595 2.265.541-.215.54-.324.974-.647.973-.647.973-.648c.649-.539 1.297-.97 1.838-1.509l1.73-1.618c-.433-1.079-.865-2.157-1.406-3.236 1.514-1.618 2.812-3.451 3.893-5.393 1.189.108 2.27.216 3.46.324 1.514-2.805 2.379-5.825 2.919-8.953-.973-.647-1.946-1.186-2.919-1.833.108-1.079.216-2.157.216-3.344 0-1.078-.108-2.265-.216-3.343.973-.54 1.946-1.187 2.919-1.834l-.216-1.186-.324-1.187c-.217-.755-.325-1.51-.649-2.265l-.865-2.157c-.325-.755-.649-1.402-.973-2.157-1.19 0-2.271.108-3.46.324-1.082-1.942-2.379-3.775-3.893-5.393.541-1.079.973-2.157 1.406-3.236-2.271-2.157-4.866-3.99-7.569-5.5a27.82 27.82 0 0 0-2.595 2.264c-1.946-.97-4.109-1.617-6.379-2.049-.217-1.078-.433-2.265-.757-3.343-1.514-.324-3.136-.324-4.65-.432-1.621.108-3.135.108-4.649.431-.324 1.08-.541 2.266-.757 3.344-2.27.431-4.325 1.187-6.379 2.05l-2.595-2.266c-2.811 1.51-5.406 3.344-7.569 5.501.433 1.079.865 2.157 1.406 3.236-1.514 1.618-2.812 3.451-3.893 5.393-1.189-.216-2.27-.216-3.46-.324-.324.755-.757 1.402-.973 2.157l-.757 2.265c-.324.755-.432 1.51-.649 2.265l-.324 1.187-.216 1.186c.973.647 1.946 1.294 3.027 1.834-.108 1.078-.216 2.157-.216 3.343 0 1.079.108 2.265.216 3.344-.973.54-1.946 1.186-3.027 1.833.54 3.128 1.405 6.148 2.919 8.953 1.19 0 2.271-.108 3.46-.324 1.19 1.941 2.487 3.775 4.001 5.393zm32.437-19.09c0 6.47-5.19 11.648-11.677 11.648-6.488 0-11.678-5.177-11.678-11.649 0-6.471 5.19-11.648 11.678-11.648 6.379 0 11.569 5.177 11.677 11.648zm-40.979-23.945a13.072 13.072 0 0 0 1.73-1.726l3.028 2.373a14.06 14.06 0 0 0 2.27-3.883c.541-1.402.865-2.912 1.081-4.422l-3.892-.324a9.537 9.537 0 0 0 0-2.48l3.892-.432c-.216-1.51-.54-3.02-1.189-4.422-.649-1.402-1.406-2.696-2.379-3.883l-3.027 2.48c-.541-.646-1.19-1.293-1.73-1.725l2.379-3.02a14.133 14.133 0 0 0-3.893-2.265c-1.406-.54-2.919-.97-4.433-1.078l-.324 3.882a9.603 9.603 0 0 0-2.487 0l-.433-3.882c-1.514.215-3.027.539-4.433 1.186-1.406.647-2.703 1.402-3.892 2.373l2.486 3.02c-.324.216-.648.54-.973.863-.324.323-.54.647-.865.97l-3.027-2.372a14.089 14.089 0 0 0-2.271 3.882c-.541 1.403-.973 2.913-1.081 4.423l3.892.323a9.537 9.537 0 0 0 0 2.48l-3.892.432c.216 1.51.541 3.02 1.189 4.422.649 1.403 1.406 2.697 2.379 3.883l3.028-2.48c.54.647 1.189 1.294 1.73 1.725l-2.379 3.02a14.128 14.128 0 0 0 3.892 2.265c1.406.54 2.92.971 4.433 1.079l.325-3.883c.649.108 1.297.108 1.838 0 .216 0 .432 0 .649-.108l.432 3.883c1.514-.216 3.028-.54 4.433-1.186 1.406-.648 2.703-1.403 3.893-2.373l-2.379-3.02zm-4.433-1.079a7.646 7.646 0 0 1-3.028.647c-3.568.216-7.136-1.833-8.541-5.393-.649-1.402-.757-2.912-.649-4.314.216-1.941 1.081-3.883 2.487-5.285.757-.863 1.73-1.51 2.919-1.941 4.541-1.942 9.731.215 11.569 4.638 1.839 4.637-.216 9.815-4.757 11.648z" fill="#1CD0C5"/><path d="M390.404 55.083c3.46-1.51 5.082-5.5 3.676-8.952-1.513-3.451-5.514-5.069-8.974-3.667-.865.324-1.622.863-2.271 1.51-1.081 1.079-1.73 2.589-1.946 4.099-.108 1.078 0 2.265.541 3.343a7.055 7.055 0 0 0 6.704 4.207c.756-.108 1.513-.216 2.27-.54zm31.574-13.697c.432-.432.973-.863 1.297-1.295l2.271 1.834c.649-.863 1.297-1.834 1.73-2.912.432-1.079.649-2.157.757-3.236l-2.812-.324c.109-.647 0-1.186 0-1.833l2.812-.324c-.108-1.078-.433-2.157-.865-3.235-.433-.971-.973-2.05-1.73-2.913l-2.271 1.834c-.432-.431-.865-.97-1.297-1.294l1.838-2.265c-.865-.647-1.838-1.295-2.92-1.726-1.081-.431-2.162-.647-3.243-.755l-.325 2.804c-.649-.108-1.189 0-1.838 0l-.324-2.804a11.087 11.087 0 0 0-3.244.863c-.973.431-2.054.97-2.919 1.726l1.838 2.265c-.217.215-.433.43-.649.647l-.649.647-2.27-1.834c-.649.863-1.298 1.834-1.73 2.912-.433 1.079-.649 2.157-.757 3.236l2.811.324c-.108.647 0 1.186 0 1.833l-2.811.324c.108 1.078.432 2.265.865 3.236.432.97.973 2.049 1.73 2.912l2.27-1.834c.433.431.865.97 1.298 1.294l-1.838 2.265c.865.648 1.838 1.295 2.919 1.726 1.081.431 2.163.647 3.244.755l.324-2.804h1.838l.325 2.804c1.081-.108 2.162-.431 3.243-.863.974-.431 2.055-.97 2.92-1.725l-1.838-2.266zm-3.244-.756c-.757.324-1.514.432-2.271.54-2.703.108-5.298-1.402-6.379-3.991-.433-1.079-.541-2.157-.541-3.128.108-1.51.757-2.804 1.838-3.883.541-.647 1.298-1.078 2.163-1.51 3.352-1.402 7.136.108 8.542 3.452 1.622 3.343 0 7.118-3.352 8.52z" fill="#1CD0C5"/><path d="M406.406 144.605H46.674c-7.136 0-12.975-5.825-12.975-12.943v-24.268c0-7.119 5.839-12.943 12.975-12.943h359.732c7.136 0 12.975 5.824 12.975 12.943v24.268c0 7.118-5.839 12.943-12.975 12.943z" fill="#fff"/><path d="M85.599 128.642l-13.732-9.168c1.19-3.667.865-7.766-1.298-11.325-3.892-6.472-12.326-8.52-18.813-4.638-6.488 3.883-8.542 12.296-4.65 18.767 3.893 6.472 12.326 8.521 18.814 4.638.973-.647 1.946-1.294 2.703-2.157l13.516 8.952c.973.647 2.27.431 2.92-.539l1.08-1.618c.65-.863.433-2.157-.54-2.912zm-34.384-8.845c-2.487-4.098-1.19-9.599 3.027-12.08 4.217-2.48 9.624-1.186 12.11 3.02 2.487 4.099 1.19 9.6-3.027 12.08-4.217 2.481-9.623 1.187-12.11-3.02z" fill="#F46A91"/><path d="M105.385 124.866c0 1.833-.648 3.343-2.054 4.422-1.406 1.079-3.136 1.618-5.406 1.618-2.703 0-4.758-.324-6.163-.863v-1.51c1.622.647 3.676.971 6.055.971 1.838 0 3.243-.432 4.325-1.295 1.081-.862 1.622-1.941 1.622-3.235 0-.863-.217-1.51-.541-2.05-.324-.539-.973-1.078-1.73-1.51-.757-.431-1.946-.97-3.46-1.51-2.27-.755-3.784-1.617-4.65-2.48-.864-.863-1.297-2.05-1.297-3.56 0-1.617.649-3.02 1.946-3.99 1.298-1.079 2.92-1.51 4.974-1.51 2.054 0 4.001.431 5.839 1.186l-.541 1.294c-1.838-.755-3.568-1.186-5.298-1.186-1.622 0-2.92.324-3.892 1.079-.974.755-1.406 1.833-1.406 3.127 0 .863.108 1.51.433 2.05.324.539.756.97 1.405 1.402.649.431 1.838.971 3.46 1.51 1.73.539 3.028 1.186 3.893 1.726.865.539 1.513 1.186 1.946 1.941.432.539.54 1.402.54 2.373zm16.76 5.717h-12.11V108.58h12.11v1.402h-10.488v8.305h9.948v1.402h-9.948v9.492h10.488v1.402zm15.677-7.765h-8.974l-3.136 7.765h-1.73l8.867-22.11h.973l8.758 22.11h-1.73l-3.028-7.765zm-8.433-1.402h7.893l-3.028-7.982c-.216-.647-.54-1.51-.865-2.589-.324.971-.54 1.834-.865 2.589l-3.135 7.982zm17.949-.432v9.599h-1.514V108.58h5.298c2.704 0 4.758.539 6.055 1.51 1.298.971 1.947 2.481 1.947 4.53 0 1.51-.433 2.697-1.19 3.775-.757.971-1.946 1.726-3.568 2.157l6.055 10.031h-1.946l-5.731-9.599h-5.406zm0-1.295h4.217c1.838 0 3.352-.431 4.325-1.294.973-.863 1.514-2.049 1.514-3.667 0-1.726-.541-2.912-1.514-3.667-.973-.755-2.703-1.187-4.974-1.187h-3.676v9.815h.108zm26.275-10.03c-2.812 0-4.974.863-6.596 2.696-1.622 1.726-2.379 4.207-2.379 7.227 0 3.128.757 5.608 2.271 7.334 1.514 1.726 3.676 2.589 6.487 2.589 1.838 0 3.568-.216 5.082-.755v1.402c-1.514.539-3.244.755-5.514.755-3.136 0-5.515-.971-7.353-3.02-1.838-2.05-2.703-4.746-2.703-8.413 0-2.265.433-4.207 1.298-5.932.865-1.726 2.054-3.02 3.676-3.991 1.622-.971 3.46-1.402 5.622-1.402 2.163 0 4.109.431 5.839 1.186l-.648 1.402c-1.622-.755-3.352-1.078-5.082-1.078zm25.841 20.924h-1.513v-10.894h-12.867v10.894h-1.73V108.58h1.513v9.815h12.867v-9.815h1.514v22.003h.216zm5.515-1.186c0-.971.432-1.51 1.189-1.51.865 0 1.19.539 1.19 1.51 0 .97-.433 1.51-1.19 1.51-.757 0-1.189-.54-1.189-1.51zm7.351 0c0-.971.433-1.51 1.19-1.51.865 0 1.189.539 1.189 1.51 0 .97-.432 1.51-1.189 1.51-.757 0-1.19-.54-1.19-1.51zm7.354 0c0-.971.432-1.51 1.189-1.51.865 0 1.19.539 1.19 1.51 0 .97-.433 1.51-1.19 1.51-.757 0-1.189-.54-1.189-1.51z" fill="#58368E"/><path d="M331.475 46.347c0 14.992-3.676 26.425-11.137 34.299-7.352 7.873-18.273 11.756-32.437 11.756-14.057 0-24.869-3.883-32.33-11.756-7.46-7.874-11.245-19.307-11.245-34.407 0-14.884 3.676-26.21 11.137-34.083C262.924 4.283 273.736.4 288.009.4c14.272 0 25.085 3.883 32.437 11.649 7.353 7.765 11.029 19.198 11.029 34.298zm-61.739 0c0 17.257 6.055 25.886 18.056 25.886 6.164 0 10.705-2.05 13.624-6.256 2.92-4.206 4.433-10.786 4.433-19.63 0-8.952-1.513-15.531-4.541-19.738-3.027-4.206-7.461-6.363-13.407-6.363-12.11-.108-18.165 8.628-18.165 26.101zm-37.843 25.131l4.541 2.157h-4.541v17.473h-48.656v2.157l-4.542-2.157V1.694h53.198l4.541 2.157h-4.541V21.11h-28.978v14.129h26.815l4.542 2.05h-4.542v17.256h-26.815v16.934h28.978zM126.687 25.53c0 1.726.865 3.344 2.703 4.746 1.838 1.402 6.704 3.883 14.813 7.55 7.677 3.452 13.083 7.227 16.111 11.11 3.027 3.99 4.541 8.952 4.541 14.992 0 5.5-1.406 10.462-4.217 14.776s-6.92 7.658-12.218 10.03c-5.298 2.374-11.569 3.56-18.706 3.56-5.946 0-10.92-.431-15.029-1.294-2.595-.54-5.298-1.294-8.001-2.373v.216l-4.541-2.157V65.114l4.433 2.05.216.107c3.244 1.402 6.487 2.481 9.839 3.344 4.974 1.294 9.515 1.941 13.732 1.941 3.568 0 6.271-.647 7.893-1.833 1.622-1.295 2.487-2.805 2.487-4.854a5.695 5.695 0 0 0-.973-3.236c-.649-.97-1.73-1.833-3.244-2.804-1.513-.97-5.514-2.804-11.893-5.716-5.839-2.697-10.272-5.177-13.192-7.658-2.919-2.48-5.082-5.285-6.487-8.52-1.406-3.237-2.163-7.012-2.163-11.434 0-8.197 3.028-14.668 8.975-19.306 6.055-4.638 14.272-6.903 24.76-6.903 9.299 0 18.706 2.157 28.437 6.364l4.541 2.157-5.081-.971-6.92 17.473c-8.326-3.775-15.57-5.717-21.734-5.717-3.135 0-5.406.54-6.92 1.618-1.405 1.295-2.162 2.697-2.162 4.315z" fill="#00A8A8"/><path d="M169.397 66.085c0 5.5-1.406 10.462-4.217 14.776-2.811 4.315-6.92 7.658-12.218 10.031s-11.57 3.56-18.706 3.56c-5.947 0-10.92-.432-15.029-1.295-4.001-.863-8.218-2.265-12.651-4.422V67.163c4.65 2.373 9.407 4.207 14.381 5.501 4.974 1.294 9.515 1.942 13.732 1.942 3.568 0 6.271-.647 7.893-1.834 1.622-1.294 2.487-2.804 2.487-4.746a5.702 5.702 0 0 0-.973-3.235c-.649-.971-1.73-1.834-3.244-2.805-1.514-.97-5.515-2.804-11.894-5.716-5.839-2.697-10.272-5.177-13.191-7.658-2.92-2.48-5.082-5.393-6.488-8.52-1.405-3.236-2.162-7.011-2.162-11.433 0-8.198 3.027-14.67 8.974-19.307 6.055-4.638 14.273-6.903 24.761-6.903 9.299 0 18.705 2.157 28.329 6.472L161.72 27.58c-8.326-3.883-15.57-5.716-21.733-5.716-3.136 0-5.406.539-6.812 1.617-1.406 1.079-2.163 2.481-2.163 4.099 0 1.726.865 3.344 2.704 4.746 1.838 1.402 6.703 3.883 14.813 7.55 7.677 3.451 13.083 7.226 16.11 11.109 3.244 4.099 4.758 9.168 4.758 15.1zm67.037 27.18h-53.198V3.852h53.198v19.414h-28.978v14.021h26.815v19.415h-26.815v16.825h28.978v19.738zm99.584-44.761c0 14.992-3.676 26.425-11.137 34.299-7.352 7.873-18.273 11.756-32.437 11.756-14.057 0-24.869-3.883-32.33-11.756-7.46-7.874-11.245-19.307-11.245-34.407 0-14.884 3.676-26.209 11.137-34.082 7.461-7.874 18.273-11.757 32.546-11.757 14.272 0 25.085 3.883 32.437 11.649 7.353 7.765 11.029 19.198 11.029 34.298zm-61.631 0c0 17.257 6.055 25.886 18.057 25.886 6.163 0 10.704-2.05 13.623-6.256 2.92-4.206 4.433-10.785 4.433-19.63 0-8.952-1.513-15.531-4.541-19.738-3.027-4.206-7.46-6.363-13.407-6.363-12.11-.108-18.165 8.628-18.165 26.101z" fill="#1CD0C5"/></svg>